<svg width="182" height="44" viewBox="0 0 182 44" fill="none" xmlns="http://www.w3.org/2000/svg">
<g clip-path="url(#clip0)">
<path d="M4.35803 17.8292C3.54083 19.2068 2.74698 19.6738 1.62624 19.7438C1.36941 19.7672 1.18262 19.7672 1.18262 20.1874C1.18262 20.3275 1.29936 20.4209 1.4628 20.4209C1.88308 20.4209 2.93377 20.3742 3.35404 20.3742C4.03115 20.3742 4.77831 20.4209 5.43207 20.4209C5.57216 20.4209 5.85235 20.4209 5.85235 19.9773C5.85235 19.7672 5.66556 19.7438 5.52547 19.7438C4.98845 19.6971 4.54482 19.5103 4.54482 18.95C4.54482 18.6231 4.68491 18.3663 4.98845 17.8526L6.76294 14.9107H12.7168C12.7402 15.1208 12.7402 15.3076 12.7635 15.5177C12.8336 16.1248 13.1138 18.553 13.1138 18.9967C13.1138 19.6971 11.923 19.7438 11.5494 19.7438C11.2926 19.7438 11.0357 19.7438 11.0357 20.1641C11.0357 20.4209 11.2459 20.4209 11.386 20.4209C11.7829 20.4209 12.2499 20.3742 12.6468 20.3742H13.9777C15.4019 20.3742 16.4293 20.4209 16.4526 20.4209C16.6161 20.4209 16.8729 20.4209 16.8729 19.9773C16.8729 19.7438 16.6628 19.7438 16.3125 19.7438C15.0284 19.7438 15.005 19.5337 14.935 18.8332L13.5107 4.26367C13.464 3.7967 13.3706 3.75 13.1138 3.75C12.8803 3.75 12.7402 3.7967 12.5301 4.14693L4.35803 17.8292ZM7.15987 14.2335L11.8529 6.3884L12.6468 14.2335H7.15987Z" fill="#00FFFF"/>
<path d="M21.4967 17.8292C20.6795 19.2068 19.8856 19.6738 18.7649 19.7438C18.5081 19.7672 18.3213 19.7672 18.3213 20.1874C18.3213 20.3275 18.438 20.4209 18.6015 20.4209C19.0217 20.4209 20.0724 20.3742 20.4927 20.3742C21.1698 20.3742 21.917 20.4209 22.5707 20.4209C22.7108 20.4209 22.991 20.4209 22.991 19.9773C22.991 19.7672 22.8042 19.7438 22.6641 19.7438C22.1271 19.6971 21.6835 19.5103 21.6835 18.95C21.6835 18.6231 21.8236 18.3663 22.1271 17.8526L23.9016 14.9107H29.8555C29.8789 15.1208 29.8789 15.3076 29.9022 15.5177C29.9723 16.1248 30.2524 18.553 30.2524 18.9967C30.2524 19.6971 29.0617 19.7438 28.6881 19.7438C28.4313 19.7438 28.1744 19.7438 28.1744 20.1641C28.1744 20.4209 28.3846 20.4209 28.5246 20.4209C28.9216 20.4209 29.3885 20.3742 29.7855 20.3742H31.1163C32.5406 20.3742 33.568 20.4209 33.5913 20.4209C33.7547 20.4209 34.0116 20.4209 34.0116 19.9773C34.0116 19.7438 33.8014 19.7438 33.4512 19.7438C32.167 19.7438 32.1437 19.5337 32.0736 18.8332L30.6494 4.26367C30.6027 3.7967 30.5093 3.75 30.2524 3.75C30.019 3.75 29.8789 3.7967 29.6687 4.14693L21.4967 17.8292ZM24.2985 14.2335L28.9916 6.3884L29.7855 14.2335H24.2985Z" fill="#00FFFF"/>
<path d="M45.3484 7.05189C45.624 7.05189 45.9158 7.05189 45.9158 6.72767C45.9158 6.40344 45.624 6.40344 45.3484 6.40344H36.5781C36.3025 6.40344 36.0107 6.40344 36.0107 6.72767C36.0107 7.05189 36.3025 7.05189 36.5781 7.05189H45.3484Z" fill="#00FFFF"/>
<path d="M51.9436 0.389069C51.9436 0.0162108 51.9436 0 51.6194 0C51.2303 0.437702 50.4198 1.03752 48.75 1.03752V1.50764C49.1229 1.50764 49.9334 1.50764 50.825 1.08615V9.53219C50.825 10.1158 50.7764 10.3103 49.3498 10.3103H48.8473V10.7804C49.285 10.748 50.8575 10.748 51.3924 10.748C51.9274 10.748 53.4837 10.748 53.9214 10.7804V10.3103H53.4188C51.9922 10.3103 51.9436 10.1158 51.9436 9.53219V0.389069Z" fill="#00FFFF"/>
<path d="M77.2731 12.926C77.6234 12.926 77.9736 12.926 77.9736 12.529C77.9736 12.1088 77.5767 12.1088 77.1797 12.1088H64.1278C63.7309 12.1088 63.334 12.1088 63.334 12.529C63.334 12.926 63.6842 12.926 64.0344 12.926H77.2731ZM77.1797 17.082C77.5767 17.082 77.9736 17.082 77.9736 16.6618C77.9736 16.2648 77.6234 16.2648 77.2731 16.2648H64.0344C63.6842 16.2648 63.334 16.2648 63.334 16.6618C63.334 17.082 63.7309 17.082 64.1278 17.082H77.1797Z" fill="#00FFFF"/>
<path d="M94.1448 6.20156C94.3549 5.38435 94.4016 5.15087 96.1061 5.15087C96.6197 5.15087 96.8065 5.15087 96.8065 4.70724C96.8065 4.47375 96.5497 4.47375 96.4796 4.47375C96.0594 4.47375 95.5457 4.52045 95.1254 4.52045H92.2535C91.7866 4.52045 91.2495 4.47375 90.7826 4.47375C90.5958 4.47375 90.3389 4.47375 90.3389 4.91738C90.3389 5.15087 90.5257 5.15087 90.9927 5.15087C92.4403 5.15087 92.4403 5.33765 92.4403 5.59449C92.4403 5.75793 92.3936 5.89802 92.3469 6.10816L89.1949 18.6931C88.9847 19.5103 88.938 19.7438 87.2336 19.7438C86.7199 19.7438 86.5098 19.7438 86.5098 20.1874C86.5098 20.4209 86.7433 20.4209 86.86 20.4209C87.2803 20.4209 87.7939 20.3742 88.2142 20.3742H91.0861C91.5531 20.3742 92.0667 20.4209 92.5337 20.4209C92.7205 20.4209 93.0007 20.4209 93.0007 20.0006C93.0007 19.7438 92.8606 19.7438 92.3469 19.7438C90.8993 19.7438 90.8993 19.557 90.8993 19.2768C90.8993 19.2301 90.8993 19.1134 90.9927 18.7398L94.1448 6.20156Z" fill="#00FFFF"/>
<path d="M118.97 12.926C119.321 12.926 119.671 12.926 119.671 12.529C119.671 12.1088 119.274 12.1088 118.877 12.1088H105.825C105.428 12.1088 105.031 12.1088 105.031 12.529C105.031 12.926 105.381 12.926 105.732 12.926H118.97ZM118.877 17.082C119.274 17.082 119.671 17.082 119.671 16.6618C119.671 16.2648 119.321 16.2648 118.97 16.2648H105.732C105.381 16.2648 105.031 16.2648 105.031 16.6618C105.031 17.082 105.428 17.082 105.825 17.082H118.877Z" fill="#00FFFF"/>
<path d="M131.219 17.8292C130.402 19.2068 129.608 19.6738 128.488 19.7438C128.231 19.7672 128.044 19.7672 128.044 20.1874C128.044 20.3275 128.161 20.4209 128.324 20.4209C128.744 20.4209 129.795 20.3742 130.215 20.3742C130.892 20.3742 131.64 20.4209 132.293 20.4209C132.433 20.4209 132.714 20.4209 132.714 19.9773C132.714 19.7672 132.527 19.7438 132.387 19.7438C131.85 19.6971 131.406 19.5103 131.406 18.95C131.406 18.6231 131.546 18.3663 131.85 17.8526L133.624 14.9107H139.578C139.602 15.1208 139.602 15.3076 139.625 15.5177C139.695 16.1248 139.975 18.553 139.975 18.9967C139.975 19.6971 138.784 19.7438 138.411 19.7438C138.154 19.7438 137.897 19.7438 137.897 20.1641C137.897 20.4209 138.107 20.4209 138.247 20.4209C138.644 20.4209 139.111 20.3742 139.508 20.3742H140.839C142.263 20.3742 143.291 20.4209 143.314 20.4209C143.477 20.4209 143.734 20.4209 143.734 19.9773C143.734 19.7438 143.524 19.7438 143.174 19.7438C141.89 19.7438 141.866 19.5337 141.796 18.8332L140.372 4.26367C140.325 3.7967 140.232 3.75 139.975 3.75C139.742 3.75 139.602 3.7967 139.391 4.14693L131.219 17.8292ZM134.021 14.2335L138.714 6.3884L139.508 14.2335H134.021Z" fill="#00FFFF"/>
<path d="M155.072 7.05189C155.348 7.05189 155.639 7.05189 155.639 6.72767C155.639 6.40344 155.348 6.40344 155.072 6.40344H146.302C146.026 6.40344 145.734 6.40344 145.734 6.72767C145.734 7.05189 146.026 7.05189 146.302 7.05189H155.072Z" fill="#00FFFF"/>
<path d="M161.666 0.389069C161.666 0.0162108 161.666 0 161.342 0C160.953 0.437702 160.142 1.03752 158.473 1.03752V1.50764C158.846 1.50764 159.656 1.50764 160.548 1.08615V9.53219C160.548 10.1158 160.499 10.3103 159.072 10.3103H158.57V10.7804C159.008 10.748 160.58 10.748 161.115 10.748C161.65 10.748 163.206 10.748 163.644 10.7804V10.3103H163.141C161.715 10.3103 161.666 10.1158 161.666 9.53219V0.389069Z" fill="#00FFFF"/>
<path d="M169.466 17.8292C168.649 19.2068 167.855 19.6738 166.735 19.7438C166.478 19.7672 166.291 19.7672 166.291 20.1874C166.291 20.3275 166.408 20.4209 166.571 20.4209C166.991 20.4209 168.042 20.3742 168.462 20.3742C169.14 20.3742 169.887 20.4209 170.54 20.4209C170.681 20.4209 170.961 20.4209 170.961 19.9773C170.961 19.7672 170.774 19.7438 170.634 19.7438C170.097 19.6971 169.653 19.5103 169.653 18.95C169.653 18.6231 169.793 18.3663 170.097 17.8526L171.871 14.9107H177.825C177.849 15.1208 177.849 15.3076 177.872 15.5177C177.942 16.1248 178.222 18.553 178.222 18.9967C178.222 19.6971 177.031 19.7438 176.658 19.7438C176.401 19.7438 176.144 19.7438 176.144 20.1641C176.144 20.4209 176.354 20.4209 176.494 20.4209C176.891 20.4209 177.358 20.3742 177.755 20.3742H179.086C180.51 20.3742 181.538 20.4209 181.561 20.4209C181.724 20.4209 181.981 20.4209 181.981 19.9773C181.981 19.7438 181.771 19.7438 181.421 19.7438C180.137 19.7438 180.113 19.5337 180.043 18.8332L178.619 4.26367C178.572 3.7967 178.479 3.75 178.222 3.75C177.989 3.75 177.849 3.7967 177.638 4.14693L169.466 17.8292ZM172.268 14.2335L176.961 6.3884L177.755 14.2335H172.268Z" fill="#00FFFF"/>
</g>
<path d="M13.8926 36.1973C12.9277 35.9199 12.2246 35.5801 11.7832 35.1777C11.3457 34.7715 11.127 34.2715 11.127 33.6777C11.127 33.0059 11.3945 32.4512 11.9297 32.0137C12.4688 31.5723 13.168 31.3516 14.0273 31.3516C14.6133 31.3516 15.1348 31.4648 15.5918 31.6914C16.0527 31.918 16.4082 32.2305 16.6582 32.6289C16.9121 33.0273 17.0391 33.4629 17.0391 33.9355H15.9082C15.9082 33.4199 15.7441 33.0156 15.416 32.7227C15.0879 32.4258 14.625 32.2773 14.0273 32.2773C13.4727 32.2773 13.0391 32.4004 12.7266 32.6465C12.418 32.8887 12.2637 33.2266 12.2637 33.6602C12.2637 34.0078 12.4102 34.3027 12.7031 34.5449C13 34.7832 13.502 35.002 14.209 35.2012C14.9199 35.4004 15.4746 35.6211 15.873 35.8633C16.2754 36.1016 16.5723 36.3809 16.7637 36.7012C16.959 37.0215 17.0566 37.3984 17.0566 37.832C17.0566 38.5234 16.7871 39.0781 16.248 39.4961C15.709 39.9102 14.9883 40.1172 14.0859 40.1172C13.5 40.1172 12.9531 40.0059 12.4453 39.7832C11.9375 39.5566 11.5449 39.248 11.2676 38.8574C10.9941 38.4668 10.8574 38.0234 10.8574 37.5273H11.9883C11.9883 38.043 12.1777 38.4512 12.5566 38.752C12.9395 39.0488 13.4492 39.1973 14.0859 39.1973C14.6797 39.1973 15.1348 39.0762 15.4512 38.834C15.7676 38.5918 15.9258 38.2617 15.9258 37.8438C15.9258 37.4258 15.7793 37.1035 15.4863 36.877C15.1934 36.6465 14.6621 36.4199 13.8926 36.1973ZM22.248 39.373C21.8262 39.8691 21.207 40.1172 20.3906 40.1172C19.7148 40.1172 19.1992 39.9219 18.8438 39.5312C18.4922 39.1367 18.3145 38.5547 18.3105 37.7852V33.6602H19.3945V37.7559C19.3945 38.7168 19.7852 39.1973 20.5664 39.1973C21.3945 39.1973 21.9453 38.8887 22.2188 38.2715V33.6602H23.3027V40H22.2715L22.248 39.373ZM30.3105 36.9004C30.3105 37.8652 30.0898 38.6426 29.6484 39.2324C29.207 39.8223 28.6094 40.1172 27.8555 40.1172C27.0859 40.1172 26.4805 39.873 26.0391 39.3848V42.4375H24.9551V33.6602H25.9453L25.998 34.3633C26.4395 33.8164 27.0527 33.543 27.8379 33.543C28.5996 33.543 29.2012 33.8301 29.6426 34.4043C30.0879 34.9785 30.3105 35.7773 30.3105 36.8008V36.9004ZM29.2266 36.7773C29.2266 36.0625 29.0742 35.498 28.7695 35.084C28.4648 34.6699 28.0469 34.4629 27.5156 34.4629C26.8594 34.4629 26.3672 34.7539 26.0391 35.3359V38.3652C26.3633 38.9434 26.8594 39.2324 27.5273 39.2324C28.0469 39.2324 28.459 39.0273 28.7637 38.6172C29.0723 38.2031 29.2266 37.5898 29.2266 36.7773ZM37.0488 36.9004C37.0488 37.8652 36.8281 38.6426 36.3867 39.2324C35.9453 39.8223 35.3477 40.1172 34.5938 40.1172C33.8242 40.1172 33.2188 39.873 32.7773 39.3848V42.4375H31.6934V33.6602H32.6836L32.7363 34.3633C33.1777 33.8164 33.791 33.543 34.5762 33.543C35.3379 33.543 35.9395 33.8301 36.3809 34.4043C36.8262 34.9785 37.0488 35.7773 37.0488 36.8008V36.9004ZM35.9648 36.7773C35.9648 36.0625 35.8125 35.498 35.5078 35.084C35.2031 34.6699 34.7852 34.4629 34.2539 34.4629C33.5977 34.4629 33.1055 34.7539 32.7773 35.3359V38.3652C33.1016 38.9434 33.5977 39.2324 34.2656 39.2324C34.7852 39.2324 35.1973 39.0273 35.502 38.6172C35.8105 38.2031 35.9648 37.5898 35.9648 36.7773ZM38.1445 36.7715C38.1445 36.1504 38.2656 35.5918 38.5078 35.0957C38.7539 34.5996 39.0938 34.2168 39.5273 33.9473C39.9648 33.6777 40.4629 33.543 41.0215 33.543C41.8848 33.543 42.582 33.8418 43.1133 34.4395C43.6484 35.0371 43.916 35.832 43.916 36.8242V36.9004C43.916 37.5176 43.7969 38.0723 43.5586 38.5645C43.3242 39.0527 42.9863 39.4336 42.5449 39.707C42.1074 39.9805 41.6035 40.1172 41.0332 40.1172C40.1738 40.1172 39.4766 39.8184 38.9414 39.2207C38.4102 38.623 38.1445 37.832 38.1445 36.8477V36.7715ZM39.2344 36.9004C39.2344 37.6035 39.3965 38.168 39.7207 38.5938C40.0488 39.0195 40.4863 39.2324 41.0332 39.2324C41.584 39.2324 42.0215 39.0176 42.3457 38.5879C42.6699 38.1543 42.832 37.5488 42.832 36.7715C42.832 36.0762 42.666 35.5137 42.334 35.084C42.0059 34.6504 41.5684 34.4336 41.0215 34.4336C40.4863 34.4336 40.0547 34.6465 39.7266 35.0723C39.3984 35.498 39.2344 36.1074 39.2344 36.9004ZM48.9668 38.3184C48.9668 38.0254 48.8555 37.7988 48.6328 37.6387C48.4141 37.4746 48.0293 37.334 47.4785 37.2168C46.9316 37.0996 46.4961 36.959 46.1719 36.7949C45.8516 36.6309 45.6133 36.4355 45.457 36.209C45.3047 35.9824 45.2285 35.7129 45.2285 35.4004C45.2285 34.8809 45.4473 34.4414 45.8848 34.082C46.3262 33.7227 46.8887 33.543 47.5723 33.543C48.291 33.543 48.873 33.7285 49.3184 34.0996C49.7676 34.4707 49.9922 34.9453 49.9922 35.5234H48.9023C48.9023 35.2266 48.7754 34.9707 48.5215 34.7559C48.2715 34.541 47.9551 34.4336 47.5723 34.4336C47.1777 34.4336 46.8691 34.5195 46.6465 34.6914C46.4238 34.8633 46.3125 35.0879 46.3125 35.3652C46.3125 35.627 46.416 35.8242 46.623 35.957C46.8301 36.0898 47.2031 36.2168 47.7422 36.3379C48.2852 36.459 48.7246 36.6035 49.0605 36.7715C49.3965 36.9395 49.6445 37.1426 49.8047 37.3809C49.9688 37.6152 50.0508 37.9023 50.0508 38.2422C50.0508 38.8086 49.8242 39.2637 49.3711 39.6074C48.918 39.9473 48.3301 40.1172 47.6074 40.1172C47.0996 40.1172 46.6504 40.0273 46.2598 39.8477C45.8691 39.668 45.5625 39.418 45.3398 39.0977C45.1211 38.7734 45.0117 38.4238 45.0117 38.0488H46.0957C46.1152 38.4121 46.2598 38.7012 46.5293 38.916C46.8027 39.127 47.1621 39.2324 47.6074 39.2324C48.0176 39.2324 48.3457 39.1504 48.5918 38.9863C48.8418 38.8184 48.9668 38.5957 48.9668 38.3184ZM54.0938 40.1172C53.2344 40.1172 52.5352 39.8359 51.9961 39.2734C51.457 38.707 51.1875 37.9512 51.1875 37.0059V36.8066C51.1875 36.1777 51.3066 35.6172 51.5449 35.125C51.7871 34.6289 52.123 34.2422 52.5527 33.9648C52.9863 33.6836 53.4551 33.543 53.959 33.543C54.7832 33.543 55.4238 33.8145 55.8809 34.3574C56.3379 34.9004 56.5664 35.6777 56.5664 36.6895V37.1406H52.2715C52.2871 37.7656 52.4688 38.2715 52.8164 38.6582C53.168 39.041 53.6133 39.2324 54.1523 39.2324C54.5352 39.2324 54.8594 39.1543 55.125 38.998C55.3906 38.8418 55.623 38.6348 55.8223 38.377L56.4844 38.8926C55.9531 39.709 55.1562 40.1172 54.0938 40.1172ZM53.959 34.4336C53.5215 34.4336 53.1543 34.5938 52.8574 34.9141C52.5605 35.2305 52.377 35.6758 52.3066 36.25H55.4824V36.168C55.4512 35.6172 55.3027 35.1914 55.0371 34.8906C54.7715 34.5859 54.4121 34.4336 53.959 34.4336ZM65.6836 37.7734H62.1094L61.3066 40H60.1465L63.4043 31.4688H64.3887L67.6523 40H66.498L65.6836 37.7734ZM62.4492 36.8477H65.3496L63.8965 32.8574L62.4492 36.8477ZM75.5215 40C75.459 39.875 75.4082 39.6523 75.3691 39.332C74.8652 39.8555 74.2637 40.1172 73.5645 40.1172C72.9395 40.1172 72.4258 39.9414 72.0234 39.5898C71.625 39.2344 71.4258 38.7852 71.4258 38.2422C71.4258 37.582 71.6758 37.0703 72.1758 36.707C72.6797 36.3398 73.3867 36.1562 74.2969 36.1562H75.3516V35.6582C75.3516 35.2793 75.2383 34.9785 75.0117 34.7559C74.7852 34.5293 74.4512 34.416 74.0098 34.416C73.623 34.416 73.2988 34.5137 73.0371 34.709C72.7754 34.9043 72.6445 35.1406 72.6445 35.418H71.5547C71.5547 35.1016 71.666 34.7969 71.8887 34.5039C72.1152 34.207 72.4199 33.9727 72.8027 33.8008C73.1895 33.6289 73.6133 33.543 74.0742 33.543C74.8047 33.543 75.377 33.7266 75.791 34.0938C76.2051 34.457 76.4199 34.959 76.4355 35.5996V38.5176C76.4355 39.0996 76.5098 39.5625 76.6582 39.9062V40H75.5215ZM73.7227 39.1738C74.0625 39.1738 74.3848 39.0859 74.6895 38.9102C74.9941 38.7344 75.2148 38.5059 75.3516 38.2246V36.9238H74.502C73.1738 36.9238 72.5098 37.3125 72.5098 38.0898C72.5098 38.4297 72.623 38.6953 72.8496 38.8867C73.0762 39.0781 73.3672 39.1738 73.7227 39.1738ZM79.1602 33.6602L79.1953 34.457C79.6797 33.8477 80.3125 33.543 81.0938 33.543C82.4336 33.543 83.1094 34.2988 83.1211 35.8105V40H82.0371V35.8047C82.0332 35.3477 81.9277 35.0098 81.7207 34.791C81.5176 34.5723 81.1992 34.4629 80.7656 34.4629C80.4141 34.4629 80.1055 34.5566 79.8398 34.7441C79.5742 34.9316 79.3672 35.1777 79.2188 35.4824V40H78.1348V33.6602H79.1602ZM84.4922 36.7773C84.4922 35.8047 84.7227 35.0234 85.1836 34.4336C85.6445 33.8398 86.248 33.543 86.9941 33.543C87.7363 33.543 88.3242 33.7969 88.7578 34.3047V31H89.8418V40H88.8457L88.793 39.3203C88.3594 39.8516 87.7559 40.1172 86.9824 40.1172C86.248 40.1172 85.6484 39.8164 85.1836 39.2148C84.7227 38.6133 84.4922 37.8281 84.4922 36.8594V36.7773ZM85.5762 36.9004C85.5762 37.6191 85.7246 38.1816 86.0215 38.5879C86.3184 38.9941 86.7285 39.1973 87.252 39.1973C87.9395 39.1973 88.4414 38.8887 88.7578 38.2715V35.3594C88.4336 34.7617 87.9355 34.4629 87.2637 34.4629C86.7324 34.4629 86.3184 34.668 86.0215 35.0781C85.7246 35.4883 85.5762 36.0957 85.5762 36.9004ZM94.6758 40V31.4688H97.4648C98.3906 31.4688 99.0859 31.6602 99.5508 32.043C100.02 32.4258 100.254 32.9922 100.254 33.7422C100.254 34.1406 100.141 34.4941 99.9141 34.8027C99.6875 35.1074 99.3789 35.3438 98.9883 35.5117C99.4492 35.6406 99.8125 35.8867 100.078 36.25C100.348 36.6094 100.482 37.0391 100.482 37.5391C100.482 38.3047 100.234 38.9062 99.7383 39.3438C99.2422 39.7812 98.541 40 97.6348 40H94.6758ZM95.8008 36.0098V39.0801H97.6582C98.1816 39.0801 98.5938 38.9453 98.8945 38.6758C99.1992 38.4023 99.3516 38.0273 99.3516 37.5508C99.3516 36.5234 98.793 36.0098 97.6758 36.0098H95.8008ZM95.8008 35.1074H97.5C97.9922 35.1074 98.3848 34.9844 98.6777 34.7383C98.9746 34.4922 99.123 34.1582 99.123 33.7363C99.123 33.2676 98.9863 32.9277 98.7129 32.7168C98.4395 32.502 98.0234 32.3945 97.4648 32.3945H95.8008V35.1074ZM108.873 40C108.811 39.875 108.76 39.6523 108.721 39.332C108.217 39.8555 107.615 40.1172 106.916 40.1172C106.291 40.1172 105.777 39.9414 105.375 39.5898C104.977 39.2344 104.777 38.7852 104.777 38.2422C104.777 37.582 105.027 37.0703 105.527 36.707C106.031 36.3398 106.738 36.1562 107.648 36.1562H108.703V35.6582C108.703 35.2793 108.59 34.9785 108.363 34.7559C108.137 34.5293 107.803 34.416 107.361 34.416C106.975 34.416 106.65 34.5137 106.389 34.709C106.127 34.9043 105.996 35.1406 105.996 35.418H104.906C104.906 35.1016 105.018 34.7969 105.24 34.5039C105.467 34.207 105.771 33.9727 106.154 33.8008C106.541 33.6289 106.965 33.543 107.426 33.543C108.156 33.543 108.729 33.7266 109.143 34.0938C109.557 34.457 109.771 34.959 109.787 35.5996V38.5176C109.787 39.0996 109.861 39.5625 110.01 39.9062V40H108.873ZM107.074 39.1738C107.414 39.1738 107.736 39.0859 108.041 38.9102C108.346 38.7344 108.566 38.5059 108.703 38.2246V36.9238H107.854C106.525 36.9238 105.861 37.3125 105.861 38.0898C105.861 38.4297 105.975 38.6953 106.201 38.8867C106.428 39.0781 106.719 39.1738 107.074 39.1738ZM114.551 34.6328C114.387 34.6055 114.209 34.5918 114.018 34.5918C113.307 34.5918 112.824 34.8945 112.57 35.5V40H111.486V33.6602H112.541L112.559 34.3926C112.914 33.8262 113.418 33.543 114.07 33.543C114.281 33.543 114.441 33.5703 114.551 33.625V34.6328ZM118.066 40.1172C117.207 40.1172 116.508 39.8359 115.969 39.2734C115.43 38.707 115.16 37.9512 115.16 37.0059V36.8066C115.16 36.1777 115.279 35.6172 115.518 35.125C115.76 34.6289 116.096 34.2422 116.525 33.9648C116.959 33.6836 117.428 33.543 117.932 33.543C118.756 33.543 119.396 33.8145 119.854 34.3574C120.311 34.9004 120.539 35.6777 120.539 36.6895V37.1406H116.244C116.26 37.7656 116.441 38.2715 116.789 38.6582C117.141 39.041 117.586 39.2324 118.125 39.2324C118.508 39.2324 118.832 39.1543 119.098 38.998C119.363 38.8418 119.596 38.6348 119.795 38.377L120.457 38.8926C119.926 39.709 119.129 40.1172 118.066 40.1172ZM117.932 34.4336C117.494 34.4336 117.127 34.5938 116.83 34.9141C116.533 35.2305 116.35 35.6758 116.279 36.25H119.455V36.168C119.424 35.6172 119.275 35.1914 119.01 34.8906C118.744 34.5859 118.385 34.4336 117.932 34.4336ZM125.953 40H124.869V33.6602H125.953V40ZM124.781 31.9785C124.781 31.8027 124.834 31.6543 124.939 31.5332C125.049 31.4121 125.209 31.3516 125.42 31.3516C125.631 31.3516 125.791 31.4121 125.9 31.5332C126.01 31.6543 126.064 31.8027 126.064 31.9785C126.064 32.1543 126.01 32.3008 125.9 32.418C125.791 32.5352 125.631 32.5938 125.42 32.5938C125.209 32.5938 125.049 32.5352 124.939 32.418C124.834 32.3008 124.781 32.1543 124.781 31.9785ZM128.719 33.6602L128.754 34.457C129.238 33.8477 129.871 33.543 130.652 33.543C131.992 33.543 132.668 34.2988 132.68 35.8105V40H131.596V35.8047C131.592 35.3477 131.486 35.0098 131.279 34.791C131.076 34.5723 130.758 34.4629 130.324 34.4629C129.973 34.4629 129.664 34.5566 129.398 34.7441C129.133 34.9316 128.926 35.1777 128.777 35.4824V40H127.693V33.6602H128.719ZM136.406 38.5293L137.977 33.6602H139.084L136.811 40H135.984L133.688 33.6602H134.795L136.406 38.5293ZM142.676 40.1172C141.816 40.1172 141.117 39.8359 140.578 39.2734C140.039 38.707 139.77 37.9512 139.77 37.0059V36.8066C139.77 36.1777 139.889 35.6172 140.127 35.125C140.369 34.6289 140.705 34.2422 141.135 33.9648C141.568 33.6836 142.037 33.543 142.541 33.543C143.365 33.543 144.006 33.8145 144.463 34.3574C144.92 34.9004 145.148 35.6777 145.148 36.6895V37.1406H140.854C140.869 37.7656 141.051 38.2715 141.398 38.6582C141.75 39.041 142.195 39.2324 142.734 39.2324C143.117 39.2324 143.441 39.1543 143.707 38.998C143.973 38.8418 144.205 38.6348 144.404 38.377L145.066 38.8926C144.535 39.709 143.738 40.1172 142.676 40.1172ZM142.541 34.4336C142.104 34.4336 141.736 34.5938 141.439 34.9141C141.143 35.2305 140.959 35.6758 140.889 36.25H144.064V36.168C144.033 35.6172 143.885 35.1914 143.619 34.8906C143.354 34.5859 142.994 34.4336 142.541 34.4336ZM149.473 34.6328C149.309 34.6055 149.131 34.5918 148.939 34.5918C148.229 34.5918 147.746 34.8945 147.492 35.5V40H146.408V33.6602H147.463L147.48 34.3926C147.836 33.8262 148.34 33.543 148.992 33.543C149.203 33.543 149.363 33.5703 149.473 33.625V34.6328ZM152.238 32.125V33.6602H153.422V34.498H152.238V38.4297C152.238 38.6836 152.291 38.875 152.396 39.0039C152.502 39.1289 152.682 39.1914 152.936 39.1914C153.061 39.1914 153.232 39.168 153.451 39.1211V40C153.166 40.0781 152.889 40.1172 152.619 40.1172C152.135 40.1172 151.77 39.9707 151.523 39.6777C151.277 39.3848 151.154 38.9688 151.154 38.4297V34.498H150V33.6602H151.154V32.125H152.238ZM155.871 40H154.787V33.6602H155.871V40ZM154.699 31.9785C154.699 31.8027 154.752 31.6543 154.857 31.5332C154.967 31.4121 155.127 31.3516 155.338 31.3516C155.549 31.3516 155.709 31.4121 155.818 31.5332C155.928 31.6543 155.982 31.8027 155.982 31.9785C155.982 32.1543 155.928 32.3008 155.818 32.418C155.709 32.5352 155.549 32.5938 155.338 32.5938C155.127 32.5938 154.967 32.5352 154.857 32.418C154.752 32.3008 154.699 32.1543 154.699 31.9785ZM162.979 36.9004C162.979 37.8691 162.756 38.6484 162.311 39.2383C161.865 39.8242 161.268 40.1172 160.518 40.1172C159.717 40.1172 159.098 39.834 158.66 39.2676L158.607 40H157.611V31H158.695V34.3574C159.133 33.8145 159.736 33.543 160.506 33.543C161.275 33.543 161.879 33.834 162.316 34.416C162.758 34.998 162.979 35.7949 162.979 36.8066V36.9004ZM161.895 36.7773C161.895 36.0391 161.752 35.4688 161.467 35.0664C161.182 34.6641 160.771 34.4629 160.236 34.4629C159.521 34.4629 159.008 34.7949 158.695 35.459V38.2012C159.027 38.8652 159.545 39.1973 160.248 39.1973C160.768 39.1973 161.172 38.9961 161.461 38.5938C161.75 38.1914 161.895 37.5859 161.895 36.7773ZM165.527 40H164.443V31H165.527V40ZM169.898 40.1172C169.039 40.1172 168.34 39.8359 167.801 39.2734C167.262 38.707 166.992 37.9512 166.992 37.0059V36.8066C166.992 36.1777 167.111 35.6172 167.35 35.125C167.592 34.6289 167.928 34.2422 168.357 33.9648C168.791 33.6836 169.26 33.543 169.764 33.543C170.588 33.543 171.229 33.8145 171.686 34.3574C172.143 34.9004 172.371 35.6777 172.371 36.6895V37.1406H168.076C168.092 37.7656 168.273 38.2715 168.621 38.6582C168.973 39.041 169.418 39.2324 169.957 39.2324C170.34 39.2324 170.664 39.1543 170.93 38.998C171.195 38.8418 171.428 38.6348 171.627 38.377L172.289 38.8926C171.758 39.709 170.961 40.1172 169.898 40.1172ZM169.764 34.4336C169.326 34.4336 168.959 34.5938 168.662 34.9141C168.365 35.2305 168.182 35.6758 168.111 36.25H171.287V36.168C171.256 35.6172 171.107 35.1914 170.842 34.8906C170.576 34.5859 170.217 34.4336 169.764 34.4336Z" fill="#00FFFF"/>
<defs>
<clipPath id="clip0">
<rect width="181.592" height="20.4209" fill="white" transform="translate(0.388672)"/>
</clipPath>
</defs>
</svg>
