<svg width="213" height="57" viewBox="0 0 213 57" fill="none" xmlns="http://www.w3.org/2000/svg">
<path d="M0.388672 56.0134H6.52937V54.7292H1.67285V1.28418H6.52937V0H0.388672V56.0134Z" fill="#00FFFF"/>
<path d="M22.1657 4.65545C22.1657 4.16513 22.1424 4.14178 21.8155 4.14178C20.9049 5.23917 19.5273 5.5894 18.2198 5.6361C18.1498 5.6361 18.033 5.6361 18.0097 5.68279C17.9863 5.72949 17.9863 5.77619 17.9863 6.26651C18.7101 6.26651 19.9243 6.12642 20.8582 5.56605V17.8708C20.8582 18.688 20.8115 18.9682 18.8035 18.9682H18.1031V19.5752C19.2238 19.5519 20.3912 19.5285 21.512 19.5285C22.6327 19.5285 23.8001 19.5519 24.9209 19.5752V18.9682H24.2204C22.2124 18.9682 22.1657 18.7113 22.1657 17.8708V4.65545Z" fill="#00FFFF"/>
<path d="M56.8069 12.0803C56.8069 10.6561 56.7835 8.2278 55.8029 6.3599C54.939 4.7255 53.5614 4.14178 52.3473 4.14178C51.2266 4.14178 49.8023 4.65545 48.915 6.33656C47.9811 8.08771 47.8877 10.2591 47.8877 12.0803C47.8877 13.4112 47.911 15.4425 48.6349 17.217C49.6388 19.6219 51.4367 19.9488 52.3473 19.9488C53.4213 19.9488 55.0557 19.5052 56.013 17.2871C56.7135 15.676 56.8069 13.7848 56.8069 12.0803ZM52.3473 19.5752C50.853 19.5752 49.9657 18.2911 49.6388 16.5166C49.382 15.139 49.382 13.131 49.382 11.8235C49.382 10.0256 49.382 8.53133 49.6855 7.10706C50.1292 5.12243 51.4367 4.51536 52.3473 4.51536C53.3046 4.51536 54.5421 5.14578 54.9857 7.06036C55.2892 8.39124 55.3126 9.9556 55.3126 11.8235C55.3126 13.3412 55.3126 15.209 55.0324 16.5866C54.5421 19.1316 53.1645 19.5752 52.3473 19.5752Z" fill="#00FFFF"/>
<path d="M22.2613 42.3495C22.6582 42.3495 23.0785 42.3495 23.0785 41.8826C23.0785 41.4156 22.6582 41.4156 22.2613 41.4156H9.6297C9.23278 41.4156 8.8125 41.4156 8.8125 41.8826C8.8125 42.3495 9.23278 42.3495 9.6297 42.3495H22.2613Z" fill="#00FFFF"/>
<path d="M32.8801 32.6132C32.8801 32.1228 32.8568 32.0995 32.4365 32.0995L25.502 43.1434V43.7505H31.5259V46.0386C31.5259 46.8792 31.4792 47.1127 29.8448 47.1127H29.4012V47.7197C30.1483 47.673 31.4092 47.673 32.203 47.673C32.9969 47.673 34.2577 47.673 35.0049 47.7197V47.1127H34.5612C32.9268 47.1127 32.8801 46.8792 32.8801 46.0386V43.7505H35.2617V43.1434H32.8801V32.6132ZM31.596 34.1542V43.1434H25.9689L31.596 34.1542Z" fill="#00FFFF"/>
<path d="M53.2116 32.7999C53.2116 32.3096 53.1883 32.2863 52.8614 32.2863C51.9508 33.3836 50.5732 33.7339 49.2657 33.7806C49.1957 33.7806 49.0789 33.7806 49.0556 33.8273C49.0322 33.874 49.0322 33.9207 49.0322 34.411C49.756 34.411 50.9702 34.2709 51.9041 33.7105V46.0153C51.9041 46.8325 51.8574 47.1126 49.8494 47.1126H49.149V47.7197C50.2697 47.6964 51.4371 47.673 52.5579 47.673C53.6786 47.673 54.846 47.6964 55.9668 47.7197V47.1126H55.2663C53.2583 47.1126 53.2116 46.8558 53.2116 46.0153V32.7999Z" fill="#00FFFF"/>
<path d="M62.8917 54.7292H58.0352V56.0134H64.1759V0H58.0352V1.28418H62.8917V54.7292Z" fill="#00FFFF"/>
<path d="M79.7598 56.0134H85.9005V54.7292H81.0439V1.28418H85.9005V0H79.7598V56.0134Z" fill="#00FFFF"/>
<path d="M95.9822 15.9562H95.5619C95.3285 17.614 95.1417 17.8941 95.0483 18.0342C94.9315 18.221 93.2504 18.221 92.9235 18.221H88.4406C89.2812 17.3104 90.9156 15.6527 92.9002 13.7381C94.3245 12.3839 95.9822 10.7961 95.9822 8.48463C95.9822 5.72949 93.7874 4.14178 91.3358 4.14178C88.7675 4.14178 87.2031 6.4066 87.2031 8.50798C87.2031 9.41858 87.8802 9.53532 88.1604 9.53532C88.3939 9.53532 89.0944 9.39523 89.0944 8.57803C89.0944 7.85422 88.4873 7.64408 88.1604 7.64408C88.0203 7.64408 87.8802 7.66743 87.7868 7.71413C88.2305 5.72949 89.5847 4.74885 91.009 4.74885C93.0403 4.74885 94.3712 6.3599 94.3712 8.48463C94.3712 10.516 93.1804 12.2671 91.8495 13.7848L87.2031 19.0382V19.5752H95.4218L95.9822 15.9562Z" fill="#00FFFF"/>
<path d="M114.423 4.65545C114.423 4.16513 114.399 4.14178 114.072 4.14178C113.162 5.23917 111.784 5.5894 110.477 5.6361C110.407 5.6361 110.29 5.6361 110.267 5.68279C110.243 5.72949 110.243 5.77619 110.243 6.26651C110.967 6.26651 112.181 6.12642 113.115 5.56605V17.8708C113.115 18.688 113.068 18.9682 111.06 18.9682H110.36V19.5752C111.481 19.5519 112.648 19.5285 113.769 19.5285C114.89 19.5285 116.057 19.5519 117.178 19.5752V18.9682H116.477C114.469 18.9682 114.423 18.7113 114.423 17.8708V4.65545Z" fill="#00FFFF"/>
<path d="M92.5969 39.3142C94.0679 38.567 95.5622 37.4463 95.5622 35.6485C95.5622 33.5237 93.5075 32.2863 91.6163 32.2863C89.4916 32.2863 87.6237 33.8273 87.6237 35.952C87.6237 36.5357 87.7638 37.5397 88.6744 38.4269C88.9078 38.6604 89.8885 39.3609 90.5189 39.8045C89.4682 40.3415 87.0166 41.6257 87.0166 44.1941C87.0166 46.599 89.3048 48.0933 91.5696 48.0933C94.0679 48.0933 96.1693 46.2954 96.1693 43.9139C96.1693 41.7892 94.745 40.8085 93.8111 40.1781L92.5969 39.3142ZM89.5383 37.2595C89.3515 37.1428 88.4175 36.419 88.4175 35.3216C88.4175 33.8973 89.8885 32.8233 91.5696 32.8233C93.4141 32.8233 94.7684 34.1308 94.7684 35.6485C94.7684 37.8199 92.3401 39.0574 92.2234 39.0574C92.2 39.0574 92.1767 39.0574 91.9899 38.9173L89.5383 37.2595ZM93.8344 42.046C94.1846 42.3028 95.3054 43.0733 95.3054 44.4976C95.3054 46.2254 93.5776 47.5329 91.6163 47.5329C89.4916 47.5329 87.8805 46.0153 87.8805 44.1707C87.8805 42.3262 89.3048 40.7852 90.9158 40.0614L93.8344 42.046Z" fill="#00FFFF"/>
<path d="M118.742 33.1735V32.6598H113.255C110.524 32.6598 110.477 32.3563 110.384 31.9127H109.963L109.286 36.2789H109.706C109.776 35.8352 109.94 34.6445 110.22 34.2008C110.36 34.014 112.088 34.014 112.485 34.014H117.622L115.03 37.8666C113.302 40.4583 112.111 43.9606 112.111 47.0192C112.111 47.2994 112.111 48.0933 112.952 48.0933C113.792 48.0933 113.792 47.2994 113.792 46.9959V45.9219C113.792 42.0927 114.446 39.571 115.52 37.96L118.742 33.1735Z" fill="#00FFFF"/>
<path d="M124.104 54.7292H119.247V56.0134H125.388V0H119.247V1.28418H124.104V54.7292Z" fill="#00FFFF"/>
<path d="M152.742 26.3609C153.092 26.3609 153.442 26.3609 153.442 25.964C153.442 25.5437 153.045 25.5437 152.648 25.5437H139.597C139.2 25.5437 138.803 25.5437 138.803 25.964C138.803 26.3609 139.153 26.3609 139.503 26.3609H152.742ZM152.648 30.517C153.045 30.517 153.442 30.517 153.442 30.0967C153.442 29.6998 153.092 29.6998 152.742 29.6998H139.503C139.153 29.6998 138.803 29.6998 138.803 30.0967C138.803 30.517 139.2 30.517 139.597 30.517H152.648Z" fill="#00FFFF"/>
<path d="M166.858 56.0134H172.999V54.7292H168.143V1.28418H172.999V0H166.858V56.0134Z" fill="#00FFFF"/>
<path d="M183.081 15.9562H182.661C182.427 17.614 182.24 17.8941 182.147 18.0342C182.03 18.221 180.349 18.221 180.022 18.221H175.539C176.38 17.3104 178.014 15.6527 179.999 13.7381C181.423 12.3839 183.081 10.7961 183.081 8.48463C183.081 5.72949 180.886 4.14178 178.434 4.14178C175.866 4.14178 174.302 6.4066 174.302 8.50798C174.302 9.41858 174.979 9.53532 175.259 9.53532C175.493 9.53532 176.193 9.39523 176.193 8.57803C176.193 7.85422 175.586 7.64408 175.259 7.64408C175.119 7.64408 174.979 7.66743 174.885 7.71413C175.329 5.72949 176.683 4.74885 178.108 4.74885C180.139 4.74885 181.47 6.3599 181.47 8.48463C181.47 10.516 180.279 12.2671 178.948 13.7848L174.302 19.0382V19.5752H182.52L183.081 15.9562Z" fill="#00FFFF"/>
<path d="M201.521 4.65545C201.521 4.16513 201.498 4.14178 201.171 4.14178C200.26 5.23917 198.883 5.5894 197.575 5.6361C197.505 5.6361 197.388 5.6361 197.365 5.68279C197.342 5.72949 197.342 5.77619 197.342 6.26651C198.066 6.26651 199.28 6.12642 200.214 5.56605V17.8708C200.214 18.688 200.167 18.9682 198.159 18.9682H197.459V19.5752C198.579 19.5519 199.747 19.5285 200.867 19.5285C201.988 19.5285 203.156 19.5519 204.276 19.5752V18.9682H203.576C201.568 18.9682 201.521 18.7113 201.521 17.8708V4.65545Z" fill="#00FFFF"/>
<path d="M183.151 40.2248C183.151 38.8005 183.127 36.3723 182.147 34.5044C181.283 32.87 179.905 32.2863 178.691 32.2863C177.57 32.2863 176.146 32.7999 175.259 34.481C174.325 36.2322 174.231 38.4036 174.231 40.2248C174.231 41.5557 174.255 43.587 174.979 45.3615C175.983 47.7664 177.78 48.0933 178.691 48.0933C179.765 48.0933 181.399 47.6497 182.357 45.4315C183.057 43.8205 183.151 41.9292 183.151 40.2248ZM178.691 47.7197C177.197 47.7197 176.309 46.4355 175.983 44.661C175.726 43.2835 175.726 41.2755 175.726 39.968C175.726 38.1701 175.726 36.6758 176.029 35.2515C176.473 33.2669 177.78 32.6598 178.691 32.6598C179.648 32.6598 180.886 33.2902 181.329 35.2048C181.633 36.5357 181.656 38.1001 181.656 39.968C181.656 41.4856 181.656 43.3535 181.376 44.7311C180.886 47.2761 179.508 47.7197 178.691 47.7197Z" fill="#00FFFF"/>
<path d="M200.471 39.7812C202.549 39.7812 203.459 41.579 203.459 43.657C203.459 46.4589 201.965 47.5329 200.611 47.5329C199.373 47.5329 197.365 46.9259 196.735 45.128C196.852 45.1747 196.968 45.1747 197.085 45.1747C197.645 45.1747 198.066 44.8011 198.066 44.1941C198.066 43.517 197.552 43.2134 197.085 43.2134C196.688 43.2134 196.081 43.4002 196.081 44.2641C196.081 46.4122 198.182 48.0933 200.657 48.0933C203.249 48.0933 205.234 46.062 205.234 43.6804C205.234 41.4156 203.366 39.7812 201.148 39.5243C202.922 39.1508 204.627 37.563 204.627 35.4383C204.627 33.6171 202.782 32.2863 200.681 32.2863C198.556 32.2863 196.688 33.5938 196.688 35.4617C196.688 36.2789 197.295 36.419 197.599 36.419C198.089 36.419 198.509 36.1154 198.509 35.5084C198.509 34.9013 198.089 34.5978 197.599 34.5978C197.505 34.5978 197.389 34.5978 197.295 34.6445C197.972 33.1035 199.817 32.8233 200.634 32.8233C201.451 32.8233 202.992 33.2202 202.992 35.4617C202.992 36.1154 202.899 37.2829 202.105 38.3102C201.405 39.2208 200.611 39.2675 199.84 39.3375C199.723 39.3375 199.186 39.3842 199.093 39.3842C198.93 39.4076 198.836 39.4309 198.836 39.5944C198.836 39.7578 198.86 39.7812 199.327 39.7812H200.471Z" fill="#00FFFF"/>
<path d="M211.202 54.7292H206.346V56.0134H212.486V0H206.346V1.28418H211.202V54.7292Z" fill="#00FFFF"/>
</svg>
