<svg width="213" height="84" viewBox="0 0 213 84" fill="none" xmlns="http://www.w3.org/2000/svg">
<path d="M0.388672 83.0134H6.52937V81.7292H1.67285V28.2842H6.52937V27H0.388672V83.0134Z" fill="#00FFFF"/>
<path d="M22.1657 31.6555C22.1657 31.1651 22.1424 31.1418 21.8155 31.1418C20.9049 32.2392 19.5273 32.5894 18.2198 32.6361C18.1498 32.6361 18.033 32.6361 18.0097 32.6828C17.9863 32.7295 17.9863 32.7762 17.9863 33.2665C18.7101 33.2665 19.9243 33.1264 20.8582 32.5661V44.8708C20.8582 45.688 20.8115 45.9682 18.8035 45.9682H18.1031V46.5752C19.2238 46.5519 20.3912 46.5285 21.512 46.5285C22.6327 46.5285 23.8001 46.5519 24.9209 46.5752V45.9682H24.2204C22.2124 45.9682 22.1657 45.7113 22.1657 44.8708V31.6555Z" fill="#00FFFF"/>
<path d="M56.8069 39.0803C56.8069 37.6561 56.7835 35.2278 55.8029 33.3599C54.939 31.7255 53.5614 31.1418 52.3473 31.1418C51.2266 31.1418 49.8023 31.6555 48.915 33.3366C47.9811 35.0877 47.8877 37.2591 47.8877 39.0803C47.8877 40.4112 47.911 42.4425 48.6349 44.217C49.6388 46.6219 51.4367 46.9488 52.3473 46.9488C53.4213 46.9488 55.0557 46.5052 56.013 44.2871C56.7135 42.676 56.8069 40.7848 56.8069 39.0803ZM52.3473 46.5752C50.853 46.5752 49.9657 45.2911 49.6388 43.5166C49.382 42.139 49.382 40.131 49.382 38.8235C49.382 37.0256 49.382 35.5313 49.6855 34.1071C50.1292 32.1224 51.4367 31.5154 52.3473 31.5154C53.3046 31.5154 54.5421 32.1458 54.9857 34.0604C55.2892 35.3912 55.3126 36.9556 55.3126 38.8235C55.3126 40.3412 55.3126 42.209 55.0324 43.5866C54.5421 46.1316 53.1645 46.5752 52.3473 46.5752Z" fill="#00FFFF"/>
<path d="M22.2613 69.3495C22.6582 69.3495 23.0785 69.3495 23.0785 68.8826C23.0785 68.4156 22.6582 68.4156 22.2613 68.4156H9.6297C9.23278 68.4156 8.8125 68.4156 8.8125 68.8826C8.8125 69.3495 9.23278 69.3495 9.6297 69.3495H22.2613Z" fill="#00FFFF"/>
<path d="M32.8801 59.6132C32.8801 59.1228 32.8568 59.0995 32.4365 59.0995L25.502 70.1434V70.7505H31.5259V73.0386C31.5259 73.8792 31.4792 74.1127 29.8448 74.1127H29.4012V74.7197C30.1483 74.673 31.4092 74.673 32.203 74.673C32.9969 74.673 34.2577 74.673 35.0049 74.7197V74.1127H34.5612C32.9268 74.1127 32.8801 73.8792 32.8801 73.0386V70.7505H35.2617V70.1434H32.8801V59.6132ZM31.596 61.1542V70.1434H25.9689L31.596 61.1542Z" fill="#00FFFF"/>
<path d="M53.2116 59.7999C53.2116 59.3096 53.1883 59.2863 52.8614 59.2863C51.9508 60.3836 50.5732 60.7339 49.2657 60.7806C49.1957 60.7806 49.0789 60.7806 49.0556 60.8273C49.0322 60.874 49.0322 60.9207 49.0322 61.411C49.756 61.411 50.9702 61.2709 51.9041 60.7105V73.0153C51.9041 73.8325 51.8574 74.1126 49.8494 74.1126H49.149V74.7197C50.2697 74.6964 51.4371 74.673 52.5579 74.673C53.6786 74.673 54.846 74.6964 55.9668 74.7197V74.1126H55.2663C53.2583 74.1126 53.2116 73.8558 53.2116 73.0153V59.7999Z" fill="#00FFFF"/>
<path d="M62.8917 81.7292H58.0352V83.0134H64.1759V27H58.0352V28.2842H62.8917V81.7292Z" fill="#00FFFF"/>
<path d="M79.7598 83.0134H85.9005V81.7292H81.0439V28.2842H85.9005V27H79.7598V83.0134Z" fill="#00FFFF"/>
<path d="M95.9822 42.9562H95.5619C95.3285 44.614 95.1417 44.8941 95.0483 45.0342C94.9315 45.221 93.2504 45.221 92.9235 45.221H88.4406C89.2812 44.3104 90.9156 42.6527 92.9002 40.7381C94.3245 39.3839 95.9822 37.7961 95.9822 35.4846C95.9822 32.7295 93.7874 31.1418 91.3358 31.1418C88.7675 31.1418 87.2031 33.4066 87.2031 35.508C87.2031 36.4186 87.8802 36.5353 88.1604 36.5353C88.3939 36.5353 89.0944 36.3952 89.0944 35.578C89.0944 34.8542 88.4873 34.6441 88.1604 34.6441C88.0203 34.6441 87.8802 34.6674 87.7868 34.7141C88.2305 32.7295 89.5847 31.7488 91.009 31.7488C93.0403 31.7488 94.3712 33.3599 94.3712 35.4846C94.3712 37.516 93.1804 39.2671 91.8495 40.7848L87.2031 46.0382V46.5752H95.4218L95.9822 42.9562Z" fill="#00FFFF"/>
<path d="M114.423 31.6555C114.423 31.1651 114.399 31.1418 114.072 31.1418C113.162 32.2392 111.784 32.5894 110.477 32.6361C110.407 32.6361 110.29 32.6361 110.267 32.6828C110.243 32.7295 110.243 32.7762 110.243 33.2665C110.967 33.2665 112.181 33.1264 113.115 32.5661V44.8708C113.115 45.688 113.068 45.9682 111.06 45.9682H110.36V46.5752C111.481 46.5519 112.648 46.5285 113.769 46.5285C114.89 46.5285 116.057 46.5519 117.178 46.5752V45.9682H116.477C114.469 45.9682 114.423 45.7113 114.423 44.8708V31.6555Z" fill="#00FFFF"/>
<path d="M92.5969 66.3142C94.0679 65.567 95.5622 64.4463 95.5622 62.6485C95.5622 60.5237 93.5075 59.2863 91.6163 59.2863C89.4916 59.2863 87.6237 60.8273 87.6237 62.952C87.6237 63.5357 87.7638 64.5397 88.6744 65.4269C88.9078 65.6604 89.8885 66.3609 90.5189 66.8045C89.4682 67.3415 87.0166 68.6257 87.0166 71.1941C87.0166 73.599 89.3048 75.0933 91.5696 75.0933C94.0679 75.0933 96.1693 73.2954 96.1693 70.9139C96.1693 68.7892 94.745 67.8085 93.8111 67.1781L92.5969 66.3142ZM89.5383 64.2595C89.3515 64.1428 88.4175 63.419 88.4175 62.3216C88.4175 60.8973 89.8885 59.8233 91.5696 59.8233C93.4141 59.8233 94.7684 61.1308 94.7684 62.6485C94.7684 64.8199 92.3401 66.0574 92.2234 66.0574C92.2 66.0574 92.1767 66.0574 91.9899 65.9173L89.5383 64.2595ZM93.8344 69.046C94.1846 69.3028 95.3054 70.0733 95.3054 71.4976C95.3054 73.2254 93.5776 74.5329 91.6163 74.5329C89.4916 74.5329 87.8805 73.0153 87.8805 71.1707C87.8805 69.3262 89.3048 67.7852 90.9158 67.0614L93.8344 69.046Z" fill="#00FFFF"/>
<path d="M118.742 60.1735V59.6598H113.255C110.524 59.6598 110.477 59.3563 110.384 58.9127H109.963L109.286 63.2789H109.706C109.776 62.8352 109.94 61.6445 110.22 61.2008C110.36 61.014 112.088 61.014 112.485 61.014H117.622L115.03 64.8666C113.302 67.4583 112.111 70.9606 112.111 74.0192C112.111 74.2994 112.111 75.0933 112.952 75.0933C113.792 75.0933 113.792 74.2994 113.792 73.9959V72.9219C113.792 69.0927 114.446 66.571 115.52 64.96L118.742 60.1735Z" fill="#00FFFF"/>
<path d="M124.104 81.7292H119.247V83.0134H125.388V27H119.247V28.2842H124.104V81.7292Z" fill="#00FFFF"/>
<path d="M152.742 53.3609C153.092 53.3609 153.442 53.3609 153.442 52.964C153.442 52.5437 153.045 52.5437 152.648 52.5437H139.597C139.2 52.5437 138.803 52.5437 138.803 52.964C138.803 53.3609 139.153 53.3609 139.503 53.3609H152.742ZM152.648 57.517C153.045 57.517 153.442 57.517 153.442 57.0967C153.442 56.6998 153.092 56.6998 152.742 56.6998H139.503C139.153 56.6998 138.803 56.6998 138.803 57.0967C138.803 57.517 139.2 57.517 139.597 57.517H152.648Z" fill="#00FFFF"/>
<path d="M166.858 83.0134H172.999V81.7292H168.143V28.2842H172.999V27H166.858V83.0134Z" fill="#00FFFF"/>
<path d="M183.081 42.9562H182.661C182.427 44.614 182.24 44.8941 182.147 45.0342C182.03 45.221 180.349 45.221 180.022 45.221H175.539C176.38 44.3104 178.014 42.6527 179.999 40.7381C181.423 39.3839 183.081 37.7961 183.081 35.4846C183.081 32.7295 180.886 31.1418 178.434 31.1418C175.866 31.1418 174.302 33.4066 174.302 35.508C174.302 36.4186 174.979 36.5353 175.259 36.5353C175.493 36.5353 176.193 36.3952 176.193 35.578C176.193 34.8542 175.586 34.6441 175.259 34.6441C175.119 34.6441 174.979 34.6674 174.885 34.7141C175.329 32.7295 176.683 31.7488 178.108 31.7488C180.139 31.7488 181.47 33.3599 181.47 35.4846C181.47 37.516 180.279 39.2671 178.948 40.7848L174.302 46.0382V46.5752H182.52L183.081 42.9562Z" fill="#00FFFF"/>
<path d="M201.521 31.6555C201.521 31.1651 201.498 31.1418 201.171 31.1418C200.26 32.2392 198.883 32.5894 197.575 32.6361C197.505 32.6361 197.388 32.6361 197.365 32.6828C197.342 32.7295 197.342 32.7762 197.342 33.2665C198.066 33.2665 199.28 33.1264 200.214 32.5661V44.8708C200.214 45.688 200.167 45.9682 198.159 45.9682H197.459V46.5752C198.579 46.5519 199.747 46.5285 200.867 46.5285C201.988 46.5285 203.156 46.5519 204.276 46.5752V45.9682H203.576C201.568 45.9682 201.521 45.7113 201.521 44.8708V31.6555Z" fill="#00FFFF"/>
<path d="M183.151 67.2248C183.151 65.8005 183.127 63.3723 182.147 61.5044C181.283 59.87 179.905 59.2863 178.691 59.2863C177.57 59.2863 176.146 59.7999 175.259 61.481C174.325 63.2322 174.231 65.4036 174.231 67.2248C174.231 68.5557 174.255 70.587 174.979 72.3615C175.983 74.7664 177.78 75.0933 178.691 75.0933C179.765 75.0933 181.399 74.6497 182.357 72.4315C183.057 70.8205 183.151 68.9292 183.151 67.2248ZM178.691 74.7197C177.197 74.7197 176.309 73.4355 175.983 71.661C175.726 70.2835 175.726 68.2755 175.726 66.968C175.726 65.1701 175.726 63.6758 176.029 62.2515C176.473 60.2669 177.78 59.6598 178.691 59.6598C179.648 59.6598 180.886 60.2902 181.329 62.2048C181.633 63.5357 181.656 65.1001 181.656 66.968C181.656 68.4856 181.656 70.3535 181.376 71.7311C180.886 74.2761 179.508 74.7197 178.691 74.7197Z" fill="#00FFFF"/>
<path d="M200.471 66.7812C202.549 66.7812 203.459 68.579 203.459 70.657C203.459 73.4589 201.965 74.5329 200.611 74.5329C199.373 74.5329 197.365 73.9259 196.735 72.128C196.852 72.1747 196.968 72.1747 197.085 72.1747C197.645 72.1747 198.066 71.8011 198.066 71.1941C198.066 70.517 197.552 70.2134 197.085 70.2134C196.688 70.2134 196.081 70.4002 196.081 71.2641C196.081 73.4122 198.182 75.0933 200.657 75.0933C203.249 75.0933 205.234 73.062 205.234 70.6804C205.234 68.4156 203.366 66.7812 201.148 66.5243C202.922 66.1508 204.627 64.563 204.627 62.4383C204.627 60.6171 202.782 59.2863 200.681 59.2863C198.556 59.2863 196.688 60.5938 196.688 62.4617C196.688 63.2789 197.295 63.419 197.599 63.419C198.089 63.419 198.509 63.1154 198.509 62.5084C198.509 61.9013 198.089 61.5978 197.599 61.5978C197.505 61.5978 197.389 61.5978 197.295 61.6445C197.972 60.1035 199.817 59.8233 200.634 59.8233C201.451 59.8233 202.992 60.2202 202.992 62.4617C202.992 63.1154 202.899 64.2829 202.105 65.3102C201.405 66.2208 200.611 66.2675 199.84 66.3375C199.723 66.3375 199.186 66.3842 199.093 66.3842C198.93 66.4076 198.836 66.4309 198.836 66.5944C198.836 66.7578 198.86 66.7812 199.327 66.7812H200.471Z" fill="#00FFFF"/>
<path d="M211.202 81.7292H206.346V83.0134H212.486V27H206.346V28.2842H211.202V81.7292Z" fill="#00FFFF"/>
<path d="M36.1533 10.4835C36.1766 10.4135 36.2467 10.2501 36.2467 10.1567C36.2467 10.0399 36.1533 9.92318 36.0132 9.92318C35.9198 9.92318 35.8731 9.94652 35.803 10.0166C35.7563 10.0399 35.7563 10.0866 35.5462 10.5536C34.1686 13.8224 33.1646 15.2233 29.4289 15.2233H26.02C25.6931 15.2233 25.6464 15.2233 25.5063 15.2C25.2495 15.1766 25.2261 15.1299 25.2261 14.9431C25.2261 14.7797 25.2728 14.6396 25.3195 14.4295L26.9306 7.98524H29.2421C31.0633 7.98524 31.2034 8.38216 31.2034 9.08262C31.2034 9.31611 31.2034 9.52625 31.0399 10.2267C30.9932 10.3201 30.9699 10.4135 30.9699 10.4835C30.9699 10.647 31.0866 10.717 31.2267 10.717C31.4368 10.717 31.4602 10.5536 31.5536 10.2267L32.8845 4.80982C32.8845 4.69308 32.7911 4.57633 32.651 4.57633C32.4408 4.57633 32.4175 4.66973 32.3241 4.99661C31.8571 6.79446 31.3901 7.30813 29.3121 7.30813H27.094L28.5416 1.56436C28.7518 0.747157 28.7984 0.67711 29.7557 0.67711H33.0946C35.9665 0.67711 36.5502 1.44761 36.5502 3.22211C36.5502 3.24546 36.5502 3.89922 36.4568 4.66973C36.4335 4.76312 36.4101 4.90322 36.4101 4.94991C36.4101 5.1367 36.5269 5.20675 36.6669 5.20675C36.8304 5.20675 36.9238 5.11335 36.9705 4.69308L37.4608 0.607065C37.4608 0.537019 37.5075 0.303532 37.5075 0.256835C37.5075 -7.91401e-07 37.2974 0 36.8771 0H25.4829C25.0393 0 24.8058 -7.40886e-07 24.8058 0.420276C24.8058 0.67711 24.9693 0.67711 25.3662 0.67711C26.8138 0.67711 26.8138 0.840552 26.8138 1.09739C26.8138 1.21413 26.7905 1.30752 26.7204 1.56436L23.5684 14.1726C23.3582 14.9898 23.3115 15.2233 21.6771 15.2233C21.2335 15.2233 21 15.2233 21 15.6436C21 15.9004 21.1401 15.9004 21.6071 15.9004H33.3281C33.8418 15.9004 33.8651 15.8771 34.0285 15.5035L36.1533 10.4835Z" fill="#00FFFF"/>
<path d="M43.9821 16.6792H43.6255C43.5769 16.9548 43.4472 17.8464 43.2851 18.1058C43.1716 18.2517 42.2475 18.2517 41.7612 18.2517H38.7621C39.1998 17.8789 40.1887 16.8413 40.6102 16.4523C43.0743 14.1827 43.9821 13.3397 43.9821 11.7348C43.9821 9.87052 42.5069 8.62225 40.6264 8.62225C38.7459 8.62225 37.6436 10.2272 37.6436 11.6213C37.6436 12.4481 38.3568 12.4481 38.4055 12.4481C38.7459 12.4481 39.1674 12.2049 39.1674 11.6862C39.1674 11.2323 38.8594 10.9242 38.4055 10.9242C38.2596 10.9242 38.2272 10.9242 38.1785 10.9405C38.4865 9.83809 39.3619 9.09238 40.4157 9.09238C41.7936 9.09238 42.6366 10.2434 42.6366 11.7348C42.6366 13.1128 41.8423 14.3124 40.9182 15.3499L37.6436 19.0136V19.4027H43.5606L43.9821 16.6792Z" fill="#00FFFF"/>
<path d="M49.4553 9.01132C49.4553 8.63846 49.4553 8.62225 49.1311 8.62225C48.742 9.05996 47.9315 9.65977 46.2617 9.65977V10.1299C46.6346 10.1299 47.4451 10.1299 48.3368 9.7084V18.1544C48.3368 18.738 48.2881 18.9326 46.8615 18.9326H46.359V19.4027C46.7967 19.3703 48.3692 19.3703 48.9041 19.3703C49.4391 19.3703 50.9954 19.3703 51.4331 19.4027V18.9326H50.9305C49.504 18.9326 49.4553 18.738 49.4553 18.1544V9.01132Z" fill="#00FFFF"/>
<path d="M99.1754 16.0792C98.3582 17.4568 97.5644 17.9238 96.4436 17.9938C96.1868 18.0172 96 18.0172 96 18.4374C96 18.5775 96.1167 18.6709 96.2802 18.6709C96.7005 18.6709 97.7511 18.6242 98.1714 18.6242C98.8485 18.6242 99.5957 18.6709 100.249 18.6709C100.39 18.6709 100.67 18.6709 100.67 18.2273C100.67 18.0172 100.483 17.9938 100.343 17.9938C99.8058 17.9471 99.3622 17.7603 99.3622 17.2C99.3622 16.8731 99.5023 16.6163 99.8058 16.1026L101.58 13.1607H107.534C107.558 13.3708 107.558 13.5576 107.581 13.7677C107.651 14.3748 107.931 16.803 107.931 17.2467C107.931 17.9471 106.74 17.9938 106.367 17.9938C106.11 17.9938 105.853 17.9938 105.853 18.4141C105.853 18.6709 106.063 18.6709 106.203 18.6709C106.6 18.6709 107.067 18.6242 107.464 18.6242H108.795C110.219 18.6242 111.247 18.6709 111.27 18.6709C111.433 18.6709 111.69 18.6709 111.69 18.2273C111.69 17.9938 111.48 17.9938 111.13 17.9938C109.846 17.9938 109.822 17.7837 109.752 17.0832L108.328 2.51367C108.281 2.0467 108.188 2 107.931 2C107.698 2 107.558 2.0467 107.347 2.39693L99.1754 16.0792ZM101.977 12.4835L106.67 4.6384L107.464 12.4835H101.977Z" fill="#00FFFF"/>
<path d="M195.227 13.5769C194.41 16.8457 191.701 18.7603 189.506 18.7603C187.825 18.7603 186.681 17.6396 186.681 15.7017C186.681 15.6083 186.681 14.9078 186.938 13.8805L189.226 4.70445C189.436 3.9106 189.483 3.67711 191.141 3.67711C191.561 3.67711 191.794 3.67711 191.794 3.25684C191.794 3 191.584 3 191.444 3C191.024 3 190.534 3.0467 190.09 3.0467H187.335C186.891 3.0467 186.401 3 185.957 3C185.794 3 185.514 3 185.514 3.44362C185.514 3.67711 185.677 3.67711 186.121 3.67711C187.522 3.67711 187.522 3.8639 187.522 4.12074C187.522 4.26083 187.358 4.93794 187.241 5.33486L185.21 13.5069C185.14 13.7637 185 14.3941 185 15.0246C185 17.5929 186.845 19.4374 189.39 19.4374C191.748 19.4374 194.363 17.5696 195.554 14.6043C195.717 14.2074 195.927 13.3901 196.067 12.7597C196.301 11.9192 196.791 9.8645 196.955 9.25744L197.842 5.75514C198.145 4.54101 198.332 3.7705 200.387 3.67711C200.574 3.65376 200.667 3.46697 200.667 3.25684C200.667 3 200.457 3 200.363 3C200.037 3 199.616 3.0467 199.289 3.0467H198.192C196.744 3.0467 195.997 3 195.974 3C195.834 3 195.554 3 195.554 3.44362C195.554 3.67711 195.74 3.67711 195.904 3.67711C197.305 3.72381 197.398 4.26083 197.398 4.6811C197.398 4.89124 197.398 4.96129 197.305 5.28817L195.227 13.5769Z" fill="#00FFFF"/>
</svg>
