<svg width="173" height="57" viewBox="0 0 173 57" fill="none" xmlns="http://www.w3.org/2000/svg">
<path d="M0 56.0134H6.14069V54.7292H1.28418V1.28418H6.14069V0H0V56.0134Z" fill="#00FFFF"/>
<path d="M16.2225 15.9562H15.8022C15.5687 17.614 15.3819 17.8941 15.2885 18.0342C15.1718 18.221 13.4907 18.221 13.1638 18.221H8.68084C9.52139 17.3104 11.1558 15.6527 13.1404 13.7381C14.5647 12.3839 16.2225 10.7961 16.2225 8.48463C16.2225 5.72949 14.0277 4.14178 11.5761 4.14178C9.00772 4.14178 7.44336 6.4066 7.44336 8.50798C7.44336 9.41858 8.12047 9.53532 8.40065 9.53532C8.63414 9.53532 9.3346 9.39523 9.3346 8.57803C9.3346 7.85422 8.72754 7.64408 8.40065 7.64408C8.26056 7.64408 8.12047 7.66743 8.02708 7.71413C8.4707 5.72949 9.82492 4.74885 11.2492 4.74885C13.2805 4.74885 14.6114 6.3599 14.6114 8.48463C14.6114 10.516 13.4206 12.2671 12.0897 13.7848L7.44336 19.0382V19.5752H15.6621L16.2225 15.9562Z" fill="#00FFFF"/>
<path d="M34.6628 4.65545C34.6628 4.16513 34.6395 4.14178 34.3126 4.14178C33.402 5.23917 32.0244 5.5894 30.7169 5.6361C30.6468 5.6361 30.5301 5.6361 30.5067 5.68279C30.4834 5.72949 30.4834 5.77619 30.4834 6.26651C31.2072 6.26651 32.4213 6.12642 33.3553 5.56605V17.8708C33.3553 18.688 33.3086 18.9682 31.3006 18.9682H30.6001V19.5752C31.7209 19.5519 32.8883 19.5285 34.009 19.5285C35.1298 19.5285 36.2972 19.5519 37.4179 19.5752V18.9682H36.7175C34.7095 18.9682 34.6628 18.7113 34.6628 17.8708V4.65545Z" fill="#00FFFF"/>
<path d="M12.8362 39.3142C14.3072 38.567 15.8015 37.4463 15.8015 35.6485C15.8015 33.5237 13.7468 32.2863 11.8555 32.2863C9.73082 32.2863 7.86292 33.8273 7.86292 35.952C7.86292 36.5357 8.00302 37.5397 8.91361 38.4269C9.1471 38.6604 10.1277 39.3609 10.7582 39.8045C9.70747 40.3415 7.25586 41.6257 7.25586 44.1941C7.25586 46.599 9.54403 48.0933 11.8088 48.0933C14.3072 48.0933 16.4085 46.2954 16.4085 43.9139C16.4085 41.7892 14.9843 40.8085 14.0503 40.1781L12.8362 39.3142ZM9.77751 37.2595C9.59072 37.1428 8.65678 36.419 8.65678 35.3216C8.65678 33.8973 10.1277 32.8233 11.8088 32.8233C13.6534 32.8233 15.0076 34.1308 15.0076 35.6485C15.0076 37.8199 12.5794 39.0574 12.4626 39.0574C12.4393 39.0574 12.4159 39.0574 12.2291 38.9173L9.77751 37.2595ZM14.0737 42.046C14.4239 42.3028 15.5446 43.0733 15.5446 44.4976C15.5446 46.2254 13.8168 47.5329 11.8555 47.5329C9.73082 47.5329 8.11976 46.0153 8.11976 44.1707C8.11976 42.3262 9.54403 40.7852 11.1551 40.0614L14.0737 42.046Z" fill="#00FFFF"/>
<path d="M38.9816 33.1735V32.6598H33.4947C30.7629 32.6598 30.7162 32.3563 30.6228 31.9127H30.2025L29.5254 36.2789H29.9457C30.0157 35.8352 30.1792 34.6445 30.4593 34.2008C30.5994 34.014 32.3272 34.014 32.7242 34.014H37.8609L35.2692 37.8666C33.5414 40.4583 32.3506 43.9606 32.3506 47.0192C32.3506 47.2994 32.3506 48.0933 33.1911 48.0933C34.0317 48.0933 34.0317 47.2994 34.0317 46.9959V45.9219C34.0317 42.0927 34.6854 39.571 35.7595 37.96L38.9816 33.1735Z" fill="#00FFFF"/>
<path d="M44.3428 54.7292H39.4863V56.0134H45.627V0H39.4863V1.28418H44.3428V54.7292Z" fill="#00FFFF"/>
<path d="M72.9821 26.3609C73.3323 26.3609 73.6826 26.3609 73.6826 25.964C73.6826 25.5437 73.2856 25.5437 72.8887 25.5437H59.8368C59.4399 25.5437 59.043 25.5437 59.043 25.964C59.043 26.3609 59.3932 26.3609 59.7434 26.3609H72.9821ZM72.8887 30.517C73.2856 30.517 73.6826 30.517 73.6826 30.0967C73.6826 29.6998 73.3323 29.6998 72.9821 29.6998H59.7434C59.3932 29.6998 59.043 29.6998 59.043 30.0967C59.043 30.517 59.4399 30.517 59.8368 30.517H72.8887Z" fill="#00FFFF"/>
<path d="M87.0986 56.0134H93.2393V54.7292H88.3828V1.28418H93.2393V0H87.0986V56.0134Z" fill="#00FFFF"/>
<path d="M110.025 54.7292H105.169V56.0134H111.31V0H105.169V1.28418H110.025V54.7292Z" fill="#00FFFF"/>
<path d="M126.894 56.0134H133.034V54.7292H128.178V1.28418H133.034V0H126.894V56.0134Z" fill="#00FFFF"/>
<path d="M143.116 15.9562H142.696C142.462 17.614 142.275 17.8941 142.182 18.0342C142.065 18.221 140.384 18.221 140.057 18.221H135.574C136.415 17.3104 138.049 15.6527 140.034 13.7381C141.458 12.3839 143.116 10.7961 143.116 8.48463C143.116 5.72949 140.921 4.14178 138.47 4.14178C135.901 4.14178 134.337 6.4066 134.337 8.50798C134.337 9.41858 135.014 9.53532 135.294 9.53532C135.528 9.53532 136.228 9.39523 136.228 8.57803C136.228 7.85422 135.621 7.64408 135.294 7.64408C135.154 7.64408 135.014 7.66743 134.921 7.71413C135.364 5.72949 136.718 4.74885 138.143 4.74885C140.174 4.74885 141.505 6.3599 141.505 8.48463C141.505 10.516 140.314 12.2671 138.983 13.7848L134.337 19.0382V19.5752H142.556L143.116 15.9562Z" fill="#00FFFF"/>
<path d="M161.556 4.65545C161.556 4.16513 161.533 4.14178 161.206 4.14178C160.296 5.23917 158.918 5.5894 157.61 5.6361C157.54 5.6361 157.424 5.6361 157.4 5.68279C157.377 5.72949 157.377 5.77619 157.377 6.26651C158.101 6.26651 159.315 6.12642 160.249 5.56605V17.8708C160.249 18.688 160.202 18.9682 158.194 18.9682H157.494V19.5752C158.614 19.5519 159.782 19.5285 160.903 19.5285C162.023 19.5285 163.191 19.5519 164.312 19.5752V18.9682H163.611C161.603 18.9682 161.556 18.7113 161.556 17.8708V4.65545Z" fill="#00FFFF"/>
<path d="M143.186 40.2248C143.186 38.8005 143.162 36.3723 142.182 34.5044C141.318 32.87 139.94 32.2863 138.726 32.2863C137.605 32.2863 136.181 32.7999 135.294 34.481C134.36 36.2322 134.267 38.4036 134.267 40.2248C134.267 41.5557 134.29 43.587 135.014 45.3615C136.018 47.7664 137.816 48.0933 138.726 48.0933C139.8 48.0933 141.435 47.6497 142.392 45.4315C143.092 43.8205 143.186 41.9292 143.186 40.2248ZM138.726 47.7197C137.232 47.7197 136.345 46.4355 136.018 44.661C135.761 43.2835 135.761 41.2755 135.761 39.968C135.761 38.1701 135.761 36.6758 136.064 35.2515C136.508 33.2669 137.816 32.6598 138.726 32.6598C139.683 32.6598 140.921 33.2902 141.365 35.2048C141.668 36.5357 141.691 38.1001 141.691 39.968C141.691 41.4856 141.691 43.3535 141.411 44.7311C140.921 47.2761 139.543 47.7197 138.726 47.7197Z" fill="#00FFFF"/>
<path d="M160.506 39.7812C162.584 39.7812 163.494 41.579 163.494 43.657C163.494 46.4589 162 47.5329 160.646 47.5329C159.408 47.5329 157.4 46.9259 156.77 45.128C156.887 45.1747 157.003 45.1747 157.12 45.1747C157.681 45.1747 158.101 44.8011 158.101 44.1941C158.101 43.517 157.587 43.2134 157.12 43.2134C156.723 43.2134 156.116 43.4002 156.116 44.2641C156.116 46.4122 158.218 48.0933 160.693 48.0933C163.284 48.0933 165.269 46.062 165.269 43.6804C165.269 41.4156 163.401 39.7812 161.183 39.5243C162.957 39.1508 164.662 37.563 164.662 35.4383C164.662 33.6171 162.817 32.2863 160.716 32.2863C158.591 32.2863 156.723 33.5938 156.723 35.4617C156.723 36.2789 157.33 36.419 157.634 36.419C158.124 36.419 158.544 36.1154 158.544 35.5084C158.544 34.9013 158.124 34.5978 157.634 34.5978C157.54 34.5978 157.424 34.5978 157.33 34.6445C158.007 33.1035 159.852 32.8233 160.669 32.8233C161.486 32.8233 163.027 33.2202 163.027 35.4617C163.027 36.1154 162.934 37.2829 162.14 38.3102C161.44 39.2208 160.646 39.2675 159.875 39.3375C159.759 39.3375 159.222 39.3842 159.128 39.3842C158.965 39.4076 158.871 39.4309 158.871 39.5944C158.871 39.7578 158.895 39.7812 159.362 39.7812H160.506Z" fill="#00FFFF"/>
<path d="M171.237 54.7292H166.381V56.0134H172.522V0H166.381V1.28418H171.237V54.7292Z" fill="#00FFFF"/>
</svg>
