<svg width="173" height="83" viewBox="0 0 173 83" fill="none" xmlns="http://www.w3.org/2000/svg">
<path d="M0 82.0134H6.14069V80.7292H1.28418V27.2842H6.14069V26H0V82.0134Z" fill="#00FFFF"/>
<path d="M16.2225 41.9562H15.8022C15.5687 43.614 15.3819 43.8941 15.2885 44.0342C15.1718 44.221 13.4907 44.221 13.1638 44.221H8.68084C9.52139 43.3104 11.1558 41.6527 13.1404 39.7381C14.5647 38.3839 16.2225 36.7961 16.2225 34.4846C16.2225 31.7295 14.0277 30.1418 11.5761 30.1418C9.00772 30.1418 7.44336 32.4066 7.44336 34.508C7.44336 35.4186 8.12047 35.5353 8.40065 35.5353C8.63414 35.5353 9.3346 35.3952 9.3346 34.578C9.3346 33.8542 8.72754 33.6441 8.40065 33.6441C8.26056 33.6441 8.12047 33.6674 8.02708 33.7141C8.4707 31.7295 9.82492 30.7488 11.2492 30.7488C13.2805 30.7488 14.6114 32.3599 14.6114 34.4846C14.6114 36.516 13.4206 38.2671 12.0897 39.7848L7.44336 45.0382V45.5752H15.6621L16.2225 41.9562Z" fill="#00FFFF"/>
<path d="M34.6628 30.6555C34.6628 30.1651 34.6395 30.1418 34.3126 30.1418C33.402 31.2392 32.0244 31.5894 30.7169 31.6361C30.6468 31.6361 30.5301 31.6361 30.5067 31.6828C30.4834 31.7295 30.4834 31.7762 30.4834 32.2665C31.2072 32.2665 32.4213 32.1264 33.3553 31.5661V43.8708C33.3553 44.688 33.3086 44.9682 31.3006 44.9682H30.6001V45.5752C31.7209 45.5519 32.8883 45.5285 34.009 45.5285C35.1298 45.5285 36.2972 45.5519 37.4179 45.5752V44.9682H36.7175C34.7095 44.9682 34.6628 44.7113 34.6628 43.8708V30.6555Z" fill="#00FFFF"/>
<path d="M12.8362 65.3142C14.3072 64.567 15.8015 63.4463 15.8015 61.6485C15.8015 59.5237 13.7468 58.2863 11.8555 58.2863C9.73082 58.2863 7.86292 59.8273 7.86292 61.952C7.86292 62.5357 8.00302 63.5397 8.91361 64.4269C9.1471 64.6604 10.1277 65.3609 10.7582 65.8045C9.70747 66.3415 7.25586 67.6257 7.25586 70.1941C7.25586 72.599 9.54403 74.0933 11.8088 74.0933C14.3072 74.0933 16.4085 72.2954 16.4085 69.9139C16.4085 67.7892 14.9843 66.8085 14.0503 66.1781L12.8362 65.3142ZM9.77751 63.2595C9.59072 63.1428 8.65678 62.419 8.65678 61.3216C8.65678 59.8973 10.1277 58.8233 11.8088 58.8233C13.6534 58.8233 15.0076 60.1308 15.0076 61.6485C15.0076 63.8199 12.5794 65.0574 12.4626 65.0574C12.4393 65.0574 12.4159 65.0574 12.2291 64.9173L9.77751 63.2595ZM14.0737 68.046C14.4239 68.3028 15.5446 69.0733 15.5446 70.4976C15.5446 72.2254 13.8168 73.5329 11.8555 73.5329C9.73082 73.5329 8.11976 72.0153 8.11976 70.1707C8.11976 68.3262 9.54403 66.7852 11.1551 66.0614L14.0737 68.046Z" fill="#00FFFF"/>
<path d="M38.9816 59.1735V58.6598H33.4947C30.7629 58.6598 30.7162 58.3563 30.6228 57.9127H30.2025L29.5254 62.2789H29.9457C30.0157 61.8352 30.1792 60.6445 30.4593 60.2008C30.5994 60.014 32.3272 60.014 32.7242 60.014H37.8609L35.2692 63.8666C33.5414 66.4583 32.3506 69.9606 32.3506 73.0192C32.3506 73.2994 32.3506 74.0933 33.1911 74.0933C34.0317 74.0933 34.0317 73.2994 34.0317 72.9959V71.9219C34.0317 68.0927 34.6854 65.571 35.7595 63.96L38.9816 59.1735Z" fill="#00FFFF"/>
<path d="M44.3428 80.7292H39.4863V82.0134H45.627V26H39.4863V27.2842H44.3428V80.7292Z" fill="#00FFFF"/>
<path d="M72.9821 52.3609C73.3323 52.3609 73.6826 52.3609 73.6826 51.964C73.6826 51.5437 73.2856 51.5437 72.8887 51.5437H59.8368C59.4399 51.5437 59.043 51.5437 59.043 51.964C59.043 52.3609 59.3932 52.3609 59.7434 52.3609H72.9821ZM72.8887 56.517C73.2856 56.517 73.6826 56.517 73.6826 56.0967C73.6826 55.6998 73.3323 55.6998 72.9821 55.6998H59.7434C59.3932 55.6998 59.043 55.6998 59.043 56.0967C59.043 56.517 59.4399 56.517 59.8368 56.517H72.8887Z" fill="#00FFFF"/>
<path d="M87.0986 82.0134H93.2393V80.7292H88.3828V27.2842H93.2393V26H87.0986V82.0134Z" fill="#00FFFF"/>
<path d="M110.025 80.7292H105.169V82.0134H111.31V26H105.169V27.2842H110.025V80.7292Z" fill="#00FFFF"/>
<path d="M126.894 82.0134H133.034V80.7292H128.178V27.2842H133.034V26H126.894V82.0134Z" fill="#00FFFF"/>
<path d="M143.116 41.9562H142.696C142.462 43.614 142.275 43.8941 142.182 44.0342C142.065 44.221 140.384 44.221 140.057 44.221H135.574C136.415 43.3104 138.049 41.6527 140.034 39.7381C141.458 38.3839 143.116 36.7961 143.116 34.4846C143.116 31.7295 140.921 30.1418 138.47 30.1418C135.901 30.1418 134.337 32.4066 134.337 34.508C134.337 35.4186 135.014 35.5353 135.294 35.5353C135.528 35.5353 136.228 35.3952 136.228 34.578C136.228 33.8542 135.621 33.6441 135.294 33.6441C135.154 33.6441 135.014 33.6674 134.921 33.7141C135.364 31.7295 136.718 30.7488 138.143 30.7488C140.174 30.7488 141.505 32.3599 141.505 34.4846C141.505 36.516 140.314 38.2671 138.983 39.7848L134.337 45.0382V45.5752H142.556L143.116 41.9562Z" fill="#00FFFF"/>
<path d="M161.556 30.6555C161.556 30.1651 161.533 30.1418 161.206 30.1418C160.296 31.2392 158.918 31.5894 157.61 31.6361C157.54 31.6361 157.424 31.6361 157.4 31.6828C157.377 31.7295 157.377 31.7762 157.377 32.2665C158.101 32.2665 159.315 32.1264 160.249 31.5661V43.8708C160.249 44.688 160.202 44.9682 158.194 44.9682H157.494V45.5752C158.614 45.5519 159.782 45.5285 160.903 45.5285C162.023 45.5285 163.191 45.5519 164.312 45.5752V44.9682H163.611C161.603 44.9682 161.556 44.7113 161.556 43.8708V30.6555Z" fill="#00FFFF"/>
<path d="M143.186 66.2248C143.186 64.8005 143.162 62.3723 142.182 60.5044C141.318 58.87 139.94 58.2863 138.726 58.2863C137.605 58.2863 136.181 58.7999 135.294 60.481C134.36 62.2322 134.267 64.4036 134.267 66.2248C134.267 67.5557 134.29 69.587 135.014 71.3615C136.018 73.7664 137.816 74.0933 138.726 74.0933C139.8 74.0933 141.435 73.6497 142.392 71.4315C143.092 69.8205 143.186 67.9292 143.186 66.2248ZM138.726 73.7197C137.232 73.7197 136.345 72.4355 136.018 70.661C135.761 69.2835 135.761 67.2755 135.761 65.968C135.761 64.1701 135.761 62.6758 136.064 61.2515C136.508 59.2669 137.816 58.6598 138.726 58.6598C139.683 58.6598 140.921 59.2902 141.365 61.2048C141.668 62.5357 141.691 64.1001 141.691 65.968C141.691 67.4856 141.691 69.3535 141.411 70.7311C140.921 73.2761 139.543 73.7197 138.726 73.7197Z" fill="#00FFFF"/>
<path d="M160.506 65.7812C162.584 65.7812 163.494 67.579 163.494 69.657C163.494 72.4589 162 73.5329 160.646 73.5329C159.408 73.5329 157.4 72.9259 156.77 71.128C156.887 71.1747 157.003 71.1747 157.12 71.1747C157.681 71.1747 158.101 70.8011 158.101 70.1941C158.101 69.517 157.587 69.2134 157.12 69.2134C156.723 69.2134 156.116 69.4002 156.116 70.2641C156.116 72.4122 158.218 74.0933 160.693 74.0933C163.284 74.0933 165.269 72.062 165.269 69.6804C165.269 67.4156 163.401 65.7812 161.183 65.5243C162.957 65.1508 164.662 63.563 164.662 61.4383C164.662 59.6171 162.817 58.2863 160.716 58.2863C158.591 58.2863 156.723 59.5938 156.723 61.4617C156.723 62.2789 157.33 62.419 157.634 62.419C158.124 62.419 158.544 62.1154 158.544 61.5084C158.544 60.9013 158.124 60.5978 157.634 60.5978C157.54 60.5978 157.424 60.5978 157.33 60.6445C158.007 59.1035 159.852 58.8233 160.669 58.8233C161.486 58.8233 163.027 59.2202 163.027 61.4617C163.027 62.1154 162.934 63.2829 162.14 64.3102C161.44 65.2208 160.646 65.2675 159.875 65.3375C159.759 65.3375 159.222 65.3842 159.128 65.3842C158.965 65.4076 158.871 65.4309 158.871 65.5944C158.871 65.7578 158.895 65.7812 159.362 65.7812H160.506Z" fill="#00FFFF"/>
<path d="M171.237 80.7292H166.381V82.0134H172.522V26H166.381V27.2842H171.237V80.7292Z" fill="#00FFFF"/>
<path d="M19.1754 14.0792C18.3582 15.4568 17.5644 15.9238 16.4436 15.9938C16.1868 16.0172 16 16.0172 16 16.4374C16 16.5775 16.1167 16.6709 16.2802 16.6709C16.7005 16.6709 17.7511 16.6242 18.1714 16.6242C18.8485 16.6242 19.5957 16.6709 20.2495 16.6709C20.3895 16.6709 20.6697 16.6709 20.6697 16.2273C20.6697 16.0172 20.4829 15.9938 20.3428 15.9938C19.8058 15.9471 19.3622 15.7603 19.3622 15.2C19.3622 14.8731 19.5023 14.6163 19.8058 14.1026L21.5803 11.1607H27.5342C27.5576 11.3708 27.5576 11.5576 27.5809 11.7677C27.651 12.3748 27.9312 14.803 27.9312 15.2467C27.9312 15.9471 26.7404 15.9938 26.3668 15.9938C26.11 15.9938 25.8531 15.9938 25.8531 16.4141C25.8531 16.6709 26.0633 16.6709 26.2034 16.6709C26.6003 16.6709 27.0673 16.6242 27.4642 16.6242H28.7951C30.2193 16.6242 31.2467 16.6709 31.27 16.6709C31.4335 16.6709 31.6903 16.6709 31.6903 16.2273C31.6903 15.9938 31.4802 15.9938 31.1299 15.9938C29.8457 15.9938 29.8224 15.7837 29.7524 15.0832L28.3281 0.51367C28.2814 0.0466979 28.188 0 27.9312 0C27.6977 0 27.5576 0.0466973 27.3474 0.396927L19.1754 14.0792ZM21.9773 10.4835L26.6703 2.6384L27.4642 10.4835H21.9773Z" fill="#00FFFF"/>
<path d="M72.9391 6.8172C73.2894 6.8172 73.6396 6.8172 73.6396 6.42028C73.6396 6 73.2427 6 72.8457 6H59.7939C59.3969 6 59 6 59 6.42028C59 6.8172 59.3502 6.8172 59.7005 6.8172H72.9391ZM72.8457 10.9733C73.2427 10.9733 73.6396 10.9733 73.6396 10.553C73.6396 10.1561 73.2894 10.1561 72.9391 10.1561H59.7005C59.3502 10.1561 59 10.1561 59 10.553C59 10.9733 59.3969 10.9733 59.7939 10.9733H72.8457Z" fill="#00FFFF"/>
<path d="M101.495 2.79785C101.705 1.9106 101.775 1.67711 103.83 1.67711C104.46 1.67711 104.624 1.67711 104.624 1.23349C104.624 1 104.367 1 104.273 1C103.806 1 103.269 1.0467 102.802 1.0467H99.6737C99.2301 1.0467 98.7164 1 98.2728 1C98.086 1 97.8292 1 97.8292 1.44362C97.8292 1.67711 98.0393 1.67711 98.3895 1.67711C99.8138 1.67711 99.8138 1.8639 99.8138 2.12074C99.8138 2.16743 99.8138 2.30752 99.7204 2.65775L96.5684 15.2193C96.3582 16.0365 96.3115 16.27 94.6771 16.27C94.2335 16.27 94 16.27 94 16.6903C94 16.9471 94.1401 16.9471 94.6071 16.9471H105.067C105.581 16.9471 105.604 16.9238 105.768 16.5035L107.566 11.5302C107.612 11.4135 107.659 11.2734 107.659 11.2034C107.659 11.0633 107.542 10.9699 107.425 10.9699C107.402 10.9699 107.285 10.9699 107.239 11.0633C107.192 11.0866 107.192 11.1333 107.005 11.5769C106.258 13.6316 105.207 16.27 101.261 16.27H99.02C98.6931 16.27 98.6464 16.27 98.5063 16.2467C98.2495 16.2233 98.2261 16.1766 98.2261 15.9898C98.2261 15.8264 98.2728 15.6863 98.3195 15.4762L101.495 2.79785Z" fill="#00FFFF"/>
<path d="M153.227 11.5769C152.41 14.8457 149.701 16.7603 147.506 16.7603C145.825 16.7603 144.681 15.6396 144.681 13.7017C144.681 13.6083 144.681 12.9078 144.938 11.8805L147.226 2.70445C147.436 1.9106 147.483 1.67711 149.141 1.67711C149.561 1.67711 149.794 1.67711 149.794 1.25684C149.794 1 149.584 1 149.444 1C149.024 1 148.534 1.0467 148.09 1.0467H145.335C144.891 1.0467 144.401 1 143.957 1C143.794 1 143.514 1 143.514 1.44362C143.514 1.67711 143.677 1.67711 144.121 1.67711C145.522 1.67711 145.522 1.8639 145.522 2.12074C145.522 2.26083 145.358 2.93794 145.241 3.33486L143.21 11.5069C143.14 11.7637 143 12.3941 143 13.0246C143 15.5929 144.845 17.4374 147.39 17.4374C149.748 17.4374 152.363 15.5696 153.554 12.6043C153.717 12.2074 153.927 11.3901 154.067 10.7597C154.301 9.91918 154.791 7.8645 154.955 7.25744L155.842 3.75514C156.145 2.54101 156.332 1.7705 158.387 1.67711C158.574 1.65376 158.667 1.46697 158.667 1.25684C158.667 1 158.457 1 158.363 1C158.037 1 157.616 1.0467 157.289 1.0467H156.192C154.744 1.0467 153.997 1 153.974 1C153.834 1 153.554 1 153.554 1.44362C153.554 1.67711 153.74 1.67711 153.904 1.67711C155.305 1.72381 155.398 2.26083 155.398 2.6811C155.398 2.89124 155.398 2.96129 155.305 3.28817L153.227 11.5769Z" fill="#00FFFF"/>
</svg>
