<svg width="194" height="81" viewBox="0 0 194 81" fill="none" xmlns="http://www.w3.org/2000/svg">
<path d="M0 80.0134H6.14069V78.7292H1.28418V25.2842H6.14069V24H0V80.0134Z" fill="#00FFFF"/>
<path d="M16.2225 39.9562H15.8022C15.5687 41.614 15.3819 41.8941 15.2885 42.0342C15.1718 42.221 13.4907 42.221 13.1638 42.221H8.68084C9.52139 41.3104 11.1558 39.6527 13.1404 37.7381C14.5647 36.3839 16.2225 34.7961 16.2225 32.4846C16.2225 29.7295 14.0277 28.1418 11.5761 28.1418C9.00772 28.1418 7.44336 30.4066 7.44336 32.508C7.44336 33.4186 8.12047 33.5353 8.40065 33.5353C8.63414 33.5353 9.3346 33.3952 9.3346 32.578C9.3346 31.8542 8.72754 31.6441 8.40065 31.6441C8.26056 31.6441 8.12047 31.6674 8.02708 31.7141C8.4707 29.7295 9.82492 28.7488 11.2492 28.7488C13.2805 28.7488 14.6114 30.3599 14.6114 32.4846C14.6114 34.516 13.4206 36.2671 12.0897 37.7848L7.44336 43.0382V43.5752H15.6621L16.2225 39.9562Z" fill="#00FFFF"/>
<path d="M34.6628 28.6555C34.6628 28.1651 34.6395 28.1418 34.3126 28.1418C33.402 29.2392 32.0244 29.5894 30.7169 29.6361C30.6468 29.6361 30.5301 29.6361 30.5067 29.6828C30.4834 29.7295 30.4834 29.7762 30.4834 30.2665C31.2072 30.2665 32.4213 30.1264 33.3553 29.5661V41.8708C33.3553 42.688 33.3086 42.9682 31.3006 42.9682H30.6001V43.5752C31.7209 43.5519 32.8883 43.5285 34.009 43.5285C35.1298 43.5285 36.2972 43.5519 37.4179 43.5752V42.9682H36.7175C34.7095 42.9682 34.6628 42.7113 34.6628 41.8708V28.6555Z" fill="#00FFFF"/>
<path d="M12.8362 63.3142C14.3072 62.567 15.8015 61.4463 15.8015 59.6485C15.8015 57.5237 13.7468 56.2863 11.8555 56.2863C9.73082 56.2863 7.86292 57.8273 7.86292 59.952C7.86292 60.5357 8.00302 61.5397 8.91361 62.4269C9.1471 62.6604 10.1277 63.3609 10.7582 63.8045C9.70747 64.3415 7.25586 65.6257 7.25586 68.1941C7.25586 70.599 9.54403 72.0933 11.8088 72.0933C14.3072 72.0933 16.4085 70.2954 16.4085 67.9139C16.4085 65.7892 14.9843 64.8085 14.0503 64.1781L12.8362 63.3142ZM9.77751 61.2595C9.59072 61.1428 8.65678 60.419 8.65678 59.3216C8.65678 57.8973 10.1277 56.8233 11.8088 56.8233C13.6534 56.8233 15.0076 58.1308 15.0076 59.6485C15.0076 61.8199 12.5794 63.0574 12.4626 63.0574C12.4393 63.0574 12.4159 63.0574 12.2291 62.9173L9.77751 61.2595ZM14.0737 66.046C14.4239 66.3028 15.5446 67.0733 15.5446 68.4976C15.5446 70.2254 13.8168 71.5329 11.8555 71.5329C9.73082 71.5329 8.11976 70.0153 8.11976 68.1707C8.11976 66.3262 9.54403 64.7852 11.1551 64.0614L14.0737 66.046Z" fill="#00FFFF"/>
<path d="M38.9816 57.1735V56.6598H33.4947C30.7629 56.6598 30.7162 56.3563 30.6228 55.9127H30.2025L29.5254 60.2789H29.9457C30.0157 59.8352 30.1792 58.6445 30.4593 58.2008C30.5994 58.014 32.3272 58.014 32.7242 58.014H37.8609L35.2692 61.8666C33.5414 64.4583 32.3506 67.9606 32.3506 71.0192C32.3506 71.2994 32.3506 72.0933 33.1911 72.0933C34.0317 72.0933 34.0317 71.2994 34.0317 70.9959V69.9219C34.0317 66.0927 34.6854 63.571 35.7595 61.96L38.9816 57.1735Z" fill="#00FFFF"/>
<path d="M44.3428 78.7292H39.4863V80.0134H45.627V24H39.4863V25.2842H44.3428V78.7292Z" fill="#00FFFF"/>
<path d="M72.9821 50.3609C73.3323 50.3609 73.6826 50.3609 73.6826 49.964C73.6826 49.5437 73.2856 49.5437 72.8887 49.5437H59.8368C59.4399 49.5437 59.043 49.5437 59.043 49.964C59.043 50.3609 59.3932 50.3609 59.7434 50.3609H72.9821ZM72.8887 54.517C73.2856 54.517 73.6826 54.517 73.6826 54.0967C73.6826 53.6998 73.3323 53.6998 72.9821 53.6998H59.7434C59.3932 53.6998 59.043 53.6998 59.043 54.0967C59.043 54.517 59.4399 54.517 59.8368 54.517H72.8887Z" fill="#00FFFF"/>
<path d="M87.0986 80.0134H93.2393V78.7292H88.3828V25.2842H93.2393V24H87.0986V80.0134Z" fill="#00FFFF"/>
<path d="M99.7946 28.6555C99.7946 28.1651 99.7713 28.1418 99.4444 28.1418C98.5338 29.2392 97.1562 29.5894 95.8487 29.6361C95.7787 29.6361 95.6619 29.6361 95.6386 29.6828C95.6152 29.7295 95.6152 29.7762 95.6152 30.2665C96.339 30.2665 97.5532 30.1264 98.4871 29.5661V41.8708C98.4871 42.688 98.4404 42.9682 96.4324 42.9682H95.732V43.5752C96.8527 43.5519 98.0201 43.5285 99.1409 43.5285C100.262 43.5285 101.429 43.5519 102.55 43.5752V42.9682H101.849C99.8413 42.9682 99.7946 42.7113 99.7946 41.8708V28.6555Z" fill="#00FFFF"/>
<path d="M125.357 36.0803C125.357 34.6561 125.333 32.2278 124.353 30.3599C123.489 28.7255 122.111 28.1418 120.897 28.1418C119.776 28.1418 118.352 28.6555 117.465 30.3366C116.531 32.0877 116.438 34.2591 116.438 36.0803C116.438 37.4112 116.461 39.4425 117.185 41.217C118.189 43.6219 119.986 43.9488 120.897 43.9488C121.971 43.9488 123.606 43.5052 124.563 41.2871C125.263 39.676 125.357 37.7848 125.357 36.0803ZM120.897 43.5752C119.403 43.5752 118.516 42.2911 118.189 40.5166C117.932 39.139 117.932 37.131 117.932 35.8235C117.932 34.0256 117.932 32.5313 118.235 31.1071C118.679 29.1224 119.986 28.5154 120.897 28.5154C121.854 28.5154 123.092 29.1458 123.535 31.0604C123.839 32.3912 123.862 33.9556 123.862 35.8235C123.862 37.3412 123.862 39.209 123.582 40.5866C123.092 43.1316 121.714 43.5752 120.897 43.5752Z" fill="#00FFFF"/>
<path d="M101.43 56.6132C101.43 56.1228 101.407 56.0995 100.986 56.0995L94.0518 67.1434V67.7505H100.076V70.0386C100.076 70.8792 100.029 71.1127 98.3946 71.1127H97.951V71.7197C98.6981 71.673 99.959 71.673 100.753 71.673C101.547 71.673 102.808 71.673 103.555 71.7197V71.1127H103.111C101.477 71.1127 101.43 70.8792 101.43 70.0386V67.7505H103.811V67.1434H101.43V56.6132ZM100.146 58.1542V67.1434H94.5187L100.146 58.1542Z" fill="#00FFFF"/>
<path d="M121.761 56.7999C121.761 56.3096 121.738 56.2863 121.411 56.2863C120.501 57.3836 119.123 57.7339 117.816 57.7806C117.745 57.7806 117.629 57.7806 117.605 57.8273C117.582 57.874 117.582 57.9207 117.582 58.411C118.306 58.411 119.52 58.2709 120.454 57.7105V70.0153C120.454 70.8325 120.407 71.1126 118.399 71.1126H117.699V71.7197C118.82 71.6964 119.987 71.673 121.108 71.673C122.228 71.673 123.396 71.6964 124.517 71.7197V71.1126H123.816C121.808 71.1126 121.761 70.8558 121.761 70.0153V56.7999Z" fill="#00FFFF"/>
<path d="M131.441 78.7292H126.585V80.0134H132.726V24H126.585V25.2842H131.441V78.7292Z" fill="#00FFFF"/>
<path d="M148.31 80.0134H154.45V78.7292H149.594V25.2842H154.45V24H148.31V80.0134Z" fill="#00FFFF"/>
<path d="M164.532 39.9562H164.112C163.878 41.614 163.691 41.8941 163.598 42.0342C163.481 42.221 161.8 42.221 161.473 42.221H156.99C157.831 41.3104 159.465 39.6527 161.45 37.7381C162.874 36.3839 164.532 34.7961 164.532 32.4846C164.532 29.7295 162.337 28.1418 159.886 28.1418C157.317 28.1418 155.753 30.4066 155.753 32.508C155.753 33.4186 156.43 33.5353 156.71 33.5353C156.944 33.5353 157.644 33.3952 157.644 32.578C157.644 31.8542 157.037 31.6441 156.71 31.6441C156.57 31.6441 156.43 31.6674 156.337 31.7141C156.78 29.7295 158.134 28.7488 159.559 28.7488C161.59 28.7488 162.921 30.3599 162.921 32.4846C162.921 34.516 161.73 36.2671 160.399 37.7848L155.753 43.0382V43.5752H163.972L164.532 39.9562Z" fill="#00FFFF"/>
<path d="M182.972 28.6555C182.972 28.1651 182.949 28.1418 182.622 28.1418C181.712 29.2392 180.334 29.5894 179.026 29.6361C178.956 29.6361 178.84 29.6361 178.816 29.6828C178.793 29.7295 178.793 29.7762 178.793 30.2665C179.517 30.2665 180.731 30.1264 181.665 29.5661V41.8708C181.665 42.688 181.618 42.9682 179.61 42.9682H178.91V43.5752C180.03 43.5519 181.198 43.5285 182.319 43.5285C183.439 43.5285 184.607 43.5519 185.728 43.5752V42.9682H185.027C183.019 42.9682 182.972 42.7113 182.972 41.8708V28.6555Z" fill="#00FFFF"/>
<path d="M164.602 64.2248C164.602 62.8005 164.578 60.3723 163.598 58.5044C162.734 56.87 161.356 56.2863 160.142 56.2863C159.021 56.2863 157.597 56.7999 156.71 58.481C155.776 60.2322 155.683 62.4036 155.683 64.2248C155.683 65.5557 155.706 67.587 156.43 69.3615C157.434 71.7664 159.232 72.0933 160.142 72.0933C161.216 72.0933 162.851 71.6497 163.808 69.4315C164.508 67.8205 164.602 65.9292 164.602 64.2248ZM160.142 71.7197C158.648 71.7197 157.761 70.4355 157.434 68.661C157.177 67.2835 157.177 65.2755 157.177 63.968C157.177 62.1701 157.177 60.6758 157.48 59.2515C157.924 57.2669 159.232 56.6598 160.142 56.6598C161.1 56.6598 162.337 57.2902 162.781 59.2048C163.084 60.5357 163.107 62.1001 163.107 63.968C163.107 65.4856 163.107 67.3535 162.827 68.7311C162.337 71.2761 160.959 71.7197 160.142 71.7197Z" fill="#00FFFF"/>
<path d="M181.922 63.7812C184 63.7812 184.91 65.579 184.91 67.657C184.91 70.4589 183.416 71.5329 182.062 71.5329C180.824 71.5329 178.816 70.9259 178.186 69.128C178.303 69.1747 178.419 69.1747 178.536 69.1747C179.097 69.1747 179.517 68.8011 179.517 68.1941C179.517 67.517 179.003 67.2134 178.536 67.2134C178.139 67.2134 177.532 67.4002 177.532 68.2641C177.532 70.4122 179.634 72.0933 182.109 72.0933C184.7 72.0933 186.685 70.062 186.685 67.6804C186.685 65.4156 184.817 63.7812 182.599 63.5243C184.373 63.1508 186.078 61.563 186.078 59.4383C186.078 57.6171 184.233 56.2863 182.132 56.2863C180.007 56.2863 178.139 57.5938 178.139 59.4617C178.139 60.2789 178.746 60.419 179.05 60.419C179.54 60.419 179.96 60.1154 179.96 59.5084C179.96 58.9013 179.54 58.5978 179.05 58.5978C178.956 58.5978 178.84 58.5978 178.746 58.6445C179.423 57.1035 181.268 56.8233 182.085 56.8233C182.902 56.8233 184.443 57.2202 184.443 59.4617C184.443 60.1154 184.35 61.2829 183.556 62.3102C182.856 63.2208 182.062 63.2675 181.291 63.3375C181.175 63.3375 180.638 63.3842 180.544 63.3842C180.381 63.4076 180.287 63.4309 180.287 63.5944C180.287 63.7578 180.311 63.7812 180.778 63.7812H181.922Z" fill="#00FFFF"/>
<path d="M192.653 78.7292H187.797V80.0134H193.938V24H187.797V25.2842H192.653V78.7292Z" fill="#00FFFF"/>
<path d="M19.1754 14.0792C18.3582 15.4568 17.5644 15.9238 16.4436 15.9938C16.1868 16.0172 16 16.0172 16 16.4374C16 16.5775 16.1167 16.6709 16.2802 16.6709C16.7005 16.6709 17.7511 16.6242 18.1714 16.6242C18.8485 16.6242 19.5957 16.6709 20.2495 16.6709C20.3895 16.6709 20.6697 16.6709 20.6697 16.2273C20.6697 16.0172 20.4829 15.9938 20.3428 15.9938C19.8058 15.9471 19.3622 15.7603 19.3622 15.2C19.3622 14.8731 19.5023 14.6163 19.8058 14.1026L21.5803 11.1607H27.5342C27.5576 11.3708 27.5576 11.5576 27.5809 11.7677C27.651 12.3748 27.9312 14.803 27.9312 15.2467C27.9312 15.9471 26.7404 15.9938 26.3668 15.9938C26.11 15.9938 25.8531 15.9938 25.8531 16.4141C25.8531 16.6709 26.0633 16.6709 26.2034 16.6709C26.6003 16.6709 27.0673 16.6242 27.4642 16.6242H28.7951C30.2193 16.6242 31.2467 16.6709 31.27 16.6709C31.4335 16.6709 31.6903 16.6709 31.6903 16.2273C31.6903 15.9938 31.4802 15.9938 31.1299 15.9938C29.8457 15.9938 29.8224 15.7837 29.7524 15.0832L28.3281 0.51367C28.2814 0.0466979 28.188 0 27.9312 0C27.6977 0 27.5576 0.0466973 27.3474 0.396927L19.1754 14.0792ZM21.9773 10.4835L26.6703 2.6384L27.4642 10.4835H21.9773Z" fill="#00FFFF"/>
<path d="M72.9391 6.8172C73.2894 6.8172 73.6396 6.8172 73.6396 6.42028C73.6396 6 73.2427 6 72.8457 6H59.7939C59.3969 6 59 6 59 6.42028C59 6.8172 59.3502 6.8172 59.7005 6.8172H72.9391ZM72.8457 10.9733C73.2427 10.9733 73.6396 10.9733 73.6396 10.553C73.6396 10.1561 73.2894 10.1561 72.9391 10.1561H59.7005C59.3502 10.1561 59 10.1561 59 10.553C59 10.9733 59.3969 10.9733 59.7939 10.9733H72.8457Z" fill="#00FFFF"/>
<path d="M111.495 1.79785C111.705 0.910597 111.775 0.67711 113.83 0.67711C114.46 0.67711 114.624 0.677111 114.624 0.233486C114.624 -1.68383e-08 114.367 0 114.273 0C113.806 0 113.269 0.0466979 112.802 0.0466979H109.674C109.23 0.0466979 108.716 0 108.273 0C108.086 0 107.829 -3.70443e-07 107.829 0.443624C107.829 0.67711 108.039 0.67711 108.39 0.67711C109.814 0.67711 109.814 0.8639 109.814 1.12074C109.814 1.16743 109.814 1.30752 109.72 1.65775L106.568 14.2193C106.358 15.0365 106.312 15.27 104.677 15.27C104.233 15.27 104 15.27 104 15.6903C104 15.9471 104.14 15.9471 104.607 15.9471H115.067C115.581 15.9471 115.604 15.9238 115.768 15.5035L117.566 10.5302C117.612 10.4135 117.659 10.2734 117.659 10.2034C117.659 10.0633 117.542 9.96987 117.425 9.96987C117.402 9.96987 117.285 9.96987 117.239 10.0633C117.192 10.0866 117.192 10.1333 117.005 10.5769C116.258 12.6316 115.207 15.27 111.261 15.27H109.02C108.693 15.27 108.646 15.27 108.506 15.2467C108.249 15.2233 108.226 15.1766 108.226 14.9898C108.226 14.8264 108.273 14.6863 108.319 14.4762L111.495 1.79785Z" fill="#00FFFF"/>
<path d="M175.227 10.5769C174.41 13.8457 171.701 15.7603 169.506 15.7603C167.825 15.7603 166.681 14.6396 166.681 12.7017C166.681 12.6083 166.681 11.9078 166.938 10.8805L169.226 1.70445C169.436 0.910597 169.483 0.67711 171.141 0.67711C171.561 0.67711 171.794 0.677111 171.794 0.256836C171.794 2.86251e-07 171.584 0 171.444 0C171.024 0 170.534 0.0466979 170.09 0.0466979H167.335C166.891 0.0466979 166.401 0 165.957 0C165.794 0 165.514 -3.70443e-07 165.514 0.443624C165.514 0.67711 165.677 0.67711 166.121 0.67711C167.522 0.67711 167.522 0.8639 167.522 1.12074C167.522 1.26083 167.358 1.93794 167.241 2.33486L165.21 10.5069C165.14 10.7637 165 11.3941 165 12.0246C165 14.5929 166.845 16.4374 169.39 16.4374C171.748 16.4374 174.363 14.5696 175.554 11.6043C175.717 11.2074 175.927 10.3901 176.067 9.75974C176.301 8.91918 176.791 6.8645 176.955 6.25744L177.842 2.75514C178.145 1.54101 178.332 0.770505 180.387 0.67711C180.574 0.653762 180.667 0.466974 180.667 0.256836C180.667 2.86251e-07 180.457 0 180.363 0C180.037 0 179.616 0.0466979 179.289 0.0466979H178.192C176.744 0.0466979 175.997 0 175.974 0C175.834 0 175.554 -3.70443e-07 175.554 0.443624C175.554 0.67711 175.74 0.67711 175.904 0.67711C177.305 0.723808 177.398 1.26083 177.398 1.6811C177.398 1.89124 177.398 1.96129 177.305 2.28817L175.227 10.5769Z" fill="#00FFFF"/>
</svg>
