<svg width="278" height="84" viewBox="0 0 278 84" fill="none" xmlns="http://www.w3.org/2000/svg">
<path d="M0 56.0134H6.14069V54.7292H1.28418V1.28418H6.14069V0H0V56.0134Z" fill="#00FFFF"/>
<path d="M16.2225 15.9562H15.8022C15.5687 17.614 15.3819 17.8941 15.2885 18.0342C15.1718 18.221 13.4907 18.221 13.1638 18.221H8.68084C9.52139 17.3104 11.1558 15.6527 13.1404 13.7381C14.5647 12.3839 16.2225 10.7961 16.2225 8.48463C16.2225 5.72949 14.0277 4.14178 11.5761 4.14178C9.00772 4.14178 7.44336 6.4066 7.44336 8.50798C7.44336 9.41858 8.12047 9.53532 8.40065 9.53532C8.63414 9.53532 9.3346 9.39523 9.3346 8.57803C9.3346 7.85422 8.72754 7.64408 8.40065 7.64408C8.26056 7.64408 8.12047 7.66743 8.02708 7.71413C8.4707 5.72949 9.82492 4.74885 11.2492 4.74885C13.2805 4.74885 14.6114 6.3599 14.6114 8.48463C14.6114 10.516 13.4206 12.2671 12.0897 13.7848L7.44336 19.0382V19.5752H15.6621L16.2225 15.9562Z" fill="#00FFFF"/>
<path d="M34.6628 4.65545C34.6628 4.16513 34.6395 4.14178 34.3126 4.14178C33.402 5.23917 32.0244 5.5894 30.7169 5.6361C30.6468 5.6361 30.5301 5.6361 30.5067 5.68279C30.4834 5.72949 30.4834 5.77619 30.4834 6.26651C31.2072 6.26651 32.4213 6.12642 33.3553 5.56605V17.8708C33.3553 18.688 33.3086 18.9682 31.3006 18.9682H30.6001V19.5752C31.7209 19.5519 32.8883 19.5285 34.009 19.5285C35.1298 19.5285 36.2972 19.5519 37.4179 19.5752V18.9682H36.7175C34.7095 18.9682 34.6628 18.7113 34.6628 17.8708V4.65545Z" fill="#00FFFF"/>
<path d="M12.8362 39.3142C14.3072 38.567 15.8015 37.4463 15.8015 35.6485C15.8015 33.5237 13.7468 32.2863 11.8555 32.2863C9.73082 32.2863 7.86292 33.8273 7.86292 35.952C7.86292 36.5357 8.00302 37.5397 8.91361 38.4269C9.1471 38.6604 10.1277 39.3609 10.7582 39.8045C9.70747 40.3415 7.25586 41.6257 7.25586 44.1941C7.25586 46.599 9.54403 48.0933 11.8088 48.0933C14.3072 48.0933 16.4085 46.2954 16.4085 43.9139C16.4085 41.7892 14.9843 40.8085 14.0503 40.1781L12.8362 39.3142ZM9.77751 37.2595C9.59072 37.1428 8.65678 36.419 8.65678 35.3216C8.65678 33.8973 10.1277 32.8233 11.8088 32.8233C13.6534 32.8233 15.0076 34.1308 15.0076 35.6485C15.0076 37.8199 12.5794 39.0574 12.4626 39.0574C12.4393 39.0574 12.4159 39.0574 12.2291 38.9173L9.77751 37.2595ZM14.0737 42.046C14.4239 42.3028 15.5446 43.0733 15.5446 44.4976C15.5446 46.2254 13.8168 47.5329 11.8555 47.5329C9.73082 47.5329 8.11976 46.0153 8.11976 44.1707C8.11976 42.3262 9.54403 40.7852 11.1551 40.0614L14.0737 42.046Z" fill="#00FFFF"/>
<path d="M38.9816 33.1735V32.6598H33.4947C30.7629 32.6598 30.7162 32.3563 30.6228 31.9127H30.2025L29.5254 36.2789H29.9457C30.0157 35.8352 30.1792 34.6445 30.4593 34.2008C30.5994 34.014 32.3272 34.014 32.7242 34.014H37.8609L35.2692 37.8666C33.5414 40.4583 32.3506 43.9606 32.3506 47.0192C32.3506 47.2994 32.3506 48.0933 33.1911 48.0933C34.0317 48.0933 34.0317 47.2994 34.0317 46.9959V45.9219C34.0317 42.0927 34.6854 39.571 35.7595 37.96L38.9816 33.1735Z" fill="#00FFFF"/>
<path d="M44.3428 54.7292H39.4863V56.0134H45.627V0H39.4863V1.28418H44.3428V54.7292Z" fill="#00FFFF"/>
<path d="M72.9821 26.3609C73.3323 26.3609 73.6826 26.3609 73.6826 25.964C73.6826 25.5437 73.2856 25.5437 72.8887 25.5437H59.8368C59.4399 25.5437 59.043 25.5437 59.043 25.964C59.043 26.3609 59.3932 26.3609 59.7434 26.3609H72.9821ZM72.8887 30.517C73.2856 30.517 73.6826 30.517 73.6826 30.0967C73.6826 29.6998 73.3323 29.6998 72.9821 29.6998H59.7434C59.3932 29.6998 59.043 29.6998 59.043 30.0967C59.043 30.517 59.4399 30.517 59.8368 30.517H72.8887Z" fill="#00FFFF"/>
<path d="M87.0986 56.0134H93.2393V54.7292H88.3828V1.28418H93.2393V0H87.0986V56.0134Z" fill="#00FFFF"/>
<path d="M99.7946 4.65545C99.7946 4.16513 99.7713 4.14178 99.4444 4.14178C98.5338 5.23917 97.1562 5.5894 95.8487 5.6361C95.7787 5.6361 95.6619 5.6361 95.6386 5.68279C95.6152 5.72949 95.6152 5.77619 95.6152 6.26651C96.339 6.26651 97.5532 6.12642 98.4871 5.56605V17.8708C98.4871 18.688 98.4404 18.9682 96.4324 18.9682H95.732V19.5752C96.8527 19.5519 98.0201 19.5285 99.1409 19.5285C100.262 19.5285 101.429 19.5519 102.55 19.5752V18.9682H101.849C99.8413 18.9682 99.7946 18.7113 99.7946 17.8708V4.65545Z" fill="#00FFFF"/>
<path d="M125.357 12.0803C125.357 10.6561 125.333 8.2278 124.353 6.3599C123.489 4.7255 122.111 4.14178 120.897 4.14178C119.776 4.14178 118.352 4.65545 117.465 6.33656C116.531 8.08771 116.438 10.2591 116.438 12.0803C116.438 13.4112 116.461 15.4425 117.185 17.217C118.189 19.6219 119.986 19.9488 120.897 19.9488C121.971 19.9488 123.606 19.5052 124.563 17.2871C125.263 15.676 125.357 13.7848 125.357 12.0803ZM120.897 19.5752C119.403 19.5752 118.516 18.2911 118.189 16.5166C117.932 15.139 117.932 13.131 117.932 11.8235C117.932 10.0256 117.932 8.53133 118.235 7.10706C118.679 5.12243 119.986 4.51536 120.897 4.51536C121.854 4.51536 123.092 5.14578 123.535 7.06036C123.839 8.39124 123.862 9.9556 123.862 11.8235C123.862 13.3412 123.862 15.209 123.582 16.5866C123.092 19.1316 121.714 19.5752 120.897 19.5752Z" fill="#00FFFF"/>
<path d="M101.43 32.6132C101.43 32.1228 101.407 32.0995 100.986 32.0995L94.0518 43.1434V43.7505H100.076V46.0386C100.076 46.8792 100.029 47.1127 98.3946 47.1127H97.951V47.7197C98.6981 47.673 99.959 47.673 100.753 47.673C101.547 47.673 102.808 47.673 103.555 47.7197V47.1127H103.111C101.477 47.1127 101.43 46.8792 101.43 46.0386V43.7505H103.811V43.1434H101.43V32.6132ZM100.146 34.1542V43.1434H94.5187L100.146 34.1542Z" fill="#00FFFF"/>
<path d="M121.761 32.7999C121.761 32.3096 121.738 32.2863 121.411 32.2863C120.501 33.3836 119.123 33.7339 117.816 33.7806C117.745 33.7806 117.629 33.7806 117.605 33.8273C117.582 33.874 117.582 33.9207 117.582 34.411C118.306 34.411 119.52 34.2709 120.454 33.7105V46.0153C120.454 46.8325 120.407 47.1126 118.399 47.1126H117.699V47.7197C118.82 47.6964 119.987 47.673 121.108 47.673C122.228 47.673 123.396 47.6964 124.517 47.7197V47.1126H123.816C121.808 47.1126 121.761 46.8558 121.761 46.0153V32.7999Z" fill="#00FFFF"/>
<path d="M131.441 54.7292H126.585V56.0134H132.726V0H126.585V1.28418H131.441V54.7292Z" fill="#00FFFF"/>
<path d="M148.31 56.0134H154.45V54.7292H149.594V1.28418H154.45V0H148.31V56.0134Z" fill="#00FFFF"/>
<path d="M164.532 15.9562H164.112C163.878 17.614 163.691 17.8941 163.598 18.0342C163.481 18.221 161.8 18.221 161.473 18.221H156.99C157.831 17.3104 159.465 15.6527 161.45 13.7381C162.874 12.3839 164.532 10.7961 164.532 8.48463C164.532 5.72949 162.337 4.14178 159.886 4.14178C157.317 4.14178 155.753 6.4066 155.753 8.50798C155.753 9.41858 156.43 9.53532 156.71 9.53532C156.944 9.53532 157.644 9.39523 157.644 8.57803C157.644 7.85422 157.037 7.64408 156.71 7.64408C156.57 7.64408 156.43 7.66743 156.337 7.71413C156.78 5.72949 158.134 4.74885 159.559 4.74885C161.59 4.74885 162.921 6.3599 162.921 8.48463C162.921 10.516 161.73 12.2671 160.399 13.7848L155.753 19.0382V19.5752H163.972L164.532 15.9562Z" fill="#00FFFF"/>
<path d="M186.568 12.0803C186.568 10.6561 186.544 8.2278 185.564 6.3599C184.7 4.7255 183.322 4.14178 182.108 4.14178C180.987 4.14178 179.563 4.65545 178.676 6.33656C177.742 8.08771 177.648 10.2591 177.648 12.0803C177.648 13.4112 177.672 15.4425 178.396 17.217C179.4 19.6219 181.197 19.9488 182.108 19.9488C183.182 19.9488 184.816 19.5052 185.774 17.2871C186.474 15.676 186.568 13.7848 186.568 12.0803ZM182.108 19.5752C180.614 19.5752 179.726 18.2911 179.4 16.5166C179.143 15.139 179.143 13.131 179.143 11.8235C179.143 10.0256 179.143 8.53133 179.446 7.10706C179.89 5.12243 181.197 4.51536 182.108 4.51536C183.065 4.51536 184.303 5.14578 184.746 7.06036C185.05 8.39124 185.073 9.9556 185.073 11.8235C185.073 13.3412 185.073 15.209 184.793 16.5866C184.303 19.1316 182.925 19.5752 182.108 19.5752Z" fill="#00FFFF"/>
<path d="M164.602 40.2248C164.602 38.8005 164.578 36.3723 163.598 34.5044C162.734 32.87 161.356 32.2863 160.142 32.2863C159.021 32.2863 157.597 32.7999 156.71 34.481C155.776 36.2322 155.683 38.4036 155.683 40.2248C155.683 41.5557 155.706 43.587 156.43 45.3615C157.434 47.7664 159.232 48.0933 160.142 48.0933C161.216 48.0933 162.851 47.6497 163.808 45.4315C164.508 43.8205 164.602 41.9292 164.602 40.2248ZM160.142 47.7197C158.648 47.7197 157.761 46.4355 157.434 44.661C157.177 43.2835 157.177 41.2755 157.177 39.968C157.177 38.1701 157.177 36.6758 157.48 35.2515C157.924 33.2669 159.232 32.6598 160.142 32.6598C161.1 32.6598 162.337 33.2902 162.781 35.2048C163.084 36.5357 163.107 38.1001 163.107 39.968C163.107 41.4856 163.107 43.3535 162.827 44.7311C162.337 47.2761 160.959 47.7197 160.142 47.7197Z" fill="#00FFFF"/>
<path d="M181.922 39.7812C184 39.7812 184.91 41.579 184.91 43.657C184.91 46.4589 183.416 47.5329 182.062 47.5329C180.824 47.5329 178.816 46.9259 178.186 45.128C178.303 45.1747 178.419 45.1747 178.536 45.1747C179.097 45.1747 179.517 44.8011 179.517 44.1941C179.517 43.517 179.003 43.2134 178.536 43.2134C178.139 43.2134 177.532 43.4002 177.532 44.2641C177.532 46.4122 179.634 48.0933 182.109 48.0933C184.7 48.0933 186.685 46.062 186.685 43.6804C186.685 41.4156 184.817 39.7812 182.599 39.5243C184.373 39.1508 186.078 37.563 186.078 35.4383C186.078 33.6171 184.233 32.2863 182.132 32.2863C180.007 32.2863 178.139 33.5938 178.139 35.4617C178.139 36.2789 178.746 36.419 179.05 36.419C179.54 36.419 179.96 36.1154 179.96 35.5084C179.96 34.9013 179.54 34.5978 179.05 34.5978C178.956 34.5978 178.84 34.5978 178.746 34.6445C179.423 33.1035 181.268 32.8233 182.085 32.8233C182.902 32.8233 184.443 33.2202 184.443 35.4617C184.443 36.1154 184.35 37.2829 183.556 38.3102C182.856 39.2208 182.062 39.2675 181.291 39.3375C181.175 39.3375 180.638 39.3842 180.544 39.3842C180.381 39.4076 180.287 39.4309 180.287 39.5944C180.287 39.7578 180.311 39.7812 180.778 39.7812H181.922Z" fill="#00FFFF"/>
<path d="M192.653 54.7292H187.797V56.0134H193.938V0H187.797V1.28418H192.653V54.7292Z" fill="#00FFFF"/>
<path d="M209.521 56.0134H215.662V54.7292H210.806V1.28418H215.662V0H209.521V56.0134Z" fill="#00FFFF"/>
<path d="M222.217 4.65545C222.217 4.16513 222.194 4.14178 221.867 4.14178C220.957 5.23917 219.579 5.5894 218.272 5.6361C218.202 5.6361 218.085 5.6361 218.061 5.68279C218.038 5.72949 218.038 5.77619 218.038 6.26651C218.762 6.26651 219.976 6.12642 220.91 5.56605V17.8708C220.91 18.688 220.863 18.9682 218.855 18.9682H218.155V19.5752C219.276 19.5519 220.443 19.5285 221.564 19.5285C222.684 19.5285 223.852 19.5519 224.973 19.5752V18.9682H224.272C222.264 18.9682 222.217 18.7113 222.217 17.8708V4.65545Z" fill="#00FFFF"/>
<path d="M244.183 4.65545C244.183 4.16513 244.16 4.14178 243.833 4.14178C242.922 5.23917 241.545 5.5894 240.237 5.6361C240.167 5.6361 240.051 5.6361 240.027 5.68279C240.004 5.72949 240.004 5.77619 240.004 6.26651C240.728 6.26651 241.942 6.12642 242.876 5.56605V17.8708C242.876 18.688 242.829 18.9682 240.821 18.9682H240.121V19.5752C241.241 19.5519 242.409 19.5285 243.53 19.5285C244.65 19.5285 245.818 19.5519 246.938 19.5752V18.9682H246.238C244.23 18.9682 244.183 18.7113 244.183 17.8708V4.65545Z" fill="#00FFFF"/>
<path d="M258.698 2.92768C258.698 2.90433 258.838 2.5541 258.838 2.50741C258.838 2.22722 258.605 2.06378 258.418 2.06378C258.301 2.06378 258.091 2.06378 257.904 2.57745L250.082 24.5485C250.082 24.5719 249.942 24.9221 249.942 24.9688C249.942 25.249 250.176 25.4124 250.363 25.4124C250.503 25.4124 250.713 25.3891 250.876 24.8988L258.698 2.92768Z" fill="#00FFFF"/>
<path d="M269.848 15.9562H269.428C269.195 17.614 269.008 17.8941 268.914 18.0342C268.798 18.221 267.117 18.221 266.79 18.221H262.307C263.147 17.3104 264.782 15.6527 266.766 13.7381C268.191 12.3839 269.848 10.7961 269.848 8.48463C269.848 5.72949 267.654 4.14178 265.202 4.14178C262.634 4.14178 261.069 6.4066 261.069 8.50798C261.069 9.41858 261.746 9.53532 262.027 9.53532C262.26 9.53532 262.961 9.39523 262.961 8.57803C262.961 7.85422 262.354 7.64408 262.027 7.64408C261.887 7.64408 261.746 7.66743 261.653 7.71413C262.097 5.72949 263.451 4.74885 264.875 4.74885C266.906 4.74885 268.237 6.3599 268.237 8.48463C268.237 10.516 267.047 12.2671 265.716 13.7848L261.069 19.0382V19.5752H269.288L269.848 15.9562Z" fill="#00FFFF"/>
<path d="M225.814 40.2248C225.814 38.8005 225.79 36.3723 224.81 34.5044C223.946 32.87 222.568 32.2863 221.354 32.2863C220.233 32.2863 218.809 32.7999 217.922 34.481C216.988 36.2322 216.895 38.4036 216.895 40.2248C216.895 41.5557 216.918 43.587 217.642 45.3615C218.646 47.7664 220.444 48.0933 221.354 48.0933C222.428 48.0933 224.063 47.6497 225.02 45.4315C225.72 43.8205 225.814 41.9292 225.814 40.2248ZM221.354 47.7197C219.86 47.7197 218.973 46.4355 218.646 44.661C218.389 43.2835 218.389 41.2755 218.389 39.968C218.389 38.1701 218.389 36.6758 218.692 35.2515C219.136 33.2669 220.444 32.6598 221.354 32.6598C222.311 32.6598 223.549 33.2902 223.993 35.2048C224.296 36.5357 224.319 38.1001 224.319 39.968C224.319 41.4856 224.319 43.3535 224.039 44.7311C223.549 47.2761 222.171 47.7197 221.354 47.7197Z" fill="#00FFFF"/>
<path d="M255.254 32.7999C255.254 32.3096 255.23 32.2863 254.903 32.2863C253.993 33.3836 252.615 33.7339 251.308 33.7806C251.238 33.7806 251.121 33.7806 251.098 33.8273C251.074 33.874 251.074 33.9207 251.074 34.411C251.798 34.411 253.012 34.2709 253.946 33.7105V46.0153C253.946 46.8325 253.899 47.1126 251.891 47.1126H251.191V47.7197C252.312 47.6964 253.479 47.673 254.6 47.673C255.721 47.673 256.888 47.6964 258.009 47.7197V47.1126H257.308C255.3 47.1126 255.254 46.8558 255.254 46.0153V32.7999Z" fill="#00FFFF"/>
<path d="M276.004 54.7292H271.147V56.0134H277.288V0H271.147V1.28418H276.004V54.7292Z" fill="#00FFFF"/>
<path d="M15.1754 81.0792C14.3582 82.4568 13.5644 82.9238 12.4436 82.9938C12.1868 83.0172 12 83.0172 12 83.4374C12 83.5775 12.1167 83.6709 12.2802 83.6709C12.7005 83.6709 13.7511 83.6242 14.1714 83.6242C14.8485 83.6242 15.5957 83.6709 16.2495 83.6709C16.3895 83.6709 16.6697 83.6709 16.6697 83.2273C16.6697 83.0172 16.4829 82.9938 16.3428 82.9938C15.8058 82.9471 15.3622 82.7603 15.3622 82.2C15.3622 81.8731 15.5023 81.6163 15.8058 81.1026L17.5803 78.1607H23.5342C23.5576 78.3708 23.5576 78.5576 23.5809 78.7677C23.651 79.3748 23.9312 81.803 23.9312 82.2467C23.9312 82.9471 22.7404 82.9938 22.3668 82.9938C22.11 82.9938 21.8531 82.9938 21.8531 83.4141C21.8531 83.6709 22.0633 83.6709 22.2034 83.6709C22.6003 83.6709 23.0673 83.6242 23.4642 83.6242H24.7951C26.2193 83.6242 27.2467 83.6709 27.27 83.6709C27.4335 83.6709 27.6903 83.6709 27.6903 83.2273C27.6903 82.9938 27.4802 82.9938 27.1299 82.9938C25.8457 82.9938 25.8224 82.7837 25.7524 82.0832L24.3281 67.5137C24.2814 67.0467 24.188 67 23.9312 67C23.6977 67 23.5576 67.0467 23.3474 67.3969L15.1754 81.0792ZM17.9773 77.4835L22.6703 69.6384L23.4642 77.4835H17.9773Z" fill="#00FFFF"/>
<path d="M112.495 68.7978C112.705 67.9106 112.775 67.6771 114.83 67.6771C115.46 67.6771 115.624 67.6771 115.624 67.2335C115.624 67 115.367 67 115.273 67C114.806 67 114.269 67.0467 113.802 67.0467H110.674C110.23 67.0467 109.716 67 109.273 67C109.086 67 108.829 67 108.829 67.4436C108.829 67.6771 109.039 67.6771 109.39 67.6771C110.814 67.6771 110.814 67.8639 110.814 68.1207C110.814 68.1674 110.814 68.3075 110.72 68.6578L107.568 81.2193C107.358 82.0365 107.312 82.27 105.677 82.27C105.233 82.27 105 82.27 105 82.6903C105 82.9471 105.14 82.9471 105.607 82.9471H116.067C116.581 82.9471 116.604 82.9238 116.768 82.5035L118.566 77.5302C118.612 77.4135 118.659 77.2734 118.659 77.2034C118.659 77.0633 118.542 76.9699 118.425 76.9699C118.402 76.9699 118.285 76.9699 118.239 77.0633C118.192 77.0866 118.192 77.1333 118.005 77.5769C117.258 79.6316 116.207 82.27 112.261 82.27H110.02C109.693 82.27 109.646 82.27 109.506 82.2467C109.249 82.2233 109.226 82.1766 109.226 81.9898C109.226 81.8264 109.273 81.6863 109.319 81.4762L112.495 68.7978Z" fill="#00FFFF"/>
<path d="M164.568 81.2193C164.358 82.0365 164.312 82.27 162.677 82.27C162.233 82.27 162 82.27 162 82.6903C162 82.9471 162.14 82.9471 162.607 82.9471H170.009C174.725 82.9471 179.325 78.0673 179.325 72.8605C179.325 69.4983 177.317 67 173.978 67H166.483C166.039 67 165.829 67 165.829 67.4436C165.829 67.6771 166.039 67.6771 166.39 67.6771C167.814 67.6771 167.814 67.8639 167.814 68.1207C167.814 68.1674 167.814 68.3075 167.72 68.6578L164.568 81.2193ZM169.495 68.5877C169.705 67.7238 169.798 67.6771 170.709 67.6771H173.277C175.472 67.6771 177.48 68.8679 177.48 72.09C177.48 73.2574 177.013 77.3201 174.748 79.8885C174.095 80.659 172.32 82.27 169.635 82.27H166.973C166.646 82.27 166.6 82.27 166.46 82.2467C166.203 82.2233 166.179 82.1766 166.179 81.9898C166.179 81.8264 166.226 81.6863 166.273 81.4762L169.495 68.5877Z" fill="#00FFFF"/>
<path d="M245.227 77.5769C244.41 80.8457 241.701 82.7603 239.506 82.7603C237.825 82.7603 236.681 81.6396 236.681 79.7017C236.681 79.6083 236.681 78.9078 236.938 77.8805L239.226 68.7045C239.436 67.9106 239.483 67.6771 241.141 67.6771C241.561 67.6771 241.794 67.6771 241.794 67.2568C241.794 67 241.584 67 241.444 67C241.024 67 240.534 67.0467 240.09 67.0467H237.335C236.891 67.0467 236.401 67 235.957 67C235.794 67 235.514 67 235.514 67.4436C235.514 67.6771 235.677 67.6771 236.121 67.6771C237.522 67.6771 237.522 67.8639 237.522 68.1207C237.522 68.2608 237.358 68.9379 237.241 69.3349L235.21 77.5069C235.14 77.7637 235 78.3941 235 79.0246C235 81.5929 236.845 83.4374 239.39 83.4374C241.748 83.4374 244.363 81.5696 245.554 78.6043C245.717 78.2074 245.927 77.3901 246.067 76.7597C246.301 75.9192 246.791 73.8645 246.955 73.2574L247.842 69.7551C248.145 68.541 248.332 67.7705 250.387 67.6771C250.574 67.6538 250.667 67.467 250.667 67.2568C250.667 67 250.457 67 250.363 67C250.037 67 249.616 67.0467 249.289 67.0467H248.192C246.744 67.0467 245.997 67 245.974 67C245.834 67 245.554 67 245.554 67.4436C245.554 67.6771 245.74 67.6771 245.904 67.6771C247.305 67.7238 247.398 68.2608 247.398 68.6811C247.398 68.8912 247.398 68.9613 247.305 69.2882L245.227 77.5769Z" fill="#00FFFF"/>
</svg>
