<svg width="250" height="29" viewBox="0 0 250 29" fill="none" xmlns="http://www.w3.org/2000/svg">
<path d="M15.1533 14.2541C15.1766 14.184 15.2467 14.0206 15.2467 13.9272C15.2467 13.8104 15.1533 13.6937 15.0132 13.6937C14.9198 13.6937 14.8731 13.717 14.803 13.7871C14.7563 13.8104 14.7563 13.8571 14.5462 14.3241C13.1686 17.5929 12.1646 18.9938 8.42886 18.9938H5.01996C4.69308 18.9938 4.64638 18.9938 4.50629 18.9705C4.24945 18.9471 4.22611 18.9004 4.22611 18.7136C4.22611 18.5502 4.2728 18.4101 4.3195 18.2L5.93056 11.7557H8.24207C10.0633 11.7557 10.2034 12.1527 10.2034 12.8531C10.2034 13.0866 10.2034 13.2968 10.0399 13.9972C9.99322 14.0906 9.96987 14.184 9.96987 14.2541C9.96987 14.4175 10.0866 14.4875 10.2267 14.4875C10.4368 14.4875 10.4602 14.3241 10.5536 13.9972L11.8845 8.58033C11.8845 8.46359 11.7911 8.34684 11.651 8.34684C11.4408 8.34684 11.4175 8.44024 11.3241 8.76712C10.8571 10.565 10.3901 11.0786 8.31212 11.0786H6.094L7.54161 5.33487C7.75175 4.51766 7.79845 4.44762 8.75574 4.44762H12.0946C14.9665 4.44762 15.5502 5.21812 15.5502 6.99262C15.5502 7.01597 15.5502 7.66973 15.4568 8.44024C15.4335 8.53363 15.4101 8.67372 15.4101 8.72042C15.4101 8.90721 15.5269 8.97726 15.6669 8.97726C15.8304 8.97726 15.9238 8.88386 15.9705 8.46359L16.4608 4.37757C16.4608 4.30753 16.5075 4.07404 16.5075 4.02734C16.5075 3.77051 16.2974 3.77051 15.8771 3.77051H4.48294C4.03932 3.77051 3.80583 3.77051 3.80583 4.19078C3.80583 4.44762 3.96927 4.44762 4.3662 4.44762C5.81381 4.44762 5.81381 4.61106 5.81381 4.86789C5.81381 4.98464 5.79046 5.07803 5.72042 5.33487L2.56835 17.9431C2.35821 18.7603 2.31152 18.9938 0.677111 18.9938C0.233486 18.9938 0 18.9938 0 19.4141C0 19.6709 0.140092 19.6709 0.607065 19.6709H12.3281C12.8418 19.6709 12.8651 19.6476 13.0285 19.274L15.1533 14.2541Z" fill="#00FFFF"/>
<path d="M18.8329 17.3534C18.5573 17.3696 18.4924 17.3858 18.4924 17.5317C18.4924 17.6938 18.5735 17.6938 18.8653 17.6938H19.611C20.9889 17.6938 21.605 18.8286 21.605 20.3849C21.605 22.5086 20.5026 23.0759 19.7083 23.0759C18.9301 23.0759 17.6008 22.7031 17.1307 21.6331C17.6494 21.7142 18.1196 21.4224 18.1196 20.8388C18.1196 20.3687 17.7791 20.0444 17.3252 20.0444C16.9361 20.0444 16.5146 20.2714 16.5146 20.8874C16.5146 22.3302 17.9574 23.5136 19.7569 23.5136C21.686 23.5136 23.1126 22.0384 23.1126 20.4011C23.1126 18.9097 21.913 17.7425 20.3567 17.4669C21.7671 17.0616 22.6749 15.8782 22.6749 14.6137C22.6749 13.333 21.3456 12.3928 19.7731 12.3928C18.152 12.3928 16.9524 13.3816 16.9524 14.5651C16.9524 15.2135 17.4549 15.3432 17.6981 15.3432C18.0385 15.3432 18.4276 15.1 18.4276 14.6137C18.4276 14.0949 18.0385 13.868 17.6819 13.868C17.5846 13.868 17.5522 13.868 17.5035 13.8842C18.1196 12.7818 19.6434 12.7818 19.7245 12.7818C20.2594 12.7818 21.3132 13.025 21.3132 14.6137C21.3132 14.9217 21.2645 15.8295 20.7944 16.5266C20.3081 17.2399 19.7569 17.2885 19.3192 17.3048L18.8329 17.3534Z" fill="#00FFFF"/>
<path d="M30.9187 20.4497H30.562C30.5134 20.7253 30.3837 21.6169 30.2216 21.8763C30.1081 22.0222 29.1841 22.0222 28.6977 22.0222H25.6987C26.1364 21.6494 27.1252 20.6118 27.5467 20.2228C30.0108 17.9532 30.9187 17.1102 30.9187 15.5053C30.9187 13.641 29.4434 12.3928 27.5629 12.3928C25.6824 12.3928 24.5801 13.9977 24.5801 15.3918C24.5801 16.2186 25.2934 16.2186 25.342 16.2186C25.6824 16.2186 26.1039 15.9754 26.1039 15.4567C26.1039 15.0028 25.7959 14.6948 25.342 14.6948C25.1961 14.6948 25.1637 14.6948 25.115 14.711C25.4231 13.6086 26.2985 12.8629 27.3522 12.8629C28.7301 12.8629 29.5731 14.0139 29.5731 15.5053C29.5731 16.8833 28.7788 18.0829 27.8547 19.1204L24.5801 22.7841V23.1732H30.4972L30.9187 20.4497Z" fill="#00FFFF"/>
<path d="M48.5126 14.2541C48.536 14.184 48.606 14.0206 48.606 13.9272C48.606 13.8104 48.5126 13.6937 48.3726 13.6937C48.2792 13.6937 48.2325 13.717 48.1624 13.7871C48.1157 13.8104 48.1157 13.8571 47.9056 14.3241C46.528 17.5929 45.524 18.9938 41.7882 18.9938H38.3793C38.0525 18.9938 38.0058 18.9938 37.8657 18.9705C37.6088 18.9471 37.5855 18.9004 37.5855 18.7136C37.5855 18.5502 37.6322 18.4101 37.6789 18.2L39.2899 11.7557H41.6014C43.4226 11.7557 43.5627 12.1527 43.5627 12.8531C43.5627 13.0866 43.5627 13.2968 43.3993 13.9972C43.3526 14.0906 43.3292 14.184 43.3292 14.2541C43.3292 14.4175 43.446 14.4875 43.5861 14.4875C43.7962 14.4875 43.8196 14.3241 43.913 13.9972L45.2438 8.58033C45.2438 8.46359 45.1504 8.34684 45.0104 8.34684C44.8002 8.34684 44.7769 8.44024 44.6835 8.76712C44.2165 10.565 43.7495 11.0786 41.6715 11.0786H39.4534L40.901 5.33487C41.1111 4.51766 41.1578 4.44762 42.1151 4.44762H45.454C48.3259 4.44762 48.9096 5.21812 48.9096 6.99262C48.9096 7.01597 48.9096 7.66973 48.8162 8.44024C48.7928 8.53363 48.7695 8.67372 48.7695 8.72042C48.7695 8.90721 48.8862 8.97726 49.0263 8.97726C49.1898 8.97726 49.2832 8.88386 49.3299 8.46359L49.8202 4.37757C49.8202 4.30753 49.8669 4.07404 49.8669 4.02734C49.8669 3.77051 49.6567 3.77051 49.2365 3.77051H37.8423C37.3987 3.77051 37.1652 3.77051 37.1652 4.19078C37.1652 4.44762 37.3286 4.44762 37.7256 4.44762C39.1732 4.44762 39.1732 4.61106 39.1732 4.86789C39.1732 4.98464 39.1498 5.07803 39.0798 5.33487L35.9277 17.9431C35.7176 18.7603 35.6709 18.9938 34.0365 18.9938C33.5929 18.9938 33.3594 18.9938 33.3594 19.4141C33.3594 19.6709 33.4995 19.6709 33.9664 19.6709H45.6875C46.2011 19.6709 46.2245 19.6476 46.3879 19.274L48.5126 14.2541Z" fill="#00FFFF"/>
<path d="M52.1922 17.3534C51.9166 17.3696 51.8518 17.3858 51.8518 17.5317C51.8518 17.6938 51.9328 17.6938 52.2246 17.6938H52.9704C54.3483 17.6938 54.9643 18.8286 54.9643 20.3849C54.9643 22.5086 53.862 23.0759 53.0676 23.0759C52.2895 23.0759 50.9602 22.7031 50.49 21.6331C51.0088 21.7142 51.4789 21.4224 51.4789 20.8388C51.4789 20.3687 51.1385 20.0444 50.6846 20.0444C50.2955 20.0444 49.874 20.2714 49.874 20.8874C49.874 22.3302 51.3168 23.5136 53.1163 23.5136C55.0454 23.5136 56.472 22.0384 56.472 20.4011C56.472 18.9097 55.2724 17.7425 53.7161 17.4669C55.1265 17.0616 56.0343 15.8782 56.0343 14.6137C56.0343 13.333 54.705 12.3928 53.1325 12.3928C51.5114 12.3928 50.3117 13.3816 50.3117 14.5651C50.3117 15.2135 50.8143 15.3432 51.0574 15.3432C51.3979 15.3432 51.7869 15.1 51.7869 14.6137C51.7869 14.0949 51.3979 13.868 51.0412 13.868C50.944 13.868 50.9115 13.868 50.8629 13.8842C51.4789 12.7818 53.0028 12.7818 53.0838 12.7818C53.6188 12.7818 54.6725 13.025 54.6725 14.6137C54.6725 14.9217 54.6239 15.8295 54.1538 16.5266C53.6674 17.2399 53.1163 17.2885 52.6786 17.3048L52.1922 17.3534Z" fill="#00FFFF"/>
<path d="M61.8147 12.7818C61.8147 12.409 61.8147 12.3928 61.4905 12.3928C61.1014 12.8305 60.2908 13.4303 58.6211 13.4303V13.9004C58.994 13.9004 59.8045 13.9004 60.6961 13.4789V21.9249C60.6961 22.5086 60.6475 22.7031 59.2209 22.7031H58.7184V23.1732C59.1561 23.1408 60.7285 23.1408 61.2635 23.1408C61.7985 23.1408 63.3548 23.1408 63.7925 23.1732V22.7031H63.2899C61.8633 22.7031 61.8147 22.5086 61.8147 21.9249V12.7818Z" fill="#00FFFF"/>
<path d="M81.873 14.2541C81.8963 14.184 81.9664 14.0206 81.9664 13.9272C81.9664 13.8104 81.873 13.6937 81.7329 13.6937C81.6395 13.6937 81.5928 13.717 81.5228 13.7871C81.4761 13.8104 81.4761 13.8571 81.2659 14.3241C79.8884 17.5929 78.8844 18.9938 75.1486 18.9938H71.7397C71.4128 18.9938 71.3661 18.9938 71.226 18.9705C70.9692 18.9471 70.9458 18.9004 70.9458 18.7136C70.9458 18.5502 70.9925 18.4101 71.0392 18.2L72.6503 11.7557H74.9618C76.783 11.7557 76.9231 12.1527 76.9231 12.8531C76.9231 13.0866 76.9231 13.2968 76.7596 13.9972C76.7129 14.0906 76.6896 14.184 76.6896 14.2541C76.6896 14.4175 76.8063 14.4875 76.9464 14.4875C77.1566 14.4875 77.1799 14.3241 77.2733 13.9972L78.6042 8.58033C78.6042 8.46359 78.5108 8.34684 78.3707 8.34684C78.1606 8.34684 78.1372 8.44024 78.0438 8.76712C77.5768 10.565 77.1099 11.0786 75.0318 11.0786H72.8137L74.2613 5.33487C74.4715 4.51766 74.5182 4.44762 75.4755 4.44762H78.8143C81.6862 4.44762 82.2699 5.21812 82.2699 6.99262C82.2699 7.01597 82.2699 7.66973 82.1765 8.44024C82.1532 8.53363 82.1298 8.67372 82.1298 8.72042C82.1298 8.90721 82.2466 8.97726 82.3867 8.97726C82.5501 8.97726 82.6435 8.88386 82.6902 8.46359L83.1805 4.37757C83.1805 4.30753 83.2272 4.07404 83.2272 4.02734C83.2272 3.77051 83.0171 3.77051 82.5968 3.77051H71.2027C70.759 3.77051 70.5256 3.77051 70.5256 4.19078C70.5256 4.44762 70.689 4.44762 71.0859 4.44762C72.5335 4.44762 72.5335 4.61106 72.5335 4.86789C72.5335 4.98464 72.5102 5.07803 72.4401 5.33487L69.2881 17.9431C69.0779 18.7603 69.0312 18.9938 67.3968 18.9938C66.9532 18.9938 66.7197 18.9938 66.7197 19.4141C66.7197 19.6709 66.8598 19.6709 67.3268 19.6709H79.0478C79.5615 19.6709 79.5848 19.6476 79.7483 19.274L81.873 14.2541Z" fill="#00FFFF"/>
<path d="M89.7019 20.4497H89.3452C89.2966 20.7253 89.1669 21.6169 89.0048 21.8763C88.8913 22.0222 87.9673 22.0222 87.4809 22.0222H84.4819C84.9196 21.6494 85.9084 20.6118 86.3299 20.2228C88.794 17.9532 89.7019 17.1102 89.7019 15.5053C89.7019 13.641 88.2266 12.3928 86.3461 12.3928C84.4656 12.3928 83.3633 13.9977 83.3633 15.3918C83.3633 16.2186 84.0766 16.2186 84.1252 16.2186C84.4656 16.2186 84.8871 15.9754 84.8871 15.4567C84.8871 15.0028 84.5791 14.6948 84.1252 14.6948C83.9793 14.6948 83.9469 14.6948 83.8983 14.711C84.2063 13.6086 85.0817 12.8629 86.1354 12.8629C87.5133 12.8629 88.3563 14.0139 88.3563 15.5053C88.3563 16.8833 87.562 18.0829 86.6379 19.1204L83.3633 22.7841V23.1732H89.2804L89.7019 20.4497Z" fill="#00FFFF"/>
<path d="M95.1741 12.7818C95.1741 12.409 95.1741 12.3928 94.8499 12.3928C94.4608 12.8305 93.6502 13.4303 91.9805 13.4303V13.9004C92.3533 13.9004 93.1639 13.9004 94.0555 13.4789V21.9249C94.0555 22.5086 94.0069 22.7031 92.5803 22.7031H92.0777V23.1732C92.5154 23.1408 94.0879 23.1408 94.6229 23.1408C95.1579 23.1408 96.7141 23.1408 97.1518 23.1732V22.7031H96.6493C95.2227 22.7031 95.1741 22.5086 95.1741 21.9249V12.7818Z" fill="#00FFFF"/>
<path d="M102.974 17.0792C102.157 18.4568 101.363 18.9238 100.242 18.9938C99.9856 19.0172 99.7988 19.0172 99.7988 19.4374C99.7988 19.5775 99.9156 19.6709 100.079 19.6709C100.499 19.6709 101.55 19.6242 101.97 19.6242C102.647 19.6242 103.395 19.6709 104.048 19.6709C104.188 19.6709 104.469 19.6709 104.469 19.2273C104.469 19.0172 104.282 18.9938 104.142 18.9938C103.605 18.9471 103.161 18.7603 103.161 18.2C103.161 17.8731 103.301 17.6163 103.605 17.1026L105.379 14.1607H111.333C111.356 14.3708 111.356 14.5576 111.38 14.7677C111.45 15.3748 111.73 17.803 111.73 18.2467C111.73 18.9471 110.539 18.9938 110.166 18.9938C109.909 18.9938 109.652 18.9938 109.652 19.4141C109.652 19.6709 109.862 19.6709 110.002 19.6709C110.399 19.6709 110.866 19.6242 111.263 19.6242H112.594C114.018 19.6242 115.045 19.6709 115.069 19.6709C115.232 19.6709 115.489 19.6709 115.489 19.2273C115.489 18.9938 115.279 18.9938 114.929 18.9938C113.645 18.9938 113.621 18.7837 113.551 18.0832L112.127 3.51367C112.08 3.0467 111.987 3 111.73 3C111.497 3 111.356 3.0467 111.146 3.39693L102.974 17.0792ZM105.776 13.4835L110.469 5.6384L111.263 13.4835H105.776Z" fill="#00FFFF"/>
<path d="M137.642 12.176C137.992 12.176 138.343 12.176 138.343 11.7791C138.343 11.3588 137.946 11.3588 137.549 11.3588H124.497C124.1 11.3588 123.703 11.3588 123.703 11.7791C123.703 12.176 124.053 12.176 124.404 12.176H137.642ZM137.549 16.3321C137.946 16.3321 138.343 16.3321 138.343 15.9118C138.343 15.5149 137.992 15.5149 137.642 15.5149H124.404C124.053 15.5149 123.703 15.5149 123.703 15.9118C123.703 16.3321 124.1 16.3321 124.497 16.3321H137.549Z" fill="#00FFFF"/>
<path d="M157.736 14.3008C156.919 17.5696 154.211 19.4842 152.016 19.4842C150.335 19.4842 149.191 18.3634 149.191 16.4255C149.191 16.3321 149.191 15.6316 149.448 14.6043L151.736 5.42827C151.946 4.63441 151.993 4.40093 153.65 4.40093C154.071 4.40093 154.304 4.40093 154.304 3.98065C154.304 3.72382 154.094 3.72382 153.954 3.72382C153.534 3.72382 153.043 3.77051 152.6 3.77051H149.845C149.401 3.77051 148.911 3.72382 148.467 3.72382C148.304 3.72382 148.023 3.72382 148.023 4.16744C148.023 4.40093 148.187 4.40093 148.631 4.40093C150.031 4.40093 150.031 4.58772 150.031 4.84455C150.031 4.98464 149.868 5.66175 149.751 6.05868L147.72 14.2307C147.65 14.4875 147.51 15.118 147.51 15.7484C147.51 18.3167 149.354 20.1613 151.899 20.1613C154.258 20.1613 156.873 18.2934 158.063 15.3281C158.227 14.9312 158.437 14.114 158.577 13.4836C158.811 12.643 159.301 10.5883 159.464 9.98125L160.352 6.47896C160.655 5.26483 160.842 4.49432 162.897 4.40093C163.083 4.37758 163.177 4.19079 163.177 3.98065C163.177 3.72382 162.967 3.72382 162.873 3.72382C162.546 3.72382 162.126 3.77051 161.799 3.77051H160.702C159.254 3.77051 158.507 3.72382 158.484 3.72382C158.344 3.72382 158.063 3.72382 158.063 4.16744C158.063 4.40093 158.25 4.40093 158.414 4.40093C159.815 4.44762 159.908 4.98464 159.908 5.40492C159.908 5.61506 159.908 5.6851 159.815 6.01198L157.736 14.3008Z" fill="#00FFFF"/>
<path d="M180.779 7.53711C180.779 6.6543 180.896 5.80664 181.131 4.99414C181.369 4.18164 181.723 3.44336 182.191 2.7793C182.66 2.11523 183.146 1.64648 183.65 1.37305L183.873 2.08789C183.303 2.52539 182.834 3.19336 182.467 4.0918C182.104 4.99023 181.904 5.99609 181.869 7.10938L181.863 7.60742C181.863 9.11523 182.139 10.4238 182.689 11.5332C183.021 12.1973 183.416 12.7168 183.873 13.0918L183.65 13.7539C183.131 13.4648 182.635 12.9805 182.162 12.3008C181.24 10.9727 180.779 9.38477 180.779 7.53711ZM185.947 4.66016L185.982 5.45703C186.467 4.84766 187.1 4.54297 187.881 4.54297C189.221 4.54297 189.896 5.29883 189.908 6.81055V11H188.824V6.80469C188.82 6.34766 188.715 6.00977 188.508 5.79102C188.305 5.57227 187.986 5.46289 187.553 5.46289C187.201 5.46289 186.893 5.55664 186.627 5.74414C186.361 5.93164 186.154 6.17773 186.006 6.48242V11H184.922V4.66016H185.947ZM191.256 7.77148C191.256 7.15039 191.377 6.5918 191.619 6.0957C191.865 5.59961 192.205 5.2168 192.639 4.94727C193.076 4.67773 193.574 4.54297 194.133 4.54297C194.996 4.54297 195.693 4.8418 196.225 5.43945C196.76 6.03711 197.027 6.83203 197.027 7.82422V7.90039C197.027 8.51758 196.908 9.07227 196.67 9.56445C196.436 10.0527 196.098 10.4336 195.656 10.707C195.219 10.9805 194.715 11.1172 194.145 11.1172C193.285 11.1172 192.588 10.8184 192.053 10.2207C191.521 9.62305 191.256 8.83203 191.256 7.84766V7.77148ZM192.346 7.90039C192.346 8.60352 192.508 9.16797 192.832 9.59375C193.16 10.0195 193.598 10.2324 194.145 10.2324C194.695 10.2324 195.133 10.0176 195.457 9.58789C195.781 9.1543 195.943 8.54883 195.943 7.77148C195.943 7.07617 195.777 6.51367 195.445 6.08398C195.117 5.65039 194.68 5.43359 194.133 5.43359C193.598 5.43359 193.166 5.64648 192.838 6.07227C192.51 6.49805 192.346 7.10742 192.346 7.90039ZM204.428 5.63281C204.264 5.60547 204.086 5.5918 203.895 5.5918C203.184 5.5918 202.701 5.89453 202.447 6.5V11H201.363V4.66016H202.418L202.436 5.39258C202.791 4.82617 203.295 4.54297 203.947 4.54297C204.158 4.54297 204.318 4.57031 204.428 4.625V5.63281ZM205.025 7.77148C205.025 7.15039 205.146 6.5918 205.389 6.0957C205.635 5.59961 205.975 5.2168 206.408 4.94727C206.846 4.67773 207.344 4.54297 207.902 4.54297C208.766 4.54297 209.463 4.8418 209.994 5.43945C210.529 6.03711 210.797 6.83203 210.797 7.82422V7.90039C210.797 8.51758 210.678 9.07227 210.439 9.56445C210.205 10.0527 209.867 10.4336 209.426 10.707C208.988 10.9805 208.484 11.1172 207.914 11.1172C207.055 11.1172 206.357 10.8184 205.822 10.2207C205.291 9.62305 205.025 8.83203 205.025 7.84766V7.77148ZM206.115 7.90039C206.115 8.60352 206.277 9.16797 206.602 9.59375C206.93 10.0195 207.367 10.2324 207.914 10.2324C208.465 10.2324 208.902 10.0176 209.227 9.58789C209.551 9.1543 209.713 8.54883 209.713 7.77148C209.713 7.07617 209.547 6.51367 209.215 6.08398C208.887 5.65039 208.449 5.43359 207.902 5.43359C207.367 5.43359 206.936 5.64648 206.607 6.07227C206.279 6.49805 206.115 7.10742 206.115 7.90039ZM217.77 9.50586L218.988 4.66016H220.072L218.227 11H217.348L215.807 6.19531L214.307 11H213.428L211.588 4.66016H212.666L213.914 9.40625L215.391 4.66016H216.264L217.77 9.50586ZM183.451 25.1172C182.592 25.1172 181.893 24.8359 181.354 24.2734C180.814 23.707 180.545 22.9512 180.545 22.0059V21.8066C180.545 21.1777 180.664 20.6172 180.902 20.125C181.145 19.6289 181.48 19.2422 181.91 18.9648C182.344 18.6836 182.812 18.543 183.316 18.543C184.141 18.543 184.781 18.8145 185.238 19.3574C185.695 19.9004 185.924 20.6777 185.924 21.6895V22.1406H181.629C181.645 22.7656 181.826 23.2715 182.174 23.6582C182.525 24.041 182.971 24.2324 183.51 24.2324C183.893 24.2324 184.217 24.1543 184.482 23.998C184.748 23.8418 184.98 23.6348 185.18 23.377L185.842 23.8926C185.311 24.709 184.514 25.1172 183.451 25.1172ZM183.316 19.4336C182.879 19.4336 182.512 19.5938 182.215 19.9141C181.918 20.2305 181.734 20.6758 181.664 21.25H184.84V21.168C184.809 20.6172 184.66 20.1914 184.395 19.8906C184.129 19.5859 183.77 19.4336 183.316 19.4336ZM189.311 20.9746L190.717 18.6602H191.982L189.908 21.7949L192.047 25H190.793L189.328 22.627L187.863 25H186.604L188.742 21.7949L186.668 18.6602H187.922L189.311 20.9746ZM195.562 24.2324C195.949 24.2324 196.287 24.1152 196.576 23.8809C196.865 23.6465 197.025 23.3535 197.057 23.002H198.082C198.062 23.3652 197.938 23.7109 197.707 24.0391C197.477 24.3672 197.168 24.6289 196.781 24.8242C196.398 25.0195 195.992 25.1172 195.562 25.1172C194.699 25.1172 194.012 24.8301 193.5 24.2559C192.992 23.6777 192.738 22.8887 192.738 21.8887V21.707C192.738 21.0898 192.852 20.541 193.078 20.0605C193.305 19.5801 193.629 19.207 194.051 18.9414C194.477 18.6758 194.979 18.543 195.557 18.543C196.268 18.543 196.857 18.7559 197.326 19.1816C197.799 19.6074 198.051 20.1602 198.082 20.8398H197.057C197.025 20.4297 196.869 20.0938 196.588 19.832C196.311 19.5664 195.967 19.4336 195.557 19.4336C195.006 19.4336 194.578 19.6328 194.273 20.0312C193.973 20.4258 193.822 20.998 193.822 21.748V21.9531C193.822 22.6836 193.973 23.2461 194.273 23.6406C194.574 24.0352 195.004 24.2324 195.562 24.2324ZM200.385 19.4277C200.865 18.8379 201.49 18.543 202.26 18.543C203.6 18.543 204.275 19.2988 204.287 20.8105V25H203.203V20.8047C203.199 20.3477 203.094 20.0098 202.887 19.791C202.684 19.5723 202.365 19.4629 201.932 19.4629C201.58 19.4629 201.271 19.5566 201.006 19.7441C200.74 19.9316 200.533 20.1777 200.385 20.4824V25H199.301V16H200.385V19.4277ZM209.824 25C209.762 24.875 209.711 24.6523 209.672 24.332C209.168 24.8555 208.566 25.1172 207.867 25.1172C207.242 25.1172 206.729 24.9414 206.326 24.5898C205.928 24.2344 205.729 23.7852 205.729 23.2422C205.729 22.582 205.979 22.0703 206.479 21.707C206.982 21.3398 207.689 21.1562 208.6 21.1562H209.654V20.6582C209.654 20.2793 209.541 19.9785 209.314 19.7559C209.088 19.5293 208.754 19.416 208.312 19.416C207.926 19.416 207.602 19.5137 207.34 19.709C207.078 19.9043 206.947 20.1406 206.947 20.418H205.857C205.857 20.1016 205.969 19.7969 206.191 19.5039C206.418 19.207 206.723 18.9727 207.105 18.8008C207.492 18.6289 207.916 18.543 208.377 18.543C209.107 18.543 209.68 18.7266 210.094 19.0938C210.508 19.457 210.723 19.959 210.738 20.5996V23.5176C210.738 24.0996 210.812 24.5625 210.961 24.9062V25H209.824ZM208.025 24.1738C208.365 24.1738 208.688 24.0859 208.992 23.9102C209.297 23.7344 209.518 23.5059 209.654 23.2246V21.9238H208.805C207.477 21.9238 206.812 22.3125 206.812 23.0898C206.812 23.4297 206.926 23.6953 207.152 23.8867C207.379 24.0781 207.67 24.1738 208.025 24.1738ZM213.463 18.6602L213.498 19.457C213.982 18.8477 214.615 18.543 215.396 18.543C216.736 18.543 217.412 19.2988 217.424 20.8105V25H216.34V20.8047C216.336 20.3477 216.23 20.0098 216.023 19.791C215.82 19.5723 215.502 19.4629 215.068 19.4629C214.717 19.4629 214.408 19.5566 214.143 19.7441C213.877 19.9316 213.67 20.1777 213.521 20.4824V25H212.438V18.6602H213.463ZM218.801 21.7773C218.801 20.7891 219.029 20.0039 219.486 19.4219C219.943 18.8359 220.549 18.543 221.303 18.543C222.076 18.543 222.68 18.8164 223.113 19.3633L223.166 18.6602H224.156V24.8477C224.156 25.668 223.912 26.3145 223.424 26.7871C222.939 27.2598 222.287 27.4961 221.467 27.4961C221.01 27.4961 220.562 27.3984 220.125 27.2031C219.688 27.0078 219.354 26.7402 219.123 26.4004L219.686 25.75C220.15 26.3242 220.719 26.6113 221.391 26.6113C221.918 26.6113 222.328 26.4629 222.621 26.166C222.918 25.8691 223.066 25.4512 223.066 24.9121V24.3672C222.633 24.8672 222.041 25.1172 221.291 25.1172C220.549 25.1172 219.947 24.8184 219.486 24.2207C219.029 23.623 218.801 22.8086 218.801 21.7773ZM219.891 21.9004C219.891 22.6152 220.037 23.1777 220.33 23.5879C220.623 23.9941 221.033 24.1973 221.561 24.1973C222.244 24.1973 222.746 23.8867 223.066 23.2656V20.3711C222.734 19.7656 222.236 19.4629 221.572 19.4629C221.045 19.4629 220.633 19.668 220.336 20.0781C220.039 20.4883 219.891 21.0957 219.891 21.9004ZM228.428 25.1172C227.568 25.1172 226.869 24.8359 226.33 24.2734C225.791 23.707 225.521 22.9512 225.521 22.0059V21.8066C225.521 21.1777 225.641 20.6172 225.879 20.125C226.121 19.6289 226.457 19.2422 226.887 18.9648C227.32 18.6836 227.789 18.543 228.293 18.543C229.117 18.543 229.758 18.8145 230.215 19.3574C230.672 19.9004 230.9 20.6777 230.9 21.6895V22.1406H226.605C226.621 22.7656 226.803 23.2715 227.15 23.6582C227.502 24.041 227.947 24.2324 228.486 24.2324C228.869 24.2324 229.193 24.1543 229.459 23.998C229.725 23.8418 229.957 23.6348 230.156 23.377L230.818 23.8926C230.287 24.709 229.49 25.1172 228.428 25.1172ZM228.293 19.4336C227.855 19.4336 227.488 19.5938 227.191 19.9141C226.895 20.2305 226.711 20.6758 226.641 21.25H229.816V21.168C229.785 20.6172 229.637 20.1914 229.371 19.8906C229.105 19.5859 228.746 19.4336 228.293 19.4336ZM235.852 23.3184C235.852 23.0254 235.74 22.7988 235.518 22.6387C235.299 22.4746 234.914 22.334 234.363 22.2168C233.816 22.0996 233.381 21.959 233.057 21.7949C232.736 21.6309 232.498 21.4355 232.342 21.209C232.189 20.9824 232.113 20.7129 232.113 20.4004C232.113 19.8809 232.332 19.4414 232.77 19.082C233.211 18.7227 233.773 18.543 234.457 18.543C235.176 18.543 235.758 18.7285 236.203 19.0996C236.652 19.4707 236.877 19.9453 236.877 20.5234H235.787C235.787 20.2266 235.66 19.9707 235.406 19.7559C235.156 19.541 234.84 19.4336 234.457 19.4336C234.062 19.4336 233.754 19.5195 233.531 19.6914C233.309 19.8633 233.197 20.0879 233.197 20.3652C233.197 20.627 233.301 20.8242 233.508 20.957C233.715 21.0898 234.088 21.2168 234.627 21.3379C235.17 21.459 235.609 21.6035 235.945 21.7715C236.281 21.9395 236.529 22.1426 236.689 22.3809C236.854 22.6152 236.936 22.9023 236.936 23.2422C236.936 23.8086 236.709 24.2637 236.256 24.6074C235.803 24.9473 235.215 25.1172 234.492 25.1172C233.984 25.1172 233.535 25.0273 233.145 24.8477C232.754 24.668 232.447 24.418 232.225 24.0977C232.006 23.7734 231.896 23.4238 231.896 23.0488H232.98C233 23.4121 233.145 23.7012 233.414 23.916C233.688 24.127 234.047 24.2324 234.492 24.2324C234.902 24.2324 235.23 24.1504 235.477 23.9863C235.727 23.8184 235.852 23.5957 235.852 23.3184ZM240.85 21.5957C240.85 22.4668 240.734 23.3027 240.504 24.1035C240.277 24.9004 239.928 25.6367 239.455 26.3125C238.986 26.9883 238.494 27.4688 237.979 27.7539L237.75 27.0918C238.352 26.6309 238.834 25.916 239.197 24.9473C239.564 23.9746 239.752 22.8965 239.76 21.7129V21.5254C239.76 20.7051 239.674 19.9434 239.502 19.2402C239.33 18.5332 239.09 17.9004 238.781 17.3418C238.477 16.7832 238.133 16.3477 237.75 16.0352L237.979 15.373C238.494 15.6582 238.984 16.1348 239.449 16.8027C239.918 17.4707 240.268 18.207 240.498 19.0117C240.732 19.8164 240.85 20.6777 240.85 21.5957Z" fill="#00FFFF"/>
</svg>
