<svg width="182" height="53" viewBox="0 0 182 53" fill="none" xmlns="http://www.w3.org/2000/svg">
<path d="M3.17542 17.8292C2.35821 19.2068 1.56436 19.6738 0.443624 19.7438C0.186789 19.7672 0 19.7672 0 20.1874C0 20.3275 0.116743 20.4209 0.280184 20.4209C0.700459 20.4209 1.75115 20.3742 2.17142 20.3742C2.84853 20.3742 3.59569 20.4209 4.24945 20.4209C4.38955 20.4209 4.66973 20.4209 4.66973 19.9773C4.66973 19.7672 4.48294 19.7438 4.34285 19.7438C3.80583 19.6971 3.36221 19.5103 3.36221 18.95C3.36221 18.6231 3.5023 18.3663 3.80583 17.8526L5.58033 14.9107H11.5342C11.5576 15.1208 11.5576 15.3076 11.5809 15.5177C11.651 16.1248 11.9312 18.553 11.9312 18.9967C11.9312 19.6971 10.7404 19.7438 10.3668 19.7438C10.11 19.7438 9.85313 19.7438 9.85313 20.1641C9.85313 20.4209 10.0633 20.4209 10.2034 20.4209C10.6003 20.4209 11.0673 20.3742 11.4642 20.3742H12.7951C14.2193 20.3742 15.2467 20.4209 15.27 20.4209C15.4335 20.4209 15.6903 20.4209 15.6903 19.9773C15.6903 19.7438 15.4802 19.7438 15.1299 19.7438C13.8457 19.7438 13.8224 19.5337 13.7524 18.8332L12.3281 4.26367C12.2814 3.7967 12.188 3.75 11.9312 3.75C11.6977 3.75 11.5576 3.7967 11.3474 4.14693L3.17542 17.8292ZM5.97725 14.2335L10.6703 6.3884L11.4642 14.2335H5.97725Z" fill="#00FFFF"/>
<path d="M37.8434 12.926C38.1937 12.926 38.5439 12.926 38.5439 12.5291C38.5439 12.1088 38.147 12.1088 37.75 12.1088H24.6982C24.3012 12.1088 23.9043 12.1088 23.9043 12.5291C23.9043 12.926 24.2545 12.926 24.6048 12.926H37.8434ZM37.75 17.0821C38.147 17.0821 38.5439 17.0821 38.5439 16.6618C38.5439 16.2649 38.1937 16.2649 37.8434 16.2649H24.6048C24.2545 16.2649 23.9043 16.2649 23.9043 16.6618C23.9043 17.0821 24.3012 17.0821 24.6982 17.0821H37.75Z" fill="#00FFFF"/>
<path d="M62.3505 15.0041C62.3739 14.934 62.4439 14.7706 62.4439 14.6772C62.4439 14.5604 62.3505 14.4437 62.2104 14.4437C62.1171 14.4437 62.0704 14.467 62.0003 14.5371C61.9536 14.5604 61.9536 14.6071 61.7435 15.0741C60.3659 18.3429 59.3619 19.7438 55.6261 19.7438H52.2172C51.8903 19.7438 51.8436 19.7438 51.7036 19.7205C51.4467 19.6971 51.4234 19.6504 51.4234 19.4636C51.4234 19.3002 51.4701 19.1601 51.5168 18.95L53.1278 12.5057H55.4393C57.2605 12.5057 57.4006 12.9027 57.4006 13.6031C57.4006 13.8366 57.4006 14.0468 57.2372 14.7472C57.1905 14.8406 57.1671 14.934 57.1671 15.0041C57.1671 15.1675 57.2839 15.2375 57.424 15.2375C57.6341 15.2375 57.6575 15.0741 57.7509 14.7472L59.0817 9.33033C59.0817 9.21359 58.9883 9.09684 58.8482 9.09684C58.6381 9.09684 58.6148 9.19024 58.5214 9.51712C58.0544 11.315 57.5874 11.8286 55.5094 11.8286H53.2913L54.7389 6.08487C54.949 5.26766 54.9957 5.19762 55.953 5.19762H59.2919C62.1637 5.19762 62.7475 5.96812 62.7475 7.74262C62.7475 7.76597 62.7475 8.41973 62.6541 9.19024C62.6307 9.28363 62.6074 9.42372 62.6074 9.47042C62.6074 9.65721 62.7241 9.72726 62.8642 9.72726C63.0276 9.72726 63.121 9.63386 63.1677 9.21359L63.6581 5.12757C63.6581 5.05753 63.7048 4.82404 63.7048 4.77734C63.7048 4.52051 63.4946 4.52051 63.0743 4.52051H51.6802C51.2366 4.52051 51.0031 4.52051 51.0031 4.94078C51.0031 5.19762 51.1665 5.19762 51.5635 5.19762C53.0111 5.19762 53.0111 5.36106 53.0111 5.61789C53.0111 5.73464 52.9877 5.82803 52.9177 6.08487L49.7656 18.6931C49.5555 19.5103 49.5088 19.7438 47.8744 19.7438C47.4308 19.7438 47.1973 19.7438 47.1973 20.1641C47.1973 20.4209 47.3374 20.4209 47.8043 20.4209H59.5254C60.039 20.4209 60.0624 20.3976 60.2258 20.024L62.3505 15.0041Z" fill="#00FFFF"/>
<path d="M75.0984 7.05189C75.374 7.05189 75.6658 7.05189 75.6658 6.72767C75.6658 6.40344 75.374 6.40344 75.0984 6.40344H66.3281C66.0525 6.40344 65.7607 6.40344 65.7607 6.72767C65.7607 7.05189 66.0525 7.05189 66.3281 7.05189H75.0984Z" fill="#00FFFF"/>
<path d="M81.6936 0.389069C81.6936 0.0162108 81.6936 0 81.3694 0C80.9803 0.437702 80.1698 1.03752 78.5 1.03752V1.50764C78.8729 1.50764 79.6834 1.50764 80.575 1.08615V9.53219C80.575 10.1158 80.5264 10.3103 79.0998 10.3103H78.5973V10.7804C79.035 10.748 80.6075 10.748 81.1424 10.748C81.6774 10.748 83.2337 10.748 83.6714 10.7804V10.3103H83.1688C81.7422 10.3103 81.6936 10.1158 81.6936 9.53219V0.389069Z" fill="#00FFFF"/>
<path d="M70.1794 23.5908H69.8228C69.7741 23.8664 69.6444 24.758 69.4823 25.0174C69.3688 25.1633 68.4448 25.1633 67.9585 25.1633H64.9594C65.3971 24.7904 66.386 23.7529 66.8075 23.3638C69.2716 21.0943 70.1794 20.2513 70.1794 18.6464C70.1794 16.7821 68.7042 15.5338 66.8237 15.5338C64.9432 15.5338 63.8408 17.1387 63.8408 18.5329C63.8408 19.3597 64.5541 19.3597 64.6027 19.3597C64.9432 19.3597 65.3647 19.1165 65.3647 18.5977C65.3647 18.1438 65.0567 17.8358 64.6027 17.8358C64.4568 17.8358 64.4244 17.8358 64.3758 17.852C64.6838 16.7497 65.5592 16.0039 66.6129 16.0039C67.9909 16.0039 68.8339 17.1549 68.8339 18.6464C68.8339 20.0243 68.0395 21.2239 67.1155 22.2615L63.8408 25.9252V26.3143H69.7579L70.1794 23.5908Z" fill="#00FFFF"/>
<path d="M75.6526 15.9229C75.6526 15.55 75.6526 15.5338 75.3284 15.5338C74.9393 15.9715 74.1287 16.5713 72.459 16.5713V17.0415C72.8318 17.0415 73.6424 17.0415 74.534 16.62V25.066C74.534 25.6496 74.4854 25.8441 73.0588 25.8441H72.5563V26.3143C72.994 26.2818 74.5664 26.2818 75.1014 26.2818C75.6364 26.2818 77.1927 26.2818 77.6304 26.3143V25.8441H77.1278C75.7012 25.8441 75.6526 25.6496 75.6526 25.066V15.9229Z" fill="#00FFFF"/>
<path d="M101.751 15.0041C101.774 14.934 101.844 14.7706 101.844 14.6772C101.844 14.5604 101.751 14.4437 101.611 14.4437C101.517 14.4437 101.471 14.467 101.401 14.5371C101.354 14.5604 101.354 14.6071 101.144 15.0741C99.7663 18.3429 98.7623 19.7438 95.0265 19.7438H91.6176C91.2907 19.7438 91.244 19.7438 91.1039 19.7205C90.8471 19.6971 90.8238 19.6504 90.8238 19.4636C90.8238 19.3002 90.8705 19.1601 90.9172 18.95L92.5282 12.5057H94.8397C96.6609 12.5057 96.801 12.9027 96.801 13.6031C96.801 13.8366 96.801 14.0468 96.6376 14.7472C96.5909 14.8406 96.5675 14.934 96.5675 15.0041C96.5675 15.1675 96.6843 15.2375 96.8244 15.2375C97.0345 15.2375 97.0579 15.0741 97.1512 14.7472L98.4821 9.33033C98.4821 9.21359 98.3887 9.09684 98.2486 9.09684C98.0385 9.09684 98.0151 9.19024 97.9218 9.51712C97.4548 11.315 96.9878 11.8286 94.9098 11.8286H92.6917L94.1393 6.08487C94.3494 5.26766 94.3961 5.19762 95.3534 5.19762H98.6923C101.564 5.19762 102.148 5.96812 102.148 7.74262C102.148 7.76597 102.148 8.41973 102.054 9.19024C102.031 9.28363 102.008 9.42372 102.008 9.47042C102.008 9.65721 102.125 9.72726 102.265 9.72726C102.428 9.72726 102.521 9.63386 102.568 9.21359L103.058 5.12757C103.058 5.05753 103.105 4.82404 103.105 4.77734C103.105 4.52051 102.895 4.52051 102.475 4.52051H91.0806C90.637 4.52051 90.4035 4.52051 90.4035 4.94078C90.4035 5.19762 90.5669 5.19762 90.9639 5.19762C92.4115 5.19762 92.4115 5.36106 92.4115 5.61789C92.4115 5.73464 92.3881 5.82803 92.3181 6.08487L89.166 18.6931C88.9559 19.5103 88.9092 19.7438 87.2748 19.7438C86.8311 19.7438 86.5977 19.7438 86.5977 20.1641C86.5977 20.4209 86.7377 20.4209 87.2047 20.4209H98.9257C99.4394 20.4209 99.4628 20.3976 99.6262 20.024L101.751 15.0041Z" fill="#00FFFF"/>
<path d="M114.5 7.05189C114.775 7.05189 115.067 7.05189 115.067 6.72767C115.067 6.40344 114.775 6.40344 114.5 6.40344H105.73C105.454 6.40344 105.162 6.40344 105.162 6.72767C105.162 7.05189 105.454 7.05189 105.73 7.05189H114.5Z" fill="#00FFFF"/>
<path d="M121.094 0.389069C121.094 0.0162108 121.094 0 120.77 0C120.381 0.437702 119.57 1.03752 117.9 1.03752V1.50764C118.273 1.50764 119.084 1.50764 119.975 1.08615V9.53219C119.975 10.1158 119.927 10.3103 118.5 10.3103H117.998V10.7804C118.435 10.748 120.008 10.748 120.543 10.748C121.078 10.748 122.634 10.748 123.072 10.7804V10.3103H122.569C121.143 10.3103 121.094 10.1158 121.094 9.53219V0.389069Z" fill="#00FFFF"/>
<path d="M105.431 20.4944C105.155 20.5107 105.09 20.5269 105.09 20.6728C105.09 20.8349 105.171 20.8349 105.463 20.8349H106.209C107.587 20.8349 108.203 21.9697 108.203 23.5259C108.203 25.6496 107.1 26.217 106.306 26.217C105.528 26.217 104.198 25.8441 103.728 24.7742C104.247 24.8553 104.717 24.5635 104.717 23.9798C104.717 23.5097 104.377 23.1855 103.923 23.1855C103.534 23.1855 103.112 23.4125 103.112 24.0285C103.112 25.4713 104.555 26.6547 106.355 26.6547C108.284 26.6547 109.71 25.1795 109.71 23.5421C109.71 22.0507 108.511 20.8835 106.954 20.6079C108.365 20.2026 109.273 19.0192 109.273 17.7547C109.273 16.4741 107.943 15.5338 106.371 15.5338C104.75 15.5338 103.55 16.5227 103.55 17.7061C103.55 18.3546 104.053 18.4843 104.296 18.4843C104.636 18.4843 105.025 18.2411 105.025 17.7547C105.025 17.236 104.636 17.009 104.28 17.009C104.182 17.009 104.15 17.009 104.101 17.0252C104.717 15.9229 106.241 15.9229 106.322 15.9229C106.857 15.9229 107.911 16.1661 107.911 17.7547C107.911 18.0628 107.862 18.9706 107.392 19.6677C106.906 20.381 106.355 20.4296 105.917 20.4458L105.431 20.4944Z" fill="#00FFFF"/>
<path d="M115.053 15.9229C115.053 15.55 115.053 15.5338 114.729 15.5338C114.34 15.9715 113.529 16.5713 111.859 16.5713V17.0415C112.232 17.0415 113.043 17.0415 113.934 16.62V25.066C113.934 25.6496 113.886 25.8441 112.459 25.8441H111.957V26.3143C112.394 26.2818 113.967 26.2818 114.502 26.2818C115.037 26.2818 116.593 26.2818 117.031 26.3143V25.8441H116.528C115.102 25.8441 115.053 25.6496 115.053 25.066V15.9229Z" fill="#00FFFF"/>
<path d="M141.151 15.0041C141.175 14.934 141.245 14.7706 141.245 14.6772C141.245 14.5604 141.151 14.4437 141.011 14.4437C140.918 14.4437 140.871 14.467 140.801 14.5371C140.754 14.5604 140.754 14.6071 140.544 15.0741C139.167 18.3429 138.163 19.7438 134.427 19.7438H131.018C130.691 19.7438 130.644 19.7438 130.504 19.7205C130.248 19.6971 130.224 19.6504 130.224 19.4636C130.224 19.3002 130.271 19.1601 130.318 18.95L131.929 12.5057H134.24C136.061 12.5057 136.201 12.9027 136.201 13.6031C136.201 13.8366 136.201 14.0468 136.038 14.7472C135.991 14.8406 135.968 14.934 135.968 15.0041C135.968 15.1675 136.085 15.2375 136.225 15.2375C136.435 15.2375 136.458 15.0741 136.552 14.7472L137.883 9.33033C137.883 9.21359 137.789 9.09684 137.649 9.09684C137.439 9.09684 137.416 9.19024 137.322 9.51712C136.855 11.315 136.388 11.8286 134.31 11.8286H132.092L133.54 6.08487C133.75 5.26766 133.796 5.19762 134.754 5.19762H138.093C140.965 5.19762 141.548 5.96812 141.548 7.74262C141.548 7.76597 141.548 8.41973 141.455 9.19024C141.432 9.28363 141.408 9.42372 141.408 9.47042C141.408 9.65721 141.525 9.72726 141.665 9.72726C141.828 9.72726 141.922 9.63386 141.969 9.21359L142.459 5.12757C142.459 5.05753 142.506 4.82404 142.506 4.77734C142.506 4.52051 142.295 4.52051 141.875 4.52051H130.481C130.037 4.52051 129.804 4.52051 129.804 4.94078C129.804 5.19762 129.967 5.19762 130.364 5.19762C131.812 5.19762 131.812 5.36106 131.812 5.61789C131.812 5.73464 131.789 5.82803 131.718 6.08487L128.566 18.6931C128.356 19.5103 128.31 19.7438 126.675 19.7438C126.232 19.7438 125.998 19.7438 125.998 20.1641C125.998 20.4209 126.138 20.4209 126.605 20.4209H138.326C138.84 20.4209 138.863 20.3976 139.027 20.024L141.151 15.0041Z" fill="#00FFFF"/>
<path d="M153.9 7.05189C154.176 7.05189 154.468 7.05189 154.468 6.72767C154.468 6.40344 154.176 6.40344 153.9 6.40344H145.13C144.854 6.40344 144.562 6.40344 144.562 6.72767C144.562 7.05189 144.854 7.05189 145.13 7.05189H153.9Z" fill="#00FFFF"/>
<path d="M160.494 0.389069C160.494 0.0162108 160.494 0 160.17 0C159.781 0.437702 158.971 1.03752 157.301 1.03752V1.50764C157.674 1.50764 158.484 1.50764 159.376 1.08615V9.53219C159.376 10.1158 159.327 10.3103 157.901 10.3103H157.398V10.7804C157.836 10.748 159.408 10.748 159.943 10.748C160.478 10.748 162.034 10.748 162.472 10.7804V10.3103H161.97C160.543 10.3103 160.494 10.1158 160.494 9.53219V0.389069Z" fill="#00FFFF"/>
<path d="M144.831 20.4944C144.555 20.5107 144.49 20.5269 144.49 20.6728C144.49 20.8349 144.572 20.8349 144.863 20.8349H145.609C146.987 20.8349 147.603 21.9697 147.603 23.5259C147.603 25.6496 146.501 26.217 145.706 26.217C144.928 26.217 143.599 25.8441 143.129 24.7742C143.647 24.8553 144.118 24.5635 144.118 23.9798C144.118 23.5097 143.777 23.1855 143.323 23.1855C142.934 23.1855 142.513 23.4125 142.513 24.0285C142.513 25.4713 143.955 26.6547 145.755 26.6547C147.684 26.6547 149.111 25.1795 149.111 23.5421C149.111 22.0507 147.911 20.8835 146.355 20.6079C147.765 20.2026 148.673 19.0192 148.673 17.7547C148.673 16.4741 147.344 15.5338 145.771 15.5338C144.15 15.5338 142.95 16.5227 142.95 17.7061C142.95 18.3546 143.453 18.4843 143.696 18.4843C144.037 18.4843 144.426 18.2411 144.426 17.7547C144.426 17.236 144.037 17.009 143.68 17.009C143.583 17.009 143.55 17.009 143.502 17.0252C144.118 15.9229 145.641 15.9229 145.723 15.9229C146.257 15.9229 147.311 16.1661 147.311 17.7547C147.311 18.0628 147.263 18.9706 146.792 19.6677C146.306 20.381 145.755 20.4296 145.317 20.4458L144.831 20.4944Z" fill="#00FFFF"/>
<path d="M156.918 23.5908H156.561C156.512 23.8664 156.383 24.758 156.221 25.0174C156.107 25.1633 155.183 25.1633 154.697 25.1633H151.698C152.135 24.7904 153.124 23.7529 153.546 23.3638C156.01 21.0943 156.918 20.2513 156.918 18.6464C156.918 16.7821 155.442 15.5338 153.562 15.5338C151.681 15.5338 150.579 17.1387 150.579 18.5329C150.579 19.3597 151.292 19.3597 151.341 19.3597C151.681 19.3597 152.103 19.1165 152.103 18.5977C152.103 18.1438 151.795 17.8358 151.341 17.8358C151.195 17.8358 151.163 17.8358 151.114 17.852C151.422 16.7497 152.297 16.0039 153.351 16.0039C154.729 16.0039 155.572 17.1549 155.572 18.6464C155.572 20.0243 154.778 21.2239 153.854 22.2615L150.579 25.9252V26.3143H156.496L156.918 23.5908Z" fill="#00FFFF"/>
<path d="M176.14 15.0508C175.323 18.3196 172.614 20.2342 170.419 20.2342C168.738 20.2342 167.594 19.1134 167.594 17.1755C167.594 17.0821 167.594 16.3816 167.851 15.3543L170.139 6.17827C170.349 5.38441 170.396 5.15093 172.054 5.15093C172.474 5.15093 172.708 5.15093 172.708 4.73065C172.708 4.47382 172.497 4.47382 172.357 4.47382C171.937 4.47382 171.447 4.52051 171.003 4.52051H168.248C167.804 4.52051 167.314 4.47382 166.87 4.47382C166.707 4.47382 166.427 4.47382 166.427 4.91744C166.427 5.15093 166.59 5.15093 167.034 5.15093C168.435 5.15093 168.435 5.33772 168.435 5.59455C168.435 5.73464 168.271 6.41175 168.155 6.80868L166.123 14.9807C166.053 15.2375 165.913 15.868 165.913 16.4984C165.913 19.0667 167.758 20.9113 170.303 20.9113C172.661 20.9113 175.276 19.0434 176.467 16.0781C176.63 15.6812 176.84 14.864 176.98 14.2336C177.214 13.393 177.704 11.3383 177.868 10.7313L178.755 7.22896C179.058 6.01483 179.245 5.24432 181.3 5.15093C181.487 5.12758 181.58 4.94079 181.58 4.73065C181.58 4.47382 181.37 4.47382 181.276 4.47382C180.95 4.47382 180.529 4.52051 180.202 4.52051H179.105C177.657 4.52051 176.91 4.47382 176.887 4.47382C176.747 4.47382 176.467 4.47382 176.467 4.91744C176.467 5.15093 176.653 5.15093 176.817 5.15093C178.218 5.19762 178.311 5.73464 178.311 6.15492C178.311 6.36506 178.311 6.4351 178.218 6.76198L176.14 15.0508Z" fill="#00FFFF"/>
<path d="M36.9391 42.4522C37.2894 42.4522 37.6396 42.4522 37.6396 42.0553C37.6396 41.635 37.2427 41.635 36.8457 41.635H23.7939C23.3969 41.635 23 41.635 23 42.0553C23 42.4522 23.3502 42.4522 23.7005 42.4522H36.9391ZM36.8457 46.6083C37.2427 46.6083 37.6396 46.6083 37.6396 46.188C37.6396 45.7911 37.2894 45.7911 36.9391 45.7911H23.7005C23.3502 45.7911 23 45.7911 23 46.188C23 46.6083 23.3969 46.6083 23.7939 46.6083H36.8457Z" fill="#00FFFF"/>
<path d="M103.495 37.7978C103.705 36.9106 103.775 36.6771 105.83 36.6771C106.46 36.6771 106.624 36.6771 106.624 36.2335C106.624 36 106.367 36 106.273 36C105.806 36 105.269 36.0467 104.802 36.0467H101.674C101.23 36.0467 100.716 36 100.273 36C100.086 36 99.8292 36 99.8292 36.4436C99.8292 36.6771 100.039 36.6771 100.39 36.6771C101.814 36.6771 101.814 36.8639 101.814 37.1207C101.814 37.1674 101.814 37.3075 101.72 37.6578L98.5684 50.2193C98.3582 51.0365 98.3115 51.27 96.6771 51.27C96.2335 51.27 96 51.27 96 51.6903C96 51.9471 96.1401 51.9471 96.6071 51.9471H107.067C107.581 51.9471 107.604 51.9238 107.768 51.5035L109.566 46.5302C109.612 46.4135 109.659 46.2734 109.659 46.2034C109.659 46.0633 109.542 45.9699 109.425 45.9699C109.402 45.9699 109.285 45.9699 109.239 46.0633C109.192 46.0866 109.192 46.1333 109.005 46.5769C108.258 48.6316 107.207 51.27 103.261 51.27H101.02C100.693 51.27 100.646 51.27 100.506 51.2467C100.249 51.2233 100.226 51.1766 100.226 50.9898C100.226 50.8264 100.273 50.6863 100.319 50.4762L103.495 37.7978Z" fill="#00FFFF"/>
<path d="M122.295 46.5769C121.478 49.8457 118.769 51.7603 116.575 51.7603C114.894 51.7603 113.749 50.6396 113.749 48.7017C113.749 48.6083 113.749 47.9078 114.006 46.8805L116.294 37.7045C116.505 36.9106 116.551 36.6771 118.209 36.6771C118.629 36.6771 118.863 36.6771 118.863 36.2568C118.863 36 118.653 36 118.513 36C118.092 36 117.602 36.0467 117.158 36.0467H114.403C113.96 36.0467 113.469 36 113.026 36C112.862 36 112.582 36 112.582 36.4436C112.582 36.6771 112.745 36.6771 113.189 36.6771C114.59 36.6771 114.59 36.8639 114.59 37.1207C114.59 37.2608 114.427 37.9379 114.31 38.3349L112.278 46.5069C112.208 46.7637 112.068 47.3941 112.068 48.0246C112.068 50.5929 113.913 52.4374 116.458 52.4374C118.816 52.4374 121.431 50.5696 122.622 47.6043C122.785 47.2074 122.996 46.3901 123.136 45.7597C123.369 44.9192 123.859 42.8645 124.023 42.2574L124.91 38.7551C125.214 37.541 125.4 36.7705 127.455 36.6771C127.642 36.6538 127.735 36.467 127.735 36.2568C127.735 36 127.525 36 127.432 36C127.105 36 126.685 36.0467 126.358 36.0467H125.26C123.813 36.0467 123.066 36 123.042 36C122.902 36 122.622 36 122.622 36.4436C122.622 36.6771 122.809 36.6771 122.972 36.6771C124.373 36.7238 124.466 37.2608 124.466 37.6811C124.466 37.8912 124.466 37.9613 124.373 38.2882L122.295 46.5769Z" fill="#00FFFF"/>
<line x1="47" y1="29.5" x2="160" y2="29.5" stroke="#00FFFF"/>
</svg>
