<svg width="179" height="110" viewBox="0 0 179 110" fill="none" xmlns="http://www.w3.org/2000/svg">
<path d="M0 67.0042H1.61106V26.6111H7.7751V25H0V67.0042Z" fill="#00FFFF"/>
<path d="M0 109.009H7.7751V107.398H1.61106V67.0046H0V109.009Z" fill="#00FFFF"/>
<path d="M14.1648 29.5692C14.1648 29.0789 14.1414 29.0555 13.8145 29.0555C12.9039 30.1529 11.5264 30.5032 10.2188 30.5499C10.1488 30.5499 10.032 30.5499 10.0087 30.5966C9.98535 30.6432 9.98535 30.6899 9.98535 31.1803C10.7092 31.1803 11.9233 31.0402 12.8572 30.4798V42.7845C12.8572 43.6017 12.8105 43.8819 10.8026 43.8819H10.1021V44.489C11.2228 44.4656 12.3903 44.4423 13.511 44.4423C14.6317 44.4423 15.7992 44.4656 16.9199 44.489V43.8819H16.2194C14.2115 43.8819 14.1648 43.6251 14.1648 42.7845V29.5692Z" fill="#00FFFF"/>
<path d="M39.7268 36.9941C39.7268 35.5698 39.7035 33.1416 38.7228 31.2737C37.8589 29.6393 36.4813 29.0555 35.2672 29.0555C34.1465 29.0555 32.7222 29.5692 31.835 31.2503C30.901 33.0015 30.8076 35.1729 30.8076 36.9941C30.8076 38.325 30.831 40.3563 31.5548 42.1308C32.5588 44.5357 34.3566 44.8626 35.2672 44.8626C36.3412 44.8626 37.9757 44.419 38.9329 42.2008C39.6334 40.5898 39.7268 38.6985 39.7268 36.9941ZM35.2672 44.489C33.7729 44.489 32.8856 43.2048 32.5588 41.4303C32.3019 40.0528 32.3019 38.0448 32.3019 36.7372C32.3019 34.9394 32.3019 33.4451 32.6055 32.0208C33.0491 30.0362 34.3566 29.4291 35.2672 29.4291C36.2245 29.4291 37.462 30.0595 37.9056 31.9741C38.2091 33.305 38.2325 34.8694 38.2325 36.7372C38.2325 38.2549 38.2325 40.1228 37.9523 41.5004C37.462 44.0454 36.0844 44.489 35.2672 44.489Z" fill="#00FFFF"/>
<path d="M61.6926 36.9941C61.6926 35.5698 61.6693 33.1416 60.6886 31.2737C59.8247 29.6393 58.4472 29.0555 57.233 29.0555C56.1123 29.0555 54.688 29.5692 53.8008 31.2503C52.8668 33.0015 52.7734 35.1729 52.7734 36.9941C52.7734 38.325 52.7968 40.3563 53.5206 42.1308C54.5246 44.5357 56.3224 44.8626 57.233 44.8626C58.3071 44.8626 59.9415 44.419 60.8988 42.2008C61.5992 40.5898 61.6926 38.6985 61.6926 36.9941ZM57.233 44.489C55.7387 44.489 54.8515 43.2048 54.5246 41.4303C54.2678 40.0528 54.2678 38.0448 54.2678 36.7372C54.2678 34.9394 54.2678 33.4451 54.5713 32.0208C55.0149 30.0362 56.3224 29.4291 57.233 29.4291C58.1903 29.4291 59.4278 30.0595 59.8714 31.9741C60.175 33.305 60.1983 34.8694 60.1983 36.7372C60.1983 38.2549 60.1983 40.1228 59.9181 41.5004C59.4278 44.0454 58.0502 44.489 57.233 44.489Z" fill="#00FFFF"/>
<path d="M17.761 65.1386C17.761 63.7143 17.7376 61.286 16.757 59.4181C15.8931 57.7837 14.5155 57.2 13.3014 57.2C12.1807 57.2 10.7564 57.7137 9.86914 59.3948C8.93519 61.1459 8.8418 63.3174 8.8418 65.1386C8.8418 66.4694 8.86514 68.5008 9.58895 70.2753C10.5929 72.6802 12.3908 73.007 13.3014 73.007C14.3754 73.007 16.0098 72.5634 16.9671 70.3453C17.6676 68.7342 17.761 66.843 17.761 65.1386ZM13.3014 72.6335C11.8071 72.6335 10.9198 71.3493 10.5929 69.5748C10.3361 68.1972 10.3361 66.1892 10.3361 64.8817C10.3361 63.0839 10.3361 61.5896 10.6396 60.1653C11.0833 58.1807 12.3908 57.5736 13.3014 57.5736C14.2587 57.5736 15.4962 58.204 15.9398 60.1186C16.2433 61.4495 16.2667 63.0138 16.2667 64.8817C16.2667 66.3994 16.2667 68.2673 15.9865 69.6448C15.4962 72.1898 14.1186 72.6335 13.3014 72.6335Z" fill="#00FFFF"/>
<path d="M36.1306 57.7137C36.1306 57.2234 36.1072 57.2 35.7804 57.2C34.8698 58.2974 33.4922 58.6476 32.1847 58.6943C32.1146 58.6943 31.9979 58.6943 31.9745 58.741C31.9512 58.7877 31.9512 58.8344 31.9512 59.3247C32.675 59.3247 33.8891 59.1846 34.8231 58.6243V70.929C34.8231 71.7462 34.7764 72.0264 32.7684 72.0264H32.0679V72.6335C33.1887 72.6101 34.3561 72.5868 35.4768 72.5868C36.5976 72.5868 37.765 72.6101 38.8857 72.6335V72.0264H38.1853C36.1773 72.0264 36.1306 71.7696 36.1306 70.929V57.7137Z" fill="#00FFFF"/>
<path d="M61.6926 65.1386C61.6926 63.7143 61.6693 61.286 60.6886 59.4181C59.8247 57.7837 58.4472 57.2 57.233 57.2C56.1123 57.2 54.688 57.7137 53.8008 59.3948C52.8668 61.1459 52.7734 63.3174 52.7734 65.1386C52.7734 66.4694 52.7968 68.5008 53.5206 70.2753C54.5246 72.6802 56.3224 73.007 57.233 73.007C58.3071 73.007 59.9415 72.5634 60.8988 70.3453C61.5992 68.7342 61.6926 66.843 61.6926 65.1386ZM57.233 72.6335C55.7387 72.6335 54.8515 71.3493 54.5246 69.5748C54.2678 68.1972 54.2678 66.1892 54.2678 64.8817C54.2678 63.0839 54.2678 61.5896 54.5713 60.1653C55.0149 58.1807 56.3224 57.5736 57.233 57.5736C58.1903 57.5736 59.4278 58.204 59.8714 60.1186C60.175 61.4495 60.1983 63.0138 60.1983 64.8817C60.1983 66.3994 60.1983 68.2673 59.9181 69.6448C59.4278 72.1898 58.0502 72.6335 57.233 72.6335Z" fill="#00FFFF"/>
<path d="M17.761 93.283C17.761 91.8588 17.7376 89.4305 16.757 87.5626C15.8931 85.9282 14.5155 85.3445 13.3014 85.3445C12.1807 85.3445 10.7564 85.8582 9.86914 87.5393C8.93519 89.2904 8.8418 91.4618 8.8418 93.283C8.8418 94.6139 8.86514 96.6452 9.58895 98.4197C10.5929 100.825 12.3908 101.152 13.3014 101.152C14.3754 101.152 16.0098 100.708 16.9671 98.4898C17.6676 96.8787 17.761 94.9875 17.761 93.283ZM13.3014 100.778C11.8071 100.778 10.9198 99.4938 10.5929 97.7193C10.3361 96.3417 10.3361 94.3337 10.3361 93.0262C10.3361 91.2283 10.3361 89.734 10.6396 88.3098C11.0833 86.3251 12.3908 85.7181 13.3014 85.7181C14.2587 85.7181 15.4962 86.3485 15.9398 88.2631C16.2433 89.5939 16.2667 91.1583 16.2667 93.0262C16.2667 94.5438 16.2667 96.4117 15.9865 97.7893C15.4962 100.334 14.1186 100.778 13.3014 100.778Z" fill="#00FFFF"/>
<path d="M32.5814 87.1189C32.8149 87.2123 33.7722 87.5159 34.7528 87.5159C36.9243 87.5159 38.115 86.3484 38.7921 85.6713C38.7921 85.4845 38.7921 85.3678 38.6521 85.3678C38.6287 85.3678 38.582 85.3678 38.3952 85.4612C37.578 85.8114 36.6207 86.0916 35.4533 86.0916C34.7528 86.0916 33.7021 85.9982 32.5581 85.4845C32.3012 85.3678 32.2545 85.3678 32.2312 85.3678C32.1144 85.3678 32.0911 85.3911 32.0911 85.8581V92.6292C32.0911 93.0495 32.0911 93.1662 32.3246 93.1662C32.4413 93.1662 32.488 93.1195 32.6048 92.9561C33.3519 91.9054 34.3793 91.4618 35.5467 91.4618C36.3639 91.4618 38.115 91.9755 38.115 95.9681C38.115 96.7152 38.115 98.0695 37.4146 99.1435C36.8309 100.101 35.9203 100.591 34.9163 100.591C33.3753 100.591 31.8109 99.5171 31.3906 97.7192C31.484 97.7426 31.6708 97.7893 31.7642 97.7893C32.0677 97.7893 32.6515 97.6258 32.6515 96.902C32.6515 96.2716 32.2078 96.0148 31.7642 96.0148C31.2272 96.0148 30.877 96.3417 30.877 96.9954C30.877 99.0268 32.488 101.151 34.963 101.151C37.3679 101.151 39.656 99.0735 39.656 96.0615C39.656 93.2596 37.8349 91.0882 35.57 91.0882C34.3793 91.0882 33.3753 91.5318 32.5814 92.3724V87.1189Z" fill="#00FFFF"/>
<path d="M58.0964 85.8582C58.0964 85.3678 58.0731 85.3445 57.7462 85.3445C56.8356 86.4419 55.458 86.7921 54.1505 86.8388C54.0804 86.8388 53.9637 86.8388 53.9403 86.8855C53.917 86.9322 53.917 86.9789 53.917 87.4692C54.6408 87.4692 55.8549 87.3291 56.7889 86.7687V99.0735C56.7889 99.8907 56.7422 100.171 54.7342 100.171H54.0337V100.778C55.1545 100.755 56.3219 100.731 57.4426 100.731C58.5634 100.731 59.7308 100.755 60.8515 100.778V100.171H60.1511C58.1431 100.171 58.0964 99.914 58.0964 99.0735V85.8582Z" fill="#00FFFF"/>
<path d="M68.9219 67.0042H70.5329V25H62.7578V26.6111H68.9219V67.0042Z" fill="#00FFFF"/>
<path d="M68.9219 107.398H62.7578V109.009H70.5329V67.0046H68.9219V107.398Z" fill="#00FFFF"/>
<path d="M89.6631 67.0042H91.2741V26.6111H97.4382V25H89.6631V67.0042Z" fill="#00FFFF"/>
<path d="M89.6631 109.009H97.4382V107.398H91.2741V67.0046H89.6631V109.009Z" fill="#00FFFF"/>
<path d="M112.908 29.5692C112.908 29.0789 112.885 29.0555 112.558 29.0555C111.647 30.1529 110.27 30.5032 108.962 30.5499C108.892 30.5499 108.775 30.5499 108.752 30.5966C108.729 30.6432 108.729 30.6899 108.729 31.1803C109.452 31.1803 110.666 31.0402 111.6 30.4798V42.7845C111.6 43.6017 111.554 43.8819 109.546 43.8819H108.845V44.489C109.966 44.4656 111.133 44.4423 112.254 44.4423C113.375 44.4423 114.542 44.4656 115.663 44.489V43.8819H114.963C112.955 43.8819 112.908 43.6251 112.908 42.7845V29.5692Z" fill="#00FFFF"/>
<path d="M147.549 36.9941C147.549 35.5698 147.526 33.1416 146.545 31.2737C145.681 29.6393 144.304 29.0555 143.089 29.0555C141.969 29.0555 140.544 29.5692 139.657 31.2503C138.723 33.0015 138.63 35.1729 138.63 36.9941C138.63 38.325 138.653 40.3563 139.377 42.1308C140.381 44.5357 142.179 44.8626 143.089 44.8626C144.164 44.8626 145.798 44.419 146.755 42.2008C147.456 40.5898 147.549 38.6985 147.549 36.9941ZM143.089 44.489C141.595 44.489 140.708 43.2048 140.381 41.4303C140.124 40.0528 140.124 38.0448 140.124 36.7372C140.124 34.9394 140.124 33.4451 140.428 32.0208C140.871 30.0362 142.179 29.4291 143.089 29.4291C144.047 29.4291 145.284 30.0595 145.728 31.9741C146.031 33.305 146.055 34.8694 146.055 36.7372C146.055 38.2549 146.055 40.1228 145.775 41.5004C145.284 44.0454 143.907 44.489 143.089 44.489Z" fill="#00FFFF"/>
<path d="M169.516 36.9941C169.516 35.5698 169.493 33.1416 168.512 31.2737C167.648 29.6393 166.27 29.0555 165.056 29.0555C163.936 29.0555 162.511 29.5692 161.624 31.2503C160.69 33.0015 160.597 35.1729 160.597 36.9941C160.597 38.325 160.62 40.3563 161.344 42.1308C162.348 44.5357 164.146 44.8626 165.056 44.8626C166.13 44.8626 167.765 44.419 168.722 42.2008C169.422 40.5898 169.516 38.6985 169.516 36.9941ZM165.056 44.489C163.562 44.489 162.675 43.2048 162.348 41.4303C162.091 40.0528 162.091 38.0448 162.091 36.7372C162.091 34.9394 162.091 33.4451 162.395 32.0208C162.838 30.0362 164.146 29.4291 165.056 29.4291C166.014 29.4291 167.251 30.0595 167.695 31.9741C167.998 33.305 168.022 34.8694 168.022 36.7372C168.022 38.2549 168.022 40.1228 167.741 41.5004C167.251 44.0454 165.873 44.489 165.056 44.489Z" fill="#00FFFF"/>
<path d="M113.004 67.2633C113.4 67.2633 113.821 67.2633 113.821 66.7963C113.821 66.3293 113.4 66.3293 113.004 66.3293H100.372C99.975 66.3293 99.5547 66.3293 99.5547 66.7963C99.5547 67.2633 99.975 67.2633 100.372 67.2633H113.004Z" fill="#00FFFF"/>
<path d="M125.513 69.0144H125.093C124.86 70.6722 124.673 70.9524 124.58 71.0925C124.463 71.2792 122.782 71.2792 122.455 71.2792H117.972C118.812 70.3686 120.447 68.7109 122.431 66.7963C123.856 65.4421 125.513 63.8544 125.513 61.5429C125.513 58.7877 123.319 57.2 120.867 57.2C118.299 57.2 116.734 59.4648 116.734 61.5662C116.734 62.4768 117.411 62.5935 117.692 62.5935C117.925 62.5935 118.626 62.4535 118.626 61.6363C118.626 60.9124 118.019 60.7023 117.692 60.7023C117.552 60.7023 117.411 60.7257 117.318 60.7724C117.762 58.7877 119.116 57.8071 120.54 57.8071C122.572 57.8071 123.902 59.4181 123.902 61.5429C123.902 63.5742 122.712 65.3253 121.381 66.843L116.734 72.0964V72.6335H124.953L125.513 69.0144Z" fill="#00FFFF"/>
<path d="M143.954 57.7137C143.954 57.2234 143.93 57.2 143.604 57.2C142.693 58.2974 141.315 58.6476 140.008 58.6943C139.938 58.6943 139.821 58.6943 139.798 58.741C139.774 58.7877 139.774 58.8344 139.774 59.3247C140.498 59.3247 141.712 59.1846 142.646 58.6243V70.929C142.646 71.7462 142.6 72.0264 140.592 72.0264H139.891V72.6335C141.012 72.6101 142.179 72.5868 143.3 72.5868C144.421 72.5868 145.588 72.6101 146.709 72.6335V72.0264H146.009C144.001 72.0264 143.954 71.7696 143.954 70.929V57.7137Z" fill="#00FFFF"/>
<path d="M169.516 65.1386C169.516 63.7143 169.493 61.286 168.512 59.4181C167.648 57.7837 166.27 57.2 165.056 57.2C163.936 57.2 162.511 57.7137 161.624 59.3948C160.69 61.1459 160.597 63.3174 160.597 65.1386C160.597 66.4694 160.62 68.5008 161.344 70.2753C162.348 72.6802 164.146 73.007 165.056 73.007C166.13 73.007 167.765 72.5634 168.722 70.3453C169.422 68.7342 169.516 66.843 169.516 65.1386ZM165.056 72.6335C163.562 72.6335 162.675 71.3493 162.348 69.5748C162.091 68.1972 162.091 66.1892 162.091 64.8817C162.091 63.0839 162.091 61.5896 162.395 60.1653C162.838 58.1807 164.146 57.5736 165.056 57.5736C166.014 57.5736 167.251 58.204 167.695 60.1186C167.998 61.4495 168.022 63.0138 168.022 64.8817C168.022 66.3994 168.022 68.2673 167.741 69.6448C167.251 72.1898 165.873 72.6335 165.056 72.6335Z" fill="#00FFFF"/>
<path d="M116.503 93.283C116.503 91.8588 116.48 89.4305 115.499 87.5626C114.635 85.9282 113.258 85.3445 112.044 85.3445C110.923 85.3445 109.499 85.8582 108.611 87.5393C107.677 89.2904 107.584 91.4618 107.584 93.283C107.584 94.6139 107.607 96.6452 108.331 98.4197C109.335 100.825 111.133 101.152 112.044 101.152C113.118 101.152 114.752 100.708 115.709 98.4898C116.41 96.8787 116.503 94.9875 116.503 93.283ZM112.044 100.778C110.549 100.778 109.662 99.4938 109.335 97.7193C109.078 96.3417 109.078 94.3337 109.078 93.0262C109.078 91.2283 109.078 89.734 109.382 88.3098C109.825 86.3251 111.133 85.7181 112.044 85.7181C113.001 85.7181 114.238 86.3485 114.682 88.2631C114.986 89.5939 115.009 91.1583 115.009 93.0262C115.009 94.5438 115.009 96.4117 114.729 97.7893C114.238 100.334 112.861 100.778 112.044 100.778Z" fill="#00FFFF"/>
<path d="M147.549 93.283C147.549 91.8588 147.526 89.4305 146.545 87.5626C145.681 85.9282 144.304 85.3445 143.089 85.3445C141.969 85.3445 140.544 85.8582 139.657 87.5393C138.723 89.2904 138.63 91.4618 138.63 93.283C138.63 94.6139 138.653 96.6452 139.377 98.4197C140.381 100.825 142.179 101.152 143.089 101.152C144.164 101.152 145.798 100.708 146.755 98.4898C147.456 96.8787 147.549 94.9875 147.549 93.283ZM143.089 100.778C141.595 100.778 140.708 99.4938 140.381 97.7193C140.124 96.3417 140.124 94.3337 140.124 93.0262C140.124 91.2283 140.124 89.734 140.428 88.3098C140.871 86.3251 142.179 85.7181 143.089 85.7181C144.047 85.7181 145.284 86.3485 145.728 88.2631C146.031 89.5939 146.055 91.1583 146.055 93.0262C146.055 94.5438 146.055 96.4117 145.775 97.7893C145.284 100.334 143.907 100.778 143.089 100.778Z" fill="#00FFFF"/>
<path d="M165.92 85.8582C165.92 85.3678 165.896 85.3445 165.569 85.3445C164.659 86.4419 163.281 86.7921 161.974 86.8388C161.904 86.8388 161.787 86.8388 161.764 86.8855C161.74 86.9322 161.74 86.9789 161.74 87.4692C162.464 87.4692 163.678 87.3291 164.612 86.7687V99.0735C164.612 99.8907 164.565 100.171 162.557 100.171H161.857V100.778C162.978 100.755 164.145 100.731 165.266 100.731C166.387 100.731 167.554 100.755 168.675 100.778V100.171H167.974C165.966 100.171 165.92 99.914 165.92 99.0735V85.8582Z" fill="#00FFFF"/>
<path d="M176.744 67.0042H178.355V25H170.58V26.6111H176.744V67.0042Z" fill="#00FFFF"/>
<path d="M176.744 107.398H170.58V109.009H178.355V67.0046H176.744V107.398Z" fill="#00FFFF"/>
<path d="M40.1533 10.4835C40.1766 10.4135 40.2467 10.2501 40.2467 10.1567C40.2467 10.0399 40.1533 9.92318 40.0132 9.92318C39.9198 9.92318 39.8731 9.94652 39.803 10.0166C39.7563 10.0399 39.7563 10.0866 39.5462 10.5536C38.1686 13.8224 37.1646 15.2233 33.4289 15.2233H30.02C29.6931 15.2233 29.6464 15.2233 29.5063 15.2C29.2495 15.1766 29.2261 15.1299 29.2261 14.9431C29.2261 14.7797 29.2728 14.6396 29.3195 14.4295L30.9306 7.98524H33.2421C35.0633 7.98524 35.2034 8.38216 35.2034 9.08262C35.2034 9.31611 35.2034 9.52625 35.0399 10.2267C34.9932 10.3201 34.9699 10.4135 34.9699 10.4835C34.9699 10.647 35.0866 10.717 35.2267 10.717C35.4368 10.717 35.4602 10.5536 35.5536 10.2267L36.8845 4.80982C36.8845 4.69308 36.7911 4.57633 36.651 4.57633C36.4408 4.57633 36.4175 4.66973 36.3241 4.99661C35.8571 6.79446 35.3901 7.30813 33.3121 7.30813H31.094L32.5416 1.56436C32.7518 0.747157 32.7984 0.67711 33.7557 0.67711H37.0946C39.9665 0.67711 40.5502 1.44761 40.5502 3.22211C40.5502 3.24546 40.5502 3.89922 40.4568 4.66973C40.4335 4.76312 40.4101 4.90322 40.4101 4.94991C40.4101 5.1367 40.5269 5.20675 40.6669 5.20675C40.8304 5.20675 40.9238 5.11335 40.9705 4.69308L41.4608 0.607065C41.4608 0.537019 41.5075 0.303532 41.5075 0.256835C41.5075 -7.91401e-07 41.2974 0 40.8771 0H29.4829C29.0393 0 28.8058 -7.40886e-07 28.8058 0.420276C28.8058 0.67711 28.9693 0.67711 29.3662 0.67711C30.8138 0.67711 30.8138 0.840552 30.8138 1.09739C30.8138 1.21413 30.7905 1.30752 30.7204 1.56436L27.5684 14.1726C27.3582 14.9898 27.3115 15.2233 25.6771 15.2233C25.2335 15.2233 25 15.2233 25 15.6436C25 15.9004 25.1401 15.9004 25.6071 15.9004H37.3281C37.8418 15.9004 37.8651 15.8771 38.0285 15.5035L40.1533 10.4835Z" fill="#00FFFF"/>
<path d="M43.8329 13.5829C43.5573 13.5991 43.4924 13.6153 43.4924 13.7612C43.4924 13.9233 43.5735 13.9233 43.8653 13.9233H44.611C45.9889 13.9233 46.605 15.0581 46.605 16.6144C46.605 18.738 45.5026 19.3054 44.7083 19.3054C43.9301 19.3054 42.6008 18.9326 42.1307 17.8626C42.6494 17.9437 43.1196 17.6519 43.1196 17.0683C43.1196 16.5982 42.7791 16.2739 42.3252 16.2739C41.9361 16.2739 41.5146 16.5009 41.5146 17.1169C41.5146 18.5597 42.9574 19.7431 44.7569 19.7431C46.686 19.7431 48.1126 18.2679 48.1126 16.6306C48.1126 15.1392 46.913 13.9719 45.3567 13.6964C46.7671 13.2911 47.6749 12.1077 47.6749 10.8432C47.6749 9.5625 46.3456 8.62225 44.7731 8.62225C43.152 8.62225 41.9524 9.61114 41.9524 10.7946C41.9524 11.443 42.4549 11.5727 42.6981 11.5727C43.0385 11.5727 43.4276 11.3295 43.4276 10.8432C43.4276 10.3244 43.0385 10.0975 42.6819 10.0975C42.5846 10.0975 42.5522 10.0975 42.5035 10.1137C43.1196 9.01132 44.6434 9.01132 44.7245 9.01132C45.2594 9.01132 46.3132 9.25449 46.3132 10.8432C46.3132 11.1512 46.2645 12.059 45.7944 12.7561C45.3081 13.4694 44.7569 13.518 44.3192 13.5342L43.8329 13.5829Z" fill="#00FFFF"/>
<path d="M55.9196 16.6792H55.563C55.5144 16.9548 55.3847 17.8464 55.2226 18.1058C55.1091 18.2517 54.185 18.2517 53.6987 18.2517H50.6996C51.1373 17.8789 52.1262 16.8413 52.5477 16.4523C55.0118 14.1827 55.9196 13.3397 55.9196 11.7348C55.9196 9.87052 54.4444 8.62225 52.5639 8.62225C50.6834 8.62225 49.5811 10.2272 49.5811 11.6213C49.5811 12.4481 50.2943 12.4481 50.343 12.4481C50.6834 12.4481 51.1049 12.2049 51.1049 11.6862C51.1049 11.2323 50.7969 10.9242 50.343 10.9242C50.1971 10.9242 50.1647 10.9242 50.116 10.9405C50.424 9.83809 51.2994 9.09238 52.3532 9.09238C53.7311 9.09238 54.5741 10.2434 54.5741 11.7348C54.5741 13.1128 53.7798 14.3124 52.8557 15.3499L49.5811 19.0136V19.4027H55.4981L55.9196 16.6792Z" fill="#00FFFF"/>
<path d="M139.153 10.4835C139.177 10.4135 139.247 10.2501 139.247 10.1567C139.247 10.0399 139.153 9.92318 139.013 9.92318C138.92 9.92318 138.873 9.94652 138.803 10.0166C138.756 10.0399 138.756 10.0866 138.546 10.5536C137.169 13.8224 136.165 15.2233 132.429 15.2233H129.02C128.693 15.2233 128.646 15.2233 128.506 15.2C128.249 15.1766 128.226 15.1299 128.226 14.9431C128.226 14.7797 128.273 14.6396 128.319 14.4295L129.931 7.98524H132.242C134.063 7.98524 134.203 8.38216 134.203 9.08262C134.203 9.31611 134.203 9.52625 134.04 10.2267C133.993 10.3201 133.97 10.4135 133.97 10.4835C133.97 10.647 134.087 10.717 134.227 10.717C134.437 10.717 134.46 10.5536 134.554 10.2267L135.884 4.80982C135.884 4.69308 135.791 4.57633 135.651 4.57633C135.441 4.57633 135.417 4.66973 135.324 4.99661C134.857 6.79446 134.39 7.30813 132.312 7.30813H130.094L131.542 1.56436C131.752 0.747157 131.798 0.67711 132.756 0.67711H136.095C138.966 0.67711 139.55 1.44761 139.55 3.22211C139.55 3.24546 139.55 3.89922 139.457 4.66973C139.433 4.76312 139.41 4.90322 139.41 4.94991C139.41 5.1367 139.527 5.20675 139.667 5.20675C139.83 5.20675 139.924 5.11335 139.97 4.69308L140.461 0.607065C140.461 0.537019 140.507 0.303532 140.507 0.256835C140.507 -7.91401e-07 140.297 0 139.877 0H128.483C128.039 0 127.806 -7.40886e-07 127.806 0.420276C127.806 0.67711 127.969 0.67711 128.366 0.67711C129.814 0.67711 129.814 0.840552 129.814 1.09739C129.814 1.21413 129.79 1.30752 129.72 1.56436L126.568 14.1726C126.358 14.9898 126.312 15.2233 124.677 15.2233C124.233 15.2233 124 15.2233 124 15.6436C124 15.9004 124.14 15.9004 124.607 15.9004H136.328C136.842 15.9004 136.865 15.8771 137.029 15.5035L139.153 10.4835Z" fill="#00FFFF"/>
<path d="M146.982 16.6792H146.625C146.577 16.9548 146.447 17.8464 146.285 18.1058C146.172 18.2517 145.248 18.2517 144.761 18.2517H141.762C142.2 17.8789 143.189 16.8413 143.61 16.4523C146.074 14.1827 146.982 13.3397 146.982 11.7348C146.982 9.87052 145.507 8.62225 143.626 8.62225C141.746 8.62225 140.644 10.2272 140.644 11.6213C140.644 12.4481 141.357 12.4481 141.405 12.4481C141.746 12.4481 142.167 12.2049 142.167 11.6862C142.167 11.2323 141.859 10.9242 141.405 10.9242C141.26 10.9242 141.227 10.9242 141.179 10.9405C141.487 9.83809 142.362 9.09238 143.416 9.09238C144.794 9.09238 145.637 10.2434 145.637 11.7348C145.637 13.1128 144.842 14.3124 143.918 15.3499L140.644 19.0136V19.4027H146.561L146.982 16.6792Z" fill="#00FFFF"/>
<path d="M152.454 9.01132C152.454 8.63846 152.454 8.62225 152.13 8.62225C151.741 9.05996 150.93 9.65977 149.261 9.65977V10.1299C149.634 10.1299 150.444 10.1299 151.336 9.7084V18.1544C151.336 18.738 151.287 18.9326 149.861 18.9326H149.358V19.4027C149.796 19.3703 151.368 19.3703 151.903 19.3703C152.438 19.3703 153.994 19.3703 154.432 19.4027V18.9326H153.93C152.503 18.9326 152.454 18.738 152.454 18.1544V9.01132Z" fill="#00FFFF"/>
</svg>
