<svg width="307" height="110" viewBox="0 0 307 110" fill="none" xmlns="http://www.w3.org/2000/svg">
<path d="M0 67.0042H1.61106V26.6111H7.7751V25H0V67.0042Z" fill="#00FFFF"/>
<path d="M0 109.009H7.7751V107.398H1.61106V67.0046H0V109.009Z" fill="#00FFFF"/>
<path d="M14.1648 29.5692C14.1648 29.0789 14.1414 29.0555 13.8145 29.0555C12.9039 30.1529 11.5264 30.5032 10.2188 30.5499C10.1488 30.5499 10.032 30.5499 10.0087 30.5966C9.98535 30.6432 9.98535 30.6899 9.98535 31.1803C10.7092 31.1803 11.9233 31.0402 12.8572 30.4798V42.7845C12.8572 43.6017 12.8105 43.8819 10.8026 43.8819H10.1021V44.489C11.2228 44.4656 12.3903 44.4423 13.511 44.4423C14.6317 44.4423 15.7992 44.4656 16.9199 44.489V43.8819H16.2194C14.2115 43.8819 14.1648 43.6251 14.1648 42.7845V29.5692Z" fill="#00FFFF"/>
<path d="M39.7268 36.9941C39.7268 35.5698 39.7035 33.1416 38.7228 31.2737C37.8589 29.6393 36.4813 29.0555 35.2672 29.0555C34.1465 29.0555 32.7222 29.5692 31.835 31.2503C30.901 33.0015 30.8076 35.1729 30.8076 36.9941C30.8076 38.325 30.831 40.3563 31.5548 42.1308C32.5588 44.5357 34.3566 44.8626 35.2672 44.8626C36.3412 44.8626 37.9757 44.419 38.9329 42.2008C39.6334 40.5898 39.7268 38.6985 39.7268 36.9941ZM35.2672 44.489C33.7729 44.489 32.8856 43.2048 32.5588 41.4303C32.3019 40.0528 32.3019 38.0448 32.3019 36.7372C32.3019 34.9394 32.3019 33.4451 32.6055 32.0208C33.0491 30.0362 34.3566 29.4291 35.2672 29.4291C36.2245 29.4291 37.462 30.0595 37.9056 31.9741C38.2091 33.305 38.2325 34.8694 38.2325 36.7372C38.2325 38.2549 38.2325 40.1228 37.9523 41.5004C37.462 44.0454 36.0844 44.489 35.2672 44.489Z" fill="#00FFFF"/>
<path d="M61.6926 36.9941C61.6926 35.5698 61.6693 33.1416 60.6886 31.2737C59.8247 29.6393 58.4472 29.0555 57.233 29.0555C56.1123 29.0555 54.688 29.5692 53.8008 31.2503C52.8668 33.0015 52.7734 35.1729 52.7734 36.9941C52.7734 38.325 52.7968 40.3563 53.5206 42.1308C54.5246 44.5357 56.3224 44.8626 57.233 44.8626C58.3071 44.8626 59.9415 44.419 60.8988 42.2008C61.5992 40.5898 61.6926 38.6985 61.6926 36.9941ZM57.233 44.489C55.7387 44.489 54.8515 43.2048 54.5246 41.4303C54.2678 40.0528 54.2678 38.0448 54.2678 36.7372C54.2678 34.9394 54.2678 33.4451 54.5713 32.0208C55.0149 30.0362 56.3224 29.4291 57.233 29.4291C58.1903 29.4291 59.4278 30.0595 59.8714 31.9741C60.175 33.305 60.1983 34.8694 60.1983 36.7372C60.1983 38.2549 60.1983 40.1228 59.9181 41.5004C59.4278 44.0454 58.0502 44.489 57.233 44.489Z" fill="#00FFFF"/>
<path d="M17.761 65.1386C17.761 63.7143 17.7376 61.286 16.757 59.4181C15.8931 57.7837 14.5155 57.2 13.3014 57.2C12.1807 57.2 10.7564 57.7137 9.86914 59.3948C8.93519 61.1459 8.8418 63.3174 8.8418 65.1386C8.8418 66.4694 8.86514 68.5008 9.58895 70.2753C10.5929 72.6802 12.3908 73.007 13.3014 73.007C14.3754 73.007 16.0098 72.5634 16.9671 70.3453C17.6676 68.7342 17.761 66.843 17.761 65.1386ZM13.3014 72.6335C11.8071 72.6335 10.9198 71.3493 10.5929 69.5748C10.3361 68.1972 10.3361 66.1892 10.3361 64.8817C10.3361 63.0839 10.3361 61.5896 10.6396 60.1653C11.0833 58.1807 12.3908 57.5736 13.3014 57.5736C14.2587 57.5736 15.4962 58.204 15.9398 60.1186C16.2433 61.4495 16.2667 63.0138 16.2667 64.8817C16.2667 66.3994 16.2667 68.2673 15.9865 69.6448C15.4962 72.1898 14.1186 72.6335 13.3014 72.6335Z" fill="#00FFFF"/>
<path d="M36.1306 57.7137C36.1306 57.2234 36.1072 57.2 35.7804 57.2C34.8698 58.2974 33.4922 58.6476 32.1847 58.6943C32.1146 58.6943 31.9979 58.6943 31.9745 58.741C31.9512 58.7877 31.9512 58.8344 31.9512 59.3247C32.675 59.3247 33.8891 59.1846 34.8231 58.6243V70.929C34.8231 71.7462 34.7764 72.0264 32.7684 72.0264H32.0679V72.6335C33.1887 72.6101 34.3561 72.5868 35.4768 72.5868C36.5976 72.5868 37.765 72.6101 38.8857 72.6335V72.0264H38.1853C36.1773 72.0264 36.1306 71.7696 36.1306 70.929V57.7137Z" fill="#00FFFF"/>
<path d="M61.6926 65.1386C61.6926 63.7143 61.6693 61.286 60.6886 59.4181C59.8247 57.7837 58.4472 57.2 57.233 57.2C56.1123 57.2 54.688 57.7137 53.8008 59.3948C52.8668 61.1459 52.7734 63.3174 52.7734 65.1386C52.7734 66.4694 52.7968 68.5008 53.5206 70.2753C54.5246 72.6802 56.3224 73.007 57.233 73.007C58.3071 73.007 59.9415 72.5634 60.8988 70.3453C61.5992 68.7342 61.6926 66.843 61.6926 65.1386ZM57.233 72.6335C55.7387 72.6335 54.8515 71.3493 54.5246 69.5748C54.2678 68.1972 54.2678 66.1892 54.2678 64.8817C54.2678 63.0839 54.2678 61.5896 54.5713 60.1653C55.0149 58.1807 56.3224 57.5736 57.233 57.5736C58.1903 57.5736 59.4278 58.204 59.8714 60.1186C60.175 61.4495 60.1983 63.0138 60.1983 64.8817C60.1983 66.3994 60.1983 68.2673 59.9181 69.6448C59.4278 72.1898 58.0502 72.6335 57.233 72.6335Z" fill="#00FFFF"/>
<path d="M17.761 93.283C17.761 91.8588 17.7376 89.4305 16.757 87.5626C15.8931 85.9282 14.5155 85.3445 13.3014 85.3445C12.1807 85.3445 10.7564 85.8582 9.86914 87.5393C8.93519 89.2904 8.8418 91.4618 8.8418 93.283C8.8418 94.6139 8.86514 96.6452 9.58895 98.4197C10.5929 100.825 12.3908 101.152 13.3014 101.152C14.3754 101.152 16.0098 100.708 16.9671 98.4898C17.6676 96.8787 17.761 94.9875 17.761 93.283ZM13.3014 100.778C11.8071 100.778 10.9198 99.4938 10.5929 97.7193C10.3361 96.3417 10.3361 94.3337 10.3361 93.0262C10.3361 91.2283 10.3361 89.734 10.6396 88.3098C11.0833 86.3251 12.3908 85.7181 13.3014 85.7181C14.2587 85.7181 15.4962 86.3485 15.9398 88.2631C16.2433 89.5939 16.2667 91.1583 16.2667 93.0262C16.2667 94.5438 16.2667 96.4117 15.9865 97.7893C15.4962 100.334 14.1186 100.778 13.3014 100.778Z" fill="#00FFFF"/>
<path d="M32.5814 87.1189C32.8149 87.2123 33.7722 87.5159 34.7528 87.5159C36.9243 87.5159 38.115 86.3484 38.7921 85.6713C38.7921 85.4845 38.7921 85.3678 38.6521 85.3678C38.6287 85.3678 38.582 85.3678 38.3952 85.4612C37.578 85.8114 36.6207 86.0916 35.4533 86.0916C34.7528 86.0916 33.7021 85.9982 32.5581 85.4845C32.3012 85.3678 32.2545 85.3678 32.2312 85.3678C32.1144 85.3678 32.0911 85.3911 32.0911 85.8581V92.6292C32.0911 93.0495 32.0911 93.1662 32.3246 93.1662C32.4413 93.1662 32.488 93.1195 32.6048 92.9561C33.3519 91.9054 34.3793 91.4618 35.5467 91.4618C36.3639 91.4618 38.115 91.9755 38.115 95.9681C38.115 96.7152 38.115 98.0695 37.4146 99.1435C36.8309 100.101 35.9203 100.591 34.9163 100.591C33.3753 100.591 31.8109 99.5171 31.3906 97.7192C31.484 97.7426 31.6708 97.7893 31.7642 97.7893C32.0677 97.7893 32.6515 97.6258 32.6515 96.902C32.6515 96.2716 32.2078 96.0148 31.7642 96.0148C31.2272 96.0148 30.877 96.3417 30.877 96.9954C30.877 99.0268 32.488 101.151 34.963 101.151C37.3679 101.151 39.656 99.0735 39.656 96.0615C39.656 93.2596 37.8349 91.0882 35.57 91.0882C34.3793 91.0882 33.3753 91.5318 32.5814 92.3724V87.1189Z" fill="#00FFFF"/>
<path d="M58.0964 85.8582C58.0964 85.3678 58.0731 85.3445 57.7462 85.3445C56.8356 86.4419 55.458 86.7921 54.1505 86.8388C54.0804 86.8388 53.9637 86.8388 53.9403 86.8855C53.917 86.9322 53.917 86.9789 53.917 87.4692C54.6408 87.4692 55.8549 87.3291 56.7889 86.7687V99.0735C56.7889 99.8907 56.7422 100.171 54.7342 100.171H54.0337V100.778C55.1545 100.755 56.3219 100.731 57.4426 100.731C58.5634 100.731 59.7308 100.755 60.8515 100.778V100.171H60.1511C58.1431 100.171 58.0964 99.914 58.0964 99.0735V85.8582Z" fill="#00FFFF"/>
<path d="M68.9219 67.0042H70.5329V25H62.7578V26.6111H68.9219V67.0042Z" fill="#00FFFF"/>
<path d="M68.9219 107.398H62.7578V109.009H70.5329V67.0046H68.9219V107.398Z" fill="#00FFFF"/>
<path d="M90 67.0042H91.6111V26.6111H97.7751V25H90V67.0042Z" fill="#00FFFF"/>
<path d="M90 109.009H97.7751V107.398H91.6111V67.0046H90V109.009Z" fill="#00FFFF"/>
<path d="M113.245 29.5692C113.245 29.0789 113.221 29.0555 112.895 29.0555C111.984 30.1529 110.606 30.5032 109.299 30.5499C109.229 30.5499 109.112 30.5499 109.089 30.5966C109.065 30.6432 109.065 30.6899 109.065 31.1803C109.789 31.1803 111.003 31.0402 111.937 30.4798V42.7845C111.937 43.6017 111.891 43.8819 109.883 43.8819H109.182V44.489C110.303 44.4656 111.47 44.4423 112.591 44.4423C113.712 44.4423 114.879 44.4656 116 44.489V43.8819H115.3C113.292 43.8819 113.245 43.6251 113.245 42.7845V29.5692Z" fill="#00FFFF"/>
<path d="M147.886 36.9941C147.886 35.5698 147.863 33.1416 146.882 31.2737C146.018 29.6393 144.641 29.0555 143.426 29.0555C142.306 29.0555 140.881 29.5692 139.994 31.2503C139.06 33.0015 138.967 35.1729 138.967 36.9941C138.967 38.325 138.99 40.3563 139.714 42.1308C140.718 44.5357 142.516 44.8626 143.426 44.8626C144.5 44.8626 146.135 44.419 147.092 42.2008C147.793 40.5898 147.886 38.6985 147.886 36.9941ZM143.426 44.489C141.932 44.489 141.045 43.2048 140.718 41.4303C140.461 40.0528 140.461 38.0448 140.461 36.7372C140.461 34.9394 140.461 33.4451 140.765 32.0208C141.208 30.0362 142.516 29.4291 143.426 29.4291C144.384 29.4291 145.621 30.0595 146.065 31.9741C146.368 33.305 146.392 34.8694 146.392 36.7372C146.392 38.2549 146.392 40.1228 146.111 41.5004C145.621 44.0454 144.244 44.489 143.426 44.489Z" fill="#00FFFF"/>
<path d="M169.853 36.9941C169.853 35.5698 169.829 33.1416 168.849 31.2737C167.985 29.6393 166.607 29.0555 165.393 29.0555C164.272 29.0555 162.848 29.5692 161.961 31.2503C161.027 33.0015 160.934 35.1729 160.934 36.9941C160.934 38.325 160.957 40.3563 161.681 42.1308C162.685 44.5357 164.483 44.8626 165.393 44.8626C166.467 44.8626 168.102 44.419 169.059 42.2008C169.759 40.5898 169.853 38.6985 169.853 36.9941ZM165.393 44.489C163.899 44.489 163.012 43.2048 162.685 41.4303C162.428 40.0528 162.428 38.0448 162.428 36.7372C162.428 34.9394 162.428 33.4451 162.731 32.0208C163.175 30.0362 164.483 29.4291 165.393 29.4291C166.35 29.4291 167.588 30.0595 168.032 31.9741C168.335 33.305 168.358 34.8694 168.358 36.7372C168.358 38.2549 168.358 40.1228 168.078 41.5004C167.588 44.0454 166.21 44.489 165.393 44.489Z" fill="#00FFFF"/>
<path d="M113.34 67.2633C113.737 67.2633 114.158 67.2633 114.158 66.7963C114.158 66.3293 113.737 66.3293 113.34 66.3293H100.709C100.312 66.3293 99.8916 66.3293 99.8916 66.7963C99.8916 67.2633 100.312 67.2633 100.709 67.2633H113.34Z" fill="#00FFFF"/>
<path d="M125.85 69.0144H125.43C125.197 70.6722 125.01 70.9524 124.916 71.0925C124.8 71.2792 123.119 71.2792 122.792 71.2792H118.309C119.149 70.3686 120.784 68.7109 122.768 66.7963C124.193 65.4421 125.85 63.8544 125.85 61.5429C125.85 58.7877 123.656 57.2 121.204 57.2C118.636 57.2 117.071 59.4648 117.071 61.5662C117.071 62.4768 117.748 62.5935 118.029 62.5935C118.262 62.5935 118.963 62.4535 118.963 61.6363C118.963 60.9124 118.355 60.7023 118.029 60.7023C117.888 60.7023 117.748 60.7257 117.655 60.7724C118.099 58.7877 119.453 57.8071 120.877 57.8071C122.908 57.8071 124.239 59.4181 124.239 61.5429C124.239 63.5742 123.049 65.3253 121.718 66.843L117.071 72.0964V72.6335H125.29L125.85 69.0144Z" fill="#00FFFF"/>
<path d="M144.291 57.7137C144.291 57.2234 144.267 57.2 143.941 57.2C143.03 58.2974 141.652 58.6476 140.345 58.6943C140.275 58.6943 140.158 58.6943 140.135 58.741C140.111 58.7877 140.111 58.8344 140.111 59.3247C140.835 59.3247 142.049 59.1846 142.983 58.6243V70.929C142.983 71.7462 142.937 72.0264 140.929 72.0264H140.228V72.6335C141.349 72.6101 142.516 72.5868 143.637 72.5868C144.758 72.5868 145.925 72.6101 147.046 72.6335V72.0264H146.345C144.337 72.0264 144.291 71.7696 144.291 70.929V57.7137Z" fill="#00FFFF"/>
<path d="M169.853 65.1386C169.853 63.7143 169.829 61.286 168.849 59.4181C167.985 57.7837 166.607 57.2 165.393 57.2C164.272 57.2 162.848 57.7137 161.961 59.3948C161.027 61.1459 160.934 63.3174 160.934 65.1386C160.934 66.4694 160.957 68.5008 161.681 70.2753C162.685 72.6802 164.483 73.007 165.393 73.007C166.467 73.007 168.102 72.5634 169.059 70.3453C169.759 68.7342 169.853 66.843 169.853 65.1386ZM165.393 72.6335C163.899 72.6335 163.012 71.3493 162.685 69.5748C162.428 68.1972 162.428 66.1892 162.428 64.8817C162.428 63.0839 162.428 61.5896 162.731 60.1653C163.175 58.1807 164.483 57.5736 165.393 57.5736C166.35 57.5736 167.588 58.204 168.032 60.1186C168.335 61.4495 168.358 63.0138 168.358 64.8817C168.358 66.3994 168.358 68.2673 168.078 69.6448C167.588 72.1898 166.21 72.6335 165.393 72.6335Z" fill="#00FFFF"/>
<path d="M116.84 93.283C116.84 91.8588 116.817 89.4305 115.836 87.5626C114.972 85.9282 113.595 85.3445 112.38 85.3445C111.26 85.3445 109.835 85.8582 108.948 87.5393C108.014 89.2904 107.921 91.4618 107.921 93.283C107.921 94.6139 107.944 96.6452 108.668 98.4197C109.672 100.825 111.47 101.152 112.38 101.152C113.455 101.152 115.089 100.708 116.046 98.4898C116.747 96.8787 116.84 94.9875 116.84 93.283ZM112.38 100.778C110.886 100.778 109.999 99.4938 109.672 97.7193C109.415 96.3417 109.415 94.3337 109.415 93.0262C109.415 91.2283 109.415 89.734 109.719 88.3098C110.162 86.3251 111.47 85.7181 112.38 85.7181C113.338 85.7181 114.575 86.3485 115.019 88.2631C115.322 89.5939 115.346 91.1583 115.346 93.0262C115.346 94.5438 115.346 96.4117 115.066 97.7893C114.575 100.334 113.198 100.778 112.38 100.778Z" fill="#00FFFF"/>
<path d="M147.886 93.283C147.886 91.8588 147.863 89.4305 146.882 87.5626C146.018 85.9282 144.641 85.3445 143.426 85.3445C142.306 85.3445 140.881 85.8582 139.994 87.5393C139.06 89.2904 138.967 91.4618 138.967 93.283C138.967 94.6139 138.99 96.6452 139.714 98.4197C140.718 100.825 142.516 101.152 143.426 101.152C144.5 101.152 146.135 100.708 147.092 98.4898C147.793 96.8787 147.886 94.9875 147.886 93.283ZM143.426 100.778C141.932 100.778 141.045 99.4938 140.718 97.7193C140.461 96.3417 140.461 94.3337 140.461 93.0262C140.461 91.2283 140.461 89.734 140.765 88.3098C141.208 86.3251 142.516 85.7181 143.426 85.7181C144.384 85.7181 145.621 86.3485 146.065 88.2631C146.368 89.5939 146.392 91.1583 146.392 93.0262C146.392 94.5438 146.392 96.4117 146.111 97.7893C145.621 100.334 144.244 100.778 143.426 100.778Z" fill="#00FFFF"/>
<path d="M166.257 85.8582C166.257 85.3678 166.233 85.3445 165.906 85.3445C164.996 86.4419 163.618 86.7921 162.311 86.8388C162.241 86.8388 162.124 86.8388 162.1 86.8855C162.077 86.9322 162.077 86.9789 162.077 87.4692C162.801 87.4692 164.015 87.3291 164.949 86.7687V99.0735C164.949 99.8907 164.902 100.171 162.894 100.171H162.194V100.778C163.315 100.755 164.482 100.731 165.603 100.731C166.724 100.731 167.891 100.755 169.012 100.778V100.171H168.311C166.303 100.171 166.257 99.914 166.257 99.0735V85.8582Z" fill="#00FFFF"/>
<path d="M177.081 67.0042H178.692V25H170.917V26.6111H177.081V67.0042Z" fill="#00FFFF"/>
<path d="M176.744 107.398H170.58V109.009H178.355V67.0046H176.744V107.398Z" fill="#00FFFF"/>
<path d="M218 67.0042H219.611V26.6111H225.775V25H218V67.0042Z" fill="#00FFFF"/>
<path d="M218 109.009H225.775V107.398H219.611V67.0046H218V109.009Z" fill="#00FFFF"/>
<path d="M241.245 29.5692C241.245 29.0789 241.221 29.0555 240.895 29.0555C239.984 30.1529 238.606 30.5032 237.299 30.5499C237.229 30.5499 237.112 30.5499 237.089 30.5966C237.065 30.6432 237.065 30.6899 237.065 31.1803C237.789 31.1803 239.003 31.0402 239.937 30.4798V42.7845C239.937 43.6017 239.891 43.8819 237.883 43.8819H237.182V44.489C238.303 44.4656 239.47 44.4423 240.591 44.4423C241.712 44.4423 242.879 44.4656 244 44.489V43.8819H243.3C241.292 43.8819 241.245 43.6251 241.245 42.7845V29.5692Z" fill="#00FFFF"/>
<path d="M235.179 85.5137C235.179 85.0233 235.156 85 234.829 85C233.919 86.0974 232.541 86.4476 231.233 86.4943C231.163 86.4943 231.047 86.4943 231.023 86.541C231 86.5877 231 86.6344 231 87.1247C231.724 87.1247 232.938 86.9846 233.872 86.4243V98.729C233.872 99.5462 233.825 99.8264 231.817 99.8264H231.117V100.433C232.237 100.41 233.405 100.387 234.526 100.387C235.646 100.387 236.814 100.41 237.935 100.433V99.8264H237.234C235.226 99.8264 235.179 99.5696 235.179 98.729V85.5137Z" fill="#00FFFF"/>
<path d="M275.886 36.9941C275.886 35.5698 275.863 33.1416 274.882 31.2737C274.018 29.6393 272.641 29.0555 271.426 29.0555C270.306 29.0555 268.881 29.5692 267.994 31.2503C267.06 33.0015 266.967 35.1729 266.967 36.9941C266.967 38.325 266.99 40.3563 267.714 42.1308C268.718 44.5357 270.516 44.8626 271.426 44.8626C272.5 44.8626 274.135 44.419 275.092 42.2008C275.793 40.5898 275.886 38.6985 275.886 36.9941ZM271.426 44.489C269.932 44.489 269.045 43.2048 268.718 41.4303C268.461 40.0528 268.461 38.0448 268.461 36.7372C268.461 34.9394 268.461 33.4451 268.765 32.0208C269.208 30.0362 270.516 29.4291 271.426 29.4291C272.384 29.4291 273.621 30.0595 274.065 31.9741C274.368 33.305 274.392 34.8694 274.392 36.7372C274.392 38.2549 274.392 40.1228 274.111 41.5004C273.621 44.0454 272.244 44.489 271.426 44.489Z" fill="#00FFFF"/>
<path d="M297.853 36.9941C297.853 35.5698 297.829 33.1416 296.849 31.2737C295.985 29.6393 294.607 29.0555 293.393 29.0555C292.272 29.0555 290.848 29.5692 289.961 31.2503C289.027 33.0015 288.934 35.1729 288.934 36.9941C288.934 38.325 288.957 40.3563 289.681 42.1308C290.685 44.5357 292.483 44.8626 293.393 44.8626C294.467 44.8626 296.102 44.419 297.059 42.2008C297.759 40.5898 297.853 38.6985 297.853 36.9941ZM293.393 44.489C291.899 44.489 291.012 43.2048 290.685 41.4303C290.428 40.0528 290.428 38.0448 290.428 36.7372C290.428 34.9394 290.428 33.4451 290.731 32.0208C291.175 30.0362 292.483 29.4291 293.393 29.4291C294.35 29.4291 295.588 30.0595 296.032 31.9741C296.335 33.305 296.358 34.8694 296.358 36.7372C296.358 38.2549 296.358 40.1228 296.078 41.5004C295.588 44.0454 294.21 44.489 293.393 44.489Z" fill="#00FFFF"/>
<path d="M241.34 67.2633C241.737 67.2633 242.158 67.2633 242.158 66.7963C242.158 66.3293 241.737 66.3293 241.34 66.3293H228.709C228.312 66.3293 227.892 66.3293 227.892 66.7963C227.892 67.2633 228.312 67.2633 228.709 67.2633H241.34Z" fill="#00FFFF"/>
<path d="M253.85 69.0144H253.43C253.197 70.6722 253.01 70.9524 252.916 71.0925C252.8 71.2792 251.119 71.2792 250.792 71.2792H246.309C247.149 70.3686 248.784 68.7109 250.768 66.7963C252.193 65.4421 253.85 63.8544 253.85 61.5429C253.85 58.7877 251.656 57.2 249.204 57.2C246.636 57.2 245.071 59.4648 245.071 61.5662C245.071 62.4768 245.748 62.5935 246.029 62.5935C246.262 62.5935 246.963 62.4535 246.963 61.6363C246.963 60.9124 246.355 60.7023 246.029 60.7023C245.888 60.7023 245.748 60.7257 245.655 60.7724C246.099 58.7877 247.453 57.8071 248.877 57.8071C250.908 57.8071 252.239 59.4181 252.239 61.5429C252.239 63.5742 251.049 65.3253 249.718 66.843L245.071 72.0964V72.6335H253.29L253.85 69.0144Z" fill="#00FFFF"/>
<path d="M272.291 57.7137C272.291 57.2234 272.267 57.2 271.941 57.2C271.03 58.2974 269.652 58.6476 268.345 58.6943C268.275 58.6943 268.158 58.6943 268.135 58.741C268.111 58.7877 268.111 58.8344 268.111 59.3247C268.835 59.3247 270.049 59.1846 270.983 58.6243V70.929C270.983 71.7462 270.937 72.0264 268.929 72.0264H268.228V72.6335C269.349 72.6101 270.516 72.5868 271.637 72.5868C272.758 72.5868 273.925 72.6101 275.046 72.6335V72.0264H274.345C272.337 72.0264 272.291 71.7696 272.291 70.929V57.7137Z" fill="#00FFFF"/>
<path d="M297.853 65.1386C297.853 63.7143 297.829 61.286 296.849 59.4181C295.985 57.7837 294.607 57.2 293.393 57.2C292.272 57.2 290.848 57.7137 289.961 59.3948C289.027 61.1459 288.934 63.3174 288.934 65.1386C288.934 66.4694 288.957 68.5008 289.681 70.2753C290.685 72.6802 292.483 73.007 293.393 73.007C294.467 73.007 296.102 72.5634 297.059 70.3453C297.759 68.7342 297.853 66.843 297.853 65.1386ZM293.393 72.6335C291.899 72.6335 291.012 71.3493 290.685 69.5748C290.428 68.1972 290.428 66.1892 290.428 64.8817C290.428 63.0839 290.428 61.5896 290.731 60.1653C291.175 58.1807 292.483 57.5736 293.393 57.5736C294.35 57.5736 295.588 58.204 296.032 60.1186C296.335 61.4495 296.358 63.0138 296.358 64.8817C296.358 66.3994 296.358 68.2673 296.078 69.6448C295.588 72.1898 294.21 72.6335 293.393 72.6335Z" fill="#00FFFF"/>
<path d="M249.919 92.9385C249.919 91.5143 249.896 89.086 248.915 87.2181C248.051 85.5837 246.674 85 245.46 85C244.339 85 242.915 85.5137 242.027 87.1948C241.093 88.9459 241 91.1173 241 92.9385C241 94.2694 241.023 96.3007 241.747 98.0752C242.751 100.48 244.549 100.807 245.46 100.807C246.534 100.807 248.168 100.363 249.125 98.1453C249.826 96.5342 249.919 94.643 249.919 92.9385ZM245.46 100.433C243.965 100.433 243.078 99.1493 242.751 97.3748C242.494 95.9972 242.494 93.9892 242.494 92.6817C242.494 90.8839 242.494 89.3895 242.798 87.9653C243.241 85.9806 244.549 85.3736 245.46 85.3736C246.417 85.3736 247.654 86.004 248.098 87.9186C248.402 89.2495 248.425 90.8138 248.425 92.6817C248.425 94.1994 248.425 96.0673 248.145 97.4448C247.654 99.9898 246.277 100.433 245.46 100.433Z" fill="#00FFFF"/>
<path d="M294.257 85.8582C294.257 85.3678 294.233 85.3445 293.906 85.3445C292.996 86.4419 291.618 86.7921 290.311 86.8388C290.241 86.8388 290.124 86.8388 290.1 86.8855C290.077 86.9322 290.077 86.9789 290.077 87.4692C290.801 87.4692 292.015 87.3291 292.949 86.7687V99.0735C292.949 99.8907 292.902 100.171 290.894 100.171H290.194V100.778C291.315 100.755 292.482 100.731 293.603 100.731C294.724 100.731 295.891 100.755 297.012 100.778V100.171H296.311C294.303 100.171 294.257 99.914 294.257 99.0735V85.8582Z" fill="#00FFFF"/>
<path d="M305.081 67.0042H306.692V25H298.917V26.6111H305.081V67.0042Z" fill="#00FFFF"/>
<path d="M304.744 107.398H298.58V109.009H306.355V67.0046H304.744V107.398Z" fill="#00FFFF"/>
<path d="M40.1533 10.4835C40.1766 10.4135 40.2467 10.2501 40.2467 10.1567C40.2467 10.0399 40.1533 9.92318 40.0132 9.92318C39.9198 9.92318 39.8731 9.94652 39.803 10.0166C39.7563 10.0399 39.7563 10.0866 39.5462 10.5536C38.1686 13.8224 37.1646 15.2233 33.4289 15.2233H30.02C29.6931 15.2233 29.6464 15.2233 29.5063 15.2C29.2495 15.1766 29.2261 15.1299 29.2261 14.9431C29.2261 14.7797 29.2728 14.6396 29.3195 14.4295L30.9306 7.98524H33.2421C35.0633 7.98524 35.2034 8.38216 35.2034 9.08262C35.2034 9.31611 35.2034 9.52625 35.0399 10.2267C34.9932 10.3201 34.9699 10.4135 34.9699 10.4835C34.9699 10.647 35.0866 10.717 35.2267 10.717C35.4368 10.717 35.4602 10.5536 35.5536 10.2267L36.8845 4.80982C36.8845 4.69308 36.7911 4.57633 36.651 4.57633C36.4408 4.57633 36.4175 4.66973 36.3241 4.99661C35.8571 6.79446 35.3901 7.30813 33.3121 7.30813H31.094L32.5416 1.56436C32.7518 0.747157 32.7984 0.67711 33.7557 0.67711H37.0946C39.9665 0.67711 40.5502 1.44761 40.5502 3.22211C40.5502 3.24546 40.5502 3.89922 40.4568 4.66973C40.4335 4.76312 40.4101 4.90322 40.4101 4.94991C40.4101 5.1367 40.5269 5.20675 40.6669 5.20675C40.8304 5.20675 40.9238 5.11335 40.9705 4.69308L41.4608 0.607065C41.4608 0.537019 41.5075 0.303532 41.5075 0.256835C41.5075 -7.91401e-07 41.2974 0 40.8771 0H29.4829C29.0393 0 28.8058 -7.40886e-07 28.8058 0.420276C28.8058 0.67711 28.9693 0.67711 29.3662 0.67711C30.8138 0.67711 30.8138 0.840552 30.8138 1.09739C30.8138 1.21413 30.7905 1.30752 30.7204 1.56436L27.5684 14.1726C27.3582 14.9898 27.3115 15.2233 25.6771 15.2233C25.2335 15.2233 25 15.2233 25 15.6436C25 15.9004 25.1401 15.9004 25.6071 15.9004H37.3281C37.8418 15.9004 37.8651 15.8771 38.0285 15.5035L40.1533 10.4835Z" fill="#00FFFF"/>
<path d="M43.8329 13.5829C43.5573 13.5991 43.4924 13.6153 43.4924 13.7612C43.4924 13.9233 43.5735 13.9233 43.8653 13.9233H44.611C45.9889 13.9233 46.605 15.0581 46.605 16.6144C46.605 18.738 45.5026 19.3054 44.7083 19.3054C43.9301 19.3054 42.6008 18.9326 42.1307 17.8626C42.6494 17.9437 43.1196 17.6519 43.1196 17.0683C43.1196 16.5982 42.7791 16.2739 42.3252 16.2739C41.9361 16.2739 41.5146 16.5009 41.5146 17.1169C41.5146 18.5597 42.9574 19.7431 44.7569 19.7431C46.686 19.7431 48.1126 18.2679 48.1126 16.6306C48.1126 15.1392 46.913 13.9719 45.3567 13.6964C46.7671 13.2911 47.6749 12.1077 47.6749 10.8432C47.6749 9.5625 46.3456 8.62225 44.7731 8.62225C43.152 8.62225 41.9524 9.61114 41.9524 10.7946C41.9524 11.443 42.4549 11.5727 42.6981 11.5727C43.0385 11.5727 43.4276 11.3295 43.4276 10.8432C43.4276 10.3244 43.0385 10.0975 42.6819 10.0975C42.5846 10.0975 42.5522 10.0975 42.5035 10.1137C43.1196 9.01132 44.6434 9.01132 44.7245 9.01132C45.2594 9.01132 46.3132 9.25449 46.3132 10.8432C46.3132 11.1512 46.2645 12.059 45.7944 12.7561C45.3081 13.4694 44.7569 13.518 44.3192 13.5342L43.8329 13.5829Z" fill="#00FFFF"/>
<path d="M55.9196 16.6792H55.563C55.5144 16.9548 55.3847 17.8464 55.2226 18.1058C55.1091 18.2517 54.185 18.2517 53.6987 18.2517H50.6996C51.1373 17.8789 52.1262 16.8413 52.5477 16.4523C55.0118 14.1827 55.9196 13.3397 55.9196 11.7348C55.9196 9.87052 54.4444 8.62225 52.5639 8.62225C50.6834 8.62225 49.5811 10.2272 49.5811 11.6213C49.5811 12.4481 50.2943 12.4481 50.343 12.4481C50.6834 12.4481 51.1049 12.2049 51.1049 11.6862C51.1049 11.2323 50.7969 10.9242 50.343 10.9242C50.1971 10.9242 50.1647 10.9242 50.116 10.9405C50.424 9.83809 51.2994 9.09238 52.3532 9.09238C53.7311 9.09238 54.5741 10.2434 54.5741 11.7348C54.5741 13.1128 53.7798 14.3124 52.8557 15.3499L49.5811 19.0136V19.4027H55.4981L55.9196 16.6792Z" fill="#00FFFF"/>
<path d="M139.153 10.4835C139.177 10.4135 139.247 10.2501 139.247 10.1567C139.247 10.0399 139.153 9.92318 139.013 9.92318C138.92 9.92318 138.873 9.94652 138.803 10.0166C138.756 10.0399 138.756 10.0866 138.546 10.5536C137.169 13.8224 136.165 15.2233 132.429 15.2233H129.02C128.693 15.2233 128.646 15.2233 128.506 15.2C128.249 15.1766 128.226 15.1299 128.226 14.9431C128.226 14.7797 128.273 14.6396 128.319 14.4295L129.931 7.98524H132.242C134.063 7.98524 134.203 8.38216 134.203 9.08262C134.203 9.31611 134.203 9.52625 134.04 10.2267C133.993 10.3201 133.97 10.4135 133.97 10.4835C133.97 10.647 134.087 10.717 134.227 10.717C134.437 10.717 134.46 10.5536 134.554 10.2267L135.884 4.80982C135.884 4.69308 135.791 4.57633 135.651 4.57633C135.441 4.57633 135.417 4.66973 135.324 4.99661C134.857 6.79446 134.39 7.30813 132.312 7.30813H130.094L131.542 1.56436C131.752 0.747157 131.798 0.67711 132.756 0.67711H136.095C138.966 0.67711 139.55 1.44761 139.55 3.22211C139.55 3.24546 139.55 3.89922 139.457 4.66973C139.433 4.76312 139.41 4.90322 139.41 4.94991C139.41 5.1367 139.527 5.20675 139.667 5.20675C139.83 5.20675 139.924 5.11335 139.97 4.69308L140.461 0.607065C140.461 0.537019 140.507 0.303532 140.507 0.256835C140.507 -7.91401e-07 140.297 0 139.877 0H128.483C128.039 0 127.806 -7.40886e-07 127.806 0.420276C127.806 0.67711 127.969 0.67711 128.366 0.67711C129.814 0.67711 129.814 0.840552 129.814 1.09739C129.814 1.21413 129.79 1.30752 129.72 1.56436L126.568 14.1726C126.358 14.9898 126.312 15.2233 124.677 15.2233C124.233 15.2233 124 15.2233 124 15.6436C124 15.9004 124.14 15.9004 124.607 15.9004H136.328C136.842 15.9004 136.865 15.8771 137.029 15.5035L139.153 10.4835Z" fill="#00FFFF"/>
<path d="M146.982 16.6792H146.625C146.577 16.9548 146.447 17.8464 146.285 18.1058C146.172 18.2517 145.248 18.2517 144.761 18.2517H141.762C142.2 17.8789 143.189 16.8413 143.61 16.4523C146.074 14.1827 146.982 13.3397 146.982 11.7348C146.982 9.87052 145.507 8.62225 143.626 8.62225C141.746 8.62225 140.644 10.2272 140.644 11.6213C140.644 12.4481 141.357 12.4481 141.405 12.4481C141.746 12.4481 142.167 12.2049 142.167 11.6862C142.167 11.2323 141.859 10.9242 141.405 10.9242C141.26 10.9242 141.227 10.9242 141.179 10.9405C141.487 9.83809 142.362 9.09238 143.416 9.09238C144.794 9.09238 145.637 10.2434 145.637 11.7348C145.637 13.1128 144.842 14.3124 143.918 15.3499L140.644 19.0136V19.4027H146.561L146.982 16.6792Z" fill="#00FFFF"/>
<path d="M152.454 9.01132C152.454 8.63846 152.454 8.62225 152.13 8.62225C151.741 9.05996 150.93 9.65977 149.261 9.65977V10.1299C149.634 10.1299 150.444 10.1299 151.336 9.7084V18.1544C151.336 18.738 151.287 18.9326 149.861 18.9326H149.358V19.4027C149.796 19.3703 151.368 19.3703 151.903 19.3703C152.438 19.3703 153.994 19.3703 154.432 19.4027V18.9326H153.93C152.503 18.9326 152.454 18.738 152.454 18.1544V9.01132Z" fill="#00FFFF"/>
<path d="M205.939 64.8172C206.289 64.8172 206.64 64.8172 206.64 64.4203C206.64 64 206.243 64 205.846 64H192.794C192.397 64 192 64 192 64.4203C192 64.8172 192.35 64.8172 192.7 64.8172H205.939ZM205.846 68.9733C206.243 68.9733 206.64 68.9733 206.64 68.553C206.64 68.1561 206.289 68.1561 205.939 68.1561H192.7C192.35 68.1561 192 68.1561 192 68.553C192 68.9733 192.397 68.9733 192.794 68.9733H205.846Z" fill="#00FFFF"/>
<path d="M273.704 86.7511C273.938 86.8445 274.895 87.1481 275.876 87.1481C278.047 87.1481 279.238 85.9806 279.915 85.3035C279.915 85.1167 279.915 85 279.775 85C279.752 85 279.705 85 279.518 85.0934C278.701 85.4436 277.744 85.7238 276.576 85.7238C275.876 85.7238 274.825 85.6304 273.681 85.1167C273.424 85 273.378 85 273.354 85C273.237 85 273.214 85.0233 273.214 85.4903V92.2614C273.214 92.6817 273.214 92.7984 273.448 92.7984C273.564 92.7984 273.611 92.7518 273.728 92.5883C274.475 91.5376 275.502 91.094 276.67 91.094C277.487 91.094 279.238 91.6077 279.238 95.6003C279.238 96.3474 279.238 97.7017 278.538 98.7757C277.954 99.733 277.043 100.223 276.039 100.223C274.498 100.223 272.934 99.1493 272.514 97.3514C272.607 97.3748 272.794 97.4215 272.887 97.4215C273.191 97.4215 273.774 97.258 273.774 96.5342C273.774 95.9038 273.331 95.647 272.887 95.647C272.35 95.647 272 95.9739 272 96.6276C272 98.659 273.611 100.784 276.086 100.784C278.491 100.784 280.779 98.7057 280.779 95.6937C280.779 92.8918 278.958 90.7204 276.693 90.7204C275.502 90.7204 274.498 91.164 273.704 92.0046V86.7511Z" fill="#00FFFF"/>
<path d="M269.449 93.9339C269.846 93.9339 270.266 93.9339 270.266 93.467C270.266 93 269.846 93 269.449 93H256.817C256.42 93 256 93 256 93.467C256 93.9339 256.42 93.9339 256.817 93.9339H269.449Z" fill="#00FFFF"/>
</svg>
