<svg width="82" height="85" viewBox="0 0 82 85" fill="none" xmlns="http://www.w3.org/2000/svg">
<path d="M0 42.0042H1.61106V1.61106H7.7751V0H0V42.0042Z" fill="#00FFFF"/>
<path d="M0 84.0089H7.7751V82.3978H1.61106V42.0046H0V84.0089Z" fill="#00FFFF"/>
<path d="M23.2448 4.56921C23.2448 4.07889 23.2215 4.05554 22.8946 4.05554C21.984 5.15293 20.6064 5.50316 19.2989 5.54986C19.2289 5.54986 19.1121 5.54985 19.0888 5.59655C19.0654 5.64325 19.0654 5.68995 19.0654 6.18027C19.7892 6.18027 21.0034 6.04018 21.9373 5.47981V17.7845C21.9373 18.6017 21.8906 18.8819 19.8826 18.8819H19.1822V19.489C20.3029 19.4656 21.4703 19.4423 22.5911 19.4423C23.7118 19.4423 24.8792 19.4656 26 19.489V18.8819H25.2995C23.2915 18.8819 23.2448 18.6251 23.2448 17.7845V4.56921Z" fill="#00FFFF"/>
<path d="M50.886 11.9941C50.886 10.5698 50.8626 8.14155 49.882 6.27366C49.0181 4.63926 47.6405 4.05554 46.4264 4.05554C45.3057 4.05554 43.8814 4.56921 42.9941 6.25031C42.0602 8.00146 41.9668 10.1729 41.9668 11.9941C41.9668 13.325 41.9901 15.3563 42.714 17.1308C43.7179 19.5357 45.5158 19.8626 46.4264 19.8626C47.5004 19.8626 49.1348 19.419 50.0921 17.2008C50.7926 15.5898 50.886 13.6985 50.886 11.9941ZM46.4264 19.489C44.9321 19.489 44.0448 18.2048 43.7179 16.4303C43.4611 15.0528 43.4611 13.0448 43.4611 11.7372C43.4611 9.9394 43.4611 8.44509 43.7646 7.02082C44.2083 5.03618 45.5158 4.42912 46.4264 4.42912C47.3837 4.42912 48.6212 5.05953 49.0648 6.97412C49.3683 8.30499 49.3917 9.86935 49.3917 11.7372C49.3917 13.2549 49.3917 15.1228 49.1115 16.5004C48.6212 19.0454 47.2436 19.489 46.4264 19.489Z" fill="#00FFFF"/>
<path d="M72.8528 11.9941C72.8528 10.5698 72.8294 8.14155 71.8488 6.27366C70.9849 4.63926 69.6073 4.05554 68.3932 4.05554C67.2724 4.05554 65.8482 4.56921 64.9609 6.25031C64.027 8.00146 63.9336 10.1729 63.9336 11.9941C63.9336 13.325 63.9569 15.3563 64.6807 17.1308C65.6847 19.5357 67.4826 19.8626 68.3932 19.8626C69.4672 19.8626 71.1016 19.419 72.0589 17.2008C72.7594 15.5898 72.8528 13.6985 72.8528 11.9941ZM68.3932 19.489C66.8989 19.489 66.0116 18.2048 65.6847 16.4303C65.4279 15.0528 65.4279 13.0448 65.4279 11.7372C65.4279 9.9394 65.4279 8.44509 65.7314 7.02082C66.1751 5.03618 67.4826 4.42912 68.3932 4.42912C69.3505 4.42912 70.588 5.05953 71.0316 6.97412C71.3351 8.30499 71.3585 9.86935 71.3585 11.7372C71.3585 13.2549 71.3585 15.1228 71.0783 16.5004C70.588 19.0454 69.2104 19.489 68.3932 19.489Z" fill="#00FFFF"/>
<path d="M26.7791 44.8144H26.3588C26.1253 46.4722 25.9385 46.7524 25.8451 46.8924C25.7284 47.0792 24.0473 47.0792 23.7204 47.0792H19.2375C20.078 46.1686 21.7124 44.5109 23.6971 42.5963C25.1213 41.2421 26.7791 39.6544 26.7791 37.3428C26.7791 34.5877 24.5843 33 22.1327 33C19.5644 33 18 35.2648 18 37.3662C18 38.2768 18.6771 38.3935 18.9573 38.3935C19.1908 38.3935 19.8912 38.2534 19.8912 37.4362C19.8912 36.7124 19.2842 36.5023 18.9573 36.5023C18.8172 36.5023 18.6771 36.5256 18.5837 36.5723C19.0273 34.5877 20.3816 33.6071 21.8058 33.6071C23.8372 33.6071 25.168 35.2181 25.168 37.3428C25.168 39.3742 23.9773 41.1253 22.6464 42.643L18 47.8964V48.4335H26.2187L26.7791 44.8144Z" fill="#00FFFF"/>
<path d="M47.2907 32.7137C47.2907 32.2234 47.2674 32.2 46.9405 32.2C46.0299 33.2974 44.6523 33.6476 43.3448 33.6943C43.2748 33.6943 43.158 33.6943 43.1347 33.741C43.1113 33.7877 43.1113 33.8344 43.1113 34.3247C43.8351 34.3247 45.0493 34.1846 45.9832 33.6243V45.929C45.9832 46.7462 45.9365 47.0264 43.9285 47.0264H43.2281V47.6335C44.3488 47.6101 45.5162 47.5868 46.637 47.5868C47.7577 47.5868 48.9251 47.6101 50.0459 47.6335V47.0264H49.3454C47.3374 47.0264 47.2907 46.7696 47.2907 45.929V32.7137Z" fill="#00FFFF"/>
<path d="M72.8528 40.1386C72.8528 38.7143 72.8294 36.286 71.8488 34.4181C70.9849 32.7837 69.6073 32.2 68.3932 32.2C67.2724 32.2 65.8482 32.7137 64.9609 34.3948C64.027 36.1459 63.9336 38.3174 63.9336 40.1386C63.9336 41.4694 63.9569 43.5008 64.6807 45.2753C65.6847 47.6802 67.4826 48.007 68.3932 48.007C69.4672 48.007 71.1016 47.5634 72.0589 45.3453C72.7594 43.7342 72.8528 41.843 72.8528 40.1386ZM68.3932 47.6335C66.8989 47.6335 66.0116 46.3493 65.6847 44.5748C65.4279 43.1972 65.4279 41.1892 65.4279 39.8817C65.4279 38.0839 65.4279 36.5896 65.7314 35.1653C66.1751 33.1807 67.4826 32.5736 68.3932 32.5736C69.3505 32.5736 70.588 33.204 71.0316 35.1186C71.3351 36.4495 71.3585 38.0138 71.3585 39.8817C71.3585 41.3994 71.3585 43.2673 71.0783 44.6448C70.588 47.1898 69.2104 47.6335 68.3932 47.6335Z" fill="#00FFFF"/>
<path d="M26.8401 68.283C26.8401 66.8588 26.8167 64.4305 25.8361 62.5626C24.9722 60.9282 23.5946 60.3445 22.3805 60.3445C21.2598 60.3445 19.8355 60.8582 18.9482 62.5393C18.0143 64.2904 17.9209 66.4618 17.9209 68.283C17.9209 69.6139 17.9442 71.6452 18.6681 73.4197C19.672 75.8246 21.4699 76.1515 22.3805 76.1515C23.4545 76.1515 25.0889 75.7079 26.0462 73.4898C26.7467 71.8787 26.8401 69.9875 26.8401 68.283ZM22.3805 75.7779C20.8862 75.7779 19.9989 74.4938 19.672 72.7193C19.4152 71.3417 19.4152 69.3337 19.4152 68.0262C19.4152 66.2283 19.4152 64.734 19.7187 63.3098C20.1624 61.3251 21.4699 60.7181 22.3805 60.7181C23.3378 60.7181 24.5753 61.3485 25.0189 63.2631C25.3224 64.5939 25.3458 66.1583 25.3458 68.0262C25.3458 69.5438 25.3458 71.4117 25.0656 72.7893C24.5753 75.3343 23.1977 75.7779 22.3805 75.7779Z" fill="#00FFFF"/>
<path d="M50.886 68.283C50.886 66.8588 50.8626 64.4305 49.882 62.5626C49.0181 60.9282 47.6405 60.3445 46.4264 60.3445C45.3057 60.3445 43.8814 60.8582 42.9941 62.5393C42.0602 64.2904 41.9668 66.4618 41.9668 68.283C41.9668 69.6139 41.9901 71.6452 42.714 73.4197C43.7179 75.8246 45.5158 76.1515 46.4264 76.1515C47.5004 76.1515 49.1348 75.7079 50.0921 73.4898C50.7926 71.8787 50.886 69.9875 50.886 68.283ZM46.4264 75.7779C44.9321 75.7779 44.0448 74.4938 43.7179 72.7193C43.4611 71.3417 43.4611 69.3337 43.4611 68.0262C43.4611 66.2283 43.4611 64.734 43.7646 63.3098C44.2083 61.3251 45.5158 60.7181 46.4264 60.7181C47.3837 60.7181 48.6212 61.3485 49.0648 63.2631C49.3683 64.5939 49.3917 66.1583 49.3917 68.0262C49.3917 69.5438 49.3917 71.4117 49.1115 72.7893C48.6212 75.3343 47.2436 75.7779 46.4264 75.7779Z" fill="#00FFFF"/>
<path d="M69.2566 60.8582C69.2566 60.3678 69.2332 60.3445 68.9063 60.3445C67.9957 61.4419 66.6182 61.7921 65.3106 61.8388C65.2406 61.8388 65.1238 61.8388 65.1005 61.8855C65.0771 61.9322 65.0771 61.9789 65.0771 62.4692C65.801 62.4692 67.0151 62.3291 67.949 61.7687V74.0735C67.949 74.8907 67.9023 75.1709 65.8944 75.1709H65.1939V75.7779C66.3146 75.7546 67.4821 75.7312 68.6028 75.7312C69.7235 75.7312 70.891 75.7546 72.0117 75.7779V75.1709H71.3112C69.3033 75.1709 69.2566 74.914 69.2566 74.0735V60.8582Z" fill="#00FFFF"/>
<path d="M80.081 42.0042H81.6921V0H73.917V1.61106H80.081V42.0042Z" fill="#00FFFF"/>
<path d="M80.164 82.3932H74V84.0042H81.7751V42H80.164V82.3932Z" fill="#00FFFF"/>
</svg>
