<svg width="58" height="17" viewBox="0 0 58 17" fill="none" xmlns="http://www.w3.org/2000/svg">
<g clip-path="url(#clip0)">
<path d="M4.35803 14.0792C3.54083 15.4568 2.74698 15.9238 1.62624 15.9938C1.36941 16.0172 1.18262 16.0172 1.18262 16.4374C1.18262 16.5775 1.29936 16.6709 1.4628 16.6709C1.88308 16.6709 2.93377 16.6242 3.35404 16.6242C4.03115 16.6242 4.77831 16.6709 5.43207 16.6709C5.57216 16.6709 5.85235 16.6709 5.85235 16.2273C5.85235 16.0172 5.66556 15.9938 5.52547 15.9938C4.98845 15.9471 4.54482 15.7603 4.54482 15.2C4.54482 14.8731 4.68491 14.6163 4.98845 14.1026L6.76294 11.1607H12.7168C12.7402 11.3708 12.7402 11.5576 12.7635 11.7677C12.8336 12.3748 13.1138 14.803 13.1138 15.2467C13.1138 15.9471 11.923 15.9938 11.5494 15.9938C11.2926 15.9938 11.0357 15.9938 11.0357 16.4141C11.0357 16.6709 11.2459 16.6709 11.386 16.6709C11.7829 16.6709 12.2499 16.6242 12.6468 16.6242H13.9777C15.4019 16.6242 16.4293 16.6709 16.4526 16.6709C16.6161 16.6709 16.8729 16.6709 16.8729 16.2273C16.8729 15.9938 16.6628 15.9938 16.3125 15.9938C15.0284 15.9938 15.005 15.7837 14.935 15.0832L13.5107 0.51367C13.464 0.0466979 13.3706 0 13.1138 0C12.8803 0 12.7402 0.0466973 12.5301 0.396927L4.35803 14.0792ZM7.15987 10.4835L11.8529 2.6384L12.6468 10.4835H7.15987Z" fill="#00FFFF"/>
<path d="M26.0723 2.31146C26.2825 1.44756 26.3759 1.40087 27.2865 1.40087H30.3218C32.9602 1.40087 32.9602 3.64234 32.9602 3.85247C32.9602 5.74371 31.0689 8.14863 27.9869 8.14863H24.6247L26.0723 2.31146ZM30.0183 8.33541C32.5633 7.86844 34.8748 6.09394 34.8748 3.94587C34.8748 2.12467 33.2637 0.723755 30.6253 0.723755H23.1304C22.6868 0.723755 22.4766 0.723755 22.4766 1.16738C22.4766 1.40087 22.6868 1.40087 23.037 1.40087C24.4613 1.40087 24.4613 1.58765 24.4613 1.84449C24.4613 1.89119 24.4613 2.03128 24.3679 2.38151L21.2158 14.9431C21.0057 15.7603 20.959 15.9938 19.3246 15.9938C18.8809 15.9938 18.6475 15.9938 18.6475 16.414C18.6475 16.6709 18.7876 16.6709 19.2545 16.6709H27.2631C30.8355 16.6709 33.5906 13.9624 33.5906 11.6042C33.5906 9.68964 31.9095 8.5222 30.0183 8.33541ZM26.7027 15.9938H23.5507C23.2238 15.9938 23.1771 15.9938 23.037 15.9704C22.7802 15.9471 22.7568 15.9004 22.7568 15.7136C22.7568 15.5501 22.8035 15.4101 22.8502 15.1999L24.4846 8.6156H28.8742C31.6293 8.6156 31.6293 11.1839 31.6293 11.3707C31.6293 13.6122 29.598 15.9938 26.7027 15.9938Z" fill="#00FFFF"/>
</g>
<line x1="35.3887" y1="16.5" x2="57.3887" y2="16.5" stroke="#00FFFF"/>
<defs>
<clipPath id="clip0">
<rect width="34.4865" height="16.6709" fill="white" transform="translate(0.388672)"/>
</clipPath>
</defs>
</svg>
