<svg width="168" height="85" viewBox="0 0 168 85" fill="none" xmlns="http://www.w3.org/2000/svg">
<path d="M0 42.0042H1.61106V1.61106H7.7751V0H0V42.0042Z" fill="#00FFFF"/>
<path d="M0 84.0089H7.7751V82.3978H1.61106V42.0046H0V84.0089Z" fill="#00FFFF"/>
<path d="M23.2448 4.56921C23.2448 4.07889 23.2215 4.05554 22.8946 4.05554C21.984 5.15293 20.6064 5.50316 19.2989 5.54986C19.2289 5.54986 19.1121 5.54985 19.0888 5.59655C19.0654 5.64325 19.0654 5.68995 19.0654 6.18027C19.7892 6.18027 21.0034 6.04018 21.9373 5.47981V17.7845C21.9373 18.6017 21.8906 18.8819 19.8826 18.8819H19.1822V19.489C20.3029 19.4656 21.4703 19.4423 22.5911 19.4423C23.7118 19.4423 24.8792 19.4656 26 19.489V18.8819H25.2995C23.2915 18.8819 23.2448 18.6251 23.2448 17.7845V4.56921Z" fill="#00FFFF"/>
<path d="M50.886 11.9941C50.886 10.5698 50.8626 8.14155 49.882 6.27366C49.0181 4.63926 47.6405 4.05554 46.4264 4.05554C45.3057 4.05554 43.8814 4.56921 42.9941 6.25031C42.0602 8.00146 41.9668 10.1729 41.9668 11.9941C41.9668 13.325 41.9901 15.3563 42.714 17.1308C43.7179 19.5357 45.5158 19.8626 46.4264 19.8626C47.5004 19.8626 49.1348 19.419 50.0921 17.2008C50.7926 15.5898 50.886 13.6985 50.886 11.9941ZM46.4264 19.489C44.9321 19.489 44.0448 18.2048 43.7179 16.4303C43.4611 15.0528 43.4611 13.0448 43.4611 11.7372C43.4611 9.9394 43.4611 8.44509 43.7646 7.02082C44.2083 5.03618 45.5158 4.42912 46.4264 4.42912C47.3837 4.42912 48.6212 5.05953 49.0648 6.97412C49.3683 8.30499 49.3917 9.86935 49.3917 11.7372C49.3917 13.2549 49.3917 15.1228 49.1115 16.5004C48.6212 19.0454 47.2436 19.489 46.4264 19.489Z" fill="#00FFFF"/>
<path d="M72.8528 11.9941C72.8528 10.5698 72.8294 8.14155 71.8488 6.27366C70.9849 4.63926 69.6073 4.05554 68.3932 4.05554C67.2724 4.05554 65.8482 4.56921 64.9609 6.25031C64.027 8.00146 63.9336 10.1729 63.9336 11.9941C63.9336 13.325 63.9569 15.3563 64.6807 17.1308C65.6847 19.5357 67.4826 19.8626 68.3932 19.8626C69.4672 19.8626 71.1016 19.419 72.0589 17.2008C72.7594 15.5898 72.8528 13.6985 72.8528 11.9941ZM68.3932 19.489C66.8989 19.489 66.0116 18.2048 65.6847 16.4303C65.4279 15.0528 65.4279 13.0448 65.4279 11.7372C65.4279 9.9394 65.4279 8.44509 65.7314 7.02082C66.1751 5.03618 67.4826 4.42912 68.3932 4.42912C69.3505 4.42912 70.588 5.05953 71.0316 6.97412C71.3351 8.30499 71.3585 9.86935 71.3585 11.7372C71.3585 13.2549 71.3585 15.1228 71.0783 16.5004C70.588 19.0454 69.2104 19.489 68.3932 19.489Z" fill="#00FFFF"/>
<path d="M26.7791 44.8144H26.3588C26.1253 46.4722 25.9385 46.7524 25.8451 46.8924C25.7284 47.0792 24.0473 47.0792 23.7204 47.0792H19.2375C20.078 46.1686 21.7124 44.5109 23.6971 42.5963C25.1213 41.2421 26.7791 39.6544 26.7791 37.3428C26.7791 34.5877 24.5843 33 22.1327 33C19.5644 33 18 35.2648 18 37.3662C18 38.2768 18.6771 38.3935 18.9573 38.3935C19.1908 38.3935 19.8912 38.2534 19.8912 37.4362C19.8912 36.7124 19.2842 36.5023 18.9573 36.5023C18.8172 36.5023 18.6771 36.5256 18.5837 36.5723C19.0273 34.5877 20.3816 33.6071 21.8058 33.6071C23.8372 33.6071 25.168 35.2181 25.168 37.3428C25.168 39.3742 23.9773 41.1253 22.6464 42.643L18 47.8964V48.4335H26.2187L26.7791 44.8144Z" fill="#00FFFF"/>
<path d="M47.2907 32.7137C47.2907 32.2234 47.2674 32.2 46.9405 32.2C46.0299 33.2974 44.6523 33.6476 43.3448 33.6943C43.2748 33.6943 43.158 33.6943 43.1347 33.741C43.1113 33.7877 43.1113 33.8344 43.1113 34.3247C43.8351 34.3247 45.0493 34.1846 45.9832 33.6243V45.929C45.9832 46.7462 45.9365 47.0264 43.9285 47.0264H43.2281V47.6335C44.3488 47.6101 45.5162 47.5868 46.637 47.5868C47.7577 47.5868 48.9251 47.6101 50.0459 47.6335V47.0264H49.3454C47.3374 47.0264 47.2907 46.7696 47.2907 45.929V32.7137Z" fill="#00FFFF"/>
<path d="M72.8528 40.1386C72.8528 38.7143 72.8294 36.286 71.8488 34.4181C70.9849 32.7837 69.6073 32.2 68.3932 32.2C67.2724 32.2 65.8482 32.7137 64.9609 34.3948C64.027 36.1459 63.9336 38.3174 63.9336 40.1386C63.9336 41.4694 63.9569 43.5008 64.6807 45.2753C65.6847 47.6802 67.4826 48.007 68.3932 48.007C69.4672 48.007 71.1016 47.5634 72.0589 45.3453C72.7594 43.7342 72.8528 41.843 72.8528 40.1386ZM68.3932 47.6335C66.8989 47.6335 66.0116 46.3493 65.6847 44.5748C65.4279 43.1972 65.4279 41.1892 65.4279 39.8817C65.4279 38.0839 65.4279 36.5896 65.7314 35.1653C66.1751 33.1807 67.4826 32.5736 68.3932 32.5736C69.3505 32.5736 70.588 33.204 71.0316 35.1186C71.3351 36.4495 71.3585 38.0138 71.3585 39.8817C71.3585 41.3994 71.3585 43.2673 71.0783 44.6448C70.588 47.1898 69.2104 47.6335 68.3932 47.6335Z" fill="#00FFFF"/>
<path d="M26.8401 68.283C26.8401 66.8588 26.8167 64.4305 25.8361 62.5626C24.9722 60.9282 23.5946 60.3445 22.3805 60.3445C21.2598 60.3445 19.8355 60.8582 18.9482 62.5393C18.0143 64.2904 17.9209 66.4618 17.9209 68.283C17.9209 69.6139 17.9442 71.6452 18.6681 73.4197C19.672 75.8246 21.4699 76.1515 22.3805 76.1515C23.4545 76.1515 25.0889 75.7079 26.0462 73.4898C26.7467 71.8787 26.8401 69.9875 26.8401 68.283ZM22.3805 75.7779C20.8862 75.7779 19.9989 74.4938 19.672 72.7193C19.4152 71.3417 19.4152 69.3337 19.4152 68.0262C19.4152 66.2283 19.4152 64.734 19.7187 63.3098C20.1624 61.3251 21.4699 60.7181 22.3805 60.7181C23.3378 60.7181 24.5753 61.3485 25.0189 63.2631C25.3224 64.5939 25.3458 66.1583 25.3458 68.0262C25.3458 69.5438 25.3458 71.4117 25.0656 72.7893C24.5753 75.3343 23.1977 75.7779 22.3805 75.7779Z" fill="#00FFFF"/>
<path d="M50.886 68.283C50.886 66.8588 50.8626 64.4305 49.882 62.5626C49.0181 60.9282 47.6405 60.3445 46.4264 60.3445C45.3057 60.3445 43.8814 60.8582 42.9941 62.5393C42.0602 64.2904 41.9668 66.4618 41.9668 68.283C41.9668 69.6139 41.9901 71.6452 42.714 73.4197C43.7179 75.8246 45.5158 76.1515 46.4264 76.1515C47.5004 76.1515 49.1348 75.7079 50.0921 73.4898C50.7926 71.8787 50.886 69.9875 50.886 68.283ZM46.4264 75.7779C44.9321 75.7779 44.0448 74.4938 43.7179 72.7193C43.4611 71.3417 43.4611 69.3337 43.4611 68.0262C43.4611 66.2283 43.4611 64.734 43.7646 63.3098C44.2083 61.3251 45.5158 60.7181 46.4264 60.7181C47.3837 60.7181 48.6212 61.3485 49.0648 63.2631C49.3683 64.5939 49.3917 66.1583 49.3917 68.0262C49.3917 69.5438 49.3917 71.4117 49.1115 72.7893C48.6212 75.3343 47.2436 75.7779 46.4264 75.7779Z" fill="#00FFFF"/>
<path d="M69.2566 60.8582C69.2566 60.3678 69.2332 60.3445 68.9063 60.3445C67.9957 61.4419 66.6182 61.7921 65.3106 61.8388C65.2406 61.8388 65.1238 61.8388 65.1005 61.8855C65.0771 61.9322 65.0771 61.9789 65.0771 62.4692C65.801 62.4692 67.0151 62.3291 67.949 61.7687V74.0735C67.949 74.8907 67.9023 75.1709 65.8944 75.1709H65.1939V75.7779C66.3146 75.7546 67.4821 75.7312 68.6028 75.7312C69.7235 75.7312 70.891 75.7546 72.0117 75.7779V75.1709H71.3112C69.3033 75.1709 69.2566 74.914 69.2566 74.0735V60.8582Z" fill="#00FFFF"/>
<path d="M80.081 42.0042H81.6921V0H73.917V1.61106H80.081V42.0042Z" fill="#00FFFF"/>
<path d="M80.164 82.3932H74V84.0042H81.7751V42H80.164V82.3932Z" fill="#00FFFF"/>
<path d="M97 42.0042H98.6111V1.61106H104.775V0H97V42.0042Z" fill="#00FFFF"/>
<path d="M97 84.0089H104.775V82.3978H98.6111V42.0046H97V84.0089Z" fill="#00FFFF"/>
<path d="M111.165 4.56921C111.165 4.07889 111.141 4.05554 110.815 4.05554C109.904 5.15293 108.526 5.50316 107.219 5.54986C107.149 5.54986 107.032 5.54985 107.009 5.59655C106.985 5.64325 106.985 5.68995 106.985 6.18027C107.709 6.18027 108.923 6.04018 109.857 5.47981V17.7845C109.857 18.6017 109.811 18.8819 107.803 18.8819H107.102V19.489C108.223 19.4656 109.39 19.4423 110.511 19.4423C111.632 19.4423 112.799 19.4656 113.92 19.489V18.8819H113.219C111.211 18.8819 111.165 18.6251 111.165 17.7845V4.56921Z" fill="#00FFFF"/>
<path d="M136.727 11.9941C136.727 10.5698 136.703 8.14155 135.723 6.27366C134.859 4.63926 133.481 4.05554 132.267 4.05554C131.146 4.05554 129.722 4.56921 128.835 6.25031C127.901 8.00146 127.808 10.1729 127.808 11.9941C127.808 13.325 127.831 15.3563 128.555 17.1308C129.559 19.5357 131.357 19.8626 132.267 19.8626C133.341 19.8626 134.976 19.419 135.933 17.2008C136.633 15.5898 136.727 13.6985 136.727 11.9941ZM132.267 19.489C130.773 19.489 129.886 18.2048 129.559 16.4303C129.302 15.0528 129.302 13.0448 129.302 11.7372C129.302 9.9394 129.302 8.44509 129.605 7.02082C130.049 5.03618 131.357 4.42912 132.267 4.42912C133.225 4.42912 134.462 5.05953 134.906 6.97412C135.209 8.30499 135.232 9.86935 135.232 11.7372C135.232 13.2549 135.232 15.1228 134.952 16.5004C134.462 19.0454 133.084 19.489 132.267 19.489Z" fill="#00FFFF"/>
<path d="M158.693 11.9941C158.693 10.5698 158.669 8.14155 157.689 6.27366C156.825 4.63926 155.447 4.05554 154.233 4.05554C153.112 4.05554 151.688 4.56921 150.801 6.25031C149.867 8.00146 149.773 10.1729 149.773 11.9941C149.773 13.325 149.797 15.3563 150.521 17.1308C151.525 19.5357 153.322 19.8626 154.233 19.8626C155.307 19.8626 156.941 19.419 157.899 17.2008C158.599 15.5898 158.693 13.6985 158.693 11.9941ZM154.233 19.489C152.739 19.489 151.851 18.2048 151.525 16.4303C151.268 15.0528 151.268 13.0448 151.268 11.7372C151.268 9.9394 151.268 8.44509 151.571 7.02082C152.015 5.03618 153.322 4.42912 154.233 4.42912C155.19 4.42912 156.428 5.05953 156.871 6.97412C157.175 8.30499 157.198 9.86935 157.198 11.7372C157.198 13.2549 157.198 15.1228 156.918 16.5004C156.428 19.0454 155.05 19.489 154.233 19.489Z" fill="#00FFFF"/>
<path d="M114.761 40.1386C114.761 38.7143 114.738 36.286 113.757 34.4181C112.893 32.7837 111.516 32.2 110.301 32.2C109.181 32.2 107.756 32.7137 106.869 34.3948C105.935 36.1459 105.842 38.3174 105.842 40.1386C105.842 41.4694 105.865 43.5008 106.589 45.2753C107.593 47.6802 109.391 48.007 110.301 48.007C111.375 48.007 113.01 47.5634 113.967 45.3453C114.668 43.7342 114.761 41.843 114.761 40.1386ZM110.301 47.6335C108.807 47.6335 107.92 46.3493 107.593 44.5748C107.336 43.1972 107.336 41.1892 107.336 39.8817C107.336 38.0839 107.336 36.5896 107.64 35.1653C108.083 33.1807 109.391 32.5736 110.301 32.5736C111.259 32.5736 112.496 33.204 112.94 35.1186C113.243 36.4495 113.267 38.0138 113.267 39.8817C113.267 41.3994 113.267 43.2673 112.986 44.6448C112.496 47.1898 111.119 47.6335 110.301 47.6335Z" fill="#00FFFF"/>
<path d="M133.131 32.7137C133.131 32.2234 133.107 32.2 132.78 32.2C131.87 33.2974 130.492 33.6476 129.185 33.6943C129.115 33.6943 128.998 33.6943 128.975 33.741C128.951 33.7877 128.951 33.8344 128.951 34.3247C129.675 34.3247 130.889 34.1846 131.823 33.6243V45.929C131.823 46.7462 131.776 47.0264 129.768 47.0264H129.068V47.6335C130.189 47.6101 131.356 47.5868 132.477 47.5868C133.598 47.5868 134.765 47.6101 135.886 47.6335V47.0264H135.185C133.177 47.0264 133.131 46.7696 133.131 45.929V32.7137Z" fill="#00FFFF"/>
<path d="M158.693 40.1386C158.693 38.7143 158.669 36.286 157.689 34.4181C156.825 32.7837 155.447 32.2 154.233 32.2C153.112 32.2 151.688 32.7137 150.801 34.3948C149.867 36.1459 149.773 38.3174 149.773 40.1386C149.773 41.4694 149.797 43.5008 150.521 45.2753C151.525 47.6802 153.322 48.007 154.233 48.007C155.307 48.007 156.941 47.5634 157.899 45.3453C158.599 43.7342 158.693 41.843 158.693 40.1386ZM154.233 47.6335C152.739 47.6335 151.851 46.3493 151.525 44.5748C151.268 43.1972 151.268 41.1892 151.268 39.8817C151.268 38.0839 151.268 36.5896 151.571 35.1653C152.015 33.1807 153.322 32.5736 154.233 32.5736C155.19 32.5736 156.428 33.204 156.871 35.1186C157.175 36.4495 157.198 38.0138 157.198 39.8817C157.198 41.3994 157.198 43.2673 156.918 44.6448C156.428 47.1898 155.05 47.6335 154.233 47.6335Z" fill="#00FFFF"/>
<path d="M114.761 68.283C114.761 66.8588 114.738 64.4305 113.757 62.5626C112.893 60.9282 111.516 60.3445 110.301 60.3445C109.181 60.3445 107.756 60.8582 106.869 62.5393C105.935 64.2904 105.842 66.4618 105.842 68.283C105.842 69.6139 105.865 71.6452 106.589 73.4197C107.593 75.8246 109.391 76.1515 110.301 76.1515C111.375 76.1515 113.01 75.7079 113.967 73.4898C114.668 71.8787 114.761 69.9875 114.761 68.283ZM110.301 75.7779C108.807 75.7779 107.92 74.4938 107.593 72.7193C107.336 71.3417 107.336 69.3337 107.336 68.0262C107.336 66.2283 107.336 64.734 107.64 63.3098C108.083 61.3251 109.391 60.7181 110.301 60.7181C111.259 60.7181 112.496 61.3485 112.94 63.2631C113.243 64.5939 113.267 66.1583 113.267 68.0262C113.267 69.5438 113.267 71.4117 112.986 72.7893C112.496 75.3343 111.119 75.7779 110.301 75.7779Z" fill="#00FFFF"/>
<path d="M129.581 62.119C129.815 62.2124 130.772 62.5159 131.753 62.5159C133.924 62.5159 135.115 61.3485 135.792 60.6714C135.792 60.4846 135.792 60.3678 135.652 60.3678C135.629 60.3678 135.582 60.3678 135.395 60.4612C134.578 60.8115 133.621 61.0916 132.453 61.0916C131.753 61.0916 130.702 60.9982 129.558 60.4846C129.301 60.3678 129.255 60.3678 129.231 60.3678C129.114 60.3678 129.091 60.3912 129.091 60.8582V67.6293C129.091 68.0495 129.091 68.1663 129.325 68.1663C129.441 68.1663 129.488 68.1196 129.605 67.9561C130.352 66.9055 131.379 66.4618 132.547 66.4618C133.364 66.4618 135.115 66.9755 135.115 70.9681C135.115 71.7153 135.115 73.0695 134.415 74.1435C133.831 75.1008 132.92 75.5911 131.916 75.5911C130.375 75.5911 128.811 74.5171 128.391 72.7193C128.484 72.7426 128.671 72.7893 128.764 72.7893C129.068 72.7893 129.651 72.6259 129.651 71.9021C129.651 71.2716 129.208 71.0148 128.764 71.0148C128.227 71.0148 127.877 71.3417 127.877 71.9955C127.877 74.0268 129.488 76.1515 131.963 76.1515C134.368 76.1515 136.656 74.0735 136.656 71.0615C136.656 68.2597 134.835 66.0882 132.57 66.0882C131.379 66.0882 130.375 66.5319 129.581 67.3724V62.119Z" fill="#00FFFF"/>
<path d="M155.096 60.8582C155.096 60.3678 155.073 60.3445 154.746 60.3445C153.836 61.4419 152.458 61.7921 151.15 61.8388C151.08 61.8388 150.964 61.8388 150.94 61.8855C150.917 61.9322 150.917 61.9789 150.917 62.4692C151.641 62.4692 152.855 62.3291 153.789 61.7687V74.0735C153.789 74.8907 153.742 75.1709 151.734 75.1709H151.034V75.7779C152.154 75.7546 153.322 75.7312 154.443 75.7312C155.563 75.7312 156.731 75.7546 157.852 75.7779V75.1709H157.151C155.143 75.1709 155.096 74.914 155.096 74.0735V60.8582Z" fill="#00FFFF"/>
<path d="M165.922 42.0042H167.533V0H159.758V1.61106H165.922V42.0042Z" fill="#00FFFF"/>
<path d="M165.922 82.3978H159.758V84.0089H167.533V42.0046H165.922V82.3978Z" fill="#00FFFF"/>
</svg>
