<svg width="424" height="86" viewBox="0 0 424 86" fill="none" xmlns="http://www.w3.org/2000/svg">
<path d="M0 43.0042H1.61106V2.61106H7.7751V1H0V43.0042Z" fill="#00FFFF"/>
<path d="M0 85.0089H7.7751V83.3978H1.61106V43.0046H0V85.0089Z" fill="#00FFFF"/>
<path d="M23.2448 5.56921C23.2448 5.07889 23.2215 5.05554 22.8946 5.05554C21.984 6.15293 20.6064 6.50316 19.2989 6.54986C19.2289 6.54986 19.1121 6.54985 19.0888 6.59655C19.0654 6.64325 19.0654 6.68995 19.0654 7.18027C19.7892 7.18027 21.0034 7.04018 21.9373 6.47981V18.7845C21.9373 19.6017 21.8906 19.8819 19.8826 19.8819H19.1822V20.489C20.3029 20.4656 21.4703 20.4423 22.5911 20.4423C23.7118 20.4423 24.8792 20.4656 26 20.489V19.8819H25.2995C23.2915 19.8819 23.2448 19.6251 23.2448 18.7845V5.56921Z" fill="#00FFFF"/>
<path d="M50.886 12.9941C50.886 11.5698 50.8626 9.14155 49.882 7.27366C49.0181 5.63926 47.6405 5.05554 46.4264 5.05554C45.3057 5.05554 43.8814 5.56921 42.9941 7.25031C42.0602 9.00146 41.9668 11.1729 41.9668 12.9941C41.9668 14.325 41.9901 16.3563 42.714 18.1308C43.7179 20.5357 45.5158 20.8626 46.4264 20.8626C47.5004 20.8626 49.1348 20.419 50.0921 18.2008C50.7926 16.5898 50.886 14.6985 50.886 12.9941ZM46.4264 20.489C44.9321 20.489 44.0448 19.2048 43.7179 17.4303C43.4611 16.0528 43.4611 14.0448 43.4611 12.7372C43.4611 10.9394 43.4611 9.44509 43.7646 8.02082C44.2083 6.03618 45.5158 5.42912 46.4264 5.42912C47.3837 5.42912 48.6212 6.05953 49.0648 7.97412C49.3683 9.30499 49.3917 10.8694 49.3917 12.7372C49.3917 14.2549 49.3917 16.1228 49.1115 17.5004C48.6212 20.0454 47.2436 20.489 46.4264 20.489Z" fill="#00FFFF"/>
<path d="M72.8528 12.9941C72.8528 11.5698 72.8294 9.14155 71.8488 7.27366C70.9849 5.63926 69.6073 5.05554 68.3932 5.05554C67.2724 5.05554 65.8482 5.56921 64.9609 7.25031C64.027 9.00146 63.9336 11.1729 63.9336 12.9941C63.9336 14.325 63.9569 16.3563 64.6807 18.1308C65.6847 20.5357 67.4826 20.8626 68.3932 20.8626C69.4672 20.8626 71.1016 20.419 72.0589 18.2008C72.7594 16.5898 72.8528 14.6985 72.8528 12.9941ZM68.3932 20.489C66.8989 20.489 66.0116 19.2048 65.6847 17.4303C65.4279 16.0528 65.4279 14.0448 65.4279 12.7372C65.4279 10.9394 65.4279 9.44509 65.7314 8.02082C66.1751 6.03618 67.4826 5.42912 68.3932 5.42912C69.3505 5.42912 70.588 6.05953 71.0316 7.97412C71.3351 9.30499 71.3585 10.8694 71.3585 12.7372C71.3585 14.2549 71.3585 16.1228 71.0783 17.5004C70.588 20.0454 69.2104 20.489 68.3932 20.489Z" fill="#00FFFF"/>
<path d="M26.7791 45.8144H26.3588C26.1253 47.4722 25.9385 47.7524 25.8451 47.8924C25.7284 48.0792 24.0473 48.0792 23.7204 48.0792H19.2375C20.078 47.1686 21.7124 45.5109 23.6971 43.5963C25.1213 42.2421 26.7791 40.6544 26.7791 38.3428C26.7791 35.5877 24.5843 34 22.1327 34C19.5644 34 18 36.2648 18 38.3662C18 39.2768 18.6771 39.3935 18.9573 39.3935C19.1908 39.3935 19.8912 39.2534 19.8912 38.4362C19.8912 37.7124 19.2842 37.5023 18.9573 37.5023C18.8172 37.5023 18.6771 37.5256 18.5837 37.5723C19.0273 35.5877 20.3816 34.6071 21.8058 34.6071C23.8372 34.6071 25.168 36.2181 25.168 38.3428C25.168 40.3742 23.9773 42.1253 22.6464 43.643L18 48.8964V49.4335H26.2187L26.7791 45.8144Z" fill="#00FFFF"/>
<path d="M47.2907 33.7137C47.2907 33.2234 47.2674 33.2 46.9405 33.2C46.0299 34.2974 44.6523 34.6476 43.3448 34.6943C43.2748 34.6943 43.158 34.6943 43.1347 34.741C43.1113 34.7877 43.1113 34.8344 43.1113 35.3247C43.8351 35.3247 45.0493 35.1846 45.9832 34.6243V46.929C45.9832 47.7462 45.9365 48.0264 43.9285 48.0264H43.2281V48.6335C44.3488 48.6101 45.5162 48.5868 46.637 48.5868C47.7577 48.5868 48.9251 48.6101 50.0459 48.6335V48.0264H49.3454C47.3374 48.0264 47.2907 47.7696 47.2907 46.929V33.7137Z" fill="#00FFFF"/>
<path d="M72.8528 41.1386C72.8528 39.7143 72.8294 37.286 71.8488 35.4181C70.9849 33.7837 69.6073 33.2 68.3932 33.2C67.2724 33.2 65.8482 33.7137 64.9609 35.3948C64.027 37.1459 63.9336 39.3174 63.9336 41.1386C63.9336 42.4694 63.9569 44.5008 64.6807 46.2753C65.6847 48.6802 67.4826 49.007 68.3932 49.007C69.4672 49.007 71.1016 48.5634 72.0589 46.3453C72.7594 44.7342 72.8528 42.843 72.8528 41.1386ZM68.3932 48.6335C66.8989 48.6335 66.0116 47.3493 65.6847 45.5748C65.4279 44.1972 65.4279 42.1892 65.4279 40.8817C65.4279 39.0839 65.4279 37.5896 65.7314 36.1653C66.1751 34.1807 67.4826 33.5736 68.3932 33.5736C69.3505 33.5736 70.588 34.204 71.0316 36.1186C71.3351 37.4495 71.3585 39.0138 71.3585 40.8817C71.3585 42.3994 71.3585 44.2673 71.0783 45.6448C70.588 48.1898 69.2104 48.6335 68.3932 48.6335Z" fill="#00FFFF"/>
<path d="M26.8401 69.283C26.8401 67.8588 26.8167 65.4305 25.8361 63.5626C24.9722 61.9282 23.5946 61.3445 22.3805 61.3445C21.2598 61.3445 19.8355 61.8582 18.9482 63.5393C18.0143 65.2904 17.9209 67.4618 17.9209 69.283C17.9209 70.6139 17.9442 72.6452 18.6681 74.4197C19.672 76.8246 21.4699 77.1515 22.3805 77.1515C23.4545 77.1515 25.0889 76.7079 26.0462 74.4898C26.7467 72.8787 26.8401 70.9875 26.8401 69.283ZM22.3805 76.7779C20.8862 76.7779 19.9989 75.4938 19.672 73.7193C19.4152 72.3417 19.4152 70.3337 19.4152 69.0262C19.4152 67.2283 19.4152 65.734 19.7187 64.3098C20.1624 62.3251 21.4699 61.7181 22.3805 61.7181C23.3378 61.7181 24.5753 62.3485 25.0189 64.2631C25.3224 65.5939 25.3458 67.1583 25.3458 69.0262C25.3458 70.5438 25.3458 72.4117 25.0656 73.7893C24.5753 76.3343 23.1977 76.7779 22.3805 76.7779Z" fill="#00FFFF"/>
<path d="M50.886 69.283C50.886 67.8588 50.8626 65.4305 49.882 63.5626C49.0181 61.9282 47.6405 61.3445 46.4264 61.3445C45.3057 61.3445 43.8814 61.8582 42.9941 63.5393C42.0602 65.2904 41.9668 67.4618 41.9668 69.283C41.9668 70.6139 41.9901 72.6452 42.714 74.4197C43.7179 76.8246 45.5158 77.1515 46.4264 77.1515C47.5004 77.1515 49.1348 76.7079 50.0921 74.4898C50.7926 72.8787 50.886 70.9875 50.886 69.283ZM46.4264 76.7779C44.9321 76.7779 44.0448 75.4938 43.7179 73.7193C43.4611 72.3417 43.4611 70.3337 43.4611 69.0262C43.4611 67.2283 43.4611 65.734 43.7646 64.3098C44.2083 62.3251 45.5158 61.7181 46.4264 61.7181C47.3837 61.7181 48.6212 62.3485 49.0648 64.2631C49.3683 65.5939 49.3917 67.1583 49.3917 69.0262C49.3917 70.5438 49.3917 72.4117 49.1115 73.7893C48.6212 76.3343 47.2436 76.7779 46.4264 76.7779Z" fill="#00FFFF"/>
<path d="M69.2566 61.8582C69.2566 61.3678 69.2332 61.3445 68.9063 61.3445C67.9957 62.4419 66.6182 62.7921 65.3106 62.8388C65.2406 62.8388 65.1238 62.8388 65.1005 62.8855C65.0771 62.9322 65.0771 62.9789 65.0771 63.4692C65.801 63.4692 67.0151 63.3291 67.949 62.7687V75.0735C67.949 75.8907 67.9023 76.1709 65.8944 76.1709H65.1939V76.7779C66.3146 76.7546 67.4821 76.7312 68.6028 76.7312C69.7235 76.7312 70.891 76.7546 72.0117 76.7779V76.1709H71.3112C69.3033 76.1709 69.2566 75.914 69.2566 75.0735V61.8582Z" fill="#00FFFF"/>
<path d="M80.081 43.0042H81.6921V1H73.917V2.61106H80.081V43.0042Z" fill="#00FFFF"/>
<path d="M80.164 83.3932H74V85.0042H81.7751V43H80.164V83.3932Z" fill="#00FFFF"/>
<path d="M97 43.0042H98.6111V2.61106H104.775V1H97V43.0042Z" fill="#00FFFF"/>
<path d="M97 85.0089H104.775V83.3978H98.6111V43.0046H97V85.0089Z" fill="#00FFFF"/>
<path d="M111.165 5.56921C111.165 5.07889 111.141 5.05554 110.815 5.05554C109.904 6.15293 108.526 6.50316 107.219 6.54986C107.149 6.54986 107.032 6.54985 107.009 6.59655C106.985 6.64325 106.985 6.68995 106.985 7.18027C107.709 7.18027 108.923 7.04018 109.857 6.47981V18.7845C109.857 19.6017 109.811 19.8819 107.803 19.8819H107.102V20.489C108.223 20.4656 109.39 20.4423 110.511 20.4423C111.632 20.4423 112.799 20.4656 113.92 20.489V19.8819H113.219C111.211 19.8819 111.165 19.6251 111.165 18.7845V5.56921Z" fill="#00FFFF"/>
<path d="M136.727 12.9941C136.727 11.5698 136.703 9.14155 135.723 7.27366C134.859 5.63926 133.481 5.05554 132.267 5.05554C131.146 5.05554 129.722 5.56921 128.835 7.25031C127.901 9.00146 127.808 11.1729 127.808 12.9941C127.808 14.325 127.831 16.3563 128.555 18.1308C129.559 20.5357 131.357 20.8626 132.267 20.8626C133.341 20.8626 134.976 20.419 135.933 18.2008C136.633 16.5898 136.727 14.6985 136.727 12.9941ZM132.267 20.489C130.773 20.489 129.886 19.2048 129.559 17.4303C129.302 16.0528 129.302 14.0448 129.302 12.7372C129.302 10.9394 129.302 9.44509 129.605 8.02082C130.049 6.03618 131.357 5.42912 132.267 5.42912C133.225 5.42912 134.462 6.05953 134.906 7.97412C135.209 9.30499 135.232 10.8694 135.232 12.7372C135.232 14.2549 135.232 16.1228 134.952 17.5004C134.462 20.0454 133.084 20.489 132.267 20.489Z" fill="#00FFFF"/>
<path d="M158.693 12.9941C158.693 11.5698 158.669 9.14155 157.689 7.27366C156.825 5.63926 155.447 5.05554 154.233 5.05554C153.112 5.05554 151.688 5.56921 150.801 7.25031C149.867 9.00146 149.773 11.1729 149.773 12.9941C149.773 14.325 149.797 16.3563 150.521 18.1308C151.525 20.5357 153.322 20.8626 154.233 20.8626C155.307 20.8626 156.941 20.419 157.899 18.2008C158.599 16.5898 158.693 14.6985 158.693 12.9941ZM154.233 20.489C152.739 20.489 151.851 19.2048 151.525 17.4303C151.268 16.0528 151.268 14.0448 151.268 12.7372C151.268 10.9394 151.268 9.44509 151.571 8.02082C152.015 6.03618 153.322 5.42912 154.233 5.42912C155.19 5.42912 156.428 6.05953 156.871 7.97412C157.175 9.30499 157.198 10.8694 157.198 12.7372C157.198 14.2549 157.198 16.1228 156.918 17.5004C156.428 20.0454 155.05 20.489 154.233 20.489Z" fill="#00FFFF"/>
<path d="M114.761 41.1386C114.761 39.7143 114.738 37.286 113.757 35.4181C112.893 33.7837 111.516 33.2 110.301 33.2C109.181 33.2 107.756 33.7137 106.869 35.3948C105.935 37.1459 105.842 39.3174 105.842 41.1386C105.842 42.4694 105.865 44.5008 106.589 46.2753C107.593 48.6802 109.391 49.007 110.301 49.007C111.375 49.007 113.01 48.5634 113.967 46.3453C114.668 44.7342 114.761 42.843 114.761 41.1386ZM110.301 48.6335C108.807 48.6335 107.92 47.3493 107.593 45.5748C107.336 44.1972 107.336 42.1892 107.336 40.8817C107.336 39.0839 107.336 37.5896 107.64 36.1653C108.083 34.1807 109.391 33.5736 110.301 33.5736C111.259 33.5736 112.496 34.204 112.94 36.1186C113.243 37.4495 113.267 39.0138 113.267 40.8817C113.267 42.3994 113.267 44.2673 112.986 45.6448C112.496 48.1898 111.119 48.6335 110.301 48.6335Z" fill="#00FFFF"/>
<path d="M133.131 33.7137C133.131 33.2234 133.107 33.2 132.78 33.2C131.87 34.2974 130.492 34.6476 129.185 34.6943C129.115 34.6943 128.998 34.6943 128.975 34.741C128.951 34.7877 128.951 34.8344 128.951 35.3247C129.675 35.3247 130.889 35.1846 131.823 34.6243V46.929C131.823 47.7462 131.776 48.0264 129.768 48.0264H129.068V48.6335C130.189 48.6101 131.356 48.5868 132.477 48.5868C133.598 48.5868 134.765 48.6101 135.886 48.6335V48.0264H135.185C133.177 48.0264 133.131 47.7696 133.131 46.929V33.7137Z" fill="#00FFFF"/>
<path d="M158.693 41.1386C158.693 39.7143 158.669 37.286 157.689 35.4181C156.825 33.7837 155.447 33.2 154.233 33.2C153.112 33.2 151.688 33.7137 150.801 35.3948C149.867 37.1459 149.773 39.3174 149.773 41.1386C149.773 42.4694 149.797 44.5008 150.521 46.2753C151.525 48.6802 153.322 49.007 154.233 49.007C155.307 49.007 156.941 48.5634 157.899 46.3453C158.599 44.7342 158.693 42.843 158.693 41.1386ZM154.233 48.6335C152.739 48.6335 151.851 47.3493 151.525 45.5748C151.268 44.1972 151.268 42.1892 151.268 40.8817C151.268 39.0839 151.268 37.5896 151.571 36.1653C152.015 34.1807 153.322 33.5736 154.233 33.5736C155.19 33.5736 156.428 34.204 156.871 36.1186C157.175 37.4495 157.198 39.0138 157.198 40.8817C157.198 42.3994 157.198 44.2673 156.918 45.6448C156.428 48.1898 155.05 48.6335 154.233 48.6335Z" fill="#00FFFF"/>
<path d="M114.761 69.283C114.761 67.8588 114.738 65.4305 113.757 63.5626C112.893 61.9282 111.516 61.3445 110.301 61.3445C109.181 61.3445 107.756 61.8582 106.869 63.5393C105.935 65.2904 105.842 67.4618 105.842 69.283C105.842 70.6139 105.865 72.6452 106.589 74.4197C107.593 76.8246 109.391 77.1515 110.301 77.1515C111.375 77.1515 113.01 76.7079 113.967 74.4898C114.668 72.8787 114.761 70.9875 114.761 69.283ZM110.301 76.7779C108.807 76.7779 107.92 75.4938 107.593 73.7193C107.336 72.3417 107.336 70.3337 107.336 69.0262C107.336 67.2283 107.336 65.734 107.64 64.3098C108.083 62.3251 109.391 61.7181 110.301 61.7181C111.259 61.7181 112.496 62.3485 112.94 64.2631C113.243 65.5939 113.267 67.1583 113.267 69.0262C113.267 70.5438 113.267 72.4117 112.986 73.7893C112.496 76.3343 111.119 76.7779 110.301 76.7779Z" fill="#00FFFF"/>
<path d="M129.581 63.119C129.815 63.2124 130.772 63.5159 131.753 63.5159C133.924 63.5159 135.115 62.3485 135.792 61.6714C135.792 61.4846 135.792 61.3678 135.652 61.3678C135.629 61.3678 135.582 61.3678 135.395 61.4612C134.578 61.8115 133.621 62.0916 132.453 62.0916C131.753 62.0916 130.702 61.9982 129.558 61.4846C129.301 61.3678 129.255 61.3678 129.231 61.3678C129.114 61.3678 129.091 61.3912 129.091 61.8582V68.6293C129.091 69.0495 129.091 69.1663 129.325 69.1663C129.441 69.1663 129.488 69.1196 129.605 68.9561C130.352 67.9055 131.379 67.4618 132.547 67.4618C133.364 67.4618 135.115 67.9755 135.115 71.9681C135.115 72.7153 135.115 74.0695 134.415 75.1435C133.831 76.1008 132.92 76.5911 131.916 76.5911C130.375 76.5911 128.811 75.5171 128.391 73.7193C128.484 73.7426 128.671 73.7893 128.764 73.7893C129.068 73.7893 129.651 73.6259 129.651 72.9021C129.651 72.2716 129.208 72.0148 128.764 72.0148C128.227 72.0148 127.877 72.3417 127.877 72.9955C127.877 75.0268 129.488 77.1515 131.963 77.1515C134.368 77.1515 136.656 75.0735 136.656 72.0615C136.656 69.2597 134.835 67.0882 132.57 67.0882C131.379 67.0882 130.375 67.5319 129.581 68.3724V63.119Z" fill="#00FFFF"/>
<path d="M155.096 61.8582C155.096 61.3678 155.073 61.3445 154.746 61.3445C153.836 62.4419 152.458 62.7921 151.15 62.8388C151.08 62.8388 150.964 62.8388 150.94 62.8855C150.917 62.9322 150.917 62.9789 150.917 63.4692C151.641 63.4692 152.855 63.3291 153.789 62.7687V75.0735C153.789 75.8907 153.742 76.1709 151.734 76.1709H151.034V76.7779C152.154 76.7546 153.322 76.7312 154.443 76.7312C155.563 76.7312 156.731 76.7546 157.852 76.7779V76.1709H157.151C155.143 76.1709 155.096 75.914 155.096 75.0735V61.8582Z" fill="#00FFFF"/>
<path d="M165.922 43.0042H167.533V1H159.758V2.61106H165.922V43.0042Z" fill="#00FFFF"/>
<path d="M165.922 83.3978H159.758V85.0089H167.533V43.0046H165.922V83.3978Z" fill="#00FFFF"/>
<path d="M207 43.0042H208.611V2.61106H214.775V1H207V43.0042Z" fill="#00FFFF"/>
<path d="M207 85.0089H214.775V83.3978H208.611V43.0046H207V85.0089Z" fill="#00FFFF"/>
<path d="M227.245 5.51367C227.245 5.02335 227.221 5 226.895 5C225.984 6.09739 224.606 6.44762 223.299 6.49431C223.229 6.49431 223.112 6.49431 223.089 6.54101C223.065 6.58771 223.065 6.6344 223.065 7.12473C223.789 7.12473 225.003 6.98463 225.937 6.42427V18.729C225.937 19.5462 225.891 19.8264 223.883 19.8264H223.182V20.4335C224.303 20.4101 225.47 20.3868 226.591 20.3868C227.712 20.3868 228.879 20.4101 230 20.4335V19.8264H229.3C227.292 19.8264 227.245 19.5696 227.245 18.729V5.51367Z" fill="#00FFFF"/>
<path d="M253.919 11.9941C253.919 10.5698 253.896 8.14155 252.915 6.27366C252.051 4.63926 250.674 4.05554 249.46 4.05554C248.339 4.05554 246.915 4.56921 246.027 6.25031C245.093 8.00146 245 10.1729 245 11.9941C245 13.325 245.023 15.3563 245.747 17.1308C246.751 19.5357 248.549 19.8626 249.46 19.8626C250.534 19.8626 252.168 19.419 253.125 17.2008C253.826 15.5898 253.919 13.6985 253.919 11.9941ZM249.46 19.489C247.965 19.489 247.078 18.2048 246.751 16.4303C246.494 15.0528 246.494 13.0448 246.494 11.7372C246.494 9.9394 246.494 8.44509 246.798 7.02082C247.241 5.03618 248.549 4.42912 249.46 4.42912C250.417 4.42912 251.654 5.05953 252.098 6.97412C252.402 8.30499 252.425 9.86935 252.425 11.7372C252.425 13.2549 252.425 15.1228 252.145 16.5004C251.654 19.0454 250.277 19.489 249.46 19.489Z" fill="#00FFFF"/>
<path d="M275.886 11.9941C275.886 10.5698 275.863 8.14155 274.882 6.27366C274.018 4.63926 272.641 4.05554 271.426 4.05554C270.306 4.05554 268.881 4.56921 267.994 6.25031C267.06 8.00146 266.967 10.1729 266.967 11.9941C266.967 13.325 266.99 15.3563 267.714 17.1308C268.718 19.5357 270.516 19.8626 271.426 19.8626C272.5 19.8626 274.135 19.419 275.092 17.2008C275.793 15.5898 275.886 13.6985 275.886 11.9941ZM271.426 19.489C269.932 19.489 269.045 18.2048 268.718 16.4303C268.461 15.0528 268.461 13.0448 268.461 11.7372C268.461 9.9394 268.461 8.44509 268.765 7.02082C269.208 5.03618 270.516 4.42912 271.426 4.42912C272.384 4.42912 273.621 5.05953 274.065 6.97412C274.368 8.30499 274.392 9.86935 274.392 11.7372C274.392 13.2549 274.392 15.1228 274.111 16.5004C273.621 19.0454 272.244 19.489 271.426 19.489Z" fill="#00FFFF"/>
<path d="M230.779 44.7589H230.359C230.125 46.4166 229.939 46.6968 229.845 46.8369C229.728 47.0237 228.047 47.0237 227.72 47.0237H223.237C224.078 46.1131 225.712 44.4553 227.697 42.5408C229.121 41.1865 230.779 39.5988 230.779 37.2873C230.779 34.5322 228.584 32.9445 226.133 32.9445C223.564 32.9445 222 35.2093 222 37.3107C222 38.2213 222.677 38.338 222.957 38.338C223.191 38.338 223.891 38.1979 223.891 37.3807C223.891 36.6569 223.284 36.4468 222.957 36.4468C222.817 36.4468 222.677 36.4701 222.584 36.5168C223.027 34.5322 224.382 33.5515 225.806 33.5515C227.837 33.5515 229.168 35.1626 229.168 37.2873C229.168 39.3186 227.977 41.0698 226.646 42.5874L222 47.8409V48.3779H230.219L230.779 44.7589Z" fill="#00FFFF"/>
<path d="M250.324 32.7137C250.324 32.2234 250.301 32.2 249.974 32.2C249.063 33.2974 247.686 33.6476 246.378 33.6943C246.308 33.6943 246.191 33.6943 246.168 33.741C246.145 33.7877 246.145 33.8344 246.145 34.3247C246.868 34.3247 248.082 34.1846 249.016 33.6243V45.929C249.016 46.7462 248.97 47.0264 246.962 47.0264H246.261V47.6335C247.382 47.6101 248.549 47.5868 249.67 47.5868C250.791 47.5868 251.958 47.6101 253.079 47.6335V47.0264H252.379C250.371 47.0264 250.324 46.7696 250.324 45.929V32.7137Z" fill="#00FFFF"/>
<path d="M275.886 40.1386C275.886 38.7143 275.863 36.286 274.882 34.4181C274.018 32.7837 272.641 32.2 271.426 32.2C270.306 32.2 268.881 32.7137 267.994 34.3948C267.06 36.1459 266.967 38.3174 266.967 40.1386C266.967 41.4694 266.99 43.5008 267.714 45.2753C268.718 47.6802 270.516 48.007 271.426 48.007C272.5 48.007 274.135 47.5634 275.092 45.3453C275.793 43.7342 275.886 41.843 275.886 40.1386ZM271.426 47.6335C269.932 47.6335 269.045 46.3493 268.718 44.5748C268.461 43.1972 268.461 41.1892 268.461 39.8817C268.461 38.0839 268.461 36.5896 268.765 35.1653C269.208 33.1807 270.516 32.5736 271.426 32.5736C272.384 32.5736 273.621 33.204 274.065 35.1186C274.368 36.4495 274.392 38.0138 274.392 39.8817C274.392 41.3994 274.392 43.2673 274.111 44.6448C273.621 47.1898 272.244 47.6335 271.426 47.6335Z" fill="#00FFFF"/>
<path d="M230.919 68.883C230.919 67.4587 230.896 65.0305 229.915 63.1626C229.051 61.5282 227.674 60.9445 226.46 60.9445C225.339 60.9445 223.915 61.4581 223.027 63.1392C222.093 64.8904 222 67.0618 222 68.883C222 70.2139 222.023 72.2452 222.747 74.0197C223.751 76.4246 225.549 76.7515 226.46 76.7515C227.534 76.7515 229.168 76.3079 230.125 74.0897C230.826 72.4787 230.919 70.5874 230.919 68.883ZM226.46 76.3779C224.965 76.3779 224.078 75.0937 223.751 73.3192C223.494 71.9417 223.494 69.9337 223.494 68.6262C223.494 66.8283 223.494 65.334 223.798 63.9097C224.241 61.9251 225.549 61.318 226.46 61.318C227.417 61.318 228.654 61.9484 229.098 63.863C229.402 65.1939 229.425 66.7583 229.425 68.6262C229.425 70.1438 229.425 72.0117 229.145 73.3893C228.654 75.9343 227.277 76.3779 226.46 76.3779Z" fill="#00FFFF"/>
<path d="M272.29 60.8582C272.29 60.3678 272.266 60.3445 271.94 60.3445C271.029 61.4419 269.651 61.7921 268.344 61.8388C268.274 61.8388 268.157 61.8388 268.134 61.8855C268.11 61.9322 268.11 61.9789 268.11 62.4692C268.834 62.4692 270.048 62.3291 270.982 61.7687V74.0735C270.982 74.8907 270.936 75.1709 268.928 75.1709H268.227V75.7779C269.348 75.7546 270.515 75.7312 271.636 75.7312C272.757 75.7312 273.924 75.7546 275.045 75.7779V75.1709H274.344C272.336 75.1709 272.29 74.914 272.29 74.0735V60.8582Z" fill="#00FFFF"/>
<path d="M283.114 42.0042H284.725V0H276.95V1.61106H283.114V42.0042Z" fill="#00FFFF"/>
<path d="M282.777 82.3978H276.613V84.0089H284.388V42.0046H282.777V82.3978Z" fill="#00FFFF"/>
<path d="M194.939 40.8172C195.289 40.8172 195.64 40.8172 195.64 40.4203C195.64 40 195.243 40 194.846 40H181.794C181.397 40 181 40 181 40.4203C181 40.8172 181.35 40.8172 181.7 40.8172H194.939ZM194.846 44.9733C195.243 44.9733 195.64 44.9733 195.64 44.553C195.64 44.1561 195.289 44.1561 194.939 44.1561H181.7C181.35 44.1561 181 44.1561 181 44.553C181 44.9733 181.397 44.9733 181.794 44.9733H194.846Z" fill="#00FFFF"/>
<path d="M247.704 62.7511C247.938 62.8445 248.895 63.1481 249.876 63.1481C252.047 63.1481 253.238 61.9806 253.915 61.3035C253.915 61.1167 253.915 61 253.775 61C253.752 61 253.705 61 253.518 61.0934C252.701 61.4436 251.744 61.7238 250.576 61.7238C249.876 61.7238 248.825 61.6304 247.681 61.1167C247.424 61 247.378 61 247.354 61C247.237 61 247.214 61.0233 247.214 61.4903V68.2614C247.214 68.6817 247.214 68.7984 247.448 68.7984C247.564 68.7984 247.611 68.7518 247.728 68.5883C248.475 67.5376 249.502 67.094 250.67 67.094C251.487 67.094 253.238 67.6077 253.238 71.6003C253.238 72.3474 253.238 73.7017 252.538 74.7757C251.954 75.733 251.043 76.2233 250.039 76.2233C248.498 76.2233 246.934 75.1493 246.514 73.3514C246.607 73.3748 246.794 73.4215 246.887 73.4215C247.191 73.4215 247.774 73.258 247.774 72.5342C247.774 71.9038 247.331 71.647 246.887 71.647C246.35 71.647 246 71.9739 246 72.6276C246 74.659 247.611 76.7837 250.086 76.7837C252.491 76.7837 254.779 74.7057 254.779 71.6937C254.779 68.8918 252.958 66.7204 250.693 66.7204C249.502 66.7204 248.498 67.164 247.704 68.0046V62.7511Z" fill="#00FFFF"/>
<path d="M313.939 40.8172C314.289 40.8172 314.64 40.8172 314.64 40.4203C314.64 40 314.243 40 313.846 40H300.794C300.397 40 300 40 300 40.4203C300 40.8172 300.35 40.8172 300.7 40.8172H313.939ZM313.846 44.9733C314.243 44.9733 314.64 44.9733 314.64 44.553C314.64 44.1561 314.289 44.1561 313.939 44.1561H300.7C300.35 44.1561 300 44.1561 300 44.553C300 44.9733 300.397 44.9733 300.794 44.9733H313.846Z" fill="#00FFFF"/>
<path d="M336.495 36.7978C336.705 35.9106 336.775 35.6771 338.83 35.6771C339.46 35.6771 339.624 35.6771 339.624 35.2335C339.624 35 339.367 35 339.273 35C338.806 35 338.269 35.0467 337.802 35.0467H334.674C334.23 35.0467 333.716 35 333.273 35C333.086 35 332.829 35 332.829 35.4436C332.829 35.6771 333.039 35.6771 333.39 35.6771C334.814 35.6771 334.814 35.8639 334.814 36.1207C334.814 36.1674 334.814 36.3075 334.72 36.6578L331.568 49.2193C331.358 50.0365 331.312 50.27 329.677 50.27C329.233 50.27 329 50.27 329 50.6903C329 50.9471 329.14 50.9471 329.607 50.9471H340.067C340.581 50.9471 340.604 50.9238 340.768 50.5035L342.566 45.5302C342.612 45.4135 342.659 45.2734 342.659 45.2034C342.659 45.0633 342.542 44.9699 342.425 44.9699C342.402 44.9699 342.285 44.9699 342.239 45.0633C342.192 45.0866 342.192 45.1333 342.005 45.5769C341.258 47.6316 340.207 50.27 336.261 50.27H334.02C333.693 50.27 333.646 50.27 333.506 50.2467C333.249 50.2233 333.226 50.1766 333.226 49.9898C333.226 49.8264 333.273 49.6863 333.319 49.4762L336.495 36.7978Z" fill="#00FFFF"/>
<path d="M396.495 3.79785C396.705 2.9106 396.775 2.67711 398.83 2.67711C399.46 2.67711 399.624 2.67711 399.624 2.23349C399.624 2 399.367 2 399.273 2C398.806 2 398.269 2.0467 397.802 2.0467H394.674C394.23 2.0467 393.716 2 393.273 2C393.086 2 392.829 2 392.829 2.44362C392.829 2.67711 393.039 2.67711 393.39 2.67711C394.814 2.67711 394.814 2.8639 394.814 3.12074C394.814 3.16743 394.814 3.30752 394.72 3.65775L391.568 16.2193C391.358 17.0365 391.312 17.27 389.677 17.27C389.233 17.27 389 17.27 389 17.6903C389 17.9471 389.14 17.9471 389.607 17.9471H400.067C400.581 17.9471 400.604 17.9238 400.768 17.5035L402.566 12.5302C402.612 12.4135 402.659 12.2734 402.659 12.2034C402.659 12.0633 402.542 11.9699 402.425 11.9699C402.402 11.9699 402.285 11.9699 402.239 12.0633C402.192 12.0866 402.192 12.1333 402.005 12.5769C401.258 14.6316 400.207 17.27 396.261 17.27H394.02C393.693 17.27 393.646 17.27 393.506 17.2467C393.249 17.2233 393.226 17.1766 393.226 16.9898C393.226 16.8264 393.273 16.6863 393.319 16.4762L396.495 3.79785Z" fill="#00FFFF"/>
<path d="M386.939 6.8172C387.289 6.8172 387.64 6.8172 387.64 6.42028C387.64 6 387.243 6 386.846 6H373.794C373.397 6 373 6 373 6.42028C373 6.8172 373.35 6.8172 373.7 6.8172H386.939ZM386.846 10.9733C387.243 10.9733 387.64 10.9733 387.64 10.553C387.64 10.1561 387.289 10.1561 386.939 10.1561H373.7C373.35 10.1561 373 10.1561 373 10.553C373 10.9733 373.397 10.9733 373.794 10.9733H386.846Z" fill="#00FFFF"/>
<path d="M355.175 15.0792C354.358 16.4568 353.564 16.9238 352.444 16.9938C352.187 17.0172 352 17.0172 352 17.4374C352 17.5775 352.117 17.6709 352.28 17.6709C352.7 17.6709 353.751 17.6242 354.171 17.6242C354.849 17.6242 355.596 17.6709 356.249 17.6709C356.39 17.6709 356.67 17.6709 356.67 17.2273C356.67 17.0172 356.483 16.9938 356.343 16.9938C355.806 16.9471 355.362 16.7603 355.362 16.2C355.362 15.8731 355.502 15.6163 355.806 15.1026L357.58 12.1607H363.534C363.558 12.3708 363.558 12.5576 363.581 12.7677C363.651 13.3748 363.931 15.803 363.931 16.2467C363.931 16.9471 362.74 16.9938 362.367 16.9938C362.11 16.9938 361.853 16.9938 361.853 17.4141C361.853 17.6709 362.063 17.6709 362.203 17.6709C362.6 17.6709 363.067 17.6242 363.464 17.6242H364.795C366.219 17.6242 367.247 17.6709 367.27 17.6709C367.433 17.6709 367.69 17.6709 367.69 17.2273C367.69 16.9938 367.48 16.9938 367.13 16.9938C365.846 16.9938 365.822 16.7837 365.752 16.0832L364.328 1.51367C364.281 1.0467 364.188 1 363.931 1C363.698 1 363.558 1.0467 363.347 1.39693L355.175 15.0792ZM357.977 11.4835L362.67 3.6384L363.464 11.4835H357.977Z" fill="#00FFFF"/>
<path d="M418.227 12.5769C417.41 15.8457 414.701 17.7603 412.506 17.7603C410.825 17.7603 409.681 16.6396 409.681 14.7017C409.681 14.6083 409.681 13.9078 409.938 12.8805L412.226 3.70445C412.436 2.9106 412.483 2.67711 414.141 2.67711C414.561 2.67711 414.794 2.67711 414.794 2.25684C414.794 2 414.584 2 414.444 2C414.024 2 413.534 2.0467 413.09 2.0467H410.335C409.891 2.0467 409.401 2 408.957 2C408.794 2 408.514 2 408.514 2.44362C408.514 2.67711 408.677 2.67711 409.121 2.67711C410.522 2.67711 410.522 2.8639 410.522 3.12074C410.522 3.26083 410.358 3.93794 410.241 4.33486L408.21 12.5069C408.14 12.7637 408 13.3941 408 14.0246C408 16.5929 409.845 18.4374 412.39 18.4374C414.748 18.4374 417.363 16.5696 418.554 13.6043C418.717 13.2074 418.927 12.3901 419.067 11.7597C419.301 10.9192 419.791 8.8645 419.955 8.25744L420.842 4.75514C421.145 3.54101 421.332 2.7705 423.387 2.67711C423.574 2.65376 423.667 2.46697 423.667 2.25684C423.667 2 423.457 2 423.363 2C423.037 2 422.616 2.0467 422.289 2.0467H421.192C419.744 2.0467 418.997 2 418.974 2C418.834 2 418.554 2 418.554 2.44362C418.554 2.67711 418.74 2.67711 418.904 2.67711C420.305 2.72381 420.398 3.26083 420.398 3.6811C420.398 3.89124 420.398 3.96129 420.305 4.28817L418.227 12.5769Z" fill="#00FFFF"/>
</svg>
