<svg width="143" height="27" viewBox="0 0 143 27" fill="none" xmlns="http://www.w3.org/2000/svg">
<path d="M5.53354 26.1179C5.53354 26.0946 5.53354 26.0479 5.4635 25.9779C4.38946 24.8805 1.51758 21.8918 1.51758 14.6071C1.51758 7.32228 4.34276 4.35701 5.48684 3.18957C5.48684 3.16622 5.53354 3.11953 5.53354 3.04948C5.53354 2.97943 5.4635 2.93274 5.3701 2.93274C5.11327 2.93274 3.12863 4.66054 1.98455 7.22889C0.817115 9.82059 0.490234 12.3422 0.490234 14.5837C0.490234 16.2648 0.653675 19.1134 2.05459 22.1253C3.17533 24.5536 5.08992 26.258 5.3701 26.258C5.48684 26.258 5.53354 26.2113 5.53354 26.1179Z" fill="#00FFFF"/>
<path d="M10.6266 17.8292C9.80938 19.2068 9.01553 19.6738 7.8948 19.7438C7.63796 19.7672 7.45117 19.7672 7.45117 20.1874C7.45117 20.3275 7.56791 20.4209 7.73136 20.4209C8.15163 20.4209 9.20232 20.3742 9.6226 20.3742C10.2997 20.3742 11.0469 20.4209 11.7006 20.4209C11.8407 20.4209 12.1209 20.4209 12.1209 19.9773C12.1209 19.7672 11.9341 19.7438 11.794 19.7438C11.257 19.6971 10.8134 19.5103 10.8134 18.95C10.8134 18.6231 10.9535 18.3663 11.257 17.8526L13.0315 14.9107H18.9854C19.0088 15.1208 19.0088 15.3076 19.0321 15.5177C19.1021 16.1248 19.3823 18.553 19.3823 18.9967C19.3823 19.6971 18.1915 19.7438 17.818 19.7438C17.5611 19.7438 17.3043 19.7438 17.3043 20.1641C17.3043 20.4209 17.5144 20.4209 17.6545 20.4209C18.0515 20.4209 18.5184 20.3742 18.9154 20.3742H20.2462C21.6705 20.3742 22.6978 20.4209 22.7212 20.4209C22.8846 20.4209 23.1415 20.4209 23.1415 19.9773C23.1415 19.7438 22.9313 19.7438 22.5811 19.7438C21.2969 19.7438 21.2736 19.5337 21.2035 18.8332L19.7793 4.26367C19.7326 3.7967 19.6392 3.75 19.3823 3.75C19.1488 3.75 19.0088 3.7967 18.7986 4.14693L10.6266 17.8292ZM13.4284 14.2335L18.1215 6.3884L18.9154 14.2335H13.4284Z" fill="#00FFFF"/>
<path d="M32.3409 6.06146C32.551 5.19756 32.6444 5.15087 33.555 5.15087H36.5903C39.2287 5.15087 39.2287 7.39234 39.2287 7.60247C39.2287 9.49371 37.3375 11.8986 34.2555 11.8986H30.8933L32.3409 6.06146ZM36.2868 12.0854C38.8318 11.6184 41.1433 9.84394 41.1433 7.69587C41.1433 5.87467 39.5323 4.47375 36.8939 4.47375H29.399C28.9553 4.47375 28.7452 4.47375 28.7452 4.91738C28.7452 5.15087 28.9553 5.15087 29.3056 5.15087C30.7298 5.15087 30.7298 5.33765 30.7298 5.59449C30.7298 5.64119 30.7298 5.78128 30.6364 6.13151L27.4844 18.6931C27.2742 19.5103 27.2275 19.7438 25.5931 19.7438C25.1495 19.7438 24.916 19.7438 24.916 20.164C24.916 20.4209 25.0561 20.4209 25.5231 20.4209H33.5317C37.104 20.4209 39.8591 17.7124 39.8591 15.3542C39.8591 13.4396 38.178 12.2722 36.2868 12.0854ZM32.9713 19.7438H29.8192C29.4924 19.7438 29.4457 19.7438 29.3056 19.7204C29.0487 19.6971 29.0254 19.6504 29.0254 19.4636C29.0254 19.3001 29.0721 19.1601 29.1188 18.9499L30.7532 12.3656H35.1427C37.8979 12.3656 37.8979 14.9339 37.8979 15.1207C37.8979 17.3622 35.8665 19.7438 32.9713 19.7438Z" fill="#00FFFF"/>
<path d="M48.4828 14.6071C48.4828 12.926 48.3193 10.0774 46.9184 7.06545C45.7977 4.63719 43.8831 2.93274 43.6029 2.93274C43.5328 2.93274 43.4395 2.95609 43.4395 3.07283C43.4395 3.11953 43.4628 3.14288 43.4862 3.18957C44.6069 4.35701 47.4554 7.32229 47.4554 14.5837C47.4554 21.8685 44.6302 24.8338 43.4862 26.0012C43.4628 26.0479 43.4395 26.0713 43.4395 26.1179C43.4395 26.2347 43.5328 26.258 43.6029 26.258C43.8597 26.258 45.8444 24.5302 46.9884 21.9619C48.1559 19.3702 48.4828 16.8485 48.4828 14.6071Z" fill="#00FFFF"/>
<path d="M57.7552 26.1179C57.7552 26.0946 57.7552 26.0479 57.6852 25.9779C56.6111 24.8805 53.7393 21.8918 53.7393 14.6071C53.7393 7.32228 56.5644 4.35701 57.7085 3.18957C57.7085 3.16622 57.7552 3.11953 57.7552 3.04948C57.7552 2.97943 57.6852 2.93274 57.5918 2.93274C57.3349 2.93274 55.3503 4.66054 54.2062 7.22889C53.0388 9.82059 52.7119 12.3422 52.7119 14.5837C52.7119 16.2648 52.8754 19.1134 54.2763 22.1253C55.397 24.5536 57.3116 26.258 57.5918 26.258C57.7085 26.258 57.7552 26.2113 57.7552 26.1179Z" fill="#00FFFF"/>
<path d="M67.4249 6.06146C67.635 5.19756 67.7284 5.15087 68.639 5.15087H71.6743C74.3127 5.15087 74.3127 7.39234 74.3127 7.60247C74.3127 9.49371 72.4215 11.8986 69.3395 11.8986H65.9773L67.4249 6.06146ZM71.3708 12.0854C73.9158 11.6184 76.2273 9.84394 76.2273 7.69587C76.2273 5.87467 74.6163 4.47375 71.9779 4.47375H64.4829C64.0393 4.47375 63.8292 4.47375 63.8292 4.91738C63.8292 5.15087 64.0393 5.15087 64.3895 5.15087C65.8138 5.15087 65.8138 5.33765 65.8138 5.59449C65.8138 5.64119 65.8138 5.78128 65.7204 6.13151L62.5684 18.6931C62.3582 19.5103 62.3115 19.7438 60.6771 19.7438C60.2335 19.7438 60 19.7438 60 20.164C60 20.4209 60.1401 20.4209 60.6071 20.4209H68.6157C72.188 20.4209 74.9431 17.7124 74.9431 15.3542C74.9431 13.4396 73.262 12.2722 71.3708 12.0854ZM68.0553 19.7438H64.9032C64.5763 19.7438 64.5296 19.7438 64.3895 19.7204C64.1327 19.6971 64.1094 19.6504 64.1094 19.4636C64.1094 19.3001 64.1561 19.1601 64.2028 18.9499L65.8372 12.3656H70.2267C72.9818 12.3656 72.9818 14.9339 72.9818 15.1207C72.9818 17.3622 70.9505 19.7438 68.0553 19.7438Z" fill="#00FFFF"/>
<path d="M88.1082 7.05189C88.3837 7.05189 88.6756 7.05189 88.6756 6.72767C88.6756 6.40344 88.3837 6.40344 88.1082 6.40344H79.3379C79.0623 6.40344 78.7705 6.40344 78.7705 6.72767C78.7705 7.05189 79.0623 7.05189 79.3379 7.05189H88.1082Z" fill="#00FFFF"/>
<path d="M94.7034 0.389069C94.7034 0.0162108 94.7034 0 94.3791 0C93.9901 0.437702 93.1795 1.03752 91.5098 1.03752V1.50764C91.8826 1.50764 92.6932 1.50764 93.5848 1.08615V9.53219C93.5848 10.1158 93.5362 10.3103 92.1096 10.3103H91.607V10.7804C92.0447 10.748 93.6172 10.748 94.1522 10.748C94.6872 10.748 96.2434 10.748 96.6811 10.7804V10.3103H96.1786C94.752 10.3103 94.7034 10.1158 94.7034 9.53219V0.389069Z" fill="#00FFFF"/>
<path d="M102.503 17.8292C101.685 19.2068 100.892 19.6738 99.7708 19.7438C99.5139 19.7672 99.3271 19.7672 99.3271 20.1874C99.3271 20.3275 99.4439 20.4209 99.6073 20.4209C100.028 20.4209 101.078 20.3742 101.499 20.3742C102.176 20.3742 102.923 20.4209 103.577 20.4209C103.717 20.4209 103.997 20.4209 103.997 19.9773C103.997 19.7672 103.81 19.7438 103.67 19.7438C103.133 19.6971 102.689 19.5103 102.689 18.95C102.689 18.6231 102.829 18.3663 103.133 17.8526L104.907 14.9107H110.861C110.885 15.1208 110.885 15.3076 110.908 15.5177C110.978 16.1248 111.258 18.553 111.258 18.9967C111.258 19.6971 110.068 19.7438 109.694 19.7438C109.437 19.7438 109.18 19.7438 109.18 20.1641C109.18 20.4209 109.39 20.4209 109.531 20.4209C109.927 20.4209 110.394 20.3742 110.791 20.3742H112.122C113.546 20.3742 114.574 20.4209 114.597 20.4209C114.761 20.4209 115.017 20.4209 115.017 19.9773C115.017 19.7438 114.807 19.7438 114.457 19.7438C113.173 19.7438 113.15 19.5337 113.08 18.8332L111.655 4.26367C111.609 3.7967 111.515 3.75 111.258 3.75C111.025 3.75 110.885 3.7967 110.675 4.14693L102.503 17.8292ZM105.304 14.2335L109.997 6.3884L110.791 14.2335H105.304Z" fill="#00FFFF"/>
<path d="M126.355 7.05189C126.631 7.05189 126.923 7.05189 126.923 6.72767C126.923 6.40344 126.631 6.40344 126.355 6.40344H117.585C117.309 6.40344 117.018 6.40344 117.018 6.72767C117.018 7.05189 117.309 7.05189 117.585 7.05189H126.355Z" fill="#00FFFF"/>
<path d="M132.949 0.389069C132.949 0.0162108 132.949 0 132.625 0C132.236 0.437702 131.426 1.03752 129.756 1.03752V1.50764C130.129 1.50764 130.939 1.50764 131.831 1.08615V9.53219C131.831 10.1158 131.782 10.3103 130.356 10.3103H129.853V10.7804C130.291 10.748 131.863 10.748 132.398 10.748C132.933 10.748 134.49 10.748 134.927 10.7804V10.3103H134.425C132.998 10.3103 132.949 10.1158 132.949 9.53219V0.389069Z" fill="#00FFFF"/>
<path d="M142.921 14.6071C142.921 12.926 142.758 10.0774 141.357 7.06545C140.236 4.63719 138.322 2.93274 138.041 2.93274C137.971 2.93274 137.878 2.95609 137.878 3.07283C137.878 3.11953 137.901 3.14288 137.925 3.18957C139.045 4.35701 141.894 7.32229 141.894 14.5837C141.894 21.8685 139.069 24.8338 137.925 26.0012C137.901 26.0479 137.878 26.0713 137.878 26.1179C137.878 26.2347 137.971 26.258 138.041 26.258C138.298 26.258 140.283 24.5302 141.427 21.9619C142.594 19.3702 142.921 16.8485 142.921 14.6071Z" fill="#00FFFF"/>
</svg>
