<svg width="155" height="92" viewBox="0 0 155 92" fill="none" xmlns="http://www.w3.org/2000/svg">
<path d="M3.56409 17.8292C2.74688 19.2068 1.95303 19.6738 0.832296 19.7438C0.575461 19.7672 0.388672 19.7672 0.388672 20.1874C0.388672 20.3275 0.505414 20.4209 0.668855 20.4209C1.08913 20.4209 2.13982 20.3742 2.5601 20.3742C3.23721 20.3742 3.98436 20.4209 4.63813 20.4209C4.77822 20.4209 5.0584 20.4209 5.0584 19.9773C5.0584 19.7672 4.87161 19.7438 4.73152 19.7438C4.1945 19.6971 3.75088 19.5103 3.75088 18.95C3.75088 18.6231 3.89097 18.3663 4.1945 17.8526L5.969 14.9107H11.9229C11.9463 15.1208 11.9463 15.3076 11.9696 15.5177C12.0396 16.1248 12.3198 18.553 12.3198 18.9967C12.3198 19.6971 11.129 19.7438 10.7555 19.7438C10.4986 19.7438 10.2418 19.7438 10.2418 20.1641C10.2418 20.4209 10.4519 20.4209 10.592 20.4209C10.989 20.4209 11.4559 20.3742 11.8529 20.3742H13.1837C14.608 20.3742 15.6353 20.4209 15.6587 20.4209C15.8221 20.4209 16.079 20.4209 16.079 19.9773C16.079 19.7438 15.8688 19.7438 15.5186 19.7438C14.2344 19.7438 14.2111 19.5337 14.141 18.8332L12.7168 4.26367C12.6701 3.7967 12.5767 3.75 12.3198 3.75C12.0863 3.75 11.9463 3.7967 11.7361 4.14693L3.56409 17.8292ZM6.36593 14.2335L11.059 6.3884L11.8529 14.2335H6.36593Z" fill="#00FFFF"/>
<path d="M25.2784 6.06146C25.4885 5.19756 25.5819 5.15087 26.4925 5.15087H29.5278C32.1662 5.15087 32.1662 7.39234 32.1662 7.60247C32.1662 9.49371 30.275 11.8986 27.193 11.8986H23.8308L25.2784 6.06146ZM29.2243 12.0854C31.7693 11.6184 34.0808 9.84394 34.0808 7.69587C34.0808 5.87467 32.4698 4.47375 29.8314 4.47375H22.3365C21.8928 4.47375 21.6827 4.47375 21.6827 4.91738C21.6827 5.15087 21.8928 5.15087 22.2431 5.15087C23.6673 5.15087 23.6673 5.33765 23.6673 5.59449C23.6673 5.64119 23.6673 5.78128 23.5739 6.13151L20.4219 18.6931C20.2117 19.5103 20.165 19.7438 18.5306 19.7438C18.087 19.7438 17.8535 19.7438 17.8535 20.164C17.8535 20.4209 17.9936 20.4209 18.4606 20.4209H26.4692C30.0415 20.4209 32.7966 17.7124 32.7966 15.3542C32.7966 13.4396 31.1155 12.2722 29.2243 12.0854ZM25.9088 19.7438H22.7567C22.4299 19.7438 22.3832 19.7438 22.2431 19.7204C21.9862 19.6971 21.9629 19.6504 21.9629 19.4636C21.9629 19.3001 22.0096 19.1601 22.0563 18.9499L23.6907 12.3656H28.0802C30.8354 12.3656 30.8354 14.9339 30.8354 15.1207C30.8354 17.3622 28.804 19.7438 25.9088 19.7438Z" fill="#00FFFF"/>
<path d="M43.8253 6.06146C44.0354 5.19756 44.1288 5.15087 45.0394 5.15087H48.0747C50.7131 5.15087 50.7131 7.39234 50.7131 7.60247C50.7131 9.49371 48.8219 11.8986 45.7398 11.8986H42.3776L43.8253 6.06146ZM47.7712 12.0854C50.3162 11.6184 52.6277 9.84394 52.6277 7.69587C52.6277 5.87467 51.0166 4.47375 48.3782 4.47375H40.8833C40.4397 4.47375 40.2296 4.47375 40.2296 4.91738C40.2296 5.15087 40.4397 5.15087 40.7899 5.15087C42.2142 5.15087 42.2142 5.33765 42.2142 5.59449C42.2142 5.64119 42.2142 5.78128 42.1208 6.13151L38.9687 18.6931C38.7586 19.5103 38.7119 19.7438 37.0775 19.7438C36.6339 19.7438 36.4004 19.7438 36.4004 20.164C36.4004 20.4209 36.5405 20.4209 37.0075 20.4209H45.016C48.5884 20.4209 51.3435 17.7124 51.3435 15.3542C51.3435 13.4396 49.6624 12.2722 47.7712 12.0854ZM44.4557 19.7438H41.3036C40.9767 19.7438 40.93 19.7438 40.7899 19.7204C40.5331 19.6971 40.5098 19.6504 40.5098 19.4636C40.5098 19.3001 40.5565 19.1601 40.6031 18.9499L42.2376 12.3656H46.6271C49.3822 12.3656 49.3822 14.9339 49.3822 15.1207C49.3822 17.3622 47.3509 19.7438 44.4557 19.7438Z" fill="#00FFFF"/>
<path d="M64.5095 7.05189C64.7851 7.05189 65.0769 7.05189 65.0769 6.72767C65.0769 6.40344 64.7851 6.40344 64.5095 6.40344H55.7393C55.4637 6.40344 55.1719 6.40344 55.1719 6.72767C55.1719 7.05189 55.4637 7.05189 55.7393 7.05189H64.5095Z" fill="#00FFFF"/>
<path d="M71.1038 0.389069C71.1038 0.0162108 71.1038 0 70.7795 0C70.3905 0.437702 69.5799 1.03752 67.9102 1.03752V1.50764C68.283 1.50764 69.0936 1.50764 69.9852 1.08615V9.53219C69.9852 10.1158 69.9366 10.3103 68.51 10.3103H68.0074V10.7804C68.4451 10.748 70.0176 10.748 70.5526 10.748C71.0876 10.748 72.6438 10.748 73.0815 10.7804V10.3103H72.579C71.1524 10.3103 71.1038 10.1158 71.1038 9.53219V0.389069Z" fill="#00FFFF"/>
<path d="M78.9039 17.8292C78.0867 19.2068 77.2929 19.6738 76.1721 19.7438C75.9153 19.7672 75.7285 19.7672 75.7285 20.1874C75.7285 20.3275 75.8453 20.4209 76.0087 20.4209C76.429 20.4209 77.4797 20.3742 77.8999 20.3742C78.5771 20.3742 79.3242 20.4209 79.978 20.4209C80.1181 20.4209 80.3982 20.4209 80.3982 19.9773C80.3982 19.7672 80.2115 19.7438 80.0714 19.7438C79.5343 19.6971 79.0907 19.5103 79.0907 18.95C79.0907 18.6231 79.2308 18.3663 79.5343 17.8526L81.3088 14.9107H87.2627C87.2861 15.1208 87.2861 15.3076 87.3094 15.5177C87.3795 16.1248 87.6597 18.553 87.6597 18.9967C87.6597 19.6971 86.4689 19.7438 86.0953 19.7438C85.8385 19.7438 85.5816 19.7438 85.5816 20.1641C85.5816 20.4209 85.7918 20.4209 85.9319 20.4209C86.3288 20.4209 86.7958 20.3742 87.1927 20.3742H88.5236C89.9478 20.3742 90.9752 20.4209 90.9985 20.4209C91.162 20.4209 91.4188 20.4209 91.4188 19.9773C91.4188 19.7438 91.2087 19.7438 90.8584 19.7438C89.5743 19.7438 89.5509 19.5337 89.4809 18.8332L88.0566 4.26367C88.0099 3.7967 87.9165 3.75 87.6597 3.75C87.4262 3.75 87.2861 3.7967 87.076 4.14693L78.9039 17.8292ZM81.7058 14.2335L86.3988 6.3884L87.1927 14.2335H81.7058Z" fill="#00FFFF"/>
<path d="M102.756 7.05189C103.031 7.05189 103.323 7.05189 103.323 6.72767C103.323 6.40344 103.031 6.40344 102.756 6.40344H93.9854C93.7098 6.40344 93.418 6.40344 93.418 6.72767C93.418 7.05189 93.7098 7.05189 93.9854 7.05189H102.756Z" fill="#00FFFF"/>
<path d="M109.35 0.389069C109.35 0.0162108 109.35 0 109.026 0C108.637 0.437702 107.826 1.03752 106.156 1.03752V1.50764C106.529 1.50764 107.34 1.50764 108.231 1.08615V9.53219C108.231 10.1158 108.183 10.3103 106.756 10.3103H106.254V10.7804C106.691 10.748 108.264 10.748 108.799 10.748C109.334 10.748 110.89 10.748 111.328 10.7804V10.3103H110.825C109.398 10.3103 109.35 10.1158 109.35 9.53219V0.389069Z" fill="#00FFFF"/>
<path d="M134.679 12.926C135.03 12.926 135.38 12.926 135.38 12.529C135.38 12.1088 134.983 12.1088 134.586 12.1088H121.534C121.137 12.1088 120.74 12.1088 120.74 12.529C120.74 12.926 121.09 12.926 121.441 12.926H134.679ZM134.586 17.082C134.983 17.082 135.38 17.082 135.38 16.6618C135.38 16.2648 135.03 16.2648 134.679 16.2648H121.441C121.09 16.2648 120.74 16.2648 120.74 16.6618C120.74 17.082 121.137 17.082 121.534 17.082H134.586Z" fill="#00FFFF"/>
<path d="M151.552 6.20156C151.762 5.38435 151.809 5.15087 153.513 5.15087C154.027 5.15087 154.214 5.15087 154.214 4.70724C154.214 4.47375 153.957 4.47375 153.887 4.47375C153.467 4.47375 152.953 4.52045 152.533 4.52045H149.661C149.194 4.52045 148.657 4.47375 148.19 4.47375C148.003 4.47375 147.746 4.47375 147.746 4.91738C147.746 5.15087 147.933 5.15087 148.4 5.15087C149.848 5.15087 149.848 5.33765 149.848 5.59449C149.848 5.75793 149.801 5.89802 149.754 6.10816L146.602 18.6931C146.392 19.5103 146.345 19.7438 144.641 19.7438C144.127 19.7438 143.917 19.7438 143.917 20.1874C143.917 20.4209 144.15 20.4209 144.267 20.4209C144.687 20.4209 145.201 20.3742 145.621 20.3742H148.493C148.96 20.3742 149.474 20.4209 149.941 20.4209C150.128 20.4209 150.408 20.4209 150.408 20.0006C150.408 19.7438 150.268 19.7438 149.754 19.7438C148.307 19.7438 148.307 19.557 148.307 19.2768C148.307 19.2301 148.307 19.1134 148.4 18.7398L151.552 6.20156Z" fill="#00FFFF"/>
<line x1="24.8887" y1="23" x2="24.8887" y2="39" stroke="#00FFFF"/>
<line x1="24.3887" y1="38.5" x2="43.3887" y2="38.5" stroke="#00FFFF"/>
<line x1="43.8887" y1="23" x2="43.8887" y2="39" stroke="#00FFFF"/>
<line x1="8.88867" y1="27" x2="8.88867" y2="69" stroke="#00FFFF"/>
<line x1="8.38867" y1="68.5" x2="82.3887" y2="68.5" stroke="#00FFFF"/>
<line x1="82.8887" y1="27" x2="82.8887" y2="69" stroke="#00FFFF"/>
<path d="M36.0237 43.7278C36.2338 42.9106 36.2805 42.6771 37.985 42.6771C38.4986 42.6771 38.6854 42.6771 38.6854 42.2335C38.6854 42 38.4286 42 38.3585 42C37.9383 42 37.4246 42.0467 37.0043 42.0467H34.1324C33.6655 42.0467 33.1284 42 32.6615 42C32.4747 42 32.2179 42 32.2179 42.4436C32.2179 42.6771 32.4046 42.6771 32.8716 42.6771C34.3192 42.6771 34.3192 42.8639 34.3192 43.1207C34.3192 43.2842 34.2725 43.4243 34.2258 43.6344L31.0738 56.2193C30.8636 57.0365 30.8169 57.27 29.1125 57.27C28.5988 57.27 28.3887 57.27 28.3887 57.7136C28.3887 57.9471 28.6222 57.9471 28.7389 57.9471C29.1592 57.9471 29.6728 57.9004 30.0931 57.9004H32.965C33.432 57.9004 33.9456 57.9471 34.4126 57.9471C34.5994 57.9471 34.8796 57.9471 34.8796 57.5269C34.8796 57.27 34.7395 57.27 34.2258 57.27C32.7782 57.27 32.7782 57.0832 32.7782 56.803C32.7782 56.7563 32.7782 56.6396 32.8716 56.266L36.0237 43.7278Z" fill="#00FFFF"/>
<path d="M50.0237 77.7278C50.2338 76.9106 50.2805 76.6771 51.985 76.6771C52.4986 76.6771 52.6854 76.6771 52.6854 76.2335C52.6854 76 52.4286 76 52.3585 76C51.9383 76 51.4246 76.0467 51.0043 76.0467H48.1324C47.6655 76.0467 47.1284 76 46.6615 76C46.4747 76 46.2179 76 46.2179 76.4436C46.2179 76.6771 46.4046 76.6771 46.8716 76.6771C48.3192 76.6771 48.3192 76.8639 48.3192 77.1207C48.3192 77.2842 48.2725 77.4243 48.2258 77.6344L45.0738 90.2193C44.8636 91.0365 44.8169 91.27 43.1125 91.27C42.5988 91.27 42.3887 91.27 42.3887 91.7136C42.3887 91.9471 42.6222 91.9471 42.7389 91.9471C43.1592 91.9471 43.6728 91.9004 44.0931 91.9004H46.965C47.432 91.9004 47.9456 91.9471 48.4126 91.9471C48.5994 91.9471 48.8796 91.9471 48.8796 91.5269C48.8796 91.27 48.7395 91.27 48.2258 91.27C46.7782 91.27 46.7782 91.0832 46.7782 90.803C46.7782 90.7563 46.7782 90.6396 46.8716 90.266L50.0237 77.7278Z" fill="#00FFFF"/>
</svg>
