<svg width="154" height="21" viewBox="0 0 154 21" fill="none" xmlns="http://www.w3.org/2000/svg">
<path d="M7.81354 6.06152C8.02368 5.19762 8.11707 5.15093 9.02767 5.15093H12.063C14.7014 5.15093 14.7014 7.3924 14.7014 7.60253C14.7014 9.49378 12.8102 11.8987 9.72813 11.8987H6.36593L7.81354 6.06152ZM11.7595 12.0855C14.3045 11.6185 16.616 9.84401 16.616 7.69593C16.616 5.87473 15.0049 4.47382 12.3665 4.47382H4.87161C4.42799 4.47382 4.21785 4.47382 4.21785 4.91744C4.21785 5.15093 4.42799 5.15093 4.77822 5.15093C6.20249 5.15093 6.20249 5.33772 6.20249 5.59455C6.20249 5.64125 6.20249 5.78134 6.10909 6.13157L2.95702 18.6931C2.74689 19.5103 2.70019 19.7438 1.06578 19.7438C0.622158 19.7438 0.388672 19.7438 0.388672 20.1641C0.388672 20.4209 0.528764 20.4209 0.995737 20.4209H9.00432C12.5767 20.4209 15.3318 17.7125 15.3318 15.3543C15.3318 13.4397 13.6507 12.2723 11.7595 12.0855ZM8.44396 19.7438H5.29189C4.96501 19.7438 4.91831 19.7438 4.77822 19.7205C4.52138 19.6971 4.49803 19.6504 4.49803 19.4636C4.49803 19.3002 4.54473 19.1601 4.59143 18.95L6.22583 12.3657H10.6154C13.3705 12.3657 13.3705 14.934 13.3705 15.1208C13.3705 17.3623 11.3392 19.7438 8.44396 19.7438Z" fill="#00FFFF"/>
<path d="M28.4978 7.05189C28.7734 7.05189 29.0652 7.05189 29.0652 6.72767C29.0652 6.40344 28.7734 6.40344 28.4978 6.40344H19.7275C19.452 6.40344 19.1602 6.40344 19.1602 6.72767C19.1602 7.05189 19.452 7.05189 19.7275 7.05189H28.4978Z" fill="#00FFFF"/>
<path d="M35.092 0.389069C35.092 0.0162108 35.092 0 34.7678 0C34.3788 0.437702 33.5682 1.03752 31.8984 1.03752V1.50764C32.2713 1.50764 33.0819 1.50764 33.9735 1.08615V9.53219C33.9735 10.1158 33.9248 10.3103 32.4983 10.3103H31.9957V10.7804C32.4334 10.748 34.0059 10.748 34.5409 10.748C35.0758 10.748 36.6321 10.748 37.0698 10.7804V10.3103H36.5673C35.1407 10.3103 35.092 10.1158 35.092 9.53219V0.389069Z" fill="#00FFFF"/>
<path d="M42.8922 17.8292C42.075 19.2068 41.2812 19.6738 40.1604 19.7438C39.9036 19.7672 39.7168 19.7672 39.7168 20.1874C39.7168 20.3275 39.8335 20.4209 39.997 20.4209C40.4173 20.4209 41.4679 20.3742 41.8882 20.3742C42.5653 20.3742 43.3125 20.4209 43.9663 20.4209C44.1063 20.4209 44.3865 20.4209 44.3865 19.9773C44.3865 19.7672 44.1997 19.7438 44.0596 19.7438C43.5226 19.6971 43.079 19.5103 43.079 18.95C43.079 18.6231 43.2191 18.3663 43.5226 17.8526L45.2971 14.9107H51.251C51.2744 15.1208 51.2744 15.3076 51.2977 15.5177C51.3678 16.1248 51.648 18.553 51.648 18.9967C51.648 19.6971 50.4572 19.7438 50.0836 19.7438C49.8268 19.7438 49.5699 19.7438 49.5699 20.1641C49.5699 20.4209 49.7801 20.4209 49.9202 20.4209C50.3171 20.4209 50.7841 20.3742 51.181 20.3742H52.5119C53.9361 20.3742 54.9635 20.4209 54.9868 20.4209C55.1503 20.4209 55.4071 20.4209 55.4071 19.9773C55.4071 19.7438 55.197 19.7438 54.8467 19.7438C53.5625 19.7438 53.5392 19.5337 53.4692 18.8332L52.0449 4.26367C51.9982 3.7967 51.9048 3.75 51.648 3.75C51.4145 3.75 51.2744 3.7967 51.0642 4.14693L42.8922 17.8292ZM45.6941 14.2335L50.3871 6.3884L51.181 14.2335H45.6941Z" fill="#00FFFF"/>
<path d="M66.7439 7.05189C67.0195 7.05189 67.3113 7.05189 67.3113 6.72767C67.3113 6.40344 67.0195 6.40344 66.7439 6.40344H57.9736C57.6981 6.40344 57.4062 6.40344 57.4062 6.72767C57.4062 7.05189 57.6981 7.05189 57.9736 7.05189H66.7439Z" fill="#00FFFF"/>
<path d="M73.3381 0.389069C73.3381 0.0162108 73.3381 0 73.0139 0C72.6248 0.437702 71.8143 1.03752 70.1445 1.03752V1.50764C70.5174 1.50764 71.3279 1.50764 72.2196 1.08615V9.53219C72.2196 10.1158 72.1709 10.3103 70.7443 10.3103H70.2418V10.7804C70.6795 10.748 72.252 10.748 72.787 10.748C73.3219 10.748 74.8782 10.748 75.3159 10.7804V10.3103H74.8134C73.3868 10.3103 73.3381 10.1158 73.3381 9.53219V0.389069Z" fill="#00FFFF"/>
<path d="M81.1383 17.8292C80.3211 19.2068 79.5273 19.6738 78.4065 19.7438C78.1497 19.7672 77.9629 19.7672 77.9629 20.1874C77.9629 20.3275 78.0796 20.4209 78.2431 20.4209C78.6633 20.4209 79.714 20.3742 80.1343 20.3742C80.8114 20.3742 81.5586 20.4209 82.2123 20.4209C82.3524 20.4209 82.6326 20.4209 82.6326 19.9773C82.6326 19.7672 82.4458 19.7438 82.3057 19.7438C81.7687 19.6971 81.3251 19.5103 81.3251 18.95C81.3251 18.6231 81.4652 18.3663 81.7687 17.8526L83.5432 14.9107H89.4971C89.5205 15.1208 89.5205 15.3076 89.5438 15.5177C89.6139 16.1248 89.894 18.553 89.894 18.9967C89.894 19.6971 88.7033 19.7438 88.3297 19.7438C88.0729 19.7438 87.816 19.7438 87.816 20.1641C87.816 20.4209 88.0262 20.4209 88.1662 20.4209C88.5632 20.4209 89.0302 20.3742 89.4271 20.3742H90.7579C92.1822 20.3742 93.2096 20.4209 93.2329 20.4209C93.3963 20.4209 93.6532 20.4209 93.6532 19.9773C93.6532 19.7438 93.443 19.7438 93.0928 19.7438C91.8086 19.7438 91.7853 19.5337 91.7152 18.8332L90.291 4.26367C90.2443 3.7967 90.1509 3.75 89.894 3.75C89.6606 3.75 89.5205 3.7967 89.3103 4.14693L81.1383 17.8292ZM83.9401 14.2335L88.6332 6.3884L89.4271 14.2335H83.9401Z" fill="#00FFFF"/>
<path d="M102.854 6.06152C103.064 5.19762 103.157 5.15093 104.068 5.15093H107.103C109.741 5.15093 109.741 7.3924 109.741 7.60253C109.741 9.49378 107.85 11.8987 104.768 11.8987H101.406L102.854 6.06152ZM106.8 12.0855C109.345 11.6185 111.656 9.84401 111.656 7.69593C111.656 5.87473 110.045 4.47382 107.407 4.47382H99.9117C99.468 4.47382 99.2579 4.47382 99.2579 4.91744C99.2579 5.15093 99.468 5.15093 99.8183 5.15093C101.243 5.15093 101.243 5.33772 101.243 5.59455C101.243 5.64125 101.243 5.78134 101.149 6.13157L97.9971 18.6931C97.7869 19.5103 97.7402 19.7438 96.1058 19.7438C95.6622 19.7438 95.4287 19.7438 95.4287 20.1641C95.4287 20.4209 95.5688 20.4209 96.0358 20.4209H104.044C107.617 20.4209 110.372 17.7125 110.372 15.3543C110.372 13.4397 108.691 12.2723 106.8 12.0855ZM103.484 19.7438H100.332C100.005 19.7438 99.9583 19.7438 99.8183 19.7205C99.5614 19.6971 99.5381 19.6504 99.5381 19.4636C99.5381 19.3002 99.5848 19.1601 99.6315 18.95L101.266 12.3657H105.655C108.411 12.3657 108.411 14.934 108.411 15.1208C108.411 17.3623 106.379 19.7438 103.484 19.7438Z" fill="#00FFFF"/>
<path d="M134.353 12.926C134.703 12.926 135.054 12.926 135.054 12.529C135.054 12.1088 134.657 12.1088 134.26 12.1088H121.208C120.811 12.1088 120.414 12.1088 120.414 12.529C120.414 12.926 120.764 12.926 121.115 12.926H134.353ZM134.26 17.082C134.657 17.082 135.054 17.082 135.054 16.6618C135.054 16.2648 134.703 16.2648 134.353 16.2648H121.115C120.764 16.2648 120.414 16.2648 120.414 16.6618C120.414 17.082 120.811 17.082 121.208 17.082H134.26Z" fill="#00FFFF"/>
<path d="M151.225 6.20162C151.435 5.38441 151.482 5.15093 153.186 5.15093C153.7 5.15093 153.887 5.15093 153.887 4.7073C153.887 4.47382 153.63 4.47382 153.56 4.47382C153.139 4.47382 152.626 4.52051 152.205 4.52051H149.334C148.867 4.52051 148.33 4.47382 147.863 4.47382C147.676 4.47382 147.419 4.47382 147.419 4.91744C147.419 5.15093 147.606 5.15093 148.073 5.15093C149.52 5.15093 149.52 5.33772 149.52 5.59455C149.52 5.75799 149.474 5.89808 149.427 6.10822L146.275 18.6931C146.065 19.5103 146.018 19.7438 144.314 19.7438C143.8 19.7438 143.59 19.7438 143.59 20.1875C143.59 20.4209 143.823 20.4209 143.94 20.4209C144.36 20.4209 144.874 20.3742 145.294 20.3742H148.166C148.633 20.3742 149.147 20.4209 149.614 20.4209C149.801 20.4209 150.081 20.4209 150.081 20.0007C150.081 19.7438 149.941 19.7438 149.427 19.7438C147.979 19.7438 147.979 19.557 147.979 19.2769C147.979 19.2302 147.979 19.1134 148.073 18.7398L151.225 6.20162Z" fill="#00FFFF"/>
</svg>
