<svg width="91" height="27" viewBox="0 0 91 27" fill="none" xmlns="http://www.w3.org/2000/svg">
<path d="M5.43198 26.118C5.43198 26.0947 5.43198 26.048 5.36193 25.9779C4.2879 24.8805 1.41601 21.8919 1.41601 14.6071C1.41601 7.32235 4.2412 4.35707 5.38528 3.18963C5.38528 3.16629 5.43198 3.11959 5.43198 3.04954C5.43198 2.9795 5.36193 2.9328 5.26854 2.9328C5.0117 2.9328 3.02707 4.6606 1.88299 7.22895C0.715553 9.82065 0.388672 12.3423 0.388672 14.5838C0.388672 16.2649 0.552113 19.1134 1.95303 22.1254C3.07377 24.5536 4.98836 26.2581 5.26854 26.2581C5.38528 26.2581 5.43198 26.2114 5.43198 26.118Z" fill="#00FFFF"/>
<path d="M15.1016 6.06152C15.3118 5.19762 15.4052 5.15093 16.3158 5.15093H19.3511C21.9895 5.15093 21.9895 7.3924 21.9895 7.60253C21.9895 9.49378 20.0982 11.8987 17.0162 11.8987H13.654L15.1016 6.06152ZM19.0475 12.0855C21.5926 11.6185 23.9041 9.84401 23.9041 7.69593C23.9041 5.87473 22.293 4.47382 19.6546 4.47382H12.1597C11.7161 4.47382 11.5059 4.47382 11.5059 4.91744C11.5059 5.15093 11.7161 5.15093 12.0663 5.15093C13.4906 5.15093 13.4906 5.33772 13.4906 5.59455C13.4906 5.64125 13.4906 5.78134 13.3972 6.13157L10.2451 18.6931C10.035 19.5103 9.98827 19.7438 8.35387 19.7438C7.91024 19.7438 7.67676 19.7438 7.67676 20.1641C7.67676 20.4209 7.81685 20.4209 8.28382 20.4209H16.2924C19.8648 20.4209 22.6199 17.7125 22.6199 15.3543C22.6199 13.4397 20.9388 12.2723 19.0475 12.0855ZM15.732 19.7438H12.58C12.2531 19.7438 12.2064 19.7438 12.0663 19.7205C11.8095 19.6971 11.7861 19.6504 11.7861 19.4636C11.7861 19.3002 11.8328 19.1601 11.8795 18.95L13.5139 12.3657H17.9035C20.6586 12.3657 20.6586 14.934 20.6586 15.1208C20.6586 17.3623 18.6273 19.7438 15.732 19.7438Z" fill="#00FFFF"/>
<path d="M35.7849 7.05189C36.0605 7.05189 36.3523 7.05189 36.3523 6.72767C36.3523 6.40344 36.0605 6.40344 35.7849 6.40344H27.0147C26.7391 6.40344 26.4473 6.40344 26.4473 6.72767C26.4473 7.05189 26.7391 7.05189 27.0147 7.05189H35.7849Z" fill="#00FFFF"/>
<path d="M42.3801 0.389069C42.3801 0.0162108 42.3801 0 42.0559 0C41.6668 0.437702 40.8563 1.03752 39.1865 1.03752V1.50764C39.5594 1.50764 40.3699 1.50764 41.2616 1.08615V9.53219C41.2616 10.1158 41.2129 10.3103 39.7863 10.3103H39.2838V10.7804C39.7215 10.748 41.294 10.748 41.8289 10.748C42.3639 10.748 43.9202 10.748 44.3579 10.7804V10.3103H43.8553C42.4288 10.3103 42.3801 10.1158 42.3801 9.53219V0.389069Z" fill="#00FFFF"/>
<path d="M50.1793 17.8292C49.3621 19.2068 48.5683 19.6738 47.4475 19.7438C47.1907 19.7672 47.0039 19.7672 47.0039 20.1874C47.0039 20.3275 47.1206 20.4209 47.2841 20.4209C47.7044 20.4209 48.7551 20.3742 49.1753 20.3742C49.8524 20.3742 50.5996 20.4209 51.2534 20.4209C51.3935 20.4209 51.6736 20.4209 51.6736 19.9773C51.6736 19.7672 51.4868 19.7438 51.3468 19.7438C50.8097 19.6971 50.3661 19.5103 50.3661 18.95C50.3661 18.6231 50.5062 18.3663 50.8097 17.8526L52.5842 14.9107H58.5381C58.5615 15.1208 58.5615 15.3076 58.5848 15.5177C58.6549 16.1248 58.9351 18.553 58.9351 18.9967C58.9351 19.6971 57.7443 19.7438 57.3707 19.7438C57.1139 19.7438 56.857 19.7438 56.857 20.1641C56.857 20.4209 57.0672 20.4209 57.2073 20.4209C57.6042 20.4209 58.0712 20.3742 58.4681 20.3742H59.799C61.2232 20.3742 62.2506 20.4209 62.2739 20.4209C62.4374 20.4209 62.6942 20.4209 62.6942 19.9773C62.6942 19.7438 62.4841 19.7438 62.1338 19.7438C60.8497 19.7438 60.8263 19.5337 60.7563 18.8332L59.332 4.26367C59.2853 3.7967 59.1919 3.75 58.9351 3.75C58.7016 3.75 58.5615 3.7967 58.3513 4.14693L50.1793 17.8292ZM52.9812 14.2335L57.6742 6.3884L58.4681 14.2335H52.9812Z" fill="#00FFFF"/>
<path d="M74.032 7.05189C74.3076 7.05189 74.5994 7.05189 74.5994 6.72767C74.5994 6.40344 74.3076 6.40344 74.032 6.40344H65.2617C64.9861 6.40344 64.6943 6.40344 64.6943 6.72767C64.6943 7.05189 64.9861 7.05189 65.2617 7.05189H74.032Z" fill="#00FFFF"/>
<path d="M80.6262 0.389069C80.6262 0.0162108 80.6262 0 80.302 0C79.9129 0.437702 79.1024 1.03752 77.4326 1.03752V1.50764C77.8055 1.50764 78.616 1.50764 79.5077 1.08615V9.53219C79.5077 10.1158 79.459 10.3103 78.0324 10.3103H77.5299V10.7804C77.9676 10.748 79.5401 10.748 80.075 10.748C80.61 10.748 82.1663 10.748 82.604 10.7804V10.3103H82.1014C80.6749 10.3103 80.6262 10.1158 80.6262 9.53219V0.389069Z" fill="#00FFFF"/>
<path d="M90.598 14.6071C90.598 12.926 90.4346 10.0775 89.0336 7.06551C87.9129 4.63725 85.9983 2.9328 85.7181 2.9328C85.6481 2.9328 85.5547 2.95615 85.5547 3.07289C85.5547 3.11959 85.578 3.14294 85.6014 3.18963C86.7221 4.35707 89.5707 7.32235 89.5707 14.5838C89.5707 21.8686 86.7455 24.8338 85.6014 26.0013C85.578 26.048 85.5547 26.0713 85.5547 26.118C85.5547 26.2348 85.6481 26.2581 85.7181 26.2581C85.975 26.2581 87.9596 24.5303 89.1037 21.9619C90.2711 19.3702 90.598 16.8486 90.598 14.6071Z" fill="#00FFFF"/>
</svg>
