<svg width="97" height="21" viewBox="0 0 97 21" fill="none" xmlns="http://www.w3.org/2000/svg">
<path d="M3.56409 17.8292C2.74688 19.2068 1.95303 19.6738 0.832296 19.7438C0.575461 19.7672 0.388672 19.7672 0.388672 20.1874C0.388672 20.3275 0.505414 20.4209 0.668855 20.4209C1.08913 20.4209 2.13982 20.3742 2.5601 20.3742C3.23721 20.3742 3.98436 20.4209 4.63813 20.4209C4.77822 20.4209 5.0584 20.4209 5.0584 19.9773C5.0584 19.7672 4.87161 19.7438 4.73152 19.7438C4.1945 19.6971 3.75088 19.5103 3.75088 18.95C3.75088 18.6231 3.89097 18.3663 4.1945 17.8526L5.969 14.9107H11.9229C11.9463 15.1208 11.9463 15.3076 11.9696 15.5177C12.0396 16.1248 12.3198 18.553 12.3198 18.9967C12.3198 19.6971 11.129 19.7438 10.7555 19.7438C10.4986 19.7438 10.2418 19.7438 10.2418 20.1641C10.2418 20.4209 10.4519 20.4209 10.592 20.4209C10.989 20.4209 11.4559 20.3742 11.8529 20.3742H13.1837C14.608 20.3742 15.6353 20.4209 15.6587 20.4209C15.8221 20.4209 16.079 20.4209 16.079 19.9773C16.079 19.7438 15.8688 19.7438 15.5186 19.7438C14.2344 19.7438 14.2111 19.5337 14.141 18.8332L12.7168 4.26367C12.6701 3.7967 12.5767 3.75 12.3198 3.75C12.0863 3.75 11.9463 3.7967 11.7361 4.14693L3.56409 17.8292ZM6.36593 14.2335L11.059 6.3884L11.8529 14.2335H6.36593Z" fill="#00FFFF"/>
<path d="M20.7028 17.8292C19.8856 19.2068 19.0917 19.6738 17.971 19.7438C17.7141 19.7672 17.5273 19.7672 17.5273 20.1874C17.5273 20.3275 17.6441 20.4209 17.8075 20.4209C18.2278 20.4209 19.2785 20.3742 19.6988 20.3742C20.3759 20.3742 21.123 20.4209 21.7768 20.4209C21.9169 20.4209 22.1971 20.4209 22.1971 19.9773C22.1971 19.7672 22.0103 19.7438 21.8702 19.7438C21.3332 19.6971 20.8895 19.5103 20.8895 18.95C20.8895 18.6231 21.0296 18.3663 21.3332 17.8526L23.1077 14.9107H29.0616C29.0849 15.1208 29.0849 15.3076 29.1083 15.5177C29.1783 16.1248 29.4585 18.553 29.4585 18.9967C29.4585 19.6971 28.2677 19.7438 27.8941 19.7438C27.6373 19.7438 27.3805 19.7438 27.3805 20.1641C27.3805 20.4209 27.5906 20.4209 27.7307 20.4209C28.1276 20.4209 28.5946 20.3742 28.9915 20.3742H30.3224C31.7467 20.3742 32.774 20.4209 32.7974 20.4209C32.9608 20.4209 33.2176 20.4209 33.2176 19.9773C33.2176 19.7438 33.0075 19.7438 32.6573 19.7438C31.3731 19.7438 31.3497 19.5337 31.2797 18.8332L29.8554 4.26367C29.8087 3.7967 29.7153 3.75 29.4585 3.75C29.225 3.75 29.0849 3.7967 28.8748 4.14693L20.7028 17.8292ZM23.5046 14.2335L28.1977 6.3884L28.9915 14.2335H23.5046Z" fill="#00FFFF"/>
<path d="M44.5544 7.05189C44.83 7.05189 45.1218 7.05189 45.1218 6.72767C45.1218 6.40344 44.83 6.40344 44.5544 6.40344H35.7842C35.5086 6.40344 35.2168 6.40344 35.2168 6.72767C35.2168 7.05189 35.5086 7.05189 35.7842 7.05189H44.5544Z" fill="#00FFFF"/>
<path d="M51.1497 0.389069C51.1497 0.0162108 51.1497 0 50.8254 0C50.4364 0.437702 49.6258 1.03752 47.9561 1.03752V1.50764C48.3289 1.50764 49.1395 1.50764 50.0311 1.08615V9.53219C50.0311 10.1158 49.9825 10.3103 48.5559 10.3103H48.0533V10.7804C48.491 10.748 50.0635 10.748 50.5985 10.748C51.1335 10.748 52.6897 10.748 53.1274 10.7804V10.3103H52.6249C51.1983 10.3103 51.1497 10.1158 51.1497 9.53219V0.389069Z" fill="#00FFFF"/>
<path d="M76.4792 12.926C76.8294 12.926 77.1796 12.926 77.1796 12.5291C77.1796 12.1088 76.7827 12.1088 76.3858 12.1088H63.3339C62.937 12.1088 62.54 12.1088 62.54 12.5291C62.54 12.926 62.8903 12.926 63.2405 12.926H76.4792ZM76.3858 17.0821C76.7827 17.0821 77.1796 17.0821 77.1796 16.6618C77.1796 16.2649 76.8294 16.2649 76.4792 16.2649H63.2405C62.8903 16.2649 62.54 16.2649 62.54 16.6618C62.54 17.0821 62.937 17.0821 63.3339 17.0821H76.3858Z" fill="#00FFFF"/>
<path d="M93.3508 6.20162C93.561 5.38441 93.6077 5.15093 95.3121 5.15093C95.8258 5.15093 96.0126 5.15093 96.0126 4.7073C96.0126 4.47382 95.7557 4.47382 95.6857 4.47382C95.2654 4.47382 94.7517 4.52051 94.3315 4.52051H91.4596C90.9926 4.52051 90.4556 4.47382 89.9886 4.47382C89.8018 4.47382 89.545 4.47382 89.545 4.91744C89.545 5.15093 89.7318 5.15093 90.1988 5.15093C91.6464 5.15093 91.6464 5.33772 91.6464 5.59455C91.6464 5.75799 91.5997 5.89808 91.553 6.10822L88.4009 18.6931C88.1908 19.5103 88.1441 19.7438 86.4396 19.7438C85.926 19.7438 85.7158 19.7438 85.7158 20.1875C85.7158 20.4209 85.9493 20.4209 86.0661 20.4209C86.4863 20.4209 87 20.3742 87.4203 20.3742H90.2922C90.7591 20.3742 91.2728 20.4209 91.7398 20.4209C91.9266 20.4209 92.2067 20.4209 92.2067 20.0007C92.2067 19.7438 92.0667 19.7438 91.553 19.7438C90.1054 19.7438 90.1054 19.557 90.1054 19.2769C90.1054 19.2302 90.1054 19.1134 90.1988 18.7398L93.3508 6.20162Z" fill="#00FFFF"/>
</svg>
