<svg width="132" height="27" viewBox="0 0 132 27" fill="none" xmlns="http://www.w3.org/2000/svg">
<path d="M5.43198 26.3288C5.43198 26.3054 5.43198 26.2587 5.36193 26.1887C4.2879 25.0913 1.41601 22.1027 1.41601 14.8179C1.41601 7.5331 4.2412 4.56782 5.38528 3.40039C5.38528 3.37704 5.43198 3.33034 5.43198 3.2603C5.43198 3.19025 5.36193 3.14355 5.26854 3.14355C5.0117 3.14355 3.02707 4.87135 1.88299 7.43971C0.715553 10.0314 0.388672 12.5531 0.388672 14.7945C0.388672 16.4756 0.552113 19.3242 1.95303 22.3361C3.07377 24.7644 4.98836 26.4689 5.26854 26.4689C5.38528 26.4689 5.43198 26.4222 5.43198 26.3288Z" fill="#00FFFF"/>
<path d="M34.3777 7.26258C34.6533 7.26258 34.9451 7.26258 34.9451 6.93836C34.9451 6.61414 34.6533 6.61414 34.3777 6.61414H25.6074C25.3318 6.61414 25.04 6.61414 25.04 6.93836C25.04 7.26258 25.3318 7.26258 25.6074 7.26258H34.3777Z" fill="#00FFFF"/>
<path d="M40.9719 0.599762C40.9719 0.226904 40.9719 0.210693 40.6477 0.210693C40.2586 0.648395 39.4481 1.24821 37.7783 1.24821V1.71833C38.1512 1.71833 38.9617 1.71833 39.8534 1.29684V9.74288C39.8534 10.3265 39.8047 10.521 38.3781 10.521H37.8756V10.9911C38.3133 10.9587 39.8858 10.9587 40.4207 10.9587C40.9557 10.9587 42.512 10.9587 42.9497 10.9911V10.521H42.4471C41.0206 10.521 40.9719 10.3265 40.9719 9.74288V0.599762Z" fill="#00FFFF"/>
<path d="M50.9427 14.8179C50.9427 13.1368 50.7793 10.2882 49.3784 7.27626C48.2576 4.84801 46.343 3.14355 46.0629 3.14355C45.9928 3.14355 45.8994 3.1669 45.8994 3.28365C45.8994 3.33034 45.9228 3.35369 45.9461 3.40039C47.0668 4.56782 49.9154 7.5331 49.9154 14.7945C49.9154 22.0793 47.0902 25.0446 45.9461 26.212C45.9228 26.2587 45.8994 26.2821 45.8994 26.3288C45.8994 26.4455 45.9928 26.4689 46.0629 26.4689C46.3197 26.4689 48.3043 24.7411 49.4484 22.1727C50.6158 19.581 50.9427 17.0593 50.9427 14.8179Z" fill="#00FFFF"/>
<path d="M59.831 1.10236C59.9282 0.713293 59.9607 0.567392 60.2038 0.502547C60.3335 0.470125 60.8685 0.470125 61.2089 0.470125C62.83 0.470125 63.592 0.53497 63.592 1.79944C63.592 2.04261 63.5271 2.65864 63.4298 3.25845L63.4136 3.45299C63.4136 3.51783 63.4785 3.6151 63.5758 3.6151C63.7379 3.6151 63.7379 3.53404 63.7865 3.27466L64.2566 0.40528C64.289 0.259379 64.289 0.226956 64.289 0.178322C64.289 -7.40886e-07 64.1918 0 63.8676 0H55C54.6272 0 54.611 0.0162124 54.5137 0.308013L53.5248 3.22603C53.5086 3.25845 53.46 3.43678 53.46 3.45299C53.46 3.53404 53.5248 3.6151 53.6221 3.6151C53.7518 3.6151 53.7842 3.55025 53.849 3.33951C54.5299 1.37795 54.8703 0.470125 57.0264 0.470125H58.1126C58.5016 0.470125 58.6638 0.470125 58.6638 0.648448C58.6638 0.697082 58.6638 0.729504 58.5827 1.02131L56.4104 9.72672C56.2483 10.359 56.2159 10.5211 54.4975 10.5211C54.0922 10.5211 53.9787 10.5211 53.9787 10.8291C53.9787 10.9912 54.157 10.9912 54.2381 10.9912C54.6434 10.9912 55.0649 10.9588 55.4701 10.9588H57.9991C58.4044 10.9588 58.8421 10.9912 59.2474 10.9912C59.4257 10.9912 59.5878 10.9912 59.5878 10.6832C59.5878 10.5211 59.4743 10.5211 59.0528 10.5211C57.5938 10.5211 57.5938 10.3752 57.5938 10.132C57.5938 10.1158 57.5938 10.0023 57.6587 9.74293L59.831 1.10236Z" fill="#00FFFF"/>
<path d="M89.0399 1.10236C89.1372 0.713293 89.1696 0.567392 89.4128 0.502547C89.5425 0.470125 90.0775 0.470125 90.4179 0.470125C92.039 0.470125 92.8009 0.53497 92.8009 1.79944C92.8009 2.04261 92.7361 2.65864 92.6388 3.25845L92.6226 3.45299C92.6226 3.51783 92.6875 3.6151 92.7847 3.6151C92.9468 3.6151 92.9468 3.53404 92.9955 3.27466L93.4656 0.40528C93.498 0.259379 93.498 0.226956 93.498 0.178322C93.498 -7.40886e-07 93.4008 0 93.0765 0H84.209C83.8362 0 83.8199 0.0162124 83.7227 0.308013L82.7338 3.22603C82.7176 3.25845 82.6689 3.43678 82.6689 3.45299C82.6689 3.53404 82.7338 3.6151 82.8311 3.6151C82.9607 3.6151 82.9932 3.55025 83.058 3.33951C83.7389 1.37795 84.0793 0.470125 86.2354 0.470125H87.3216C87.7106 0.470125 87.8727 0.470125 87.8727 0.648448C87.8727 0.697082 87.8727 0.729504 87.7917 1.02131L85.6194 9.72672C85.4573 10.359 85.4248 10.5211 83.7065 10.5211C83.3012 10.5211 83.1877 10.5211 83.1877 10.8291C83.1877 10.9912 83.366 10.9912 83.4471 10.9912C83.8524 10.9912 84.2739 10.9588 84.6791 10.9588H87.2081C87.6134 10.9588 88.0511 10.9912 88.4563 10.9912C88.6347 10.9912 88.7968 10.9912 88.7968 10.6832C88.7968 10.5211 88.6833 10.5211 88.2618 10.5211C86.8028 10.5211 86.8028 10.3752 86.8028 10.132C86.8028 10.1158 86.8028 10.0023 86.8676 9.74293L89.0399 1.10236Z" fill="#00FFFF"/>
<path d="M115.85 13.1368C116.201 13.1368 116.551 13.1368 116.551 12.7399C116.551 12.3196 116.154 12.3196 115.757 12.3196H102.705C102.308 12.3196 101.911 12.3196 101.911 12.7399C101.911 13.1368 102.261 13.1368 102.612 13.1368H115.85ZM115.757 17.2928C116.154 17.2928 116.551 17.2928 116.551 16.8726C116.551 16.4756 116.201 16.4756 115.85 16.4756H102.612C102.261 16.4756 101.911 16.4756 101.911 16.8726C101.911 17.2928 102.308 17.2928 102.705 17.2928H115.757Z" fill="#00FFFF"/>
<path d="M10.5641 19.0792C9.74688 20.4568 8.95303 20.9238 7.8323 20.9938C7.57546 21.0172 7.38867 21.0172 7.38867 21.4374C7.38867 21.5775 7.50541 21.6709 7.66886 21.6709C8.08913 21.6709 9.13982 21.6242 9.5601 21.6242C10.2372 21.6242 10.9844 21.6709 11.6381 21.6709C11.7782 21.6709 12.0584 21.6709 12.0584 21.2273C12.0584 21.0172 11.8716 20.9938 11.7315 20.9938C11.1945 20.9471 10.7509 20.7603 10.7509 20.2C10.7509 19.8731 10.891 19.6163 11.1945 19.1026L12.969 16.1607H18.9229C18.9463 16.3708 18.9463 16.5576 18.9696 16.7677C19.0396 17.3748 19.3198 19.803 19.3198 20.2467C19.3198 20.9471 18.129 20.9938 17.7555 20.9938C17.4986 20.9938 17.2418 20.9938 17.2418 21.4141C17.2418 21.6709 17.4519 21.6709 17.592 21.6709C17.989 21.6709 18.4559 21.6242 18.8529 21.6242H20.1837C21.608 21.6242 22.6353 21.6709 22.6587 21.6709C22.8221 21.6709 23.079 21.6709 23.079 21.2273C23.079 20.9938 22.8688 20.9938 22.5186 20.9938C21.2344 20.9938 21.2111 20.7837 21.141 20.0832L19.7168 5.51367C19.6701 5.0467 19.5767 5 19.3198 5C19.0863 5 18.9463 5.0467 18.7361 5.39693L10.5641 19.0792ZM13.3659 15.4835L18.059 7.6384L18.8529 15.4835H13.3659Z" fill="#00FFFF"/>
<path d="M66.5641 19.0792C65.7469 20.4568 64.953 20.9238 63.8323 20.9938C63.5755 21.0172 63.3887 21.0172 63.3887 21.4374C63.3887 21.5775 63.5054 21.6709 63.6689 21.6709C64.0891 21.6709 65.1398 21.6242 65.5601 21.6242C66.2372 21.6242 66.9844 21.6709 67.6381 21.6709C67.7782 21.6709 68.0584 21.6709 68.0584 21.2273C68.0584 21.0172 67.8716 20.9938 67.7315 20.9938C67.1945 20.9471 66.7509 20.7603 66.7509 20.2C66.7509 19.8731 66.891 19.6163 67.1945 19.1026L68.969 16.1607H74.9229C74.9463 16.3708 74.9463 16.5576 74.9696 16.7677C75.0396 17.3748 75.3198 19.803 75.3198 20.2467C75.3198 20.9471 74.129 20.9938 73.7555 20.9938C73.4986 20.9938 73.2418 20.9938 73.2418 21.4141C73.2418 21.6709 73.4519 21.6709 73.592 21.6709C73.989 21.6709 74.4559 21.6242 74.8529 21.6242H76.1837C77.608 21.6242 78.6353 21.6709 78.6587 21.6709C78.8221 21.6709 79.079 21.6709 79.079 21.2273C79.079 20.9938 78.8688 20.9938 78.5186 20.9938C77.2344 20.9938 77.2111 20.7837 77.141 20.0832L75.7168 5.51367C75.6701 5.0467 75.5767 5 75.3198 5C75.0863 5 74.9463 5.0467 74.7361 5.39693L66.5641 19.0792ZM69.3659 15.4835L74.059 7.6384L74.8529 15.4835H69.3659Z" fill="#00FFFF"/>
<path d="M129.024 7.7278C129.234 6.9106 129.281 6.67711 130.985 6.67711C131.499 6.67711 131.685 6.67711 131.685 6.23349C131.685 6 131.429 6 131.359 6C130.938 6 130.425 6.0467 130.004 6.0467H127.132C126.665 6.0467 126.128 6 125.661 6C125.475 6 125.218 6 125.218 6.44362C125.218 6.67711 125.405 6.67711 125.872 6.67711C127.319 6.67711 127.319 6.8639 127.319 7.12074C127.319 7.28418 127.273 7.42427 127.226 7.63441L124.074 20.2193C123.864 21.0365 123.817 21.27 122.112 21.27C121.599 21.27 121.389 21.27 121.389 21.7136C121.389 21.9471 121.622 21.9471 121.739 21.9471C122.159 21.9471 122.673 21.9004 123.093 21.9004H125.965C126.432 21.9004 126.946 21.9471 127.413 21.9471C127.599 21.9471 127.88 21.9471 127.88 21.5269C127.88 21.27 127.74 21.27 127.226 21.27C125.778 21.27 125.778 21.0832 125.778 20.803C125.778 20.7563 125.778 20.6396 125.872 20.266L129.024 7.7278Z" fill="#00FFFF"/>
</svg>
