<svg width="154" height="54" viewBox="0 0 154 54" fill="none" xmlns="http://www.w3.org/2000/svg">
<path d="M13.432 26.3288C13.432 26.3054 13.432 26.2587 13.3619 26.1887C12.2879 25.0913 9.41601 22.1027 9.41601 14.8179C9.41601 7.5331 12.2412 4.56782 13.3853 3.40039C13.3853 3.37704 13.432 3.33034 13.432 3.2603C13.432 3.19025 13.3619 3.14355 13.2685 3.14355C13.0117 3.14355 11.0271 4.87135 9.88299 7.43971C8.71555 10.0314 8.38867 12.5531 8.38867 14.7945C8.38867 16.4756 8.55211 19.3242 9.95303 22.3361C11.0738 24.7644 12.9884 26.4689 13.2685 26.4689C13.3853 26.4689 13.432 26.4222 13.432 26.3288Z" fill="#00FFFF"/>
<path d="M42.3777 7.26258C42.6533 7.26258 42.9451 7.26258 42.9451 6.93836C42.9451 6.61414 42.6533 6.61414 42.3777 6.61414H33.6074C33.3318 6.61414 33.04 6.61414 33.04 6.93836C33.04 7.26258 33.3318 7.26258 33.6074 7.26258H42.3777Z" fill="#00FFFF"/>
<path d="M48.9719 0.599762C48.9719 0.226904 48.9719 0.210693 48.6477 0.210693C48.2586 0.648395 47.4481 1.24821 45.7783 1.24821V1.71833C46.1512 1.71833 46.9617 1.71833 47.8534 1.29684V9.74288C47.8534 10.3265 47.8047 10.521 46.3781 10.521H45.8756V10.9911C46.3133 10.9587 47.8858 10.9587 48.4207 10.9587C48.9557 10.9587 50.512 10.9587 50.9497 10.9911V10.521H50.4471C49.0206 10.521 48.9719 10.3265 48.9719 9.74288V0.599762Z" fill="#00FFFF"/>
<path d="M58.9427 14.8179C58.9427 13.1368 58.7793 10.2882 57.3784 7.27626C56.2576 4.84801 54.343 3.14355 54.0629 3.14355C53.9928 3.14355 53.8994 3.1669 53.8994 3.28365C53.8994 3.33034 53.9228 3.35369 53.9461 3.40039C55.0668 4.56782 57.9154 7.5331 57.9154 14.7945C57.9154 22.0793 55.0902 25.0446 53.9461 26.212C53.9228 26.2587 53.8994 26.2821 53.8994 26.3288C53.8994 26.4455 53.9928 26.4689 54.0629 26.4689C54.3197 26.4689 56.3043 24.7411 57.4484 22.1727C58.6158 19.581 58.9427 17.0593 58.9427 14.8179Z" fill="#00FFFF"/>
<path d="M67.831 1.10236C67.9282 0.713293 67.9607 0.567392 68.2038 0.502547C68.3335 0.470125 68.8685 0.470125 69.2089 0.470125C70.83 0.470125 71.592 0.53497 71.592 1.79944C71.592 2.04261 71.5271 2.65864 71.4298 3.25845L71.4136 3.45299C71.4136 3.51783 71.4785 3.6151 71.5758 3.6151C71.7379 3.6151 71.7379 3.53404 71.7865 3.27466L72.2566 0.40528C72.289 0.259379 72.289 0.226956 72.289 0.178322C72.289 -7.40886e-07 72.1918 0 71.8676 0H63C62.6272 0 62.611 0.0162124 62.5137 0.308013L61.5248 3.22603C61.5086 3.25845 61.46 3.43678 61.46 3.45299C61.46 3.53404 61.5248 3.6151 61.6221 3.6151C61.7518 3.6151 61.7842 3.55025 61.849 3.33951C62.5299 1.37795 62.8703 0.470125 65.0264 0.470125H66.1126C66.5016 0.470125 66.6638 0.470125 66.6638 0.648448C66.6638 0.697082 66.6638 0.729504 66.5827 1.02131L64.4104 9.72672C64.2483 10.359 64.2159 10.5211 62.4975 10.5211C62.0922 10.5211 61.9787 10.5211 61.9787 10.8291C61.9787 10.9912 62.157 10.9912 62.2381 10.9912C62.6434 10.9912 63.0649 10.9588 63.4701 10.9588H65.9991C66.4044 10.9588 66.8421 10.9912 67.2474 10.9912C67.4257 10.9912 67.5878 10.9912 67.5878 10.6832C67.5878 10.5211 67.4743 10.5211 67.0528 10.5211C65.5938 10.5211 65.5938 10.3752 65.5938 10.132C65.5938 10.1158 65.5938 10.0023 65.6587 9.74293L67.831 1.10236Z" fill="#00FFFF"/>
<path d="M97.0399 1.10236C97.1372 0.713293 97.1696 0.567392 97.4128 0.502547C97.5425 0.470125 98.0775 0.470125 98.4179 0.470125C100.039 0.470125 100.801 0.53497 100.801 1.79944C100.801 2.04261 100.736 2.65864 100.639 3.25845L100.623 3.45299C100.623 3.51783 100.687 3.6151 100.785 3.6151C100.947 3.6151 100.947 3.53404 100.995 3.27466L101.466 0.40528C101.498 0.259379 101.498 0.226956 101.498 0.178322C101.498 -7.40886e-07 101.401 0 101.077 0H92.209C91.8362 0 91.8199 0.0162124 91.7227 0.308013L90.7338 3.22603C90.7176 3.25845 90.6689 3.43678 90.6689 3.45299C90.6689 3.53404 90.7338 3.6151 90.8311 3.6151C90.9607 3.6151 90.9932 3.55025 91.058 3.33951C91.7389 1.37795 92.0793 0.470125 94.2354 0.470125H95.3216C95.7106 0.470125 95.8727 0.470125 95.8727 0.648448C95.8727 0.697082 95.8727 0.729504 95.7917 1.02131L93.6194 9.72672C93.4573 10.359 93.4248 10.5211 91.7065 10.5211C91.3012 10.5211 91.1877 10.5211 91.1877 10.8291C91.1877 10.9912 91.366 10.9912 91.4471 10.9912C91.8524 10.9912 92.2739 10.9588 92.6791 10.9588H95.2081C95.6134 10.9588 96.0511 10.9912 96.4563 10.9912C96.6347 10.9912 96.7968 10.9912 96.7968 10.6832C96.7968 10.5211 96.6833 10.5211 96.2618 10.5211C94.8028 10.5211 94.8028 10.3752 94.8028 10.132C94.8028 10.1158 94.8028 10.0023 94.8676 9.74293L97.0399 1.10236Z" fill="#00FFFF"/>
<path d="M123.85 13.1368C124.201 13.1368 124.551 13.1368 124.551 12.7399C124.551 12.3196 124.154 12.3196 123.757 12.3196H110.705C110.308 12.3196 109.911 12.3196 109.911 12.7399C109.911 13.1368 110.261 13.1368 110.612 13.1368H123.85ZM123.757 17.2928C124.154 17.2928 124.551 17.2928 124.551 16.8726C124.551 16.4756 124.201 16.4756 123.85 16.4756H110.612C110.261 16.4756 109.911 16.4756 109.911 16.8726C109.911 17.2928 110.308 17.2928 110.705 17.2928H123.757Z" fill="#00FFFF"/>
<path d="M18.5641 19.0792C17.7469 20.4568 16.953 20.9238 15.8323 20.9938C15.5755 21.0172 15.3887 21.0172 15.3887 21.4374C15.3887 21.5775 15.5054 21.6709 15.6689 21.6709C16.0891 21.6709 17.1398 21.6242 17.5601 21.6242C18.2372 21.6242 18.9844 21.6709 19.6381 21.6709C19.7782 21.6709 20.0584 21.6709 20.0584 21.2273C20.0584 21.0172 19.8716 20.9938 19.7315 20.9938C19.1945 20.9471 18.7509 20.7603 18.7509 20.2C18.7509 19.8731 18.891 19.6163 19.1945 19.1026L20.969 16.1607H26.9229C26.9463 16.3708 26.9463 16.5576 26.9696 16.7677C27.0396 17.3748 27.3198 19.803 27.3198 20.2467C27.3198 20.9471 26.129 20.9938 25.7555 20.9938C25.4986 20.9938 25.2418 20.9938 25.2418 21.4141C25.2418 21.6709 25.4519 21.6709 25.592 21.6709C25.989 21.6709 26.4559 21.6242 26.8529 21.6242H28.1837C29.608 21.6242 30.6353 21.6709 30.6587 21.6709C30.8221 21.6709 31.079 21.6709 31.079 21.2273C31.079 20.9938 30.8688 20.9938 30.5186 20.9938C29.2344 20.9938 29.2111 20.7837 29.141 20.0832L27.7168 5.51367C27.6701 5.0467 27.5767 5 27.3198 5C27.0863 5 26.9463 5.0467 26.7361 5.39693L18.5641 19.0792ZM21.3659 15.4835L26.059 7.6384L26.8529 15.4835H21.3659Z" fill="#00FFFF"/>
<path d="M148.045 38C148.212 38 148.389 38 148.389 37.5C148.389 37 148.212 37 148.045 37H142.732C142.565 37 142.389 37 142.389 37.5C142.389 38 142.565 38 142.732 38H148.045Z" fill="#00FFFF"/>
<path d="M152.241 33.2526C152.241 33.0105 152.241 33 152.053 33C151.828 33.2842 151.357 33.6737 150.389 33.6737V33.9789C150.605 33.9789 151.075 33.9789 151.592 33.7053V39.1895C151.592 39.5684 151.564 39.6947 150.737 39.6947H150.445V40C150.699 39.9789 151.611 39.9789 151.922 39.9789C152.232 39.9789 153.135 39.9789 153.389 40V39.6947H153.097C152.27 39.6947 152.241 39.5684 152.241 39.1895V33.2526Z" fill="#00FFFF"/>
<path d="M133.412 44.4454C132.892 45.2717 132.386 45.5518 131.671 45.5938C131.508 45.6078 131.389 45.6078 131.389 45.8599C131.389 45.944 131.463 46 131.567 46C131.835 46 132.505 45.972 132.773 45.972C133.204 45.972 133.68 46 134.097 46C134.186 46 134.365 46 134.365 45.7339C134.365 45.6078 134.246 45.5938 134.157 45.5938C133.814 45.5658 133.532 45.4538 133.532 45.1176C133.532 44.9216 133.621 44.7675 133.814 44.4594L134.945 42.6947H138.74C138.755 42.8207 138.755 42.9328 138.77 43.0588C138.814 43.423 138.993 44.8796 138.993 45.1457C138.993 45.5658 138.234 45.5938 137.996 45.5938C137.832 45.5938 137.668 45.5938 137.668 45.8459C137.668 46 137.802 46 137.892 46C138.145 46 138.442 45.972 138.695 45.972H139.543C140.451 45.972 141.106 46 141.121 46C141.225 46 141.389 46 141.389 45.7339C141.389 45.5938 141.255 45.5938 141.032 45.5938C140.213 45.5938 140.198 45.4678 140.154 45.0476L139.246 36.3081C139.216 36.028 139.157 36 138.993 36C138.844 36 138.755 36.028 138.621 36.2381L133.412 44.4454ZM135.198 42.2885L138.189 37.5826L138.695 42.2885H135.198Z" fill="#00FFFF"/>
<path d="M43.3887 48.9159C43.3887 48.9019 43.3887 48.8739 43.347 48.8318C42.7081 48.1732 40.9998 46.3794 40.9998 42.007C40.9998 37.6346 42.6803 35.8549 43.3609 35.1542C43.3609 35.1401 43.3887 35.1121 43.3887 35.0701C43.3887 35.028 43.347 35 43.2915 35C43.1387 35 41.9581 36.037 41.2776 37.5786C40.5831 39.1341 40.3887 40.6476 40.3887 41.993C40.3887 43.002 40.4859 44.7117 41.3192 46.5195C41.9859 47.977 43.1248 49 43.2915 49C43.3609 49 43.3887 48.972 43.3887 48.9159Z" fill="#00FFFF"/>
<path d="M70.1023 33C70.2414 33 70.3887 33 70.3887 33.5C70.3887 34 70.2414 34 70.1023 34H65.6751C65.536 34 65.3887 34 65.3887 33.5C65.3887 33 65.536 33 65.6751 33H70.1023Z" fill="#00FFFF"/>
<path d="M72.6238 31.1805C72.6238 31.0075 72.6238 31 72.4984 31C72.3479 31.203 72.0344 31.4812 71.3887 31.4812V31.6992C71.5329 31.6992 71.8464 31.6992 72.1912 31.5038V35.4211C72.1912 35.6917 72.1724 35.782 71.6206 35.782H71.4263V36C71.5956 35.985 72.2037 35.985 72.4106 35.985C72.6175 35.985 73.2194 35.985 73.3887 36V35.782H73.1943C72.6426 35.782 72.6238 35.6917 72.6238 35.4211V31.1805Z" fill="#00FFFF"/>
<path d="M64.3887 42.007C64.3887 40.998 64.2914 39.2883 63.4581 37.4805C62.7914 36.023 61.6526 35 61.4859 35C61.4442 35 61.3887 35.014 61.3887 35.0841C61.3887 35.1121 61.4026 35.1261 61.4165 35.1542C62.0831 35.8549 63.7776 37.6346 63.7776 41.993C63.7776 46.3654 62.097 48.1451 61.4165 48.8458C61.4026 48.8739 61.3887 48.8879 61.3887 48.9159C61.3887 48.986 61.4442 49 61.4859 49C61.6387 49 62.8192 47.963 63.4998 46.4214C64.1942 44.8659 64.3887 43.3524 64.3887 42.007Z" fill="#00FFFF"/>
<path d="M57.3303 34.5015C57.3752 34.3245 57.3902 34.2581 57.5024 34.2286C57.5623 34.2139 57.8093 34.2139 57.9665 34.2139C58.715 34.2139 59.0668 34.2434 59.0668 34.8186C59.0668 34.9292 59.0369 35.2094 58.992 35.4823L58.9845 35.5708C58.9845 35.6003 59.0144 35.6445 59.0593 35.6445C59.1342 35.6445 59.1342 35.6077 59.1566 35.4897L59.3737 34.1844C59.3887 34.118 59.3887 34.1032 59.3887 34.0811C59.3887 34 59.3438 34 59.1941 34H55.0997C54.9276 34 54.9201 34.0074 54.8752 34.1401L54.4186 35.4676C54.4111 35.4823 54.3887 35.5634 54.3887 35.5708C54.3887 35.6077 54.4186 35.6445 54.4635 35.6445C54.5234 35.6445 54.5384 35.615 54.5683 35.5192C54.8827 34.6268 55.0399 34.2139 56.0354 34.2139H56.5369C56.7165 34.2139 56.7914 34.2139 56.7914 34.295C56.7914 34.3171 56.7914 34.3319 56.7539 34.4646L55.7509 38.4248C55.6761 38.7124 55.6611 38.7861 54.8677 38.7861C54.6806 38.7861 54.6282 38.7861 54.6282 38.9263C54.6282 39 54.7105 39 54.748 39C54.9351 39 55.1297 38.9853 55.3168 38.9853H56.4845C56.6716 38.9853 56.8737 39 57.0608 39C57.1432 39 57.218 39 57.218 38.8599C57.218 38.7861 57.1656 38.7861 56.971 38.7861C56.2974 38.7861 56.2974 38.7198 56.2974 38.6091C56.2974 38.6018 56.2974 38.5501 56.3273 38.4322L57.3303 34.5015Z" fill="#00FFFF"/>
<path d="M46.4125 46.2899C45.8916 47.1989 45.3857 47.507 44.6714 47.5532C44.5077 47.5686 44.3887 47.5686 44.3887 47.8459C44.3887 47.9384 44.4631 48 44.5672 48C44.8351 48 45.5047 47.9692 45.7726 47.9692C46.2041 47.9692 46.6803 48 47.097 48C47.1863 48 47.3649 48 47.3649 47.7073C47.3649 47.5686 47.2458 47.5532 47.1565 47.5532C46.8143 47.5224 46.5315 47.3992 46.5315 47.0294C46.5315 46.8137 46.6208 46.6443 46.8143 46.3053L47.9452 44.3641H51.7399C51.7547 44.5028 51.7547 44.6261 51.7696 44.7647C51.8143 45.1653 51.9928 46.7675 51.9928 47.0602C51.9928 47.5224 51.2339 47.5532 50.9958 47.5532C50.8321 47.5532 50.6684 47.5532 50.6684 47.8305C50.6684 48 50.8024 48 50.8916 48C51.1446 48 51.4422 47.9692 51.6952 47.9692H52.5434C53.4512 47.9692 54.1059 48 54.1208 48C54.225 48 54.3887 48 54.3887 47.7073C54.3887 47.5532 54.2547 47.5532 54.0315 47.5532C53.2131 47.5532 53.1982 47.4146 53.1536 46.9524L52.2458 37.3389C52.2161 37.0308 52.1565 37 51.9928 37C51.844 37 51.7547 37.0308 51.6208 37.2619L46.4125 46.2899ZM48.1982 43.9174L51.1893 38.7409L51.6952 43.9174H48.1982Z" fill="#00FFFF"/>
<path d="M74.5641 19.0792C73.7469 20.4568 72.953 20.9238 71.8323 20.9938C71.5755 21.0172 71.3887 21.0172 71.3887 21.4374C71.3887 21.5775 71.5054 21.6709 71.6689 21.6709C72.0891 21.6709 73.1398 21.6242 73.5601 21.6242C74.2372 21.6242 74.9844 21.6709 75.6381 21.6709C75.7782 21.6709 76.0584 21.6709 76.0584 21.2273C76.0584 21.0172 75.8716 20.9938 75.7315 20.9938C75.1945 20.9471 74.7509 20.7603 74.7509 20.2C74.7509 19.8731 74.891 19.6163 75.1945 19.1026L76.969 16.1607H82.9229C82.9463 16.3708 82.9463 16.5576 82.9696 16.7677C83.0396 17.3748 83.3198 19.803 83.3198 20.2467C83.3198 20.9471 82.129 20.9938 81.7555 20.9938C81.4986 20.9938 81.2418 20.9938 81.2418 21.4141C81.2418 21.6709 81.4519 21.6709 81.592 21.6709C81.989 21.6709 82.4559 21.6242 82.8529 21.6242H84.1837C85.608 21.6242 86.6353 21.6709 86.6587 21.6709C86.8221 21.6709 87.079 21.6709 87.079 21.2273C87.079 20.9938 86.8688 20.9938 86.5186 20.9938C85.2344 20.9938 85.2111 20.7837 85.141 20.0832L83.7168 5.51367C83.6701 5.0467 83.5767 5 83.3198 5C83.0863 5 82.9463 5.0467 82.7361 5.39693L74.5641 19.0792ZM77.3659 15.4835L82.059 7.6384L82.8529 15.4835H77.3659Z" fill="#00FFFF"/>
<path d="M137.024 7.7278C137.234 6.9106 137.281 6.67711 138.985 6.67711C139.499 6.67711 139.685 6.67711 139.685 6.23349C139.685 6 139.429 6 139.359 6C138.938 6 138.425 6.0467 138.004 6.0467H135.132C134.665 6.0467 134.128 6 133.661 6C133.475 6 133.218 6 133.218 6.44362C133.218 6.67711 133.405 6.67711 133.872 6.67711C135.319 6.67711 135.319 6.8639 135.319 7.12074C135.319 7.28418 135.273 7.42427 135.226 7.63441L132.074 20.2193C131.864 21.0365 131.817 21.27 130.112 21.27C129.599 21.27 129.389 21.27 129.389 21.7136C129.389 21.9471 129.622 21.9471 129.739 21.9471C130.159 21.9471 130.673 21.9004 131.093 21.9004H133.965C134.432 21.9004 134.946 21.9471 135.413 21.9471C135.599 21.9471 135.88 21.9471 135.88 21.5269C135.88 21.27 135.74 21.27 135.226 21.27C133.778 21.27 133.778 21.0832 133.778 20.803C133.778 20.7563 133.778 20.6396 133.872 20.266L137.024 7.7278Z" fill="#00FFFF"/>
<path d="M7.27344 38.3945H4.53125V46H3.41211V38.3945H0.675781V37.4688H7.27344V38.3945ZM9.45312 40.4277C9.93359 39.8379 10.5586 39.543 11.3281 39.543C12.668 39.543 13.3438 40.2988 13.3555 41.8105V46H12.2715V41.8047C12.2676 41.3477 12.1621 41.0098 11.9551 40.791C11.752 40.5723 11.4336 40.4629 11 40.4629C10.6484 40.4629 10.3398 40.5566 10.0742 40.7441C9.80859 40.9316 9.60156 41.1777 9.45312 41.4824V46H8.36914V37H9.45312V40.4277ZM16.1562 46H15.0723V39.6602H16.1562V46ZM14.9844 37.9785C14.9844 37.8027 15.0371 37.6543 15.1426 37.5332C15.252 37.4121 15.4121 37.3516 15.623 37.3516C15.834 37.3516 15.9941 37.4121 16.1035 37.5332C16.2129 37.6543 16.2676 37.8027 16.2676 37.9785C16.2676 38.1543 16.2129 38.3008 16.1035 38.418C15.9941 38.5352 15.834 38.5938 15.623 38.5938C15.4121 38.5938 15.252 38.5352 15.1426 38.418C15.0371 38.3008 14.9844 38.1543 14.9844 37.9785ZM21.5879 44.3184C21.5879 44.0254 21.4766 43.7988 21.2539 43.6387C21.0352 43.4746 20.6504 43.334 20.0996 43.2168C19.5527 43.0996 19.1172 42.959 18.793 42.7949C18.4727 42.6309 18.2344 42.4355 18.0781 42.209C17.9258 41.9824 17.8496 41.7129 17.8496 41.4004C17.8496 40.8809 18.0684 40.4414 18.5059 40.082C18.9473 39.7227 19.5098 39.543 20.1934 39.543C20.9121 39.543 21.4941 39.7285 21.9395 40.0996C22.3887 40.4707 22.6133 40.9453 22.6133 41.5234H21.5234C21.5234 41.2266 21.3965 40.9707 21.1426 40.7559C20.8926 40.541 20.5762 40.4336 20.1934 40.4336C19.7988 40.4336 19.4902 40.5195 19.2676 40.6914C19.0449 40.8633 18.9336 41.0879 18.9336 41.3652C18.9336 41.627 19.0371 41.8242 19.2441 41.957C19.4512 42.0898 19.8242 42.2168 20.3633 42.3379C20.9062 42.459 21.3457 42.6035 21.6816 42.7715C22.0176 42.9395 22.2656 43.1426 22.4258 43.3809C22.5898 43.6152 22.6719 43.9023 22.6719 44.2422C22.6719 44.8086 22.4453 45.2637 21.9922 45.6074C21.5391 45.9473 20.9512 46.1172 20.2285 46.1172C19.7207 46.1172 19.2715 46.0273 18.8809 45.8477C18.4902 45.668 18.1836 45.418 17.9609 45.0977C17.7422 44.7734 17.6328 44.4238 17.6328 44.0488H18.7168C18.7363 44.4121 18.8809 44.7012 19.1504 44.916C19.4238 45.127 19.7832 45.2324 20.2285 45.2324C20.6387 45.2324 20.9668 45.1504 21.2129 44.9863C21.4629 44.8184 21.5879 44.5957 21.5879 44.3184ZM28.2383 46H27.1543V39.6602H28.2383V46ZM27.0664 37.9785C27.0664 37.8027 27.1191 37.6543 27.2246 37.5332C27.334 37.4121 27.4941 37.3516 27.7051 37.3516C27.916 37.3516 28.0762 37.4121 28.1855 37.5332C28.2949 37.6543 28.3496 37.8027 28.3496 37.9785C28.3496 38.1543 28.2949 38.3008 28.1855 38.418C28.0762 38.5352 27.916 38.5938 27.7051 38.5938C27.4941 38.5938 27.334 38.5352 27.2246 38.418C27.1191 38.3008 27.0664 38.1543 27.0664 37.9785ZM33.6699 44.3184C33.6699 44.0254 33.5586 43.7988 33.3359 43.6387C33.1172 43.4746 32.7324 43.334 32.1816 43.2168C31.6348 43.0996 31.1992 42.959 30.875 42.7949C30.5547 42.6309 30.3164 42.4355 30.1602 42.209C30.0078 41.9824 29.9316 41.7129 29.9316 41.4004C29.9316 40.8809 30.1504 40.4414 30.5879 40.082C31.0293 39.7227 31.5918 39.543 32.2754 39.543C32.9941 39.543 33.5762 39.7285 34.0215 40.0996C34.4707 40.4707 34.6953 40.9453 34.6953 41.5234H33.6055C33.6055 41.2266 33.4785 40.9707 33.2246 40.7559C32.9746 40.541 32.6582 40.4336 32.2754 40.4336C31.8809 40.4336 31.5723 40.5195 31.3496 40.6914C31.127 40.8633 31.0156 41.0879 31.0156 41.3652C31.0156 41.627 31.1191 41.8242 31.3262 41.957C31.5332 42.0898 31.9062 42.2168 32.4453 42.3379C32.9883 42.459 33.4277 42.6035 33.7637 42.7715C34.0996 42.9395 34.3477 43.1426 34.5078 43.3809C34.6719 43.6152 34.7539 43.9023 34.7539 44.2422C34.7539 44.8086 34.5273 45.2637 34.0742 45.6074C33.6211 45.9473 33.0332 46.1172 32.3105 46.1172C31.8027 46.1172 31.3535 46.0273 30.9629 45.8477C30.5723 45.668 30.2656 45.418 30.043 45.0977C29.8242 44.7734 29.7148 44.4238 29.7148 44.0488H30.7988C30.8184 44.4121 30.9629 44.7012 31.2324 44.916C31.5059 45.127 31.8652 45.2324 32.3105 45.2324C32.7207 45.2324 33.0488 45.1504 33.2949 44.9863C33.5449 44.8184 33.6699 44.5957 33.6699 44.3184ZM76.2383 46H75.1133V37.4688H76.2383V46ZM79.1562 39.6602L79.1914 40.457C79.6758 39.8477 80.3086 39.543 81.0898 39.543C82.4297 39.543 83.1055 40.2988 83.1172 41.8105V46H82.0332V41.8047C82.0293 41.3477 81.9238 41.0098 81.7168 40.791C81.5137 40.5723 81.1953 40.4629 80.7617 40.4629C80.4102 40.4629 80.1016 40.5566 79.8359 40.7441C79.5703 40.9316 79.3633 41.1777 79.2148 41.4824V46H78.1309V39.6602H79.1562ZM86.8438 44.5293L88.4141 39.6602H89.5215L87.248 46H86.4219L84.125 39.6602H85.2324L86.8438 44.5293ZM93.1133 46.1172C92.2539 46.1172 91.5547 45.8359 91.0156 45.2734C90.4766 44.707 90.207 43.9512 90.207 43.0059V42.8066C90.207 42.1777 90.3262 41.6172 90.5645 41.125C90.8066 40.6289 91.1426 40.2422 91.5723 39.9648C92.0059 39.6836 92.4746 39.543 92.9785 39.543C93.8027 39.543 94.4434 39.8145 94.9004 40.3574C95.3574 40.9004 95.5859 41.6777 95.5859 42.6895V43.1406H91.291C91.3066 43.7656 91.4883 44.2715 91.8359 44.6582C92.1875 45.041 92.6328 45.2324 93.1719 45.2324C93.5547 45.2324 93.8789 45.1543 94.1445 44.998C94.4102 44.8418 94.6426 44.6348 94.8418 44.377L95.5039 44.8926C94.9727 45.709 94.1758 46.1172 93.1133 46.1172ZM92.9785 40.4336C92.541 40.4336 92.1738 40.5938 91.877 40.9141C91.5801 41.2305 91.3965 41.6758 91.3262 42.25H94.502V42.168C94.4707 41.6172 94.3223 41.1914 94.0566 40.8906C93.791 40.5859 93.4316 40.4336 92.9785 40.4336ZM99.9102 40.6328C99.7461 40.6055 99.5684 40.5918 99.377 40.5918C98.666 40.5918 98.1836 40.8945 97.9297 41.5V46H96.8457V39.6602H97.9004L97.918 40.3926C98.2734 39.8262 98.7773 39.543 99.4297 39.543C99.6406 39.543 99.8008 39.5703 99.9102 39.625V40.6328ZM104.604 44.3184C104.604 44.0254 104.492 43.7988 104.27 43.6387C104.051 43.4746 103.666 43.334 103.115 43.2168C102.568 43.0996 102.133 42.959 101.809 42.7949C101.488 42.6309 101.25 42.4355 101.094 42.209C100.941 41.9824 100.865 41.7129 100.865 41.4004C100.865 40.8809 101.084 40.4414 101.521 40.082C101.963 39.7227 102.525 39.543 103.209 39.543C103.928 39.543 104.51 39.7285 104.955 40.0996C105.404 40.4707 105.629 40.9453 105.629 41.5234H104.539C104.539 41.2266 104.412 40.9707 104.158 40.7559C103.908 40.541 103.592 40.4336 103.209 40.4336C102.814 40.4336 102.506 40.5195 102.283 40.6914C102.061 40.8633 101.949 41.0879 101.949 41.3652C101.949 41.627 102.053 41.8242 102.26 41.957C102.467 42.0898 102.84 42.2168 103.379 42.3379C103.922 42.459 104.361 42.6035 104.697 42.7715C105.033 42.9395 105.281 43.1426 105.441 43.3809C105.605 43.6152 105.688 43.9023 105.688 44.2422C105.688 44.8086 105.461 45.2637 105.008 45.6074C104.555 45.9473 103.967 46.1172 103.244 46.1172C102.736 46.1172 102.287 46.0273 101.896 45.8477C101.506 45.668 101.199 45.418 100.977 45.0977C100.758 44.7734 100.648 44.4238 100.648 44.0488H101.732C101.752 44.4121 101.896 44.7012 102.166 44.916C102.439 45.127 102.799 45.2324 103.244 45.2324C103.654 45.2324 103.982 45.1504 104.229 44.9863C104.479 44.8184 104.604 44.5957 104.604 44.3184ZM109.73 46.1172C108.871 46.1172 108.172 45.8359 107.633 45.2734C107.094 44.707 106.824 43.9512 106.824 43.0059V42.8066C106.824 42.1777 106.943 41.6172 107.182 41.125C107.424 40.6289 107.76 40.2422 108.189 39.9648C108.623 39.6836 109.092 39.543 109.596 39.543C110.42 39.543 111.061 39.8145 111.518 40.3574C111.975 40.9004 112.203 41.6777 112.203 42.6895V43.1406H107.908C107.924 43.7656 108.105 44.2715 108.453 44.6582C108.805 45.041 109.25 45.2324 109.789 45.2324C110.172 45.2324 110.496 45.1543 110.762 44.998C111.027 44.8418 111.26 44.6348 111.459 44.377L112.121 44.8926C111.59 45.709 110.793 46.1172 109.73 46.1172ZM109.596 40.4336C109.158 40.4336 108.791 40.5938 108.494 40.9141C108.197 41.2305 108.014 41.6758 107.943 42.25H111.119V42.168C111.088 41.6172 110.939 41.1914 110.674 40.8906C110.408 40.5859 110.049 40.4336 109.596 40.4336ZM116.152 42.7715C116.152 42.1504 116.273 41.5918 116.516 41.0957C116.762 40.5996 117.102 40.2168 117.535 39.9473C117.973 39.6777 118.471 39.543 119.029 39.543C119.893 39.543 120.59 39.8418 121.121 40.4395C121.656 41.0371 121.924 41.832 121.924 42.8242V42.9004C121.924 43.5176 121.805 44.0723 121.566 44.5645C121.332 45.0527 120.994 45.4336 120.553 45.707C120.115 45.9805 119.611 46.1172 119.041 46.1172C118.182 46.1172 117.484 45.8184 116.949 45.2207C116.418 44.623 116.152 43.832 116.152 42.8477V42.7715ZM117.242 42.9004C117.242 43.6035 117.404 44.168 117.729 44.5938C118.057 45.0195 118.494 45.2324 119.041 45.2324C119.592 45.2324 120.029 45.0176 120.354 44.5879C120.678 44.1543 120.84 43.5488 120.84 42.7715C120.84 42.0762 120.674 41.5137 120.342 41.084C120.014 40.6504 119.576 40.4336 119.029 40.4336C118.494 40.4336 118.062 40.6465 117.734 41.0723C117.406 41.498 117.242 42.1074 117.242 42.9004ZM123.816 46V40.498H122.814V39.6602H123.816V39.0098C123.816 38.3301 123.998 37.8047 124.361 37.4336C124.725 37.0625 125.238 36.877 125.902 36.877C126.152 36.877 126.4 36.9102 126.646 36.9766L126.588 37.8555C126.404 37.8203 126.209 37.8027 126.002 37.8027C125.65 37.8027 125.379 37.9062 125.188 38.1133C124.996 38.3164 124.9 38.6094 124.9 38.9922V39.6602H126.254V40.498H124.9V46H123.816Z" fill="#00FFFF"/>
</svg>
