<svg width="603" height="132" viewBox="0 0 603 132" fill="none" xmlns="http://www.w3.org/2000/svg">
<g clip-path="url(#clip0)">
<path d="M500.131 50.3889H502.064V1.93265H509.458V0H500.131V50.3889Z" fill="#00FFFF"/>
<path d="M500.131 100.778H509.458V98.8456H502.064V50.3893H500.131V100.778Z" fill="#00FFFF"/>
<path d="M517.123 5.47262C517.123 4.88442 517.095 4.85641 516.703 4.85641C515.611 6.17285 513.958 6.59299 512.389 6.64901C512.305 6.64901 512.165 6.64901 512.137 6.70503C512.109 6.76105 512.109 6.81706 512.109 7.40526C512.978 7.40526 514.434 7.23721 515.555 6.56498V21.3259C515.555 22.3062 515.499 22.6424 513.09 22.6424H512.249V23.3706C513.594 23.3426 514.994 23.3146 516.339 23.3146C517.683 23.3146 519.084 23.3426 520.428 23.3706V22.6424H519.588C517.179 22.6424 517.123 22.3343 517.123 21.3259V5.47262Z" fill="#00FFFF"/>
<path d="M545.456 19.0292H544.952C544.672 21.0178 544.448 21.3539 544.335 21.522C544.195 21.7461 542.179 21.7461 541.787 21.7461H536.409C537.417 20.6537 539.378 18.665 541.759 16.3683C543.467 14.7437 545.456 12.8391 545.456 10.0662C545.456 6.76105 542.823 4.85641 539.882 4.85641C536.801 4.85641 534.924 7.57332 534.924 10.0942C534.924 11.1865 535.737 11.3266 536.073 11.3266C536.353 11.3266 537.193 11.1585 537.193 10.1782C537.193 9.3099 536.465 9.05782 536.073 9.05782C535.905 9.05782 535.737 9.08583 535.625 9.14184C536.157 6.76105 537.781 5.58465 539.49 5.58465C541.927 5.58465 543.523 7.5173 543.523 10.0662C543.523 12.503 542.095 14.6037 540.498 16.4243L534.924 22.7264V23.3706H544.784L545.456 19.0292Z" fill="#00FFFF"/>
<path d="M576.223 5.47262C576.223 4.88442 576.195 4.85641 575.803 4.85641C574.71 6.17285 573.058 6.59299 571.489 6.64901C571.405 6.64901 571.265 6.64901 571.237 6.70503C571.209 6.76105 571.209 6.81706 571.209 7.40526C572.077 7.40526 573.534 7.23721 574.654 6.56498V21.3259C574.654 22.3062 574.598 22.6424 572.189 22.6424H571.349V23.3706C572.693 23.3426 574.094 23.3146 575.438 23.3146C576.783 23.3146 578.183 23.3426 579.528 23.3706V22.6424H578.687C576.279 22.6424 576.223 22.3343 576.223 21.3259V5.47262Z" fill="#00FFFF"/>
<path d="M521.437 48.1529C521.437 46.4444 521.409 43.5314 520.232 41.2906C519.196 39.33 517.544 38.6298 516.087 38.6298C514.743 38.6298 513.034 39.246 511.97 41.2626C510.849 43.3633 510.737 45.9682 510.737 48.1529C510.737 49.7495 510.765 52.1863 511.634 54.315C512.838 57.2 514.995 57.5921 516.087 57.5921C517.376 57.5921 519.336 57.0599 520.485 54.399C521.325 52.4664 521.437 50.1976 521.437 48.1529ZM516.087 57.1439C514.294 57.1439 513.23 55.6034 512.838 53.4747C512.53 51.8222 512.53 49.4134 512.53 47.8448C512.53 45.6881 512.53 43.8955 512.894 42.1869C513.426 39.8061 514.995 39.0779 516.087 39.0779C517.235 39.0779 518.72 39.8342 519.252 42.1309C519.616 43.7275 519.644 45.6041 519.644 47.8448C519.644 49.6654 519.644 51.9062 519.308 53.5587C518.72 56.6118 517.067 57.1439 516.087 57.1439Z" fill="#00FFFF"/>
<path d="M545.456 52.8025H544.952C544.672 54.7912 544.448 55.1273 544.335 55.2953C544.195 55.5194 542.179 55.5194 541.787 55.5194H536.409C537.417 54.427 539.378 52.4384 541.759 50.1416C543.467 48.5171 545.456 46.6124 545.456 43.8395C545.456 40.5344 542.823 38.6298 539.882 38.6298C536.801 38.6298 534.924 41.3467 534.924 43.8675C534.924 44.9599 535.737 45.0999 536.073 45.0999C536.353 45.0999 537.193 44.9319 537.193 43.9515C537.193 43.0832 536.465 42.8312 536.073 42.8312C535.905 42.8312 535.737 42.8592 535.625 42.9152C536.157 40.5344 537.781 39.358 539.49 39.358C541.927 39.358 543.523 41.2906 543.523 43.8395C543.523 46.2763 542.095 48.377 540.498 50.1976L534.924 56.4997V57.1439H544.784L545.456 52.8025Z" fill="#00FFFF"/>
<path d="M576.337 50.7018C576.814 50.7018 577.318 50.7018 577.318 50.1416C577.318 49.5814 576.814 49.5814 576.337 49.5814H561.184C560.708 49.5814 560.204 49.5814 560.204 50.1416C560.204 50.7018 560.708 50.7018 561.184 50.7018H576.337Z" fill="#00FFFF"/>
<path d="M591.345 52.8025H590.84C590.56 54.7912 590.336 55.1273 590.224 55.2953C590.084 55.5194 588.067 55.5194 587.675 55.5194H582.297C583.306 54.427 585.266 52.4384 587.647 50.1416C589.356 48.5171 591.345 46.6124 591.345 43.8395C591.345 40.5344 588.712 38.6298 585.771 38.6298C582.69 38.6298 580.813 41.3467 580.813 43.8675C580.813 44.9599 581.625 45.0999 581.961 45.0999C582.241 45.0999 583.082 44.9319 583.082 43.9515C583.082 43.0832 582.354 42.8312 581.961 42.8312C581.793 42.8312 581.625 42.8592 581.513 42.9152C582.045 40.5344 583.67 39.358 585.379 39.358C587.815 39.358 589.412 41.2906 589.412 43.8395C589.412 46.2763 587.983 48.377 586.387 50.1976L580.813 56.4997V57.1439H590.672L591.345 52.8025Z" fill="#00FFFF"/>
<path d="M521.437 81.9263C521.437 80.2177 521.409 77.3047 520.232 75.064C519.196 73.1033 517.544 72.4031 516.087 72.4031C514.743 72.4031 513.034 73.0193 511.97 75.036C510.849 77.1367 510.737 79.7416 510.737 81.9263C510.737 83.5228 510.765 85.9596 511.634 88.0884C512.838 90.9733 514.995 91.3654 516.087 91.3654C517.376 91.3654 519.336 90.8333 520.485 88.1724C521.325 86.2397 521.437 83.971 521.437 81.9263ZM516.087 90.9173C514.294 90.9173 513.23 89.3768 512.838 87.2481C512.53 85.5955 512.53 83.1867 512.53 81.6182C512.53 79.4615 512.53 77.6689 512.894 75.9603C513.426 73.5795 514.995 72.8513 516.087 72.8513C517.235 72.8513 518.72 73.6075 519.252 75.9043C519.616 77.5008 519.644 79.3774 519.644 81.6182C519.644 83.4388 519.644 85.6795 519.308 87.3321C518.72 90.3851 517.067 90.9173 516.087 90.9173Z" fill="#00FFFF"/>
<path d="M545.54 81.9263C545.54 80.2177 545.512 77.3047 544.336 75.064C543.299 73.1033 541.647 72.4031 540.19 72.4031C538.846 72.4031 537.137 73.0193 536.073 75.036C534.952 77.1367 534.84 79.7416 534.84 81.9263C534.84 83.5228 534.868 85.9596 535.737 88.0884C536.941 90.9733 539.098 91.3654 540.19 91.3654C541.479 91.3654 543.439 90.8333 544.588 88.1724C545.428 86.2397 545.54 83.971 545.54 81.9263ZM540.19 90.9173C538.398 90.9173 537.333 89.3768 536.941 87.2481C536.633 85.5955 536.633 83.1867 536.633 81.6182C536.633 79.4615 536.633 77.6689 536.997 75.9603C537.529 73.5795 539.098 72.8513 540.19 72.8513C541.339 72.8513 542.823 73.6075 543.355 75.9043C543.719 77.5008 543.747 79.3774 543.747 81.6182C543.747 83.4388 543.747 85.6795 543.411 87.3321C542.823 90.3851 541.17 90.9173 540.19 90.9173Z" fill="#00FFFF"/>
<path d="M571.965 74.5318C572.245 74.6439 573.394 75.008 574.57 75.008C577.175 75.008 578.603 73.6075 579.416 72.7952C579.416 72.5712 579.416 72.4311 579.248 72.4311C579.22 72.4311 579.164 72.4311 578.939 72.5432C577.959 72.9633 576.811 73.2994 575.41 73.2994C574.57 73.2994 573.31 73.1874 571.937 72.5712C571.629 72.4311 571.573 72.4311 571.545 72.4311C571.405 72.4311 571.377 72.4591 571.377 73.0193V81.142C571.377 81.6462 571.377 81.7863 571.657 81.7863C571.797 81.7863 571.853 81.7302 571.993 81.5342C572.889 80.2737 574.122 79.7416 575.522 79.7416C576.503 79.7416 578.603 80.3578 578.603 85.1474C578.603 86.0437 578.603 87.6682 577.763 88.9566C577.063 90.105 575.97 90.6932 574.766 90.6932C572.917 90.6932 571.041 89.4048 570.537 87.2481C570.649 87.2761 570.873 87.3321 570.985 87.3321C571.349 87.3321 572.049 87.136 572.049 86.2678C572.049 85.5115 571.517 85.2034 570.985 85.2034C570.341 85.2034 569.92 85.5955 569.92 86.3798C569.92 88.8166 571.853 91.3655 574.822 91.3655C577.707 91.3655 580.452 88.8726 580.452 85.2594C580.452 81.8983 578.267 79.2934 575.55 79.2934C574.122 79.2934 572.917 79.8256 571.965 80.8339V74.5318Z" fill="#00FFFF"/>
<path d="M600.101 50.3889H602.034V0H592.707V1.93265H600.101V50.3889Z" fill="#00FFFF"/>
<path d="M600.101 98.8456H592.707V100.778H602.034V50.3893H600.101V98.8456Z" fill="#00FFFF"/>
<rect x="505.5" y="3.5" width="21" height="21" stroke="#00FF29"/>
<rect x="529.5" y="37.5" width="21" height="21" stroke="#00FF29"/>
<rect x="564.5" y="71.5" width="21" height="21" stroke="#00FF29"/>
</g>
<g clip-path="url(#clip1)">
<path d="M274.131 50.3889H276.064V1.93265H283.458V0H274.131V50.3889Z" fill="#00FFFF"/>
<path d="M274.131 100.778H283.458V98.8456H276.064V50.3893H274.131V100.778Z" fill="#00FFFF"/>
<path d="M291.123 5.47262C291.123 4.88442 291.095 4.85641 290.703 4.85641C289.611 6.17285 287.958 6.59299 286.389 6.64901C286.305 6.64901 286.165 6.64901 286.137 6.70503C286.109 6.76105 286.109 6.81706 286.109 7.40526C286.978 7.40526 288.434 7.23721 289.555 6.56498V21.3259C289.555 22.3062 289.499 22.6424 287.09 22.6424H286.249V23.3706C287.594 23.3426 288.994 23.3146 290.339 23.3146C291.683 23.3146 293.084 23.3426 294.428 23.3706V22.6424H293.588C291.179 22.6424 291.123 22.3343 291.123 21.3259V5.47262Z" fill="#00FFFF"/>
<path d="M319.456 19.0292H318.952C318.672 21.0178 318.448 21.3539 318.335 21.522C318.195 21.7461 316.179 21.7461 315.787 21.7461H310.409C311.417 20.6537 313.378 18.665 315.759 16.3683C317.467 14.7437 319.456 12.8391 319.456 10.0662C319.456 6.76105 316.823 4.85641 313.882 4.85641C310.801 4.85641 308.924 7.57332 308.924 10.0942C308.924 11.1865 309.737 11.3266 310.073 11.3266C310.353 11.3266 311.193 11.1585 311.193 10.1782C311.193 9.3099 310.465 9.05782 310.073 9.05782C309.905 9.05782 309.737 9.08583 309.625 9.14184C310.157 6.76105 311.781 5.58465 313.49 5.58465C315.927 5.58465 317.523 7.5173 317.523 10.0662C317.523 12.503 316.095 14.6037 314.498 16.4243L308.924 22.7264V23.3706H318.784L319.456 19.0292Z" fill="#00FFFF"/>
<path d="M350.223 5.47262C350.223 4.88442 350.195 4.85641 349.803 4.85641C348.71 6.17285 347.058 6.59299 345.489 6.64901C345.405 6.64901 345.265 6.64901 345.237 6.70503C345.209 6.76105 345.209 6.81706 345.209 7.40526C346.077 7.40526 347.534 7.23721 348.654 6.56498V21.3259C348.654 22.3062 348.598 22.6424 346.189 22.6424H345.349V23.3706C346.693 23.3426 348.094 23.3146 349.438 23.3146C350.783 23.3146 352.183 23.3426 353.528 23.3706V22.6424H352.687C350.279 22.6424 350.223 22.3343 350.223 21.3259V5.47262Z" fill="#00FFFF"/>
<path d="M295.437 48.1529C295.437 46.4444 295.409 43.5314 294.232 41.2906C293.196 39.33 291.544 38.6298 290.087 38.6298C288.743 38.6298 287.034 39.246 285.97 41.2626C284.849 43.3633 284.737 45.9682 284.737 48.1529C284.737 49.7495 284.765 52.1863 285.634 54.315C286.838 57.2 288.995 57.5921 290.087 57.5921C291.376 57.5921 293.336 57.0599 294.485 54.399C295.325 52.4664 295.437 50.1976 295.437 48.1529ZM290.087 57.1439C288.294 57.1439 287.23 55.6034 286.838 53.4747C286.53 51.8222 286.53 49.4134 286.53 47.8448C286.53 45.6881 286.53 43.8955 286.894 42.1869C287.426 39.8061 288.995 39.0779 290.087 39.0779C291.235 39.0779 292.72 39.8342 293.252 42.1309C293.616 43.7275 293.644 45.6041 293.644 47.8448C293.644 49.6654 293.644 51.9062 293.308 53.5587C292.72 56.6118 291.067 57.1439 290.087 57.1439Z" fill="#00FFFF"/>
<path d="M319.456 52.8025H318.952C318.672 54.7912 318.448 55.1273 318.335 55.2953C318.195 55.5194 316.179 55.5194 315.787 55.5194H310.409C311.417 54.427 313.378 52.4384 315.759 50.1416C317.467 48.5171 319.456 46.6124 319.456 43.8395C319.456 40.5344 316.823 38.6298 313.882 38.6298C310.801 38.6298 308.924 41.3467 308.924 43.8675C308.924 44.9599 309.737 45.0999 310.073 45.0999C310.353 45.0999 311.193 44.9319 311.193 43.9515C311.193 43.0832 310.465 42.8312 310.073 42.8312C309.905 42.8312 309.737 42.8592 309.625 42.9152C310.157 40.5344 311.781 39.358 313.49 39.358C315.927 39.358 317.523 41.2906 317.523 43.8395C317.523 46.2763 316.095 48.377 314.498 50.1976L308.924 56.4997V57.1439H318.784L319.456 52.8025Z" fill="#00FFFF"/>
<path d="M350.337 50.7018C350.814 50.7018 351.318 50.7018 351.318 50.1416C351.318 49.5814 350.814 49.5814 350.337 49.5814H335.184C334.708 49.5814 334.204 49.5814 334.204 50.1416C334.204 50.7018 334.708 50.7018 335.184 50.7018H350.337Z" fill="#00FFFF"/>
<path d="M365.345 52.8025H364.84C364.56 54.7912 364.336 55.1273 364.224 55.2953C364.084 55.5194 362.067 55.5194 361.675 55.5194H356.297C357.306 54.427 359.266 52.4384 361.647 50.1416C363.356 48.5171 365.345 46.6124 365.345 43.8395C365.345 40.5344 362.712 38.6298 359.771 38.6298C356.69 38.6298 354.813 41.3467 354.813 43.8675C354.813 44.9599 355.625 45.0999 355.961 45.0999C356.241 45.0999 357.082 44.9319 357.082 43.9515C357.082 43.0832 356.354 42.8312 355.961 42.8312C355.793 42.8312 355.625 42.8592 355.513 42.9152C356.045 40.5344 357.67 39.358 359.379 39.358C361.815 39.358 363.412 41.2906 363.412 43.8395C363.412 46.2763 361.983 48.377 360.387 50.1976L354.813 56.4997V57.1439H364.672L365.345 52.8025Z" fill="#00FFFF"/>
<path d="M295.437 81.9263C295.437 80.2177 295.409 77.3047 294.232 75.064C293.196 73.1033 291.544 72.4031 290.087 72.4031C288.743 72.4031 287.034 73.0193 285.97 75.036C284.849 77.1367 284.737 79.7416 284.737 81.9263C284.737 83.5228 284.765 85.9596 285.634 88.0884C286.838 90.9733 288.995 91.3654 290.087 91.3654C291.376 91.3654 293.336 90.8333 294.485 88.1724C295.325 86.2397 295.437 83.971 295.437 81.9263ZM290.087 90.9173C288.294 90.9173 287.23 89.3768 286.838 87.2481C286.53 85.5955 286.53 83.1867 286.53 81.6182C286.53 79.4615 286.53 77.6689 286.894 75.9603C287.426 73.5795 288.995 72.8513 290.087 72.8513C291.235 72.8513 292.72 73.6075 293.252 75.9043C293.616 77.5008 293.644 79.3774 293.644 81.6182C293.644 83.4388 293.644 85.6795 293.308 87.3321C292.72 90.3851 291.067 90.9173 290.087 90.9173Z" fill="#00FFFF"/>
<path d="M317.187 72.7952C317.187 72.207 317.159 72.179 316.655 72.179L308.336 85.4275V86.1557H315.563V88.9006C315.563 89.909 315.507 90.1891 313.546 90.1891H313.014V90.9173C313.91 90.8613 315.423 90.8613 316.375 90.8613C317.327 90.8613 318.84 90.8613 319.736 90.9173V90.1891H319.204C317.243 90.1891 317.187 89.909 317.187 88.9006V86.1557H320.044V85.4275H317.187V72.7952ZM315.647 74.6439V85.4275H308.897L315.647 74.6439Z" fill="#00FFFF"/>
<path d="M350.223 73.0193C350.223 72.4311 350.195 72.4031 349.803 72.4031C348.71 73.7195 347.058 74.1397 345.489 74.1957C345.405 74.1957 345.265 74.1957 345.237 74.2517C345.209 74.3077 345.209 74.3638 345.209 74.952C346.077 74.952 347.534 74.7839 348.654 74.1117V88.8726C348.654 89.8529 348.598 90.1891 346.189 90.1891H345.349V90.9173C346.693 90.8893 348.094 90.8613 349.438 90.8613C350.783 90.8613 352.183 90.8893 353.528 90.9173V90.1891H352.687C350.279 90.1891 350.223 89.881 350.223 88.8726V73.0193Z" fill="#00FFFF"/>
<path d="M374.101 50.3889H376.034V0H366.707V1.93265H374.101V50.3889Z" fill="#00FFFF"/>
<path d="M374.101 98.8456H366.707V100.778H376.034V50.3893H374.101V98.8456Z" fill="#00FFFF"/>
<rect x="279.5" y="3.5" width="21" height="21" stroke="#00FF29"/>
<rect x="303.5" y="37.5" width="21" height="21" stroke="#00FF29"/>
</g>
<g clip-path="url(#clip2)">
<path d="M69.1309 50.3889H71.0635V1.93265H78.458V0H69.1309V50.3889Z" fill="#00FFFF"/>
<path d="M69.1309 100.778H78.458V98.8456H71.0635V50.3893H69.1309V100.778Z" fill="#00FFFF"/>
<path d="M86.1231 5.47262C86.1231 4.88442 86.095 4.85641 85.7029 4.85641C84.6105 6.17285 82.958 6.59299 81.3895 6.64901C81.3054 6.64901 81.1654 6.64901 81.1374 6.70503C81.1094 6.76105 81.1094 6.81706 81.1094 7.40526C81.9777 7.40526 83.4342 7.23721 84.5545 6.56498V21.3259C84.5545 22.3062 84.4985 22.6424 82.0897 22.6424H81.2494V23.3706C82.5939 23.3426 83.9943 23.3146 85.3388 23.3146C86.6832 23.3146 88.0837 23.3426 89.4282 23.3706V22.6424H88.5879C86.1791 22.6424 86.1231 22.3343 86.1231 21.3259V5.47262Z" fill="#00FFFF"/>
<path d="M114.456 19.0292H113.952C113.672 21.0178 113.448 21.3539 113.335 21.522C113.195 21.7461 111.179 21.7461 110.787 21.7461H105.409C106.417 20.6537 108.378 18.665 110.759 16.3683C112.467 14.7437 114.456 12.8391 114.456 10.0662C114.456 6.76105 111.823 4.85641 108.882 4.85641C105.801 4.85641 103.924 7.57332 103.924 10.0942C103.924 11.1865 104.737 11.3266 105.073 11.3266C105.353 11.3266 106.193 11.1585 106.193 10.1782C106.193 9.3099 105.465 9.05782 105.073 9.05782C104.905 9.05782 104.737 9.08583 104.625 9.14184C105.157 6.76105 106.781 5.58465 108.49 5.58465C110.927 5.58465 112.523 7.5173 112.523 10.0662C112.523 12.503 111.095 14.6037 109.498 16.4243L103.924 22.7264V23.3706H113.784L114.456 19.0292Z" fill="#00FFFF"/>
<path d="M134.33 5.47262C134.33 4.88442 134.302 4.85641 133.91 4.85641C132.818 6.17285 131.165 6.59299 129.596 6.64901C129.512 6.64901 129.372 6.64901 129.344 6.70503C129.316 6.76105 129.316 6.81706 129.316 7.40526C130.185 7.40526 131.641 7.23721 132.762 6.56498V21.3259C132.762 22.3062 132.706 22.6424 130.297 22.6424H129.456V23.3706C130.801 23.3426 132.201 23.3146 133.546 23.3146C134.89 23.3146 136.291 23.3426 137.635 23.3706V22.6424H136.795C134.386 22.6424 134.33 22.3343 134.33 21.3259V5.47262Z" fill="#00FFFF"/>
<path d="M84.8629 47.6208C87.3558 47.6208 88.4481 49.7775 88.4481 52.2703C88.4481 55.6314 86.6555 56.9199 85.031 56.9199C83.5465 56.9199 81.1377 56.1916 80.3814 54.0349C80.5215 54.0909 80.6615 54.0909 80.8016 54.0909C81.4738 54.0909 81.978 53.6428 81.978 52.9145C81.978 52.1023 81.3618 51.7381 80.8016 51.7381C80.3254 51.7381 79.5972 51.9622 79.5972 52.9986C79.5972 55.5754 82.118 57.5921 85.087 57.5921C88.196 57.5921 90.5768 55.1553 90.5768 52.2983C90.5768 49.5814 88.3361 47.6208 85.6752 47.3127C87.8039 46.8645 89.8486 44.9599 89.8486 42.411C89.8486 40.2263 87.6359 38.6298 85.115 38.6298C82.5662 38.6298 80.3254 40.1983 80.3254 42.439C80.3254 43.4194 81.0537 43.5874 81.4178 43.5874C82.006 43.5874 82.5101 43.2233 82.5101 42.495C82.5101 41.7668 82.006 41.4027 81.4178 41.4027C81.3057 41.4027 81.1657 41.4027 81.0537 41.4587C81.8659 39.6101 84.0787 39.274 85.059 39.274C86.0393 39.274 87.8879 39.7501 87.8879 42.439C87.8879 43.2233 87.7759 44.6238 86.8236 45.8562C85.9833 46.9485 85.031 47.0046 84.1067 47.0886C83.9666 47.0886 83.3224 47.1446 83.2104 47.1446C83.0143 47.1726 82.9023 47.2006 82.9023 47.3967C82.9023 47.5928 82.9303 47.6208 83.4905 47.6208H84.8629Z" fill="#00FFFF"/>
<path d="M110.395 47.0606C112.16 46.1643 113.952 44.8198 113.952 42.6631C113.952 40.1143 111.487 38.6298 109.219 38.6298C106.67 38.6298 104.429 40.4784 104.429 43.0272C104.429 43.7275 104.597 44.9319 105.689 45.9962C105.969 46.2763 107.146 47.1166 107.902 47.6488C106.642 48.293 103.701 49.8335 103.701 52.9145C103.701 55.7995 106.446 57.5921 109.163 57.5921C112.16 57.5921 114.68 55.4354 114.68 52.5784C114.68 50.0296 112.972 48.8532 111.851 48.0969L110.395 47.0606ZM106.726 44.5958C106.502 44.4557 105.381 43.5874 105.381 42.271C105.381 40.5624 107.146 39.274 109.163 39.274C111.375 39.274 113 40.8425 113 42.6631C113 45.268 110.087 46.7525 109.947 46.7525C109.919 46.7525 109.891 46.7525 109.667 46.5844L106.726 44.5958ZM111.879 50.3377C112.3 50.6458 113.644 51.5701 113.644 53.2787C113.644 55.3513 111.571 56.9199 109.219 56.9199C106.67 56.9199 104.737 55.0993 104.737 52.8865C104.737 50.6738 106.446 48.8252 108.378 47.9569L111.879 50.3377Z" fill="#00FFFF"/>
<path d="M134.33 39.246C134.33 38.6578 134.302 38.6298 133.91 38.6298C132.818 39.9462 131.165 40.3663 129.596 40.4224C129.512 40.4224 129.372 40.4224 129.344 40.4784C129.316 40.5344 129.316 40.5904 129.316 41.1786C130.185 41.1786 131.641 41.0106 132.762 40.3383V55.0993C132.762 56.0796 132.706 56.4157 130.297 56.4157H129.456V57.1439C130.801 57.1159 132.201 57.0879 133.546 57.0879C134.89 57.0879 136.291 57.1159 137.635 57.1439V56.4157H136.795C134.386 56.4157 134.33 56.1076 134.33 55.0993V39.246Z" fill="#00FFFF"/>
<path d="M90.4369 81.9263C90.4369 80.2177 90.4089 77.3047 89.2325 75.064C88.1961 73.1033 86.5436 72.4031 85.0871 72.4031C83.7426 72.4031 82.0341 73.0193 80.9697 75.036C79.8493 77.1367 79.7373 79.7416 79.7373 81.9263C79.7373 83.5228 79.7653 85.9596 80.6336 88.0884C81.838 90.9733 83.9947 91.3654 85.0871 91.3654C86.3755 91.3654 88.3362 90.8333 89.4846 88.1724C90.3248 86.2397 90.4369 83.971 90.4369 81.9263ZM85.0871 90.9173C83.2945 90.9173 82.2301 89.3768 81.838 87.2481C81.5299 85.5955 81.5299 83.1867 81.5299 81.6182C81.5299 79.4615 81.5299 77.6689 81.894 75.9603C82.4262 73.5795 83.9947 72.8513 85.0871 72.8513C86.2355 72.8513 87.72 73.6075 88.2522 75.9043C88.6163 77.5008 88.6443 79.3774 88.6443 81.6182C88.6443 83.4388 88.6443 85.6795 88.3082 87.3321C87.72 90.3851 86.0674 90.9173 85.0871 90.9173Z" fill="#00FFFF"/>
<path d="M112.187 72.7952C112.187 72.207 112.159 72.179 111.655 72.179L103.336 85.4275V86.1557H110.563V88.9006C110.563 89.909 110.507 90.1891 108.546 90.1891H108.014V90.9173C108.91 90.8613 110.423 90.8613 111.375 90.8613C112.327 90.8613 113.84 90.8613 114.736 90.9173V90.1891H114.204C112.243 90.1891 112.187 89.909 112.187 88.9006V86.1557H115.044V85.4275H112.187V72.7952ZM110.647 74.6439V85.4275H103.897L110.647 74.6439Z" fill="#00FFFF"/>
<path d="M134.33 73.0193C134.33 72.4311 134.302 72.4031 133.91 72.4031C132.818 73.7195 131.165 74.1397 129.596 74.1957C129.512 74.1957 129.372 74.1957 129.344 74.2517C129.316 74.3077 129.316 74.3638 129.316 74.952C130.185 74.952 131.641 74.7839 132.762 74.1117V88.8726C132.762 89.8529 132.706 90.1891 130.297 90.1891H129.456V90.9173C130.801 90.8893 132.201 90.8613 133.546 90.8613C134.89 90.8613 136.291 90.8893 137.635 90.9173V90.1891H136.795C134.386 90.1891 134.33 89.881 134.33 88.8726V73.0193Z" fill="#00FFFF"/>
<path d="M147.316 50.3889H149.249V0H139.921V1.93265H147.316V50.3889Z" fill="#00FFFF"/>
<path d="M147.316 98.8456H139.921V100.778H149.249V50.3893H147.316V98.8456Z" fill="#00FFFF"/>
<rect x="74.5" y="4.5" width="21" height="21" stroke="#00FF29"/>
</g>
<path d="M76.4864 28.1158C76.5504 27.8472 76.3844 27.5776 76.1158 27.5136L71.7382 26.4713C71.4695 26.4073 71.1999 26.5733 71.136 26.8419C71.072 27.1105 71.2379 27.3802 71.5066 27.4441L75.3978 28.3706L74.4713 32.2618C74.4073 32.5305 74.5733 32.8001 74.8419 32.864C75.1105 32.928 75.3802 32.7621 75.4441 32.4934L76.4864 28.1158ZM37.262 52.4258L76.262 28.4258L75.738 27.5742L36.738 51.5742L37.262 52.4258Z" fill="#00FF29"/>
<path d="M266.354 52.3536C266.549 52.1583 266.549 51.8417 266.354 51.6464L263.172 48.4645C262.976 48.2692 262.66 48.2692 262.464 48.4645C262.269 48.6597 262.269 48.9763 262.464 49.1716L265.293 52L262.464 54.8284C262.269 55.0237 262.269 55.3403 262.464 55.5355C262.66 55.7308 262.976 55.7308 263.172 55.5355L266.354 52.3536ZM209 52.5H266V51.5H209V52.5Z" fill="#00FF29"/>
<path d="M5.71289 68H3.9917V61.0859C3.9917 60.2607 4.01123 59.6064 4.05029 59.123C3.93799 59.2402 3.79883 59.3696 3.63281 59.5112C3.47168 59.6528 2.9248 60.1021 1.99219 60.8589L1.12793 59.7676L4.27734 57.292H5.71289V68ZM15.2417 65.6929C15.2417 66.4839 14.9536 67.0918 14.3774 67.5166C13.8013 67.9365 12.9761 68.1465 11.9019 68.1465C10.8228 68.1465 9.95605 67.9829 9.30176 67.6558V66.1689C10.2539 66.6084 11.1401 66.8281 11.9604 66.8281C13.02 66.8281 13.5498 66.5083 13.5498 65.8687C13.5498 65.6636 13.4912 65.4927 13.374 65.356C13.2568 65.2192 13.064 65.0776 12.7954 64.9312C12.5269 64.7847 12.1533 64.6187 11.6748 64.4331C10.7422 64.0718 10.1099 63.7104 9.77783 63.3491C9.45068 62.9878 9.28711 62.519 9.28711 61.9429C9.28711 61.2495 9.56543 60.7124 10.1221 60.3315C10.6836 59.9458 11.4453 59.7529 12.4072 59.7529C13.3594 59.7529 14.2603 59.9458 15.1099 60.3315L14.5532 61.6279C13.6792 61.2666 12.9443 61.0859 12.3486 61.0859C11.4404 61.0859 10.9863 61.3447 10.9863 61.8623C10.9863 62.1162 11.1035 62.3311 11.3379 62.5068C11.5771 62.6826 12.0947 62.9243 12.8906 63.2319C13.5596 63.4907 14.0454 63.7275 14.3481 63.9424C14.6509 64.1572 14.8755 64.4062 15.022 64.6895C15.1685 64.9678 15.2417 65.3022 15.2417 65.6929ZM20.127 66.7549C20.5469 66.7549 20.9668 66.689 21.3867 66.5571V67.8535C21.1963 67.9365 20.9497 68.0049 20.647 68.0586C20.3491 68.1172 20.0391 68.1465 19.7168 68.1465C18.0859 68.1465 17.2705 67.2871 17.2705 65.5684V61.2031H16.1646V60.4414L17.3511 59.8115L17.937 58.0977H18.999V59.8994H21.3062V61.2031H18.999V65.5391C18.999 65.9541 19.1016 66.2617 19.3066 66.4619C19.5166 66.6572 19.79 66.7549 20.127 66.7549ZM34.1821 60.5293C34.1821 61.6475 33.8159 62.5044 33.0835 63.1001C32.3511 63.6958 31.3086 63.9937 29.9561 63.9937H28.8428V68H27.0923V57.292H30.1758C31.5137 57.292 32.5146 57.5654 33.1787 58.1123C33.8477 58.6592 34.1821 59.4648 34.1821 60.5293ZM28.8428 62.5215H29.7729C30.6714 62.5215 31.3306 62.3652 31.7505 62.0527C32.1704 61.7402 32.3804 61.252 32.3804 60.5879C32.3804 59.9727 32.1924 59.5137 31.8164 59.2109C31.4404 58.9082 30.8545 58.7568 30.0586 58.7568H28.8428V62.5215ZM37.8589 68H36.1377V59.8994H37.8589V68ZM36.0352 57.7534C36.0352 57.4458 36.1182 57.209 36.2842 57.043C36.4551 56.877 36.6968 56.7939 37.0093 56.7939C37.312 56.7939 37.5464 56.877 37.7124 57.043C37.8833 57.209 37.9688 57.4458 37.9688 57.7534C37.9688 58.0464 37.8833 58.2783 37.7124 58.4492C37.5464 58.6152 37.312 58.6982 37.0093 58.6982C36.6968 58.6982 36.4551 58.6152 36.2842 58.4492C36.1182 58.2783 36.0352 58.0464 36.0352 57.7534ZM42.1729 68L39.0967 59.8994H40.9131L42.561 64.6089C42.8442 65.3999 43.0151 66.0396 43.0737 66.5278H43.1323C43.1763 66.1763 43.3472 65.5366 43.645 64.6089L45.293 59.8994H47.124L44.0332 68H42.1729ZM55.5396 63.9351C55.5396 65.2583 55.2002 66.291 54.5215 67.0332C53.8428 67.7754 52.8979 68.1465 51.687 68.1465C50.9302 68.1465 50.2612 67.9756 49.6802 67.6338C49.0991 67.292 48.6523 66.8013 48.3398 66.1616C48.0273 65.522 47.8711 64.7798 47.8711 63.9351C47.8711 62.6216 48.208 61.5962 48.8818 60.8589C49.5557 60.1216 50.5054 59.7529 51.731 59.7529C52.9028 59.7529 53.8306 60.1313 54.5142 60.8882C55.1978 61.6401 55.5396 62.6558 55.5396 63.9351ZM49.6436 63.9351C49.6436 65.8052 50.3345 66.7402 51.7163 66.7402C53.0835 66.7402 53.7671 65.8052 53.7671 63.9351C53.7671 62.0845 53.0786 61.1592 51.7017 61.1592C50.979 61.1592 50.4541 61.3984 50.127 61.877C49.8047 62.3555 49.6436 63.0415 49.6436 63.9351ZM60.542 66.7549C60.9619 66.7549 61.3818 66.689 61.8018 66.5571V67.8535C61.6113 67.9365 61.3647 68.0049 61.062 68.0586C60.7642 68.1172 60.4541 68.1465 60.1318 68.1465C58.501 68.1465 57.6855 67.2871 57.6855 65.5684V61.2031H56.5796V60.4414L57.7661 59.8115L58.3521 58.0977H59.4141V59.8994H61.7212V61.2031H59.4141V65.5391C59.4141 65.9541 59.5166 66.2617 59.7217 66.4619C59.9316 66.6572 60.2051 66.7549 60.542 66.7549Z" fill="#00FF29"/>
<path d="M113.098 128L112.029 125.026H107.935L106.887 128H105.042L109.048 117.248H110.952L114.958 128H113.098ZM111.567 123.518L110.564 120.603C110.491 120.407 110.388 120.1 110.256 119.68C110.129 119.26 110.042 118.952 109.993 118.757C109.861 119.357 109.668 120.014 109.414 120.727L108.447 123.518H111.567Z" fill="#00FF29"/>
<path d="M554.183 128L553.941 126.938H553.853C553.614 127.314 553.272 127.609 552.828 127.824C552.388 128.039 551.885 128.146 551.319 128.146C550.337 128.146 549.605 127.902 549.122 127.414C548.638 126.926 548.396 126.186 548.396 125.195V119.899H550.132V124.895C550.132 125.515 550.259 125.981 550.513 126.293C550.767 126.601 551.165 126.755 551.707 126.755C552.43 126.755 552.959 126.54 553.296 126.11C553.638 125.676 553.809 124.951 553.809 123.935V119.899H555.538V128H554.183Z" fill="#00FF29"/>
<path d="M223.264 35.8911C223.264 34.5972 223.452 33.3862 223.828 32.2583C224.208 31.1304 224.755 30.1416 225.468 29.292H226.97C226.291 30.21 225.771 31.2402 225.41 32.3828C225.048 33.5205 224.868 34.6851 224.868 35.8765C224.868 37.0679 225.048 38.2227 225.41 39.3408C225.771 40.459 226.286 41.4697 226.955 42.373H225.468C224.75 41.543 224.204 40.5737 223.828 39.4653C223.452 38.3569 223.264 37.1655 223.264 35.8911ZM235.341 40H228.083V38.6963L230.844 35.9204C231.66 35.0854 232.199 34.4946 232.463 34.1479C232.731 33.7964 232.927 33.4668 233.049 33.1592C233.171 32.8516 233.232 32.522 233.232 32.1704C233.232 31.687 233.085 31.3062 232.792 31.0278C232.504 30.7495 232.104 30.6104 231.591 30.6104C231.181 30.6104 230.783 30.686 230.397 30.8374C230.017 30.9888 229.575 31.2622 229.072 31.6577L228.142 30.5225C228.737 30.0195 229.316 29.6631 229.877 29.4531C230.439 29.2432 231.037 29.1382 231.672 29.1382C232.668 29.1382 233.466 29.3994 234.067 29.9219C234.667 30.4395 234.968 31.1377 234.968 32.0166C234.968 32.5 234.88 32.959 234.704 33.3936C234.533 33.8281 234.267 34.2773 233.906 34.7412C233.549 35.2002 232.954 35.8228 232.119 36.6089L230.258 38.4106V38.4839H235.341V40ZM239.011 38.4253C238.776 39.3335 238.347 40.5029 237.722 41.9336H236.455C236.792 40.6152 237.043 39.3896 237.209 38.2568H238.901L239.011 38.4253ZM245.72 40H243.999V33.0859C243.999 32.2607 244.018 31.6064 244.057 31.123C243.945 31.2402 243.806 31.3696 243.64 31.5112C243.479 31.6528 242.932 32.1021 241.999 32.8589L241.135 31.7676L244.284 29.292H245.72V40ZM252.729 35.8911C252.729 37.1753 252.539 38.3716 252.158 39.48C251.782 40.5884 251.237 41.5527 250.524 42.373H249.038C249.711 41.46 250.227 40.4468 250.583 39.3335C250.944 38.2202 251.125 37.0679 251.125 35.8765C251.125 34.6802 250.944 33.5156 250.583 32.3828C250.222 31.2451 249.702 30.2148 249.023 29.292H250.524C251.242 30.1465 251.789 31.1401 252.165 32.2729C252.541 33.4009 252.729 34.6069 252.729 35.8911Z" fill="#00FF29"/>
<path d="M490.354 50.3536C490.549 50.1583 490.549 49.8417 490.354 49.6464L487.172 46.4645C486.976 46.2692 486.66 46.2692 486.464 46.4645C486.269 46.6597 486.269 46.9763 486.464 47.1716L489.293 50L486.464 52.8284C486.269 53.0237 486.269 53.3403 486.464 53.5355C486.66 53.7308 486.976 53.7308 487.172 53.5355L490.354 50.3536ZM433 50.5H490V49.5H433V50.5Z" fill="#00FF29"/>
<path d="M447.264 33.8911C447.264 32.5972 447.452 31.3862 447.828 30.2583C448.208 29.1304 448.755 28.1416 449.468 27.292H450.97C450.291 28.21 449.771 29.2402 449.41 30.3828C449.048 31.5205 448.868 32.6851 448.868 33.8765C448.868 35.0679 449.048 36.2227 449.41 37.3408C449.771 38.459 450.286 39.4697 450.955 40.373H449.468C448.75 39.543 448.204 38.5737 447.828 37.4653C447.452 36.3569 447.264 35.1655 447.264 33.8911ZM458.938 29.7529C458.938 30.4316 458.741 30.998 458.345 31.4521C457.95 31.9014 457.393 32.2041 456.675 32.3604V32.4189C457.535 32.5264 458.179 32.7949 458.609 33.2246C459.039 33.6494 459.253 34.2158 459.253 34.9238C459.253 35.9541 458.89 36.75 458.162 37.3115C457.435 37.8682 456.399 38.1465 455.057 38.1465C453.87 38.1465 452.869 37.9536 452.054 37.5679V36.0371C452.508 36.2617 452.989 36.4351 453.497 36.5571C454.004 36.6792 454.493 36.7402 454.961 36.7402C455.792 36.7402 456.412 36.5864 456.822 36.2788C457.232 35.9712 457.437 35.4951 457.437 34.8506C457.437 34.2793 457.21 33.8594 456.756 33.5908C456.302 33.3223 455.589 33.188 454.617 33.188H453.687V31.7891H454.632C456.341 31.7891 457.195 31.1982 457.195 30.0166C457.195 29.5576 457.046 29.2036 456.749 28.9546C456.451 28.7056 456.011 28.5811 455.43 28.5811C455.025 28.5811 454.634 28.6396 454.258 28.7568C453.882 28.8691 453.438 29.0913 452.925 29.4233L452.083 28.2222C453.064 27.4995 454.205 27.1382 455.503 27.1382C456.583 27.1382 457.425 27.3701 458.03 27.834C458.636 28.2979 458.938 28.9375 458.938 29.7529ZM463.011 36.4253C462.776 37.3335 462.347 38.5029 461.722 39.9336H460.455C460.792 38.6152 461.043 37.3896 461.209 36.2568H462.901L463.011 36.4253ZM471.924 38H464.666V36.6963L467.427 33.9204C468.243 33.0854 468.782 32.4946 469.046 32.1479C469.314 31.7964 469.51 31.4668 469.632 31.1592C469.754 30.8516 469.815 30.522 469.815 30.1704C469.815 29.687 469.668 29.3062 469.375 29.0278C469.087 28.7495 468.687 28.6104 468.174 28.6104C467.764 28.6104 467.366 28.686 466.98 28.8374C466.6 28.9888 466.158 29.2622 465.655 29.6577L464.725 28.5225C465.32 28.0195 465.899 27.6631 466.46 27.4531C467.022 27.2432 467.62 27.1382 468.255 27.1382C469.251 27.1382 470.049 27.3994 470.65 27.9219C471.25 28.4395 471.551 29.1377 471.551 30.0166C471.551 30.5 471.463 30.959 471.287 31.3936C471.116 31.8281 470.85 32.2773 470.489 32.7412C470.132 33.2002 469.537 33.8228 468.702 34.6089L466.841 36.4106V36.4839H471.924V38ZM476.729 33.8911C476.729 35.1753 476.539 36.3716 476.158 37.48C475.782 38.5884 475.237 39.5527 474.524 40.373H473.038C473.711 39.46 474.227 38.4468 474.583 37.3335C474.944 36.2202 475.125 35.0679 475.125 33.8765C475.125 32.6802 474.944 31.5156 474.583 30.3828C474.222 29.2451 473.702 28.2148 473.023 27.292H474.524C475.242 28.1465 475.789 29.1401 476.165 30.2729C476.541 31.4009 476.729 32.6069 476.729 33.8911Z" fill="#00FF29"/>
<defs>
<clipPath id="clip0">
<rect width="111.034" height="100.778" fill="white" transform="translate(491)"/>
</clipPath>
<clipPath id="clip1">
<rect width="111.034" height="100.778" fill="white" transform="translate(265)"/>
</clipPath>
<clipPath id="clip2">
<rect width="89.2485" height="100.778" fill="white" transform="translate(60)"/>
</clipPath>
</defs>
</svg>
