<svg width="421" height="139" viewBox="0 0 421 139" fill="none" xmlns="http://www.w3.org/2000/svg">
<g clip-path="url(#clip0)">
<path d="M59.1311 50.3889H61.0638V1.93265H68.4582V0H59.1311V50.3889Z" fill="#00FFFF"/>
<path d="M59.1311 100.778H68.4582V98.8456H61.0638V50.3893H59.1311V100.778Z" fill="#00FFFF"/>
<path d="M87.0161 5.47262C87.0161 4.88442 86.9881 4.85641 86.596 4.85641C85.5036 6.17285 83.8511 6.59299 82.2825 6.64901C82.1985 6.64901 82.0585 6.64901 82.0305 6.70503C82.0024 6.76105 82.0024 6.81706 82.0024 7.40526C82.8707 7.40526 84.3272 7.23721 85.4476 6.56498V21.3259C85.4476 22.3062 85.3916 22.6424 82.9828 22.6424H82.1425V23.3706C83.4869 23.3426 84.8874 23.3146 86.2319 23.3146C87.5763 23.3146 88.9768 23.3426 90.3212 23.3706V22.6424H89.4809C87.0721 22.6424 87.0161 22.3343 87.0161 21.3259V5.47262Z" fill="#00FFFF"/>
<path d="M126.326 14.3796C126.326 12.671 126.298 9.75805 125.121 7.5173C124.085 5.55664 122.432 4.85641 120.976 4.85641C119.631 4.85641 117.923 5.47262 116.858 7.48929C115.738 9.58999 115.626 12.1949 115.626 14.3796C115.626 15.9761 115.654 18.4129 116.522 20.5417C117.727 23.4266 119.883 23.8188 120.976 23.8188C122.264 23.8188 124.225 23.2866 125.373 20.6257C126.214 18.693 126.326 16.4243 126.326 14.3796ZM120.976 23.3706C119.183 23.3706 118.119 21.8301 117.727 19.7014C117.419 18.0488 117.419 15.64 117.419 14.0715C117.419 11.9148 117.419 10.1222 117.783 8.4136C118.315 6.0328 119.883 5.30456 120.976 5.30456C122.124 5.30456 123.609 6.06081 124.141 8.35758C124.505 9.95411 124.533 11.8307 124.533 14.0715C124.533 15.8921 124.533 18.1329 124.197 19.7854C123.609 22.8384 121.956 23.3706 120.976 23.3706Z" fill="#00FFFF"/>
<path d="M150.429 14.3796C150.429 12.671 150.401 9.75805 149.224 7.5173C148.188 5.55664 146.536 4.85641 145.079 4.85641C143.735 4.85641 142.026 5.47262 140.962 7.48929C139.841 9.58999 139.729 12.1949 139.729 14.3796C139.729 15.9761 139.757 18.4129 140.626 20.5417C141.83 23.4266 143.987 23.8188 145.079 23.8188C146.367 23.8188 148.328 23.2866 149.477 20.6257C150.317 18.693 150.429 16.4243 150.429 14.3796ZM145.079 23.3706C143.286 23.3706 142.222 21.8301 141.83 19.7014C141.522 18.0488 141.522 15.64 141.522 14.0715C141.522 11.9148 141.522 10.1222 141.886 8.4136C142.418 6.0328 143.987 5.30456 145.079 5.30456C146.227 5.30456 147.712 6.06081 148.244 8.35758C148.608 9.95411 148.636 11.8307 148.636 14.0715C148.636 15.8921 148.636 18.1329 148.3 19.7854C147.712 22.8384 146.059 23.3706 145.079 23.3706Z" fill="#00FFFF"/>
<path d="M87.1312 50.7018C87.6074 50.7018 88.1115 50.7018 88.1115 50.1416C88.1115 49.5814 87.6074 49.5814 87.1312 49.5814H71.9781C71.502 49.5814 70.9978 49.5814 70.9978 50.1416C70.9978 50.7018 71.502 50.7018 71.9781 50.7018H87.1312Z" fill="#00FFFF"/>
<path d="M96.6483 47.6208C99.1412 47.6208 100.234 49.7775 100.234 52.2703C100.234 55.6314 98.4409 56.9199 96.8164 56.9199C95.3319 56.9199 92.9231 56.1916 92.1668 54.0349C92.3069 54.0909 92.4469 54.0909 92.587 54.0909C93.2592 54.0909 93.7634 53.6428 93.7634 52.9145C93.7634 52.1023 93.1472 51.7381 92.587 51.7381C92.1108 51.7381 91.3826 51.9622 91.3826 52.9986C91.3826 55.5754 93.9034 57.5921 96.8724 57.5921C99.9814 57.5921 102.362 55.1553 102.362 52.2983C102.362 49.5814 100.121 47.6208 97.4606 47.3127C99.5893 46.8645 101.634 44.9599 101.634 42.411C101.634 40.2263 99.4213 38.6298 96.9004 38.6298C94.3516 38.6298 92.1108 40.1983 92.1108 42.439C92.1108 43.4194 92.8391 43.5874 93.2032 43.5874C93.7914 43.5874 94.2955 43.2233 94.2955 42.495C94.2955 41.7668 93.7914 41.4027 93.2032 41.4027C93.0911 41.4027 92.9511 41.4027 92.8391 41.4587C93.6513 39.6101 95.8641 39.274 96.8444 39.274C97.8247 39.274 99.6733 39.7501 99.6733 42.439C99.6733 43.2233 99.5613 44.6238 98.609 45.8562C97.7687 46.9485 96.8164 47.0046 95.8921 47.0886C95.752 47.0886 95.1078 47.1446 94.9958 47.1446C94.7997 47.1726 94.6877 47.2006 94.6877 47.3967C94.6877 47.5928 94.7157 47.6208 95.2759 47.6208H96.6483Z" fill="#00FFFF"/>
<path d="M122.012 39.246C122.012 38.6578 121.984 38.6298 121.592 38.6298C120.499 39.9462 118.847 40.3663 117.278 40.4224C117.194 40.4224 117.054 40.4224 117.026 40.4784C116.998 40.5344 116.998 40.5904 116.998 41.1786C117.867 41.1786 119.323 41.0106 120.443 40.3383V55.0993C120.443 56.0796 120.387 56.4157 117.979 56.4157H117.138V57.1439C118.483 57.1159 119.883 57.0879 121.228 57.0879C122.572 57.0879 123.973 57.1159 125.317 57.1439V56.4157H124.477C122.068 56.4157 122.012 56.1076 122.012 55.0993V39.246Z" fill="#00FFFF"/>
<path d="M150.429 48.1529C150.429 46.4444 150.401 43.5314 149.224 41.2906C148.188 39.33 146.536 38.6298 145.079 38.6298C143.735 38.6298 142.026 39.246 140.962 41.2626C139.841 43.3633 139.729 45.9682 139.729 48.1529C139.729 49.7495 139.757 52.1863 140.626 54.315C141.83 57.2 143.987 57.5921 145.079 57.5921C146.367 57.5921 148.328 57.0599 149.477 54.399C150.317 52.4664 150.429 50.1976 150.429 48.1529ZM145.079 57.1439C143.286 57.1439 142.222 55.6034 141.83 53.4747C141.522 51.8222 141.522 49.4134 141.522 47.8448C141.522 45.6881 141.522 43.8955 141.886 42.1869C142.418 39.8061 143.987 39.0779 145.079 39.0779C146.227 39.0779 147.712 39.8342 148.244 42.1309C148.608 43.7275 148.636 45.6041 148.636 47.8448C148.636 49.6654 148.636 51.9062 148.3 53.5587C147.712 56.6118 146.059 57.1439 145.079 57.1439Z" fill="#00FFFF"/>
<path d="M91.3295 81.9263C91.3295 80.2177 91.3015 77.3047 90.1251 75.064C89.0887 73.1033 87.4362 72.4031 85.9797 72.4031C84.6352 72.4031 82.9267 73.0193 81.8623 75.036C80.7419 77.1367 80.6299 79.7416 80.6299 81.9263C80.6299 83.5228 80.6579 85.9596 81.5262 88.0884C82.7306 90.9733 84.8873 91.3654 85.9797 91.3654C87.2681 91.3654 89.2288 90.8333 90.3771 88.1724C91.2174 86.2397 91.3295 83.971 91.3295 81.9263ZM85.9797 90.9173C84.1871 90.9173 83.1227 89.3768 82.7306 87.2481C82.4225 85.5955 82.4225 83.1867 82.4225 81.6182C82.4225 79.4615 82.4225 77.6689 82.7866 75.9603C83.3188 73.5795 84.8873 72.8513 85.9797 72.8513C87.1281 72.8513 88.6126 73.6075 89.1447 75.9043C89.5089 77.5008 89.5369 79.3774 89.5369 81.6182C89.5369 83.4388 89.5369 85.6795 89.2007 87.3321C88.6126 90.3851 86.96 90.9173 85.9797 90.9173Z" fill="#00FFFF"/>
<path d="M126.326 81.9263C126.326 80.2177 126.298 77.3047 125.121 75.064C124.085 73.1033 122.432 72.4031 120.976 72.4031C119.631 72.4031 117.923 73.0193 116.858 75.036C115.738 77.1367 115.626 79.7416 115.626 81.9263C115.626 83.5228 115.654 85.9596 116.522 88.0884C117.727 90.9733 119.883 91.3654 120.976 91.3654C122.264 91.3654 124.225 90.8333 125.373 88.1724C126.214 86.2397 126.326 83.971 126.326 81.9263ZM120.976 90.9173C119.183 90.9173 118.119 89.3768 117.727 87.2481C117.419 85.5955 117.419 83.1867 117.419 81.6182C117.419 79.4615 117.419 77.6689 117.783 75.9603C118.315 73.5795 119.883 72.8513 120.976 72.8513C122.124 72.8513 123.609 73.6075 124.141 75.9043C124.505 77.5008 124.533 79.3774 124.533 81.6182C124.533 83.4388 124.533 85.6795 124.197 87.3321C123.609 90.3851 121.956 90.9173 120.976 90.9173Z" fill="#00FFFF"/>
<path d="M146.115 73.0193C146.115 72.4311 146.087 72.4031 145.695 72.4031C144.603 73.7195 142.95 74.1397 141.382 74.1957C141.298 74.1957 141.158 74.1957 141.13 74.2517C141.102 74.3077 141.102 74.3638 141.102 74.952C141.97 74.952 143.427 74.7839 144.547 74.1117V88.8726C144.547 89.8529 144.491 90.1891 142.082 90.1891H141.242V90.9173C142.586 90.8893 143.987 90.8613 145.331 90.8613C146.676 90.8613 148.076 90.8893 149.421 90.9173V90.1891H148.58C146.172 90.1891 146.115 89.881 146.115 88.8726V73.0193Z" fill="#00FFFF"/>
<path d="M159.101 50.3889H161.034V0H151.707V1.93265H159.101V50.3889Z" fill="#00FFFF"/>
<path d="M159.101 98.8456H151.707V100.778H161.034V50.3893H159.101V98.8456Z" fill="#00FFFF"/>
<path d="M183.983 50.3889H185.915V1.93265H193.31V0H183.983V50.3889Z" fill="#00FFFF"/>
<path d="M183.983 100.778H193.31V98.8456H185.915V50.3893H183.983V100.778Z" fill="#00FFFF"/>
<path d="M200.975 5.47262C200.975 4.88442 200.947 4.85641 200.555 4.85641C199.463 6.17285 197.81 6.59299 196.242 6.64901C196.157 6.64901 196.017 6.64901 195.989 6.70503C195.961 6.76105 195.961 6.81706 195.961 7.40526C196.83 7.40526 198.286 7.23721 199.407 6.56498V21.3259C199.407 22.3062 199.351 22.6424 196.942 22.6424H196.101V23.3706C197.446 23.3426 198.846 23.3146 200.191 23.3146C201.535 23.3146 202.936 23.3426 204.28 23.3706V22.6424H203.44C201.031 22.6424 200.975 22.3343 200.975 21.3259V5.47262Z" fill="#00FFFF"/>
<path d="M229.308 19.0292H228.804C228.524 21.0178 228.3 21.3539 228.188 21.522C228.047 21.7461 226.031 21.7461 225.639 21.7461H220.261C221.269 20.6537 223.23 18.665 225.611 16.3683C227.319 14.7437 229.308 12.8391 229.308 10.0662C229.308 6.76105 226.675 4.85641 223.734 4.85641C220.653 4.85641 218.776 7.57332 218.776 10.0942C218.776 11.1865 219.589 11.3266 219.925 11.3266C220.205 11.3266 221.045 11.1585 221.045 10.1782C221.045 9.3099 220.317 9.05782 219.925 9.05782C219.757 9.05782 219.589 9.08583 219.477 9.14184C220.009 6.76105 221.633 5.58465 223.342 5.58465C225.779 5.58465 227.375 7.5173 227.375 10.0662C227.375 12.503 225.947 14.6037 224.35 16.4243L218.776 22.7264V23.3706H228.636L229.308 19.0292Z" fill="#00FFFF"/>
<path d="M249.182 5.47262C249.182 4.88442 249.154 4.85641 248.762 4.85641C247.669 6.17285 246.017 6.59299 244.448 6.64901C244.364 6.64901 244.224 6.64901 244.196 6.70503C244.168 6.76105 244.168 6.81706 244.168 7.40526C245.037 7.40526 246.493 7.23721 247.613 6.56498V21.3259C247.613 22.3062 247.557 22.6424 245.149 22.6424H244.308V23.3706C245.653 23.3426 247.053 23.3146 248.398 23.3146C249.742 23.3146 251.143 23.3426 252.487 23.3706V22.6424H251.647C249.238 22.6424 249.182 22.3343 249.182 21.3259V5.47262Z" fill="#00FFFF"/>
<path d="M199.715 47.6208C202.208 47.6208 203.3 49.7775 203.3 52.2703C203.3 55.6314 201.507 56.9199 199.883 56.9199C198.398 56.9199 195.989 56.1916 195.233 54.0349C195.373 54.0909 195.513 54.0909 195.653 54.0909C196.326 54.0909 196.83 53.6428 196.83 52.9145C196.83 52.1023 196.214 51.7381 195.653 51.7381C195.177 51.7381 194.449 51.9622 194.449 52.9986C194.449 55.5754 196.97 57.5921 199.939 57.5921C203.048 57.5921 205.429 55.1553 205.429 52.2983C205.429 49.5814 203.188 47.6208 200.527 47.3127C202.656 46.8645 204.7 44.9599 204.7 42.411C204.7 40.2263 202.488 38.6298 199.967 38.6298C197.418 38.6298 195.177 40.1983 195.177 42.439C195.177 43.4194 195.905 43.5874 196.27 43.5874C196.858 43.5874 197.362 43.2233 197.362 42.495C197.362 41.7668 196.858 41.4027 196.27 41.4027C196.158 41.4027 196.017 41.4027 195.905 41.4587C196.718 39.6101 198.93 39.274 199.911 39.274C200.891 39.274 202.74 39.7501 202.74 42.439C202.74 43.2233 202.628 44.6238 201.675 45.8562C200.835 46.9485 199.883 47.0046 198.958 47.0886C198.818 47.0886 198.174 47.1446 198.062 47.1446C197.866 47.1726 197.754 47.2006 197.754 47.3967C197.754 47.5928 197.782 47.6208 198.342 47.6208H199.715Z" fill="#00FFFF"/>
<path d="M225.246 47.0606C227.011 46.1643 228.804 44.8198 228.804 42.6631C228.804 40.1143 226.339 38.6298 224.07 38.6298C221.521 38.6298 219.28 40.4784 219.28 43.0272C219.28 43.7275 219.449 44.9319 220.541 45.9962C220.821 46.2763 221.997 47.1166 222.754 47.6488C221.493 48.293 218.552 49.8335 218.552 52.9145C218.552 55.7995 221.297 57.5921 224.014 57.5921C227.011 57.5921 229.532 55.4354 229.532 52.5784C229.532 50.0296 227.823 48.8532 226.703 48.0969L225.246 47.0606ZM221.577 44.5958C221.353 44.4557 220.233 43.5874 220.233 42.271C220.233 40.5624 221.997 39.274 224.014 39.274C226.227 39.274 227.851 40.8425 227.851 42.6631C227.851 45.268 224.938 46.7525 224.798 46.7525C224.77 46.7525 224.742 46.7525 224.518 46.5844L221.577 44.5958ZM226.731 50.3377C227.151 50.6458 228.496 51.5701 228.496 53.2787C228.496 55.3513 226.423 56.9199 224.07 56.9199C221.521 56.9199 219.589 55.0993 219.589 52.8865C219.589 50.6738 221.297 48.8252 223.23 47.9569L226.731 50.3377Z" fill="#00FFFF"/>
<path d="M249.182 39.246C249.182 38.6578 249.154 38.6298 248.762 38.6298C247.669 39.9462 246.017 40.3663 244.448 40.4224C244.364 40.4224 244.224 40.4224 244.196 40.4784C244.168 40.5344 244.168 40.5904 244.168 41.1786C245.037 41.1786 246.493 41.0106 247.613 40.3383V55.0993C247.613 56.0796 247.557 56.4157 245.149 56.4157H244.308V57.1439C245.653 57.1159 247.053 57.0879 248.398 57.0879C249.742 57.0879 251.143 57.1159 252.487 57.1439V56.4157H251.647C249.238 56.4157 249.182 56.1076 249.182 55.0993V39.246Z" fill="#00FFFF"/>
<path d="M205.289 81.9263C205.289 80.2177 205.261 77.3047 204.084 75.064C203.048 73.1033 201.395 72.4031 199.939 72.4031C198.594 72.4031 196.886 73.0193 195.822 75.036C194.701 77.1367 194.589 79.7416 194.589 81.9263C194.589 83.5228 194.617 85.9596 195.485 88.0884C196.69 90.9733 198.847 91.3654 199.939 91.3654C201.227 91.3654 203.188 90.8333 204.336 88.1724C205.177 86.2397 205.289 83.971 205.289 81.9263ZM199.939 90.9173C198.146 90.9173 197.082 89.3768 196.69 87.2481C196.382 85.5955 196.382 83.1867 196.382 81.6182C196.382 79.4615 196.382 77.6689 196.746 75.9603C197.278 73.5795 198.847 72.8513 199.939 72.8513C201.087 72.8513 202.572 73.6075 203.104 75.9043C203.468 77.5008 203.496 79.3774 203.496 81.6182C203.496 83.4388 203.496 85.6795 203.16 87.3321C202.572 90.3851 200.919 90.9173 199.939 90.9173Z" fill="#00FFFF"/>
<path d="M227.039 72.7952C227.039 72.207 227.011 72.179 226.507 72.179L218.188 85.4275V86.1557H225.415V88.9006C225.415 89.909 225.359 90.1891 223.398 90.1891H222.866V90.9173C223.762 90.8613 225.275 90.8613 226.227 90.8613C227.179 90.8613 228.692 90.8613 229.588 90.9173V90.1891H229.056C227.095 90.1891 227.039 89.909 227.039 88.9006V86.1557H229.896V85.4275H227.039V72.7952ZM225.499 74.6439V85.4275H218.748L225.499 74.6439Z" fill="#00FFFF"/>
<path d="M249.182 73.0193C249.182 72.4311 249.154 72.4031 248.762 72.4031C247.669 73.7195 246.017 74.1397 244.448 74.1957C244.364 74.1957 244.224 74.1957 244.196 74.2517C244.168 74.3077 244.168 74.3638 244.168 74.952C245.037 74.952 246.493 74.7839 247.613 74.1117V88.8726C247.613 89.8529 247.557 90.1891 245.149 90.1891H244.308V90.9173C245.653 90.8893 247.053 90.8613 248.398 90.8613C249.742 90.8613 251.143 90.8893 252.487 90.9173V90.1891H251.647C249.238 90.1891 249.182 89.881 249.182 88.8726V73.0193Z" fill="#00FFFF"/>
<path d="M262.167 50.3889H264.1V0H254.773V1.93265H262.167V50.3889Z" fill="#00FFFF"/>
<path d="M262.167 98.8456H254.773V100.778H264.1V50.3893H262.167V98.8456Z" fill="#00FFFF"/>
<path d="M299.04 48.4007C299.461 48.4007 299.881 48.4007 299.881 47.9246C299.881 47.4204 299.405 47.4204 298.928 47.4204H283.271C282.795 47.4204 282.319 47.4204 282.319 47.9246C282.319 48.4007 282.739 48.4007 283.159 48.4007H299.04ZM298.928 53.3864C299.405 53.3864 299.881 53.3864 299.881 52.8822C299.881 52.4061 299.461 52.4061 299.04 52.4061H283.159C282.739 52.4061 282.319 52.4061 282.319 52.8822C282.319 53.3864 282.795 53.3864 283.271 53.3864H298.928Z" fill="#00FFFF"/>
<path d="M318.104 50.3889H320.037V1.93265H327.431V0H318.104V50.3889Z" fill="#00FFFF"/>
<path d="M318.104 100.778H327.431V98.8456H320.037V50.3893H318.104V100.778Z" fill="#00FFFF"/>
<path d="M335.096 5.47262C335.096 4.88442 335.068 4.85641 334.676 4.85641C333.584 6.17285 331.931 6.59299 330.363 6.64901C330.279 6.64901 330.139 6.64901 330.111 6.70503C330.083 6.76105 330.083 6.81706 330.083 7.40526C330.951 7.40526 332.407 7.23721 333.528 6.56498V21.3259C333.528 22.3062 333.472 22.6424 331.063 22.6424H330.223V23.3706C331.567 23.3426 332.967 23.3146 334.312 23.3146C335.656 23.3146 337.057 23.3426 338.401 23.3706V22.6424H337.561C335.152 22.6424 335.096 22.3343 335.096 21.3259V5.47262Z" fill="#00FFFF"/>
<path d="M363.429 19.0292H362.925C362.645 21.0178 362.421 21.3539 362.309 21.522C362.169 21.7461 360.152 21.7461 359.76 21.7461H354.382C355.391 20.6537 357.351 18.665 359.732 16.3683C361.441 14.7437 363.429 12.8391 363.429 10.0662C363.429 6.76105 360.796 4.85641 357.855 4.85641C354.774 4.85641 352.898 7.57332 352.898 10.0942C352.898 11.1865 353.71 11.3266 354.046 11.3266C354.326 11.3266 355.166 11.1585 355.166 10.1782C355.166 9.3099 354.438 9.05782 354.046 9.05782C353.878 9.05782 353.71 9.08583 353.598 9.14184C354.13 6.76105 355.755 5.58465 357.463 5.58465C359.9 5.58465 361.497 7.5173 361.497 10.0662C361.497 12.503 360.068 14.6037 358.472 16.4243L352.898 22.7264V23.3706H362.757L363.429 19.0292Z" fill="#00FFFF"/>
<path d="M394.196 5.47262C394.196 4.88442 394.168 4.85641 393.775 4.85641C392.683 6.17285 391.031 6.59299 389.462 6.64901C389.378 6.64901 389.238 6.64901 389.21 6.70503C389.182 6.76105 389.182 6.81706 389.182 7.40526C390.05 7.40526 391.507 7.23721 392.627 6.56498V21.3259C392.627 22.3062 392.571 22.6424 390.162 22.6424H389.322V23.3706C390.666 23.3426 392.067 23.3146 393.411 23.3146C394.756 23.3146 396.156 23.3426 397.501 23.3706V22.6424H396.66C394.252 22.6424 394.196 22.3343 394.196 21.3259V5.47262Z" fill="#00FFFF"/>
<path d="M339.41 48.1529C339.41 46.4444 339.382 43.5314 338.205 41.2906C337.169 39.33 335.516 38.6298 334.06 38.6298C332.716 38.6298 331.007 39.246 329.943 41.2626C328.822 43.3633 328.71 45.9682 328.71 48.1529C328.71 49.7495 328.738 52.1863 329.607 54.315C330.811 57.2 332.968 57.5921 334.06 57.5921C335.348 57.5921 337.309 57.0599 338.457 54.399C339.298 52.4664 339.41 50.1976 339.41 48.1529ZM334.06 57.1439C332.267 57.1439 331.203 55.6034 330.811 53.4747C330.503 51.8222 330.503 49.4134 330.503 47.8448C330.503 45.6881 330.503 43.8955 330.867 42.1869C331.399 39.8061 332.968 39.0779 334.06 39.0779C335.208 39.0779 336.693 39.8342 337.225 42.1309C337.589 43.7275 337.617 45.6041 337.617 47.8448C337.617 49.6654 337.617 51.9062 337.281 53.5587C336.693 56.6118 335.04 57.1439 334.06 57.1439Z" fill="#00FFFF"/>
<path d="M363.429 52.8025H362.925C362.645 54.7912 362.421 55.1273 362.309 55.2953C362.169 55.5194 360.152 55.5194 359.76 55.5194H354.382C355.391 54.427 357.351 52.4384 359.732 50.1416C361.441 48.5171 363.429 46.6124 363.429 43.8395C363.429 40.5344 360.796 38.6298 357.855 38.6298C354.774 38.6298 352.898 41.3467 352.898 43.8675C352.898 44.9599 353.71 45.0999 354.046 45.0999C354.326 45.0999 355.166 44.9319 355.166 43.9515C355.166 43.0832 354.438 42.8312 354.046 42.8312C353.878 42.8312 353.71 42.8592 353.598 42.9152C354.13 40.5344 355.755 39.358 357.463 39.358C359.9 39.358 361.497 41.2906 361.497 43.8395C361.497 46.2763 360.068 48.377 358.472 50.1976L352.898 56.4997V57.1439H362.757L363.429 52.8025Z" fill="#00FFFF"/>
<path d="M394.311 50.7018C394.787 50.7018 395.291 50.7018 395.291 50.1416C395.291 49.5814 394.787 49.5814 394.311 49.5814H379.158C378.682 49.5814 378.177 49.5814 378.177 50.1416C378.177 50.7018 378.682 50.7018 379.158 50.7018H394.311Z" fill="#00FFFF"/>
<path d="M409.318 52.8025H408.813C408.533 54.7912 408.309 55.1273 408.197 55.2953C408.057 55.5194 406.041 55.5194 405.648 55.5194H400.271C401.279 54.427 403.24 52.4384 405.62 50.1416C407.329 48.5171 409.318 46.6124 409.318 43.8395C409.318 40.5344 406.685 38.6298 403.744 38.6298C400.663 38.6298 398.786 41.3467 398.786 43.8675C398.786 44.9599 399.598 45.0999 399.935 45.0999C400.215 45.0999 401.055 44.9319 401.055 43.9515C401.055 43.0832 400.327 42.8312 399.935 42.8312C399.766 42.8312 399.598 42.8592 399.486 42.9152C400.019 40.5344 401.643 39.358 403.352 39.358C405.788 39.358 407.385 41.2906 407.385 43.8395C407.385 46.2763 405.957 48.377 404.36 50.1976L398.786 56.4997V57.1439H408.645L409.318 52.8025Z" fill="#00FFFF"/>
<path d="M339.41 81.9263C339.41 80.2177 339.382 77.3047 338.205 75.064C337.169 73.1033 335.516 72.4031 334.06 72.4031C332.716 72.4031 331.007 73.0193 329.943 75.036C328.822 77.1367 328.71 79.7416 328.71 81.9263C328.71 83.5228 328.738 85.9596 329.607 88.0884C330.811 90.9733 332.968 91.3654 334.06 91.3654C335.348 91.3654 337.309 90.8333 338.457 88.1724C339.298 86.2397 339.41 83.971 339.41 81.9263ZM334.06 90.9173C332.267 90.9173 331.203 89.3768 330.811 87.2481C330.503 85.5955 330.503 83.1867 330.503 81.6182C330.503 79.4615 330.503 77.6689 330.867 75.9603C331.399 73.5795 332.968 72.8513 334.06 72.8513C335.208 72.8513 336.693 73.6075 337.225 75.9043C337.589 77.5008 337.617 79.3774 337.617 81.6182C337.617 83.4388 337.617 85.6795 337.281 87.3321C336.693 90.3851 335.04 90.9173 334.06 90.9173Z" fill="#00FFFF"/>
<path d="M361.16 72.7952C361.16 72.207 361.132 72.179 360.628 72.179L352.309 85.4275V86.1557H359.536V88.9006C359.536 89.909 359.48 90.1891 357.519 90.1891H356.987V90.9173C357.883 90.8613 359.396 90.8613 360.348 90.8613C361.3 90.8613 362.813 90.8613 363.709 90.9173V90.1891H363.177C361.216 90.1891 361.16 89.909 361.16 88.9006V86.1557H364.017V85.4275H361.16V72.7952ZM359.62 74.6439V85.4275H352.87L359.62 74.6439Z" fill="#00FFFF"/>
<path d="M394.196 73.0193C394.196 72.4311 394.168 72.4031 393.775 72.4031C392.683 73.7195 391.031 74.1397 389.462 74.1957C389.378 74.1957 389.238 74.1957 389.21 74.2517C389.182 74.3077 389.182 74.3638 389.182 74.952C390.05 74.952 391.507 74.7839 392.627 74.1117V88.8726C392.627 89.8529 392.571 90.1891 390.162 90.1891H389.322V90.9173C390.666 90.8893 392.067 90.8613 393.411 90.8613C394.756 90.8613 396.156 90.8893 397.501 90.9173V90.1891H396.66C394.252 90.1891 394.196 89.881 394.196 88.8726V73.0193Z" fill="#00FFFF"/>
<path d="M418.074 50.3889H420.007V0H410.679V1.93265H418.074V50.3889Z" fill="#00FFFF"/>
<path d="M418.074 98.8456H410.679V100.778H420.007V50.3893H418.074V98.8456Z" fill="#00FFFF"/>
</g>
<path d="M74.4864 77.1158C74.5504 76.8472 74.3844 76.5776 74.1158 76.5136L69.7382 75.4713C69.4695 75.4073 69.1999 75.5733 69.136 75.8419C69.072 76.1105 69.2379 76.3802 69.5066 76.4441L73.3978 77.3706L72.4713 81.2618C72.4073 81.5305 72.5733 81.8001 72.8419 81.864C73.1105 81.928 73.3802 81.7621 73.4441 81.4934L74.4864 77.1158ZM35.262 101.426L74.262 77.4258L73.738 76.5742L34.738 100.574L35.262 101.426Z" fill="#00FF29"/>
<path d="M18.378 126.501C18.406 126.416 18.4901 126.22 18.4901 126.108C18.4901 125.968 18.378 125.828 18.21 125.828C18.0979 125.828 18.0419 125.856 17.9579 125.94C17.9019 125.968 17.9019 126.024 17.6498 126.585C15.9972 130.506 14.7928 132.186 10.3113 132.186H6.22197C5.82983 132.186 5.77382 132.186 5.60576 132.158C5.29766 132.13 5.26965 132.074 5.26965 131.85C5.26965 131.654 5.32567 131.486 5.38168 131.234L7.31433 123.504H10.0873C12.272 123.504 12.44 123.98 12.44 124.82C12.44 125.1 12.44 125.352 12.244 126.192C12.188 126.304 12.16 126.416 12.16 126.501C12.16 126.697 12.3 126.781 12.4681 126.781C12.7201 126.781 12.7481 126.585 12.8602 126.192L14.4567 119.694C14.4567 119.554 14.3447 119.414 14.1766 119.414C13.9245 119.414 13.8965 119.526 13.7845 119.918C13.2243 122.075 12.6641 122.691 10.1713 122.691H7.5104L9.24698 115.801C9.49906 114.821 9.55508 114.737 10.7035 114.737H14.7088C18.154 114.737 18.8542 115.661 18.8542 117.79C18.8542 117.818 18.8542 118.602 18.7422 119.526C18.7141 119.638 18.6861 119.806 18.6861 119.862C18.6861 120.086 18.8262 120.17 18.9942 120.17C19.1903 120.17 19.3023 120.058 19.3584 119.554L19.9466 114.653C19.9466 114.569 20.0026 114.288 20.0026 114.232C20.0026 113.924 19.7505 113.924 19.2463 113.924H5.57775C5.04557 113.924 4.76548 113.924 4.76548 114.428C4.76548 114.737 4.96155 114.737 5.4377 114.737C7.17429 114.737 7.17429 114.933 7.17429 115.241C7.17429 115.381 7.14628 115.493 7.06225 115.801L3.28098 130.926C3.0289 131.906 2.97288 132.186 1.01222 132.186C0.480046 132.186 0.199951 132.186 0.199951 132.691C0.199951 132.999 0.368008 132.999 0.928196 132.999H14.9889C15.6051 132.999 15.6331 132.971 15.8292 132.523L18.378 126.501Z" fill="#00FFFF"/>
<path d="M28.9495 134.783H28.5292C28.2957 136.441 28.109 136.721 28.0156 136.861C27.8988 137.048 26.2177 137.048 25.8908 137.048H21.4079C22.2484 136.137 23.8828 134.479 25.8675 132.565C27.2917 131.21 28.9495 129.623 28.9495 127.311C28.9495 124.556 26.7547 122.968 24.3031 122.968C21.7348 122.968 20.1704 125.233 20.1704 127.335C20.1704 128.245 20.8475 128.362 21.1277 128.362C21.3612 128.362 22.0617 128.222 22.0617 127.405C22.0617 126.681 21.4546 126.471 21.1277 126.471C20.9876 126.471 20.8475 126.494 20.7541 126.541C21.1978 124.556 22.552 123.575 23.9762 123.575C26.0076 123.575 27.3384 125.186 27.3384 127.311C27.3384 129.343 26.1477 131.094 24.8168 132.611L20.1704 137.865V138.402H28.3891L28.9495 134.783Z" fill="#00FFFF"/>
<path d="M36.132 123.482C36.132 122.992 36.1087 122.968 35.7818 122.968C34.8712 124.066 33.4936 124.416 32.1861 124.463C32.1161 124.463 31.9993 124.463 31.976 124.509C31.9526 124.556 31.9526 124.603 31.9526 125.093C32.6764 125.093 33.8906 124.953 34.8245 124.393V136.697C34.8245 137.515 34.7778 137.795 32.7698 137.795H32.0694V138.402C33.1901 138.378 34.3575 138.355 35.4783 138.355C36.599 138.355 37.7665 138.378 38.8872 138.402V137.795H38.1867C36.1787 137.795 36.132 137.538 36.132 136.697V123.482Z" fill="#00FFFF"/>
<defs>
<clipPath id="clip0">
<rect width="370.006" height="100.778" fill="white" transform="translate(50)"/>
</clipPath>
</defs>
</svg>
