<svg width="444" height="140" viewBox="0 0 444 140" fill="none" xmlns="http://www.w3.org/2000/svg">
<g clip-path="url(#clip0)">
<path d="M61.1311 50.3889H63.0638V1.93265H70.4582V0H61.1311V50.3889Z" fill="#00FFFF"/>
<path d="M61.1311 100.778H70.4582V98.8456H63.0638V50.3893H61.1311V100.778Z" fill="#00FFFF"/>
<path d="M78.1235 5.47262C78.1235 4.88442 78.0955 4.85641 77.7034 4.85641C76.611 6.17285 74.9585 6.59299 73.39 6.64901C73.3059 6.64901 73.1659 6.64901 73.1379 6.70503C73.1099 6.76105 73.1099 6.81707 73.1099 7.40527C73.9782 7.40527 75.4346 7.23721 76.555 6.56498V21.3259C76.555 22.3063 76.499 22.6424 74.0902 22.6424H73.2499V23.3706C74.5944 23.3426 75.9948 23.3146 77.3393 23.3146C78.6837 23.3146 80.0842 23.3426 81.4286 23.3706V22.6424H80.5884C78.1796 22.6424 78.1235 22.3343 78.1235 21.3259V5.47262Z" fill="#00FFFF"/>
<path d="M117.433 14.3796C117.433 12.671 117.405 9.75805 116.229 7.5173C115.192 5.55665 113.54 4.85641 112.083 4.85641C110.739 4.85641 109.03 5.47262 107.966 7.48929C106.845 9.59 106.733 12.1949 106.733 14.3796C106.733 15.9761 106.761 18.4129 107.63 20.5417C108.834 23.4266 110.991 23.8188 112.083 23.8188C113.372 23.8188 115.332 23.2866 116.481 20.6257C117.321 18.693 117.433 16.4243 117.433 14.3796ZM112.083 23.3706C110.291 23.3706 109.226 21.8301 108.834 19.7014C108.526 18.0488 108.526 15.64 108.526 14.0715C108.526 11.9148 108.526 10.1222 108.89 8.4136C109.422 6.03281 110.991 5.30456 112.083 5.30456C113.232 5.30456 114.716 6.06082 115.248 8.35758C115.612 9.95412 115.64 11.8307 115.64 14.0715C115.64 15.8921 115.64 18.1329 115.304 19.7854C114.716 22.8384 113.064 23.3706 112.083 23.3706Z" fill="#00FFFF"/>
<path d="M152.429 14.3796C152.429 12.671 152.401 9.75805 151.224 7.5173C150.188 5.55665 148.536 4.85641 147.079 4.85641C145.735 4.85641 144.026 5.47262 142.962 7.48929C141.841 9.59 141.729 12.1949 141.729 14.3796C141.729 15.9761 141.757 18.4129 142.626 20.5417C143.83 23.4266 145.987 23.8188 147.079 23.8188C148.367 23.8188 150.328 23.2866 151.477 20.6257C152.317 18.693 152.429 16.4243 152.429 14.3796ZM147.079 23.3706C145.286 23.3706 144.222 21.8301 143.83 19.7014C143.522 18.0488 143.522 15.64 143.522 14.0715C143.522 11.9148 143.522 10.1222 143.886 8.4136C144.418 6.03281 145.987 5.30456 147.079 5.30456C148.227 5.30456 149.712 6.06082 150.244 8.35758C150.608 9.95412 150.636 11.8307 150.636 14.0715C150.636 15.8921 150.636 18.1329 150.3 19.7854C149.712 22.8384 148.059 23.3706 147.079 23.3706Z" fill="#00FFFF"/>
<path d="M82.4369 48.1529C82.4369 46.4444 82.4089 43.5314 81.2325 41.2906C80.1961 39.33 78.5436 38.6298 77.0871 38.6298C75.7426 38.6298 74.0341 39.246 72.9697 41.2626C71.8493 43.3633 71.7373 45.9682 71.7373 48.1529C71.7373 49.7495 71.7653 52.1863 72.6336 54.315C73.838 57.2 75.9947 57.5921 77.0871 57.5921C78.3755 57.5921 80.3362 57.0599 81.4846 54.399C82.3248 52.4664 82.4369 50.1976 82.4369 48.1529ZM77.0871 57.144C75.2945 57.144 74.2301 55.6034 73.838 53.4747C73.5299 51.8222 73.5299 49.4134 73.5299 47.8448C73.5299 45.6881 73.5299 43.8955 73.894 42.1869C74.4262 39.8062 75.9947 39.0779 77.0871 39.0779C78.2355 39.0779 79.72 39.8342 80.2522 42.1309C80.6163 43.7275 80.6443 45.6041 80.6443 47.8448C80.6443 49.6655 80.6443 51.9062 80.3082 53.5588C79.72 56.6118 78.0674 57.144 77.0871 57.144Z" fill="#00FFFF"/>
<path d="M113.119 39.246C113.119 38.6578 113.091 38.6298 112.699 38.6298C111.607 39.9462 109.954 40.3663 108.386 40.4224C108.302 40.4224 108.162 40.4224 108.134 40.4784C108.106 40.5344 108.106 40.5904 108.106 41.1786C108.974 41.1786 110.43 41.0106 111.551 40.3383V55.0993C111.551 56.0796 111.495 56.4157 109.086 56.4157H108.246V57.144C109.59 57.1159 110.991 57.0879 112.335 57.0879C113.68 57.0879 115.08 57.1159 116.424 57.144V56.4157H115.584C113.175 56.4157 113.119 56.1076 113.119 55.0993V39.246Z" fill="#00FFFF"/>
<path d="M152.429 48.1529C152.429 46.4444 152.401 43.5314 151.224 41.2906C150.188 39.33 148.536 38.6298 147.079 38.6298C145.735 38.6298 144.026 39.246 142.962 41.2626C141.841 43.3633 141.729 45.9682 141.729 48.1529C141.729 49.7495 141.757 52.1863 142.626 54.315C143.83 57.2 145.987 57.5921 147.079 57.5921C148.367 57.5921 150.328 57.0599 151.477 54.399C152.317 52.4664 152.429 50.1976 152.429 48.1529ZM147.079 57.144C145.286 57.144 144.222 55.6034 143.83 53.4747C143.522 51.8222 143.522 49.4134 143.522 47.8448C143.522 45.6881 143.522 43.8955 143.886 42.1869C144.418 39.8062 145.987 39.0779 147.079 39.0779C148.227 39.0779 149.712 39.8342 150.244 42.1309C150.608 43.7275 150.636 45.6041 150.636 47.8448C150.636 49.6655 150.636 51.9062 150.3 53.5588C149.712 56.6118 148.059 57.144 147.079 57.144Z" fill="#00FFFF"/>
<path d="M82.4369 81.9263C82.4369 80.2177 82.4089 77.3047 81.2325 75.064C80.1961 73.1033 78.5436 72.4031 77.0871 72.4031C75.7426 72.4031 74.0341 73.0193 72.9697 75.036C71.8493 77.1367 71.7373 79.7416 71.7373 81.9263C71.7373 83.5228 71.7653 85.9596 72.6336 88.0884C73.838 90.9733 75.9947 91.3654 77.0871 91.3654C78.3755 91.3654 80.3362 90.8333 81.4846 88.1724C82.3248 86.2397 82.4369 83.971 82.4369 81.9263ZM77.0871 90.9173C75.2945 90.9173 74.2301 89.3768 73.838 87.2481C73.5299 85.5955 73.5299 83.1867 73.5299 81.6182C73.5299 79.4615 73.5299 77.6689 73.894 75.9603C74.4262 73.5795 75.9947 72.8513 77.0871 72.8513C78.2355 72.8513 79.72 73.6075 80.2522 75.9043C80.6163 77.5008 80.6443 79.3774 80.6443 81.6182C80.6443 83.4388 80.6443 85.6795 80.3082 87.3321C79.72 90.3851 78.0674 90.9173 77.0871 90.9173Z" fill="#00FFFF"/>
<path d="M113.234 84.4752C113.711 84.4752 114.215 84.4752 114.215 83.915C114.215 83.3548 113.711 83.3548 113.234 83.3548H98.0814C97.6052 83.3548 97.1011 83.3548 97.1011 83.915C97.1011 84.4752 97.6052 84.4752 98.0814 84.4752H113.234Z" fill="#00FFFF"/>
<path d="M128.241 86.5758H127.737C127.457 88.5645 127.233 88.9006 127.121 89.0687C126.981 89.2928 124.964 89.2928 124.572 89.2928H119.194C120.203 88.2004 122.163 86.2117 124.544 83.915C126.253 82.2904 128.241 80.3858 128.241 77.6128C128.241 74.3077 125.609 72.4031 122.668 72.4031C119.587 72.4031 117.71 75.12 117.71 77.6409C117.71 78.7332 118.522 78.8733 118.858 78.8733C119.138 78.8733 119.979 78.7052 119.979 77.7249C119.979 76.8566 119.25 76.6045 118.858 76.6045C118.69 76.6045 118.522 76.6325 118.41 76.6885C118.942 74.3077 120.567 73.1313 122.275 73.1313C124.712 73.1313 126.309 75.064 126.309 77.6128C126.309 80.0497 124.88 82.1504 123.284 83.971L117.71 90.2731V90.9173H127.569L128.241 86.5758Z" fill="#00FFFF"/>
<path d="M148.115 73.0193C148.115 72.4311 148.087 72.4031 147.695 72.4031C146.603 73.7195 144.95 74.1397 143.382 74.1957C143.298 74.1957 143.158 74.1957 143.13 74.2517C143.102 74.3077 143.102 74.3638 143.102 74.952C143.97 74.952 145.427 74.7839 146.547 74.1117V88.8726C146.547 89.8529 146.491 90.1891 144.082 90.1891H143.242V90.9173C144.586 90.8893 145.987 90.8613 147.331 90.8613C148.676 90.8613 150.076 90.8893 151.421 90.9173V90.1891H150.58C148.172 90.1891 148.115 89.881 148.115 88.8726V73.0193Z" fill="#00FFFF"/>
<path d="M161.101 50.3889H163.034V0H153.707V1.93265H161.101V50.3889Z" fill="#00FFFF"/>
<path d="M161.101 98.8456H153.707V100.778H163.034V50.3893H161.101V98.8456Z" fill="#00FFFF"/>
<path d="M185.983 50.3889H187.915V1.93265H195.31V0H185.983V50.3889Z" fill="#00FFFF"/>
<path d="M185.983 100.778H195.31V98.8456H187.915V50.3893H185.983V100.778Z" fill="#00FFFF"/>
<path d="M202.975 5.47262C202.975 4.88442 202.947 4.85641 202.555 4.85641C201.463 6.17285 199.81 6.59299 198.242 6.64901C198.157 6.64901 198.017 6.64901 197.989 6.70503C197.961 6.76105 197.961 6.81707 197.961 7.40527C198.83 7.40527 200.286 7.23721 201.407 6.56498V21.3259C201.407 22.3063 201.351 22.6424 198.942 22.6424H198.101V23.3706C199.446 23.3426 200.846 23.3146 202.191 23.3146C203.535 23.3146 204.936 23.3426 206.28 23.3706V22.6424H205.44C203.031 22.6424 202.975 22.3343 202.975 21.3259V5.47262Z" fill="#00FFFF"/>
<path d="M231.308 19.0292H230.804C230.524 21.0178 230.3 21.3539 230.188 21.522C230.047 21.7461 228.031 21.7461 227.639 21.7461H222.261C223.269 20.6537 225.23 18.665 227.611 16.3683C229.319 14.7437 231.308 12.8391 231.308 10.0662C231.308 6.76105 228.675 4.85641 225.734 4.85641C222.653 4.85641 220.776 7.57332 220.776 10.0942C220.776 11.1865 221.589 11.3266 221.925 11.3266C222.205 11.3266 223.045 11.1585 223.045 10.1782C223.045 9.3099 222.317 9.05782 221.925 9.05782C221.757 9.05782 221.589 9.08583 221.477 9.14185C222.009 6.76105 223.633 5.58466 225.342 5.58466C227.779 5.58466 229.375 7.5173 229.375 10.0662C229.375 12.503 227.947 14.6037 226.35 16.4243L220.776 22.7264V23.3706H230.636L231.308 19.0292Z" fill="#00FFFF"/>
<path d="M262.075 5.47262C262.075 4.88442 262.047 4.85641 261.655 4.85641C260.562 6.17285 258.91 6.59299 257.341 6.64901C257.257 6.64901 257.117 6.64901 257.089 6.70503C257.061 6.76105 257.061 6.81707 257.061 7.40527C257.929 7.40527 259.386 7.23721 260.506 6.56498V21.3259C260.506 22.3063 260.45 22.6424 258.041 22.6424H257.201V23.3706C258.546 23.3426 259.946 23.3146 261.29 23.3146C262.635 23.3146 264.035 23.3426 265.38 23.3706V22.6424H264.54C262.131 22.6424 262.075 22.3343 262.075 21.3259V5.47262Z" fill="#00FFFF"/>
<path d="M207.288 48.1529C207.288 46.4444 207.26 43.5314 206.084 41.2906C205.048 39.33 203.395 38.6298 201.939 38.6298C200.594 38.6298 198.886 39.246 197.821 41.2626C196.701 43.3633 196.589 45.9682 196.589 48.1529C196.589 49.7495 196.617 52.1863 197.485 54.315C198.69 57.2 200.846 57.5921 201.939 57.5921C203.227 57.5921 205.188 57.0599 206.336 54.399C207.176 52.4664 207.288 50.1976 207.288 48.1529ZM201.939 57.144C200.146 57.144 199.082 55.6034 198.69 53.4747C198.381 51.8222 198.381 49.4134 198.381 47.8448C198.381 45.6881 198.381 43.8955 198.746 42.1869C199.278 39.8062 200.846 39.0779 201.939 39.0779C203.087 39.0779 204.572 39.8342 205.104 42.1309C205.468 43.7275 205.496 45.6041 205.496 47.8448C205.496 49.6655 205.496 51.9062 205.16 53.5588C204.572 56.6118 202.919 57.144 201.939 57.144Z" fill="#00FFFF"/>
<path d="M231.308 52.8025H230.804C230.524 54.7912 230.3 55.1273 230.188 55.2953C230.047 55.5194 228.031 55.5194 227.639 55.5194H222.261C223.269 54.427 225.23 52.4384 227.611 50.1416C229.319 48.5171 231.308 46.6124 231.308 43.8395C231.308 40.5344 228.675 38.6298 225.734 38.6298C222.653 38.6298 220.776 41.3467 220.776 43.8675C220.776 44.9599 221.589 45.0999 221.925 45.0999C222.205 45.0999 223.045 44.9319 223.045 43.9515C223.045 43.0832 222.317 42.8312 221.925 42.8312C221.757 42.8312 221.589 42.8592 221.477 42.9152C222.009 40.5344 223.633 39.358 225.342 39.358C227.779 39.358 229.375 41.2906 229.375 43.8395C229.375 46.2763 227.947 48.377 226.35 50.1976L220.776 56.4997V57.144H230.636L231.308 52.8025Z" fill="#00FFFF"/>
<path d="M262.19 50.7018C262.666 50.7018 263.17 50.7018 263.17 50.1416C263.17 49.5814 262.666 49.5814 262.19 49.5814H247.036C246.56 49.5814 246.056 49.5814 246.056 50.1416C246.056 50.7018 246.56 50.7018 247.036 50.7018H262.19Z" fill="#00FFFF"/>
<path d="M277.197 52.8025H276.692C276.412 54.7912 276.188 55.1273 276.076 55.2953C275.936 55.5194 273.919 55.5194 273.527 55.5194H268.15C269.158 54.427 271.119 52.4384 273.499 50.1416C275.208 48.5171 277.197 46.6124 277.197 43.8395C277.197 40.5344 274.564 38.6298 271.623 38.6298C268.542 38.6298 266.665 41.3467 266.665 43.8675C266.665 44.9599 267.477 45.0999 267.813 45.0999C268.094 45.0999 268.934 44.9319 268.934 43.9515C268.934 43.0832 268.206 42.8312 267.813 42.8312C267.645 42.8312 267.477 42.8592 267.365 42.9152C267.897 40.5344 269.522 39.358 271.231 39.358C273.667 39.358 275.264 41.2906 275.264 43.8395C275.264 46.2763 273.835 48.377 272.239 50.1976L266.665 56.4997V57.144H276.524L277.197 52.8025Z" fill="#00FFFF"/>
<path d="M207.288 81.9263C207.288 80.2177 207.26 77.3047 206.084 75.064C205.048 73.1033 203.395 72.4031 201.939 72.4031C200.594 72.4031 198.886 73.0193 197.821 75.036C196.701 77.1367 196.589 79.7416 196.589 81.9263C196.589 83.5228 196.617 85.9596 197.485 88.0884C198.69 90.9733 200.846 91.3654 201.939 91.3654C203.227 91.3654 205.188 90.8333 206.336 88.1724C207.176 86.2397 207.288 83.971 207.288 81.9263ZM201.939 90.9173C200.146 90.9173 199.082 89.3768 198.69 87.2481C198.381 85.5955 198.381 83.1867 198.381 81.6182C198.381 79.4615 198.381 77.6689 198.746 75.9603C199.278 73.5795 200.846 72.8513 201.939 72.8513C203.087 72.8513 204.572 73.6075 205.104 75.9043C205.468 77.5008 205.496 79.3774 205.496 81.6182C205.496 83.4388 205.496 85.6795 205.16 87.3321C204.572 90.3851 202.919 90.9173 201.939 90.9173Z" fill="#00FFFF"/>
<path d="M229.039 72.7952C229.039 72.207 229.011 72.179 228.507 72.179L220.188 85.4274V86.1557H227.415V88.9006C227.415 89.9089 227.359 90.189 225.398 90.189H224.866V90.9173C225.762 90.8613 227.275 90.8613 228.227 90.8613C229.179 90.8613 230.692 90.8613 231.588 90.9173V90.189H231.056C229.095 90.189 229.039 89.9089 229.039 88.9006V86.1557H231.896V85.4274H229.039V72.7952ZM227.499 74.6438V85.4274H220.749L227.499 74.6438Z" fill="#00FFFF"/>
<path d="M262.075 73.0193C262.075 72.4311 262.047 72.4031 261.655 72.4031C260.562 73.7195 258.91 74.1397 257.341 74.1957C257.257 74.1957 257.117 74.1957 257.089 74.2517C257.061 74.3077 257.061 74.3638 257.061 74.952C257.929 74.952 259.386 74.7839 260.506 74.1117V88.8726C260.506 89.8529 260.45 90.1891 258.041 90.1891H257.201V90.9173C258.546 90.8893 259.946 90.8613 261.29 90.8613C262.635 90.8613 264.035 90.8893 265.38 90.9173V90.1891H264.54C262.131 90.1891 262.075 89.881 262.075 88.8726V73.0193Z" fill="#00FFFF"/>
<path d="M285.953 50.3889H287.885V0H278.558V1.93265H285.953V50.3889Z" fill="#00FFFF"/>
<path d="M285.953 98.8456H278.558V100.778H287.885V50.3893H285.953V98.8456Z" fill="#00FFFF"/>
<path d="M322.826 48.4007C323.246 48.4007 323.666 48.4007 323.666 47.9245C323.666 47.4204 323.19 47.4204 322.714 47.4204H307.056C306.58 47.4204 306.104 47.4204 306.104 47.9245C306.104 48.4007 306.524 48.4007 306.944 48.4007H322.826ZM322.714 53.3864C323.19 53.3864 323.666 53.3864 323.666 52.8822C323.666 52.406 323.246 52.406 322.826 52.406H306.944C306.524 52.406 306.104 52.406 306.104 52.8822C306.104 53.3864 306.58 53.3864 307.056 53.3864H322.714Z" fill="#00FFFF"/>
<path d="M341.889 50.3889H343.822V1.93265H351.216V0H341.889V50.3889Z" fill="#00FFFF"/>
<path d="M341.889 100.778H351.216V98.8456H343.822V50.3893H341.889V100.778Z" fill="#00FFFF"/>
<path d="M358.881 5.47262C358.881 4.88442 358.853 4.85641 358.461 4.85641C357.369 6.17285 355.716 6.59299 354.148 6.64901C354.064 6.64901 353.924 6.64901 353.896 6.70503C353.868 6.76105 353.868 6.81707 353.868 7.40527C354.736 7.40527 356.192 7.23721 357.313 6.56498V21.3259C357.313 22.3063 357.257 22.6424 354.848 22.6424H354.008V23.3706C355.352 23.3426 356.753 23.3146 358.097 23.3146C359.442 23.3146 360.842 23.3426 362.186 23.3706V22.6424H361.346C358.937 22.6424 358.881 22.3343 358.881 21.3259V5.47262Z" fill="#00FFFF"/>
<path d="M387.214 19.0292H386.71C386.43 21.0178 386.206 21.3539 386.094 21.522C385.954 21.7461 383.937 21.7461 383.545 21.7461H378.167C379.175 20.6537 381.136 18.665 383.517 16.3683C385.225 14.7437 387.214 12.8391 387.214 10.0662C387.214 6.76105 384.581 4.85641 381.64 4.85641C378.559 4.85641 376.683 7.57332 376.683 10.0942C376.683 11.1865 377.495 11.3266 377.831 11.3266C378.111 11.3266 378.951 11.1585 378.951 10.1782C378.951 9.3099 378.223 9.05782 377.831 9.05782C377.663 9.05782 377.495 9.08583 377.383 9.14185C377.915 6.76105 379.54 5.58466 381.248 5.58466C383.685 5.58466 385.281 7.5173 385.281 10.0662C385.281 12.503 383.853 14.6037 382.256 16.4243L376.683 22.7264V23.3706H386.542L387.214 19.0292Z" fill="#00FFFF"/>
<path d="M417.981 5.47262C417.981 4.88442 417.953 4.85641 417.561 4.85641C416.468 6.17285 414.816 6.59299 413.247 6.64901C413.163 6.64901 413.023 6.64901 412.995 6.70503C412.967 6.76105 412.967 6.81707 412.967 7.40527C413.836 7.40527 415.292 7.23721 416.412 6.56498V21.3259C416.412 22.3063 416.356 22.6424 413.948 22.6424H413.107V23.3706C414.452 23.3426 415.852 23.3146 417.197 23.3146C418.541 23.3146 419.942 23.3426 421.286 23.3706V22.6424H420.446C418.037 22.6424 417.981 22.3343 417.981 21.3259V5.47262Z" fill="#00FFFF"/>
<path d="M363.195 48.1529C363.195 46.4444 363.167 43.5314 361.99 41.2906C360.954 39.33 359.301 38.6298 357.845 38.6298C356.5 38.6298 354.792 39.246 353.728 41.2626C352.607 43.3633 352.495 45.9682 352.495 48.1529C352.495 49.7495 352.523 52.1863 353.391 54.315C354.596 57.2 356.753 57.5921 357.845 57.5921C359.133 57.5921 361.094 57.0599 362.242 54.399C363.083 52.4664 363.195 50.1976 363.195 48.1529ZM357.845 57.144C356.052 57.144 354.988 55.6034 354.596 53.4747C354.288 51.8222 354.288 49.4134 354.288 47.8448C354.288 45.6881 354.288 43.8955 354.652 42.1869C355.184 39.8062 356.753 39.0779 357.845 39.0779C358.993 39.0779 360.478 39.8342 361.01 42.1309C361.374 43.7275 361.402 45.6041 361.402 47.8448C361.402 49.6655 361.402 51.9062 361.066 53.5588C360.478 56.6118 358.825 57.144 357.845 57.144Z" fill="#00FFFF"/>
<path d="M387.214 52.8025H386.71C386.43 54.7912 386.206 55.1273 386.094 55.2953C385.954 55.5194 383.937 55.5194 383.545 55.5194H378.167C379.175 54.427 381.136 52.4384 383.517 50.1416C385.225 48.5171 387.214 46.6124 387.214 43.8395C387.214 40.5344 384.581 38.6298 381.64 38.6298C378.559 38.6298 376.683 41.3467 376.683 43.8675C376.683 44.9599 377.495 45.0999 377.831 45.0999C378.111 45.0999 378.951 44.9319 378.951 43.9515C378.951 43.0832 378.223 42.8312 377.831 42.8312C377.663 42.8312 377.495 42.8592 377.383 42.9152C377.915 40.5344 379.54 39.358 381.248 39.358C383.685 39.358 385.281 41.2906 385.281 43.8395C385.281 46.2763 383.853 48.377 382.256 50.1976L376.683 56.4997V57.144H386.542L387.214 52.8025Z" fill="#00FFFF"/>
<path d="M418.096 50.7018C418.572 50.7018 419.076 50.7018 419.076 50.1416C419.076 49.5814 418.572 49.5814 418.096 49.5814H402.943C402.467 49.5814 401.962 49.5814 401.962 50.1416C401.962 50.7018 402.467 50.7018 402.943 50.7018H418.096Z" fill="#00FFFF"/>
<path d="M433.103 52.8025H432.599C432.319 54.7912 432.094 55.1273 431.982 55.2953C431.842 55.5194 429.826 55.5194 429.434 55.5194H424.056C425.064 54.427 427.025 52.4384 429.406 50.1416C431.114 48.5171 433.103 46.6124 433.103 43.8395C433.103 40.5344 430.47 38.6298 427.529 38.6298C424.448 38.6298 422.571 41.3467 422.571 43.8675C422.571 44.9599 423.384 45.0999 423.72 45.0999C424 45.0999 424.84 44.9319 424.84 43.9515C424.84 43.0832 424.112 42.8312 423.72 42.8312C423.552 42.8312 423.384 42.8592 423.272 42.9152C423.804 40.5344 425.428 39.358 427.137 39.358C429.574 39.358 431.17 41.2906 431.17 43.8395C431.17 46.2763 429.742 48.377 428.145 50.1976L422.571 56.4997V57.144H432.431L433.103 52.8025Z" fill="#00FFFF"/>
<path d="M363.195 81.9263C363.195 80.2177 363.167 77.3047 361.99 75.064C360.954 73.1033 359.301 72.4031 357.845 72.4031C356.5 72.4031 354.792 73.0193 353.728 75.036C352.607 77.1367 352.495 79.7416 352.495 81.9263C352.495 83.5228 352.523 85.9596 353.391 88.0884C354.596 90.9733 356.753 91.3654 357.845 91.3654C359.133 91.3654 361.094 90.8333 362.242 88.1724C363.083 86.2397 363.195 83.971 363.195 81.9263ZM357.845 90.9173C356.052 90.9173 354.988 89.3768 354.596 87.2481C354.288 85.5955 354.288 83.1867 354.288 81.6182C354.288 79.4615 354.288 77.6689 354.652 75.9603C355.184 73.5795 356.753 72.8513 357.845 72.8513C358.993 72.8513 360.478 73.6075 361.01 75.9043C361.374 77.5008 361.402 79.3774 361.402 81.6182C361.402 83.4388 361.402 85.6795 361.066 87.3321C360.478 90.3851 358.825 90.9173 357.845 90.9173Z" fill="#00FFFF"/>
<path d="M387.298 81.9263C387.298 80.2177 387.27 77.3047 386.094 75.064C385.057 73.1033 383.405 72.4031 381.948 72.4031C380.604 72.4031 378.895 73.0193 377.831 75.036C376.711 77.1367 376.599 79.7416 376.599 81.9263C376.599 83.5228 376.627 85.9596 377.495 88.0884C378.699 90.9733 380.856 91.3654 381.948 91.3654C383.237 91.3654 385.198 90.8333 386.346 88.1724C387.186 86.2397 387.298 83.971 387.298 81.9263ZM381.948 90.9173C380.156 90.9173 379.091 89.3768 378.699 87.2481C378.391 85.5955 378.391 83.1867 378.391 81.6182C378.391 79.4615 378.391 77.6689 378.755 75.9603C379.288 73.5795 380.856 72.8513 381.948 72.8513C383.097 72.8513 384.581 73.6075 385.113 75.9043C385.478 77.5008 385.506 79.3774 385.506 81.6182C385.506 83.4388 385.506 85.6795 385.169 87.3321C384.581 90.3851 382.929 90.9173 381.948 90.9173Z" fill="#00FFFF"/>
<path d="M413.723 74.5318C414.003 74.6439 415.152 75.008 416.328 75.008C418.933 75.008 420.362 73.6075 421.174 72.7952C421.174 72.5712 421.174 72.4311 421.006 72.4311C420.978 72.4311 420.922 72.4311 420.698 72.5432C419.717 72.9633 418.569 73.2994 417.169 73.2994C416.328 73.2994 415.068 73.1874 413.695 72.5712C413.387 72.4311 413.331 72.4311 413.303 72.4311C413.163 72.4311 413.135 72.4591 413.135 73.0193V81.142C413.135 81.6462 413.135 81.7863 413.415 81.7863C413.555 81.7863 413.611 81.7302 413.751 81.5342C414.648 80.2737 415.88 79.7416 417.281 79.7416C418.261 79.7416 420.362 80.3578 420.362 85.1474C420.362 86.0437 420.362 87.6682 419.521 88.9566C418.821 90.105 417.729 90.6932 416.524 90.6932C414.676 90.6932 412.799 89.4048 412.295 87.2481C412.407 87.2761 412.631 87.3321 412.743 87.3321C413.107 87.3321 413.807 87.136 413.807 86.2678C413.807 85.5115 413.275 85.2034 412.743 85.2034C412.099 85.2034 411.679 85.5955 411.679 86.3798C411.679 88.8166 413.611 91.3655 416.58 91.3655C419.465 91.3655 422.21 88.8726 422.21 85.2594C422.21 81.8983 420.026 79.2934 417.309 79.2934C415.88 79.2934 414.676 79.8256 413.723 80.8339V74.5318Z" fill="#00FFFF"/>
<path d="M441.859 50.3889H443.791V0H434.464V1.93265H441.859V50.3889Z" fill="#00FFFF"/>
<path d="M441.859 98.8456H434.464V100.778H443.791V50.3893H441.859V98.8456Z" fill="#00FFFF"/>
</g>
<path d="M18.1781 127.576C18.2061 127.492 18.2901 127.296 18.2901 127.184C18.2901 127.044 18.1781 126.904 18.01 126.904C17.898 126.904 17.842 126.932 17.7579 127.016C17.7019 127.044 17.7019 127.1 17.4498 127.66C15.7973 131.582 14.5929 133.262 10.1114 133.262H6.02202C5.62988 133.262 5.57387 133.262 5.40581 133.234C5.09771 133.206 5.0697 133.15 5.0697 132.926C5.0697 132.73 5.12572 132.562 5.18173 132.31L7.11438 124.579H9.88731C12.072 124.579 12.2401 125.055 12.2401 125.896C12.2401 126.176 12.2401 126.428 12.044 127.268C11.988 127.38 11.96 127.492 11.96 127.576C11.96 127.772 12.1 127.856 12.2681 127.856C12.5202 127.856 12.5482 127.66 12.6602 127.268L14.2568 120.77C14.2568 120.63 14.1447 120.49 13.9767 120.49C13.7246 120.49 13.6966 120.602 13.5845 120.994C13.0244 123.151 12.4642 123.767 9.97133 123.767H7.31045L9.04703 116.877C9.29911 115.896 9.35513 115.812 10.5035 115.812H14.5089C17.954 115.812 18.6542 116.737 18.6542 118.865C18.6542 118.893 18.6542 119.678 18.5422 120.602C18.5142 120.714 18.4862 120.882 18.4862 120.938C18.4862 121.162 18.6262 121.246 18.7943 121.246C18.9904 121.246 19.1024 121.134 19.1584 120.63L19.7466 115.728C19.7466 115.644 19.8026 115.364 19.8026 115.308C19.8026 115 19.5505 115 19.0464 115H5.3778C4.84562 115 4.56553 115 4.56553 115.504C4.56553 115.812 4.76159 115.812 5.23775 115.812C6.97433 115.812 6.97433 116.008 6.97433 116.316C6.97433 116.456 6.94632 116.569 6.8623 116.877L3.08103 132.002C2.82895 132.982 2.77293 133.262 0.812272 133.262C0.280094 133.262 0 133.262 0 133.766C0 134.074 0.168057 134.074 0.728244 134.074H14.7889C15.4052 134.074 15.4332 134.046 15.6292 133.598L18.1781 127.576Z" fill="#00FFFF"/>
<path d="M24.1735 131.539C26.2515 131.539 27.1621 133.337 27.1621 135.415C27.1621 138.217 25.6678 139.291 24.3136 139.291C23.0761 139.291 21.0681 138.684 20.4377 136.886C20.5544 136.933 20.6712 136.933 20.7879 136.933C21.3483 136.933 21.7686 136.559 21.7686 135.952C21.7686 135.275 21.2549 134.971 20.7879 134.971C20.391 134.971 19.7839 135.158 19.7839 136.022C19.7839 138.17 21.8853 139.851 24.3603 139.851C26.952 139.851 28.9366 137.82 28.9366 135.438C28.9366 133.173 27.0687 131.539 24.8506 131.282C26.6251 130.909 28.3295 129.321 28.3295 127.196C28.3295 125.375 26.485 124.044 24.3836 124.044C22.2589 124.044 20.391 125.352 20.391 127.219C20.391 128.037 20.9981 128.177 21.3016 128.177C21.7919 128.177 22.2122 127.873 22.2122 127.266C22.2122 126.659 21.7919 126.356 21.3016 126.356C21.2082 126.356 21.0915 126.356 20.9981 126.402C21.6752 124.861 23.5197 124.581 24.3369 124.581C25.1541 124.581 26.6951 124.978 26.6951 127.219C26.6951 127.873 26.6017 129.041 25.8079 130.068C25.1074 130.979 24.3136 131.025 23.5431 131.095C23.4263 131.095 22.8893 131.142 22.7959 131.142C22.6325 131.165 22.5391 131.189 22.5391 131.352C22.5391 131.516 22.5624 131.539 23.0294 131.539H24.1735Z" fill="#00FFFF"/>
<path d="M39.4578 135.858H39.0375C38.804 137.516 38.6173 137.796 38.5239 137.937C38.4071 138.123 36.726 138.123 36.3991 138.123H31.9162C32.7567 137.213 34.3911 135.555 36.3758 133.64C37.8 132.286 39.4578 130.698 39.4578 128.387C39.4578 125.632 37.263 124.044 34.8114 124.044C32.2431 124.044 30.6787 126.309 30.6787 128.41C30.6787 129.321 31.3558 129.438 31.636 129.438C31.8695 129.438 32.57 129.298 32.57 128.48C32.57 127.757 31.9629 127.546 31.636 127.546C31.4959 127.546 31.3558 127.57 31.2624 127.616C31.7061 125.632 33.0603 124.651 34.4845 124.651C36.5159 124.651 37.8467 126.262 37.8467 128.387C37.8467 130.418 36.656 132.169 35.3251 133.687L30.6787 138.941V139.478H38.8974L39.4578 135.858Z" fill="#00FFFF"/>
<path d="M70.4864 92.1158C70.5504 91.8472 70.3844 91.5776 70.1158 91.5136L65.7382 90.4713C65.4695 90.4073 65.1999 90.5733 65.136 90.8419C65.072 91.1105 65.2379 91.3802 65.5066 91.4441L69.3978 92.3706L68.4713 96.2618C68.4073 96.5305 68.5733 96.8001 68.8419 96.864C69.1105 96.928 69.3802 96.7621 69.4441 96.4934L70.4864 92.1158ZM31.262 116.426L70.262 92.4258L69.738 91.5742L30.738 115.574L31.262 116.426Z" fill="#00FF29"/>
<defs>
<clipPath id="clip0">
<rect width="391.792" height="100.778" fill="white" transform="translate(52)"/>
</clipPath>
</defs>
</svg>
