<svg width="340" height="137" viewBox="0 0 340 137" fill="none" xmlns="http://www.w3.org/2000/svg">
<path d="M34.1781 129.5C34.2061 129.416 34.2901 129.22 34.2901 129.108C34.2901 128.968 34.1781 128.828 34.01 128.828C33.898 128.828 33.842 128.856 33.7579 128.94C33.7019 128.968 33.7019 129.024 33.4498 129.584C31.7973 133.505 30.5929 135.186 26.1114 135.186H22.022C21.6299 135.186 21.5739 135.186 21.4058 135.158C21.0977 135.13 21.0697 135.074 21.0697 134.85C21.0697 134.654 21.1257 134.486 21.1817 134.234L23.1144 126.503H25.8873C28.072 126.503 28.2401 126.979 28.2401 127.82C28.2401 128.1 28.2401 128.352 28.044 129.192C27.988 129.304 27.96 129.416 27.96 129.5C27.96 129.696 28.1 129.78 28.2681 129.78C28.5202 129.78 28.5482 129.584 28.6602 129.192L30.2568 122.694C30.2568 122.554 30.1447 122.414 29.9767 122.414C29.7246 122.414 29.6966 122.526 29.5845 122.918C29.0244 125.075 28.4642 125.691 25.9713 125.691H23.3104L25.047 118.801C25.2991 117.82 25.3551 117.736 26.5035 117.736H30.5089C33.954 117.736 34.6542 118.66 34.6542 120.789C34.6542 120.817 34.6542 121.601 34.5422 122.526C34.5142 122.638 34.4862 122.806 34.4862 122.862C34.4862 123.086 34.6262 123.17 34.7943 123.17C34.9904 123.17 35.1024 123.058 35.1584 122.554L35.7466 117.652C35.7466 117.568 35.8026 117.288 35.8026 117.232C35.8026 116.924 35.5505 116.924 35.0464 116.924H21.3778C20.8456 116.924 20.5655 116.924 20.5655 117.428C20.5655 117.736 20.7616 117.736 21.2378 117.736C22.9743 117.736 22.9743 117.932 22.9743 118.24C22.9743 118.38 22.9463 118.492 22.8623 118.801L19.081 133.926C18.8289 134.906 18.7729 135.186 16.8123 135.186C16.2801 135.186 16 135.186 16 135.69C16 135.998 16.1681 135.998 16.7282 135.998H30.7889C31.4052 135.998 31.4332 135.97 31.6292 135.522L34.1781 129.5Z" fill="#00FFFF"/>
<path d="M52.0421 119.063C52.439 119.063 52.8593 119.063 52.8593 118.596C52.8593 118.129 52.439 118.129 52.0421 118.129H39.4105C39.0135 118.129 38.5933 118.129 38.5933 118.596C38.5933 119.063 39.0135 119.063 39.4105 119.063H52.0421Z" fill="#00FFFF"/>
<path d="M61.0261 109.514C61.0261 109.023 61.0027 109 60.6759 109C59.7653 110.097 58.3877 110.448 57.0802 110.494C57.0101 110.494 56.8934 110.494 56.87 110.541C56.8467 110.588 56.8467 110.634 56.8467 111.125C57.5705 111.125 58.7846 110.985 59.7186 110.424V122.729C59.7186 123.546 59.6719 123.826 57.6639 123.826H56.9634V124.433C58.0842 124.41 59.2516 124.387 60.3723 124.387C61.4931 124.387 62.6605 124.41 63.7812 124.433V123.826H63.0808C61.0728 123.826 61.0261 123.57 61.0261 122.729V109.514Z" fill="#00FFFF"/>
<path d="M158.178 129.576C158.206 129.492 158.29 129.296 158.29 129.184C158.29 129.044 158.178 128.904 158.01 128.904C157.898 128.904 157.842 128.932 157.758 129.016C157.702 129.044 157.702 129.1 157.45 129.66C155.797 133.582 154.593 135.262 150.111 135.262H146.022C145.63 135.262 145.574 135.262 145.406 135.234C145.098 135.206 145.07 135.15 145.07 134.926C145.07 134.73 145.126 134.562 145.182 134.31L147.114 126.579H149.887C152.072 126.579 152.24 127.055 152.24 127.896C152.24 128.176 152.24 128.428 152.044 129.268C151.988 129.38 151.96 129.492 151.96 129.576C151.96 129.772 152.1 129.856 152.268 129.856C152.52 129.856 152.548 129.66 152.66 129.268L154.257 122.77C154.257 122.63 154.145 122.49 153.977 122.49C153.725 122.49 153.697 122.602 153.585 122.994C153.024 125.151 152.464 125.767 149.971 125.767H147.31L149.047 118.877C149.299 117.896 149.355 117.812 150.504 117.812H154.509C157.954 117.812 158.654 118.737 158.654 120.865C158.654 120.893 158.654 121.678 158.542 122.602C158.514 122.714 158.486 122.882 158.486 122.938C158.486 123.162 158.626 123.246 158.794 123.246C158.99 123.246 159.102 123.134 159.158 122.63L159.747 117.728C159.747 117.644 159.803 117.364 159.803 117.308C159.803 117 159.551 117 159.046 117H145.378C144.846 117 144.566 117 144.566 117.504C144.566 117.812 144.762 117.812 145.238 117.812C146.974 117.812 146.974 118.008 146.974 118.316C146.974 118.456 146.946 118.569 146.862 118.877L143.081 134.002C142.829 134.982 142.773 135.262 140.812 135.262C140.28 135.262 140 135.262 140 135.766C140 136.074 140.168 136.074 140.728 136.074H154.789C155.405 136.074 155.433 136.046 155.629 135.598L158.178 129.576Z" fill="#00FFFF"/>
<path d="M302.159 119.073C302.411 118.092 302.467 117.812 304.512 117.812C305.128 117.812 305.352 117.812 305.352 117.28C305.352 117 305.044 117 304.96 117C304.456 117 303.84 117.056 303.335 117.056H299.89C299.33 117.056 298.686 117 298.126 117C297.902 117 297.594 117 297.594 117.532C297.594 117.812 297.818 117.812 298.378 117.812C300.114 117.812 300.114 118.036 300.114 118.344C300.114 118.541 300.058 118.709 300.002 118.961L296.221 134.058C295.969 135.038 295.913 135.318 293.868 135.318C293.252 135.318 293 135.318 293 135.85C293 136.13 293.28 136.13 293.42 136.13C293.924 136.13 294.541 136.074 295.045 136.074H298.49C299.05 136.074 299.666 136.13 300.226 136.13C300.45 136.13 300.787 136.13 300.787 135.626C300.787 135.318 300.619 135.318 300.002 135.318C298.266 135.318 298.266 135.094 298.266 134.758C298.266 134.702 298.266 134.562 298.378 134.114L302.159 119.073Z" fill="#00FFFF"/>
<path d="M0 50.3889H1.93265V1.93265H9.32712V0H0V50.3889Z" fill="#00FFFF"/>
<path d="M0 100.778H9.32712V98.8456H1.93265V50.3893H0V100.778Z" fill="#00FFFF"/>
<path d="M16.9922 5.47259C16.9922 4.88439 16.9642 4.85638 16.5721 4.85638C15.4797 6.17282 13.8271 6.59296 12.2586 6.64898C12.1746 6.64898 12.0345 6.64898 12.0065 6.705C11.9785 6.76102 11.9785 6.81704 11.9785 7.40524C12.8468 7.40524 14.3033 7.23718 15.4237 6.56495V21.3259C15.4237 22.3062 15.3676 22.6423 12.9588 22.6423H12.1186V23.3706C13.463 23.3426 14.8635 23.3146 16.2079 23.3146C17.5524 23.3146 18.9528 23.3426 20.2973 23.3706V22.6423H19.457C17.0482 22.6423 16.9922 22.3342 16.9922 21.3259V5.47259Z" fill="#00FFFF"/>
<path d="M45.4091 14.3796C45.4091 12.671 45.381 9.75802 44.2046 7.51727C43.1683 5.55662 41.5157 4.85638 40.0593 4.85638C38.7148 4.85638 37.0062 5.47259 35.9419 7.48926C34.8215 9.58997 34.7095 12.1948 34.7095 14.3796C34.7095 15.9761 34.7375 18.4129 35.6058 20.5416C36.8102 23.4266 38.9669 23.8187 40.0593 23.8187C41.3477 23.8187 43.3083 23.2865 44.4567 20.6257C45.297 18.693 45.4091 16.4243 45.4091 14.3796ZM40.0593 23.3706C38.2667 23.3706 37.2023 21.8301 36.8102 19.7013C36.5021 18.0488 36.5021 15.64 36.5021 14.0715C36.5021 11.9147 36.5021 10.1221 36.8662 8.41357C37.3984 6.03278 38.9669 5.30453 40.0593 5.30453C41.2076 5.30453 42.6921 6.06079 43.2243 8.35755C43.5884 9.95409 43.6165 11.8307 43.6165 14.0715C43.6165 15.8921 43.6165 18.1328 43.2803 19.7854C42.6921 22.8384 41.0396 23.3706 40.0593 23.3706Z" fill="#00FFFF"/>
<path d="M69.5126 14.3796C69.5126 12.671 69.4846 9.75802 68.3082 7.51727C67.2718 5.55662 65.6193 4.85638 64.1628 4.85638C62.8183 4.85638 61.1098 5.47259 60.0454 7.48926C58.925 9.58997 58.813 12.1948 58.813 14.3796C58.813 15.9761 58.841 18.4129 59.7093 20.5416C60.9137 23.4266 63.0704 23.8187 64.1628 23.8187C65.4512 23.8187 67.4119 23.2865 68.5603 20.6257C69.4005 18.693 69.5126 16.4243 69.5126 14.3796ZM64.1628 23.3706C62.3702 23.3706 61.3058 21.8301 60.9137 19.7013C60.6056 18.0488 60.6056 15.64 60.6056 14.0715C60.6056 11.9147 60.6056 10.1221 60.9697 8.41357C61.5019 6.03278 63.0704 5.30453 64.1628 5.30453C65.3112 5.30453 66.7957 6.06079 67.3278 8.35755C67.692 9.95409 67.72 11.8307 67.72 14.0715C67.72 15.8921 67.72 18.1328 67.3839 19.7854C66.7957 22.8384 65.1431 23.3706 64.1628 23.3706Z" fill="#00FFFF"/>
<path d="M15.7321 47.6208C18.2249 47.6208 19.3173 49.7775 19.3173 52.2703C19.3173 55.6314 17.5247 56.9199 15.9001 56.9199C14.4156 56.9199 12.0068 56.1916 11.2506 54.0349C11.3906 54.0909 11.5307 54.0909 11.6707 54.0909C12.3429 54.0909 12.8471 53.6428 12.8471 52.9145C12.8471 52.1023 12.2309 51.7381 11.6707 51.7381C11.1946 51.7381 10.4663 51.9622 10.4663 52.9986C10.4663 55.5754 12.9872 57.5921 15.9561 57.5921C19.0652 57.5921 21.446 55.1553 21.446 52.2983C21.446 49.5814 19.2052 47.6208 16.5443 47.3127C18.6731 46.8645 20.7177 44.9599 20.7177 42.411C20.7177 40.2263 18.505 38.6298 15.9842 38.6298C13.4353 38.6298 11.1946 40.1983 11.1946 42.439C11.1946 43.4194 11.9228 43.5874 12.2869 43.5874C12.8751 43.5874 13.3793 43.2233 13.3793 42.4951C13.3793 41.7668 12.8751 41.4027 12.2869 41.4027C12.1749 41.4027 12.0348 41.4027 11.9228 41.4587C12.7351 39.6101 14.9478 39.274 15.9281 39.274C16.9085 39.274 18.7571 39.7501 18.7571 42.439C18.7571 43.2233 18.645 44.6238 17.6927 45.8562C16.8524 46.9485 15.9001 47.0046 14.9758 47.0886C14.8358 47.0886 14.1916 47.1446 14.0795 47.1446C13.8835 47.1726 13.7714 47.2006 13.7714 47.3967C13.7714 47.5928 13.7994 47.6208 14.3596 47.6208H15.7321Z" fill="#00FFFF"/>
<path d="M41.0957 39.246C41.0957 38.6578 41.0677 38.6298 40.6756 38.6298C39.5832 39.9462 37.9306 40.3663 36.3621 40.4224C36.2781 40.4224 36.138 40.4224 36.11 40.4784C36.082 40.5344 36.082 40.5904 36.082 41.1786C36.9503 41.1786 38.4068 41.0106 39.5272 40.3383V55.0993C39.5272 56.0796 39.4712 56.4157 37.0624 56.4157H36.2221V57.144C37.5665 57.1159 38.967 57.0879 40.3114 57.0879C41.6559 57.0879 43.0564 57.1159 44.4008 57.144V56.4157H43.5605C41.1517 56.4157 41.0957 56.1076 41.0957 55.0993V39.246Z" fill="#00FFFF"/>
<path d="M69.5126 48.1529C69.5126 46.4444 69.4846 43.5314 68.3082 41.2906C67.2718 39.33 65.6193 38.6298 64.1628 38.6298C62.8183 38.6298 61.1098 39.246 60.0454 41.2626C58.925 43.3633 58.813 45.9682 58.813 48.1529C58.813 49.7495 58.841 52.1863 59.7093 54.315C60.9137 57.2 63.0704 57.5921 64.1628 57.5921C65.4512 57.5921 67.4119 57.0599 68.5603 54.399C69.4005 52.4664 69.5126 50.1976 69.5126 48.1529ZM64.1628 57.144C62.3702 57.144 61.3058 55.6034 60.9137 53.4747C60.6056 51.8222 60.6056 49.4134 60.6056 47.8448C60.6056 45.6881 60.6056 43.8955 60.9697 42.1869C61.5019 39.8062 63.0704 39.0779 64.1628 39.0779C65.3112 39.0779 66.7957 39.8342 67.3278 42.1309C67.692 43.7275 67.72 45.6041 67.72 47.8448C67.72 49.6655 67.72 51.9062 67.3839 53.5588C66.7957 56.6118 65.1431 57.144 64.1628 57.144Z" fill="#00FFFF"/>
<path d="M21.306 81.9263C21.306 80.2177 21.278 77.3047 20.1016 75.064C19.0653 73.1033 17.4127 72.4031 15.9562 72.4031C14.6118 72.4031 12.9032 73.0193 11.8389 75.036C10.7185 77.1367 10.6064 79.7415 10.6064 81.9263C10.6064 83.5228 10.6345 85.9596 11.5027 88.0883C12.7071 90.9733 14.8639 91.3654 15.9562 91.3654C17.2447 91.3654 19.2053 90.8332 20.3537 88.1724C21.194 86.2397 21.306 83.9709 21.306 81.9263ZM15.9562 90.9173C14.1636 90.9173 13.0993 89.3768 12.7071 87.248C12.399 85.5955 12.399 83.1867 12.399 81.6182C12.399 79.4614 12.399 77.6688 12.7632 75.9603C13.2953 73.5795 14.8639 72.8512 15.9562 72.8512C17.1046 72.8512 18.5891 73.6075 19.1213 75.9042C19.4854 77.5008 19.5134 79.3774 19.5134 81.6182C19.5134 83.4388 19.5134 85.6795 19.1773 87.3321C18.5891 90.3851 16.9366 90.9173 15.9562 90.9173Z" fill="#00FFFF"/>
<path d="M45.4091 81.9263C45.4091 80.2177 45.381 77.3047 44.2046 75.064C43.1683 73.1033 41.5157 72.4031 40.0593 72.4031C38.7148 72.4031 37.0062 73.0193 35.9419 75.036C34.8215 77.1367 34.7095 79.7415 34.7095 81.9263C34.7095 83.5228 34.7375 85.9596 35.6058 88.0883C36.8102 90.9733 38.9669 91.3654 40.0593 91.3654C41.3477 91.3654 43.3083 90.8332 44.4567 88.1724C45.297 86.2397 45.4091 83.9709 45.4091 81.9263ZM40.0593 90.9173C38.2667 90.9173 37.2023 89.3768 36.8102 87.248C36.5021 85.5955 36.5021 83.1867 36.5021 81.6182C36.5021 79.4614 36.5021 77.6688 36.8662 75.9603C37.3984 73.5795 38.9669 72.8512 40.0593 72.8512C41.2076 72.8512 42.6921 73.6075 43.2243 75.9042C43.5884 77.5008 43.6165 79.3774 43.6165 81.6182C43.6165 83.4388 43.6165 85.6795 43.2803 87.3321C42.6921 90.3851 41.0396 90.9173 40.0593 90.9173Z" fill="#00FFFF"/>
<path d="M65.1992 73.0193C65.1992 72.4311 65.1712 72.4031 64.7791 72.4031C63.6867 73.7195 62.0342 74.1397 60.4656 74.1957C60.3816 74.1957 60.2416 74.1957 60.2136 74.2517C60.1855 74.3077 60.1855 74.3637 60.1855 74.9519C61.0538 74.9519 62.5103 74.7839 63.6307 74.1116V88.8726C63.6307 89.8529 63.5747 90.189 61.1659 90.189H60.3256V90.9173C61.67 90.8893 63.0705 90.8613 64.415 90.8613C65.7594 90.8613 67.1599 90.8893 68.5043 90.9173V90.189H67.664C65.2552 90.189 65.1992 89.8809 65.1992 88.8726V73.0193Z" fill="#00FFFF"/>
<path d="M78.185 50.3889H80.1176V0H70.7905V1.93265H78.185V50.3889Z" fill="#00FFFF"/>
<path d="M78.185 98.8456H70.7905V100.778H80.1176V50.3893H78.185V98.8456Z" fill="#00FFFF"/>
<path d="M103.066 50.3889H104.999V1.93265H112.394V0H103.066V50.3889Z" fill="#00FFFF"/>
<path d="M103.066 100.778H112.394V98.8456H104.999V50.3893H103.066V100.778Z" fill="#00FFFF"/>
<path d="M130.952 5.47259C130.952 4.88439 130.924 4.85638 130.532 4.85638C129.439 6.17282 127.787 6.59296 126.218 6.64898C126.134 6.64898 125.994 6.64898 125.966 6.705C125.938 6.76102 125.938 6.81704 125.938 7.40524C126.806 7.40524 128.263 7.23718 129.383 6.56495V21.3259C129.383 22.3062 129.327 22.6423 126.918 22.6423H126.078V23.3706C127.422 23.3426 128.823 23.3146 130.167 23.3146C131.512 23.3146 132.912 23.3426 134.257 23.3706V22.6423H133.416C131.008 22.6423 130.952 22.3342 130.952 21.3259V5.47259Z" fill="#00FFFF"/>
<path d="M170.261 14.3796C170.261 12.671 170.233 9.75802 169.057 7.51727C168.02 5.55662 166.368 4.85638 164.911 4.85638C163.567 4.85638 161.858 5.47259 160.794 7.48926C159.674 9.58997 159.562 12.1948 159.562 14.3796C159.562 15.9761 159.59 18.4129 160.458 20.5416C161.662 23.4266 163.819 23.8187 164.911 23.8187C166.2 23.8187 168.16 23.2865 169.309 20.6257C170.149 18.693 170.261 16.4243 170.261 14.3796ZM164.911 23.3706C163.119 23.3706 162.054 21.8301 161.662 19.7013C161.354 18.0488 161.354 15.64 161.354 14.0715C161.354 11.9147 161.354 10.1221 161.718 8.41357C162.25 6.03278 163.819 5.30453 164.911 5.30453C166.06 5.30453 167.544 6.06079 168.076 8.35755C168.44 9.95409 168.469 11.8307 168.469 14.0715C168.469 15.8921 168.469 18.1328 168.132 19.7854C167.544 22.8384 165.892 23.3706 164.911 23.3706Z" fill="#00FFFF"/>
<path d="M194.364 14.3796C194.364 12.671 194.336 9.75802 193.16 7.51727C192.123 5.55662 190.471 4.85638 189.014 4.85638C187.67 4.85638 185.961 5.47259 184.897 7.48926C183.777 9.58997 183.665 12.1948 183.665 14.3796C183.665 15.9761 183.693 18.4129 184.561 20.5416C185.765 23.4266 187.922 23.8187 189.014 23.8187C190.303 23.8187 192.263 23.2865 193.412 20.6257C194.252 18.693 194.364 16.4243 194.364 14.3796ZM189.014 23.3706C187.222 23.3706 186.157 21.8301 185.765 19.7013C185.457 18.0488 185.457 15.64 185.457 14.0715C185.457 11.9147 185.457 10.1221 185.821 8.41357C186.353 6.03278 187.922 5.30453 189.014 5.30453C190.163 5.30453 191.647 6.06079 192.179 8.35755C192.544 9.95409 192.572 11.8307 192.572 14.0715C192.572 15.8921 192.572 18.1328 192.235 19.7854C191.647 22.8384 189.995 23.3706 189.014 23.3706Z" fill="#00FFFF"/>
<path d="M131.067 50.7018C131.543 50.7018 132.047 50.7018 132.047 50.1416C132.047 49.5814 131.543 49.5814 131.067 49.5814H115.913C115.437 49.5814 114.933 49.5814 114.933 50.1416C114.933 50.7018 115.437 50.7018 115.913 50.7018H131.067Z" fill="#00FFFF"/>
<path d="M140.584 47.6208C143.076 47.6208 144.169 49.7775 144.169 52.2703C144.169 55.6314 142.376 56.9199 140.752 56.9199C139.267 56.9199 136.858 56.1916 136.102 54.0349C136.242 54.0909 136.382 54.0909 136.522 54.0909C137.194 54.0909 137.699 53.6428 137.699 52.9145C137.699 52.1023 137.082 51.7381 136.522 51.7381C136.046 51.7381 135.318 51.9622 135.318 52.9986C135.318 55.5754 137.839 57.5921 140.808 57.5921C143.917 57.5921 146.298 55.1553 146.298 52.2983C146.298 49.5814 144.057 47.6208 141.396 47.3127C143.525 46.8645 145.569 44.9599 145.569 42.411C145.569 40.2263 143.357 38.6298 140.836 38.6298C138.287 38.6298 136.046 40.1983 136.046 42.439C136.046 43.4194 136.774 43.5874 137.138 43.5874C137.727 43.5874 138.231 43.2233 138.231 42.4951C138.231 41.7668 137.727 41.4027 137.138 41.4027C137.026 41.4027 136.886 41.4027 136.774 41.4587C137.587 39.6101 139.799 39.274 140.78 39.274C141.76 39.274 143.609 39.7501 143.609 42.439C143.609 43.2233 143.497 44.6238 142.544 45.8562C141.704 46.9485 140.752 47.0046 139.827 47.0886C139.687 47.0886 139.043 47.1446 138.931 47.1446C138.735 47.1726 138.623 47.2006 138.623 47.3967C138.623 47.5928 138.651 47.6208 139.211 47.6208H140.584Z" fill="#00FFFF"/>
<path d="M165.947 39.246C165.947 38.6578 165.919 38.6298 165.527 38.6298C164.435 39.9462 162.782 40.3663 161.214 40.4224C161.13 40.4224 160.99 40.4224 160.962 40.4784C160.934 40.5344 160.934 40.5904 160.934 41.1786C161.802 41.1786 163.258 41.0106 164.379 40.3383V55.0993C164.379 56.0796 164.323 56.4157 161.914 56.4157H161.074V57.144C162.418 57.1159 163.819 57.0879 165.163 57.0879C166.507 57.0879 167.908 57.1159 169.252 57.144V56.4157H168.412C166.003 56.4157 165.947 56.1076 165.947 55.0993V39.246Z" fill="#00FFFF"/>
<path d="M194.364 48.1529C194.364 46.4444 194.336 43.5314 193.16 41.2906C192.123 39.33 190.471 38.6298 189.014 38.6298C187.67 38.6298 185.961 39.246 184.897 41.2626C183.777 43.3633 183.665 45.9682 183.665 48.1529C183.665 49.7495 183.693 52.1863 184.561 54.315C185.765 57.2 187.922 57.5921 189.014 57.5921C190.303 57.5921 192.263 57.0599 193.412 54.399C194.252 52.4664 194.364 50.1976 194.364 48.1529ZM189.014 57.144C187.222 57.144 186.157 55.6034 185.765 53.4747C185.457 51.8222 185.457 49.4134 185.457 47.8448C185.457 45.6881 185.457 43.8955 185.821 42.1869C186.353 39.8062 187.922 39.0779 189.014 39.0779C190.163 39.0779 191.647 39.8342 192.179 42.1309C192.544 43.7275 192.572 45.6041 192.572 47.8448C192.572 49.6655 192.572 51.9062 192.235 53.5588C191.647 56.6118 189.995 57.144 189.014 57.144Z" fill="#00FFFF"/>
<path d="M135.265 81.9263C135.265 80.2177 135.237 77.3047 134.061 75.064C133.024 73.1033 131.372 72.4031 129.915 72.4031C128.571 72.4031 126.862 73.0193 125.798 75.036C124.677 77.1367 124.565 79.7415 124.565 81.9263C124.565 83.5228 124.593 85.9596 125.462 88.0883C126.666 90.9733 128.823 91.3654 129.915 91.3654C131.204 91.3654 133.164 90.8332 134.313 88.1724C135.153 86.2397 135.265 83.9709 135.265 81.9263ZM129.915 90.9173C128.123 90.9173 127.058 89.3768 126.666 87.248C126.358 85.5955 126.358 83.1867 126.358 81.6182C126.358 79.4614 126.358 77.6688 126.722 75.9603C127.254 73.5795 128.823 72.8512 129.915 72.8512C131.064 72.8512 132.548 73.6075 133.08 75.9042C133.444 77.5008 133.472 79.3774 133.472 81.6182C133.472 83.4388 133.472 85.6795 133.136 87.3321C132.548 90.3851 130.896 90.9173 129.915 90.9173Z" fill="#00FFFF"/>
<path d="M170.261 81.9263C170.261 80.2177 170.233 77.3047 169.057 75.064C168.02 73.1033 166.368 72.4031 164.911 72.4031C163.567 72.4031 161.858 73.0193 160.794 75.036C159.674 77.1367 159.562 79.7415 159.562 81.9263C159.562 83.5228 159.59 85.9596 160.458 88.0883C161.662 90.9733 163.819 91.3654 164.911 91.3654C166.2 91.3654 168.16 90.8332 169.309 88.1724C170.149 86.2397 170.261 83.9709 170.261 81.9263ZM164.911 90.9173C163.119 90.9173 162.054 89.3768 161.662 87.248C161.354 85.5955 161.354 83.1867 161.354 81.6182C161.354 79.4614 161.354 77.6688 161.718 75.9603C162.25 73.5795 163.819 72.8512 164.911 72.8512C166.06 72.8512 167.544 73.6075 168.076 75.9042C168.44 77.5008 168.469 79.3774 168.469 81.6182C168.469 83.4388 168.469 85.6795 168.132 87.3321C167.544 90.3851 165.892 90.9173 164.911 90.9173Z" fill="#00FFFF"/>
<path d="M190.051 73.0193C190.051 72.4311 190.023 72.4031 189.631 72.4031C188.538 73.7195 186.886 74.1397 185.317 74.1957C185.233 74.1957 185.093 74.1957 185.065 74.2517C185.037 74.3077 185.037 74.3637 185.037 74.9519C185.905 74.9519 187.362 74.7839 188.482 74.1116V88.8726C188.482 89.8529 188.426 90.189 186.017 90.189H185.177V90.9173C186.522 90.8893 187.922 90.8613 189.267 90.8613C190.611 90.8613 192.011 90.8893 193.356 90.9173V90.189H192.516C190.107 90.189 190.051 89.8809 190.051 88.8726V73.0193Z" fill="#00FFFF"/>
<path d="M203.037 50.3889H204.969V0H195.642V1.93265H203.037V50.3889Z" fill="#00FFFF"/>
<path d="M203.037 98.8456H195.642V100.778H204.969V50.3893H203.037V98.8456Z" fill="#00FFFF"/>
<path d="M239.909 48.4007C240.329 48.4007 240.749 48.4007 240.749 47.9246C240.749 47.4204 240.273 47.4204 239.797 47.4204H224.14C223.664 47.4204 223.188 47.4204 223.188 47.9246C223.188 48.4007 223.608 48.4007 224.028 48.4007H239.909ZM239.797 53.3864C240.273 53.3864 240.749 53.3864 240.749 52.8822C240.749 52.4061 240.329 52.4061 239.909 52.4061H224.028C223.608 52.4061 223.188 52.4061 223.188 52.8822C223.188 53.3864 223.664 53.3864 224.14 53.3864H239.797Z" fill="#00FFFF"/>
<path d="M258.973 50.3889H260.905V1.93265H268.3V0H258.973V50.3889Z" fill="#00FFFF"/>
<path d="M258.973 100.778H268.3V98.8456H260.905V50.3893H258.973V100.778Z" fill="#00FFFF"/>
<path d="M275.965 5.47259C275.965 4.88439 275.937 4.85638 275.545 4.85638C274.453 6.17282 272.8 6.59296 271.232 6.64898C271.148 6.64898 271.008 6.64898 270.98 6.705C270.952 6.76102 270.952 6.81704 270.952 7.40524C271.82 7.40524 273.276 7.23718 274.397 6.56495V21.3259C274.397 22.3062 274.341 22.6423 271.932 22.6423H271.092V23.3706C272.436 23.3426 273.837 23.3146 275.181 23.3146C276.526 23.3146 277.926 23.3426 279.27 23.3706V22.6423H278.43C276.021 22.6423 275.965 22.3342 275.965 21.3259V5.47259Z" fill="#00FFFF"/>
<path d="M304.382 14.3796C304.382 12.671 304.354 9.75802 303.178 7.51727C302.141 5.55662 300.489 4.85638 299.032 4.85638C297.688 4.85638 295.979 5.47259 294.915 7.48926C293.795 9.58997 293.683 12.1948 293.683 14.3796C293.683 15.9761 293.711 18.4129 294.579 20.5416C295.783 23.4266 297.94 23.8187 299.032 23.8187C300.321 23.8187 302.281 23.2865 303.43 20.6257C304.27 18.693 304.382 16.4243 304.382 14.3796ZM299.032 23.3706C297.24 23.3706 296.175 21.8301 295.783 19.7013C295.475 18.0488 295.475 15.64 295.475 14.0715C295.475 11.9147 295.475 10.1221 295.839 8.41357C296.372 6.03278 297.94 5.30453 299.032 5.30453C300.181 5.30453 301.665 6.06079 302.197 8.35755C302.562 9.95409 302.59 11.8307 302.59 14.0715C302.59 15.8921 302.59 18.1328 302.253 19.7854C301.665 22.8384 300.013 23.3706 299.032 23.3706Z" fill="#00FFFF"/>
<path d="M328.485 14.3796C328.485 12.671 328.457 9.75802 327.281 7.51727C326.244 5.55662 324.592 4.85638 323.135 4.85638C321.791 4.85638 320.082 5.47259 319.018 7.48926C317.898 9.58997 317.786 12.1948 317.786 14.3796C317.786 15.9761 317.814 18.4129 318.682 20.5416C319.886 23.4266 322.043 23.8187 323.135 23.8187C324.424 23.8187 326.385 23.2865 327.533 20.6257C328.373 18.693 328.485 16.4243 328.485 14.3796ZM323.135 23.3706C321.343 23.3706 320.278 21.8301 319.886 19.7013C319.578 18.0488 319.578 15.64 319.578 14.0715C319.578 11.9147 319.578 10.1221 319.942 8.41357C320.475 6.03278 322.043 5.30453 323.135 5.30453C324.284 5.30453 325.768 6.06079 326.3 8.35755C326.665 9.95409 326.693 11.8307 326.693 14.0715C326.693 15.8921 326.693 18.1328 326.357 19.7854C325.768 22.8384 324.116 23.3706 323.135 23.3706Z" fill="#00FFFF"/>
<path d="M280.279 48.1529C280.279 46.4444 280.251 43.5314 279.074 41.2906C278.038 39.33 276.385 38.6298 274.929 38.6298C273.584 38.6298 271.876 39.246 270.812 41.2626C269.691 43.3633 269.579 45.9682 269.579 48.1529C269.579 49.7495 269.607 52.1863 270.475 54.315C271.68 57.2 273.837 57.5921 274.929 57.5921C276.217 57.5921 278.178 57.0599 279.326 54.399C280.167 52.4664 280.279 50.1976 280.279 48.1529ZM274.929 57.144C273.136 57.144 272.072 55.6034 271.68 53.4747C271.372 51.8222 271.372 49.4134 271.372 47.8448C271.372 45.6881 271.372 43.8955 271.736 42.1869C272.268 39.8062 273.837 39.0779 274.929 39.0779C276.077 39.0779 277.562 39.8342 278.094 42.1309C278.458 43.7275 278.486 45.6041 278.486 47.8448C278.486 49.6655 278.486 51.9062 278.15 53.5588C277.562 56.6118 275.909 57.144 274.929 57.144Z" fill="#00FFFF"/>
<path d="M300.068 39.246C300.068 38.6578 300.04 38.6298 299.648 38.6298C298.556 39.9462 296.903 40.3663 295.335 40.4224C295.251 40.4224 295.111 40.4224 295.083 40.4784C295.055 40.5344 295.055 40.5904 295.055 41.1786C295.923 41.1786 297.379 41.0106 298.5 40.3383V55.0993C298.5 56.0796 298.444 56.4157 296.035 56.4157H295.195V57.144C296.539 57.1159 297.94 57.0879 299.284 57.0879C300.629 57.0879 302.029 57.1159 303.373 57.144V56.4157H302.533C300.124 56.4157 300.068 56.1076 300.068 55.0993V39.246Z" fill="#00FFFF"/>
<path d="M328.485 48.1529C328.485 46.4444 328.457 43.5314 327.281 41.2906C326.244 39.33 324.592 38.6298 323.135 38.6298C321.791 38.6298 320.082 39.246 319.018 41.2626C317.898 43.3633 317.786 45.9682 317.786 48.1529C317.786 49.7495 317.814 52.1863 318.682 54.315C319.886 57.2 322.043 57.5921 323.135 57.5921C324.424 57.5921 326.385 57.0599 327.533 54.399C328.373 52.4664 328.485 50.1976 328.485 48.1529ZM323.135 57.144C321.343 57.144 320.278 55.6034 319.886 53.4747C319.578 51.8222 319.578 49.4134 319.578 47.8448C319.578 45.6881 319.578 43.8955 319.942 42.1869C320.475 39.8062 322.043 39.0779 323.135 39.0779C324.284 39.0779 325.768 39.8342 326.3 42.1309C326.665 43.7275 326.693 45.6041 326.693 47.8448C326.693 49.6655 326.693 51.9062 326.357 53.5588C325.768 56.6118 324.116 57.144 323.135 57.144Z" fill="#00FFFF"/>
<path d="M280.279 81.9263C280.279 80.2177 280.251 77.3047 279.074 75.064C278.038 73.1033 276.385 72.4031 274.929 72.4031C273.584 72.4031 271.876 73.0193 270.812 75.036C269.691 77.1367 269.579 79.7415 269.579 81.9263C269.579 83.5228 269.607 85.9596 270.475 88.0883C271.68 90.9733 273.837 91.3654 274.929 91.3654C276.217 91.3654 278.178 90.8332 279.326 88.1724C280.167 86.2397 280.279 83.9709 280.279 81.9263ZM274.929 90.9173C273.136 90.9173 272.072 89.3768 271.68 87.248C271.372 85.5955 271.372 83.1867 271.372 81.6182C271.372 79.4614 271.372 77.6688 271.736 75.9603C272.268 73.5795 273.837 72.8512 274.929 72.8512C276.077 72.8512 277.562 73.6075 278.094 75.9042C278.458 77.5008 278.486 79.3774 278.486 81.6182C278.486 83.4388 278.486 85.6795 278.15 87.3321C277.562 90.3851 275.909 90.9173 274.929 90.9173Z" fill="#00FFFF"/>
<path d="M304.382 81.9263C304.382 80.2177 304.354 77.3047 303.178 75.064C302.141 73.1033 300.489 72.4031 299.032 72.4031C297.688 72.4031 295.979 73.0193 294.915 75.036C293.795 77.1367 293.683 79.7415 293.683 81.9263C293.683 83.5228 293.711 85.9596 294.579 88.0883C295.783 90.9733 297.94 91.3654 299.032 91.3654C300.321 91.3654 302.281 90.8332 303.43 88.1724C304.27 86.2397 304.382 83.9709 304.382 81.9263ZM299.032 90.9173C297.24 90.9173 296.175 89.3768 295.783 87.248C295.475 85.5955 295.475 83.1867 295.475 81.6182C295.475 79.4614 295.475 77.6688 295.839 75.9603C296.372 73.5795 297.94 72.8512 299.032 72.8512C300.181 72.8512 301.665 73.6075 302.197 75.9042C302.562 77.5008 302.59 79.3774 302.59 81.6182C302.59 83.4388 302.59 85.6795 302.253 87.3321C301.665 90.3851 300.013 90.9173 299.032 90.9173Z" fill="#00FFFF"/>
<path d="M324.172 73.0193C324.172 72.4311 324.144 72.4031 323.752 72.4031C322.659 73.7195 321.007 74.1397 319.438 74.1957C319.354 74.1957 319.214 74.1957 319.186 74.2517C319.158 74.3077 319.158 74.3637 319.158 74.9519C320.026 74.9519 321.483 74.7839 322.603 74.1116V88.8726C322.603 89.8529 322.547 90.189 320.139 90.189H319.298V90.9173C320.643 90.8893 322.043 90.8613 323.388 90.8613C324.732 90.8613 326.133 90.8893 327.477 90.9173V90.189H326.637C324.228 90.189 324.172 89.8809 324.172 88.8726V73.0193Z" fill="#00FFFF"/>
<path d="M337.158 50.3889H339.09V0H329.763V1.93265H337.158V50.3889Z" fill="#00FFFF"/>
<path d="M337.158 98.8456H329.763V100.778H339.09V50.3893H337.158V98.8456Z" fill="#00FFFF"/>
</svg>
