<svg width="396" height="373" viewBox="0 0 396 373" fill="none" xmlns="http://www.w3.org/2000/svg">
<path d="M90.3711 88.5466C89.5684 88.3417 88.7516 88.8263 88.5466 89.6289L85.207 102.709C85.002 103.512 85.4866 104.329 86.2893 104.534C87.0919 104.739 87.9088 104.254 88.1137 103.451L91.0823 91.8245L102.709 94.7931C103.512 94.998 104.329 94.5134 104.534 93.7108C104.739 92.9081 104.254 92.0912 103.451 91.8863L90.3711 88.5466ZM161.29 207.235L91.2901 89.2347L88.7099 90.7653L158.71 208.765L161.29 207.235Z" fill="#00DCFF"/>
<line x1="23.2847" y1="90.5" x2="14" y2="90.5" stroke="#00DCFF"/>
<line x1="14.5" y1="90" x2="14.5" y2="182" stroke="#00DCFF"/>
<line x1="23.2847" y1="182.5" x2="14" y2="182.5" stroke="#00DCFF"/>
<line x1="57.7153" y1="181.5" x2="67" y2="181.5" stroke="#00DCFF"/>
<line x1="66.5" y1="182" x2="66.5" y2="90" stroke="#00DCFF"/>
<line x1="57.7153" y1="89.5" x2="67" y2="89.5" stroke="#00DCFF"/>
<path d="M48.458 161H34.3809V158.905L40.0205 153.236C41.7393 151.498 42.8721 150.258 43.4189 149.516C43.9658 148.773 44.376 148.051 44.6494 147.348C44.9229 146.645 45.0596 145.888 45.0596 145.077C45.0596 143.935 44.7129 143.031 44.0195 142.367C43.3262 141.693 42.3643 141.356 41.1338 141.356C40.2451 141.356 39.4004 141.503 38.5996 141.796C37.8086 142.089 36.9248 142.621 35.9482 143.393L34.6592 141.737C36.6318 140.097 38.7803 139.276 41.1045 139.276C43.1162 139.276 44.6934 139.794 45.8359 140.829C46.9785 141.854 47.5498 143.236 47.5498 144.975C47.5498 146.332 47.1689 147.675 46.4072 149.003C45.6455 150.331 44.2197 152.011 42.1299 154.042L37.4424 158.627V158.744H48.458V161Z" fill="#00DCFF"/>
<path d="M27.3125 118.071V115.845H34.5049V118.071H27.3125ZM46.2236 125H43.8506V109.736C43.8506 108.467 43.8896 107.266 43.9678 106.133C43.7627 106.338 43.5332 106.553 43.2793 106.777C43.0254 107.002 41.8633 107.954 39.793 109.634L38.5039 107.964L44.1729 103.584H46.2236V125Z" fill="#00DCFF"/>
<line x1="319.285" y1="267.5" x2="310" y2="267.5" stroke="#00DCFF"/>
<line x1="310.5" y1="267" x2="310.5" y2="359" stroke="#00DCFF"/>
<line x1="319.285" y1="359.5" x2="310" y2="359.5" stroke="#00DCFF"/>
<line x1="353.715" y1="358.5" x2="363" y2="358.5" stroke="#00DCFF"/>
<line x1="362.5" y1="359" x2="362.5" y2="267" stroke="#00DCFF"/>
<line x1="353.715" y1="266.5" x2="363" y2="266.5" stroke="#00DCFF"/>
<path d="M323.312 331.071V328.845H330.505V331.071H323.312ZM342.224 338H339.851V322.736C339.851 321.467 339.89 320.266 339.968 319.133C339.763 319.338 339.533 319.553 339.279 319.777C339.025 320.002 337.863 320.954 335.793 322.634L334.504 320.964L340.173 316.584H342.224V338Z" fill="#00DCFF"/>
<path d="M344.458 302H330.381V299.905L336.021 294.236C337.739 292.498 338.872 291.258 339.419 290.516C339.966 289.773 340.376 289.051 340.649 288.348C340.923 287.645 341.06 286.888 341.06 286.077C341.06 284.935 340.713 284.031 340.02 283.367C339.326 282.693 338.364 282.356 337.134 282.356C336.245 282.356 335.4 282.503 334.6 282.796C333.809 283.089 332.925 283.621 331.948 284.393L330.659 282.737C332.632 281.097 334.78 280.276 337.104 280.276C339.116 280.276 340.693 280.794 341.836 281.829C342.979 282.854 343.55 284.236 343.55 285.975C343.55 287.332 343.169 288.675 342.407 290.003C341.646 291.331 340.22 293.011 338.13 295.042L333.442 299.627V299.744H344.458V302Z" fill="#00DCFF"/>
<path d="M297.496 273.416C298.278 273.142 298.69 272.286 298.416 271.504L293.953 258.763C293.679 257.981 292.823 257.569 292.042 257.843C291.26 258.117 290.848 258.973 291.122 259.755L295.088 271.08L283.763 275.047C282.981 275.321 282.569 276.177 282.843 276.958C283.117 277.74 283.973 278.152 284.755 277.878L297.496 273.416ZM163.35 209.352L296.35 273.352L297.65 270.648L164.65 206.648L163.35 209.352Z" fill="#00DCFF"/>
<path d="M331.061 209.061C331.646 208.475 331.646 207.525 331.061 206.939L321.515 197.393C320.929 196.808 319.979 196.808 319.393 197.393C318.808 197.979 318.808 198.929 319.393 199.515L327.879 208L319.393 216.485C318.808 217.071 318.808 218.021 319.393 218.607C319.979 219.192 320.929 219.192 321.515 218.607L331.061 209.061ZM0 209.5H330V206.5H0V209.5Z" fill="#00DCFF"/>
<path d="M161.061 41.9393C160.475 41.3536 159.525 41.3536 158.939 41.9393L149.393 51.4853C148.808 52.0711 148.808 53.0208 149.393 53.6066C149.979 54.1924 150.929 54.1924 151.515 53.6066L160 45.1213L168.485 53.6066C169.071 54.1924 170.021 54.1924 170.607 53.6066C171.192 53.0208 171.192 52.0711 170.607 51.4853L161.061 41.9393ZM161.5 373L161.5 43L158.5 43L158.5 373L161.5 373Z" fill="#00DCFF"/>
<path d="M357.368 208.937L360.884 203.15H364.048L358.862 210.987L364.209 219H361.074L357.412 213.067L353.75 219H350.601L355.947 210.987L350.762 203.15H353.896L357.368 208.937Z" fill="#00DCFF"/>
<path d="M87.748 227.697H82.9824V226.223H87.748V227.697ZM95.2676 233H93.4512V220.959L89.8086 222.297V220.656L94.9844 218.713H95.2676V233Z" fill="#00DCFF"/>
<path d="M141.883 98H132.566V96.7012L137.488 91.2324C138.217 90.4056 138.719 89.735 138.992 89.2207C139.272 88.6999 139.412 88.1628 139.412 87.6094C139.412 86.8672 139.188 86.2585 138.738 85.7832C138.289 85.3079 137.69 85.0703 136.941 85.0703C136.043 85.0703 135.343 85.3275 134.842 85.8418C134.347 86.3496 134.1 87.0592 134.1 87.9707H132.293C132.293 86.6621 132.713 85.6042 133.553 84.7969C134.399 83.9896 135.529 83.5859 136.941 83.5859C138.263 83.5859 139.308 83.9342 140.076 84.6309C140.844 85.321 141.229 86.2422 141.229 87.3945C141.229 88.7943 140.337 90.4609 138.553 92.3945L134.744 96.5254H141.883V98Z" fill="#00DCFF"/>
<path d="M26.7065 71.3604C26.4868 73.2402 25.791 74.6929 24.6191 75.7183C23.4554 76.7355 21.9051 77.2441 19.9683 77.2441C17.8687 77.2441 16.1841 76.4914 14.9146 74.9858C13.6532 73.4803 13.0225 71.4661 13.0225 68.9434V67.2344C13.0225 65.5824 13.3154 64.1297 13.9014 62.8765C14.4954 61.6232 15.3337 60.6629 16.416 59.9956C17.4984 59.3201 18.7516 58.9824 20.1758 58.9824C22.0638 58.9824 23.5775 59.5114 24.7168 60.5693C25.8561 61.6191 26.5194 63.0758 26.7065 64.9395H24.3506C24.1471 63.5234 23.7036 62.498 23.02 61.8633C22.3446 61.2285 21.3965 60.9111 20.1758 60.9111C18.6784 60.9111 17.5024 61.4645 16.6479 62.5713C15.8016 63.6781 15.3784 65.2528 15.3784 67.2954V69.0166C15.3784 70.9453 15.7812 72.4793 16.5869 73.6187C17.3926 74.758 18.5197 75.3276 19.9683 75.3276C21.2703 75.3276 22.2673 75.0347 22.959 74.4487C23.6589 73.8547 24.1227 72.8252 24.3506 71.3604H26.7065ZM28.9648 70.2739C28.9648 68.98 29.2171 67.8162 29.7217 66.7827C30.2344 65.7492 30.9424 64.9517 31.8457 64.3901C32.7572 63.8286 33.7948 63.5479 34.9585 63.5479C36.757 63.5479 38.2096 64.1704 39.3164 65.4155C40.4313 66.6606 40.9888 68.3167 40.9888 70.3838V70.5425C40.9888 71.8283 40.7406 72.9839 40.2441 74.0093C39.7559 75.0265 39.0519 75.82 38.1323 76.3896C37.2209 76.9593 36.1711 77.2441 34.9829 77.2441C33.1925 77.2441 31.7399 76.6216 30.625 75.3765C29.5182 74.1313 28.9648 72.4834 28.9648 70.4326V70.2739ZM31.2354 70.5425C31.2354 72.0073 31.5731 73.1833 32.2485 74.0703C32.9321 74.9574 33.8436 75.4009 34.9829 75.4009C36.1304 75.4009 37.0418 74.9533 37.7173 74.0581C38.3927 73.1548 38.7305 71.8934 38.7305 70.2739C38.7305 68.8254 38.3846 67.6535 37.6929 66.7583C37.0093 65.855 36.0978 65.4033 34.9585 65.4033C33.8436 65.4033 32.9443 65.8468 32.2607 66.7339C31.5771 67.6209 31.2354 68.8905 31.2354 70.5425ZM46.2744 77H44.0161V58.25H46.2744V77ZM67.5146 77H55.8691V75.3765L62.0215 68.5405C62.9329 67.507 63.5596 66.6688 63.9014 66.0259C64.2513 65.3748 64.4263 64.7035 64.4263 64.0117C64.4263 63.084 64.1455 62.3231 63.584 61.729C63.0225 61.1349 62.2738 60.8379 61.3379 60.8379C60.2148 60.8379 59.34 61.1593 58.7134 61.8022C58.0949 62.437 57.7856 63.3241 57.7856 64.4634H55.5273C55.5273 62.8276 56.0522 61.5052 57.1021 60.4961C58.16 59.487 59.5719 58.9824 61.3379 58.9824C62.9899 58.9824 64.2961 59.4178 65.2563 60.2886C66.2166 61.1512 66.6968 62.3027 66.6968 63.7432C66.6968 65.4928 65.5819 67.5762 63.3521 69.9932L58.5913 75.1567H67.5146V77Z" fill="#00DCFF"/>
<path d="M321.707 244.36C321.487 246.24 320.791 247.693 319.619 248.718C318.455 249.736 316.905 250.244 314.968 250.244C312.869 250.244 311.184 249.491 309.915 247.986C308.653 246.48 308.022 244.466 308.022 241.943V240.234C308.022 238.582 308.315 237.13 308.901 235.876C309.495 234.623 310.334 233.663 311.416 232.996C312.498 232.32 313.752 231.982 315.176 231.982C317.064 231.982 318.577 232.511 319.717 233.569C320.856 234.619 321.519 236.076 321.707 237.939H319.351C319.147 236.523 318.704 235.498 318.02 234.863C317.345 234.229 316.396 233.911 315.176 233.911C313.678 233.911 312.502 234.465 311.648 235.571C310.802 236.678 310.378 238.253 310.378 240.295V242.017C310.378 243.945 310.781 245.479 311.587 246.619C312.393 247.758 313.52 248.328 314.968 248.328C316.27 248.328 317.267 248.035 317.959 247.449C318.659 246.855 319.123 245.825 319.351 244.36H321.707ZM323.965 243.274C323.965 241.98 324.217 240.816 324.722 239.783C325.234 238.749 325.942 237.952 326.846 237.39C327.757 236.829 328.795 236.548 329.958 236.548C331.757 236.548 333.21 237.17 334.316 238.416C335.431 239.661 335.989 241.317 335.989 243.384V243.542C335.989 244.828 335.741 245.984 335.244 247.009C334.756 248.027 334.052 248.82 333.132 249.39C332.221 249.959 331.171 250.244 329.983 250.244C328.193 250.244 326.74 249.622 325.625 248.376C324.518 247.131 323.965 245.483 323.965 243.433V243.274ZM326.235 243.542C326.235 245.007 326.573 246.183 327.249 247.07C327.932 247.957 328.844 248.401 329.983 248.401C331.13 248.401 332.042 247.953 332.717 247.058C333.393 246.155 333.73 244.893 333.73 243.274C333.73 241.825 333.385 240.653 332.693 239.758C332.009 238.855 331.098 238.403 329.958 238.403C328.844 238.403 327.944 238.847 327.261 239.734C326.577 240.621 326.235 241.89 326.235 243.542ZM341.274 250H339.016V231.25H341.274V250ZM358.291 250H356.021V234.949L351.467 236.621V234.57L357.937 232.141H358.291V250Z" fill="#00DCFF"/>
<path d="M160.236 24.0303L163.928 12.1504H166.828L160.456 30.4463C159.47 33.083 157.902 34.4014 155.754 34.4014L155.241 34.3574L154.23 34.167V31.9697L154.963 32.0283C155.881 32.0283 156.594 31.8428 157.102 31.4717C157.619 31.1006 158.044 30.4219 158.376 29.4355L158.977 27.8242L153.322 12.1504H156.281L160.236 24.0303Z" fill="#00DCFF"/>
</svg>
