<svg width="474" height="377" viewBox="0 0 474 377" fill="none" xmlns="http://www.w3.org/2000/svg">
<path d="M376.061 225.061C376.646 224.475 376.646 223.525 376.061 222.939L366.515 213.393C365.929 212.808 364.979 212.808 364.393 213.393C363.808 213.979 363.808 214.929 364.393 215.515L372.879 224L364.393 232.485C363.808 233.071 363.808 234.021 364.393 234.607C364.979 235.192 365.929 235.192 366.515 234.607L376.061 225.061ZM205 225.5L375 225.5V222.5L205 222.5V225.5Z" fill="#00DCFF"/>
<path d="M206.054 57.9329C205.465 57.3507 204.515 57.3565 203.933 57.9458L194.445 67.5494C193.863 68.1387 193.869 69.0885 194.458 69.6707C195.047 70.2529 195.997 70.2472 196.579 69.6578L205.013 61.1213L213.549 69.555C214.139 70.1372 215.088 70.1314 215.671 69.5421C216.253 68.9528 216.247 68.0031 215.658 67.4208L206.054 57.9329ZM207.5 223.991L206.5 58.9909L203.5 59.0091L204.5 224.009L207.5 223.991Z" fill="#00DCFF"/>
<path d="M143.446 101.568C142.655 101.321 141.814 101.763 141.568 102.554L137.553 115.443C137.307 116.234 137.748 117.075 138.539 117.321C139.33 117.568 140.171 117.126 140.417 116.335L143.986 104.878L155.443 108.447C156.234 108.693 157.075 108.252 157.321 107.461C157.568 106.67 157.126 105.829 156.335 105.583L143.446 101.568ZM207.328 222.303L144.328 102.303L141.672 103.697L204.672 223.697L207.328 222.303Z" fill="#FF006B"/>
<path d="M89.6955 254.26C89.2866 254.98 89.5391 255.896 90.2596 256.305L102 262.968C102.721 263.377 103.636 263.125 104.045 262.404C104.454 261.684 104.202 260.768 103.481 260.359L93.0449 254.436L98.9682 244C99.3771 243.279 99.1246 242.364 98.4041 241.955C97.6836 241.546 96.7681 241.798 96.3591 242.519L89.6955 254.26ZM206.601 221.554L90.6011 253.554L91.3989 256.446L207.399 224.446L206.601 221.554Z" fill="#0094FF"/>
<path d="M307.95 332.499C308.778 332.527 309.471 331.878 309.499 331.05L309.951 317.558C309.979 316.73 309.33 316.036 308.502 316.008C307.674 315.981 306.98 316.629 306.953 317.457L306.551 329.451L294.558 329.049C293.73 329.021 293.036 329.67 293.008 330.498C292.981 331.326 293.629 332.02 294.457 332.047L307.95 332.499ZM205.904 224.025L306.904 332.025L309.096 329.975L208.096 221.975L205.904 224.025Z" fill="#00FF29"/>
<path d="M100.501 318.94C100.468 319.768 101.112 320.466 101.94 320.499L115.429 321.038C116.257 321.071 116.955 320.427 116.988 319.6C117.021 318.772 116.377 318.074 115.549 318.041L103.559 317.561L104.038 305.571C104.071 304.743 103.427 304.045 102.6 304.012C101.772 303.979 101.074 304.623 101.041 305.451L100.501 318.94ZM204.983 221.898L100.983 317.898L103.017 320.102L207.017 224.102L204.983 221.898Z" fill="#00DCFF"/>
<path d="M402.368 224.937L405.884 219.15H409.048L403.862 226.987L409.209 235H406.074L402.412 229.067L398.75 235H395.601L400.947 226.987L395.762 219.15H398.896L402.368 224.937Z" fill="#00DCFF"/>
<path d="M202.6 41.7881H211.872V44H199.289V42.0078L208.034 30.3916H199.421V28.1504H211.433V30.0693L202.6 41.7881Z" fill="#00DCFF"/>
<path d="M123.109 72.4883C122.934 73.9922 122.377 75.1543 121.439 75.9746C120.508 76.7884 119.268 77.1953 117.719 77.1953C116.039 77.1953 114.691 76.5931 113.676 75.3887C112.667 74.1842 112.162 72.5729 112.162 70.5547V69.1875C112.162 67.8659 112.396 66.7038 112.865 65.7012C113.34 64.6986 114.011 63.9303 114.877 63.3965C115.743 62.8561 116.745 62.5859 117.885 62.5859C119.395 62.5859 120.606 63.0091 121.518 63.8555C122.429 64.6953 122.96 65.8607 123.109 67.3516H121.225C121.062 66.2188 120.707 65.3984 120.16 64.8906C119.62 64.3828 118.861 64.1289 117.885 64.1289C116.687 64.1289 115.746 64.5716 115.062 65.457C114.385 66.3424 114.047 67.6022 114.047 69.2363V70.6133C114.047 72.1562 114.369 73.3835 115.014 74.2949C115.658 75.2064 116.56 75.6621 117.719 75.6621C118.76 75.6621 119.558 75.4277 120.111 74.959C120.671 74.4837 121.042 73.6602 121.225 72.4883H123.109ZM124.916 71.6191C124.916 70.584 125.118 69.653 125.521 68.8262C125.932 67.9993 126.498 67.3613 127.221 66.9121C127.95 66.4629 128.78 66.2383 129.711 66.2383C131.15 66.2383 132.312 66.7363 133.197 67.7324C134.089 68.7285 134.535 70.0534 134.535 71.707V71.834C134.535 72.8626 134.337 73.7871 133.939 74.6074C133.549 75.4212 132.986 76.056 132.25 76.5117C131.521 76.9674 130.681 77.1953 129.73 77.1953C128.298 77.1953 127.136 76.6973 126.244 75.7012C125.359 74.7051 124.916 73.3867 124.916 71.7461V71.6191ZM126.732 71.834C126.732 73.0059 127.003 73.9466 127.543 74.6562C128.09 75.3659 128.819 75.7207 129.73 75.7207C130.648 75.7207 131.378 75.3626 131.918 74.6465C132.458 73.9238 132.729 72.9147 132.729 71.6191C132.729 70.4603 132.452 69.5228 131.898 68.8066C131.352 68.084 130.622 67.7227 129.711 67.7227C128.819 67.7227 128.1 68.0775 127.553 68.7871C127.006 69.4967 126.732 70.5124 126.732 71.834ZM138.764 77H136.957V62H138.764V77ZM149.066 69.0117H150.424C151.277 68.9987 151.947 68.7741 152.436 68.3379C152.924 67.9017 153.168 67.3125 153.168 66.5703C153.168 64.9036 152.338 64.0703 150.678 64.0703C149.896 64.0703 149.271 64.2949 148.803 64.7441C148.34 65.1868 148.109 65.776 148.109 66.5117H146.303C146.303 65.3854 146.713 64.4512 147.533 63.709C148.36 62.9603 149.408 62.5859 150.678 62.5859C152.019 62.5859 153.07 62.9408 153.832 63.6504C154.594 64.36 154.975 65.3464 154.975 66.6094C154.975 67.2279 154.773 67.8268 154.369 68.4062C153.972 68.9857 153.428 69.4186 152.738 69.7051C153.52 69.9525 154.122 70.3626 154.545 70.9355C154.975 71.5085 155.189 72.2083 155.189 73.0352C155.189 74.3112 154.773 75.3236 153.939 76.0723C153.106 76.821 152.022 77.1953 150.688 77.1953C149.353 77.1953 148.266 76.834 147.426 76.1113C146.592 75.3887 146.176 74.4349 146.176 73.25H147.992C147.992 73.9987 148.236 74.5977 148.725 75.0469C149.213 75.4961 149.867 75.7207 150.688 75.7207C151.56 75.7207 152.227 75.4928 152.689 75.0371C153.152 74.5814 153.383 73.9271 153.383 73.0742C153.383 72.2474 153.129 71.6126 152.621 71.1699C152.113 70.7272 151.381 70.4993 150.424 70.4863H149.066V69.0117Z" fill="#FF006B"/>
<path d="M44.3125 76.834C44.3125 78.4486 43.9414 79.7474 43.1992 80.7305C42.457 81.707 41.4609 82.1953 40.2109 82.1953C38.8763 82.1953 37.8444 81.7233 37.1152 80.7793L37.0273 82H35.3672V67H37.1738V72.5957C37.903 71.6908 38.9089 71.2383 40.1914 71.2383C41.474 71.2383 42.4798 71.7233 43.209 72.6934C43.9447 73.6634 44.3125 74.9915 44.3125 76.6777V76.834ZM42.5059 76.6289C42.5059 75.3984 42.2682 74.4479 41.793 73.7773C41.3177 73.1068 40.6341 72.7715 39.7422 72.7715C38.5508 72.7715 37.6947 73.3249 37.1738 74.4316V79.002C37.7272 80.1087 38.5898 80.6621 39.7617 80.6621C40.6276 80.6621 41.3014 80.3268 41.7832 79.6562C42.265 78.9857 42.5059 77.9766 42.5059 76.6289ZM59.8203 74.0508H51.6758V72.4785H59.8203V74.0508ZM59.8203 78.1035H51.6758V76.541H59.8203V78.1035Z" fill="#00DCFF"/>
<path d="M51.1094 220.488C50.9336 221.992 50.377 223.154 49.4395 223.975C48.5085 224.788 47.2682 225.195 45.7188 225.195C44.0391 225.195 42.6914 224.593 41.6758 223.389C40.6667 222.184 40.1621 220.573 40.1621 218.555V217.188C40.1621 215.866 40.3965 214.704 40.8652 213.701C41.3405 212.699 42.0111 211.93 42.877 211.396C43.7428 210.856 44.7454 210.586 45.8848 210.586C47.3952 210.586 48.6061 211.009 49.5176 211.855C50.429 212.695 50.9596 213.861 51.1094 215.352H49.2246C49.0618 214.219 48.707 213.398 48.1602 212.891C47.6198 212.383 46.8613 212.129 45.8848 212.129C44.6868 212.129 43.7461 212.572 43.0625 213.457C42.3854 214.342 42.0469 215.602 42.0469 217.236V218.613C42.0469 220.156 42.3691 221.383 43.0137 222.295C43.6582 223.206 44.5599 223.662 45.7188 223.662C46.7604 223.662 47.5579 223.428 48.1113 222.959C48.6712 222.484 49.0423 221.66 49.2246 220.488H51.1094ZM52.916 219.619C52.916 218.584 53.1178 217.653 53.5215 216.826C53.9316 215.999 54.498 215.361 55.2207 214.912C55.9499 214.463 56.7799 214.238 57.7109 214.238C59.1497 214.238 60.3118 214.736 61.1973 215.732C62.0892 216.729 62.5352 218.053 62.5352 219.707V219.834C62.5352 220.863 62.3366 221.787 61.9395 222.607C61.5488 223.421 60.9857 224.056 60.25 224.512C59.5208 224.967 58.681 225.195 57.7305 225.195C56.2982 225.195 55.1361 224.697 54.2441 223.701C53.3587 222.705 52.916 221.387 52.916 219.746V219.619ZM54.7324 219.834C54.7324 221.006 55.0026 221.947 55.543 222.656C56.0898 223.366 56.819 223.721 57.7305 223.721C58.6484 223.721 59.3776 223.363 59.918 222.646C60.4583 221.924 60.7285 220.915 60.7285 219.619C60.7285 218.46 60.4518 217.523 59.8984 216.807C59.3516 216.084 58.6224 215.723 57.7109 215.723C56.819 215.723 56.0996 216.077 55.5527 216.787C55.0059 217.497 54.7324 218.512 54.7324 219.834ZM66.7637 225H64.957V210H66.7637V225ZM77.0664 217.012H78.4238C79.2767 216.999 79.9473 216.774 80.4355 216.338C80.9238 215.902 81.168 215.312 81.168 214.57C81.168 212.904 80.3379 212.07 78.6777 212.07C77.8965 212.07 77.2715 212.295 76.8027 212.744C76.3405 213.187 76.1094 213.776 76.1094 214.512H74.3027C74.3027 213.385 74.7129 212.451 75.5332 211.709C76.36 210.96 77.4082 210.586 78.6777 210.586C80.0189 210.586 81.0703 210.941 81.832 211.65C82.5938 212.36 82.9746 213.346 82.9746 214.609C82.9746 215.228 82.7728 215.827 82.3691 216.406C81.972 216.986 81.4284 217.419 80.7383 217.705C81.5195 217.952 82.1217 218.363 82.5449 218.936C82.9746 219.508 83.1895 220.208 83.1895 221.035C83.1895 222.311 82.7728 223.324 81.9395 224.072C81.1061 224.821 80.0221 225.195 78.6875 225.195C77.3529 225.195 76.2656 224.834 75.4258 224.111C74.5924 223.389 74.1758 222.435 74.1758 221.25H75.9922C75.9922 221.999 76.2363 222.598 76.7246 223.047C77.2129 223.496 77.8672 223.721 78.6875 223.721C79.5599 223.721 80.2272 223.493 80.6895 223.037C81.1517 222.581 81.3828 221.927 81.3828 221.074C81.3828 220.247 81.1289 219.613 80.6211 219.17C80.1133 218.727 79.3809 218.499 78.4238 218.486H77.0664V217.012Z" fill="#0094FF"/>
<path d="M351.109 338.488C350.934 339.992 350.377 341.154 349.439 341.975C348.508 342.788 347.268 343.195 345.719 343.195C344.039 343.195 342.691 342.593 341.676 341.389C340.667 340.184 340.162 338.573 340.162 336.555V335.188C340.162 333.866 340.396 332.704 340.865 331.701C341.34 330.699 342.011 329.93 342.877 329.396C343.743 328.856 344.745 328.586 345.885 328.586C347.395 328.586 348.606 329.009 349.518 329.855C350.429 330.695 350.96 331.861 351.109 333.352H349.225C349.062 332.219 348.707 331.398 348.16 330.891C347.62 330.383 346.861 330.129 345.885 330.129C344.687 330.129 343.746 330.572 343.062 331.457C342.385 332.342 342.047 333.602 342.047 335.236V336.613C342.047 338.156 342.369 339.383 343.014 340.295C343.658 341.206 344.56 341.662 345.719 341.662C346.76 341.662 347.558 341.428 348.111 340.959C348.671 340.484 349.042 339.66 349.225 338.488H351.109ZM352.916 337.619C352.916 336.584 353.118 335.653 353.521 334.826C353.932 333.999 354.498 333.361 355.221 332.912C355.95 332.463 356.78 332.238 357.711 332.238C359.15 332.238 360.312 332.736 361.197 333.732C362.089 334.729 362.535 336.053 362.535 337.707V337.834C362.535 338.863 362.337 339.787 361.939 340.607C361.549 341.421 360.986 342.056 360.25 342.512C359.521 342.967 358.681 343.195 357.73 343.195C356.298 343.195 355.136 342.697 354.244 341.701C353.359 340.705 352.916 339.387 352.916 337.746V337.619ZM354.732 337.834C354.732 339.006 355.003 339.947 355.543 340.656C356.09 341.366 356.819 341.721 357.73 341.721C358.648 341.721 359.378 341.363 359.918 340.646C360.458 339.924 360.729 338.915 360.729 337.619C360.729 336.46 360.452 335.523 359.898 334.807C359.352 334.084 358.622 333.723 357.711 333.723C356.819 333.723 356.1 334.077 355.553 334.787C355.006 335.497 354.732 336.512 354.732 337.834ZM366.764 343H364.957V328H366.764V343ZM377.066 335.012H378.424C379.277 334.999 379.947 334.774 380.436 334.338C380.924 333.902 381.168 333.312 381.168 332.57C381.168 330.904 380.338 330.07 378.678 330.07C377.896 330.07 377.271 330.295 376.803 330.744C376.34 331.187 376.109 331.776 376.109 332.512H374.303C374.303 331.385 374.713 330.451 375.533 329.709C376.36 328.96 377.408 328.586 378.678 328.586C380.019 328.586 381.07 328.941 381.832 329.65C382.594 330.36 382.975 331.346 382.975 332.609C382.975 333.228 382.773 333.827 382.369 334.406C381.972 334.986 381.428 335.419 380.738 335.705C381.52 335.952 382.122 336.363 382.545 336.936C382.975 337.508 383.189 338.208 383.189 339.035C383.189 340.311 382.773 341.324 381.939 342.072C381.106 342.821 380.022 343.195 378.688 343.195C377.353 343.195 376.266 342.834 375.426 342.111C374.592 341.389 374.176 340.435 374.176 339.25H375.992C375.992 339.999 376.236 340.598 376.725 341.047C377.213 341.496 377.867 341.721 378.688 341.721C379.56 341.721 380.227 341.493 380.689 341.037C381.152 340.581 381.383 339.927 381.383 339.074C381.383 338.247 381.129 337.613 380.621 337.17C380.113 336.727 379.381 336.499 378.424 336.486H377.066V335.012Z" fill="#00FF29"/>
<path d="M83.2363 339.03L86.9277 327.15H89.8281L83.4561 345.446C82.4697 348.083 80.9023 349.401 78.7539 349.401L78.2412 349.357L77.2305 349.167V346.97L77.9629 347.028C78.8809 347.028 79.5938 346.843 80.1016 346.472C80.6191 346.101 81.0439 345.422 81.376 344.436L81.9766 342.824L76.3223 327.15H79.2812L83.2363 339.03Z" fill="#00DCFF"/>
<line x1="74.0803" y1="32.5" x2="69" y2="32.5" stroke="#00DCFF"/>
<line x1="69.5" y1="32" x2="69.5" y2="115" stroke="#00DCFF"/>
<line x1="74.0803" y1="115.5" x2="69" y2="115.5" stroke="#00DCFF"/>
<line x1="92.9197" y1="114.5" x2="98" y2="114.5" stroke="#00DCFF"/>
<line x1="97.5" y1="115" x2="97.5" y2="32" stroke="#00DCFF"/>
<line x1="92.9197" y1="31.5" x2="98" y2="31.5" stroke="#00DCFF"/>
<path d="M73.1863 76.6008V75.1165H77.9812V76.6008H73.1863ZM85.7937 81.22H84.2117V71.0442C84.2117 70.1978 84.2378 69.3971 84.2898 68.6418C84.1531 68.7786 84.0001 68.9218 83.8309 69.0715C83.6616 69.2213 82.8868 69.856 81.5066 70.9758L80.6473 69.8625L84.4266 66.9426H85.7937V81.22Z" fill="#00DCFF"/>
<path d="M88.2654 103.945H86.1463V107.227H84.5935V103.945H77.6502V102.529L84.4275 92.8712H86.1463V102.471H88.2654V103.945ZM84.5935 102.471V97.7247C84.5935 96.7937 84.6261 95.7423 84.6912 94.5704H84.6131C84.3006 95.1954 84.0076 95.713 83.7342 96.1232L79.2713 102.471H84.5935Z" fill="#00DCFF"/>
<path d="M87.6697 49.1617C87.6697 51.6292 87.2791 53.4716 86.4978 54.6891C85.7231 55.9065 84.535 56.5153 82.9334 56.5153C81.3969 56.5153 80.2283 55.8935 79.4275 54.65C78.6267 53.4 78.2264 51.5706 78.2264 49.1617C78.2264 46.6748 78.6137 44.8291 79.3885 43.6246C80.1632 42.4202 81.3448 41.818 82.9334 41.818C84.4829 41.818 85.658 42.4462 86.4588 43.7028C87.2661 44.9593 87.6697 46.7789 87.6697 49.1617ZM79.867 49.1617C79.867 51.2386 80.1111 52.7522 80.5994 53.7028C81.0877 54.6468 81.8657 55.1188 82.9334 55.1188C84.0141 55.1188 84.7954 54.6403 85.2771 53.6832C85.7654 52.7197 86.0096 51.2125 86.0096 49.1617C86.0096 47.111 85.7654 45.6103 85.2771 44.6598C84.7954 43.7028 84.0141 43.2242 82.9334 43.2242C81.8657 43.2242 81.0877 43.6962 80.5994 44.6403C80.1111 45.5778 79.867 47.0849 79.867 49.1617Z" fill="#00DCFF"/>
</svg>
