<svg width="435" height="403" viewBox="0 0 435 403" fill="none" xmlns="http://www.w3.org/2000/svg">
<path d="M370.061 210.061C370.646 209.475 370.646 208.525 370.061 207.939L360.515 198.393C359.929 197.808 358.979 197.808 358.393 198.393C357.808 198.979 357.808 199.929 358.393 200.515L366.879 209L358.393 217.485C357.808 218.071 357.808 219.021 358.393 219.607C358.979 220.192 359.929 220.192 360.515 219.607L370.061 210.061ZM39 210.5H369V207.5H39V210.5Z" fill="#00DCFF"/>
<line x1="128.549" y1="402.785" x2="318.549" y2="3.78502" stroke="#00DCFF"/>
<path d="M200.061 42.9393C199.475 42.3536 198.525 42.3536 197.939 42.9393L188.393 52.4853C187.808 53.0711 187.808 54.0208 188.393 54.6066C188.979 55.1924 189.929 55.1924 190.515 54.6066L199 46.1213L207.485 54.6066C208.071 55.1924 209.021 55.1924 209.607 54.6066C210.192 54.0208 210.192 53.0711 209.607 52.4853L200.061 42.9393ZM200.5 374L200.5 44L197.5 44L197.5 374L200.5 374Z" fill="#00DCFF"/>
<path d="M396.368 209.937L399.884 204.15H403.048L397.862 211.987L403.209 220H400.074L396.412 214.067L392.75 220H389.601L394.947 211.987L389.762 204.15H392.896L396.368 209.937Z" fill="#00DCFF"/>
<path d="M259.504 234H257.688V221.959L254.045 223.297V221.656L259.221 219.713H259.504V234Z" fill="#00DCFF"/>
<path d="M180.883 99H171.566V97.7012L176.488 92.2324C177.217 91.4056 177.719 90.735 177.992 90.2207C178.272 89.6999 178.412 89.1628 178.412 88.6094C178.412 87.8672 178.188 87.2585 177.738 86.7832C177.289 86.3079 176.69 86.0703 175.941 86.0703C175.043 86.0703 174.343 86.3275 173.842 86.8418C173.347 87.3496 173.1 88.0592 173.1 88.9707H171.293C171.293 87.6621 171.713 86.6042 172.553 85.7969C173.399 84.9896 174.529 84.5859 175.941 84.5859C177.263 84.5859 178.308 84.9342 179.076 85.6309C179.844 86.321 180.229 87.2422 180.229 88.3945C180.229 89.7943 179.337 91.4609 177.553 93.3945L173.744 97.5254H180.883V99Z" fill="#00DCFF"/>
<path d="M199.236 25.0303L202.928 13.1504H205.828L199.456 31.4463C198.47 34.083 196.902 35.4014 194.754 35.4014L194.241 35.3574L193.23 35.167V32.9697L193.963 33.0283C194.881 33.0283 195.594 32.8428 196.102 32.4717C196.619 32.1006 197.044 31.4219 197.376 30.4355L197.977 28.8242L192.322 13.1504H195.281L199.236 25.0303Z" fill="#00DCFF"/>
<line x1="0.727658" y1="252.581" x2="388.728" y2="0.580683" stroke="#00DCFF"/>
</svg>
