<svg width="396" height="493" viewBox="0 0 396 493" fill="none" xmlns="http://www.w3.org/2000/svg">
<path d="M90.3711 146.547C89.5684 146.342 88.7516 146.826 88.5466 147.629L85.207 160.709C85.002 161.512 85.4866 162.329 86.2893 162.534C87.0919 162.739 87.9088 162.254 88.1137 161.451L91.0823 149.824L102.709 152.793C103.512 152.998 104.329 152.513 104.534 151.711C104.739 150.908 104.254 150.091 103.451 149.886L90.3711 146.547ZM161.29 265.235L91.2901 147.235L88.7099 148.765L158.71 266.765L161.29 265.235Z" fill="#00DCFF"/>
<path d="M90.3711 146.547C89.5684 146.342 88.7516 146.826 88.5466 147.629L85.207 160.709C85.002 161.512 85.4866 162.329 86.2893 162.534C87.0919 162.739 87.9088 162.254 88.1137 161.451L91.0823 149.824L102.709 152.793C103.512 152.998 104.329 152.513 104.534 151.711C104.739 150.908 104.254 150.091 103.451 149.886L90.3711 146.547ZM161.29 265.235L91.2901 147.235L88.7099 148.765L158.71 266.765L161.29 265.235Z" fill="#00DCFF"/>
<path d="M160.282 83.0407C159.753 82.8847 159.197 83.1878 159.041 83.7176L156.499 92.3511C156.343 92.8809 156.646 93.4368 157.176 93.5928C157.705 93.7488 158.261 93.4458 158.417 92.916L160.677 85.2417L168.351 87.5013C168.881 87.6572 169.437 87.3542 169.593 86.8244C169.749 86.2946 169.446 85.7387 168.916 85.5827L160.282 83.0407ZM293.878 327.521L292.432 324.869L290.676 325.826L292.122 328.479L293.878 327.521ZM289.541 319.565L286.65 314.261L284.894 315.218L287.785 320.522L289.541 319.565ZM283.758 308.956L280.867 303.652L279.111 304.609L282.002 309.913L283.758 308.956ZM277.976 298.347L275.085 293.043L273.328 294L276.22 299.305L277.976 298.347ZM272.193 287.739L269.302 282.434L267.546 283.392L270.437 288.696L272.193 287.739ZM266.411 277.13L263.519 271.826L261.763 272.783L264.655 278.087L266.411 277.13ZM260.628 266.521L257.737 261.217L255.981 262.174L258.872 267.479L260.628 266.521ZM254.845 255.913L251.954 250.608L250.198 251.566L253.089 256.87L254.845 255.913ZM249.063 245.304L246.172 240L244.415 240.957L247.307 246.261L249.063 245.304ZM243.28 234.695L240.389 229.391L238.633 230.348L241.524 235.653L243.28 234.695ZM237.498 224.087L234.606 218.782L232.85 219.739L235.742 225.044L237.498 224.087ZM231.715 213.478L228.824 208.174L227.068 209.131L229.959 214.435L231.715 213.478ZM225.932 202.869L223.041 197.565L221.285 198.522L224.176 203.826L225.932 202.869ZM220.15 192.261L217.258 186.956L215.502 187.913L218.394 193.218L220.15 192.261ZM214.367 181.652L211.476 176.348L209.72 177.305L212.611 182.609L214.367 181.652ZM208.585 171.043L205.693 165.739L203.937 166.696L206.829 172L208.585 171.043ZM202.802 160.434L199.911 155.13L198.155 156.087L201.046 161.392L202.802 160.434ZM197.019 149.826L194.128 144.521L192.372 145.479L195.263 150.783L197.019 149.826ZM191.237 139.217L188.345 133.913L186.589 134.87L189.481 140.174L191.237 139.217ZM185.454 128.608L182.563 123.304L180.807 124.261L183.698 129.566L185.454 128.608ZM179.672 118L176.78 112.695L175.024 113.653L177.915 118.957L179.672 118ZM173.889 107.391L170.998 102.087L169.242 103.044L172.133 108.348L173.889 107.391ZM168.106 96.7823L165.215 91.478L163.459 92.4352L166.35 97.7395L168.106 96.7823ZM162.324 86.1736L160.878 83.5214L159.122 84.4786L160.568 87.1308L162.324 86.1736ZM160.565 82.0814C159.505 81.7694 158.393 82.3755 158.081 83.4351L152.997 100.702C152.686 101.762 153.292 102.874 154.351 103.186C155.411 103.498 156.523 102.892 156.835 101.832L161.354 86.4834L176.702 91.0025C177.762 91.3145 178.874 90.7084 179.186 89.6488C179.498 88.5892 178.892 87.4774 177.832 87.1654L160.565 82.0814ZM294.756 327.043L293.31 324.391L289.798 326.305L291.244 328.957L294.756 327.043ZM290.419 319.086L287.528 313.782L284.016 315.696L286.907 321.001L290.419 319.086ZM284.637 308.478L281.745 303.173L278.233 305.088L281.124 310.392L284.637 308.478ZM278.854 297.869L275.963 292.565L272.45 294.479L275.342 299.783L278.854 297.869ZM273.071 287.26L270.18 281.956L266.668 283.87L269.559 289.175L273.071 287.26ZM267.289 276.651L264.397 271.347L260.885 273.262L263.777 278.566L267.289 276.651ZM261.506 266.043L258.615 260.738L255.103 262.653L257.994 267.957L261.506 266.043ZM255.723 255.434L252.832 250.13L249.32 252.044L252.211 257.348L255.723 255.434ZM249.941 244.825L247.05 239.521L243.537 241.435L246.429 246.74L249.941 244.825ZM244.158 234.217L241.267 228.912L237.755 230.827L240.646 236.131L244.158 234.217ZM238.376 223.608L235.484 218.304L231.972 220.218L234.864 225.522L238.376 223.608ZM232.593 212.999L229.702 207.695L226.19 209.609L229.081 214.914L232.593 212.999ZM226.81 202.391L223.919 197.086L220.407 199.001L223.298 204.305L226.81 202.391ZM221.028 191.782L218.137 186.478L214.624 188.392L217.516 193.696L221.028 191.782ZM215.245 181.173L212.354 175.869L208.842 177.783L211.733 183.088L215.245 181.173ZM209.463 170.565L206.571 165.26L203.059 167.175L205.95 172.479L209.463 170.565ZM203.68 159.956L200.789 154.652L197.277 156.566L200.168 161.87L203.68 159.956ZM197.897 149.347L195.006 144.043L191.494 145.957L194.385 151.262L197.897 149.347ZM192.115 138.738L189.223 133.434L185.711 135.349L188.603 140.653L192.115 138.738ZM186.332 128.13L183.441 122.825L179.929 124.74L182.82 130.044L186.332 128.13ZM180.55 117.521L177.658 112.217L174.146 114.131L177.037 119.436L180.55 117.521ZM174.767 106.912L171.876 101.608L168.364 103.522L171.255 108.827L174.767 106.912ZM168.984 96.3037L166.093 90.9994L162.581 92.9138L165.472 98.2181L168.984 96.3037ZM163.202 85.695L161.756 83.0428L158.244 84.9572L159.69 87.6094L163.202 85.695Z" fill="#FF006B"/>
<path d="M331.061 267.061C331.646 266.475 331.646 265.525 331.061 264.939L321.515 255.393C320.929 254.808 319.979 254.808 319.393 255.393C318.808 255.979 318.808 256.929 319.393 257.515L327.879 266L319.393 274.485C318.808 275.071 318.808 276.021 319.393 276.607C319.979 277.192 320.929 277.192 321.515 276.607L331.061 267.061ZM0 267.5H330V264.5H0V267.5Z" fill="#00DCFF"/>
<path d="M161.061 42.9393C160.475 42.3536 159.525 42.3536 158.939 42.9393L149.393 52.4853C148.808 53.0711 148.808 54.0208 149.393 54.6066C149.979 55.1924 150.929 55.1924 151.515 54.6066L160 46.1213L168.485 54.6066C169.071 55.1924 170.021 55.1924 170.607 54.6066C171.192 54.0208 171.192 53.0711 170.607 52.4853L161.061 42.9393ZM161.5 431L161.5 44H158.5L158.5 431H161.5Z" fill="#00DCFF"/>
<path d="M161.768 82.2322C160.791 81.2559 159.209 81.2559 158.232 82.2322L142.322 98.1421C141.346 99.1184 141.346 100.701 142.322 101.678C143.299 102.654 144.882 102.654 145.858 101.678L160 87.5355L174.142 101.678C175.118 102.654 176.701 102.654 177.678 101.678C178.654 100.701 178.654 99.1184 177.678 98.1421L161.768 82.2322ZM162.5 266V84H157.5V266H162.5Z" fill="#0094FF"/>
<path d="M357.368 266.937L360.884 261.15H364.048L358.862 268.987L364.209 277H361.074L357.412 271.067L353.75 277H350.601L355.947 268.987L350.762 261.15H353.896L357.368 266.937Z" fill="#00DCFF"/>
<path d="M67.7065 224.36C67.4868 226.24 66.791 227.693 65.6191 228.718C64.4554 229.736 62.9051 230.244 60.9683 230.244C58.8687 230.244 57.1841 229.491 55.9146 227.986C54.6532 226.48 54.0225 224.466 54.0225 221.943V220.234C54.0225 218.582 54.3154 217.13 54.9014 215.876C55.4954 214.623 56.3337 213.663 57.416 212.996C58.4984 212.32 59.7516 211.982 61.1758 211.982C63.0638 211.982 64.5775 212.511 65.7168 213.569C66.8561 214.619 67.5194 216.076 67.7065 217.939H65.3506C65.1471 216.523 64.7036 215.498 64.02 214.863C63.3446 214.229 62.3965 213.911 61.1758 213.911C59.6784 213.911 58.5024 214.465 57.6479 215.571C56.8016 216.678 56.3784 218.253 56.3784 220.295V222.017C56.3784 223.945 56.7812 225.479 57.5869 226.619C58.3926 227.758 59.5197 228.328 60.9683 228.328C62.2703 228.328 63.2673 228.035 63.959 227.449C64.6589 226.855 65.1227 225.825 65.3506 224.36H67.7065ZM69.9648 223.274C69.9648 221.98 70.2171 220.816 70.7217 219.783C71.2344 218.749 71.9424 217.952 72.8457 217.39C73.7572 216.829 74.7948 216.548 75.9585 216.548C77.757 216.548 79.2096 217.17 80.3164 218.416C81.4313 219.661 81.9888 221.317 81.9888 223.384V223.542C81.9888 224.828 81.7406 225.984 81.2441 227.009C80.7559 228.027 80.0519 228.82 79.1323 229.39C78.2209 229.959 77.1711 230.244 75.9829 230.244C74.1925 230.244 72.7399 229.622 71.625 228.376C70.5182 227.131 69.9648 225.483 69.9648 223.433V223.274ZM72.2354 223.542C72.2354 225.007 72.5731 226.183 73.2485 227.07C73.9321 227.957 74.8436 228.401 75.9829 228.401C77.1304 228.401 78.0418 227.953 78.7173 227.058C79.3927 226.155 79.7305 224.893 79.7305 223.274C79.7305 221.825 79.3846 220.653 78.6929 219.758C78.0093 218.855 77.0978 218.403 75.9585 218.403C74.8436 218.403 73.9443 218.847 73.2607 219.734C72.5771 220.621 72.2354 221.89 72.2354 223.542ZM87.2744 230H85.0161V211.25H87.2744V230ZM108.515 230H96.8691V228.376L103.021 221.541C103.933 220.507 104.56 219.669 104.901 219.026C105.251 218.375 105.426 217.703 105.426 217.012C105.426 216.084 105.146 215.323 104.584 214.729C104.022 214.135 103.274 213.838 102.338 213.838C101.215 213.838 100.34 214.159 99.7134 214.802C99.0949 215.437 98.7856 216.324 98.7856 217.463H96.5273C96.5273 215.828 97.0522 214.505 98.1021 213.496C99.16 212.487 100.572 211.982 102.338 211.982C103.99 211.982 105.296 212.418 106.256 213.289C107.217 214.151 107.697 215.303 107.697 216.743C107.697 218.493 106.582 220.576 104.352 222.993L99.5913 228.157H108.515V230Z" fill="#00DCFF"/>
<path d="M69.8716 16.5425C69.8716 18.5607 69.4077 20.1842 68.48 21.4131C67.5522 22.6338 66.3071 23.2441 64.7446 23.2441C63.0763 23.2441 61.7865 22.6541 60.875 21.4741L60.7651 23H58.6899V4.25H60.9482V11.2446C61.8597 10.1134 63.117 9.54785 64.7202 9.54785C66.3234 9.54785 67.5807 10.1541 68.4922 11.3667C69.4118 12.5793 69.8716 14.2394 69.8716 16.3472V16.5425ZM67.6133 16.2861C67.6133 14.748 67.3162 13.5599 66.7222 12.7217C66.1281 11.8835 65.2736 11.4644 64.1587 11.4644C62.6694 11.4644 61.5993 12.1561 60.9482 13.5396V19.2524C61.64 20.6359 62.7183 21.3276 64.1831 21.3276C65.2655 21.3276 66.1077 20.9085 66.71 20.0703C67.3122 19.2321 67.6133 17.9707 67.6133 16.2861Z" fill="#0094FF"/>
<path d="M65.2695 475.518C65.2695 477.634 64.8179 479.286 63.9146 480.474C63.0112 481.654 61.7498 482.244 60.1304 482.244C58.6981 482.244 57.5547 481.695 56.7002 480.596L56.5415 482H53.3677V463.25H56.8955V469.976C57.7093 469.024 58.7795 468.548 60.106 468.548C61.7173 468.548 62.9787 469.142 63.8901 470.33C64.8097 471.51 65.2695 473.174 65.2695 475.323V475.518ZM61.7417 475.262C61.7417 473.927 61.5301 472.955 61.1069 472.344C60.6838 471.726 60.0531 471.417 59.2148 471.417C58.0918 471.417 57.3187 471.876 56.8955 472.796V478.008C57.3268 478.936 58.1081 479.4 59.2393 479.4C60.3786 479.4 61.1273 478.838 61.4854 477.715C61.6562 477.178 61.7417 476.36 61.7417 475.262ZM84.8984 472.894H73.9854V470.013H84.8984V472.894ZM84.8984 478.179H73.9854V475.298H84.8984V478.179ZM102.635 482H99.1074V468.401L94.896 469.708V466.839L102.257 464.202H102.635V482ZM119.823 472.735L122.044 468.792H125.816L122.057 475.262L125.975 482H122.191L119.835 477.85L117.491 482H113.695L117.613 475.262L113.866 468.792H117.65L119.823 472.735ZM147.923 476.08C147.785 477.992 147.077 479.498 145.799 480.596C144.53 481.695 142.853 482.244 140.77 482.244C138.491 482.244 136.697 481.479 135.387 479.949C134.085 478.411 133.434 476.303 133.434 473.626V472.54C133.434 470.831 133.735 469.325 134.337 468.023C134.939 466.721 135.798 465.724 136.913 465.032C138.036 464.332 139.338 463.982 140.819 463.982C142.87 463.982 144.522 464.532 145.775 465.63C147.028 466.729 147.752 468.271 147.948 470.257H144.286C144.196 469.109 143.875 468.279 143.321 467.767C142.776 467.246 141.942 466.985 140.819 466.985C139.598 466.985 138.683 467.425 138.072 468.304C137.47 469.174 137.161 470.529 137.145 472.369V473.711C137.145 475.632 137.433 477.036 138.011 477.923C138.597 478.81 139.517 479.253 140.77 479.253C141.901 479.253 142.743 478.997 143.297 478.484C143.858 477.964 144.18 477.162 144.261 476.08H147.923ZM149.547 475.274C149.547 473.964 149.799 472.796 150.304 471.771C150.808 470.745 151.533 469.952 152.477 469.39C153.429 468.829 154.531 468.548 155.785 468.548C157.567 468.548 159.02 469.093 160.143 470.184C161.274 471.274 161.904 472.755 162.035 474.627L162.059 475.53C162.059 477.557 161.493 479.184 160.362 480.413C159.231 481.634 157.713 482.244 155.809 482.244C153.905 482.244 152.383 481.634 151.244 480.413C150.112 479.192 149.547 477.532 149.547 475.433V475.274ZM153.075 475.53C153.075 476.784 153.311 477.744 153.783 478.411C154.255 479.07 154.93 479.4 155.809 479.4C156.664 479.4 157.331 479.074 157.811 478.423C158.291 477.764 158.531 476.714 158.531 475.274C158.531 474.045 158.291 473.093 157.811 472.417C157.331 471.742 156.655 471.404 155.785 471.404C154.922 471.404 154.255 471.742 153.783 472.417C153.311 473.085 153.075 474.122 153.075 475.53ZM167.955 482H164.415V463.25H167.955V482ZM179.295 482H175.768V468.401L171.556 469.708V466.839L178.917 464.202H179.295V482ZM198.57 472.051H202.977V475.237H198.57V480.218H195.213V475.237H190.794V472.051H195.213V467.278H198.57V472.051ZM223.363 482H211.18V479.583L216.93 473.455C217.719 472.592 218.301 471.84 218.675 471.197C219.058 470.554 219.249 469.944 219.249 469.366C219.249 468.576 219.05 467.958 218.651 467.51C218.252 467.055 217.682 466.827 216.942 466.827C216.144 466.827 215.514 467.103 215.05 467.657C214.594 468.202 214.366 468.922 214.366 469.817H210.826C210.826 468.735 211.083 467.746 211.595 466.851C212.116 465.956 212.848 465.256 213.792 464.751C214.736 464.239 215.807 463.982 217.003 463.982C218.834 463.982 220.254 464.422 221.263 465.301C222.28 466.18 222.789 467.421 222.789 469.024C222.789 469.903 222.561 470.798 222.105 471.709C221.65 472.621 220.868 473.683 219.762 474.896L215.721 479.156H223.363V482ZM236.937 472.735L239.159 468.792H242.931L239.171 475.262L243.089 482H239.305L236.949 477.85L234.605 482H230.809L234.728 475.262L230.98 468.792H234.764L236.937 472.735ZM265.038 476.08C264.899 477.992 264.191 479.498 262.914 480.596C261.644 481.695 259.968 482.244 257.884 482.244C255.606 482.244 253.811 481.479 252.501 479.949C251.199 478.411 250.548 476.303 250.548 473.626V472.54C250.548 470.831 250.849 469.325 251.451 468.023C252.053 466.721 252.912 465.724 254.027 465.032C255.15 464.332 256.452 463.982 257.933 463.982C259.984 463.982 261.636 464.532 262.889 465.63C264.142 466.729 264.867 468.271 265.062 470.257H261.4C261.31 469.109 260.989 468.279 260.436 467.767C259.89 467.246 259.056 466.985 257.933 466.985C256.712 466.985 255.797 467.425 255.187 468.304C254.584 469.174 254.275 470.529 254.259 472.369V473.711C254.259 475.632 254.548 477.036 255.125 477.923C255.711 478.81 256.631 479.253 257.884 479.253C259.015 479.253 259.858 478.997 260.411 478.484C260.973 477.964 261.294 477.162 261.375 476.08H265.038ZM266.661 475.274C266.661 473.964 266.913 472.796 267.418 471.771C267.923 470.745 268.647 469.952 269.591 469.39C270.543 468.829 271.646 468.548 272.899 468.548C274.681 468.548 276.134 469.093 277.257 470.184C278.388 471.274 279.019 472.755 279.149 474.627L279.173 475.53C279.173 477.557 278.608 479.184 277.477 480.413C276.345 481.634 274.828 482.244 272.923 482.244C271.019 482.244 269.497 481.634 268.358 480.413C267.227 479.192 266.661 477.532 266.661 475.433V475.274ZM270.189 475.53C270.189 476.784 270.425 477.744 270.897 478.411C271.369 479.07 272.044 479.4 272.923 479.4C273.778 479.4 274.445 479.074 274.925 478.423C275.405 477.764 275.646 476.714 275.646 475.274C275.646 474.045 275.405 473.093 274.925 472.417C274.445 471.742 273.77 471.404 272.899 471.404C272.036 471.404 271.369 471.742 270.897 472.417C270.425 473.085 270.189 474.122 270.189 475.53ZM285.069 482H281.529V463.25H285.069V482ZM300.023 482H287.84V479.583L293.59 473.455C294.379 472.592 294.961 471.84 295.335 471.197C295.718 470.554 295.909 469.944 295.909 469.366C295.909 468.576 295.71 467.958 295.311 467.51C294.912 467.055 294.343 466.827 293.602 466.827C292.805 466.827 292.174 467.103 291.71 467.657C291.254 468.202 291.026 468.922 291.026 469.817H287.486C287.486 468.735 287.743 467.746 288.255 466.851C288.776 465.956 289.509 465.256 290.453 464.751C291.397 464.239 292.467 463.982 293.663 463.982C295.494 463.982 296.914 464.422 297.923 465.301C298.941 466.18 299.449 467.421 299.449 469.024C299.449 469.903 299.221 470.798 298.766 471.709C298.31 472.621 297.529 473.683 296.422 474.896L292.381 479.156H300.023V482Z" fill="#0094FF"/>
<path d="M221.707 341.36C221.487 343.24 220.791 344.693 219.619 345.718C218.455 346.736 216.905 347.244 214.968 347.244C212.869 347.244 211.184 346.491 209.915 344.986C208.653 343.48 208.022 341.466 208.022 338.943V337.234C208.022 335.582 208.315 334.13 208.901 332.876C209.495 331.623 210.334 330.663 211.416 329.996C212.498 329.32 213.752 328.982 215.176 328.982C217.064 328.982 218.577 329.511 219.717 330.569C220.856 331.619 221.519 333.076 221.707 334.939H219.351C219.147 333.523 218.704 332.498 218.02 331.863C217.345 331.229 216.396 330.911 215.176 330.911C213.678 330.911 212.502 331.465 211.648 332.571C210.802 333.678 210.378 335.253 210.378 337.295V339.017C210.378 340.945 210.781 342.479 211.587 343.619C212.393 344.758 213.52 345.328 214.968 345.328C216.27 345.328 217.267 345.035 217.959 344.449C218.659 343.855 219.123 342.825 219.351 341.36H221.707ZM223.965 340.274C223.965 338.98 224.217 337.816 224.722 336.783C225.234 335.749 225.942 334.952 226.846 334.39C227.757 333.829 228.795 333.548 229.958 333.548C231.757 333.548 233.21 334.17 234.316 335.416C235.431 336.661 235.989 338.317 235.989 340.384V340.542C235.989 341.828 235.741 342.984 235.244 344.009C234.756 345.027 234.052 345.82 233.132 346.39C232.221 346.959 231.171 347.244 229.983 347.244C228.193 347.244 226.74 346.622 225.625 345.376C224.518 344.131 223.965 342.483 223.965 340.433V340.274ZM226.235 340.542C226.235 342.007 226.573 343.183 227.249 344.07C227.932 344.957 228.844 345.401 229.983 345.401C231.13 345.401 232.042 344.953 232.717 344.058C233.393 343.155 233.73 341.893 233.73 340.274C233.73 338.825 233.385 337.653 232.693 336.758C232.009 335.855 231.098 335.403 229.958 335.403C228.844 335.403 227.944 335.847 227.261 336.734C226.577 337.621 226.235 338.89 226.235 340.542ZM241.274 347H239.016V328.25H241.274V347ZM258.291 347H256.021V331.949L251.467 333.621V331.57L257.937 329.141H258.291V347Z" fill="#FF006B"/>
<path d="M241.037 141.466H245.993V143.603H241.037V149.218H238.766V143.603H233.81V141.466H238.766V136.278H241.037V141.466ZM260.165 151H248.52V149.376L254.672 142.541C255.583 141.507 256.21 140.669 256.552 140.026C256.902 139.375 257.077 138.703 257.077 138.012C257.077 137.084 256.796 136.323 256.234 135.729C255.673 135.135 254.924 134.838 253.988 134.838C252.865 134.838 251.99 135.159 251.364 135.802C250.745 136.437 250.436 137.324 250.436 138.463H248.178C248.178 136.828 248.703 135.505 249.752 134.496C250.81 133.487 252.222 132.982 253.988 132.982C255.64 132.982 256.946 133.418 257.907 134.289C258.867 135.151 259.347 136.303 259.347 137.743C259.347 139.493 258.232 141.576 256.002 143.993L251.242 149.157H260.165V151ZM282.418 145.36C282.199 147.24 281.503 148.693 280.331 149.718C279.167 150.736 277.617 151.244 275.68 151.244C273.581 151.244 271.896 150.491 270.626 148.986C269.365 147.48 268.734 145.466 268.734 142.943V141.234C268.734 139.582 269.027 138.13 269.613 136.876C270.207 135.623 271.046 134.663 272.128 133.996C273.21 133.32 274.464 132.982 275.888 132.982C277.776 132.982 279.289 133.511 280.429 134.569C281.568 135.619 282.231 137.076 282.418 138.939H280.062C279.859 137.523 279.416 136.498 278.732 135.863C278.056 135.229 277.108 134.911 275.888 134.911C274.39 134.911 273.214 135.465 272.36 136.571C271.514 137.678 271.09 139.253 271.09 141.295V143.017C271.09 144.945 271.493 146.479 272.299 147.619C273.104 148.758 274.232 149.328 275.68 149.328C276.982 149.328 277.979 149.035 278.671 148.449C279.371 147.855 279.835 146.825 280.062 145.36H282.418ZM284.677 144.274C284.677 142.98 284.929 141.816 285.434 140.783C285.946 139.749 286.654 138.952 287.558 138.39C288.469 137.829 289.507 137.548 290.67 137.548C292.469 137.548 293.922 138.17 295.028 139.416C296.143 140.661 296.701 142.317 296.701 144.384V144.542C296.701 145.828 296.452 146.984 295.956 148.009C295.468 149.027 294.764 149.82 293.844 150.39C292.933 150.959 291.883 151.244 290.695 151.244C288.904 151.244 287.452 150.622 286.337 149.376C285.23 148.131 284.677 146.483 284.677 144.433V144.274ZM286.947 144.542C286.947 146.007 287.285 147.183 287.96 148.07C288.644 148.957 289.556 149.401 290.695 149.401C291.842 149.401 292.754 148.953 293.429 148.058C294.105 147.155 294.442 145.893 294.442 144.274C294.442 142.825 294.097 141.653 293.405 140.758C292.721 139.855 291.81 139.403 290.67 139.403C289.556 139.403 288.656 139.847 287.973 140.734C287.289 141.621 286.947 142.89 286.947 144.542ZM301.986 151H299.728V132.25H301.986V151ZM323.227 151H311.581V149.376L317.733 142.541C318.645 141.507 319.271 140.669 319.613 140.026C319.963 139.375 320.138 138.703 320.138 138.012C320.138 137.084 319.857 136.323 319.296 135.729C318.734 135.135 317.986 134.838 317.05 134.838C315.927 134.838 315.052 135.159 314.425 135.802C313.807 136.437 313.498 137.324 313.498 138.463H311.239C311.239 136.828 311.764 135.505 312.814 134.496C313.872 133.487 315.284 132.982 317.05 132.982C318.702 132.982 320.008 133.418 320.968 134.289C321.929 135.151 322.409 136.303 322.409 137.743C322.409 139.493 321.294 141.576 319.064 143.993L314.303 149.157H323.227V151Z" fill="#FF006B"/>
<path d="M293.496 331.416C294.278 331.142 294.69 330.286 294.416 329.504L289.953 316.763C289.679 315.981 288.823 315.569 288.042 315.843C287.26 316.117 286.848 316.973 287.122 317.755L291.088 329.08L279.763 333.047C278.981 333.321 278.569 334.177 278.843 334.958C279.117 335.74 279.973 336.152 280.755 335.878L293.496 331.416ZM159.35 267.352L292.35 331.352L293.65 328.648L160.65 264.648L159.35 267.352Z" fill="#FF006B"/>
<line x1="46.3145" y1="36.4888" x2="37.0298" y2="36.4827" stroke="#0094FF"/>
<line x1="37.5302" y1="35.983" x2="37.4699" y2="127.983" stroke="#0094FF"/>
<line x1="46.2543" y1="128.489" x2="36.9696" y2="128.483" stroke="#0094FF"/>
<line x1="80.6855" y1="127.511" x2="89.9702" y2="127.517" stroke="#0094FF"/>
<line x1="89.4698" y1="128.017" x2="89.5301" y2="36.017" stroke="#0094FF"/>
<line x1="80.7457" y1="35.5113" x2="90.0304" y2="35.5174" stroke="#0094FF"/>
<path d="M70.646 91.6277C70.6451 92.9949 70.2586 94.1128 69.4866 94.9814C68.7243 95.8501 67.6399 96.4304 66.2335 96.7225L66.2334 96.8397C67.952 97.0556 69.2261 97.6033 70.0556 98.4828C70.8851 99.3622 71.2994 100.515 71.2984 101.941C71.2971 103.982 70.5881 105.553 69.1713 106.656C67.7546 107.749 65.7425 108.294 63.1351 108.293C62.0023 108.292 60.9623 108.203 60.0152 108.027C59.0778 107.86 58.1649 107.562 57.2765 107.132L57.278 104.817C58.2054 105.277 59.1915 105.629 60.2363 105.874C61.2908 106.109 62.2868 106.227 63.2243 106.227C66.9255 106.23 68.7771 104.781 68.7789 101.88C68.7807 99.2827 66.7405 97.9826 62.6585 97.9799L60.5491 97.9785L60.5505 95.8838L62.6891 95.8852C64.359 95.8863 65.6825 95.5209 66.6596 94.7892C67.6366 94.0476 68.1256 93.0225 68.1264 91.7139C68.1271 90.669 67.7663 89.8485 67.0441 89.2523C66.3316 88.6561 65.3601 88.3576 64.1296 88.3568C63.1921 88.3562 62.3082 88.4826 61.478 88.736C60.6477 88.9893 59.7002 89.4575 58.6353 90.1403L57.4059 88.4989C58.2852 87.8061 59.2963 87.2648 60.4392 86.8749C61.5918 86.4753 62.8028 86.2759 64.0724 86.2767C66.1524 86.2781 67.7683 86.7577 68.9201 87.7154C70.0718 88.6635 70.6471 89.9675 70.646 91.6277Z" fill="#0094FF"/>
<path d="M70.5889 61.2673C70.5864 64.9685 69.9987 67.7318 68.8256 69.5572C67.6623 71.3826 65.8795 72.2945 63.4771 72.293C61.1725 72.2915 59.4201 71.3577 58.2202 69.4917C57.0202 67.6159 56.4215 64.8714 56.4238 61.2581C56.4263 57.5276 57.0091 54.7594 58.1724 52.9535C59.3357 51.1477 61.1088 50.2455 63.4916 50.2471C65.8158 50.2486 67.5779 51.1921 68.7778 53.0777C69.9875 54.9632 70.5912 57.6931 70.5889 61.2673ZM58.8848 61.2597C58.8827 64.3749 59.2474 66.6457 59.9789 68.0719C60.7104 69.4884 61.877 70.1972 63.4785 70.1982C65.0996 70.1993 66.272 69.4823 66.9955 68.0472C67.7289 66.6024 68.0966 64.3419 68.0986 61.2657C68.1006 58.1895 67.7359 55.9383 67.0044 54.5121C66.2827 53.076 65.1113 52.3575 63.4902 52.3564C61.8886 52.3554 60.7212 53.0626 59.9878 54.4782C59.2545 55.8839 58.8868 58.1444 58.8848 61.2597Z" fill="#0094FF"/>
</svg>
