<svg width="643" height="400" viewBox="0 0 643 400" fill="none" xmlns="http://www.w3.org/2000/svg">
<line x1="231.549" y1="399.785" x2="421.549" y2="0.78502" stroke="#00DCFF"/>
<line x1="126.728" y1="252.581" x2="514.728" y2="0.581156" stroke="#00DCFF"/>
<path d="M116.879 33.2915L119.223 29.4341H121.332L117.875 34.6587L121.439 40.0005H119.35L116.908 36.0454L114.467 40.0005H112.367L115.932 34.6587L112.475 29.4341H114.564L116.879 33.2915ZM136.479 32.0513H128.334V30.479H136.479V32.0513ZM136.479 36.104H128.334V34.5415H136.479V36.104ZM147.914 34.6978H143.148V33.2231H147.914V34.6978ZM152.123 32.0122H153.48C154.333 31.9992 155.004 31.7746 155.492 31.3384C155.98 30.9022 156.225 30.313 156.225 29.5708C156.225 27.9041 155.395 27.0708 153.734 27.0708C152.953 27.0708 152.328 27.2954 151.859 27.7446C151.397 28.1873 151.166 28.7765 151.166 29.5122H149.359C149.359 28.3859 149.77 27.4517 150.59 26.7095C151.417 25.9608 152.465 25.5864 153.734 25.5864C155.076 25.5864 156.127 25.9412 156.889 26.6509C157.65 27.3605 158.031 28.3468 158.031 29.6099C158.031 30.2284 157.829 30.8273 157.426 31.4067C157.029 31.9862 156.485 32.4191 155.795 32.7056C156.576 32.953 157.178 33.3631 157.602 33.936C158.031 34.5089 158.246 35.2088 158.246 36.0356C158.246 37.3117 157.829 38.3241 156.996 39.0728C156.163 39.8214 155.079 40.1958 153.744 40.1958C152.41 40.1958 151.322 39.8345 150.482 39.1118C149.649 38.3892 149.232 37.4354 149.232 36.2505H151.049C151.049 36.9992 151.293 37.5981 151.781 38.0474C152.27 38.4966 152.924 38.7212 153.744 38.7212C154.617 38.7212 155.284 38.4933 155.746 38.0376C156.208 37.5819 156.439 36.9276 156.439 36.0747C156.439 35.2479 156.186 34.6131 155.678 34.1704C155.17 33.7277 154.438 33.4998 153.48 33.4868H152.123V32.0122ZM160.854 42.8325L159.828 42.1294C160.44 41.2765 160.759 40.3976 160.785 39.4927V37.8618H162.553V39.2778C162.553 39.9354 162.39 40.5929 162.064 41.2505C161.745 41.908 161.342 42.4354 160.854 42.8325ZM173.256 37.354L175.717 29.4341H177.65L173.402 41.6313C172.745 43.3892 171.7 44.2681 170.268 44.2681L169.926 44.2388L169.252 44.1118V42.647L169.74 42.686C170.352 42.686 170.827 42.5623 171.166 42.3149C171.511 42.0675 171.794 41.6151 172.016 40.9575L172.416 39.8833L168.646 29.4341H170.619L173.256 37.354ZM192.494 32.0513H184.35V30.479H192.494V32.0513ZM192.494 36.104H184.35V34.5415H192.494V36.104ZM208.9 33.936C208.9 36.0519 208.539 37.6242 207.816 38.6528C207.094 39.6815 205.964 40.1958 204.428 40.1958C202.911 40.1958 201.788 39.6945 201.059 38.6919C200.329 37.6828 199.952 36.1789 199.926 34.1802V31.7681C199.926 29.6782 200.287 28.1255 201.01 27.1099C201.732 26.0942 202.865 25.5864 204.408 25.5864C205.938 25.5864 207.064 26.078 207.787 27.061C208.51 28.0376 208.881 29.548 208.9 31.5923V33.936ZM207.094 31.4653C207.094 29.9354 206.879 28.8221 206.449 28.1255C206.02 27.4224 205.339 27.0708 204.408 27.0708C203.484 27.0708 202.81 27.4191 202.387 28.1157C201.964 28.8123 201.745 29.8833 201.732 31.3286V34.2192C201.732 35.7557 201.954 36.8918 202.396 37.6274C202.846 38.3566 203.523 38.7212 204.428 38.7212C205.32 38.7212 205.98 38.3761 206.41 37.686C206.846 36.9959 207.074 35.9087 207.094 34.4243V31.4653ZM116.879 56.2915L119.223 52.4341H121.332L117.875 57.6587L121.439 63.0005H119.35L116.908 59.0454L114.467 63.0005H112.367L115.932 57.6587L112.475 52.4341H114.564L116.879 56.2915ZM136.479 55.0513H128.334V53.479H136.479V55.0513ZM136.479 59.104H128.334V57.5415H136.479V59.104ZM147.914 57.6978H143.148V56.2231H147.914V57.6978ZM155.434 63.0005H153.617V50.9595L149.975 52.2974V50.6567L155.15 48.7134H155.434V63.0005ZM160.854 65.8325L159.828 65.1294C160.44 64.2765 160.759 63.3976 160.785 62.4927V60.8618H162.553V62.2778C162.553 62.9354 162.39 63.5929 162.064 64.2505C161.745 64.908 161.342 65.4354 160.854 65.8325ZM173.256 60.354L175.717 52.4341H177.65L173.402 64.6313C172.745 66.3892 171.7 67.2681 170.268 67.2681L169.926 67.2388L169.252 67.1118V65.647L169.74 65.686C170.352 65.686 170.827 65.5623 171.166 65.3149C171.511 65.0675 171.794 64.6151 172.016 63.9575L172.416 62.8833L168.646 52.4341H170.619L173.256 60.354ZM192.494 55.0513H184.35V53.479H192.494V55.0513ZM192.494 59.104H184.35V57.5415H192.494V59.104ZM205.922 63.0005H204.105V50.9595L200.463 52.2974V50.6567L205.639 48.7134H205.922V63.0005ZM176.859 103.698H172.094V102.223H176.859V103.698ZM182.172 102.292L184.516 98.4341H186.625L183.168 103.659L186.732 109H184.643L182.201 105.045L179.76 109H177.66L181.225 103.659L177.768 98.4341H179.857L182.172 102.292ZM198.686 101.374H202.65V103.083H198.686V107.575H196.869V103.083H192.904V101.374H196.869V97.2231H198.686V101.374ZM218.949 109H209.633V107.702L214.555 102.233C215.284 101.406 215.785 100.736 216.059 100.221C216.339 99.7004 216.479 99.1632 216.479 98.6099C216.479 97.8677 216.254 97.2589 215.805 96.7837C215.355 96.3084 214.757 96.0708 214.008 96.0708C213.109 96.0708 212.41 96.328 211.908 96.8423C211.413 97.3501 211.166 98.0597 211.166 98.9712H209.359C209.359 97.6626 209.779 96.6047 210.619 95.7974C211.465 94.9901 212.595 94.5864 214.008 94.5864C215.329 94.5864 216.374 94.9347 217.143 95.6313C217.911 96.3214 218.295 97.2427 218.295 98.395C218.295 99.7948 217.403 101.461 215.619 103.395L211.811 107.526H218.949V109ZM224.506 106.354L226.967 98.4341H228.9L224.652 110.631C223.995 112.389 222.95 113.268 221.518 113.268L221.176 113.239L220.502 113.112V111.647L220.99 111.686C221.602 111.686 222.077 111.562 222.416 111.315C222.761 111.068 223.044 110.615 223.266 109.958L223.666 108.883L219.896 98.4341H221.869L224.506 106.354ZM243.744 101.051H235.6V99.479H243.744V101.051ZM243.744 105.104H235.6V103.542H243.744V105.104ZM253.861 101.012H255.219C256.072 100.999 256.742 100.775 257.23 100.338C257.719 99.9022 257.963 99.313 257.963 98.5708C257.963 96.9041 257.133 96.0708 255.473 96.0708C254.691 96.0708 254.066 96.2954 253.598 96.7446C253.135 97.1873 252.904 97.7765 252.904 98.5122H251.098C251.098 97.3859 251.508 96.4517 252.328 95.7095C253.155 94.9608 254.203 94.5864 255.473 94.5864C256.814 94.5864 257.865 94.9412 258.627 95.6509C259.389 96.3605 259.77 97.3468 259.77 98.6099C259.77 99.2284 259.568 99.8273 259.164 100.407C258.767 100.986 258.223 101.419 257.533 101.706C258.314 101.953 258.917 102.363 259.34 102.936C259.77 103.509 259.984 104.209 259.984 105.036C259.984 106.312 259.568 107.324 258.734 108.073C257.901 108.821 256.817 109.196 255.482 109.196C254.148 109.196 253.061 108.834 252.221 108.112C251.387 107.389 250.971 106.435 250.971 105.25H252.787C252.787 105.999 253.031 106.598 253.52 107.047C254.008 107.497 254.662 107.721 255.482 107.721C256.355 107.721 257.022 107.493 257.484 107.038C257.947 106.582 258.178 105.928 258.178 105.075C258.178 104.248 257.924 103.613 257.416 103.17C256.908 102.728 256.176 102.5 255.219 102.487H253.861V101.012Z" fill="#0094FF"/>
<path d="M66.5566 102.663C64.9486 102.2 63.7767 101.634 63.041 100.963C62.3118 100.286 61.9473 99.453 61.9473 98.4634C61.9473 97.3436 62.3932 96.4191 63.2852 95.6899C64.1836 94.9543 65.349 94.5864 66.7812 94.5864C67.7578 94.5864 68.627 94.7752 69.3887 95.1528C70.1569 95.5304 70.7493 96.0513 71.166 96.7153C71.5892 97.3794 71.8008 98.1053 71.8008 98.8931H69.916C69.916 98.0337 69.6426 97.3599 69.0957 96.8716C68.5488 96.3768 67.7773 96.1294 66.7812 96.1294C65.8568 96.1294 65.1341 96.3345 64.6133 96.7446C64.099 97.1483 63.8418 97.7114 63.8418 98.4341C63.8418 99.0135 64.0859 99.505 64.5742 99.9087C65.069 100.306 65.9056 100.67 67.084 101.002C68.2689 101.334 69.1934 101.702 69.8574 102.106C70.528 102.503 71.0228 102.969 71.3418 103.502C71.6673 104.036 71.8301 104.665 71.8301 105.387C71.8301 106.54 71.3809 107.464 70.4824 108.161C69.584 108.851 68.3828 109.196 66.8789 109.196C65.9023 109.196 64.9909 109.01 64.1445 108.639C63.2982 108.262 62.6439 107.747 62.1816 107.096C61.7259 106.445 61.498 105.706 61.498 104.879H63.3828C63.3828 105.739 63.6986 106.419 64.3301 106.92C64.9681 107.415 65.8177 107.663 66.8789 107.663C67.8685 107.663 68.627 107.461 69.1543 107.057C69.6816 106.653 69.9453 106.103 69.9453 105.407C69.9453 104.71 69.7012 104.173 69.2129 103.795C68.7246 103.411 67.8392 103.034 66.5566 102.663ZM73.4805 103.62C73.4805 102.584 73.6823 101.653 74.0859 100.827C74.4961 99.9998 75.0625 99.3618 75.7852 98.9126C76.5143 98.4634 77.3444 98.2388 78.2754 98.2388C79.7142 98.2388 80.8763 98.7368 81.7617 99.7329C82.6536 100.729 83.0996 102.054 83.0996 103.708V103.834C83.0996 104.863 82.901 105.788 82.5039 106.608C82.1133 107.422 81.5501 108.056 80.8145 108.512C80.0853 108.968 79.2454 109.196 78.2949 109.196C76.8626 109.196 75.7005 108.698 74.8086 107.702C73.9232 106.706 73.4805 105.387 73.4805 103.747V103.62ZM75.2969 103.834C75.2969 105.006 75.5671 105.947 76.1074 106.657C76.6543 107.366 77.3835 107.721 78.2949 107.721C79.2129 107.721 79.9421 107.363 80.4824 106.647C81.0228 105.924 81.293 104.915 81.293 103.62C81.293 102.461 81.0163 101.523 80.4629 100.807C79.916 100.084 79.1868 99.7231 78.2754 99.7231C77.3835 99.7231 76.6641 100.078 76.1172 100.788C75.5703 101.497 75.2969 102.513 75.2969 103.834ZM87.3281 109H85.5215V94.0005H87.3281V109ZM96.752 107.956C96.0488 108.782 95.0169 109.196 93.6562 109.196C92.5299 109.196 91.6706 108.87 91.0781 108.219C90.4922 107.562 90.196 106.592 90.1895 105.309V98.4341H91.9961V105.26C91.9961 106.862 92.6471 107.663 93.9492 107.663C95.3294 107.663 96.2474 107.148 96.7031 106.12V98.4341H98.5098V109H96.791L96.752 107.956ZM103.715 95.8755V98.4341H105.688V99.8306H103.715V106.383C103.715 106.806 103.803 107.125 103.979 107.34C104.154 107.549 104.454 107.653 104.877 107.653C105.085 107.653 105.372 107.614 105.736 107.536V109C105.261 109.131 104.799 109.196 104.35 109.196C103.542 109.196 102.934 108.952 102.523 108.463C102.113 107.975 101.908 107.282 101.908 106.383V99.8306H99.9844V98.4341H101.908V95.8755H103.715ZM109.77 109H107.963V98.4341H109.77V109ZM107.816 95.6313C107.816 95.3384 107.904 95.091 108.08 94.8892C108.262 94.6873 108.529 94.5864 108.881 94.5864C109.232 94.5864 109.499 94.6873 109.682 94.8892C109.864 95.091 109.955 95.3384 109.955 95.6313C109.955 95.9243 109.864 96.1685 109.682 96.3638C109.499 96.5591 109.232 96.6567 108.881 96.6567C108.529 96.6567 108.262 96.5591 108.08 96.3638C107.904 96.1685 107.816 95.9243 107.816 95.6313ZM112.191 103.62C112.191 102.584 112.393 101.653 112.797 100.827C113.207 99.9998 113.773 99.3618 114.496 98.9126C115.225 98.4634 116.055 98.2388 116.986 98.2388C118.425 98.2388 119.587 98.7368 120.473 99.7329C121.365 100.729 121.811 102.054 121.811 103.708V103.834C121.811 104.863 121.612 105.788 121.215 106.608C120.824 107.422 120.261 108.056 119.525 108.512C118.796 108.968 117.956 109.196 117.006 109.196C115.574 109.196 114.411 108.698 113.52 107.702C112.634 106.706 112.191 105.387 112.191 103.747V103.62ZM114.008 103.834C114.008 105.006 114.278 105.947 114.818 106.657C115.365 107.366 116.094 107.721 117.006 107.721C117.924 107.721 118.653 107.363 119.193 106.647C119.734 105.924 120.004 104.915 120.004 103.62C120.004 102.461 119.727 101.523 119.174 100.807C118.627 100.084 117.898 99.7231 116.986 99.7231C116.094 99.7231 115.375 100.078 114.828 100.788C114.281 101.497 114.008 102.513 114.008 103.834ZM125.785 98.4341L125.844 99.7622C126.651 98.7466 127.706 98.2388 129.008 98.2388C131.241 98.2388 132.367 99.4985 132.387 102.018V109H130.58V102.008C130.574 101.247 130.398 100.683 130.053 100.319C129.714 99.9543 129.184 99.772 128.461 99.772C127.875 99.772 127.361 99.9282 126.918 100.241C126.475 100.553 126.13 100.963 125.883 101.471V109H124.076V98.4341H125.785ZM141.264 106.198C141.264 105.709 141.078 105.332 140.707 105.065C140.342 104.792 139.701 104.557 138.783 104.362C137.872 104.167 137.146 103.932 136.605 103.659C136.072 103.385 135.674 103.06 135.414 102.682C135.16 102.305 135.033 101.855 135.033 101.334C135.033 100.469 135.398 99.7362 136.127 99.1372C136.863 98.5382 137.8 98.2388 138.939 98.2388C140.137 98.2388 141.107 98.548 141.85 99.1665C142.598 99.785 142.973 100.576 142.973 101.54H141.156C141.156 101.045 140.945 100.618 140.521 100.26C140.105 99.9022 139.577 99.7231 138.939 99.7231C138.282 99.7231 137.768 99.8664 137.396 100.153C137.025 100.439 136.84 100.814 136.84 101.276C136.84 101.712 137.012 102.041 137.357 102.262C137.702 102.484 138.324 102.695 139.223 102.897C140.128 103.099 140.86 103.34 141.42 103.62C141.98 103.9 142.393 104.238 142.66 104.635C142.934 105.026 143.07 105.504 143.07 106.071C143.07 107.015 142.693 107.773 141.938 108.346C141.182 108.913 140.202 109.196 138.998 109.196C138.152 109.196 137.403 109.046 136.752 108.747C136.101 108.447 135.59 108.03 135.219 107.497C134.854 106.956 134.672 106.374 134.672 105.749H136.479C136.511 106.354 136.752 106.836 137.201 107.194C137.657 107.545 138.256 107.721 138.998 107.721C139.682 107.721 140.229 107.584 140.639 107.311C141.055 107.031 141.264 106.66 141.264 106.198ZM152.836 95.8755V98.4341H154.809V99.8306H152.836V106.383C152.836 106.806 152.924 107.125 153.1 107.34C153.275 107.549 153.575 107.653 153.998 107.653C154.206 107.653 154.493 107.614 154.857 107.536V109C154.382 109.131 153.92 109.196 153.471 109.196C152.663 109.196 152.055 108.952 151.645 108.463C151.234 107.975 151.029 107.282 151.029 106.383V99.8306H149.105V98.4341H151.029V95.8755H152.836ZM156.254 103.62C156.254 102.584 156.456 101.653 156.859 100.827C157.27 99.9998 157.836 99.3618 158.559 98.9126C159.288 98.4634 160.118 98.2388 161.049 98.2388C162.488 98.2388 163.65 98.7368 164.535 99.7329C165.427 100.729 165.873 102.054 165.873 103.708V103.834C165.873 104.863 165.674 105.788 165.277 106.608C164.887 107.422 164.324 108.056 163.588 108.512C162.859 108.968 162.019 109.196 161.068 109.196C159.636 109.196 158.474 108.698 157.582 107.702C156.697 106.706 156.254 105.387 156.254 103.747V103.62ZM158.07 103.834C158.07 105.006 158.34 105.947 158.881 106.657C159.428 107.366 160.157 107.721 161.068 107.721C161.986 107.721 162.715 107.363 163.256 106.647C163.796 105.924 164.066 104.915 164.066 103.62C164.066 102.461 163.79 101.523 163.236 100.807C162.689 100.084 161.96 99.7231 161.049 99.7231C160.157 99.7231 159.438 100.078 158.891 100.788C158.344 101.497 158.07 102.513 158.07 103.834ZM26.1074 126.229C26.1074 124.758 26.3027 123.345 26.6934 121.991C27.0905 120.637 27.6797 119.406 28.4609 118.299C29.2422 117.193 30.0527 116.411 30.8926 115.956L31.2637 117.147C30.3132 117.876 29.5319 118.989 28.9199 120.487C28.3145 121.984 27.9824 123.661 27.9238 125.516L27.9141 126.346C27.9141 128.859 28.373 131.04 29.291 132.889C29.8444 133.996 30.502 134.862 31.2637 135.487L30.8926 136.59C30.0267 136.109 29.1999 135.301 28.4121 134.168C26.8757 131.955 26.1074 129.308 26.1074 126.229ZM39.1641 129.198C39.1641 128.709 38.9785 128.332 38.6074 128.065C38.2428 127.792 37.6016 127.557 36.6836 127.362C35.7721 127.167 35.0462 126.932 34.5059 126.659C33.972 126.385 33.5749 126.06 33.3145 125.682C33.0605 125.305 32.9336 124.855 32.9336 124.334C32.9336 123.469 33.2982 122.736 34.0273 122.137C34.763 121.538 35.7005 121.239 36.8398 121.239C38.0378 121.239 39.0078 121.548 39.75 122.167C40.4987 122.785 40.873 123.576 40.873 124.54H39.0566C39.0566 124.045 38.8451 123.618 38.4219 123.26C38.0052 122.902 37.4779 122.723 36.8398 122.723C36.1823 122.723 35.668 122.866 35.2969 123.153C34.9258 123.439 34.7402 123.814 34.7402 124.276C34.7402 124.712 34.9128 125.041 35.2578 125.262C35.6029 125.484 36.2246 125.695 37.123 125.897C38.028 126.099 38.7604 126.34 39.3203 126.62C39.8802 126.9 40.2936 127.238 40.5605 127.635C40.834 128.026 40.9707 128.504 40.9707 129.071C40.9707 130.015 40.5931 130.773 39.8379 131.346C39.0827 131.913 38.1029 132.196 36.8984 132.196C36.0521 132.196 35.3034 132.046 34.6523 131.747C34.0013 131.447 33.4902 131.03 33.1191 130.497C32.7546 129.956 32.5723 129.374 32.5723 128.749H34.3789C34.4115 129.354 34.6523 129.836 35.1016 130.194C35.5573 130.545 36.1562 130.721 36.8984 130.721C37.582 130.721 38.1289 130.584 38.5391 130.311C38.9557 130.031 39.1641 129.66 39.1641 129.198ZM47.709 132.196C46.2767 132.196 45.1113 131.727 44.2129 130.79C43.3145 129.846 42.8652 128.586 42.8652 127.01V126.678C42.8652 125.63 43.0638 124.696 43.4609 123.875C43.8646 123.049 44.4245 122.404 45.1406 121.942C45.8633 121.473 46.6445 121.239 47.4844 121.239C48.8581 121.239 49.9258 121.691 50.6875 122.596C51.4492 123.501 51.8301 124.797 51.8301 126.483V127.235H44.6719C44.6979 128.277 45.0007 129.12 45.5801 129.764C46.166 130.402 46.9082 130.721 47.8066 130.721C48.4447 130.721 48.985 130.591 49.4277 130.331C49.8704 130.07 50.2578 129.725 50.5898 129.295L51.6934 130.155C50.8079 131.515 49.4798 132.196 47.709 132.196ZM47.4844 122.723C46.7552 122.723 46.1432 122.99 45.6484 123.524C45.1536 124.051 44.8477 124.793 44.7305 125.75H50.0234V125.614C49.9714 124.696 49.724 123.986 49.2812 123.485C48.8385 122.977 48.2396 122.723 47.4844 122.723ZM58.168 130.721C58.8125 130.721 59.3757 130.526 59.8574 130.135C60.3392 129.745 60.6061 129.256 60.6582 128.67H62.3672C62.3346 129.276 62.1263 129.852 61.7422 130.399C61.3581 130.946 60.8438 131.382 60.1992 131.708C59.5612 132.033 58.8841 132.196 58.168 132.196C56.7292 132.196 55.5833 131.717 54.7305 130.76C53.8841 129.797 53.4609 128.482 53.4609 126.815V126.512C53.4609 125.484 53.6497 124.569 54.0273 123.768C54.4049 122.967 54.9453 122.346 55.6484 121.903C56.3581 121.46 57.1947 121.239 58.1582 121.239C59.3431 121.239 60.3262 121.594 61.1074 122.303C61.8952 123.013 62.3151 123.934 62.3672 125.067H60.6582C60.6061 124.383 60.3457 123.823 59.877 123.387C59.4147 122.944 58.8418 122.723 58.1582 122.723C57.2402 122.723 56.5273 123.055 56.0195 123.719C55.5182 124.377 55.2676 125.331 55.2676 126.581V126.922C55.2676 128.14 55.5182 129.077 56.0195 129.735C56.5208 130.392 57.237 130.721 58.168 130.721ZM63.9199 126.62C63.9199 125.584 64.1217 124.653 64.5254 123.827C64.9355 123 65.502 122.362 66.2246 121.913C66.9538 121.463 67.7839 121.239 68.7148 121.239C70.1536 121.239 71.3158 121.737 72.2012 122.733C73.0931 123.729 73.5391 125.054 73.5391 126.708V126.834C73.5391 127.863 73.3405 128.788 72.9434 129.608C72.5527 130.422 71.9896 131.056 71.2539 131.512C70.5247 131.968 69.6849 132.196 68.7344 132.196C67.3021 132.196 66.14 131.698 65.248 130.702C64.3626 129.706 63.9199 128.387 63.9199 126.747V126.62ZM65.7363 126.834C65.7363 128.006 66.0065 128.947 66.5469 129.657C67.0938 130.366 67.8229 130.721 68.7344 130.721C69.6523 130.721 70.3815 130.363 70.9219 129.647C71.4622 128.924 71.7324 127.915 71.7324 126.62C71.7324 125.461 71.4557 124.523 70.9023 123.807C70.3555 123.084 69.6263 122.723 68.7148 122.723C67.8229 122.723 67.1035 123.078 66.5566 123.788C66.0098 124.497 65.7363 125.513 65.7363 126.834ZM77.5137 121.434L77.5723 122.762C78.3796 121.747 79.4342 121.239 80.7363 121.239C82.9694 121.239 84.0957 122.499 84.1152 125.018V132H82.3086V125.008C82.3021 124.247 82.1263 123.683 81.7812 123.319C81.4427 122.954 80.9121 122.772 80.1895 122.772C79.6035 122.772 79.0892 122.928 78.6465 123.241C78.2038 123.553 77.8587 123.963 77.6113 124.471V132H75.8047V121.434H77.5137ZM86.4004 126.629C86.4004 125.008 86.7845 123.706 87.5527 122.723C88.321 121.734 89.3268 121.239 90.5703 121.239C91.8073 121.239 92.7871 121.662 93.5098 122.508V117H95.3164V132H93.6562L93.5684 130.868C92.8457 131.753 91.8398 132.196 90.5508 132.196C89.3268 132.196 88.3275 131.694 87.5527 130.692C86.7845 129.689 86.4004 128.381 86.4004 126.766V126.629ZM88.207 126.834C88.207 128.032 88.4544 128.97 88.9492 129.647C89.444 130.324 90.1276 130.663 91 130.663C92.1458 130.663 92.9824 130.148 93.5098 129.12V124.266C92.9694 123.27 92.1393 122.772 91.0195 122.772C90.1341 122.772 89.444 123.114 88.9492 123.797C88.4544 124.481 88.207 125.493 88.207 126.834ZM108.197 123.055C107.924 123.01 107.628 122.987 107.309 122.987C106.124 122.987 105.32 123.491 104.896 124.5V132H103.09V121.434H104.848L104.877 122.655C105.469 121.711 106.309 121.239 107.396 121.239C107.748 121.239 108.015 121.284 108.197 121.375V123.055ZM109.193 126.62C109.193 125.584 109.395 124.653 109.799 123.827C110.209 123 110.775 122.362 111.498 121.913C112.227 121.463 113.057 121.239 113.988 121.239C115.427 121.239 116.589 121.737 117.475 122.733C118.367 123.729 118.812 125.054 118.812 126.708V126.834C118.812 127.863 118.614 128.788 118.217 129.608C117.826 130.422 117.263 131.056 116.527 131.512C115.798 131.968 114.958 132.196 114.008 132.196C112.576 132.196 111.413 131.698 110.521 130.702C109.636 129.706 109.193 128.387 109.193 126.747V126.62ZM111.01 126.834C111.01 128.006 111.28 128.947 111.82 129.657C112.367 130.366 113.096 130.721 114.008 130.721C114.926 130.721 115.655 130.363 116.195 129.647C116.736 128.924 117.006 127.915 117.006 126.62C117.006 125.461 116.729 124.523 116.176 123.807C115.629 123.084 114.9 122.723 113.988 122.723C113.096 122.723 112.377 123.078 111.83 123.788C111.283 124.497 111.01 125.513 111.01 126.834ZM130.434 129.51L132.465 121.434H134.271L131.195 132H129.73L127.162 123.993L124.662 132H123.197L120.131 121.434H121.928L124.008 129.344L126.469 121.434H127.924L130.434 129.51ZM134.848 134.833L133.822 134.129C134.434 133.277 134.753 132.398 134.779 131.493V129.862H136.547V131.278C136.547 131.935 136.384 132.593 136.059 133.25C135.74 133.908 135.336 134.435 134.848 134.833ZM149.945 129.198C149.945 128.709 149.76 128.332 149.389 128.065C149.024 127.792 148.383 127.557 147.465 127.362C146.553 127.167 145.827 126.932 145.287 126.659C144.753 126.385 144.356 126.06 144.096 125.682C143.842 125.305 143.715 124.855 143.715 124.334C143.715 123.469 144.079 122.736 144.809 122.137C145.544 121.538 146.482 121.239 147.621 121.239C148.819 121.239 149.789 121.548 150.531 122.167C151.28 122.785 151.654 123.576 151.654 124.54H149.838C149.838 124.045 149.626 123.618 149.203 123.26C148.786 122.902 148.259 122.723 147.621 122.723C146.964 122.723 146.449 122.866 146.078 123.153C145.707 123.439 145.521 123.814 145.521 124.276C145.521 124.712 145.694 125.041 146.039 125.262C146.384 125.484 147.006 125.695 147.904 125.897C148.809 126.099 149.542 126.34 150.102 126.62C150.661 126.9 151.075 127.238 151.342 127.635C151.615 128.026 151.752 128.504 151.752 129.071C151.752 130.015 151.374 130.773 150.619 131.346C149.864 131.913 148.884 132.196 147.68 132.196C146.833 132.196 146.085 132.046 145.434 131.747C144.783 131.447 144.271 131.03 143.9 130.497C143.536 129.956 143.354 129.374 143.354 128.749H145.16C145.193 129.354 145.434 129.836 145.883 130.194C146.339 130.545 146.938 130.721 147.68 130.721C148.363 130.721 148.91 130.584 149.32 130.311C149.737 130.031 149.945 129.66 149.945 129.198ZM158.49 132.196C157.058 132.196 155.893 131.727 154.994 130.79C154.096 129.846 153.646 128.586 153.646 127.01V126.678C153.646 125.63 153.845 124.696 154.242 123.875C154.646 123.049 155.206 122.404 155.922 121.942C156.645 121.473 157.426 121.239 158.266 121.239C159.639 121.239 160.707 121.691 161.469 122.596C162.23 123.501 162.611 124.797 162.611 126.483V127.235H155.453C155.479 128.277 155.782 129.12 156.361 129.764C156.947 130.402 157.689 130.721 158.588 130.721C159.226 130.721 159.766 130.591 160.209 130.331C160.652 130.07 161.039 129.725 161.371 129.295L162.475 130.155C161.589 131.515 160.261 132.196 158.49 132.196ZM158.266 122.723C157.536 122.723 156.924 122.99 156.43 123.524C155.935 124.051 155.629 124.793 155.512 125.75H160.805V125.614C160.753 124.696 160.505 123.986 160.062 123.485C159.62 122.977 159.021 122.723 158.266 122.723ZM168.949 130.721C169.594 130.721 170.157 130.526 170.639 130.135C171.12 129.745 171.387 129.256 171.439 128.67H173.148C173.116 129.276 172.908 129.852 172.523 130.399C172.139 130.946 171.625 131.382 170.98 131.708C170.342 132.033 169.665 132.196 168.949 132.196C167.51 132.196 166.365 131.717 165.512 130.76C164.665 129.797 164.242 128.482 164.242 126.815V126.512C164.242 125.484 164.431 124.569 164.809 123.768C165.186 122.967 165.727 122.346 166.43 121.903C167.139 121.46 167.976 121.239 168.939 121.239C170.124 121.239 171.107 121.594 171.889 122.303C172.676 123.013 173.096 123.934 173.148 125.067H171.439C171.387 124.383 171.127 123.823 170.658 123.387C170.196 122.944 169.623 122.723 168.939 122.723C168.021 122.723 167.309 123.055 166.801 123.719C166.299 124.377 166.049 125.331 166.049 126.581V126.922C166.049 128.14 166.299 129.077 166.801 129.735C167.302 130.392 168.018 130.721 168.949 130.721ZM174.701 126.62C174.701 125.584 174.903 124.653 175.307 123.827C175.717 123 176.283 122.362 177.006 121.913C177.735 121.463 178.565 121.239 179.496 121.239C180.935 121.239 182.097 121.737 182.982 122.733C183.874 123.729 184.32 125.054 184.32 126.708V126.834C184.32 127.863 184.122 128.788 183.725 129.608C183.334 130.422 182.771 131.056 182.035 131.512C181.306 131.968 180.466 132.196 179.516 132.196C178.083 132.196 176.921 131.698 176.029 130.702C175.144 129.706 174.701 128.387 174.701 126.747V126.62ZM176.518 126.834C176.518 128.006 176.788 128.947 177.328 129.657C177.875 130.366 178.604 130.721 179.516 130.721C180.434 130.721 181.163 130.363 181.703 129.647C182.243 128.924 182.514 127.915 182.514 126.62C182.514 125.461 182.237 124.523 181.684 123.807C181.137 123.084 180.408 122.723 179.496 122.723C178.604 122.723 177.885 123.078 177.338 123.788C176.791 124.497 176.518 125.513 176.518 126.834ZM188.295 121.434L188.354 122.762C189.161 121.747 190.215 121.239 191.518 121.239C193.751 121.239 194.877 122.499 194.896 125.018V132H193.09V125.008C193.083 124.247 192.908 123.683 192.562 123.319C192.224 122.954 191.693 122.772 190.971 122.772C190.385 122.772 189.87 122.928 189.428 123.241C188.985 123.553 188.64 123.963 188.393 124.471V132H186.586V121.434H188.295ZM197.182 126.629C197.182 125.008 197.566 123.706 198.334 122.723C199.102 121.734 200.108 121.239 201.352 121.239C202.589 121.239 203.568 121.662 204.291 122.508V117H206.098V132H204.438L204.35 130.868C203.627 131.753 202.621 132.196 201.332 132.196C200.108 132.196 199.109 131.694 198.334 130.692C197.566 129.689 197.182 128.381 197.182 126.766V126.629ZM198.988 126.834C198.988 128.032 199.236 128.97 199.73 129.647C200.225 130.324 200.909 130.663 201.781 130.663C202.927 130.663 203.764 130.148 204.291 129.12V124.266C203.751 123.27 202.921 122.772 201.801 122.772C200.915 122.772 200.225 123.114 199.73 123.797C199.236 124.481 198.988 125.493 198.988 126.834ZM218.256 132.196C216.824 132.196 215.658 131.727 214.76 130.79C213.861 129.846 213.412 128.586 213.412 127.01V126.678C213.412 125.63 213.611 124.696 214.008 123.875C214.411 123.049 214.971 122.404 215.688 121.942C216.41 121.473 217.191 121.239 218.031 121.239C219.405 121.239 220.473 121.691 221.234 122.596C221.996 123.501 222.377 124.797 222.377 126.483V127.235H215.219C215.245 128.277 215.548 129.12 216.127 129.764C216.713 130.402 217.455 130.721 218.354 130.721C218.992 130.721 219.532 130.591 219.975 130.331C220.417 130.07 220.805 129.725 221.137 129.295L222.24 130.155C221.355 131.515 220.027 132.196 218.256 132.196ZM218.031 122.723C217.302 122.723 216.69 122.99 216.195 123.524C215.701 124.051 215.395 124.793 215.277 125.75H220.57V125.614C220.518 124.696 220.271 123.986 219.828 123.485C219.385 122.977 218.786 122.723 218.031 122.723ZM224.037 126.629C224.037 124.969 224.418 123.657 225.18 122.694C225.941 121.724 226.964 121.239 228.246 121.239C229.496 121.239 230.482 121.659 231.205 122.499L231.283 121.434H232.943V136.063H231.137V131.024C230.408 131.805 229.438 132.196 228.227 132.196C226.951 132.196 225.932 131.701 225.17 130.711C224.415 129.715 224.037 128.397 224.037 126.756V126.629ZM225.844 126.834C225.844 128.045 226.098 128.996 226.605 129.686C227.12 130.376 227.81 130.721 228.676 130.721C229.75 130.721 230.57 130.246 231.137 129.295V124.12C230.564 123.189 229.75 122.723 228.695 122.723C227.823 122.723 227.13 123.071 226.615 123.768C226.101 124.458 225.844 125.48 225.844 126.834ZM242.367 130.956C241.664 131.782 240.632 132.196 239.271 132.196C238.145 132.196 237.286 131.87 236.693 131.219C236.107 130.562 235.811 129.592 235.805 128.309V121.434H237.611V128.26C237.611 129.862 238.262 130.663 239.564 130.663C240.945 130.663 241.863 130.148 242.318 129.12V121.434H244.125V132H242.406L242.367 130.956ZM253.402 132C253.298 131.792 253.214 131.421 253.148 130.887C252.309 131.76 251.306 132.196 250.141 132.196C249.099 132.196 248.243 131.903 247.572 131.317C246.908 130.724 246.576 129.976 246.576 129.071C246.576 127.971 246.993 127.118 247.826 126.512C248.666 125.9 249.844 125.594 251.361 125.594H253.119V124.764C253.119 124.133 252.93 123.631 252.553 123.26C252.175 122.883 251.618 122.694 250.883 122.694C250.238 122.694 249.698 122.857 249.262 123.182C248.826 123.508 248.607 123.902 248.607 124.364H246.791C246.791 123.836 246.977 123.329 247.348 122.84C247.725 122.346 248.233 121.955 248.871 121.668C249.516 121.382 250.222 121.239 250.99 121.239C252.208 121.239 253.161 121.545 253.852 122.157C254.542 122.762 254.9 123.599 254.926 124.667V129.53C254.926 130.5 255.049 131.271 255.297 131.844V132H253.402ZM250.404 130.624C250.971 130.624 251.508 130.477 252.016 130.184C252.523 129.891 252.891 129.51 253.119 129.042V126.874H251.703C249.49 126.874 248.383 127.521 248.383 128.817C248.383 129.383 248.572 129.826 248.949 130.145C249.327 130.464 249.812 130.624 250.404 130.624ZM260.209 118.875V121.434H262.182V122.831H260.209V129.383C260.209 129.806 260.297 130.125 260.473 130.34C260.648 130.549 260.948 130.653 261.371 130.653C261.579 130.653 261.866 130.614 262.23 130.536V132C261.755 132.131 261.293 132.196 260.844 132.196C260.036 132.196 259.428 131.952 259.018 131.463C258.607 130.975 258.402 130.282 258.402 129.383V122.831H256.479V121.434H258.402V118.875H260.209ZM266.264 132H264.457V121.434H266.264V132ZM264.311 118.631C264.311 118.338 264.398 118.091 264.574 117.889C264.757 117.687 265.023 117.586 265.375 117.586C265.727 117.586 265.993 117.687 266.176 117.889C266.358 118.091 266.449 118.338 266.449 118.631C266.449 118.924 266.358 119.168 266.176 119.364C265.993 119.559 265.727 119.657 265.375 119.657C265.023 119.657 264.757 119.559 264.574 119.364C264.398 119.168 264.311 118.924 264.311 118.631ZM268.686 126.62C268.686 125.584 268.887 124.653 269.291 123.827C269.701 123 270.268 122.362 270.99 121.913C271.719 121.463 272.549 121.239 273.48 121.239C274.919 121.239 276.081 121.737 276.967 122.733C277.859 123.729 278.305 125.054 278.305 126.708V126.834C278.305 127.863 278.106 128.788 277.709 129.608C277.318 130.422 276.755 131.056 276.02 131.512C275.29 131.968 274.451 132.196 273.5 132.196C272.068 132.196 270.906 131.698 270.014 130.702C269.128 129.706 268.686 128.387 268.686 126.747V126.62ZM270.502 126.834C270.502 128.006 270.772 128.947 271.312 129.657C271.859 130.366 272.589 130.721 273.5 130.721C274.418 130.721 275.147 130.363 275.688 129.647C276.228 128.924 276.498 127.915 276.498 126.62C276.498 125.461 276.221 124.523 275.668 123.807C275.121 123.084 274.392 122.723 273.48 122.723C272.589 122.723 271.869 123.078 271.322 123.788C270.775 124.497 270.502 125.513 270.502 126.834ZM282.279 121.434L282.338 122.762C283.145 121.747 284.2 121.239 285.502 121.239C287.735 121.239 288.861 122.499 288.881 125.018V132H287.074V125.008C287.068 124.247 286.892 123.683 286.547 123.319C286.208 122.954 285.678 122.772 284.955 122.772C284.369 122.772 283.855 122.928 283.412 123.241C282.969 123.553 282.624 123.963 282.377 124.471V132H280.57V121.434H282.279ZM295.775 126.327C295.775 127.778 295.583 129.172 295.199 130.506C294.822 131.834 294.239 133.062 293.451 134.188C292.67 135.314 291.85 136.115 290.99 136.59L290.609 135.487C291.612 134.719 292.416 133.527 293.021 131.913C293.633 130.292 293.946 128.495 293.959 126.522V126.209C293.959 124.842 293.816 123.573 293.529 122.401C293.243 121.222 292.842 120.168 292.328 119.237C291.82 118.306 291.247 117.58 290.609 117.059L290.99 115.956C291.85 116.431 292.667 117.225 293.441 118.338C294.223 119.452 294.805 120.679 295.189 122.02C295.58 123.361 295.775 124.797 295.775 126.327Z" fill="#00DCFF"/>
<path d="M358.602 277.324H354.031V290H352.166V277.324H347.605V275.781H358.602V277.324ZM362.234 280.713C363.035 279.73 364.077 279.238 365.359 279.238C367.592 279.238 368.719 280.498 368.738 283.018V290H366.932V283.008C366.925 282.246 366.749 281.683 366.404 281.318C366.066 280.954 365.535 280.771 364.812 280.771C364.227 280.771 363.712 280.928 363.27 281.24C362.827 281.553 362.482 281.963 362.234 282.471V290H360.428V275H362.234V280.713ZM373.406 290H371.6V279.434H373.406V290ZM371.453 276.631C371.453 276.338 371.541 276.09 371.717 275.889C371.899 275.687 372.166 275.586 372.518 275.586C372.869 275.586 373.136 275.687 373.318 275.889C373.501 276.09 373.592 276.338 373.592 276.631C373.592 276.924 373.501 277.168 373.318 277.363C373.136 277.559 372.869 277.656 372.518 277.656C372.166 277.656 371.899 277.559 371.717 277.363C371.541 277.168 371.453 276.924 371.453 276.631ZM382.459 287.197C382.459 286.709 382.273 286.331 381.902 286.064C381.538 285.791 380.896 285.557 379.979 285.361C379.067 285.166 378.341 284.932 377.801 284.658C377.267 284.385 376.87 284.059 376.609 283.682C376.355 283.304 376.229 282.855 376.229 282.334C376.229 281.468 376.593 280.736 377.322 280.137C378.058 279.538 378.995 279.238 380.135 279.238C381.333 279.238 382.303 279.548 383.045 280.166C383.794 280.785 384.168 281.576 384.168 282.539H382.352C382.352 282.044 382.14 281.618 381.717 281.26C381.3 280.902 380.773 280.723 380.135 280.723C379.477 280.723 378.963 280.866 378.592 281.152C378.221 281.439 378.035 281.813 378.035 282.275C378.035 282.712 378.208 283.04 378.553 283.262C378.898 283.483 379.52 283.695 380.418 283.896C381.323 284.098 382.055 284.339 382.615 284.619C383.175 284.899 383.589 285.238 383.855 285.635C384.129 286.025 384.266 286.504 384.266 287.07C384.266 288.014 383.888 288.773 383.133 289.346C382.378 289.912 381.398 290.195 380.193 290.195C379.347 290.195 378.598 290.046 377.947 289.746C377.296 289.447 376.785 289.03 376.414 288.496C376.049 287.956 375.867 287.373 375.867 286.748H377.674C377.706 287.354 377.947 287.835 378.396 288.193C378.852 288.545 379.451 288.721 380.193 288.721C380.877 288.721 381.424 288.584 381.834 288.311C382.251 288.031 382.459 287.66 382.459 287.197ZM393.543 290H391.736V279.434H393.543V290ZM391.59 276.631C391.59 276.338 391.678 276.09 391.854 275.889C392.036 275.687 392.303 275.586 392.654 275.586C393.006 275.586 393.273 275.687 393.455 275.889C393.637 276.09 393.729 276.338 393.729 276.631C393.729 276.924 393.637 277.168 393.455 277.363C393.273 277.559 393.006 277.656 392.654 277.656C392.303 277.656 392.036 277.559 391.854 277.363C391.678 277.168 391.59 276.924 391.59 276.631ZM402.596 287.197C402.596 286.709 402.41 286.331 402.039 286.064C401.674 285.791 401.033 285.557 400.115 285.361C399.204 285.166 398.478 284.932 397.938 284.658C397.404 284.385 397.007 284.059 396.746 283.682C396.492 283.304 396.365 282.855 396.365 282.334C396.365 281.468 396.73 280.736 397.459 280.137C398.195 279.538 399.132 279.238 400.271 279.238C401.469 279.238 402.439 279.548 403.182 280.166C403.93 280.785 404.305 281.576 404.305 282.539H402.488C402.488 282.044 402.277 281.618 401.854 281.26C401.437 280.902 400.91 280.723 400.271 280.723C399.614 280.723 399.1 280.866 398.729 281.152C398.357 281.439 398.172 281.813 398.172 282.275C398.172 282.712 398.344 283.04 398.689 283.262C399.035 283.483 399.656 283.695 400.555 283.896C401.46 284.098 402.192 284.339 402.752 284.619C403.312 284.899 403.725 285.238 403.992 285.635C404.266 286.025 404.402 286.504 404.402 287.07C404.402 288.014 404.025 288.773 403.27 289.346C402.514 289.912 401.535 290.195 400.33 290.195C399.484 290.195 398.735 290.046 398.084 289.746C397.433 289.447 396.922 289.03 396.551 288.496C396.186 287.956 396.004 287.373 396.004 286.748H397.811C397.843 287.354 398.084 287.835 398.533 288.193C398.989 288.545 399.588 288.721 400.33 288.721C401.014 288.721 401.561 288.584 401.971 288.311C402.387 288.031 402.596 287.66 402.596 287.197ZM414.168 276.875V279.434H416.141V280.83H414.168V287.383C414.168 287.806 414.256 288.125 414.432 288.34C414.607 288.548 414.907 288.652 415.33 288.652C415.538 288.652 415.825 288.613 416.189 288.535V290C415.714 290.13 415.252 290.195 414.803 290.195C413.995 290.195 413.387 289.951 412.977 289.463C412.566 288.975 412.361 288.281 412.361 287.383V280.83H410.438V279.434H412.361V276.875H414.168ZM420.066 280.713C420.867 279.73 421.909 279.238 423.191 279.238C425.424 279.238 426.551 280.498 426.57 283.018V290H424.764V283.008C424.757 282.246 424.581 281.683 424.236 281.318C423.898 280.954 423.367 280.771 422.645 280.771C422.059 280.771 421.544 280.928 421.102 281.24C420.659 281.553 420.314 281.963 420.066 282.471V290H418.26V275H420.066V280.713ZM433.66 290.195C432.228 290.195 431.062 289.727 430.164 288.789C429.266 287.845 428.816 286.585 428.816 285.01V284.678C428.816 283.63 429.015 282.695 429.412 281.875C429.816 281.048 430.376 280.404 431.092 279.941C431.814 279.473 432.596 279.238 433.436 279.238C434.809 279.238 435.877 279.691 436.639 280.596C437.4 281.501 437.781 282.796 437.781 284.482V285.234H430.623C430.649 286.276 430.952 287.119 431.531 287.764C432.117 288.402 432.859 288.721 433.758 288.721C434.396 288.721 434.936 288.59 435.379 288.33C435.822 288.07 436.209 287.725 436.541 287.295L437.645 288.154C436.759 289.515 435.431 290.195 433.66 290.195ZM433.436 280.723C432.706 280.723 432.094 280.99 431.6 281.523C431.105 282.051 430.799 282.793 430.682 283.75H435.975V283.613C435.923 282.695 435.675 281.986 435.232 281.484C434.79 280.977 434.191 280.723 433.436 280.723ZM451.365 290C451.261 289.792 451.176 289.421 451.111 288.887C450.271 289.759 449.269 290.195 448.104 290.195C447.062 290.195 446.206 289.902 445.535 289.316C444.871 288.724 444.539 287.975 444.539 287.07C444.539 285.97 444.956 285.117 445.789 284.512C446.629 283.9 447.807 283.594 449.324 283.594H451.082V282.764C451.082 282.132 450.893 281.631 450.516 281.26C450.138 280.882 449.581 280.693 448.846 280.693C448.201 280.693 447.661 280.856 447.225 281.182C446.788 281.507 446.57 281.901 446.57 282.363H444.754C444.754 281.836 444.939 281.328 445.311 280.84C445.688 280.345 446.196 279.954 446.834 279.668C447.479 279.382 448.185 279.238 448.953 279.238C450.171 279.238 451.124 279.544 451.814 280.156C452.505 280.762 452.863 281.598 452.889 282.666V287.529C452.889 288.499 453.012 289.271 453.26 289.844V290H451.365ZM448.367 288.623C448.934 288.623 449.471 288.477 449.979 288.184C450.486 287.891 450.854 287.51 451.082 287.041V284.873H449.666C447.452 284.873 446.346 285.521 446.346 286.816C446.346 287.383 446.535 287.826 446.912 288.145C447.29 288.464 447.775 288.623 448.367 288.623ZM457.684 290H455.877V275H457.684V290ZM462.547 290H460.74V275H462.547V290ZM474.168 284.697H469.402V283.223H474.168V284.697ZM482.859 290H481.053V279.434H482.859V290ZM480.906 276.631C480.906 276.338 480.994 276.09 481.17 275.889C481.352 275.687 481.619 275.586 481.971 275.586C482.322 275.586 482.589 275.687 482.771 275.889C482.954 276.09 483.045 276.338 483.045 276.631C483.045 276.924 482.954 277.168 482.771 277.363C482.589 277.559 482.322 277.656 481.971 277.656C481.619 277.656 481.352 277.559 481.17 277.363C480.994 277.168 480.906 276.924 480.906 276.631ZM487.459 279.434L487.508 280.605C488.283 279.694 489.327 279.238 490.643 279.238C492.12 279.238 493.126 279.805 493.66 280.938C494.012 280.43 494.467 280.02 495.027 279.707C495.594 279.395 496.261 279.238 497.029 279.238C499.347 279.238 500.525 280.465 500.564 282.92V290H498.758V283.027C498.758 282.272 498.585 281.709 498.24 281.338C497.895 280.96 497.316 280.771 496.502 280.771C495.831 280.771 495.275 280.973 494.832 281.377C494.389 281.774 494.132 282.311 494.061 282.988V290H492.244V283.076C492.244 281.54 491.492 280.771 489.988 280.771C488.803 280.771 487.993 281.276 487.557 282.285V290H485.75V279.434H487.459ZM512.225 284.834C512.225 286.442 511.857 287.738 511.121 288.721C510.385 289.704 509.389 290.195 508.133 290.195C506.85 290.195 505.841 289.788 505.105 288.975V294.062H503.299V279.434H504.949L505.037 280.605C505.773 279.694 506.795 279.238 508.104 279.238C509.373 279.238 510.376 279.717 511.111 280.674C511.854 281.631 512.225 282.962 512.225 284.668V284.834ZM510.418 284.629C510.418 283.438 510.164 282.497 509.656 281.807C509.148 281.117 508.452 280.771 507.566 280.771C506.473 280.771 505.652 281.257 505.105 282.227V287.275C505.646 288.239 506.473 288.721 507.586 288.721C508.452 288.721 509.139 288.379 509.646 287.695C510.161 287.005 510.418 285.983 510.418 284.629ZM514.051 284.619C514.051 283.584 514.253 282.653 514.656 281.826C515.066 280.999 515.633 280.361 516.355 279.912C517.085 279.463 517.915 279.238 518.846 279.238C520.285 279.238 521.447 279.736 522.332 280.732C523.224 281.729 523.67 283.053 523.67 284.707V284.834C523.67 285.863 523.471 286.787 523.074 287.607C522.684 288.421 522.12 289.056 521.385 289.512C520.656 289.967 519.816 290.195 518.865 290.195C517.433 290.195 516.271 289.697 515.379 288.701C514.493 287.705 514.051 286.387 514.051 284.746V284.619ZM515.867 284.834C515.867 286.006 516.137 286.947 516.678 287.656C517.225 288.366 517.954 288.721 518.865 288.721C519.783 288.721 520.512 288.363 521.053 287.646C521.593 286.924 521.863 285.915 521.863 284.619C521.863 283.46 521.587 282.523 521.033 281.807C520.486 281.084 519.757 280.723 518.846 280.723C517.954 280.723 517.234 281.077 516.688 281.787C516.141 282.497 515.867 283.512 515.867 284.834ZM531.043 281.055C530.77 281.009 530.473 280.986 530.154 280.986C528.969 280.986 528.165 281.491 527.742 282.5V290H525.936V279.434H527.693L527.723 280.654C528.315 279.71 529.155 279.238 530.242 279.238C530.594 279.238 530.861 279.284 531.043 279.375V281.055ZM535.652 276.875V279.434H537.625V280.83H535.652V287.383C535.652 287.806 535.74 288.125 535.916 288.34C536.092 288.548 536.391 288.652 536.814 288.652C537.023 288.652 537.309 288.613 537.674 288.535V290C537.199 290.13 536.736 290.195 536.287 290.195C535.48 290.195 534.871 289.951 534.461 289.463C534.051 288.975 533.846 288.281 533.846 287.383V280.83H531.922V279.434H533.846V276.875H535.652ZM546.268 290C546.163 289.792 546.079 289.421 546.014 288.887C545.174 289.759 544.171 290.195 543.006 290.195C541.964 290.195 541.108 289.902 540.438 289.316C539.773 288.724 539.441 287.975 539.441 287.07C539.441 285.97 539.858 285.117 540.691 284.512C541.531 283.9 542.71 283.594 544.227 283.594H545.984V282.764C545.984 282.132 545.796 281.631 545.418 281.26C545.04 280.882 544.484 280.693 543.748 280.693C543.104 280.693 542.563 280.856 542.127 281.182C541.691 281.507 541.473 281.901 541.473 282.363H539.656C539.656 281.836 539.842 281.328 540.213 280.84C540.59 280.345 541.098 279.954 541.736 279.668C542.381 279.382 543.087 279.238 543.855 279.238C545.073 279.238 546.027 279.544 546.717 280.156C547.407 280.762 547.765 281.598 547.791 282.666V287.529C547.791 288.499 547.915 289.271 548.162 289.844V290H546.268ZM543.27 288.623C543.836 288.623 544.373 288.477 544.881 288.184C545.389 287.891 545.757 287.51 545.984 287.041V284.873H544.568C542.355 284.873 541.248 285.521 541.248 286.816C541.248 287.383 541.437 287.826 541.814 288.145C542.192 288.464 542.677 288.623 543.27 288.623ZM552.332 279.434L552.391 280.762C553.198 279.746 554.253 279.238 555.555 279.238C557.788 279.238 558.914 280.498 558.934 283.018V290H557.127V283.008C557.12 282.246 556.945 281.683 556.6 281.318C556.261 280.954 555.73 280.771 555.008 280.771C554.422 280.771 553.908 280.928 553.465 281.24C553.022 281.553 552.677 281.963 552.43 282.471V290H550.623V279.434H552.332ZM564.109 276.875V279.434H566.082V280.83H564.109V287.383C564.109 287.806 564.197 288.125 564.373 288.34C564.549 288.548 564.848 288.652 565.271 288.652C565.48 288.652 565.766 288.613 566.131 288.535V290C565.656 290.13 565.193 290.195 564.744 290.195C563.937 290.195 563.328 289.951 562.918 289.463C562.508 288.975 562.303 288.281 562.303 287.383V280.83H560.379V279.434H562.303V276.875H564.109ZM582.088 284.834C582.088 286.442 581.72 287.738 580.984 288.721C580.249 289.704 579.253 290.195 577.996 290.195C576.714 290.195 575.704 289.788 574.969 288.975V294.062H573.162V279.434H574.812L574.9 280.605C575.636 279.694 576.658 279.238 577.967 279.238C579.236 279.238 580.239 279.717 580.975 280.674C581.717 281.631 582.088 282.962 582.088 284.668V284.834ZM580.281 284.629C580.281 283.438 580.027 282.497 579.52 281.807C579.012 281.117 578.315 280.771 577.43 280.771C576.336 280.771 575.516 281.257 574.969 282.227V287.275C575.509 288.239 576.336 288.721 577.449 288.721C578.315 288.721 579.002 288.379 579.51 287.695C580.024 287.005 580.281 285.983 580.281 284.629ZM583.914 284.619C583.914 283.584 584.116 282.653 584.52 281.826C584.93 280.999 585.496 280.361 586.219 279.912C586.948 279.463 587.778 279.238 588.709 279.238C590.148 279.238 591.31 279.736 592.195 280.732C593.087 281.729 593.533 283.053 593.533 284.707V284.834C593.533 285.863 593.335 286.787 592.938 287.607C592.547 288.421 591.984 289.056 591.248 289.512C590.519 289.967 589.679 290.195 588.729 290.195C587.296 290.195 586.134 289.697 585.242 288.701C584.357 287.705 583.914 286.387 583.914 284.746V284.619ZM585.73 284.834C585.73 286.006 586.001 286.947 586.541 287.656C587.088 288.366 587.817 288.721 588.729 288.721C589.646 288.721 590.376 288.363 590.916 287.646C591.456 286.924 591.727 285.915 591.727 284.619C591.727 283.46 591.45 282.523 590.896 281.807C590.35 281.084 589.62 280.723 588.709 280.723C587.817 280.723 587.098 281.077 586.551 281.787C586.004 282.497 585.73 283.512 585.73 284.834ZM597.762 290H595.955V279.434H597.762V290ZM595.809 276.631C595.809 276.338 595.896 276.09 596.072 275.889C596.255 275.687 596.521 275.586 596.873 275.586C597.225 275.586 597.492 275.687 597.674 275.889C597.856 276.09 597.947 276.338 597.947 276.631C597.947 276.924 597.856 277.168 597.674 277.363C597.492 277.559 597.225 277.656 596.873 277.656C596.521 277.656 596.255 277.559 596.072 277.363C595.896 277.168 595.809 276.924 595.809 276.631ZM602.371 279.434L602.43 280.762C603.237 279.746 604.292 279.238 605.594 279.238C607.827 279.238 608.953 280.498 608.973 283.018V290H607.166V283.008C607.16 282.246 606.984 281.683 606.639 281.318C606.3 280.954 605.77 280.771 605.047 280.771C604.461 280.771 603.947 280.928 603.504 281.24C603.061 281.553 602.716 281.963 602.469 282.471V290H600.662V279.434H602.371ZM614.148 276.875V279.434H616.121V280.83H614.148V287.383C614.148 287.806 614.236 288.125 614.412 288.34C614.588 288.548 614.887 288.652 615.311 288.652C615.519 288.652 615.805 288.613 616.17 288.535V290C615.695 290.13 615.232 290.195 614.783 290.195C613.976 290.195 613.367 289.951 612.957 289.463C612.547 288.975 612.342 288.281 612.342 287.383V280.83H610.418V279.434H612.342V276.875H614.148ZM390.926 299.875V302.434H392.898V303.83H390.926V310.383C390.926 310.806 391.014 311.125 391.189 311.34C391.365 311.548 391.665 311.652 392.088 311.652C392.296 311.652 392.583 311.613 392.947 311.535V313C392.472 313.13 392.01 313.195 391.561 313.195C390.753 313.195 390.145 312.951 389.734 312.463C389.324 311.975 389.119 311.281 389.119 310.383V303.83H387.195V302.434H389.119V299.875H390.926ZM396.824 303.713C397.625 302.73 398.667 302.238 399.949 302.238C402.182 302.238 403.309 303.498 403.328 306.018V313H401.521V306.008C401.515 305.246 401.339 304.683 400.994 304.318C400.656 303.954 400.125 303.771 399.402 303.771C398.816 303.771 398.302 303.928 397.859 304.24C397.417 304.553 397.072 304.963 396.824 305.471V313H395.018V298H396.824V303.713ZM412.557 313C412.452 312.792 412.368 312.421 412.303 311.887C411.463 312.759 410.46 313.195 409.295 313.195C408.253 313.195 407.397 312.902 406.727 312.316C406.062 311.724 405.73 310.975 405.73 310.07C405.73 308.97 406.147 308.117 406.98 307.512C407.82 306.9 408.999 306.594 410.516 306.594H412.273V305.764C412.273 305.132 412.085 304.631 411.707 304.26C411.329 303.882 410.773 303.693 410.037 303.693C409.393 303.693 408.852 303.856 408.416 304.182C407.98 304.507 407.762 304.901 407.762 305.363H405.945C405.945 304.836 406.131 304.328 406.502 303.84C406.88 303.345 407.387 302.954 408.025 302.668C408.67 302.382 409.376 302.238 410.145 302.238C411.362 302.238 412.316 302.544 413.006 303.156C413.696 303.762 414.054 304.598 414.08 305.666V310.529C414.08 311.499 414.204 312.271 414.451 312.844V313H412.557ZM409.559 311.623C410.125 311.623 410.662 311.477 411.17 311.184C411.678 310.891 412.046 310.51 412.273 310.041V307.873H410.857C408.644 307.873 407.537 308.521 407.537 309.816C407.537 310.383 407.726 310.826 408.104 311.145C408.481 311.464 408.966 311.623 409.559 311.623ZM419.363 299.875V302.434H421.336V303.83H419.363V310.383C419.363 310.806 419.451 311.125 419.627 311.34C419.803 311.548 420.102 311.652 420.525 311.652C420.734 311.652 421.02 311.613 421.385 311.535V313C420.91 313.13 420.447 313.195 419.998 313.195C419.191 313.195 418.582 312.951 418.172 312.463C417.762 311.975 417.557 311.281 417.557 310.383V303.83H415.633V302.434H417.557V299.875H419.363ZM430.379 313H428.572V298H430.379V313ZM435.242 313H433.436V302.434H435.242V313ZM433.289 299.631C433.289 299.338 433.377 299.09 433.553 298.889C433.735 298.687 434.002 298.586 434.354 298.586C434.705 298.586 434.972 298.687 435.154 298.889C435.337 299.09 435.428 299.338 435.428 299.631C435.428 299.924 435.337 300.168 435.154 300.363C434.972 300.559 434.705 300.656 434.354 300.656C434.002 300.656 433.735 300.559 433.553 300.363C433.377 300.168 433.289 299.924 433.289 299.631ZM442.527 313.195C441.095 313.195 439.93 312.727 439.031 311.789C438.133 310.845 437.684 309.585 437.684 308.01V307.678C437.684 306.63 437.882 305.695 438.279 304.875C438.683 304.048 439.243 303.404 439.959 302.941C440.682 302.473 441.463 302.238 442.303 302.238C443.676 302.238 444.744 302.691 445.506 303.596C446.268 304.501 446.648 305.796 446.648 307.482V308.234H439.49C439.516 309.276 439.819 310.119 440.398 310.764C440.984 311.402 441.727 311.721 442.625 311.721C443.263 311.721 443.803 311.59 444.246 311.33C444.689 311.07 445.076 310.725 445.408 310.295L446.512 311.154C445.626 312.515 444.298 313.195 442.527 313.195ZM442.303 303.723C441.574 303.723 440.962 303.99 440.467 304.523C439.972 305.051 439.666 305.793 439.549 306.75H444.842V306.613C444.79 305.695 444.542 304.986 444.1 304.484C443.657 303.977 443.058 303.723 442.303 303.723ZM454.9 310.197C454.9 309.709 454.715 309.331 454.344 309.064C453.979 308.791 453.338 308.557 452.42 308.361C451.508 308.166 450.783 307.932 450.242 307.658C449.708 307.385 449.311 307.059 449.051 306.682C448.797 306.304 448.67 305.855 448.67 305.334C448.67 304.468 449.035 303.736 449.764 303.137C450.499 302.538 451.437 302.238 452.576 302.238C453.774 302.238 454.744 302.548 455.486 303.166C456.235 303.785 456.609 304.576 456.609 305.539H454.793C454.793 305.044 454.581 304.618 454.158 304.26C453.742 303.902 453.214 303.723 452.576 303.723C451.919 303.723 451.404 303.866 451.033 304.152C450.662 304.439 450.477 304.813 450.477 305.275C450.477 305.712 450.649 306.04 450.994 306.262C451.339 306.483 451.961 306.695 452.859 306.896C453.764 307.098 454.497 307.339 455.057 307.619C455.617 307.899 456.03 308.238 456.297 308.635C456.57 309.025 456.707 309.504 456.707 310.07C456.707 311.014 456.329 311.773 455.574 312.346C454.819 312.912 453.839 313.195 452.635 313.195C451.788 313.195 451.04 313.046 450.389 312.746C449.738 312.447 449.227 312.03 448.855 311.496C448.491 310.956 448.309 310.373 448.309 309.748H450.115C450.148 310.354 450.389 310.835 450.838 311.193C451.294 311.545 451.893 311.721 452.635 311.721C453.318 311.721 453.865 311.584 454.275 311.311C454.692 311.031 454.9 310.66 454.9 310.197ZM463.543 307.619C463.543 306.584 463.745 305.653 464.148 304.826C464.559 303.999 465.125 303.361 465.848 302.912C466.577 302.463 467.407 302.238 468.338 302.238C469.777 302.238 470.939 302.736 471.824 303.732C472.716 304.729 473.162 306.053 473.162 307.707V307.834C473.162 308.863 472.964 309.787 472.566 310.607C472.176 311.421 471.613 312.056 470.877 312.512C470.148 312.967 469.308 313.195 468.357 313.195C466.925 313.195 465.763 312.697 464.871 311.701C463.986 310.705 463.543 309.387 463.543 307.746V307.619ZM465.359 307.834C465.359 309.006 465.63 309.947 466.17 310.656C466.717 311.366 467.446 311.721 468.357 311.721C469.275 311.721 470.005 311.363 470.545 310.646C471.085 309.924 471.355 308.915 471.355 307.619C471.355 306.46 471.079 305.523 470.525 304.807C469.979 304.084 469.249 303.723 468.338 303.723C467.446 303.723 466.727 304.077 466.18 304.787C465.633 305.497 465.359 306.512 465.359 307.834ZM477.137 302.434L477.195 303.762C478.003 302.746 479.057 302.238 480.359 302.238C482.592 302.238 483.719 303.498 483.738 306.018V313H481.932V306.008C481.925 305.246 481.749 304.683 481.404 304.318C481.066 303.954 480.535 303.771 479.812 303.771C479.227 303.771 478.712 303.928 478.27 304.24C477.827 304.553 477.482 304.963 477.234 305.471V313H475.428V302.434H477.137ZM500.369 307.834C500.369 309.449 499.998 310.747 499.256 311.73C498.514 312.707 497.518 313.195 496.268 313.195C494.933 313.195 493.901 312.723 493.172 311.779L493.084 313H491.424V298H493.23V303.596C493.96 302.691 494.965 302.238 496.248 302.238C497.531 302.238 498.536 302.723 499.266 303.693C500.001 304.663 500.369 305.992 500.369 307.678V307.834ZM498.562 307.629C498.562 306.398 498.325 305.448 497.85 304.777C497.374 304.107 496.691 303.771 495.799 303.771C494.607 303.771 493.751 304.325 493.23 305.432V310.002C493.784 311.109 494.646 311.662 495.818 311.662C496.684 311.662 497.358 311.327 497.84 310.656C498.322 309.986 498.562 308.977 498.562 307.629ZM502.176 307.619C502.176 306.584 502.378 305.653 502.781 304.826C503.191 303.999 503.758 303.361 504.48 302.912C505.21 302.463 506.04 302.238 506.971 302.238C508.41 302.238 509.572 302.736 510.457 303.732C511.349 304.729 511.795 306.053 511.795 307.707V307.834C511.795 308.863 511.596 309.787 511.199 310.607C510.809 311.421 510.245 312.056 509.51 312.512C508.781 312.967 507.941 313.195 506.99 313.195C505.558 313.195 504.396 312.697 503.504 311.701C502.618 310.705 502.176 309.387 502.176 307.746V307.619ZM503.992 307.834C503.992 309.006 504.262 309.947 504.803 310.656C505.35 311.366 506.079 311.721 506.99 311.721C507.908 311.721 508.637 311.363 509.178 310.646C509.718 309.924 509.988 308.915 509.988 307.619C509.988 306.46 509.712 305.523 509.158 304.807C508.611 304.084 507.882 303.723 506.971 303.723C506.079 303.723 505.359 304.077 504.812 304.787C504.266 305.497 503.992 306.512 503.992 307.834ZM516.512 299.875V302.434H518.484V303.83H516.512V310.383C516.512 310.806 516.6 311.125 516.775 311.34C516.951 311.548 517.251 311.652 517.674 311.652C517.882 311.652 518.169 311.613 518.533 311.535V313C518.058 313.13 517.596 313.195 517.146 313.195C516.339 313.195 515.73 312.951 515.32 312.463C514.91 311.975 514.705 311.281 514.705 310.383V303.83H512.781V302.434H514.705V299.875H516.512ZM522.41 303.713C523.211 302.73 524.253 302.238 525.535 302.238C527.768 302.238 528.895 303.498 528.914 306.018V313H527.107V306.008C527.101 305.246 526.925 304.683 526.58 304.318C526.242 303.954 525.711 303.771 524.988 303.771C524.402 303.771 523.888 303.928 523.445 304.24C523.003 304.553 522.658 304.963 522.41 305.471V313H520.604V298H522.41V303.713ZM538.543 313H536.736V298H538.543V313ZM543.406 313H541.6V302.434H543.406V313ZM541.453 299.631C541.453 299.338 541.541 299.09 541.717 298.889C541.899 298.687 542.166 298.586 542.518 298.586C542.869 298.586 543.136 298.687 543.318 298.889C543.501 299.09 543.592 299.338 543.592 299.631C543.592 299.924 543.501 300.168 543.318 300.363C543.136 300.559 542.869 300.656 542.518 300.656C542.166 300.656 541.899 300.559 541.717 300.363C541.541 300.168 541.453 299.924 541.453 299.631ZM548.016 302.434L548.074 303.762C548.882 302.746 549.936 302.238 551.238 302.238C553.471 302.238 554.598 303.498 554.617 306.018V313H552.811V306.008C552.804 305.246 552.628 304.683 552.283 304.318C551.945 303.954 551.414 303.771 550.691 303.771C550.105 303.771 549.591 303.928 549.148 304.24C548.706 304.553 548.361 304.963 548.113 305.471V313H546.307V302.434H548.016ZM561.727 313.195C560.294 313.195 559.129 312.727 558.23 311.789C557.332 310.845 556.883 309.585 556.883 308.01V307.678C556.883 306.63 557.081 305.695 557.479 304.875C557.882 304.048 558.442 303.404 559.158 302.941C559.881 302.473 560.662 302.238 561.502 302.238C562.876 302.238 563.943 302.691 564.705 303.596C565.467 304.501 565.848 305.796 565.848 307.482V308.234H558.689C558.715 309.276 559.018 310.119 559.598 310.764C560.184 311.402 560.926 311.721 561.824 311.721C562.462 311.721 563.003 311.59 563.445 311.33C563.888 311.07 564.275 310.725 564.607 310.295L565.711 311.154C564.826 312.515 563.497 313.195 561.727 313.195ZM561.502 303.723C560.773 303.723 560.161 303.99 559.666 304.523C559.171 305.051 558.865 305.793 558.748 306.75H564.041V306.613C563.989 305.695 563.742 304.986 563.299 304.484C562.856 303.977 562.257 303.723 561.502 303.723ZM574.1 310.197C574.1 309.709 573.914 309.331 573.543 309.064C573.178 308.791 572.537 308.557 571.619 308.361C570.708 308.166 569.982 307.932 569.441 307.658C568.908 307.385 568.51 307.059 568.25 306.682C567.996 306.304 567.869 305.855 567.869 305.334C567.869 304.468 568.234 303.736 568.963 303.137C569.699 302.538 570.636 302.238 571.775 302.238C572.973 302.238 573.943 302.548 574.686 303.166C575.434 303.785 575.809 304.576 575.809 305.539H573.992C573.992 305.044 573.781 304.618 573.357 304.26C572.941 303.902 572.413 303.723 571.775 303.723C571.118 303.723 570.604 303.866 570.232 304.152C569.861 304.439 569.676 304.813 569.676 305.275C569.676 305.712 569.848 306.04 570.193 306.262C570.538 306.483 571.16 306.695 572.059 306.896C572.964 307.098 573.696 307.339 574.256 307.619C574.816 307.899 575.229 308.238 575.496 308.635C575.77 309.025 575.906 309.504 575.906 310.07C575.906 311.014 575.529 311.773 574.773 312.346C574.018 312.912 573.038 313.195 571.834 313.195C570.988 313.195 570.239 313.046 569.588 312.746C568.937 312.447 568.426 312.03 568.055 311.496C567.69 310.956 567.508 310.373 567.508 309.748H569.314C569.347 310.354 569.588 310.835 570.037 311.193C570.493 311.545 571.092 311.721 571.834 311.721C572.518 311.721 573.064 311.584 573.475 311.311C573.891 311.031 574.1 310.66 574.1 310.197ZM465.887 329.291L468.23 325.434H470.34L466.883 330.658L470.447 336H468.357L465.916 332.045L463.475 336H461.375L464.939 330.658L461.482 325.434H463.572L465.887 329.291ZM485.486 328.051H477.342V326.479H485.486V328.051ZM485.486 332.104H477.342V330.541H485.486V332.104ZM498.914 336H497.098V323.959L493.455 325.297V323.656L498.631 321.713H498.914V336ZM466.023 356.354L468.484 348.434H470.418L466.17 360.631C465.512 362.389 464.467 363.268 463.035 363.268L462.693 363.238L462.02 363.111V361.646L462.508 361.686C463.12 361.686 463.595 361.562 463.934 361.314C464.279 361.067 464.562 360.615 464.783 359.957L465.184 358.883L461.414 348.434H463.387L466.023 356.354ZM485.262 351.051H477.117V349.479H485.262V351.051ZM485.262 355.104H477.117V353.541H485.262V355.104ZM502.068 359H492.752V357.701L497.674 352.232C498.403 351.406 498.904 350.735 499.178 350.221C499.458 349.7 499.598 349.163 499.598 348.609C499.598 347.867 499.373 347.258 498.924 346.783C498.475 346.308 497.876 346.07 497.127 346.07C496.229 346.07 495.529 346.327 495.027 346.842C494.533 347.35 494.285 348.059 494.285 348.971H492.479C492.479 347.662 492.898 346.604 493.738 345.797C494.585 344.99 495.714 344.586 497.127 344.586C498.449 344.586 499.493 344.934 500.262 345.631C501.03 346.321 501.414 347.242 501.414 348.395C501.414 349.794 500.522 351.461 498.738 353.395L494.93 357.525H502.068V359ZM371.883 368.875V371.434H373.855V372.83H371.883V379.383C371.883 379.806 371.971 380.125 372.146 380.34C372.322 380.548 372.622 380.652 373.045 380.652C373.253 380.652 373.54 380.613 373.904 380.535V382C373.429 382.13 372.967 382.195 372.518 382.195C371.71 382.195 371.102 381.951 370.691 381.463C370.281 380.975 370.076 380.281 370.076 379.383V372.83H368.152V371.434H370.076V368.875H371.883ZM377.781 372.713C378.582 371.73 379.624 371.238 380.906 371.238C383.139 371.238 384.266 372.498 384.285 375.018V382H382.479V375.008C382.472 374.246 382.296 373.683 381.951 373.318C381.613 372.954 381.082 372.771 380.359 372.771C379.773 372.771 379.259 372.928 378.816 373.24C378.374 373.553 378.029 373.963 377.781 374.471V382H375.975V367H377.781V372.713ZM388.953 382H387.146V371.434H388.953V382ZM387 368.631C387 368.338 387.088 368.09 387.264 367.889C387.446 367.687 387.713 367.586 388.064 367.586C388.416 367.586 388.683 367.687 388.865 367.889C389.048 368.09 389.139 368.338 389.139 368.631C389.139 368.924 389.048 369.168 388.865 369.363C388.683 369.559 388.416 369.656 388.064 369.656C387.713 369.656 387.446 369.559 387.264 369.363C387.088 369.168 387 368.924 387 368.631ZM398.006 379.197C398.006 378.709 397.82 378.331 397.449 378.064C397.085 377.791 396.443 377.557 395.525 377.361C394.614 377.166 393.888 376.932 393.348 376.658C392.814 376.385 392.417 376.059 392.156 375.682C391.902 375.304 391.775 374.855 391.775 374.334C391.775 373.468 392.14 372.736 392.869 372.137C393.605 371.538 394.542 371.238 395.682 371.238C396.88 371.238 397.85 371.548 398.592 372.166C399.34 372.785 399.715 373.576 399.715 374.539H397.898C397.898 374.044 397.687 373.618 397.264 373.26C396.847 372.902 396.32 372.723 395.682 372.723C395.024 372.723 394.51 372.866 394.139 373.152C393.768 373.439 393.582 373.813 393.582 374.275C393.582 374.712 393.755 375.04 394.1 375.262C394.445 375.483 395.066 375.695 395.965 375.896C396.87 376.098 397.602 376.339 398.162 376.619C398.722 376.899 399.135 377.238 399.402 377.635C399.676 378.025 399.812 378.504 399.812 379.07C399.812 380.014 399.435 380.773 398.68 381.346C397.924 381.912 396.945 382.195 395.74 382.195C394.894 382.195 394.145 382.046 393.494 381.746C392.843 381.447 392.332 381.03 391.961 380.496C391.596 379.956 391.414 379.373 391.414 378.748H393.221C393.253 379.354 393.494 379.835 393.943 380.193C394.399 380.545 394.998 380.721 395.74 380.721C396.424 380.721 396.971 380.584 397.381 380.311C397.798 380.031 398.006 379.66 398.006 379.197ZM413.279 379.197C413.279 378.709 413.094 378.331 412.723 378.064C412.358 377.791 411.717 377.557 410.799 377.361C409.887 377.166 409.161 376.932 408.621 376.658C408.087 376.385 407.69 376.059 407.43 375.682C407.176 375.304 407.049 374.855 407.049 374.334C407.049 373.468 407.413 372.736 408.143 372.137C408.878 371.538 409.816 371.238 410.955 371.238C412.153 371.238 413.123 371.548 413.865 372.166C414.614 372.785 414.988 373.576 414.988 374.539H413.172C413.172 374.044 412.96 373.618 412.537 373.26C412.12 372.902 411.593 372.723 410.955 372.723C410.298 372.723 409.783 372.866 409.412 373.152C409.041 373.439 408.855 373.813 408.855 374.275C408.855 374.712 409.028 375.04 409.373 375.262C409.718 375.483 410.34 375.695 411.238 375.896C412.143 376.098 412.876 376.339 413.436 376.619C413.995 376.899 414.409 377.238 414.676 377.635C414.949 378.025 415.086 378.504 415.086 379.07C415.086 380.014 414.708 380.773 413.953 381.346C413.198 381.912 412.218 382.195 411.014 382.195C410.167 382.195 409.419 382.046 408.768 381.746C408.117 381.447 407.605 381.03 407.234 380.496C406.87 379.956 406.688 379.373 406.688 378.748H408.494C408.527 379.354 408.768 379.835 409.217 380.193C409.673 380.545 410.271 380.721 411.014 380.721C411.697 380.721 412.244 380.584 412.654 380.311C413.071 380.031 413.279 379.66 413.279 379.197ZM416.961 376.619C416.961 375.584 417.163 374.653 417.566 373.826C417.977 372.999 418.543 372.361 419.266 371.912C419.995 371.463 420.825 371.238 421.756 371.238C423.195 371.238 424.357 371.736 425.242 372.732C426.134 373.729 426.58 375.053 426.58 376.707V376.834C426.58 377.863 426.382 378.787 425.984 379.607C425.594 380.421 425.031 381.056 424.295 381.512C423.566 381.967 422.726 382.195 421.775 382.195C420.343 382.195 419.181 381.697 418.289 380.701C417.404 379.705 416.961 378.387 416.961 376.746V376.619ZM418.777 376.834C418.777 378.006 419.048 378.947 419.588 379.656C420.135 380.366 420.864 380.721 421.775 380.721C422.693 380.721 423.423 380.363 423.963 379.646C424.503 378.924 424.773 377.915 424.773 376.619C424.773 375.46 424.497 374.523 423.943 373.807C423.396 373.084 422.667 372.723 421.756 372.723C420.864 372.723 420.145 373.077 419.598 373.787C419.051 374.497 418.777 375.512 418.777 376.834ZM430.809 382H429.002V367H430.809V382ZM437.195 379.549L439.812 371.434H441.658L437.869 382H436.492L432.664 371.434H434.51L437.195 379.549ZM447.645 382.195C446.212 382.195 445.047 381.727 444.148 380.789C443.25 379.845 442.801 378.585 442.801 377.01V376.678C442.801 375.63 442.999 374.695 443.396 373.875C443.8 373.048 444.36 372.404 445.076 371.941C445.799 371.473 446.58 371.238 447.42 371.238C448.794 371.238 449.861 371.691 450.623 372.596C451.385 373.501 451.766 374.796 451.766 376.482V377.234H444.607C444.633 378.276 444.936 379.119 445.516 379.764C446.102 380.402 446.844 380.721 447.742 380.721C448.38 380.721 448.921 380.59 449.363 380.33C449.806 380.07 450.193 379.725 450.525 379.295L451.629 380.154C450.743 381.515 449.415 382.195 447.645 382.195ZM447.42 372.723C446.691 372.723 446.079 372.99 445.584 373.523C445.089 374.051 444.783 374.793 444.666 375.75H449.959V375.613C449.907 374.695 449.66 373.986 449.217 373.484C448.774 372.977 448.175 372.723 447.42 372.723ZM460.018 379.197C460.018 378.709 459.832 378.331 459.461 378.064C459.096 377.791 458.455 377.557 457.537 377.361C456.626 377.166 455.9 376.932 455.359 376.658C454.826 376.385 454.428 376.059 454.168 375.682C453.914 375.304 453.787 374.855 453.787 374.334C453.787 373.468 454.152 372.736 454.881 372.137C455.617 371.538 456.554 371.238 457.693 371.238C458.891 371.238 459.861 371.548 460.604 372.166C461.352 372.785 461.727 373.576 461.727 374.539H459.91C459.91 374.044 459.699 373.618 459.275 373.26C458.859 372.902 458.331 372.723 457.693 372.723C457.036 372.723 456.521 372.866 456.15 373.152C455.779 373.439 455.594 373.813 455.594 374.275C455.594 374.712 455.766 375.04 456.111 375.262C456.456 375.483 457.078 375.695 457.977 375.896C458.882 376.098 459.614 376.339 460.174 376.619C460.734 376.899 461.147 377.238 461.414 377.635C461.688 378.025 461.824 378.504 461.824 379.07C461.824 380.014 461.447 380.773 460.691 381.346C459.936 381.912 458.956 382.195 457.752 382.195C456.906 382.195 456.157 382.046 455.506 381.746C454.855 381.447 454.344 381.03 453.973 380.496C453.608 379.956 453.426 379.373 453.426 378.748H455.232C455.265 379.354 455.506 379.835 455.955 380.193C456.411 380.545 457.01 380.721 457.752 380.721C458.436 380.721 458.982 380.584 459.393 380.311C459.809 380.031 460.018 379.66 460.018 379.197ZM478.084 376.834C478.084 378.449 477.713 379.747 476.971 380.73C476.229 381.707 475.232 382.195 473.982 382.195C472.648 382.195 471.616 381.723 470.887 380.779L470.799 382H469.139V367H470.945V372.596C471.674 371.691 472.68 371.238 473.963 371.238C475.245 371.238 476.251 371.723 476.98 372.693C477.716 373.663 478.084 374.992 478.084 376.678V376.834ZM476.277 376.629C476.277 375.398 476.04 374.448 475.564 373.777C475.089 373.107 474.406 372.771 473.514 372.771C472.322 372.771 471.466 373.325 470.945 374.432V379.002C471.499 380.109 472.361 380.662 473.533 380.662C474.399 380.662 475.073 380.327 475.555 379.656C476.036 378.986 476.277 377.977 476.277 376.629ZM479.891 376.619C479.891 375.584 480.092 374.653 480.496 373.826C480.906 372.999 481.473 372.361 482.195 371.912C482.924 371.463 483.755 371.238 484.686 371.238C486.124 371.238 487.286 371.736 488.172 372.732C489.064 373.729 489.51 375.053 489.51 376.707V376.834C489.51 377.863 489.311 378.787 488.914 379.607C488.523 380.421 487.96 381.056 487.225 381.512C486.495 381.967 485.656 382.195 484.705 382.195C483.273 382.195 482.111 381.697 481.219 380.701C480.333 379.705 479.891 378.387 479.891 376.746V376.619ZM481.707 376.834C481.707 378.006 481.977 378.947 482.518 379.656C483.064 380.366 483.794 380.721 484.705 380.721C485.623 380.721 486.352 380.363 486.893 379.646C487.433 378.924 487.703 377.915 487.703 376.619C487.703 375.46 487.426 374.523 486.873 373.807C486.326 373.084 485.597 372.723 484.686 372.723C483.794 372.723 483.074 373.077 482.527 373.787C481.98 374.497 481.707 375.512 481.707 376.834ZM494.227 368.875V371.434H496.199V372.83H494.227V379.383C494.227 379.806 494.314 380.125 494.49 380.34C494.666 380.548 494.965 380.652 495.389 380.652C495.597 380.652 495.883 380.613 496.248 380.535V382C495.773 382.13 495.311 382.195 494.861 382.195C494.054 382.195 493.445 381.951 493.035 381.463C492.625 380.975 492.42 380.281 492.42 379.383V372.83H490.496V371.434H492.42V368.875H494.227ZM500.125 372.713C500.926 371.73 501.967 371.238 503.25 371.238C505.483 371.238 506.609 372.498 506.629 375.018V382H504.822V375.008C504.816 374.246 504.64 373.683 504.295 373.318C503.956 372.954 503.426 372.771 502.703 372.771C502.117 372.771 501.603 372.928 501.16 373.24C500.717 373.553 500.372 373.963 500.125 374.471V382H498.318V367H500.125V372.713ZM518.68 382.195C517.247 382.195 516.082 381.727 515.184 380.789C514.285 379.845 513.836 378.585 513.836 377.01V376.678C513.836 375.63 514.035 374.695 514.432 373.875C514.835 373.048 515.395 372.404 516.111 371.941C516.834 371.473 517.615 371.238 518.455 371.238C519.829 371.238 520.896 371.691 521.658 372.596C522.42 373.501 522.801 374.796 522.801 376.482V377.234H515.643C515.669 378.276 515.971 379.119 516.551 379.764C517.137 380.402 517.879 380.721 518.777 380.721C519.415 380.721 519.956 380.59 520.398 380.33C520.841 380.07 521.229 379.725 521.561 379.295L522.664 380.154C521.779 381.515 520.451 382.195 518.68 382.195ZM518.455 372.723C517.726 372.723 517.114 372.99 516.619 373.523C516.124 374.051 515.818 374.793 515.701 375.75H520.994V375.613C520.942 374.695 520.695 373.986 520.252 373.484C519.809 372.977 519.21 372.723 518.455 372.723ZM524.461 376.629C524.461 374.969 524.842 373.657 525.604 372.693C526.365 371.723 527.387 371.238 528.67 371.238C529.92 371.238 530.906 371.658 531.629 372.498L531.707 371.434H533.367V386.062H531.561V381.023C530.831 381.805 529.861 382.195 528.65 382.195C527.374 382.195 526.355 381.701 525.594 380.711C524.839 379.715 524.461 378.396 524.461 376.756V376.629ZM526.268 376.834C526.268 378.045 526.521 378.995 527.029 379.686C527.544 380.376 528.234 380.721 529.1 380.721C530.174 380.721 530.994 380.245 531.561 379.295V374.119C530.988 373.188 530.174 372.723 529.119 372.723C528.247 372.723 527.553 373.071 527.039 373.768C526.525 374.458 526.268 375.48 526.268 376.834ZM542.791 380.955C542.088 381.782 541.056 382.195 539.695 382.195C538.569 382.195 537.71 381.87 537.117 381.219C536.531 380.561 536.235 379.591 536.229 378.309V371.434H538.035V378.26C538.035 379.861 538.686 380.662 539.988 380.662C541.368 380.662 542.286 380.148 542.742 379.119V371.434H544.549V382H542.83L542.791 380.955ZM553.826 382C553.722 381.792 553.637 381.421 553.572 380.887C552.732 381.759 551.73 382.195 550.564 382.195C549.523 382.195 548.667 381.902 547.996 381.316C547.332 380.724 547 379.975 547 379.07C547 377.97 547.417 377.117 548.25 376.512C549.09 375.9 550.268 375.594 551.785 375.594H553.543V374.764C553.543 374.132 553.354 373.631 552.977 373.26C552.599 372.882 552.042 372.693 551.307 372.693C550.662 372.693 550.122 372.856 549.686 373.182C549.249 373.507 549.031 373.901 549.031 374.363H547.215C547.215 373.836 547.4 373.328 547.771 372.84C548.149 372.345 548.657 371.954 549.295 371.668C549.939 371.382 550.646 371.238 551.414 371.238C552.632 371.238 553.585 371.544 554.275 372.156C554.965 372.762 555.324 373.598 555.35 374.666V379.529C555.35 380.499 555.473 381.271 555.721 381.844V382H553.826ZM550.828 380.623C551.395 380.623 551.932 380.477 552.439 380.184C552.947 379.891 553.315 379.51 553.543 379.041V376.873H552.127C549.913 376.873 548.807 377.521 548.807 378.816C548.807 379.383 548.995 379.826 549.373 380.145C549.751 380.464 550.236 380.623 550.828 380.623ZM560.633 368.875V371.434H562.605V372.83H560.633V379.383C560.633 379.806 560.721 380.125 560.896 380.34C561.072 380.548 561.372 380.652 561.795 380.652C562.003 380.652 562.29 380.613 562.654 380.535V382C562.179 382.13 561.717 382.195 561.268 382.195C560.46 382.195 559.852 381.951 559.441 381.463C559.031 380.975 558.826 380.281 558.826 379.383V372.83H556.902V371.434H558.826V368.875H560.633ZM566.688 382H564.881V371.434H566.688V382ZM564.734 368.631C564.734 368.338 564.822 368.09 564.998 367.889C565.18 367.687 565.447 367.586 565.799 367.586C566.15 367.586 566.417 367.687 566.6 367.889C566.782 368.09 566.873 368.338 566.873 368.631C566.873 368.924 566.782 369.168 566.6 369.363C566.417 369.559 566.15 369.656 565.799 369.656C565.447 369.656 565.18 369.559 564.998 369.363C564.822 369.168 564.734 368.924 564.734 368.631ZM569.109 376.619C569.109 375.584 569.311 374.653 569.715 373.826C570.125 372.999 570.691 372.361 571.414 371.912C572.143 371.463 572.973 371.238 573.904 371.238C575.343 371.238 576.505 371.736 577.391 372.732C578.283 373.729 578.729 375.053 578.729 376.707V376.834C578.729 377.863 578.53 378.787 578.133 379.607C577.742 380.421 577.179 381.056 576.443 381.512C575.714 381.967 574.874 382.195 573.924 382.195C572.492 382.195 571.329 381.697 570.438 380.701C569.552 379.705 569.109 378.387 569.109 376.746V376.619ZM570.926 376.834C570.926 378.006 571.196 378.947 571.736 379.656C572.283 380.366 573.012 380.721 573.924 380.721C574.842 380.721 575.571 380.363 576.111 379.646C576.652 378.924 576.922 377.915 576.922 376.619C576.922 375.46 576.645 374.523 576.092 373.807C575.545 373.084 574.816 372.723 573.904 372.723C573.012 372.723 572.293 373.077 571.746 373.787C571.199 374.497 570.926 375.512 570.926 376.834ZM582.703 371.434L582.762 372.762C583.569 371.746 584.624 371.238 585.926 371.238C588.159 371.238 589.285 372.498 589.305 375.018V382H587.498V375.008C587.492 374.246 587.316 373.683 586.971 373.318C586.632 372.954 586.102 372.771 585.379 372.771C584.793 372.771 584.279 372.928 583.836 373.24C583.393 373.553 583.048 373.963 582.801 374.471V382H580.994V371.434H582.703ZM592.068 381.053C592.068 380.74 592.16 380.48 592.342 380.271C592.531 380.063 592.811 379.959 593.182 379.959C593.553 379.959 593.833 380.063 594.021 380.271C594.217 380.48 594.314 380.74 594.314 381.053C594.314 381.352 594.217 381.603 594.021 381.805C593.833 382.007 593.553 382.107 593.182 382.107C592.811 382.107 592.531 382.007 592.342 381.805C592.16 381.603 592.068 381.352 592.068 381.053Z" fill="#00DCFF"/>
<path d="M390.715 113.682C389.986 113.287 389.076 113.557 388.681 114.286L382.249 126.155C381.855 126.883 382.125 127.794 382.853 128.189C383.582 128.583 384.492 128.313 384.887 127.584L390.604 117.034L401.155 122.751C401.883 123.146 402.793 122.875 403.188 122.147C403.583 121.419 403.312 120.508 402.584 120.114L390.715 113.682ZM388.562 115.428L429.562 253.428L432.438 252.573L391.438 114.573L388.562 115.428Z" fill="#00DCFF"/>
<path d="M494.061 210.061C494.646 209.475 494.646 208.526 494.061 207.94L484.515 198.394C483.929 197.808 482.979 197.808 482.393 198.394C481.808 198.98 481.808 199.929 482.393 200.515L490.879 209L482.393 217.486C481.808 218.072 481.808 219.021 482.393 219.607C482.979 220.193 483.929 220.193 484.515 219.607L494.061 210.061ZM163 210.5H493V207.5H163V210.5Z" fill="#00DCFF"/>
<path d="M324.061 42.9393C323.475 42.3536 322.525 42.3536 321.939 42.9393L312.393 52.4853C311.808 53.0711 311.808 54.0208 312.393 54.6066C312.979 55.1924 313.929 55.1924 314.515 54.6066L323 46.1213L331.485 54.6066C332.071 55.1924 333.021 55.1924 333.607 54.6066C334.192 54.0208 334.192 53.0711 333.607 52.4853L324.061 42.9393ZM324.5 374L324.5 44L321.5 44L321.5 374L324.5 374Z" fill="#00DCFF"/>
<path d="M520.368 209.937L523.884 204.151H527.048L521.862 211.988L527.209 220H524.074L520.412 214.068L516.75 220H513.601L518.947 211.988L513.762 204.151H516.896L520.368 209.937Z" fill="#00DCFF"/>
<path d="M383.504 234H381.688V221.959L378.045 223.297V221.657L383.221 219.713H383.504V234Z" fill="#00DCFF"/>
<path d="M304.883 99.0005H295.566V97.7017L300.488 92.2329C301.217 91.4061 301.719 90.7355 301.992 90.2212C302.272 89.7004 302.412 89.1632 302.412 88.6099C302.412 87.8677 302.188 87.259 301.738 86.7837C301.289 86.3084 300.69 86.0708 299.941 86.0708C299.043 86.0708 298.343 86.328 297.842 86.8423C297.347 87.3501 297.1 88.0597 297.1 88.9712H295.293C295.293 87.6626 295.713 86.6047 296.553 85.7974C297.399 84.9901 298.529 84.5864 299.941 84.5864C301.263 84.5864 302.308 84.9347 303.076 85.6313C303.844 86.3215 304.229 87.2427 304.229 88.395C304.229 89.7948 303.337 91.4614 301.553 93.395L297.744 97.5259H304.883V99.0005Z" fill="#00DCFF"/>
<path d="M323.236 25.0307L326.928 13.1508H329.828L323.456 31.4467C322.47 34.0834 320.902 35.4018 318.754 35.4018L318.241 35.3578L317.23 35.1674V32.9701L317.963 33.0287C318.881 33.0287 319.594 32.8432 320.102 32.4721C320.619 32.101 321.044 31.4223 321.376 30.436L321.977 28.8246L316.322 13.1508H319.281L323.236 25.0307Z" fill="#00DCFF"/>
<circle cx="323" cy="209" r="10" fill="#FF006B"/>
<circle cx="277" cy="153" r="10" fill="#0094FF"/>
<circle cx="187" cy="209" r="10" fill="#0094FF"/>
<circle cx="380" cy="91.0005" r="10" fill="#FF006B"/>
</svg>
