<svg width="424" height="410" viewBox="0 0 424 410" fill="none" xmlns="http://www.w3.org/2000/svg">
<path d="M359.061 217.061C359.646 216.475 359.646 215.525 359.061 214.939L349.515 205.393C348.929 204.808 347.979 204.808 347.393 205.393C346.808 205.979 346.808 206.929 347.393 207.515L355.879 216L347.393 224.485C346.808 225.071 346.808 226.021 347.393 226.607C347.979 227.192 348.929 227.192 349.515 226.607L359.061 217.061ZM28 217.5H358V214.5H28V217.5Z" fill="#00DCFF"/>
<line x1="117.549" y1="409.785" x2="307.549" y2="10.785" stroke="#00DCFF"/>
<path d="M189.061 49.9393C188.475 49.3536 187.525 49.3536 186.939 49.9393L177.393 59.4853C176.808 60.0711 176.808 61.0208 177.393 61.6066C177.979 62.1924 178.929 62.1924 179.515 61.6066L188 53.1213L196.485 61.6066C197.071 62.1924 198.021 62.1924 198.607 61.6066C199.192 61.0208 199.192 60.0711 198.607 59.4853L189.061 49.9393ZM189.5 381L189.5 51L186.5 51L186.5 381L189.5 381Z" fill="#00DCFF"/>
<path d="M385.368 216.937L388.884 211.15H392.048L386.862 218.987L392.209 227H389.074L385.412 221.067L381.75 227H378.601L383.947 218.987L378.762 211.15H381.896L385.368 216.937Z" fill="#00DCFF"/>
<path d="M248.504 241H246.688V228.959L243.045 230.297V228.656L248.221 226.713H248.504V241Z" fill="#00DCFF"/>
<path d="M169.883 106H160.566V104.701L165.488 99.2324C166.217 98.4056 166.719 97.735 166.992 97.2207C167.272 96.6999 167.412 96.1628 167.412 95.6094C167.412 94.8672 167.188 94.2585 166.738 93.7832C166.289 93.3079 165.69 93.0703 164.941 93.0703C164.043 93.0703 163.343 93.3275 162.842 93.8418C162.347 94.3496 162.1 95.0592 162.1 95.9707H160.293C160.293 94.6621 160.713 93.6042 161.553 92.7969C162.399 91.9896 163.529 91.5859 164.941 91.5859C166.263 91.5859 167.308 91.9342 168.076 92.6309C168.844 93.321 169.229 94.2422 169.229 95.3945C169.229 96.7943 168.337 98.4609 166.553 100.395L162.744 104.525H169.883V106Z" fill="#00DCFF"/>
<path d="M188.236 32.0303L191.928 20.1504H194.828L188.456 38.4463C187.47 41.083 185.902 42.4014 183.754 42.4014L183.241 42.3574L182.23 42.167V39.9697L182.963 40.0283C183.881 40.0283 184.594 39.8428 185.102 39.4717C185.619 39.1006 186.044 38.4219 186.376 37.4355L186.977 35.8242L181.322 20.1504H184.281L188.236 32.0303Z" fill="#00DCFF"/>
</svg>
