<svg width="431" height="435" viewBox="0 0 431 435" fill="none" xmlns="http://www.w3.org/2000/svg">
<path d="M376.061 225.06C376.646 224.475 376.646 223.525 376.061 222.939L366.515 213.393C365.929 212.807 364.979 212.807 364.393 213.393C363.808 213.979 363.808 214.929 364.393 215.514L372.879 224L364.393 232.485C363.808 233.071 363.808 234.021 364.393 234.606C364.979 235.192 365.929 235.192 366.515 234.606L376.061 225.06ZM205 225.5L375 225.5V222.5L205 222.5V225.5Z" fill="#00DCFF"/>
<path d="M206.054 57.9327C205.465 57.3505 204.515 57.3562 203.933 57.9455L194.445 67.5492C193.863 68.1385 193.869 69.0882 194.458 69.6704C195.047 70.2527 195.997 70.2469 196.579 69.6576L205.013 61.121L213.549 69.5547C214.139 70.137 215.088 70.1312 215.671 69.5419C216.253 68.9525 216.247 68.0028 215.658 67.4206L206.054 57.9327ZM207.5 223.991L206.5 58.9907L203.5 59.0088L204.5 224.009L207.5 223.991Z" fill="#00DCFF"/>
<path d="M197.879 343.997C198.43 344.616 199.378 344.671 199.997 344.12L210.083 335.147C210.702 334.596 210.757 333.648 210.206 333.029C209.656 332.41 208.707 332.355 208.089 332.905L199.124 340.882L191.147 331.917C190.596 331.298 189.648 331.243 189.029 331.793C188.41 332.344 188.355 333.292 188.906 333.911L197.879 343.997ZM204.503 222.912L197.503 342.912L200.497 343.087L207.497 223.087L204.503 222.912Z" fill="#FF006B"/>
<path d="M89.6955 254.259C89.2866 254.98 89.5391 255.895 90.2596 256.304L102 262.968C102.721 263.377 103.636 263.124 104.045 262.404C104.454 261.683 104.202 260.768 103.481 260.359L93.0449 254.436L98.9682 243.999C99.3771 243.279 99.1246 242.363 98.4041 241.954C97.6836 241.546 96.7681 241.798 96.3591 242.519L89.6955 254.259ZM206.601 221.554L90.6011 253.554L91.3989 256.446L207.399 224.446L206.601 221.554Z" fill="#0094FF"/>
<path d="M280.439 90.5765C280.205 89.7817 279.372 89.327 278.577 89.5607L265.625 93.37C264.831 93.6037 264.376 94.4375 264.61 95.2323C264.843 96.027 265.677 96.4818 266.472 96.2481L277.984 92.8621L281.37 104.374C281.604 105.169 282.438 105.624 283.232 105.39C284.027 105.156 284.482 104.323 284.248 103.528L280.439 90.5765ZM208.317 223.718L280.317 91.718L277.683 90.2815L205.683 222.281L208.317 223.718Z" fill="#CC00FF"/>
<path d="M307.95 332.499C308.778 332.527 309.471 331.878 309.499 331.05L309.951 317.558C309.979 316.73 309.33 316.036 308.502 316.008C307.674 315.98 306.98 316.629 306.953 317.457L306.551 329.45L294.558 329.049C293.73 329.021 293.036 329.67 293.008 330.498C292.981 331.326 293.629 332.019 294.457 332.047L307.95 332.499ZM205.904 224.024L306.904 332.024L309.096 329.975L208.096 221.975L205.904 224.024Z" fill="#00FF29"/>
<path d="M100.501 318.94C100.468 319.768 101.112 320.465 101.94 320.499L115.429 321.038C116.257 321.071 116.955 320.427 116.988 319.599C117.021 318.772 116.377 318.074 115.549 318.041L103.559 317.561L104.038 305.571C104.071 304.743 103.427 304.045 102.6 304.012C101.772 303.979 101.074 304.623 101.041 305.451L100.501 318.94ZM204.983 221.898L100.983 317.898L103.017 320.102L207.017 224.102L204.983 221.898Z" fill="#00DCFF"/>
<path d="M192.109 379.488C191.934 380.992 191.377 382.154 190.439 382.974C189.508 383.788 188.268 384.195 186.719 384.195C185.039 384.195 183.691 383.593 182.676 382.388C181.667 381.184 181.162 379.573 181.162 377.554V376.187C181.162 374.866 181.396 373.704 181.865 372.701C182.34 371.698 183.011 370.93 183.877 370.396C184.743 369.856 185.745 369.586 186.885 369.586C188.395 369.586 189.606 370.009 190.518 370.855C191.429 371.695 191.96 372.86 192.109 374.351H190.225C190.062 373.219 189.707 372.398 189.16 371.89C188.62 371.383 187.861 371.129 186.885 371.129C185.687 371.129 184.746 371.571 184.062 372.457C183.385 373.342 183.047 374.602 183.047 376.236V377.613C183.047 379.156 183.369 380.383 184.014 381.295C184.658 382.206 185.56 382.662 186.719 382.662C187.76 382.662 188.558 382.427 189.111 381.959C189.671 381.483 190.042 380.66 190.225 379.488H192.109ZM193.916 378.619C193.916 377.584 194.118 376.653 194.521 375.826C194.932 374.999 195.498 374.361 196.221 373.912C196.95 373.463 197.78 373.238 198.711 373.238C200.15 373.238 201.312 373.736 202.197 374.732C203.089 375.728 203.535 377.053 203.535 378.707V378.834C203.535 379.862 203.337 380.787 202.939 381.607C202.549 382.421 201.986 383.056 201.25 383.511C200.521 383.967 199.681 384.195 198.73 384.195C197.298 384.195 196.136 383.697 195.244 382.701C194.359 381.705 193.916 380.386 193.916 378.746V378.619ZM195.732 378.834C195.732 380.006 196.003 380.946 196.543 381.656C197.09 382.366 197.819 382.72 198.73 382.72C199.648 382.72 200.378 382.362 200.918 381.646C201.458 380.924 201.729 379.914 201.729 378.619C201.729 377.46 201.452 376.523 200.898 375.806C200.352 375.084 199.622 374.722 198.711 374.722C197.819 374.722 197.1 375.077 196.553 375.787C196.006 376.497 195.732 377.512 195.732 378.834ZM207.764 384H205.957V369H207.764V384ZM218.066 376.011H219.424C220.277 375.998 220.947 375.774 221.436 375.338C221.924 374.901 222.168 374.312 222.168 373.57C222.168 371.903 221.338 371.07 219.678 371.07C218.896 371.07 218.271 371.295 217.803 371.744C217.34 372.187 217.109 372.776 217.109 373.511H215.303C215.303 372.385 215.713 371.451 216.533 370.709C217.36 369.96 218.408 369.586 219.678 369.586C221.019 369.586 222.07 369.941 222.832 370.65C223.594 371.36 223.975 372.346 223.975 373.609C223.975 374.228 223.773 374.827 223.369 375.406C222.972 375.985 222.428 376.418 221.738 376.705C222.52 376.952 223.122 377.362 223.545 377.935C223.975 378.508 224.189 379.208 224.189 380.035C224.189 381.311 223.773 382.323 222.939 383.072C222.106 383.821 221.022 384.195 219.688 384.195C218.353 384.195 217.266 383.834 216.426 383.111C215.592 382.388 215.176 381.435 215.176 380.25H216.992C216.992 380.998 217.236 381.597 217.725 382.047C218.213 382.496 218.867 382.72 219.688 382.72C220.56 382.72 221.227 382.493 221.689 382.037C222.152 381.581 222.383 380.927 222.383 380.074C222.383 379.247 222.129 378.612 221.621 378.17C221.113 377.727 220.381 377.499 219.424 377.486H218.066V376.011Z" fill="#FF006B"/>
<path d="M312.312 79.834C312.312 81.4486 311.941 82.7474 311.199 83.7305C310.457 84.707 309.461 85.1953 308.211 85.1953C306.876 85.1953 305.844 84.7233 305.115 83.7793L305.027 85H303.367V70H305.174V75.5957C305.903 74.6908 306.909 74.2383 308.191 74.2383C309.474 74.2383 310.48 74.7233 311.209 75.6934C311.945 76.6634 312.312 77.9915 312.312 79.6777V79.834ZM310.506 79.6289C310.506 78.3984 310.268 77.4479 309.793 76.7773C309.318 76.1068 308.634 75.7715 307.742 75.7715C306.551 75.7715 305.695 76.3249 305.174 77.4316V82.002C305.727 83.1087 306.59 83.6621 307.762 83.6621C308.628 83.6621 309.301 83.3268 309.783 82.6562C310.265 81.9857 310.506 80.9766 310.506 79.6289Z" fill="#CC00FF"/>
<path d="M51.1094 220.488C50.9336 221.992 50.377 223.154 49.4395 223.974C48.5085 224.788 47.2682 225.195 45.7188 225.195C44.0391 225.195 42.6914 224.593 41.6758 223.388C40.6667 222.184 40.1621 220.573 40.1621 218.554V217.187C40.1621 215.866 40.3965 214.704 40.8652 213.701C41.3405 212.698 42.0111 211.93 42.877 211.396C43.7428 210.856 44.7454 210.586 45.8848 210.586C47.3952 210.586 48.6061 211.009 49.5176 211.855C50.429 212.695 50.9596 213.86 51.1094 215.351H49.2246C49.0618 214.219 48.707 213.398 48.1602 212.89C47.6198 212.383 46.8613 212.129 45.8848 212.129C44.6868 212.129 43.7461 212.571 43.0625 213.457C42.3854 214.342 42.0469 215.602 42.0469 217.236V218.613C42.0469 220.156 42.3691 221.383 43.0137 222.295C43.6582 223.206 44.5599 223.662 45.7188 223.662C46.7604 223.662 47.5579 223.427 48.1113 222.959C48.6712 222.483 49.0423 221.66 49.2246 220.488H51.1094ZM52.916 219.619C52.916 218.584 53.1178 217.653 53.5215 216.826C53.9316 215.999 54.498 215.361 55.2207 214.912C55.9499 214.463 56.7799 214.238 57.7109 214.238C59.1497 214.238 60.3118 214.736 61.1973 215.732C62.0892 216.728 62.5352 218.053 62.5352 219.707V219.834C62.5352 220.862 62.3366 221.787 61.9395 222.607C61.5488 223.421 60.9857 224.056 60.25 224.511C59.5208 224.967 58.681 225.195 57.7305 225.195C56.2982 225.195 55.1361 224.697 54.2441 223.701C53.3587 222.705 52.916 221.386 52.916 219.746V219.619ZM54.7324 219.834C54.7324 221.006 55.0026 221.946 55.543 222.656C56.0898 223.366 56.819 223.72 57.7305 223.72C58.6484 223.72 59.3776 223.362 59.918 222.646C60.4583 221.924 60.7285 220.914 60.7285 219.619C60.7285 218.46 60.4518 217.523 59.8984 216.806C59.3516 216.084 58.6224 215.722 57.7109 215.722C56.819 215.722 56.0996 216.077 55.5527 216.787C55.0059 217.497 54.7324 218.512 54.7324 219.834ZM66.7637 225H64.957V210H66.7637V225ZM77.0664 217.011H78.4238C79.2767 216.998 79.9473 216.774 80.4355 216.338C80.9238 215.901 81.168 215.312 81.168 214.57C81.168 212.903 80.3379 212.07 78.6777 212.07C77.8965 212.07 77.2715 212.295 76.8027 212.744C76.3405 213.187 76.1094 213.776 76.1094 214.511H74.3027C74.3027 213.385 74.7129 212.451 75.5332 211.709C76.36 210.96 77.4082 210.586 78.6777 210.586C80.0189 210.586 81.0703 210.941 81.832 211.65C82.5938 212.36 82.9746 213.346 82.9746 214.609C82.9746 215.228 82.7728 215.827 82.3691 216.406C81.972 216.985 81.4284 217.418 80.7383 217.705C81.5195 217.952 82.1217 218.362 82.5449 218.935C82.9746 219.508 83.1895 220.208 83.1895 221.035C83.1895 222.311 82.7728 223.323 81.9395 224.072C81.1061 224.821 80.0221 225.195 78.6875 225.195C77.3529 225.195 76.2656 224.834 75.4258 224.111C74.5924 223.388 74.1758 222.435 74.1758 221.25H75.9922C75.9922 221.998 76.2363 222.597 76.7246 223.047C77.2129 223.496 77.8672 223.72 78.6875 223.72C79.5599 223.72 80.2272 223.493 80.6895 223.037C81.1517 222.581 81.3828 221.927 81.3828 221.074C81.3828 220.247 81.1289 219.612 80.6211 219.17C80.1133 218.727 79.3809 218.499 78.4238 218.486H77.0664V217.011Z" fill="#0094FF"/>
<path d="M21.606 21.4932H18.1782V31H16.7793V21.4932H13.3589V20.3359H21.606V21.4932ZM24.3306 24.0347C24.9312 23.2974 25.7124 22.9287 26.6743 22.9287C28.3491 22.9287 29.1938 23.8735 29.2085 25.7632V31H27.8535V25.7559C27.8486 25.1846 27.7168 24.7622 27.458 24.4888C27.2041 24.2153 26.8062 24.0786 26.2642 24.0786C25.8247 24.0786 25.439 24.1958 25.1069 24.4302C24.7749 24.6646 24.5161 24.9722 24.3306 25.353V31H22.9756V19.75H24.3306V24.0347ZM30.8784 26.9644C30.8784 26.188 31.0298 25.4897 31.3325 24.8696C31.6401 24.2495 32.0649 23.771 32.6069 23.4341C33.1538 23.0972 33.7764 22.9287 34.4746 22.9287C35.5537 22.9287 36.4253 23.3022 37.0894 24.0493C37.7583 24.7964 38.0928 25.79 38.0928 27.0303V27.1255C38.0928 27.897 37.9438 28.5903 37.646 29.2056C37.353 29.8159 36.9307 30.292 36.3789 30.6338C35.832 30.9756 35.2021 31.1465 34.4893 31.1465C33.415 31.1465 32.5435 30.7729 31.8745 30.0259C31.2104 29.2788 30.8784 28.29 30.8784 27.0596V26.9644ZM32.2407 27.1255C32.2407 28.0044 32.4434 28.71 32.8486 29.2422C33.2588 29.7744 33.8057 30.0405 34.4893 30.0405C35.1777 30.0405 35.7246 29.772 36.1299 29.2349C36.5352 28.6929 36.7378 27.936 36.7378 26.9644C36.7378 26.0952 36.5303 25.3921 36.1152 24.855C35.7051 24.313 35.1582 24.042 34.4746 24.042C33.8057 24.042 33.2661 24.3081 32.856 24.8403C32.4458 25.3726 32.2407 26.1343 32.2407 27.1255ZM44.4062 28.8979C44.4062 28.5317 44.2671 28.2485 43.9888 28.0483C43.7153 27.8433 43.2344 27.6675 42.5459 27.521C41.8623 27.3745 41.3179 27.1987 40.9126 26.9937C40.5122 26.7886 40.2144 26.5444 40.019 26.2612C39.8286 25.978 39.7334 25.6411 39.7334 25.2505C39.7334 24.6011 40.0068 24.0518 40.5537 23.6025C41.1055 23.1533 41.8086 22.9287 42.6631 22.9287C43.5615 22.9287 44.2891 23.1606 44.8457 23.6245C45.4072 24.0884 45.688 24.6816 45.688 25.4043H44.3257C44.3257 25.0332 44.167 24.7134 43.8496 24.4448C43.5371 24.1763 43.1416 24.042 42.6631 24.042C42.1699 24.042 41.7842 24.1494 41.5059 24.3643C41.2275 24.5791 41.0884 24.8599 41.0884 25.2065C41.0884 25.5337 41.2178 25.7803 41.4766 25.9463C41.7354 26.1123 42.2017 26.271 42.8755 26.4224C43.5542 26.5737 44.1035 26.7544 44.5234 26.9644C44.9434 27.1743 45.2534 27.4282 45.4536 27.7261C45.6587 28.019 45.7612 28.3779 45.7612 28.8027C45.7612 29.5107 45.478 30.0796 44.9116 30.5093C44.3452 30.9341 43.6104 31.1465 42.707 31.1465C42.0723 31.1465 41.5107 31.0342 41.0225 30.8096C40.5342 30.585 40.1509 30.2725 39.8726 29.8721C39.5991 29.4668 39.4624 29.0298 39.4624 28.561H40.8174C40.8418 29.0151 41.0225 29.3765 41.3594 29.645C41.7012 29.9087 42.1504 30.0405 42.707 30.0405C43.2197 30.0405 43.6299 29.938 43.9375 29.7329C44.25 29.5229 44.4062 29.2446 44.4062 28.8979ZM50.8149 31.1465C49.7407 31.1465 48.8667 30.7949 48.1929 30.0918C47.519 29.3838 47.1821 28.439 47.1821 27.2573V27.0083C47.1821 26.2222 47.3311 25.5215 47.6289 24.9062C47.9316 24.2861 48.3516 23.8027 48.8887 23.4561C49.4307 23.1045 50.0166 22.9287 50.6465 22.9287C51.6768 22.9287 52.4775 23.2681 53.0488 23.9468C53.6201 24.6255 53.9058 25.5972 53.9058 26.8618V27.4258H48.5371C48.5566 28.207 48.7837 28.8394 49.2183 29.3228C49.6577 29.8013 50.2144 30.0405 50.8882 30.0405C51.3667 30.0405 51.772 29.9429 52.104 29.7476C52.436 29.5522 52.7266 29.2935 52.9756 28.9712L53.8032 29.6157C53.1392 30.6362 52.1431 31.1465 50.8149 31.1465ZM50.6465 24.042C50.0996 24.042 49.6406 24.2422 49.2695 24.6426C48.8984 25.0381 48.6689 25.5947 48.5811 26.3125H52.5508V26.21C52.5117 25.5215 52.3262 24.9893 51.9941 24.6133C51.6621 24.2324 51.2129 24.042 50.6465 24.042ZM61.0396 21.1562V23.0752H62.519V24.1226H61.0396V29.0371C61.0396 29.3545 61.1055 29.5938 61.2373 29.7549C61.3691 29.9111 61.5938 29.9893 61.9111 29.9893C62.0674 29.9893 62.2822 29.96 62.5557 29.9014V31C62.1992 31.0977 61.8525 31.1465 61.5156 31.1465C60.9102 31.1465 60.4536 30.9634 60.146 30.5972C59.8384 30.231 59.6846 29.7109 59.6846 29.0371V24.1226H58.2417V23.0752H59.6846V21.1562H61.0396ZM65.4634 24.0347C66.064 23.2974 66.8452 22.9287 67.8071 22.9287C69.4819 22.9287 70.3267 23.8735 70.3413 25.7632V31H68.9863V25.7559C68.9814 25.1846 68.8496 24.7622 68.5908 24.4888C68.3369 24.2153 67.939 24.0786 67.397 24.0786C66.9575 24.0786 66.5718 24.1958 66.2397 24.4302C65.9077 24.6646 65.6489 24.9722 65.4634 25.353V31H64.1084V19.75H65.4634V24.0347ZM76.2007 24.291C75.9956 24.2568 75.7734 24.2397 75.5342 24.2397C74.6455 24.2397 74.0425 24.6182 73.7251 25.375V31H72.3701V23.0752H73.6885L73.7104 23.9907C74.1548 23.2827 74.7847 22.9287 75.6001 22.9287C75.8638 22.9287 76.064 22.9629 76.2007 23.0312V24.291ZM80.5952 31.1465C79.521 31.1465 78.647 30.7949 77.9731 30.0918C77.2993 29.3838 76.9624 28.439 76.9624 27.2573V27.0083C76.9624 26.2222 77.1113 25.5215 77.4092 24.9062C77.7119 24.2861 78.1318 23.8027 78.6689 23.4561C79.2109 23.1045 79.7969 22.9287 80.4268 22.9287C81.457 22.9287 82.2578 23.2681 82.8291 23.9468C83.4004 24.6255 83.686 25.5972 83.686 26.8618V27.4258H78.3174C78.3369 28.207 78.564 28.8394 78.9985 29.3228C79.438 29.8013 79.9946 30.0405 80.6685 30.0405C81.147 30.0405 81.5522 29.9429 81.8843 29.7476C82.2163 29.5522 82.5068 29.2935 82.7559 28.9712L83.5835 29.6157C82.9194 30.6362 81.9233 31.1465 80.5952 31.1465ZM80.4268 24.042C79.8799 24.042 79.4209 24.2422 79.0498 24.6426C78.6787 25.0381 78.4492 25.5947 78.3613 26.3125H82.3311V26.21C82.292 25.5215 82.1064 24.9893 81.7744 24.6133C81.4424 24.2324 80.9932 24.042 80.4268 24.042ZM88.5493 31.1465C87.4751 31.1465 86.6011 30.7949 85.9272 30.0918C85.2534 29.3838 84.9165 28.439 84.9165 27.2573V27.0083C84.9165 26.2222 85.0654 25.5215 85.3633 24.9062C85.666 24.2861 86.0859 23.8027 86.623 23.4561C87.165 23.1045 87.751 22.9287 88.3809 22.9287C89.4111 22.9287 90.2119 23.2681 90.7832 23.9468C91.3545 24.6255 91.6401 25.5972 91.6401 26.8618V27.4258H86.2715C86.291 28.207 86.5181 28.8394 86.9526 29.3228C87.3921 29.8013 87.9487 30.0405 88.6226 30.0405C89.1011 30.0405 89.5063 29.9429 89.8384 29.7476C90.1704 29.5522 90.4609 29.2935 90.71 28.9712L91.5376 29.6157C90.8735 30.6362 89.8774 31.1465 88.5493 31.1465ZM88.3809 24.042C87.834 24.042 87.375 24.2422 87.0039 24.6426C86.6328 25.0381 86.4033 25.5947 86.3154 26.3125H90.2852V26.21C90.2461 25.5215 90.0605 24.9893 89.7285 24.6133C89.3965 24.2324 88.9473 24.042 88.3809 24.042ZM100.114 30.0405C100.598 30.0405 101.02 29.894 101.381 29.6011C101.743 29.3081 101.943 28.9419 101.982 28.5024H103.264C103.239 28.9565 103.083 29.3887 102.795 29.7988C102.507 30.209 102.121 30.5361 101.638 30.7803C101.159 31.0244 100.651 31.1465 100.114 31.1465C99.0352 31.1465 98.1758 30.7876 97.5361 30.0698C96.9014 29.3472 96.584 28.3608 96.584 27.1108V26.8838C96.584 26.1123 96.7256 25.4263 97.0088 24.8257C97.292 24.2251 97.6973 23.7588 98.2246 23.4268C98.7568 23.0947 99.3843 22.9287 100.107 22.9287C100.996 22.9287 101.733 23.1948 102.319 23.7271C102.91 24.2593 103.225 24.9502 103.264 25.7998H101.982C101.943 25.2871 101.748 24.8672 101.396 24.54C101.049 24.208 100.62 24.042 100.107 24.042C99.4185 24.042 98.8838 24.291 98.5029 24.7891C98.127 25.2822 97.939 25.9976 97.939 26.9351V27.1914C97.939 28.1045 98.127 28.8076 98.5029 29.3008C98.8789 29.7939 99.416 30.0405 100.114 30.0405ZM104.428 26.9644C104.428 26.188 104.58 25.4897 104.882 24.8696C105.19 24.2495 105.615 23.771 106.157 23.4341C106.704 23.0972 107.326 22.9287 108.024 22.9287C109.104 22.9287 109.975 23.3022 110.639 24.0493C111.308 24.7964 111.643 25.79 111.643 27.0303V27.1255C111.643 27.897 111.494 28.5903 111.196 29.2056C110.903 29.8159 110.48 30.292 109.929 30.6338C109.382 30.9756 108.752 31.1465 108.039 31.1465C106.965 31.1465 106.093 30.7729 105.424 30.0259C104.76 29.2788 104.428 28.29 104.428 27.0596V26.9644ZM105.791 27.1255C105.791 28.0044 105.993 28.71 106.398 29.2422C106.809 29.7744 107.355 30.0405 108.039 30.0405C108.728 30.0405 109.274 29.772 109.68 29.2349C110.085 28.6929 110.288 27.936 110.288 26.9644C110.288 26.0952 110.08 25.3921 109.665 24.855C109.255 24.313 108.708 24.042 108.024 24.042C107.355 24.042 106.816 24.3081 106.406 24.8403C105.996 25.3726 105.791 26.1343 105.791 27.1255ZM114.814 31H113.459V19.75H114.814V31ZM121.882 30.2163C121.354 30.8364 120.581 31.1465 119.56 31.1465C118.715 31.1465 118.071 30.9023 117.626 30.4141C117.187 29.9209 116.965 29.1934 116.96 28.2314V23.0752H118.315V28.1948C118.315 29.396 118.803 29.9966 119.78 29.9966C120.815 29.9966 121.503 29.6108 121.845 28.8394V23.0752H123.2V31H121.911L121.882 30.2163ZM126.54 23.0752L126.577 23.9541C127.158 23.2705 127.941 22.9287 128.928 22.9287C130.036 22.9287 130.791 23.3535 131.191 24.2031C131.455 23.8223 131.796 23.5146 132.216 23.2803C132.641 23.0459 133.142 22.9287 133.718 22.9287C135.456 22.9287 136.34 23.8491 136.369 25.6899V31H135.014V25.7705C135.014 25.2041 134.885 24.7817 134.626 24.5034C134.367 24.2202 133.933 24.0786 133.322 24.0786C132.819 24.0786 132.402 24.23 132.07 24.5327C131.738 24.8306 131.545 25.2334 131.491 25.7412V31H130.129V25.8071C130.129 24.6548 129.565 24.0786 128.437 24.0786C127.548 24.0786 126.94 24.457 126.613 25.2139V31H125.258V23.0752H126.54ZM139.702 23.0752L139.746 24.0713C140.351 23.3096 141.142 22.9287 142.119 22.9287C143.793 22.9287 144.638 23.8735 144.653 25.7632V31H143.298V25.7559C143.293 25.1846 143.161 24.7622 142.902 24.4888C142.648 24.2153 142.25 24.0786 141.708 24.0786C141.269 24.0786 140.883 24.1958 140.551 24.4302C140.219 24.6646 139.96 24.9722 139.775 25.353V31H138.42V23.0752H139.702ZM151.311 28.8979C151.311 28.5317 151.171 28.2485 150.893 28.0483C150.62 27.8433 150.139 27.6675 149.45 27.521C148.767 27.3745 148.222 27.1987 147.817 26.9937C147.417 26.7886 147.119 26.5444 146.923 26.2612C146.733 25.978 146.638 25.6411 146.638 25.2505C146.638 24.6011 146.911 24.0518 147.458 23.6025C148.01 23.1533 148.713 22.9287 149.567 22.9287C150.466 22.9287 151.193 23.1606 151.75 23.6245C152.312 24.0884 152.592 24.6816 152.592 25.4043H151.23C151.23 25.0332 151.071 24.7134 150.754 24.4448C150.441 24.1763 150.046 24.042 149.567 24.042C149.074 24.042 148.688 24.1494 148.41 24.3643C148.132 24.5791 147.993 24.8599 147.993 25.2065C147.993 25.5337 148.122 25.7803 148.381 25.9463C148.64 26.1123 149.106 26.271 149.78 26.4224C150.458 26.5737 151.008 26.7544 151.428 26.9644C151.848 27.1743 152.158 27.4282 152.358 27.7261C152.563 28.019 152.666 28.3779 152.666 28.8027C152.666 29.5107 152.382 30.0796 151.816 30.5093C151.25 30.9341 150.515 31.1465 149.611 31.1465C148.977 31.1465 148.415 31.0342 147.927 30.8096C147.438 30.585 147.055 30.2725 146.777 29.8721C146.503 29.4668 146.367 29.0298 146.367 28.561H147.722C147.746 29.0151 147.927 29.3765 148.264 29.645C148.605 29.9087 149.055 30.0405 149.611 30.0405C150.124 30.0405 150.534 29.938 150.842 29.7329C151.154 29.5229 151.311 29.2446 151.311 28.8979ZM163.044 31C162.966 30.8438 162.902 30.5654 162.854 30.165C162.224 30.8193 161.472 31.1465 160.598 31.1465C159.816 31.1465 159.174 30.9268 158.671 30.4873C158.173 30.043 157.924 29.4814 157.924 28.8027C157.924 27.9775 158.237 27.3379 158.862 26.8838C159.492 26.4248 160.375 26.1953 161.513 26.1953H162.832V25.5728C162.832 25.0991 162.69 24.7231 162.407 24.4448C162.124 24.1616 161.706 24.02 161.154 24.02C160.671 24.02 160.266 24.1421 159.938 24.3862C159.611 24.6304 159.448 24.9258 159.448 25.2725H158.085C158.085 24.877 158.225 24.4961 158.503 24.1299C158.786 23.7588 159.167 23.4658 159.646 23.251C160.129 23.0361 160.659 22.9287 161.235 22.9287C162.148 22.9287 162.863 23.1582 163.381 23.6172C163.898 24.0713 164.167 24.6987 164.187 25.4995V29.147C164.187 29.8745 164.279 30.4531 164.465 30.8828V31H163.044ZM160.795 29.9673C161.22 29.9673 161.623 29.8574 162.004 29.6377C162.385 29.418 162.661 29.1323 162.832 28.7808V27.1548H161.77C160.109 27.1548 159.279 27.6406 159.279 28.6123C159.279 29.0371 159.421 29.3691 159.704 29.6084C159.987 29.8477 160.351 29.9673 160.795 29.9673ZM170.141 24.291C169.936 24.2568 169.714 24.2397 169.475 24.2397C168.586 24.2397 167.983 24.6182 167.666 25.375V31H166.311V23.0752H167.629L167.651 23.9907C168.095 23.2827 168.725 22.9287 169.541 22.9287C169.804 22.9287 170.004 22.9629 170.141 23.0312V24.291ZM174.536 31.1465C173.461 31.1465 172.587 30.7949 171.914 30.0918C171.24 29.3838 170.903 28.439 170.903 27.2573V27.0083C170.903 26.2222 171.052 25.5215 171.35 24.9062C171.652 24.2861 172.072 23.8027 172.609 23.4561C173.151 23.1045 173.737 22.9287 174.367 22.9287C175.397 22.9287 176.198 23.2681 176.77 23.9468C177.341 24.6255 177.626 25.5972 177.626 26.8618V27.4258H172.258C172.277 28.207 172.504 28.8394 172.939 29.3228C173.378 29.8013 173.935 30.0405 174.609 30.0405C175.087 30.0405 175.493 29.9429 175.825 29.7476C176.157 29.5522 176.447 29.2935 176.696 28.9712L177.524 29.6157C176.86 30.6362 175.864 31.1465 174.536 31.1465ZM174.367 24.042C173.82 24.042 173.361 24.2422 172.99 24.6426C172.619 25.0381 172.39 25.5947 172.302 26.3125H176.271V26.21C176.232 25.5215 176.047 24.9893 175.715 24.6133C175.383 24.2324 174.934 24.042 174.367 24.042ZM184.394 31H183.039V19.75H184.394V31ZM188.042 31H186.687V23.0752H188.042V31ZM186.577 20.9731C186.577 20.7534 186.643 20.5679 186.774 20.4165C186.911 20.2651 187.111 20.1895 187.375 20.1895C187.639 20.1895 187.839 20.2651 187.976 20.4165C188.112 20.5679 188.181 20.7534 188.181 20.9731C188.181 21.1929 188.112 21.376 187.976 21.5225C187.839 21.6689 187.639 21.7422 187.375 21.7422C187.111 21.7422 186.911 21.6689 186.774 21.5225C186.643 21.376 186.577 21.1929 186.577 20.9731ZM193.505 31.1465C192.431 31.1465 191.557 30.7949 190.883 30.0918C190.209 29.3838 189.873 28.439 189.873 27.2573V27.0083C189.873 26.2222 190.021 25.5215 190.319 24.9062C190.622 24.2861 191.042 23.8027 191.579 23.4561C192.121 23.1045 192.707 22.9287 193.337 22.9287C194.367 22.9287 195.168 23.2681 195.739 23.9468C196.311 24.6255 196.596 25.5972 196.596 26.8618V27.4258H191.228C191.247 28.207 191.474 28.8394 191.909 29.3228C192.348 29.8013 192.905 30.0405 193.579 30.0405C194.057 30.0405 194.462 29.9429 194.794 29.7476C195.126 29.5522 195.417 29.2935 195.666 28.9712L196.494 29.6157C195.83 30.6362 194.833 31.1465 193.505 31.1465ZM193.337 24.042C192.79 24.042 192.331 24.2422 191.96 24.6426C191.589 25.0381 191.359 25.5947 191.271 26.3125H195.241V26.21C195.202 25.5215 195.017 24.9893 194.685 24.6133C194.353 24.2324 193.903 24.042 193.337 24.042ZM203.364 31H202.009V23.0752H203.364V31ZM201.899 20.9731C201.899 20.7534 201.965 20.5679 202.097 20.4165C202.233 20.2651 202.434 20.1895 202.697 20.1895C202.961 20.1895 203.161 20.2651 203.298 20.4165C203.435 20.5679 203.503 20.7534 203.503 20.9731C203.503 21.1929 203.435 21.376 203.298 21.5225C203.161 21.6689 202.961 21.7422 202.697 21.7422C202.434 21.7422 202.233 21.6689 202.097 21.5225C201.965 21.376 201.899 21.1929 201.899 20.9731ZM206.821 23.0752L206.865 24.0713C207.47 23.3096 208.261 22.9287 209.238 22.9287C210.913 22.9287 211.757 23.8735 211.772 25.7632V31H210.417V25.7559C210.412 25.1846 210.28 24.7622 210.021 24.4888C209.768 24.2153 209.37 24.0786 208.828 24.0786C208.388 24.0786 208.002 24.1958 207.67 24.4302C207.338 24.6646 207.08 24.9722 206.894 25.353V31H205.539V23.0752H206.821ZM222.15 28.8979C222.15 28.5317 222.011 28.2485 221.733 28.0483C221.459 27.8433 220.979 27.6675 220.29 27.521C219.606 27.3745 219.062 27.1987 218.657 26.9937C218.256 26.7886 217.958 26.5444 217.763 26.2612C217.573 25.978 217.478 25.6411 217.478 25.2505C217.478 24.6011 217.751 24.0518 218.298 23.6025C218.85 23.1533 219.553 22.9287 220.407 22.9287C221.306 22.9287 222.033 23.1606 222.59 23.6245C223.151 24.0884 223.432 24.6816 223.432 25.4043H222.07C222.07 25.0332 221.911 24.7134 221.594 24.4448C221.281 24.1763 220.886 24.042 220.407 24.042C219.914 24.042 219.528 24.1494 219.25 24.3643C218.972 24.5791 218.833 24.8599 218.833 25.2065C218.833 25.5337 218.962 25.7803 219.221 25.9463C219.479 26.1123 219.946 26.271 220.62 26.4224C221.298 26.5737 221.848 26.7544 222.268 26.9644C222.688 27.1743 222.998 27.4282 223.198 27.7261C223.403 28.019 223.505 28.3779 223.505 28.8027C223.505 29.5107 223.222 30.0796 222.656 30.5093C222.089 30.9341 221.354 31.1465 220.451 31.1465C219.816 31.1465 219.255 31.0342 218.767 30.8096C218.278 30.585 217.895 30.2725 217.617 29.8721C217.343 29.4668 217.207 29.0298 217.207 28.561H218.562C218.586 29.0151 218.767 29.3765 219.104 29.645C219.445 29.9087 219.895 30.0405 220.451 30.0405C220.964 30.0405 221.374 29.938 221.682 29.7329C221.994 29.5229 222.15 29.2446 222.15 28.8979ZM230.163 31C230.085 30.8438 230.021 30.5654 229.973 30.165C229.343 30.8193 228.591 31.1465 227.717 31.1465C226.936 31.1465 226.293 30.9268 225.791 30.4873C225.292 30.043 225.043 29.4814 225.043 28.8027C225.043 27.9775 225.356 27.3379 225.981 26.8838C226.611 26.4248 227.495 26.1953 228.632 26.1953H229.951V25.5728C229.951 25.0991 229.809 24.7231 229.526 24.4448C229.243 24.1616 228.825 24.02 228.273 24.02C227.79 24.02 227.385 24.1421 227.058 24.3862C226.73 24.6304 226.567 24.9258 226.567 25.2725H225.205C225.205 24.877 225.344 24.4961 225.622 24.1299C225.905 23.7588 226.286 23.4658 226.765 23.251C227.248 23.0361 227.778 22.9287 228.354 22.9287C229.267 22.9287 229.982 23.1582 230.5 23.6172C231.018 24.0713 231.286 24.6987 231.306 25.4995V29.147C231.306 29.8745 231.398 30.4531 231.584 30.8828V31H230.163ZM227.915 29.9673C228.339 29.9673 228.742 29.8574 229.123 29.6377C229.504 29.418 229.78 29.1323 229.951 28.7808V27.1548H228.889C227.229 27.1548 226.398 27.6406 226.398 28.6123C226.398 29.0371 226.54 29.3691 226.823 29.6084C227.106 29.8477 227.47 29.9673 227.915 29.9673ZM234.704 23.0752L234.741 23.9541C235.322 23.2705 236.105 22.9287 237.092 22.9287C238.2 22.9287 238.955 23.3535 239.355 24.2031C239.619 23.8223 239.96 23.5146 240.38 23.2803C240.805 23.0459 241.306 22.9287 241.882 22.9287C243.62 22.9287 244.504 23.8491 244.533 25.6899V31H243.178V25.7705C243.178 25.2041 243.049 24.7817 242.79 24.5034C242.531 24.2202 242.097 24.0786 241.486 24.0786C240.983 24.0786 240.566 24.23 240.234 24.5327C239.902 24.8306 239.709 25.2334 239.655 25.7412V31H238.293V25.8071C238.293 24.6548 237.729 24.0786 236.601 24.0786C235.712 24.0786 235.104 24.457 234.777 25.2139V31H233.422V23.0752H234.704ZM249.873 31.1465C248.798 31.1465 247.924 30.7949 247.25 30.0918C246.577 29.3838 246.24 28.439 246.24 27.2573V27.0083C246.24 26.2222 246.389 25.5215 246.687 24.9062C246.989 24.2861 247.409 23.8027 247.946 23.4561C248.488 23.1045 249.074 22.9287 249.704 22.9287C250.734 22.9287 251.535 23.2681 252.106 23.9468C252.678 24.6255 252.963 25.5972 252.963 26.8618V27.4258H247.595C247.614 28.207 247.841 28.8394 248.276 29.3228C248.715 29.8013 249.272 30.0405 249.946 30.0405C250.424 30.0405 250.83 29.9429 251.162 29.7476C251.494 29.5522 251.784 29.2935 252.033 28.9712L252.861 29.6157C252.197 30.6362 251.201 31.1465 249.873 31.1465ZM249.704 24.042C249.157 24.042 248.698 24.2422 248.327 24.6426C247.956 25.0381 247.727 25.5947 247.639 26.3125H251.608V26.21C251.569 25.5215 251.384 24.9893 251.052 24.6133C250.72 24.2324 250.271 24.042 249.704 24.042ZM264.953 27.1255C264.953 28.3315 264.677 29.3032 264.125 30.0405C263.574 30.7778 262.827 31.1465 261.884 31.1465C260.922 31.1465 260.166 30.8413 259.614 30.231V34.0469H258.259V23.0752H259.497L259.562 23.9541C260.114 23.2705 260.881 22.9287 261.862 22.9287C262.814 22.9287 263.566 23.2876 264.118 24.0054C264.675 24.7231 264.953 25.7217 264.953 27.001V27.1255ZM263.598 26.9717C263.598 26.0781 263.408 25.3726 263.027 24.855C262.646 24.3374 262.124 24.0786 261.459 24.0786C260.639 24.0786 260.024 24.4424 259.614 25.1699V28.9565C260.019 29.6792 260.639 30.0405 261.474 30.0405C262.124 30.0405 262.639 29.7842 263.02 29.2715C263.405 28.7539 263.598 27.9873 263.598 26.9717ZM268.154 31H266.799V19.75H268.154V31ZM275.222 31C275.144 30.8438 275.08 30.5654 275.031 30.165C274.401 30.8193 273.649 31.1465 272.775 31.1465C271.994 31.1465 271.352 30.9268 270.849 30.4873C270.351 30.043 270.102 29.4814 270.102 28.8027C270.102 27.9775 270.415 27.3379 271.04 26.8838C271.669 26.4248 272.553 26.1953 273.691 26.1953H275.009V25.5728C275.009 25.0991 274.868 24.7231 274.584 24.4448C274.301 24.1616 273.884 24.02 273.332 24.02C272.849 24.02 272.443 24.1421 272.116 24.3862C271.789 24.6304 271.625 24.9258 271.625 25.2725H270.263C270.263 24.877 270.402 24.4961 270.681 24.1299C270.964 23.7588 271.345 23.4658 271.823 23.251C272.307 23.0361 272.836 22.9287 273.413 22.9287C274.326 22.9287 275.041 23.1582 275.559 23.6172C276.076 24.0713 276.345 24.6987 276.364 25.4995V29.147C276.364 29.8745 276.457 30.4531 276.643 30.8828V31H275.222ZM272.973 29.9673C273.398 29.9673 273.801 29.8574 274.182 29.6377C274.562 29.418 274.838 29.1323 275.009 28.7808V27.1548H273.947C272.287 27.1548 271.457 27.6406 271.457 28.6123C271.457 29.0371 271.599 29.3691 271.882 29.6084C272.165 29.8477 272.529 29.9673 272.973 29.9673ZM279.77 23.0752L279.814 24.0713C280.419 23.3096 281.21 22.9287 282.187 22.9287C283.862 22.9287 284.707 23.8735 284.721 25.7632V31H283.366V25.7559C283.361 25.1846 283.229 24.7622 282.971 24.4888C282.717 24.2153 282.319 24.0786 281.777 24.0786C281.337 24.0786 280.952 24.1958 280.62 24.4302C280.288 24.6646 280.029 24.9722 279.843 25.353V31H278.488V23.0752H279.77ZM290.053 31.1465C288.979 31.1465 288.105 30.7949 287.431 30.0918C286.757 29.3838 286.42 28.439 286.42 27.2573V27.0083C286.42 26.2222 286.569 25.5215 286.867 24.9062C287.17 24.2861 287.59 23.8027 288.127 23.4561C288.669 23.1045 289.255 22.9287 289.885 22.9287C290.915 22.9287 291.716 23.2681 292.287 23.9468C292.858 24.6255 293.144 25.5972 293.144 26.8618V27.4258H287.775C287.795 28.207 288.022 28.8394 288.457 29.3228C288.896 29.8013 289.453 30.0405 290.126 30.0405C290.605 30.0405 291.01 29.9429 291.342 29.7476C291.674 29.5522 291.965 29.2935 292.214 28.9712L293.042 29.6157C292.377 30.6362 291.381 31.1465 290.053 31.1465ZM289.885 24.042C289.338 24.042 288.879 24.2422 288.508 24.6426C288.137 25.0381 287.907 25.5947 287.819 26.3125H291.789V26.21C291.75 25.5215 291.564 24.9893 291.232 24.6133C290.9 24.2324 290.451 24.042 289.885 24.042ZM303.332 31C303.254 30.8438 303.19 30.5654 303.142 30.165C302.512 30.8193 301.76 31.1465 300.886 31.1465C300.104 31.1465 299.462 30.9268 298.959 30.4873C298.461 30.043 298.212 29.4814 298.212 28.8027C298.212 27.9775 298.525 27.3379 299.15 26.8838C299.78 26.4248 300.664 26.1953 301.801 26.1953H303.12V25.5728C303.12 25.0991 302.978 24.7231 302.695 24.4448C302.412 24.1616 301.994 24.02 301.442 24.02C300.959 24.02 300.554 24.1421 300.227 24.3862C299.899 24.6304 299.736 24.9258 299.736 25.2725H298.374C298.374 24.877 298.513 24.4961 298.791 24.1299C299.074 23.7588 299.455 23.4658 299.934 23.251C300.417 23.0361 300.947 22.9287 301.523 22.9287C302.436 22.9287 303.151 23.1582 303.669 23.6172C304.187 24.0713 304.455 24.6987 304.475 25.4995V29.147C304.475 29.8745 304.567 30.4531 304.753 30.8828V31H303.332ZM301.083 29.9673C301.508 29.9673 301.911 29.8574 302.292 29.6377C302.673 29.418 302.949 29.1323 303.12 28.7808V27.1548H302.058C300.397 27.1548 299.567 27.6406 299.567 28.6123C299.567 29.0371 299.709 29.3691 299.992 29.6084C300.275 29.8477 300.639 29.9673 301.083 29.9673ZM310.429 24.291C310.224 24.2568 310.002 24.2397 309.763 24.2397C308.874 24.2397 308.271 24.6182 307.954 25.375V31H306.599V23.0752H307.917L307.939 23.9907C308.383 23.2827 309.013 22.9287 309.829 22.9287C310.092 22.9287 310.292 22.9629 310.429 23.0312V24.291ZM314.824 31.1465C313.75 31.1465 312.875 30.7949 312.202 30.0918C311.528 29.3838 311.191 28.439 311.191 27.2573V27.0083C311.191 26.2222 311.34 25.5215 311.638 24.9062C311.94 24.2861 312.36 23.8027 312.897 23.4561C313.439 23.1045 314.025 22.9287 314.655 22.9287C315.686 22.9287 316.486 23.2681 317.058 23.9468C317.629 24.6255 317.915 25.5972 317.915 26.8618V27.4258H312.546C312.565 28.207 312.792 28.8394 313.227 29.3228C313.667 29.8013 314.223 30.0405 314.897 30.0405C315.375 30.0405 315.781 29.9429 316.113 29.7476C316.445 29.5522 316.735 29.2935 316.984 28.9712L317.812 29.6157C317.148 30.6362 316.152 31.1465 314.824 31.1465ZM314.655 24.042C314.108 24.042 313.649 24.2422 313.278 24.6426C312.907 25.0381 312.678 25.5947 312.59 26.3125H316.56V26.21C316.521 25.5215 316.335 24.9893 316.003 24.6133C315.671 24.2324 315.222 24.042 314.655 24.042ZM324.492 23.0752L324.536 24.0713C325.141 23.3096 325.932 22.9287 326.909 22.9287C328.583 22.9287 329.428 23.8735 329.443 25.7632V31H328.088V25.7559C328.083 25.1846 327.951 24.7622 327.692 24.4888C327.438 24.2153 327.041 24.0786 326.499 24.0786C326.059 24.0786 325.673 24.1958 325.341 24.4302C325.009 24.6646 324.75 24.9722 324.565 25.353V31H323.21V23.0752H324.492ZM331.127 26.9644C331.127 26.188 331.279 25.4897 331.582 24.8696C331.889 24.2495 332.314 23.771 332.856 23.4341C333.403 23.0972 334.025 22.9287 334.724 22.9287C335.803 22.9287 336.674 23.3022 337.338 24.0493C338.007 24.7964 338.342 25.79 338.342 27.0303V27.1255C338.342 27.897 338.193 28.5903 337.895 29.2056C337.602 29.8159 337.18 30.292 336.628 30.6338C336.081 30.9756 335.451 31.1465 334.738 31.1465C333.664 31.1465 332.792 30.7729 332.124 30.0259C331.459 29.2788 331.127 28.29 331.127 27.0596V26.9644ZM332.49 27.1255C332.49 28.0044 332.692 28.71 333.098 29.2422C333.508 29.7744 334.055 30.0405 334.738 30.0405C335.427 30.0405 335.974 29.772 336.379 29.2349C336.784 28.6929 336.987 27.936 336.987 26.9644C336.987 26.0952 336.779 25.3921 336.364 24.855C335.954 24.313 335.407 24.042 334.724 24.042C334.055 24.042 333.515 24.3081 333.105 24.8403C332.695 25.3726 332.49 26.1343 332.49 27.1255ZM341.879 21.1562V23.0752H343.359V24.1226H341.879V29.0371C341.879 29.3545 341.945 29.5938 342.077 29.7549C342.209 29.9111 342.434 29.9893 342.751 29.9893C342.907 29.9893 343.122 29.96 343.396 29.9014V31C343.039 31.0977 342.692 31.1465 342.355 31.1465C341.75 31.1465 341.293 30.9634 340.986 30.5972C340.678 30.231 340.524 29.7109 340.524 29.0371V24.1226H339.082V23.0752H340.524V21.1562H341.879ZM18.918 49C18.8398 48.8438 18.7764 48.5654 18.7275 48.165C18.0977 48.8193 17.3457 49.1465 16.4717 49.1465C15.6904 49.1465 15.0483 48.9268 14.5454 48.4873C14.0474 48.043 13.7983 47.4814 13.7983 46.8027C13.7983 45.9775 14.1108 45.3379 14.7358 44.8838C15.3657 44.4248 16.2495 44.1953 17.3872 44.1953H18.7056V43.5728C18.7056 43.0991 18.564 42.7231 18.2808 42.4448C17.9976 42.1616 17.5801 42.02 17.0283 42.02C16.5449 42.02 16.1396 42.1421 15.8125 42.3862C15.4854 42.6304 15.3218 42.9258 15.3218 43.2725H13.9595C13.9595 42.877 14.0986 42.4961 14.377 42.1299C14.6602 41.7588 15.041 41.4658 15.5195 41.251C16.0029 41.0361 16.5327 40.9287 17.1089 40.9287C18.022 40.9287 18.7373 41.1582 19.2549 41.6172C19.7725 42.0713 20.041 42.6987 20.0605 43.4995V47.147C20.0605 47.8745 20.1533 48.4531 20.3389 48.8828V49H18.918ZM16.6694 47.9673C17.0942 47.9673 17.4971 47.8574 17.8779 47.6377C18.2588 47.418 18.5347 47.1323 18.7056 46.7808V45.1548H17.6436C15.9834 45.1548 15.1533 45.6406 15.1533 46.6123C15.1533 47.0371 15.2949 47.3691 15.5781 47.6084C15.8613 47.8477 16.2251 47.9673 16.6694 47.9673ZM28.8936 45.1255C28.8936 46.3364 28.6152 47.3105 28.0586 48.0479C27.502 48.7803 26.7549 49.1465 25.8174 49.1465C24.8164 49.1465 24.0425 48.7925 23.4956 48.0845L23.4297 49H22.1846V37.75H23.5396V41.9468C24.0864 41.2681 24.8408 40.9287 25.8027 40.9287C26.7646 40.9287 27.519 41.2925 28.0659 42.02C28.6177 42.7476 28.8936 43.7437 28.8936 45.0083V45.1255ZM27.5386 44.9717C27.5386 44.0488 27.3604 43.3359 27.0039 42.833C26.6475 42.3301 26.1348 42.0786 25.4658 42.0786C24.5723 42.0786 23.9302 42.4937 23.5396 43.3237V46.7515C23.9546 47.5815 24.6016 47.9966 25.4805 47.9966C26.1299 47.9966 26.6353 47.7451 26.9966 47.2422C27.3579 46.7393 27.5386 45.9824 27.5386 44.9717ZM32.0796 49H30.7246V37.75H32.0796V49ZM37.5435 49.1465C36.4692 49.1465 35.5952 48.7949 34.9214 48.0918C34.2476 47.3838 33.9106 46.439 33.9106 45.2573V45.0083C33.9106 44.2222 34.0596 43.5215 34.3574 42.9062C34.6602 42.2861 35.0801 41.8027 35.6172 41.4561C36.1592 41.1045 36.7451 40.9287 37.375 40.9287C38.4053 40.9287 39.2061 41.2681 39.7773 41.9468C40.3486 42.6255 40.6343 43.5972 40.6343 44.8618V45.4258H35.2656C35.2852 46.207 35.5122 46.8394 35.9468 47.3228C36.3862 47.8013 36.9429 48.0405 37.6167 48.0405C38.0952 48.0405 38.5005 47.9429 38.8325 47.7476C39.1646 47.5522 39.4551 47.2935 39.7041 46.9712L40.5317 47.6157C39.8677 48.6362 38.8716 49.1465 37.5435 49.1465ZM37.375 42.042C36.8281 42.042 36.3691 42.2422 35.998 42.6426C35.627 43.0381 35.3975 43.5947 35.3096 44.3125H39.2793V44.21C39.2402 43.5215 39.0547 42.9893 38.7227 42.6133C38.3906 42.2324 37.9414 42.042 37.375 42.042ZM47.7681 39.1562V41.0752H49.2476V42.1226H47.7681V47.0371C47.7681 47.3545 47.834 47.5938 47.9658 47.7549C48.0977 47.9111 48.3223 47.9893 48.6396 47.9893C48.7959 47.9893 49.0107 47.96 49.2842 47.9014V49C48.9277 49.0977 48.5811 49.1465 48.2441 49.1465C47.6387 49.1465 47.1821 48.9634 46.8745 48.5972C46.5669 48.231 46.4131 47.7109 46.4131 47.0371V42.1226H44.9702V41.0752H46.4131V39.1562H47.7681ZM50.3315 44.9644C50.3315 44.188 50.4829 43.4897 50.7856 42.8696C51.0933 42.2495 51.5181 41.771 52.0601 41.4341C52.6069 41.0972 53.2295 40.9287 53.9277 40.9287C55.0068 40.9287 55.8784 41.3022 56.5425 42.0493C57.2114 42.7964 57.5459 43.79 57.5459 45.0303V45.1255C57.5459 45.897 57.397 46.5903 57.0991 47.2056C56.8062 47.8159 56.3838 48.292 55.832 48.6338C55.2852 48.9756 54.6553 49.1465 53.9424 49.1465C52.8682 49.1465 51.9966 48.7729 51.3276 48.0259C50.6636 47.2788 50.3315 46.29 50.3315 45.0596V44.9644ZM51.6938 45.1255C51.6938 46.0044 51.8965 46.71 52.3018 47.2422C52.7119 47.7744 53.2588 48.0405 53.9424 48.0405C54.6309 48.0405 55.1777 47.772 55.583 47.2349C55.9883 46.6929 56.1909 45.936 56.1909 44.9644C56.1909 44.0952 55.9834 43.3921 55.5684 42.855C55.1582 42.313 54.6113 42.042 53.9277 42.042C53.2588 42.042 52.7192 42.3081 52.3091 42.8403C51.8989 43.3726 51.6938 44.1343 51.6938 45.1255ZM69.6602 45.1255C69.6602 46.3315 69.3843 47.3032 68.8325 48.0405C68.2808 48.7778 67.5337 49.1465 66.5913 49.1465C65.6294 49.1465 64.8726 48.8413 64.3208 48.231V52.0469H62.9658V41.0752H64.2036L64.2695 41.9541C64.8213 41.2705 65.5879 40.9287 66.5693 40.9287C67.5215 40.9287 68.2734 41.2876 68.8252 42.0054C69.3818 42.7231 69.6602 43.7217 69.6602 45.001V45.1255ZM68.3052 44.9717C68.3052 44.0781 68.1147 43.3726 67.7339 42.855C67.353 42.3374 66.8306 42.0786 66.1665 42.0786C65.3462 42.0786 64.731 42.4424 64.3208 43.1699V46.9565C64.7261 47.6792 65.3462 48.0405 66.1812 48.0405C66.8306 48.0405 67.3457 47.7842 67.7266 47.2715C68.1123 46.7539 68.3052 45.9873 68.3052 44.9717ZM75.2192 42.291C75.0142 42.2568 74.792 42.2397 74.5527 42.2397C73.6641 42.2397 73.061 42.6182 72.7437 43.375V49H71.3887V41.0752H72.707L72.729 41.9907C73.1733 41.2827 73.8032 40.9287 74.6187 40.9287C74.8823 40.9287 75.0825 40.9629 75.2192 41.0312V42.291ZM75.9663 44.9644C75.9663 44.188 76.1177 43.4897 76.4204 42.8696C76.728 42.2495 77.1528 41.771 77.6948 41.4341C78.2417 41.0972 78.8643 40.9287 79.5625 40.9287C80.6416 40.9287 81.5132 41.3022 82.1772 42.0493C82.8462 42.7964 83.1807 43.79 83.1807 45.0303V45.1255C83.1807 45.897 83.0317 46.5903 82.7339 47.2056C82.4409 47.8159 82.0186 48.292 81.4668 48.6338C80.9199 48.9756 80.29 49.1465 79.5771 49.1465C78.5029 49.1465 77.6313 48.7729 76.9624 48.0259C76.2983 47.2788 75.9663 46.29 75.9663 45.0596V44.9644ZM77.3286 45.1255C77.3286 46.0044 77.5312 46.71 77.9365 47.2422C78.3467 47.7744 78.8936 48.0405 79.5771 48.0405C80.2656 48.0405 80.8125 47.772 81.2178 47.2349C81.623 46.6929 81.8257 45.936 81.8257 44.9644C81.8257 44.0952 81.6182 43.3921 81.2031 42.855C80.793 42.313 80.2461 42.042 79.5625 42.042C78.8936 42.042 78.354 42.3081 77.9438 42.8403C77.5337 43.3726 77.3286 44.1343 77.3286 45.1255ZM84.5503 44.9717C84.5503 43.7559 84.8384 42.7793 85.4146 42.042C85.9907 41.2998 86.7451 40.9287 87.6777 40.9287C88.6055 40.9287 89.3403 41.2461 89.8823 41.8809V37.75H91.2373V49H89.9922L89.9263 48.1504C89.3843 48.8145 88.6299 49.1465 87.6631 49.1465C86.7451 49.1465 85.9956 48.7705 85.4146 48.0186C84.8384 47.2666 84.5503 46.2852 84.5503 45.0742V44.9717ZM85.9053 45.1255C85.9053 46.0239 86.0908 46.7271 86.4619 47.2349C86.833 47.7427 87.3457 47.9966 88 47.9966C88.8594 47.9966 89.4868 47.6108 89.8823 46.8394V43.1992C89.4771 42.4521 88.8545 42.0786 88.0146 42.0786C87.3506 42.0786 86.833 42.335 86.4619 42.8477C86.0908 43.3604 85.9053 44.1196 85.9053 45.1255ZM98.2393 48.2163C97.7119 48.8364 96.938 49.1465 95.9175 49.1465C95.0728 49.1465 94.4282 48.9023 93.9839 48.4141C93.5444 47.9209 93.3223 47.1934 93.3174 46.2314V41.0752H94.6724V46.1948C94.6724 47.396 95.1606 47.9966 96.1372 47.9966C97.1724 47.9966 97.8608 47.6108 98.2026 46.8394V41.0752H99.5576V49H98.2686L98.2393 48.2163ZM104.802 48.0405C105.285 48.0405 105.708 47.894 106.069 47.6011C106.43 47.3081 106.63 46.9419 106.669 46.5024H107.951C107.927 46.9565 107.771 47.3887 107.482 47.7988C107.194 48.209 106.809 48.5361 106.325 48.7803C105.847 49.0244 105.339 49.1465 104.802 49.1465C103.723 49.1465 102.863 48.7876 102.224 48.0698C101.589 47.3472 101.271 46.3608 101.271 45.1108V44.8838C101.271 44.1123 101.413 43.4263 101.696 42.8257C101.979 42.2251 102.385 41.7588 102.912 41.4268C103.444 41.0947 104.072 40.9287 104.794 40.9287C105.683 40.9287 106.42 41.1948 107.006 41.7271C107.597 42.2593 107.912 42.9502 107.951 43.7998H106.669C106.63 43.2871 106.435 42.8672 106.083 42.54C105.737 42.208 105.307 42.042 104.794 42.042C104.106 42.042 103.571 42.291 103.19 42.7891C102.814 43.2822 102.626 43.9976 102.626 44.9351V45.1914C102.626 46.1045 102.814 46.8076 103.19 47.3008C103.566 47.7939 104.104 48.0405 104.802 48.0405ZM112.763 49.1465C111.689 49.1465 110.815 48.7949 110.141 48.0918C109.467 47.3838 109.13 46.439 109.13 45.2573V45.0083C109.13 44.2222 109.279 43.5215 109.577 42.9062C109.88 42.2861 110.3 41.8027 110.837 41.4561C111.379 41.1045 111.965 40.9287 112.595 40.9287C113.625 40.9287 114.426 41.2681 114.997 41.9468C115.568 42.6255 115.854 43.5972 115.854 44.8618V45.4258H110.485C110.505 46.207 110.732 46.8394 111.167 47.3228C111.606 47.8013 112.163 48.0405 112.836 48.0405C113.315 48.0405 113.72 47.9429 114.052 47.7476C114.384 47.5522 114.675 47.2935 114.924 46.9712L115.751 47.6157C115.087 48.6362 114.091 49.1465 112.763 49.1465ZM112.595 42.042C112.048 42.042 111.589 42.2422 111.218 42.6426C110.847 43.0381 110.617 43.5947 110.529 44.3125H114.499V44.21C114.46 43.5215 114.274 42.9893 113.942 42.6133C113.61 42.2324 113.161 42.042 112.595 42.042ZM137.907 46.8979C137.907 46.5317 137.768 46.2485 137.49 46.0483C137.216 45.8433 136.735 45.6675 136.047 45.521C135.363 45.3745 134.819 45.1987 134.414 44.9937C134.013 44.7886 133.715 44.5444 133.52 44.2612C133.33 43.978 133.234 43.6411 133.234 43.2505C133.234 42.6011 133.508 42.0518 134.055 41.6025C134.606 41.1533 135.31 40.9287 136.164 40.9287C137.062 40.9287 137.79 41.1606 138.347 41.6245C138.908 42.0884 139.189 42.6816 139.189 43.4043H137.827C137.827 43.0332 137.668 42.7134 137.351 42.4448C137.038 42.1763 136.643 42.042 136.164 42.042C135.671 42.042 135.285 42.1494 135.007 42.3643C134.729 42.5791 134.589 42.8599 134.589 43.2065C134.589 43.5337 134.719 43.7803 134.978 43.9463C135.236 44.1123 135.703 44.271 136.376 44.4224C137.055 44.5737 137.604 44.7544 138.024 44.9644C138.444 45.1743 138.754 45.4282 138.955 45.7261C139.16 46.019 139.262 46.3779 139.262 46.8027C139.262 47.5107 138.979 48.0796 138.413 48.5093C137.846 48.9341 137.111 49.1465 136.208 49.1465C135.573 49.1465 135.012 49.0342 134.523 48.8096C134.035 48.585 133.652 48.2725 133.374 47.8721C133.1 47.4668 132.963 47.0298 132.963 46.561H134.318C134.343 47.0151 134.523 47.3765 134.86 47.645C135.202 47.9087 135.651 48.0405 136.208 48.0405C136.721 48.0405 137.131 47.938 137.438 47.7329C137.751 47.5229 137.907 47.2446 137.907 46.8979ZM142.5 49H141.145V41.0752H142.5V49ZM141.035 38.9731C141.035 38.7534 141.101 38.5679 141.232 38.4165C141.369 38.2651 141.569 38.1895 141.833 38.1895C142.097 38.1895 142.297 38.2651 142.434 38.4165C142.57 38.5679 142.639 38.7534 142.639 38.9731C142.639 39.1929 142.57 39.376 142.434 39.5225C142.297 39.6689 142.097 39.7422 141.833 39.7422C141.569 39.7422 141.369 39.6689 141.232 39.5225C141.101 39.376 141.035 39.1929 141.035 38.9731ZM145.957 41.0752L146 42.0713C146.606 41.3096 147.397 40.9287 148.374 40.9287C150.048 40.9287 150.893 41.8735 150.908 43.7632V49H149.553V43.7559C149.548 43.1846 149.416 42.7622 149.157 42.4888C148.903 42.2153 148.505 42.0786 147.963 42.0786C147.524 42.0786 147.138 42.1958 146.806 42.4302C146.474 42.6646 146.215 42.9722 146.03 43.353V49H144.675V41.0752H145.957ZM156.13 48.0405C156.613 48.0405 157.036 47.894 157.397 47.6011C157.758 47.3081 157.958 46.9419 157.998 46.5024H159.279C159.255 46.9565 159.099 47.3887 158.811 47.7988C158.522 48.209 158.137 48.5361 157.653 48.7803C157.175 49.0244 156.667 49.1465 156.13 49.1465C155.051 49.1465 154.191 48.7876 153.552 48.0698C152.917 47.3472 152.6 46.3608 152.6 45.1108V44.8838C152.6 44.1123 152.741 43.4263 153.024 42.8257C153.308 42.2251 153.713 41.7588 154.24 41.4268C154.772 41.0947 155.4 40.9287 156.123 40.9287C157.011 40.9287 157.749 41.1948 158.334 41.7271C158.925 42.2593 159.24 42.9502 159.279 43.7998H157.998C157.958 43.2871 157.763 42.8672 157.412 42.54C157.065 42.208 156.635 42.042 156.123 42.042C155.434 42.042 154.899 42.291 154.519 42.7891C154.143 43.2822 153.955 43.9976 153.955 44.9351V45.1914C153.955 46.1045 154.143 46.8076 154.519 47.3008C154.895 47.7939 155.432 48.0405 156.13 48.0405ZM164.091 49.1465C163.017 49.1465 162.143 48.7949 161.469 48.0918C160.795 47.3838 160.458 46.439 160.458 45.2573V45.0083C160.458 44.2222 160.607 43.5215 160.905 42.9062C161.208 42.2861 161.628 41.8027 162.165 41.4561C162.707 41.1045 163.293 40.9287 163.923 40.9287C164.953 40.9287 165.754 41.2681 166.325 41.9468C166.896 42.6255 167.182 43.5972 167.182 44.8618V45.4258H161.813C161.833 46.207 162.06 46.8394 162.495 47.3228C162.934 47.8013 163.491 48.0405 164.165 48.0405C164.643 48.0405 165.048 47.9429 165.38 47.7476C165.712 47.5522 166.003 47.2935 166.252 46.9712L167.08 47.6157C166.416 48.6362 165.419 49.1465 164.091 49.1465ZM163.923 42.042C163.376 42.042 162.917 42.2422 162.546 42.6426C162.175 43.0381 161.945 43.5947 161.857 44.3125H165.827V44.21C165.788 43.5215 165.603 42.9893 165.271 42.6133C164.938 42.2324 164.489 42.042 163.923 42.042ZM174.316 39.1562V41.0752H175.795V42.1226H174.316V47.0371C174.316 47.3545 174.382 47.5938 174.514 47.7549C174.646 47.9111 174.87 47.9893 175.188 47.9893C175.344 47.9893 175.559 47.96 175.832 47.9014V49C175.476 49.0977 175.129 49.1465 174.792 49.1465C174.187 49.1465 173.73 48.9634 173.422 48.5972C173.115 48.231 172.961 47.7109 172.961 47.0371V42.1226H171.518V41.0752H172.961V39.1562H174.316ZM178.74 42.0347C179.34 41.2974 180.122 40.9287 181.083 40.9287C182.758 40.9287 183.603 41.8735 183.618 43.7632V49H182.263V43.7559C182.258 43.1846 182.126 42.7622 181.867 42.4888C181.613 42.2153 181.215 42.0786 180.673 42.0786C180.234 42.0786 179.848 42.1958 179.516 42.4302C179.184 42.6646 178.925 42.9722 178.74 43.353V49H177.385V37.75H178.74V42.0347ZM188.935 49.1465C187.861 49.1465 186.987 48.7949 186.313 48.0918C185.639 47.3838 185.302 46.439 185.302 45.2573V45.0083C185.302 44.2222 185.451 43.5215 185.749 42.9062C186.052 42.2861 186.472 41.8027 187.009 41.4561C187.551 41.1045 188.137 40.9287 188.767 40.9287C189.797 40.9287 190.598 41.2681 191.169 41.9468C191.74 42.6255 192.026 43.5972 192.026 44.8618V45.4258H186.657C186.677 46.207 186.904 46.8394 187.338 47.3228C187.778 47.8013 188.334 48.0405 189.008 48.0405C189.487 48.0405 189.892 47.9429 190.224 47.7476C190.556 47.5522 190.847 47.2935 191.096 46.9712L191.923 47.6157C191.259 48.6362 190.263 49.1465 188.935 49.1465ZM188.767 42.042C188.22 42.042 187.761 42.2422 187.39 42.6426C187.019 43.0381 186.789 43.5947 186.701 44.3125H190.671V44.21C190.632 43.5215 190.446 42.9893 190.114 42.6133C189.782 42.2324 189.333 42.042 188.767 42.042ZM196.091 47.0151L197.937 41.0752H199.387L196.201 50.2231C195.708 51.5415 194.924 52.2007 193.85 52.2007L193.593 52.1787L193.088 52.0835V50.9849L193.454 51.0142C193.913 51.0142 194.27 50.9214 194.523 50.7358C194.782 50.5503 194.995 50.2109 195.161 49.7178L195.461 48.9121L192.634 41.0752H194.113L196.091 47.0151ZM207.502 48.0405C207.985 48.0405 208.408 47.894 208.769 47.6011C209.13 47.3081 209.331 46.9419 209.37 46.5024H210.651C210.627 46.9565 210.471 47.3887 210.183 47.7988C209.895 48.209 209.509 48.5361 209.025 48.7803C208.547 49.0244 208.039 49.1465 207.502 49.1465C206.423 49.1465 205.563 48.7876 204.924 48.0698C204.289 47.3472 203.972 46.3608 203.972 45.1108V44.8838C203.972 44.1123 204.113 43.4263 204.396 42.8257C204.68 42.2251 205.085 41.7588 205.612 41.4268C206.145 41.0947 206.772 40.9287 207.495 40.9287C208.383 40.9287 209.121 41.1948 209.707 41.7271C210.297 42.2593 210.612 42.9502 210.651 43.7998H209.37C209.331 43.2871 209.135 42.8672 208.784 42.54C208.437 42.208 208.007 42.042 207.495 42.042C206.806 42.042 206.271 42.291 205.891 42.7891C205.515 43.2822 205.327 43.9976 205.327 44.9351V45.1914C205.327 46.1045 205.515 46.8076 205.891 47.3008C206.267 47.7939 206.804 48.0405 207.502 48.0405ZM217.067 49C216.989 48.8438 216.926 48.5654 216.877 48.165C216.247 48.8193 215.495 49.1465 214.621 49.1465C213.84 49.1465 213.198 48.9268 212.695 48.4873C212.197 48.043 211.948 47.4814 211.948 46.8027C211.948 45.9775 212.26 45.3379 212.885 44.8838C213.515 44.4248 214.399 44.1953 215.537 44.1953H216.855V43.5728C216.855 43.0991 216.713 42.7231 216.43 42.4448C216.147 42.1616 215.729 42.02 215.178 42.02C214.694 42.02 214.289 42.1421 213.962 42.3862C213.635 42.6304 213.471 42.9258 213.471 43.2725H212.109C212.109 42.877 212.248 42.4961 212.526 42.1299C212.81 41.7588 213.19 41.4658 213.669 41.251C214.152 41.0361 214.682 40.9287 215.258 40.9287C216.171 40.9287 216.887 41.1582 217.404 41.6172C217.922 42.0713 218.19 42.6987 218.21 43.4995V47.147C218.21 47.8745 218.303 48.4531 218.488 48.8828V49H217.067ZM214.819 47.9673C215.244 47.9673 215.646 47.8574 216.027 47.6377C216.408 47.418 216.684 47.1323 216.855 46.7808V45.1548H215.793C214.133 45.1548 213.303 45.6406 213.303 46.6123C213.303 47.0371 213.444 47.3691 213.728 47.6084C214.011 47.8477 214.375 47.9673 214.819 47.9673ZM221.616 41.0752L221.66 42.0713C222.265 41.3096 223.056 40.9287 224.033 40.9287C225.708 40.9287 226.552 41.8735 226.567 43.7632V49H225.212V43.7559C225.207 43.1846 225.075 42.7622 224.816 42.4888C224.562 42.2153 224.165 42.0786 223.623 42.0786C223.183 42.0786 222.797 42.1958 222.465 42.4302C222.133 42.6646 221.875 42.9722 221.689 43.353V49H220.334V41.0752H221.616ZM229.892 41.0752L229.936 42.0713C230.542 41.3096 231.333 40.9287 232.309 40.9287C233.984 40.9287 234.829 41.8735 234.843 43.7632V49H233.488V43.7559C233.483 43.1846 233.352 42.7622 233.093 42.4888C232.839 42.2153 232.441 42.0786 231.899 42.0786C231.459 42.0786 231.074 42.1958 230.742 42.4302C230.41 42.6646 230.151 42.9722 229.965 43.353V49H228.61V41.0752H229.892ZM236.528 44.9644C236.528 44.188 236.679 43.4897 236.982 42.8696C237.29 42.2495 237.714 41.771 238.256 41.4341C238.803 41.0972 239.426 40.9287 240.124 40.9287C241.203 40.9287 242.075 41.3022 242.739 42.0493C243.408 42.7964 243.742 43.79 243.742 45.0303V45.1255C243.742 45.897 243.593 46.5903 243.295 47.2056C243.002 47.8159 242.58 48.292 242.028 48.6338C241.481 48.9756 240.852 49.1465 240.139 49.1465C239.064 49.1465 238.193 48.7729 237.524 48.0259C236.86 47.2788 236.528 46.29 236.528 45.0596V44.9644ZM237.89 45.1255C237.89 46.0044 238.093 46.71 238.498 47.2422C238.908 47.7744 239.455 48.0405 240.139 48.0405C240.827 48.0405 241.374 47.772 241.779 47.2349C242.185 46.6929 242.387 45.936 242.387 44.9644C242.387 44.0952 242.18 43.3921 241.765 42.855C241.354 42.313 240.808 42.042 240.124 42.042C239.455 42.042 238.916 42.3081 238.505 42.8403C238.095 43.3726 237.89 44.1343 237.89 45.1255ZM247.28 39.1562V41.0752H248.759V42.1226H247.28V47.0371C247.28 47.3545 247.346 47.5938 247.478 47.7549C247.609 47.9111 247.834 47.9893 248.151 47.9893C248.308 47.9893 248.522 47.96 248.796 47.9014V49C248.439 49.0977 248.093 49.1465 247.756 49.1465C247.15 49.1465 246.694 48.9634 246.386 48.5972C246.079 48.231 245.925 47.7109 245.925 47.0371V42.1226H244.482V41.0752H245.925V39.1562H247.28ZM257.248 48.0405C257.731 48.0405 258.154 47.894 258.515 47.6011C258.876 47.3081 259.077 46.9419 259.116 46.5024H260.397C260.373 46.9565 260.217 47.3887 259.929 47.7988C259.641 48.209 259.255 48.5361 258.771 48.7803C258.293 49.0244 257.785 49.1465 257.248 49.1465C256.169 49.1465 255.31 48.7876 254.67 48.0698C254.035 47.3472 253.718 46.3608 253.718 45.1108V44.8838C253.718 44.1123 253.859 43.4263 254.143 42.8257C254.426 42.2251 254.831 41.7588 255.358 41.4268C255.891 41.0947 256.518 40.9287 257.241 40.9287C258.129 40.9287 258.867 41.1948 259.453 41.7271C260.043 42.2593 260.358 42.9502 260.397 43.7998H259.116C259.077 43.2871 258.881 42.8672 258.53 42.54C258.183 42.208 257.753 42.042 257.241 42.042C256.552 42.042 256.018 42.291 255.637 42.7891C255.261 43.2822 255.073 43.9976 255.073 44.9351V45.1914C255.073 46.1045 255.261 46.8076 255.637 47.3008C256.013 47.7939 256.55 48.0405 257.248 48.0405ZM265.751 42.291C265.546 42.2568 265.324 42.2397 265.085 42.2397C264.196 42.2397 263.593 42.6182 263.276 43.375V49H261.921V41.0752H263.239L263.261 41.9907C263.706 41.2827 264.335 40.9287 265.151 40.9287C265.415 40.9287 265.615 40.9629 265.751 41.0312V42.291ZM270.146 49.1465C269.072 49.1465 268.198 48.7949 267.524 48.0918C266.85 47.3838 266.513 46.439 266.513 45.2573V45.0083C266.513 44.2222 266.662 43.5215 266.96 42.9062C267.263 42.2861 267.683 41.8027 268.22 41.4561C268.762 41.1045 269.348 40.9287 269.978 40.9287C271.008 40.9287 271.809 41.2681 272.38 41.9468C272.951 42.6255 273.237 43.5972 273.237 44.8618V45.4258H267.868C267.888 46.207 268.115 46.8394 268.549 47.3228C268.989 47.8013 269.545 48.0405 270.219 48.0405C270.698 48.0405 271.103 47.9429 271.435 47.7476C271.767 47.5522 272.058 47.2935 272.307 46.9712L273.134 47.6157C272.47 48.6362 271.474 49.1465 270.146 49.1465ZM269.978 42.042C269.431 42.042 268.972 42.2422 268.601 42.6426C268.229 43.0381 268 43.5947 267.912 44.3125H271.882V44.21C271.843 43.5215 271.657 42.9893 271.325 42.6133C270.993 42.2324 270.544 42.042 269.978 42.042ZM279.704 49C279.626 48.8438 279.562 48.5654 279.514 48.165C278.884 48.8193 278.132 49.1465 277.258 49.1465C276.477 49.1465 275.834 48.9268 275.332 48.4873C274.833 48.043 274.584 47.4814 274.584 46.8027C274.584 45.9775 274.897 45.3379 275.522 44.8838C276.152 44.4248 277.036 44.1953 278.173 44.1953H279.492V43.5728C279.492 43.0991 279.35 42.7231 279.067 42.4448C278.784 42.1616 278.366 42.02 277.814 42.02C277.331 42.02 276.926 42.1421 276.599 42.3862C276.271 42.6304 276.108 42.9258 276.108 43.2725H274.746C274.746 42.877 274.885 42.4961 275.163 42.1299C275.446 41.7588 275.827 41.4658 276.306 41.251C276.789 41.0361 277.319 40.9287 277.895 40.9287C278.808 40.9287 279.523 41.1582 280.041 41.6172C280.559 42.0713 280.827 42.6987 280.847 43.4995V47.147C280.847 47.8745 280.939 48.4531 281.125 48.8828V49H279.704ZM277.456 47.9673C277.88 47.9673 278.283 47.8574 278.664 47.6377C279.045 47.418 279.321 47.1323 279.492 46.7808V45.1548H278.43C276.77 45.1548 275.939 45.6406 275.939 46.6123C275.939 47.0371 276.081 47.3691 276.364 47.6084C276.647 47.8477 277.011 47.9673 277.456 47.9673ZM284.809 39.1562V41.0752H286.289V42.1226H284.809V47.0371C284.809 47.3545 284.875 47.5938 285.007 47.7549C285.139 47.9111 285.363 47.9893 285.681 47.9893C285.837 47.9893 286.052 47.96 286.325 47.9014V49C285.969 49.0977 285.622 49.1465 285.285 49.1465C284.68 49.1465 284.223 48.9634 283.916 48.5972C283.608 48.231 283.454 47.7109 283.454 47.0371V42.1226H282.011V41.0752H283.454V39.1562H284.809ZM291.167 49.1465C290.092 49.1465 289.218 48.7949 288.544 48.0918C287.871 47.3838 287.534 46.439 287.534 45.2573V45.0083C287.534 44.2222 287.683 43.5215 287.98 42.9062C288.283 42.2861 288.703 41.8027 289.24 41.4561C289.782 41.1045 290.368 40.9287 290.998 40.9287C292.028 40.9287 292.829 41.2681 293.4 41.9468C293.972 42.6255 294.257 43.5972 294.257 44.8618V45.4258H288.889C288.908 46.207 289.135 46.8394 289.57 47.3228C290.009 47.8013 290.566 48.0405 291.24 48.0405C291.718 48.0405 292.124 47.9429 292.456 47.7476C292.788 47.5522 293.078 47.2935 293.327 46.9712L294.155 47.6157C293.491 48.6362 292.495 49.1465 291.167 49.1465ZM290.998 42.042C290.451 42.042 289.992 42.2422 289.621 42.6426C289.25 43.0381 289.021 43.5947 288.933 44.3125H292.902V44.21C292.863 43.5215 292.678 42.9893 292.346 42.6133C292.014 42.2324 291.564 42.042 290.998 42.042ZM304.445 49C304.367 48.8438 304.304 48.5654 304.255 48.165C303.625 48.8193 302.873 49.1465 301.999 49.1465C301.218 49.1465 300.576 48.9268 300.073 48.4873C299.575 48.043 299.326 47.4814 299.326 46.8027C299.326 45.9775 299.638 45.3379 300.263 44.8838C300.893 44.4248 301.777 44.1953 302.915 44.1953H304.233V43.5728C304.233 43.0991 304.091 42.7231 303.808 42.4448C303.525 42.1616 303.107 42.02 302.556 42.02C302.072 42.02 301.667 42.1421 301.34 42.3862C301.013 42.6304 300.849 42.9258 300.849 43.2725H299.487C299.487 42.877 299.626 42.4961 299.904 42.1299C300.188 41.7588 300.568 41.4658 301.047 41.251C301.53 41.0361 302.06 40.9287 302.636 40.9287C303.549 40.9287 304.265 41.1582 304.782 41.6172C305.3 42.0713 305.568 42.6987 305.588 43.4995V47.147C305.588 47.8745 305.681 48.4531 305.866 48.8828V49H304.445ZM302.197 47.9673C302.622 47.9673 303.024 47.8574 303.405 47.6377C303.786 47.418 304.062 47.1323 304.233 46.7808V45.1548H303.171C301.511 45.1548 300.681 45.6406 300.681 46.6123C300.681 47.0371 300.822 47.3691 301.105 47.6084C301.389 47.8477 301.752 47.9673 302.197 47.9673ZM308.994 41.0752L309.038 42.0713C309.643 41.3096 310.434 40.9287 311.411 40.9287C313.085 40.9287 313.93 41.8735 313.945 43.7632V49H312.59V43.7559C312.585 43.1846 312.453 42.7622 312.194 42.4888C311.94 42.2153 311.542 42.0786 311 42.0786C310.561 42.0786 310.175 42.1958 309.843 42.4302C309.511 42.6646 309.252 42.9722 309.067 43.353V49H307.712V41.0752H308.994ZM318.581 47.0151L320.427 41.0752H321.877L318.691 50.2231C318.198 51.5415 317.414 52.2007 316.34 52.2007L316.083 52.1787L315.578 52.0835V50.9849L315.944 51.0142C316.403 51.0142 316.76 50.9214 317.014 50.7358C317.272 50.5503 317.485 50.2109 317.651 49.7178L317.951 48.9121L315.124 41.0752H316.604L318.581 47.0151ZM15.3071 59.0752L15.3511 60.0713C15.9565 59.3096 16.7476 58.9287 17.7241 58.9287C19.3989 58.9287 20.2437 59.8735 20.2583 61.7632V67H18.9033V61.7559C18.8984 61.1846 18.7666 60.7622 18.5078 60.4888C18.2539 60.2153 17.856 60.0786 17.314 60.0786C16.8745 60.0786 16.4888 60.1958 16.1567 60.4302C15.8247 60.6646 15.5659 60.9722 15.3804 61.353V67H14.0254V59.0752H15.3071ZM25.5903 67.1465C24.5161 67.1465 23.6421 66.7949 22.9683 66.0918C22.2944 65.3838 21.9575 64.439 21.9575 63.2573V63.0083C21.9575 62.2222 22.1064 61.5215 22.4043 60.9062C22.707 60.2861 23.127 59.8027 23.6641 59.4561C24.2061 59.1045 24.792 58.9287 25.4219 58.9287C26.4521 58.9287 27.2529 59.2681 27.8242 59.9468C28.3955 60.6255 28.6812 61.5972 28.6812 62.8618V63.4258H23.3125C23.332 64.207 23.5591 64.8394 23.9937 65.3228C24.4331 65.8013 24.9897 66.0405 25.6636 66.0405C26.1421 66.0405 26.5474 65.9429 26.8794 65.7476C27.2114 65.5522 27.502 65.2935 27.751 64.9712L28.5786 65.6157C27.9146 66.6362 26.9185 67.1465 25.5903 67.1465ZM25.4219 60.042C24.875 60.042 24.416 60.2422 24.0449 60.6426C23.6738 61.0381 23.4443 61.5947 23.3564 62.3125H27.3262V62.21C27.2871 61.5215 27.1016 60.9893 26.7695 60.6133C26.4375 60.2324 25.9883 60.042 25.4219 60.042ZM37.2725 65.1323L38.7959 59.0752H40.1509L37.8438 67H36.7451L34.8188 60.9941L32.9438 67H31.8452L29.5454 59.0752H30.8931L32.4531 65.0078L34.2988 59.0752H35.3901L37.2725 65.1323ZM47.0942 57.1562V59.0752H48.5737V60.1226H47.0942V65.0371C47.0942 65.3545 47.1602 65.5938 47.292 65.7549C47.4238 65.9111 47.6484 65.9893 47.9658 65.9893C48.1221 65.9893 48.3369 65.96 48.6104 65.9014V67C48.2539 67.0977 47.9072 67.1465 47.5703 67.1465C46.9648 67.1465 46.5083 66.9634 46.2007 66.5972C45.8931 66.231 45.7393 65.7109 45.7393 65.0371V60.1226H44.2964V59.0752H45.7393V57.1562H47.0942ZM51.5181 60.0347C52.1187 59.2974 52.8999 58.9287 53.8618 58.9287C55.5366 58.9287 56.3813 59.8735 56.396 61.7632V67H55.041V61.7559C55.0361 61.1846 54.9043 60.7622 54.6455 60.4888C54.3916 60.2153 53.9937 60.0786 53.4517 60.0786C53.0122 60.0786 52.6265 60.1958 52.2944 60.4302C51.9624 60.6646 51.7036 60.9722 51.5181 61.353V67H50.1631V55.75H51.5181V60.0347ZM59.897 67H58.542V59.0752H59.897V67ZM58.4321 56.9731C58.4321 56.7534 58.498 56.5679 58.6299 56.4165C58.7666 56.2651 58.9668 56.1895 59.2305 56.1895C59.4941 56.1895 59.6943 56.2651 59.8311 56.4165C59.9678 56.5679 60.0361 56.7534 60.0361 56.9731C60.0361 57.1929 59.9678 57.376 59.8311 57.5225C59.6943 57.6689 59.4941 57.7422 59.2305 57.7422C58.9668 57.7422 58.7666 57.6689 58.6299 57.5225C58.498 57.376 58.4321 57.1929 58.4321 56.9731ZM63.354 59.0752L63.3979 60.0713C64.0034 59.3096 64.7944 58.9287 65.771 58.9287C67.4458 58.9287 68.2905 59.8735 68.3052 61.7632V67H66.9502V61.7559C66.9453 61.1846 66.8135 60.7622 66.5547 60.4888C66.3008 60.2153 65.9028 60.0786 65.3608 60.0786C64.9214 60.0786 64.5356 60.1958 64.2036 60.4302C63.8716 60.6646 63.6128 60.9722 63.4272 61.353V67H62.0723V59.0752H63.354ZM70.0264 62.9717C70.0264 61.7363 70.312 60.7549 70.8833 60.0273C71.4546 59.2949 72.2114 58.9287 73.1538 58.9287C74.1206 58.9287 74.875 59.2705 75.417 59.9541L75.4829 59.0752H76.7207V66.8096C76.7207 67.835 76.4155 68.6431 75.8052 69.2339C75.1997 69.8247 74.3843 70.1201 73.3589 70.1201C72.7876 70.1201 72.2285 69.998 71.6816 69.7539C71.1348 69.5098 70.7173 69.1753 70.4292 68.7505L71.1323 67.9375C71.7134 68.6553 72.4238 69.0142 73.2637 69.0142C73.9229 69.0142 74.4355 68.8286 74.8018 68.4575C75.1729 68.0864 75.3584 67.564 75.3584 66.8901V66.209C74.8164 66.834 74.0767 67.1465 73.1392 67.1465C72.2114 67.1465 71.4595 66.7729 70.8833 66.0259C70.312 65.2788 70.0264 64.2607 70.0264 62.9717ZM71.3887 63.1255C71.3887 64.019 71.5718 64.7222 71.938 65.2349C72.3042 65.7427 72.8169 65.9966 73.4761 65.9966C74.3306 65.9966 74.958 65.6084 75.3584 64.832V61.2139C74.9434 60.457 74.3208 60.0786 73.4907 60.0786C72.8315 60.0786 72.3164 60.335 71.9453 60.8477C71.5742 61.3604 71.3887 62.1196 71.3887 63.1255ZM78.8008 66.2896C78.8008 66.0552 78.8691 65.8599 79.0059 65.7036C79.1475 65.5474 79.3574 65.4692 79.6357 65.4692C79.9141 65.4692 80.124 65.5474 80.2656 65.7036C80.4121 65.8599 80.4854 66.0552 80.4854 66.2896C80.4854 66.5142 80.4121 66.7021 80.2656 66.8535C80.124 67.0049 79.9141 67.0806 79.6357 67.0806C79.3574 67.0806 79.1475 67.0049 79.0059 66.8535C78.8691 66.7021 78.8008 66.5142 78.8008 66.2896Z" fill="#FF0000"/>
<path d="M127.858 45.1255C127.858 46.3364 127.58 47.3105 127.023 48.0479C126.467 48.7803 125.72 49.1465 124.782 49.1465C123.781 49.1465 123.007 48.7925 122.46 48.0845L122.395 49H121.149V37.75H122.504V41.9468C123.051 41.2681 123.806 40.9287 124.768 40.9287C125.729 40.9287 126.484 41.2925 127.031 42.02C127.583 42.7476 127.858 43.7437 127.858 45.0083V45.1255ZM126.503 44.9717C126.503 44.0488 126.325 43.3359 125.969 42.833C125.612 42.3301 125.1 42.0786 124.431 42.0786C123.537 42.0786 122.895 42.4937 122.504 43.3237V46.7515C122.919 47.5815 123.566 47.9966 124.445 47.9966C125.095 47.9966 125.6 47.7451 125.961 47.2422C126.323 46.7393 126.503 45.9824 126.503 44.9717Z" fill="#CC00FF"/>
<path d="M351.109 338.488C350.934 339.992 350.377 341.154 349.439 341.974C348.508 342.788 347.268 343.195 345.719 343.195C344.039 343.195 342.691 342.593 341.676 341.388C340.667 340.184 340.162 338.573 340.162 336.554V335.187C340.162 333.866 340.396 332.704 340.865 331.701C341.34 330.698 342.011 329.93 342.877 329.396C343.743 328.856 344.745 328.586 345.885 328.586C347.395 328.586 348.606 329.009 349.518 329.855C350.429 330.695 350.96 331.86 351.109 333.351H349.225C349.062 332.219 348.707 331.398 348.16 330.89C347.62 330.383 346.861 330.129 345.885 330.129C344.687 330.129 343.746 330.571 343.062 331.457C342.385 332.342 342.047 333.602 342.047 335.236V336.613C342.047 338.156 342.369 339.383 343.014 340.295C343.658 341.206 344.56 341.662 345.719 341.662C346.76 341.662 347.558 341.427 348.111 340.959C348.671 340.483 349.042 339.66 349.225 338.488H351.109ZM352.916 337.619C352.916 336.584 353.118 335.653 353.521 334.826C353.932 333.999 354.498 333.361 355.221 332.912C355.95 332.463 356.78 332.238 357.711 332.238C359.15 332.238 360.312 332.736 361.197 333.732C362.089 334.728 362.535 336.053 362.535 337.707V337.834C362.535 338.862 362.337 339.787 361.939 340.607C361.549 341.421 360.986 342.056 360.25 342.511C359.521 342.967 358.681 343.195 357.73 343.195C356.298 343.195 355.136 342.697 354.244 341.701C353.359 340.705 352.916 339.386 352.916 337.746V337.619ZM354.732 337.834C354.732 339.006 355.003 339.946 355.543 340.656C356.09 341.366 356.819 341.72 357.73 341.72C358.648 341.72 359.378 341.362 359.918 340.646C360.458 339.924 360.729 338.914 360.729 337.619C360.729 336.46 360.452 335.523 359.898 334.806C359.352 334.084 358.622 333.722 357.711 333.722C356.819 333.722 356.1 334.077 355.553 334.787C355.006 335.497 354.732 336.512 354.732 337.834ZM366.764 343H364.957V328H366.764V343ZM377.066 335.011H378.424C379.277 334.998 379.947 334.774 380.436 334.338C380.924 333.901 381.168 333.312 381.168 332.57C381.168 330.903 380.338 330.07 378.678 330.07C377.896 330.07 377.271 330.295 376.803 330.744C376.34 331.187 376.109 331.776 376.109 332.511H374.303C374.303 331.385 374.713 330.451 375.533 329.709C376.36 328.96 377.408 328.586 378.678 328.586C380.019 328.586 381.07 328.941 381.832 329.65C382.594 330.36 382.975 331.346 382.975 332.609C382.975 333.228 382.773 333.827 382.369 334.406C381.972 334.985 381.428 335.418 380.738 335.705C381.52 335.952 382.122 336.362 382.545 336.935C382.975 337.508 383.189 338.208 383.189 339.035C383.189 340.311 382.773 341.323 381.939 342.072C381.106 342.821 380.022 343.195 378.688 343.195C377.353 343.195 376.266 342.834 375.426 342.111C374.592 341.388 374.176 340.435 374.176 339.25H375.992C375.992 339.998 376.236 340.597 376.725 341.047C377.213 341.496 377.867 341.72 378.688 341.72C379.56 341.72 380.227 341.493 380.689 341.037C381.152 340.581 381.383 339.927 381.383 339.074C381.383 338.247 381.129 337.612 380.621 337.17C380.113 336.727 379.381 336.499 378.424 336.486H377.066V335.011Z" fill="#00FF29"/>
<path d="M147.153 219.894C147.356 219.936 147.576 219.709 147.644 219.385L148.753 214.113C148.821 213.789 148.711 213.492 148.508 213.45C148.305 213.407 148.085 213.634 148.017 213.958L147.031 218.644L144.084 218.025C143.881 217.982 143.661 218.21 143.593 218.533C143.525 218.857 143.635 219.154 143.838 219.196L147.153 219.894ZM90.6525 67.3595L146.928 219.667L147.623 218.948L91.3475 66.6405L90.6525 67.3595Z" fill="#FF0000"/>
<path d="M205.197 265.607C205.398 265.61 205.564 265.341 205.57 265.006L205.655 259.544C205.661 259.209 205.502 258.935 205.302 258.932C205.102 258.929 204.935 259.198 204.93 259.533L204.854 264.387L201.951 264.342C201.751 264.339 201.584 264.608 201.579 264.943C201.574 265.278 201.732 265.553 201.932 265.556L205.197 265.607ZM90.7367 67.4251L204.944 265.425L205.47 264.575L91.2633 66.5749L90.7367 67.4251Z" fill="#FF0000"/>
<path d="M235.071 251.754C235.272 251.73 235.404 251.442 235.365 251.111L234.727 245.71C234.688 245.378 234.493 245.129 234.291 245.153C234.09 245.177 233.958 245.465 233.997 245.796L234.564 250.597L231.647 250.941C231.445 250.965 231.314 251.253 231.353 251.585C231.392 251.916 231.587 252.165 231.789 252.142L235.071 251.754ZM90.7922 67.4548L234.792 251.609L235.208 250.699L91.2078 66.5452L90.7922 67.4548Z" fill="#FF0000"/>
</svg>
