<svg width="1190" height="443" viewBox="0 0 1190 443" fill="none" xmlns="http://www.w3.org/2000/svg">
<path d="M506.835 186H492.318V183.393L497.841 177.841C499.472 176.171 500.551 174.989 501.078 174.296C501.615 173.593 502.006 172.934 502.25 172.318C502.494 171.703 502.616 171.044 502.616 170.341C502.616 169.374 502.323 168.612 501.737 168.056C501.161 167.499 500.36 167.221 499.335 167.221C498.515 167.221 497.719 167.372 496.947 167.675C496.186 167.978 495.302 168.524 494.296 169.315L492.436 167.045C493.627 166.039 494.784 165.326 495.907 164.906C497.03 164.486 498.227 164.276 499.496 164.276C501.488 164.276 503.085 164.799 504.286 165.844C505.487 166.879 506.088 168.275 506.088 170.033C506.088 171 505.912 171.918 505.561 172.787C505.219 173.656 504.687 174.555 503.964 175.482C503.251 176.4 502.06 177.646 500.39 179.218L496.669 182.821V182.968H506.835V186ZM514.203 177.724L508.769 169.799H512.694L516.386 175.468L520.106 169.799H524.003L518.554 177.724L524.281 186H520.385L516.386 179.936L512.401 186H508.505L514.203 177.724ZM533.51 179.423V176.493H541.039V179.423H533.51ZM549.916 169.799H553.666L556.962 178.983C557.46 180.292 557.792 181.522 557.958 182.675H558.075C558.163 182.138 558.324 181.488 558.559 180.727C558.793 179.955 560.033 176.312 562.279 169.799H566L559.071 188.153C557.812 191.522 555.712 193.207 552.772 193.207C552.011 193.207 551.269 193.124 550.546 192.958V190.233C551.063 190.351 551.654 190.409 552.318 190.409C553.979 190.409 555.146 189.447 555.819 187.523L556.42 186L549.916 169.799ZM575.287 173.827V171.205H589.394V173.827H575.287ZM575.287 179.672V177.064H589.394V179.672H575.287ZM614.56 175.292C614.56 179.013 613.959 181.776 612.758 183.583C611.566 185.39 609.74 186.293 607.279 186.293C604.896 186.293 603.09 185.36 601.859 183.495C600.629 181.63 600.014 178.896 600.014 175.292C600.014 171.513 600.609 168.729 601.801 166.942C603.002 165.146 604.828 164.247 607.279 164.247C609.672 164.247 611.483 165.185 612.714 167.06C613.944 168.935 614.56 171.679 614.56 175.292ZM603.5 175.292C603.5 178.212 603.798 180.297 604.394 181.547C604.999 182.797 605.961 183.422 607.279 183.422C608.598 183.422 609.56 182.787 610.165 181.518C610.78 180.248 611.088 178.173 611.088 175.292C611.088 172.421 610.78 170.346 610.165 169.066C609.56 167.777 608.598 167.133 607.279 167.133C605.961 167.133 604.999 167.763 604.394 169.022C603.798 170.282 603.5 172.372 603.5 175.292Z" fill="#00FF29"/>
<path d="M492.055 220.423V217.493H499.584V220.423H492.055ZM506.732 218.724L501.298 210.799H505.224L508.915 216.468L512.636 210.799H516.532L511.083 218.724L516.811 227H512.914L508.915 220.936L504.931 227H501.034L506.732 218.724ZM532.221 217.728H526.391V215.12H532.221V209.144H534.857V215.12H540.702V217.728H534.857V223.675H532.221V217.728ZM565.751 227H551.234V224.393L556.757 218.841C558.388 217.171 559.467 215.989 559.994 215.296C560.531 214.593 560.922 213.934 561.166 213.318C561.41 212.703 561.532 212.044 561.532 211.341C561.532 210.374 561.239 209.612 560.653 209.056C560.077 208.499 559.276 208.221 558.251 208.221C557.431 208.221 556.635 208.372 555.863 208.675C555.102 208.978 554.218 209.524 553.212 210.315L551.352 208.045C552.543 207.039 553.7 206.326 554.823 205.906C555.946 205.486 557.143 205.276 558.412 205.276C560.404 205.276 562.001 205.799 563.202 206.844C564.403 207.879 565.004 209.275 565.004 211.033C565.004 212 564.828 212.918 564.477 213.787C564.135 214.656 563.603 215.555 562.88 216.482C562.167 217.4 560.976 218.646 559.306 220.218L555.585 223.821V223.968H565.751V227ZM567.055 210.799H570.805L574.101 219.983C574.599 221.292 574.931 222.522 575.097 223.675H575.214C575.302 223.138 575.463 222.488 575.697 221.727C575.932 220.955 577.172 217.312 579.418 210.799H583.139L576.21 229.153C574.95 232.522 572.851 234.207 569.911 234.207C569.149 234.207 568.407 234.124 567.685 233.958V231.233C568.202 231.351 568.793 231.409 569.457 231.409C571.117 231.409 572.284 230.447 572.958 228.523L573.559 227L567.055 210.799ZM591.986 220.423V217.493H599.516V220.423H591.986ZM616.435 227H601.918V224.393L607.44 218.841C609.071 217.171 610.15 215.989 610.678 215.296C611.215 214.593 611.605 213.934 611.85 213.318C612.094 212.703 612.216 212.044 612.216 211.341C612.216 210.374 611.923 209.612 611.337 209.056C610.761 208.499 609.96 208.221 608.935 208.221C608.114 208.221 607.318 208.372 606.547 208.675C605.785 208.978 604.901 209.524 603.896 210.315L602.035 208.045C603.227 207.039 604.384 206.326 605.507 205.906C606.63 205.486 607.826 205.276 609.096 205.276C611.088 205.276 612.685 205.799 613.886 206.844C615.087 207.879 615.688 209.275 615.688 211.033C615.688 212 615.512 212.918 615.16 213.787C614.818 214.656 614.286 215.555 613.563 216.482C612.851 217.4 611.659 218.646 609.989 220.218L606.269 223.821V223.968H616.435V227ZM627.025 214.827V212.205H641.132V214.827H627.025ZM627.025 220.672V218.064H641.132V220.672H627.025ZM651.518 220.423V217.493H659.047V220.423H651.518ZM671.557 227H668.114V213.172C668.114 211.521 668.153 210.213 668.231 209.246C668.007 209.48 667.729 209.739 667.396 210.022C667.074 210.306 665.98 211.204 664.115 212.718L662.387 210.535L668.686 205.584H671.557V227Z" fill="#FF006B"/>
<path d="M492.055 261.423V258.493H499.584V261.423H492.055ZM515.697 251.506C515.697 252.863 515.302 253.996 514.511 254.904C513.72 255.803 512.606 256.408 511.171 256.721V256.838C512.89 257.053 514.179 257.59 515.038 258.449C515.897 259.299 516.327 260.432 516.327 261.848C516.327 263.908 515.6 265.5 514.145 266.623C512.689 267.736 510.619 268.293 507.934 268.293C505.561 268.293 503.559 267.907 501.928 267.136V264.074C502.836 264.523 503.798 264.87 504.813 265.114C505.829 265.358 506.806 265.48 507.743 265.48C509.403 265.48 510.644 265.173 511.464 264.558C512.284 263.942 512.694 262.99 512.694 261.701C512.694 260.559 512.24 259.719 511.332 259.182C510.424 258.645 508.998 258.376 507.055 258.376H505.194V255.578H507.084C510.502 255.578 512.211 254.396 512.211 252.033C512.211 251.115 511.913 250.407 511.317 249.909C510.722 249.411 509.843 249.162 508.681 249.162C507.87 249.162 507.089 249.279 506.337 249.514C505.585 249.738 504.696 250.183 503.671 250.847L501.986 248.444C503.949 246.999 506.229 246.276 508.827 246.276C510.985 246.276 512.67 246.74 513.881 247.668C515.092 248.596 515.697 249.875 515.697 251.506ZM517.807 251.799H521.557L524.853 260.983C525.351 262.292 525.683 263.522 525.849 264.675H525.966C526.054 264.138 526.215 263.488 526.449 262.727C526.684 261.955 527.924 258.312 530.17 251.799H533.891L526.962 270.153C525.702 273.522 523.603 275.207 520.663 275.207C519.901 275.207 519.159 275.124 518.437 274.958V272.233C518.954 272.351 519.545 272.409 520.209 272.409C521.869 272.409 523.036 271.447 523.71 269.523L524.311 268L517.807 251.799ZM548.92 258.728H543.09V256.12H548.92V250.144H551.557V256.12H557.401V258.728H551.557V264.675H548.92V258.728ZM583.212 263.327H580.326V268H576.972V263.327H567.187V260.676L576.972 246.525H580.326V260.471H583.212V263.327ZM576.972 260.471V255.095C576.972 253.181 577.021 251.613 577.118 250.393H577.001C576.728 251.037 576.298 251.818 575.712 252.736L570.395 260.471H576.972ZM597.04 268H584.75V265.876L592.938 254.436H585.248V251.799H596.806V254.201L588.793 265.363H597.04V268ZM607.396 255.827V253.205H621.503V255.827H607.396ZM607.396 261.672V259.064H621.503V261.672H607.396ZM647.431 263.327H644.545V268H641.19V263.327H631.405V260.676L641.19 246.525H644.545V260.471H647.431V263.327ZM641.19 260.471V255.095C641.19 253.181 641.239 251.613 641.337 250.393H641.22C640.946 251.037 640.517 251.818 639.931 252.736L634.613 260.471H641.19Z" fill="#0094FF"/>
<path d="M393.816 353H391.482V340.725H387.283V338.723H398.016V340.725H393.816V353ZM409.471 353H407.166V346.359C407.166 345.526 406.997 344.904 406.658 344.494C406.326 344.084 405.796 343.879 405.066 343.879C404.103 343.879 403.393 344.169 402.938 344.748C402.488 345.321 402.264 346.285 402.264 347.639V353H399.969V337.805H402.264V341.662C402.264 342.281 402.225 342.941 402.146 343.645H402.293C402.605 343.124 403.038 342.72 403.592 342.434C404.152 342.147 404.803 342.004 405.545 342.004C408.162 342.004 409.471 343.322 409.471 345.959V353ZM414.959 353H412.664V342.199H414.959V353ZM412.527 339.338C412.527 338.928 412.638 338.612 412.859 338.391C413.087 338.169 413.41 338.059 413.826 338.059C414.23 338.059 414.542 338.169 414.764 338.391C414.992 338.612 415.105 338.928 415.105 339.338C415.105 339.729 414.992 340.038 414.764 340.266C414.542 340.487 414.23 340.598 413.826 340.598C413.41 340.598 413.087 340.487 412.859 340.266C412.638 340.038 412.527 339.729 412.527 339.338ZM425.506 349.924C425.506 350.979 425.122 351.789 424.354 352.355C423.585 352.915 422.485 353.195 421.053 353.195C419.614 353.195 418.458 352.977 417.586 352.541V350.559C418.855 351.145 420.037 351.438 421.131 351.438C422.544 351.438 423.25 351.011 423.25 350.158C423.25 349.885 423.172 349.657 423.016 349.475C422.859 349.292 422.602 349.104 422.244 348.908C421.886 348.713 421.388 348.492 420.75 348.244C419.507 347.762 418.663 347.281 418.221 346.799C417.785 346.317 417.566 345.692 417.566 344.924C417.566 343.999 417.938 343.283 418.68 342.775C419.428 342.261 420.444 342.004 421.727 342.004C422.996 342.004 424.197 342.261 425.33 342.775L424.588 344.504C423.423 344.022 422.443 343.781 421.648 343.781C420.438 343.781 419.832 344.126 419.832 344.816C419.832 345.155 419.988 345.441 420.301 345.676C420.62 345.91 421.31 346.232 422.371 346.643C423.263 346.988 423.911 347.303 424.314 347.59C424.718 347.876 425.018 348.208 425.213 348.586C425.408 348.957 425.506 349.403 425.506 349.924ZM438.67 353.195C437.303 353.195 436.242 352.704 435.486 351.721H435.35C435.441 352.632 435.486 353.186 435.486 353.381V357.805H433.191V342.199H435.047C435.099 342.401 435.206 342.883 435.369 343.645H435.486C436.202 342.551 437.277 342.004 438.709 342.004C440.057 342.004 441.105 342.492 441.854 343.469C442.609 344.445 442.986 345.816 442.986 347.58C442.986 349.344 442.602 350.721 441.834 351.711C441.072 352.701 440.018 353.195 438.67 353.195ZM438.113 343.879C437.202 343.879 436.535 344.146 436.111 344.68C435.695 345.214 435.486 346.066 435.486 347.238V347.58C435.486 348.895 435.695 349.849 436.111 350.441C436.528 351.027 437.208 351.32 438.152 351.32C438.947 351.32 439.559 350.995 439.988 350.344C440.418 349.693 440.633 348.765 440.633 347.561C440.633 346.35 440.418 345.435 439.988 344.816C439.565 344.191 438.94 343.879 438.113 343.879ZM447.947 353H445.652V337.805H447.947V353ZM457.996 353L457.537 351.496H457.459C456.938 352.154 456.414 352.603 455.887 352.844C455.359 353.078 454.682 353.195 453.855 353.195C452.794 353.195 451.964 352.909 451.365 352.336C450.773 351.763 450.477 350.952 450.477 349.904C450.477 348.791 450.89 347.951 451.717 347.385C452.544 346.818 453.803 346.509 455.496 346.457L457.361 346.398V345.822C457.361 345.132 457.199 344.618 456.873 344.279C456.554 343.934 456.056 343.762 455.379 343.762C454.826 343.762 454.295 343.843 453.787 344.006C453.279 344.169 452.791 344.361 452.322 344.582L451.58 342.941C452.166 342.635 452.807 342.404 453.504 342.248C454.201 342.085 454.858 342.004 455.477 342.004C456.85 342.004 457.885 342.303 458.582 342.902C459.285 343.501 459.637 344.442 459.637 345.725V353H457.996ZM454.578 351.438C455.411 351.438 456.079 351.206 456.58 350.744C457.088 350.275 457.342 349.621 457.342 348.781V347.844L455.955 347.902C454.874 347.941 454.087 348.124 453.592 348.449C453.104 348.768 452.859 349.26 452.859 349.924C452.859 350.406 453.003 350.78 453.289 351.047C453.576 351.307 454.005 351.438 454.578 351.438ZM472.342 353H470.037V346.359C470.037 345.526 469.868 344.904 469.529 344.494C469.197 344.084 468.667 343.879 467.938 343.879C466.967 343.879 466.258 344.165 465.809 344.738C465.359 345.311 465.135 346.271 465.135 347.619V353H462.84V342.199H464.637L464.959 343.615H465.076C465.402 343.101 465.864 342.704 466.463 342.424C467.062 342.144 467.726 342.004 468.455 342.004C471.046 342.004 472.342 343.322 472.342 345.959V353ZM480.252 353.195C478.572 353.195 477.257 352.707 476.307 351.73C475.363 350.747 474.891 349.396 474.891 347.678C474.891 345.913 475.33 344.527 476.209 343.518C477.088 342.508 478.296 342.004 479.832 342.004C481.258 342.004 482.384 342.437 483.211 343.303C484.038 344.169 484.451 345.36 484.451 346.877V348.117H477.254C477.286 349.165 477.57 349.973 478.104 350.539C478.637 351.099 479.389 351.379 480.359 351.379C480.997 351.379 481.59 351.32 482.137 351.203C482.69 351.079 483.283 350.878 483.914 350.598V352.463C483.354 352.73 482.788 352.919 482.215 353.029C481.642 353.14 480.988 353.195 480.252 353.195ZM479.832 343.742C479.103 343.742 478.517 343.973 478.074 344.436C477.638 344.898 477.378 345.572 477.293 346.457H482.195C482.182 345.565 481.967 344.891 481.551 344.436C481.134 343.973 480.561 343.742 479.832 343.742ZM494.549 353H492.254V342.199H494.549V353ZM492.117 339.338C492.117 338.928 492.228 338.612 492.449 338.391C492.677 338.169 492.999 338.059 493.416 338.059C493.82 338.059 494.132 338.169 494.354 338.391C494.581 338.612 494.695 338.928 494.695 339.338C494.695 339.729 494.581 340.038 494.354 340.266C494.132 340.487 493.82 340.598 493.416 340.598C492.999 340.598 492.677 340.487 492.449 340.266C492.228 340.038 492.117 339.729 492.117 339.338ZM505.096 349.924C505.096 350.979 504.712 351.789 503.943 352.355C503.175 352.915 502.075 353.195 500.643 353.195C499.204 353.195 498.048 352.977 497.176 352.541V350.559C498.445 351.145 499.627 351.438 500.721 351.438C502.133 351.438 502.84 351.011 502.84 350.158C502.84 349.885 502.762 349.657 502.605 349.475C502.449 349.292 502.192 349.104 501.834 348.908C501.476 348.713 500.978 348.492 500.34 348.244C499.096 347.762 498.253 347.281 497.811 346.799C497.374 346.317 497.156 345.692 497.156 344.924C497.156 343.999 497.527 343.283 498.27 342.775C499.018 342.261 500.034 342.004 501.316 342.004C502.586 342.004 503.787 342.261 504.92 342.775L504.178 344.504C503.012 344.022 502.033 343.781 501.238 343.781C500.027 343.781 499.422 344.126 499.422 344.816C499.422 345.155 499.578 345.441 499.891 345.676C500.21 345.91 500.9 346.232 501.961 346.643C502.853 346.988 503.501 347.303 503.904 347.59C504.308 347.876 504.607 348.208 504.803 348.586C504.998 348.957 505.096 349.403 505.096 349.924ZM519.539 353L519.08 351.496H519.002C518.481 352.154 517.957 352.603 517.43 352.844C516.902 353.078 516.225 353.195 515.398 353.195C514.337 353.195 513.507 352.909 512.908 352.336C512.316 351.763 512.02 350.952 512.02 349.904C512.02 348.791 512.433 347.951 513.26 347.385C514.087 346.818 515.346 346.509 517.039 346.457L518.904 346.398V345.822C518.904 345.132 518.742 344.618 518.416 344.279C518.097 343.934 517.599 343.762 516.922 343.762C516.368 343.762 515.838 343.843 515.33 344.006C514.822 344.169 514.334 344.361 513.865 344.582L513.123 342.941C513.709 342.635 514.35 342.404 515.047 342.248C515.743 342.085 516.401 342.004 517.02 342.004C518.393 342.004 519.428 342.303 520.125 342.902C520.828 343.501 521.18 344.442 521.18 345.725V353H519.539ZM516.121 351.438C516.954 351.438 517.622 351.206 518.123 350.744C518.631 350.275 518.885 349.621 518.885 348.781V347.844L517.498 347.902C516.417 347.941 515.63 348.124 515.135 348.449C514.646 348.768 514.402 349.26 514.402 349.924C514.402 350.406 514.546 350.78 514.832 351.047C515.118 351.307 515.548 351.438 516.121 351.438ZM526.678 353H524.383V337.805H526.678V353ZM532.264 353H529.969V337.805H532.264V353ZM544.773 351.34C545.333 351.34 545.893 351.252 546.453 351.076V352.805C546.199 352.915 545.87 353.007 545.467 353.078C545.07 353.156 544.656 353.195 544.227 353.195C542.052 353.195 540.965 352.049 540.965 349.758V343.938H539.49V342.922L541.072 342.082L541.854 339.797H543.27V342.199H546.346V343.938H543.27V349.719C543.27 350.272 543.406 350.682 543.68 350.949C543.96 351.21 544.324 351.34 544.773 351.34ZM558.123 353H555.818V346.359C555.818 345.526 555.649 344.904 555.311 344.494C554.979 344.084 554.448 343.879 553.719 343.879C552.755 343.879 552.046 344.169 551.59 344.748C551.141 345.321 550.916 346.285 550.916 347.639V353H548.621V337.805H550.916V341.662C550.916 342.281 550.877 342.941 550.799 343.645H550.945C551.258 343.124 551.691 342.72 552.244 342.434C552.804 342.147 553.455 342.004 554.197 342.004C556.814 342.004 558.123 343.322 558.123 345.959V353ZM566.033 353.195C564.354 353.195 563.038 352.707 562.088 351.73C561.144 350.747 560.672 349.396 560.672 347.678C560.672 345.913 561.111 344.527 561.99 343.518C562.869 342.508 564.077 342.004 565.613 342.004C567.039 342.004 568.165 342.437 568.992 343.303C569.819 344.169 570.232 345.36 570.232 346.877V348.117H563.035C563.068 349.165 563.351 349.973 563.885 350.539C564.419 351.099 565.171 351.379 566.141 351.379C566.779 351.379 567.371 351.32 567.918 351.203C568.471 351.079 569.064 350.878 569.695 350.598V352.463C569.135 352.73 568.569 352.919 567.996 353.029C567.423 353.14 566.769 353.195 566.033 353.195ZM565.613 343.742C564.884 343.742 564.298 343.973 563.855 344.436C563.419 344.898 563.159 345.572 563.074 346.457H567.977C567.964 345.565 567.749 344.891 567.332 344.436C566.915 343.973 566.342 343.742 565.613 343.742ZM583.514 353.195C582.146 353.195 581.085 352.704 580.33 351.721H580.193C580.285 352.632 580.33 353.186 580.33 353.381V357.805H578.035V342.199H579.891C579.943 342.401 580.05 342.883 580.213 343.645H580.33C581.046 342.551 582.12 342.004 583.553 342.004C584.9 342.004 585.949 342.492 586.697 343.469C587.452 344.445 587.83 345.816 587.83 347.58C587.83 349.344 587.446 350.721 586.678 351.711C585.916 352.701 584.861 353.195 583.514 353.195ZM582.957 343.879C582.046 343.879 581.378 344.146 580.955 344.68C580.538 345.214 580.33 346.066 580.33 347.238V347.58C580.33 348.895 580.538 349.849 580.955 350.441C581.372 351.027 582.052 351.32 582.996 351.32C583.79 351.32 584.402 350.995 584.832 350.344C585.262 349.693 585.477 348.765 585.477 347.561C585.477 346.35 585.262 345.435 584.832 344.816C584.409 344.191 583.784 343.879 582.957 343.879ZM600.076 347.58C600.076 349.344 599.624 350.721 598.719 351.711C597.814 352.701 596.554 353.195 594.939 353.195C593.93 353.195 593.038 352.967 592.264 352.512C591.489 352.056 590.893 351.402 590.477 350.549C590.06 349.696 589.852 348.706 589.852 347.58C589.852 345.829 590.301 344.462 591.199 343.479C592.098 342.495 593.364 342.004 594.998 342.004C596.561 342.004 597.798 342.508 598.709 343.518C599.62 344.52 600.076 345.874 600.076 347.58ZM592.215 347.58C592.215 350.074 593.136 351.32 594.979 351.32C596.801 351.32 597.713 350.074 597.713 347.58C597.713 345.113 596.795 343.879 594.959 343.879C593.995 343.879 593.296 344.198 592.859 344.836C592.43 345.474 592.215 346.389 592.215 347.58ZM605.018 353H602.723V342.199H605.018V353ZM602.586 339.338C602.586 338.928 602.697 338.612 602.918 338.391C603.146 338.169 603.468 338.059 603.885 338.059C604.288 338.059 604.601 338.169 604.822 338.391C605.05 338.612 605.164 338.928 605.164 339.338C605.164 339.729 605.05 340.038 604.822 340.266C604.601 340.487 604.288 340.598 603.885 340.598C603.468 340.598 603.146 340.487 602.918 340.266C602.697 340.038 602.586 339.729 602.586 339.338ZM617.811 353H615.506V346.359C615.506 345.526 615.337 344.904 614.998 344.494C614.666 344.084 614.135 343.879 613.406 343.879C612.436 343.879 611.727 344.165 611.277 344.738C610.828 345.311 610.604 346.271 610.604 347.619V353H608.309V342.199H610.105L610.428 343.615H610.545C610.87 343.101 611.333 342.704 611.932 342.424C612.531 342.144 613.195 342.004 613.924 342.004C616.515 342.004 617.811 343.322 617.811 345.959V353ZM625.027 351.34C625.587 351.34 626.147 351.252 626.707 351.076V352.805C626.453 352.915 626.124 353.007 625.721 353.078C625.324 353.156 624.91 353.195 624.48 353.195C622.306 353.195 621.219 352.049 621.219 349.758V343.938H619.744V342.922L621.326 342.082L622.107 339.797H623.523V342.199H626.6V343.938H623.523V349.719C623.523 350.272 623.66 350.682 623.934 350.949C624.214 351.21 624.578 351.34 625.027 351.34ZM636.131 349.924C636.131 350.979 635.747 351.789 634.979 352.355C634.21 352.915 633.11 353.195 631.678 353.195C630.239 353.195 629.083 352.977 628.211 352.541V350.559C629.48 351.145 630.662 351.438 631.756 351.438C633.169 351.438 633.875 351.011 633.875 350.158C633.875 349.885 633.797 349.657 633.641 349.475C633.484 349.292 633.227 349.104 632.869 348.908C632.511 348.713 632.013 348.492 631.375 348.244C630.132 347.762 629.288 347.281 628.846 346.799C628.41 346.317 628.191 345.692 628.191 344.924C628.191 343.999 628.562 343.283 629.305 342.775C630.053 342.261 631.069 342.004 632.352 342.004C633.621 342.004 634.822 342.261 635.955 342.775L635.213 344.504C634.048 344.022 633.068 343.781 632.273 343.781C631.062 343.781 630.457 344.126 630.457 344.816C630.457 345.155 630.613 345.441 630.926 345.676C631.245 345.91 631.935 346.232 632.996 346.643C633.888 346.988 634.536 347.303 634.939 347.59C635.343 347.876 635.643 348.208 635.838 348.586C636.033 348.957 636.131 349.403 636.131 349.924ZM392.664 378.34C393.224 378.34 393.784 378.252 394.344 378.076V379.805C394.09 379.915 393.761 380.007 393.357 380.078C392.96 380.156 392.547 380.195 392.117 380.195C389.943 380.195 388.855 379.049 388.855 376.758V370.938H387.381V369.922L388.963 369.082L389.744 366.797H391.16V369.199H394.236V370.938H391.16V376.719C391.16 377.272 391.297 377.682 391.57 377.949C391.85 378.21 392.215 378.34 392.664 378.34ZM406.014 380H403.709V373.359C403.709 372.526 403.54 371.904 403.201 371.494C402.869 371.084 402.339 370.879 401.609 370.879C400.646 370.879 399.936 371.169 399.48 371.748C399.031 372.321 398.807 373.285 398.807 374.639V380H396.512V364.805H398.807V368.662C398.807 369.281 398.768 369.941 398.689 370.645H398.836C399.148 370.124 399.581 369.72 400.135 369.434C400.695 369.147 401.346 369.004 402.088 369.004C404.705 369.004 406.014 370.322 406.014 372.959V380ZM415.965 380L415.506 378.496H415.428C414.907 379.154 414.383 379.603 413.855 379.844C413.328 380.078 412.651 380.195 411.824 380.195C410.763 380.195 409.933 379.909 409.334 379.336C408.742 378.763 408.445 377.952 408.445 376.904C408.445 375.791 408.859 374.951 409.686 374.385C410.512 373.818 411.772 373.509 413.465 373.457L415.33 373.398V372.822C415.33 372.132 415.167 371.618 414.842 371.279C414.523 370.934 414.025 370.762 413.348 370.762C412.794 370.762 412.264 370.843 411.756 371.006C411.248 371.169 410.76 371.361 410.291 371.582L409.549 369.941C410.135 369.635 410.776 369.404 411.473 369.248C412.169 369.085 412.827 369.004 413.445 369.004C414.819 369.004 415.854 369.303 416.551 369.902C417.254 370.501 417.605 371.442 417.605 372.725V380H415.965ZM412.547 378.438C413.38 378.438 414.048 378.206 414.549 377.744C415.057 377.275 415.311 376.621 415.311 375.781V374.844L413.924 374.902C412.843 374.941 412.055 375.124 411.561 375.449C411.072 375.768 410.828 376.26 410.828 376.924C410.828 377.406 410.971 377.78 411.258 378.047C411.544 378.307 411.974 378.438 412.547 378.438ZM424.832 378.34C425.392 378.34 425.952 378.252 426.512 378.076V379.805C426.258 379.915 425.929 380.007 425.525 380.078C425.128 380.156 424.715 380.195 424.285 380.195C422.111 380.195 421.023 379.049 421.023 376.758V370.938H419.549V369.922L421.131 369.082L421.912 366.797H423.328V369.199H426.404V370.938H423.328V376.719C423.328 377.272 423.465 377.682 423.738 377.949C424.018 378.21 424.383 378.34 424.832 378.34ZM441.131 376.924C441.131 377.979 440.747 378.789 439.979 379.355C439.21 379.915 438.11 380.195 436.678 380.195C435.239 380.195 434.083 379.977 433.211 379.541V377.559C434.48 378.145 435.662 378.438 436.756 378.438C438.169 378.438 438.875 378.011 438.875 377.158C438.875 376.885 438.797 376.657 438.641 376.475C438.484 376.292 438.227 376.104 437.869 375.908C437.511 375.713 437.013 375.492 436.375 375.244C435.132 374.762 434.288 374.281 433.846 373.799C433.41 373.317 433.191 372.692 433.191 371.924C433.191 370.999 433.562 370.283 434.305 369.775C435.053 369.261 436.069 369.004 437.352 369.004C438.621 369.004 439.822 369.261 440.955 369.775L440.213 371.504C439.048 371.022 438.068 370.781 437.273 370.781C436.062 370.781 435.457 371.126 435.457 371.816C435.457 372.155 435.613 372.441 435.926 372.676C436.245 372.91 436.935 373.232 437.996 373.643C438.888 373.988 439.536 374.303 439.939 374.59C440.343 374.876 440.643 375.208 440.838 375.586C441.033 375.957 441.131 376.403 441.131 376.924ZM453.201 374.58C453.201 376.344 452.749 377.721 451.844 378.711C450.939 379.701 449.679 380.195 448.064 380.195C447.055 380.195 446.163 379.967 445.389 379.512C444.614 379.056 444.018 378.402 443.602 377.549C443.185 376.696 442.977 375.706 442.977 374.58C442.977 372.829 443.426 371.462 444.324 370.479C445.223 369.495 446.489 369.004 448.123 369.004C449.686 369.004 450.923 369.508 451.834 370.518C452.745 371.52 453.201 372.874 453.201 374.58ZM445.34 374.58C445.34 377.074 446.261 378.32 448.104 378.32C449.926 378.32 450.838 377.074 450.838 374.58C450.838 372.113 449.92 370.879 448.084 370.879C447.12 370.879 446.421 371.198 445.984 371.836C445.555 372.474 445.34 373.389 445.34 374.58ZM458.143 380H455.848V364.805H458.143V380ZM463.895 380L459.793 369.199H462.215L464.412 375.479C464.79 376.533 465.018 377.386 465.096 378.037H465.174C465.232 377.568 465.46 376.715 465.857 375.479L468.055 369.199H470.496L466.375 380H463.895ZM476.854 380.195C475.174 380.195 473.859 379.707 472.908 378.73C471.964 377.747 471.492 376.396 471.492 374.678C471.492 372.913 471.932 371.527 472.811 370.518C473.689 369.508 474.897 369.004 476.434 369.004C477.859 369.004 478.986 369.437 479.812 370.303C480.639 371.169 481.053 372.36 481.053 373.877V375.117H473.855C473.888 376.165 474.171 376.973 474.705 377.539C475.239 378.099 475.991 378.379 476.961 378.379C477.599 378.379 478.191 378.32 478.738 378.203C479.292 378.079 479.884 377.878 480.516 377.598V379.463C479.956 379.73 479.389 379.919 478.816 380.029C478.243 380.14 477.589 380.195 476.854 380.195ZM476.434 370.742C475.704 370.742 475.118 370.973 474.676 371.436C474.24 371.898 473.979 372.572 473.895 373.457H478.797C478.784 372.565 478.569 371.891 478.152 371.436C477.736 370.973 477.163 370.742 476.434 370.742ZM492.879 378.34C493.439 378.34 493.999 378.252 494.559 378.076V379.805C494.305 379.915 493.976 380.007 493.572 380.078C493.175 380.156 492.762 380.195 492.332 380.195C490.158 380.195 489.07 379.049 489.07 376.758V370.938H487.596V369.922L489.178 369.082L489.959 366.797H491.375V369.199H494.451V370.938H491.375V376.719C491.375 377.272 491.512 377.682 491.785 377.949C492.065 378.21 492.43 378.34 492.879 378.34ZM506.229 380H503.924V373.359C503.924 372.526 503.755 371.904 503.416 371.494C503.084 371.084 502.553 370.879 501.824 370.879C500.861 370.879 500.151 371.169 499.695 371.748C499.246 372.321 499.021 373.285 499.021 374.639V380H496.727V364.805H499.021V368.662C499.021 369.281 498.982 369.941 498.904 370.645H499.051C499.363 370.124 499.796 369.72 500.35 369.434C500.91 369.147 501.561 369.004 502.303 369.004C504.92 369.004 506.229 370.322 506.229 372.959V380ZM511.717 380H509.422V369.199H511.717V380ZM509.285 366.338C509.285 365.928 509.396 365.612 509.617 365.391C509.845 365.169 510.167 365.059 510.584 365.059C510.988 365.059 511.3 365.169 511.521 365.391C511.749 365.612 511.863 365.928 511.863 366.338C511.863 366.729 511.749 367.038 511.521 367.266C511.3 367.487 510.988 367.598 510.584 367.598C510.167 367.598 509.845 367.487 509.617 367.266C509.396 367.038 509.285 366.729 509.285 366.338ZM522.264 376.924C522.264 377.979 521.88 378.789 521.111 379.355C520.343 379.915 519.243 380.195 517.811 380.195C516.372 380.195 515.216 379.977 514.344 379.541V377.559C515.613 378.145 516.795 378.438 517.889 378.438C519.301 378.438 520.008 378.011 520.008 377.158C520.008 376.885 519.93 376.657 519.773 376.475C519.617 376.292 519.36 376.104 519.002 375.908C518.644 375.713 518.146 375.492 517.508 375.244C516.264 374.762 515.421 374.281 514.979 373.799C514.542 373.317 514.324 372.692 514.324 371.924C514.324 370.999 514.695 370.283 515.438 369.775C516.186 369.261 517.202 369.004 518.484 369.004C519.754 369.004 520.955 369.261 522.088 369.775L521.346 371.504C520.18 371.022 519.201 370.781 518.406 370.781C517.195 370.781 516.59 371.126 516.59 371.816C516.59 372.155 516.746 372.441 517.059 372.676C517.378 372.91 518.068 373.232 519.129 373.643C520.021 373.988 520.669 374.303 521.072 374.59C521.476 374.876 521.775 375.208 521.971 375.586C522.166 375.957 522.264 376.403 522.264 376.924ZM534.666 380.195C532.986 380.195 531.671 379.707 530.721 378.73C529.777 377.747 529.305 376.396 529.305 374.678C529.305 372.913 529.744 371.527 530.623 370.518C531.502 369.508 532.71 369.004 534.246 369.004C535.672 369.004 536.798 369.437 537.625 370.303C538.452 371.169 538.865 372.36 538.865 373.877V375.117H531.668C531.701 376.165 531.984 376.973 532.518 377.539C533.051 378.099 533.803 378.379 534.773 378.379C535.411 378.379 536.004 378.32 536.551 378.203C537.104 378.079 537.697 377.878 538.328 377.598V379.463C537.768 379.73 537.202 379.919 536.629 380.029C536.056 380.14 535.402 380.195 534.666 380.195ZM534.246 370.742C533.517 370.742 532.931 370.973 532.488 371.436C532.052 371.898 531.792 372.572 531.707 373.457H536.609C536.596 372.565 536.382 371.891 535.965 371.436C535.548 370.973 534.975 370.742 534.246 370.742ZM545.75 378.359C546.714 378.359 547.404 378.083 547.82 377.529C548.243 376.969 548.455 376.126 548.455 375V374.639C548.455 373.304 548.237 372.344 547.801 371.758C547.371 371.172 546.674 370.879 545.711 370.879C544.891 370.879 544.266 371.204 543.836 371.855C543.406 372.507 543.191 373.441 543.191 374.658C543.191 377.126 544.044 378.359 545.75 378.359ZM545.096 380.195C543.761 380.195 542.716 379.707 541.961 378.73C541.206 377.747 540.828 376.377 540.828 374.619C540.828 372.861 541.212 371.488 541.98 370.498C542.749 369.502 543.807 369.004 545.154 369.004C545.831 369.004 546.437 369.131 546.971 369.385C547.511 369.632 547.993 370.042 548.416 370.615H548.494L548.748 369.199H550.652V384.805H548.348V380.225C548.348 379.938 548.361 379.635 548.387 379.316C548.413 378.997 548.436 378.753 548.455 378.584H548.328C547.651 379.658 546.574 380.195 545.096 380.195ZM561.551 380L561.229 378.584H561.111C560.792 379.085 560.337 379.479 559.744 379.766C559.158 380.052 558.488 380.195 557.732 380.195C556.424 380.195 555.447 379.87 554.803 379.219C554.158 378.568 553.836 377.581 553.836 376.26V369.199H556.15V375.859C556.15 376.686 556.32 377.308 556.658 377.725C556.997 378.135 557.527 378.34 558.25 378.34C559.214 378.34 559.92 378.053 560.369 377.48C560.825 376.901 561.053 375.934 561.053 374.58V369.199H563.357V380H561.551ZM573.387 380L572.928 378.496H572.85C572.329 379.154 571.805 379.603 571.277 379.844C570.75 380.078 570.073 380.195 569.246 380.195C568.185 380.195 567.355 379.909 566.756 379.336C566.163 378.763 565.867 377.952 565.867 376.904C565.867 375.791 566.281 374.951 567.107 374.385C567.934 373.818 569.194 373.509 570.887 373.457L572.752 373.398V372.822C572.752 372.132 572.589 371.618 572.264 371.279C571.945 370.934 571.447 370.762 570.77 370.762C570.216 370.762 569.686 370.843 569.178 371.006C568.67 371.169 568.182 371.361 567.713 371.582L566.971 369.941C567.557 369.635 568.198 369.404 568.895 369.248C569.591 369.085 570.249 369.004 570.867 369.004C572.241 369.004 573.276 369.303 573.973 369.902C574.676 370.501 575.027 371.442 575.027 372.725V380H573.387ZM569.969 378.438C570.802 378.438 571.469 378.206 571.971 377.744C572.479 377.275 572.732 376.621 572.732 375.781V374.844L571.346 374.902C570.265 374.941 569.477 375.124 568.982 375.449C568.494 375.768 568.25 376.26 568.25 376.924C568.25 377.406 568.393 377.78 568.68 378.047C568.966 378.307 569.396 378.438 569.969 378.438ZM582.254 378.34C582.814 378.34 583.374 378.252 583.934 378.076V379.805C583.68 379.915 583.351 380.007 582.947 380.078C582.55 380.156 582.137 380.195 581.707 380.195C579.533 380.195 578.445 379.049 578.445 376.758V370.938H576.971V369.922L578.553 369.082L579.334 366.797H580.75V369.199H583.826V370.938H580.75V376.719C580.75 377.272 580.887 377.682 581.16 377.949C581.44 378.21 581.805 378.34 582.254 378.34ZM588.396 380H586.102V369.199H588.396V380ZM585.965 366.338C585.965 365.928 586.076 365.612 586.297 365.391C586.525 365.169 586.847 365.059 587.264 365.059C587.667 365.059 587.98 365.169 588.201 365.391C588.429 365.612 588.543 365.928 588.543 366.338C588.543 366.729 588.429 367.038 588.201 367.266C587.98 367.487 587.667 367.598 587.264 367.598C586.847 367.598 586.525 367.487 586.297 367.266C586.076 367.038 585.965 366.729 585.965 366.338ZM601.268 374.58C601.268 376.344 600.815 377.721 599.91 378.711C599.005 379.701 597.745 380.195 596.131 380.195C595.122 380.195 594.23 379.967 593.455 379.512C592.68 379.056 592.085 378.402 591.668 377.549C591.251 376.696 591.043 375.706 591.043 374.58C591.043 372.829 591.492 371.462 592.391 370.479C593.289 369.495 594.555 369.004 596.189 369.004C597.752 369.004 598.989 369.508 599.9 370.518C600.812 371.52 601.268 372.874 601.268 374.58ZM593.406 374.58C593.406 377.074 594.327 378.32 596.17 378.32C597.993 378.32 598.904 377.074 598.904 374.58C598.904 372.113 597.986 370.879 596.15 370.879C595.187 370.879 594.487 371.198 594.051 371.836C593.621 372.474 593.406 373.389 593.406 374.58ZM613.416 380H611.111V373.359C611.111 372.526 610.942 371.904 610.604 371.494C610.271 371.084 609.741 370.879 609.012 370.879C608.042 370.879 607.332 371.165 606.883 371.738C606.434 372.311 606.209 373.271 606.209 374.619V380H603.914V369.199H605.711L606.033 370.615H606.15C606.476 370.101 606.938 369.704 607.537 369.424C608.136 369.144 608.8 369.004 609.529 369.004C612.12 369.004 613.416 370.322 613.416 372.959V380ZM616.268 378.779C616.268 378.304 616.391 377.939 616.639 377.686C616.886 377.432 617.244 377.305 617.713 377.305C618.188 377.305 618.549 377.438 618.797 377.705C619.044 377.965 619.168 378.324 619.168 378.779C619.168 379.242 619.041 379.609 618.787 379.883C618.54 380.15 618.182 380.283 617.713 380.283C617.244 380.283 616.886 380.15 616.639 379.883C616.391 379.616 616.268 379.248 616.268 378.779Z" fill="#FF006B"/>
<path d="M818.143 401H810.066V386.723H818.143V388.695H812.4V392.582H817.781V394.535H812.4V399.018H818.143V401ZM827.752 401L827.293 399.496H827.215C826.694 400.154 826.17 400.603 825.643 400.844C825.115 401.078 824.438 401.195 823.611 401.195C822.55 401.195 821.72 400.909 821.121 400.336C820.529 399.763 820.232 398.952 820.232 397.904C820.232 396.791 820.646 395.951 821.473 395.385C822.299 394.818 823.559 394.509 825.252 394.457L827.117 394.398V393.822C827.117 393.132 826.954 392.618 826.629 392.279C826.31 391.934 825.812 391.762 825.135 391.762C824.581 391.762 824.051 391.843 823.543 392.006C823.035 392.169 822.547 392.361 822.078 392.582L821.336 390.941C821.922 390.635 822.563 390.404 823.26 390.248C823.956 390.085 824.614 390.004 825.232 390.004C826.606 390.004 827.641 390.303 828.338 390.902C829.041 391.501 829.393 392.442 829.393 393.725V401H827.752ZM824.334 399.438C825.167 399.438 825.835 399.206 826.336 398.744C826.844 398.275 827.098 397.621 827.098 396.781V395.844L825.711 395.902C824.63 395.941 823.842 396.124 823.348 396.449C822.859 396.768 822.615 397.26 822.615 397.924C822.615 398.406 822.758 398.78 823.045 399.047C823.331 399.307 823.761 399.438 824.334 399.438ZM836.951 401.195C835.317 401.195 834.074 400.72 833.221 399.77C832.374 398.812 831.951 397.442 831.951 395.658C831.951 393.842 832.394 392.445 833.279 391.469C834.171 390.492 835.457 390.004 837.137 390.004C838.276 390.004 839.301 390.215 840.213 390.639L839.52 392.484C838.549 392.107 837.749 391.918 837.117 391.918C835.249 391.918 834.314 393.158 834.314 395.639C834.314 396.85 834.546 397.761 835.008 398.373C835.477 398.979 836.16 399.281 837.059 399.281C838.081 399.281 839.048 399.027 839.959 398.52V400.521C839.549 400.762 839.109 400.935 838.641 401.039C838.178 401.143 837.615 401.195 836.951 401.195ZM852 401H849.695V394.359C849.695 393.526 849.526 392.904 849.188 392.494C848.855 392.084 848.325 391.879 847.596 391.879C846.632 391.879 845.923 392.169 845.467 392.748C845.018 393.321 844.793 394.285 844.793 395.639V401H842.498V385.805H844.793V389.662C844.793 390.281 844.754 390.941 844.676 391.645H844.822C845.135 391.124 845.568 390.72 846.121 390.434C846.681 390.147 847.332 390.004 848.074 390.004C850.691 390.004 852 391.322 852 393.959V401ZM865.867 390.004C866.329 390.004 866.71 390.036 867.01 390.102L866.785 392.24C866.46 392.162 866.121 392.123 865.77 392.123C864.852 392.123 864.106 392.423 863.533 393.021C862.967 393.62 862.684 394.398 862.684 395.355V401H860.389V390.199H862.186L862.488 392.104H862.605C862.964 391.459 863.429 390.948 864.002 390.57C864.581 390.193 865.203 390.004 865.867 390.004ZM878.602 395.58C878.602 397.344 878.149 398.721 877.244 399.711C876.339 400.701 875.079 401.195 873.465 401.195C872.456 401.195 871.564 400.967 870.789 400.512C870.014 400.056 869.419 399.402 869.002 398.549C868.585 397.696 868.377 396.706 868.377 395.58C868.377 393.829 868.826 392.462 869.725 391.479C870.623 390.495 871.889 390.004 873.523 390.004C875.086 390.004 876.323 390.508 877.234 391.518C878.146 392.52 878.602 393.874 878.602 395.58ZM870.74 395.58C870.74 398.074 871.661 399.32 873.504 399.32C875.327 399.32 876.238 398.074 876.238 395.58C876.238 393.113 875.32 391.879 873.484 391.879C872.521 391.879 871.821 392.198 871.385 392.836C870.955 393.474 870.74 394.389 870.74 395.58ZM890.105 401L888.709 395.961C888.54 395.427 888.234 394.187 887.791 392.24H887.703C887.326 393.998 887.026 395.245 886.805 395.98L885.369 401H882.83L879.803 390.199H882.146L883.523 395.521C883.836 396.837 884.057 397.963 884.188 398.9H884.246C884.311 398.425 884.409 397.882 884.539 397.27C884.676 396.651 884.793 396.189 884.891 395.883L886.531 390.199H889.051L890.643 395.883C890.74 396.202 890.861 396.69 891.004 397.348C891.154 398.005 891.242 398.516 891.268 398.881H891.346C891.443 398.08 891.671 396.96 892.029 395.521L893.426 390.199H895.73L892.684 401H890.105ZM905.086 401H902.791V390.199H905.086V401ZM902.654 387.338C902.654 386.928 902.765 386.612 902.986 386.391C903.214 386.169 903.536 386.059 903.953 386.059C904.357 386.059 904.669 386.169 904.891 386.391C905.118 386.612 905.232 386.928 905.232 387.338C905.232 387.729 905.118 388.038 904.891 388.266C904.669 388.487 904.357 388.598 903.953 388.598C903.536 388.598 903.214 388.487 902.986 388.266C902.765 388.038 902.654 387.729 902.654 387.338ZM917.879 401H915.574V394.359C915.574 393.526 915.405 392.904 915.066 392.494C914.734 392.084 914.204 391.879 913.475 391.879C912.505 391.879 911.795 392.165 911.346 392.738C910.896 393.311 910.672 394.271 910.672 395.619V401H908.377V390.199H910.174L910.496 391.615H910.613C910.939 391.101 911.401 390.704 912 390.424C912.599 390.144 913.263 390.004 913.992 390.004C916.583 390.004 917.879 391.322 917.879 393.959V401ZM933.025 401L932.566 399.496H932.488C931.967 400.154 931.443 400.603 930.916 400.844C930.389 401.078 929.712 401.195 928.885 401.195C927.824 401.195 926.993 400.909 926.395 400.336C925.802 399.763 925.506 398.952 925.506 397.904C925.506 396.791 925.919 395.951 926.746 395.385C927.573 394.818 928.833 394.509 930.525 394.457L932.391 394.398V393.822C932.391 393.132 932.228 392.618 931.902 392.279C931.583 391.934 931.085 391.762 930.408 391.762C929.855 391.762 929.324 391.843 928.816 392.006C928.309 392.169 927.82 392.361 927.352 392.582L926.609 390.941C927.195 390.635 927.837 390.404 928.533 390.248C929.23 390.085 929.887 390.004 930.506 390.004C931.88 390.004 932.915 390.303 933.611 390.902C934.314 391.501 934.666 392.442 934.666 393.725V401H933.025ZM929.607 399.438C930.441 399.438 931.108 399.206 931.609 398.744C932.117 398.275 932.371 397.621 932.371 396.781V395.844L930.984 395.902C929.904 395.941 929.116 396.124 928.621 396.449C928.133 396.768 927.889 397.26 927.889 397.924C927.889 398.406 928.032 398.78 928.318 399.047C928.605 399.307 929.035 399.438 929.607 399.438ZM951.443 390.004C951.443 390.909 951.18 391.664 950.652 392.27C950.125 392.868 949.383 393.272 948.426 393.48V393.559C949.572 393.702 950.431 394.06 951.004 394.633C951.577 395.199 951.863 395.954 951.863 396.898C951.863 398.272 951.378 399.333 950.408 400.082C949.438 400.824 948.058 401.195 946.268 401.195C944.686 401.195 943.351 400.938 942.264 400.424V398.383C942.869 398.682 943.51 398.913 944.188 399.076C944.865 399.239 945.516 399.32 946.141 399.32C947.247 399.32 948.074 399.115 948.621 398.705C949.168 398.295 949.441 397.66 949.441 396.801C949.441 396.039 949.139 395.479 948.533 395.121C947.928 394.763 946.977 394.584 945.682 394.584H944.441V392.719H945.701C947.98 392.719 949.119 391.931 949.119 390.355C949.119 389.743 948.921 389.271 948.523 388.939C948.126 388.607 947.54 388.441 946.766 388.441C946.225 388.441 945.704 388.52 945.203 388.676C944.702 388.826 944.109 389.122 943.426 389.564L942.303 387.963C943.611 386.999 945.132 386.518 946.863 386.518C948.302 386.518 949.425 386.827 950.232 387.445C951.04 388.064 951.443 388.917 951.443 390.004ZM956.893 395.482L953.27 390.199H955.887L958.348 393.979L960.828 390.199H963.426L959.793 395.482L963.611 401H961.014L958.348 396.957L955.691 401H953.094L956.893 395.482ZM973.885 390.004C973.885 390.909 973.621 391.664 973.094 392.27C972.566 392.868 971.824 393.272 970.867 393.48V393.559C972.013 393.702 972.872 394.06 973.445 394.633C974.018 395.199 974.305 395.954 974.305 396.898C974.305 398.272 973.82 399.333 972.85 400.082C971.88 400.824 970.499 401.195 968.709 401.195C967.127 401.195 965.792 400.938 964.705 400.424V398.383C965.311 398.682 965.952 398.913 966.629 399.076C967.306 399.239 967.957 399.32 968.582 399.32C969.689 399.32 970.516 399.115 971.062 398.705C971.609 398.295 971.883 397.66 971.883 396.801C971.883 396.039 971.58 395.479 970.975 395.121C970.369 394.763 969.419 394.584 968.123 394.584H966.883V392.719H968.143C970.421 392.719 971.561 391.931 971.561 390.355C971.561 389.743 971.362 389.271 970.965 388.939C970.568 388.607 969.982 388.441 969.207 388.441C968.667 388.441 968.146 388.52 967.645 388.676C967.143 388.826 966.551 389.122 965.867 389.564L964.744 387.963C966.053 386.999 967.573 386.518 969.305 386.518C970.743 386.518 971.867 386.827 972.674 387.445C973.481 388.064 973.885 388.917 973.885 390.004ZM987.605 401.195C986.238 401.195 985.177 400.704 984.422 399.721H984.285C984.376 400.632 984.422 401.186 984.422 401.381V405.805H982.127V390.199H983.982C984.035 390.401 984.142 390.883 984.305 391.645H984.422C985.138 390.551 986.212 390.004 987.645 390.004C988.992 390.004 990.04 390.492 990.789 391.469C991.544 392.445 991.922 393.816 991.922 395.58C991.922 397.344 991.538 398.721 990.77 399.711C990.008 400.701 988.953 401.195 987.605 401.195ZM987.049 391.879C986.137 391.879 985.47 392.146 985.047 392.68C984.63 393.214 984.422 394.066 984.422 395.238V395.58C984.422 396.895 984.63 397.849 985.047 398.441C985.464 399.027 986.144 399.32 987.088 399.32C987.882 399.32 988.494 398.995 988.924 398.344C989.354 397.693 989.568 396.765 989.568 395.561C989.568 394.35 989.354 393.435 988.924 392.816C988.501 392.191 987.876 391.879 987.049 391.879ZM1000.07 390.004C1000.53 390.004 1000.91 390.036 1001.21 390.102L1000.98 392.24C1000.66 392.162 1000.32 392.123 999.969 392.123C999.051 392.123 998.305 392.423 997.732 393.021C997.166 393.62 996.883 394.398 996.883 395.355V401H994.588V390.199H996.385L996.688 392.104H996.805C997.163 391.459 997.628 390.948 998.201 390.57C998.781 390.193 999.402 390.004 1000.07 390.004ZM1012.8 395.58C1012.8 397.344 1012.35 398.721 1011.44 399.711C1010.54 400.701 1009.28 401.195 1007.66 401.195C1006.65 401.195 1005.76 400.967 1004.99 400.512C1004.21 400.056 1003.62 399.402 1003.2 398.549C1002.78 397.696 1002.58 396.706 1002.58 395.58C1002.58 393.829 1003.03 392.462 1003.92 391.479C1004.82 390.495 1006.09 390.004 1007.72 390.004C1009.29 390.004 1010.52 390.508 1011.43 391.518C1012.35 392.52 1012.8 393.874 1012.8 395.58ZM1004.94 395.58C1004.94 398.074 1005.86 399.32 1007.7 399.32C1009.53 399.32 1010.44 398.074 1010.44 395.58C1010.44 393.113 1009.52 391.879 1007.68 391.879C1006.72 391.879 1006.02 392.198 1005.58 392.836C1005.15 393.474 1004.94 394.389 1004.94 395.58ZM1020.96 390.004C1022.31 390.004 1023.36 390.492 1024.11 391.469C1024.86 392.445 1025.24 393.816 1025.24 395.58C1025.24 397.351 1024.86 398.731 1024.1 399.721C1023.34 400.704 1022.28 401.195 1020.93 401.195C1019.56 401.195 1018.5 400.704 1017.74 399.721H1017.59L1017.17 401H1015.45V385.805H1017.74V389.418C1017.74 389.685 1017.73 390.082 1017.7 390.609C1017.68 391.137 1017.66 391.472 1017.64 391.615H1017.74C1018.47 390.541 1019.55 390.004 1020.96 390.004ZM1020.37 391.879C1019.44 391.879 1018.78 392.152 1018.37 392.699C1017.96 393.24 1017.76 394.148 1017.74 395.424V395.58C1017.74 396.895 1017.95 397.849 1018.37 398.441C1018.78 399.027 1019.46 399.32 1020.41 399.32C1021.22 399.32 1021.84 398.998 1022.25 398.354C1022.68 397.709 1022.89 396.778 1022.89 395.561C1022.89 393.106 1022.05 391.879 1020.37 391.879ZM1030.2 401H1027.91V385.805H1030.2V401ZM1038.21 401.195C1036.53 401.195 1035.22 400.707 1034.27 399.73C1033.32 398.747 1032.85 397.396 1032.85 395.678C1032.85 393.913 1033.29 392.527 1034.17 391.518C1035.05 390.508 1036.25 390.004 1037.79 390.004C1039.22 390.004 1040.34 390.437 1041.17 391.303C1042 392.169 1042.41 393.36 1042.41 394.877V396.117H1035.21C1035.25 397.165 1035.53 397.973 1036.06 398.539C1036.6 399.099 1037.35 399.379 1038.32 399.379C1038.96 399.379 1039.55 399.32 1040.1 399.203C1040.65 399.079 1041.24 398.878 1041.87 398.598V400.463C1041.31 400.73 1040.75 400.919 1040.17 401.029C1039.6 401.14 1038.95 401.195 1038.21 401.195ZM1037.79 391.742C1037.06 391.742 1036.48 391.973 1036.03 392.436C1035.6 392.898 1035.34 393.572 1035.25 394.457H1040.15C1040.14 393.565 1039.93 392.891 1039.51 392.436C1039.09 391.973 1038.52 391.742 1037.79 391.742ZM1054.12 401H1051.81V394.34C1051.81 393.513 1051.66 392.898 1051.35 392.494C1051.03 392.084 1050.54 391.879 1049.88 391.879C1049 391.879 1048.34 392.169 1047.93 392.748C1047.52 393.321 1047.31 394.278 1047.31 395.619V401H1045.02V390.199H1046.81L1047.14 391.615H1047.25C1047.55 391.101 1047.99 390.704 1048.55 390.424C1049.13 390.144 1049.75 390.004 1050.44 390.004C1052.1 390.004 1053.2 390.57 1053.74 391.703H1053.89C1054.21 391.169 1054.66 390.753 1055.24 390.453C1055.82 390.154 1056.49 390.004 1057.23 390.004C1058.52 390.004 1059.46 390.329 1060.05 390.98C1060.64 391.632 1060.94 392.624 1060.94 393.959V401H1058.64V394.34C1058.64 393.513 1058.48 392.898 1058.16 392.494C1057.85 392.084 1057.36 391.879 1056.7 391.879C1055.81 391.879 1055.15 392.159 1054.73 392.719C1054.32 393.272 1054.12 394.125 1054.12 395.277V401ZM1078.46 390.199V391.459L1076.61 391.801C1076.78 392.029 1076.92 392.309 1077.03 392.641C1077.14 392.973 1077.2 393.324 1077.2 393.695C1077.2 394.809 1076.81 395.684 1076.04 396.322C1075.27 396.96 1074.22 397.279 1072.87 397.279C1072.52 397.279 1072.21 397.253 1071.93 397.201C1071.44 397.507 1071.19 397.865 1071.19 398.275C1071.19 398.523 1071.3 398.708 1071.53 398.832C1071.77 398.956 1072.19 399.018 1072.81 399.018H1074.7C1075.89 399.018 1076.79 399.271 1077.41 399.779C1078.03 400.287 1078.34 401.02 1078.34 401.977C1078.34 403.201 1077.83 404.145 1076.82 404.809C1075.82 405.473 1074.36 405.805 1072.45 405.805C1070.98 405.805 1069.85 405.544 1069.08 405.023C1068.31 404.503 1067.92 403.76 1067.92 402.797C1067.92 402.133 1068.13 401.573 1068.54 401.117C1068.97 400.668 1069.56 400.355 1070.31 400.18C1070 400.049 1069.75 399.841 1069.55 399.555C1069.35 399.262 1069.26 398.956 1069.26 398.637C1069.26 398.233 1069.37 397.891 1069.6 397.611C1069.83 397.331 1070.16 397.055 1070.61 396.781C1070.05 396.54 1069.6 396.15 1069.25 395.609C1068.9 395.062 1068.73 394.424 1068.73 393.695C1068.73 392.523 1069.1 391.615 1069.83 390.971C1070.57 390.326 1071.63 390.004 1073 390.004C1073.3 390.004 1073.62 390.027 1073.95 390.072C1074.29 390.111 1074.55 390.154 1074.71 390.199H1078.46ZM1069.97 402.68C1069.97 403.174 1070.19 403.555 1070.63 403.822C1071.08 404.089 1071.71 404.223 1072.52 404.223C1073.77 404.223 1074.7 404.044 1075.31 403.686C1075.92 403.327 1076.23 402.852 1076.23 402.26C1076.23 401.791 1076.06 401.456 1075.72 401.254C1075.39 401.059 1074.77 400.961 1073.86 400.961H1072.12C1071.46 400.961 1070.94 401.114 1070.54 401.42C1070.16 401.732 1069.97 402.152 1069.97 402.68ZM1070.96 393.695C1070.96 394.372 1071.13 394.893 1071.47 395.258C1071.82 395.622 1072.33 395.805 1072.98 395.805C1074.3 395.805 1074.97 395.095 1074.97 393.676C1074.97 392.973 1074.8 392.432 1074.47 392.055C1074.15 391.671 1073.65 391.479 1072.98 391.479C1072.31 391.479 1071.81 391.667 1071.46 392.045C1071.12 392.423 1070.96 392.973 1070.96 393.695ZM1082.76 401H1080.47V390.199H1082.76V401ZM1080.33 387.338C1080.33 386.928 1080.44 386.612 1080.66 386.391C1080.89 386.169 1081.21 386.059 1081.63 386.059C1082.03 386.059 1082.35 386.169 1082.57 386.391C1082.79 386.612 1082.91 386.928 1082.91 387.338C1082.91 387.729 1082.79 388.038 1082.57 388.266C1082.35 388.487 1082.03 388.598 1081.63 388.598C1081.21 388.598 1080.89 388.487 1080.66 388.266C1080.44 388.038 1080.33 387.729 1080.33 387.338ZM1088.51 401L1084.41 390.199H1086.83L1089.03 396.479C1089.41 397.533 1089.64 398.386 1089.71 399.037H1089.79C1089.85 398.568 1090.08 397.715 1090.48 396.479L1092.67 390.199H1095.12L1090.99 401H1088.51ZM1101.47 401.195C1099.79 401.195 1098.48 400.707 1097.53 399.73C1096.58 398.747 1096.11 397.396 1096.11 395.678C1096.11 393.913 1096.55 392.527 1097.43 391.518C1098.31 390.508 1099.52 390.004 1101.05 390.004C1102.48 390.004 1103.6 390.437 1104.43 391.303C1105.26 392.169 1105.67 393.36 1105.67 394.877V396.117H1098.47C1098.51 397.165 1098.79 397.973 1099.32 398.539C1099.86 399.099 1100.61 399.379 1101.58 399.379C1102.22 399.379 1102.81 399.32 1103.36 399.203C1103.91 399.079 1104.5 398.878 1105.13 398.598V400.463C1104.57 400.73 1104.01 400.919 1103.44 401.029C1102.86 401.14 1102.21 401.195 1101.47 401.195ZM1101.05 391.742C1100.32 391.742 1099.74 391.973 1099.29 392.436C1098.86 392.898 1098.6 393.572 1098.51 394.457H1103.42C1103.4 393.565 1103.19 392.891 1102.77 392.436C1102.35 391.973 1101.78 391.742 1101.05 391.742ZM1115.54 397.924C1115.54 398.979 1115.15 399.789 1114.38 400.355C1113.61 400.915 1112.51 401.195 1111.08 401.195C1109.64 401.195 1108.49 400.977 1107.62 400.541V398.559C1108.88 399.145 1110.07 399.438 1111.16 399.438C1112.57 399.438 1113.28 399.011 1113.28 398.158C1113.28 397.885 1113.2 397.657 1113.04 397.475C1112.89 397.292 1112.63 397.104 1112.27 396.908C1111.92 396.713 1111.42 396.492 1110.78 396.244C1109.54 395.762 1108.69 395.281 1108.25 394.799C1107.81 394.317 1107.6 393.692 1107.6 392.924C1107.6 391.999 1107.97 391.283 1108.71 390.775C1109.46 390.261 1110.47 390.004 1111.76 390.004C1113.03 390.004 1114.23 390.261 1115.36 390.775L1114.62 392.504C1113.45 392.022 1112.47 391.781 1111.68 391.781C1110.47 391.781 1109.86 392.126 1109.86 392.816C1109.86 393.155 1110.02 393.441 1110.33 393.676C1110.65 393.91 1111.34 394.232 1112.4 394.643C1113.29 394.988 1113.94 395.303 1114.34 395.59C1114.75 395.876 1115.05 396.208 1115.24 396.586C1115.44 396.957 1115.54 397.403 1115.54 397.924ZM1130.84 401L1130.52 399.584H1130.4C1130.08 400.085 1129.62 400.479 1129.03 400.766C1128.45 401.052 1127.77 401.195 1127.02 401.195C1125.71 401.195 1124.73 400.87 1124.09 400.219C1123.45 399.568 1123.12 398.581 1123.12 397.26V390.199H1125.44V396.859C1125.44 397.686 1125.61 398.308 1125.95 398.725C1126.28 399.135 1126.81 399.34 1127.54 399.34C1128.5 399.34 1129.21 399.053 1129.66 398.48C1130.11 397.901 1130.34 396.934 1130.34 395.58V390.199H1132.64V401H1130.84ZM1143.17 397.924C1143.17 398.979 1142.79 399.789 1142.02 400.355C1141.25 400.915 1140.15 401.195 1138.72 401.195C1137.28 401.195 1136.12 400.977 1135.25 400.541V398.559C1136.52 399.145 1137.7 399.438 1138.8 399.438C1140.21 399.438 1140.92 399.011 1140.92 398.158C1140.92 397.885 1140.84 397.657 1140.68 397.475C1140.53 397.292 1140.27 397.104 1139.91 396.908C1139.55 396.713 1139.05 396.492 1138.42 396.244C1137.17 395.762 1136.33 395.281 1135.89 394.799C1135.45 394.317 1135.23 393.692 1135.23 392.924C1135.23 391.999 1135.6 391.283 1136.35 390.775C1137.09 390.261 1138.11 390.004 1139.39 390.004C1140.66 390.004 1141.86 390.261 1143 390.775L1142.25 392.504C1141.09 392.022 1140.11 391.781 1139.31 391.781C1138.1 391.781 1137.5 392.126 1137.5 392.816C1137.5 393.155 1137.65 393.441 1137.97 393.676C1138.29 393.91 1138.98 394.232 1140.04 394.643C1140.93 394.988 1141.58 395.303 1141.98 395.59C1142.38 395.876 1142.68 396.208 1142.88 396.586C1143.07 396.957 1143.17 397.403 1143.17 397.924ZM1157.62 401L1157.16 399.496H1157.08C1156.56 400.154 1156.03 400.603 1155.51 400.844C1154.98 401.078 1154.3 401.195 1153.47 401.195C1152.41 401.195 1151.58 400.909 1150.98 400.336C1150.39 399.763 1150.1 398.952 1150.1 397.904C1150.1 396.791 1150.51 395.951 1151.34 395.385C1152.16 394.818 1153.42 394.509 1155.12 394.457L1156.98 394.398V393.822C1156.98 393.132 1156.82 392.618 1156.49 392.279C1156.17 391.934 1155.68 391.762 1155 391.762C1154.44 391.762 1153.91 391.843 1153.41 392.006C1152.9 392.169 1152.41 392.361 1151.94 392.582L1151.2 390.941C1151.79 390.635 1152.43 390.404 1153.12 390.248C1153.82 390.085 1154.48 390.004 1155.1 390.004C1156.47 390.004 1157.5 390.303 1158.2 390.902C1158.9 391.501 1159.26 392.442 1159.26 393.725V401H1157.62ZM1154.2 399.438C1155.03 399.438 1155.7 399.206 1156.2 398.744C1156.71 398.275 1156.96 397.621 1156.96 396.781V395.844L1155.57 395.902C1154.49 395.941 1153.71 396.124 1153.21 396.449C1152.72 396.768 1152.48 397.26 1152.48 397.924C1152.48 398.406 1152.62 398.78 1152.91 399.047C1153.19 399.307 1153.62 399.438 1154.2 399.438ZM888.465 428.195C887.098 428.195 886.036 427.704 885.281 426.721H885.145C885.236 427.632 885.281 428.186 885.281 428.381V432.805H882.986V417.199H884.842C884.894 417.401 885.001 417.883 885.164 418.645H885.281C885.997 417.551 887.072 417.004 888.504 417.004C889.852 417.004 890.9 417.492 891.648 418.469C892.404 419.445 892.781 420.816 892.781 422.58C892.781 424.344 892.397 425.721 891.629 426.711C890.867 427.701 889.812 428.195 888.465 428.195ZM887.908 418.879C886.997 418.879 886.329 419.146 885.906 419.68C885.49 420.214 885.281 421.066 885.281 422.238V422.58C885.281 423.895 885.49 424.849 885.906 425.441C886.323 426.027 887.003 426.32 887.947 426.32C888.742 426.32 889.354 425.995 889.783 425.344C890.213 424.693 890.428 423.765 890.428 422.561C890.428 421.35 890.213 420.435 889.783 419.816C889.36 419.191 888.735 418.879 887.908 418.879ZM897.742 428H895.447V412.805H897.742V428ZM907.791 428L907.332 426.496H907.254C906.733 427.154 906.209 427.603 905.682 427.844C905.154 428.078 904.477 428.195 903.65 428.195C902.589 428.195 901.759 427.909 901.16 427.336C900.568 426.763 900.271 425.952 900.271 424.904C900.271 423.791 900.685 422.951 901.512 422.385C902.339 421.818 903.598 421.509 905.291 421.457L907.156 421.398V420.822C907.156 420.132 906.993 419.618 906.668 419.279C906.349 418.934 905.851 418.762 905.174 418.762C904.62 418.762 904.09 418.843 903.582 419.006C903.074 419.169 902.586 419.361 902.117 419.582L901.375 417.941C901.961 417.635 902.602 417.404 903.299 417.248C903.995 417.085 904.653 417.004 905.271 417.004C906.645 417.004 907.68 417.303 908.377 417.902C909.08 418.501 909.432 419.442 909.432 420.725V428H907.791ZM904.373 426.438C905.206 426.438 905.874 426.206 906.375 425.744C906.883 425.275 907.137 424.621 907.137 423.781V422.844L905.75 422.902C904.669 422.941 903.882 423.124 903.387 423.449C902.898 423.768 902.654 424.26 902.654 424.924C902.654 425.406 902.798 425.78 903.084 426.047C903.37 426.307 903.8 426.438 904.373 426.438ZM922.137 428H919.832V421.359C919.832 420.526 919.663 419.904 919.324 419.494C918.992 419.084 918.462 418.879 917.732 418.879C916.762 418.879 916.053 419.165 915.604 419.738C915.154 420.311 914.93 421.271 914.93 422.619V428H912.635V417.199H914.432L914.754 418.615H914.871C915.197 418.101 915.659 417.704 916.258 417.424C916.857 417.144 917.521 417.004 918.25 417.004C920.841 417.004 922.137 418.322 922.137 420.959V428ZM930.047 428.195C928.367 428.195 927.052 427.707 926.102 426.73C925.158 425.747 924.686 424.396 924.686 422.678C924.686 420.913 925.125 419.527 926.004 418.518C926.883 417.508 928.09 417.004 929.627 417.004C931.053 417.004 932.179 417.437 933.006 418.303C933.833 419.169 934.246 420.36 934.246 421.877V423.117H927.049C927.081 424.165 927.365 424.973 927.898 425.539C928.432 426.099 929.184 426.379 930.154 426.379C930.792 426.379 931.385 426.32 931.932 426.203C932.485 426.079 933.077 425.878 933.709 425.598V427.463C933.149 427.73 932.583 427.919 932.01 428.029C931.437 428.14 930.783 428.195 930.047 428.195ZM929.627 418.742C928.898 418.742 928.312 418.973 927.869 419.436C927.433 419.898 927.173 420.572 927.088 421.457H931.99C931.977 420.565 931.762 419.891 931.346 419.436C930.929 418.973 930.356 418.742 929.627 418.742ZM944.344 428H942.049V417.199H944.344V428ZM941.912 414.338C941.912 413.928 942.023 413.612 942.244 413.391C942.472 413.169 942.794 413.059 943.211 413.059C943.615 413.059 943.927 413.169 944.148 413.391C944.376 413.612 944.49 413.928 944.49 414.338C944.49 414.729 944.376 415.038 944.148 415.266C943.927 415.487 943.615 415.598 943.211 415.598C942.794 415.598 942.472 415.487 942.244 415.266C942.023 415.038 941.912 414.729 941.912 414.338ZM957.137 428H954.832V421.359C954.832 420.526 954.663 419.904 954.324 419.494C953.992 419.084 953.462 418.879 952.732 418.879C951.762 418.879 951.053 419.165 950.604 419.738C950.154 420.311 949.93 421.271 949.93 422.619V428H947.635V417.199H949.432L949.754 418.615H949.871C950.197 418.101 950.659 417.704 951.258 417.424C951.857 417.144 952.521 417.004 953.25 417.004C955.841 417.004 957.137 418.322 957.137 420.959V428ZM973.904 417.004C973.904 417.909 973.641 418.664 973.113 419.27C972.586 419.868 971.844 420.272 970.887 420.48V420.559C972.033 420.702 972.892 421.06 973.465 421.633C974.038 422.199 974.324 422.954 974.324 423.898C974.324 425.272 973.839 426.333 972.869 427.082C971.899 427.824 970.519 428.195 968.729 428.195C967.146 428.195 965.812 427.938 964.725 427.424V425.383C965.33 425.682 965.971 425.913 966.648 426.076C967.326 426.239 967.977 426.32 968.602 426.32C969.708 426.32 970.535 426.115 971.082 425.705C971.629 425.295 971.902 424.66 971.902 423.801C971.902 423.039 971.6 422.479 970.994 422.121C970.389 421.763 969.438 421.584 968.143 421.584H966.902V419.719H968.162C970.441 419.719 971.58 418.931 971.58 417.355C971.58 416.743 971.382 416.271 970.984 415.939C970.587 415.607 970.001 415.441 969.227 415.441C968.686 415.441 968.165 415.52 967.664 415.676C967.163 415.826 966.57 416.122 965.887 416.564L964.764 414.963C966.072 413.999 967.592 413.518 969.324 413.518C970.763 413.518 971.886 413.827 972.693 414.445C973.501 415.064 973.904 415.917 973.904 417.004ZM985.789 428.195C984.441 428.195 983.39 427.707 982.635 426.73C981.88 425.754 981.502 424.383 981.502 422.619C981.502 420.848 981.883 419.471 982.645 418.488C983.413 417.499 984.474 417.004 985.828 417.004C987.247 417.004 988.328 417.528 989.07 418.576H989.188C989.077 417.801 989.021 417.189 989.021 416.74V412.805H991.326V428H989.529L989.129 426.584H989.021C988.286 427.658 987.208 428.195 985.789 428.195ZM986.404 426.34C987.348 426.34 988.035 426.076 988.465 425.549C988.895 425.015 989.116 424.152 989.129 422.961V422.639C989.129 421.278 988.908 420.311 988.465 419.738C988.022 419.165 987.329 418.879 986.385 418.879C985.577 418.879 984.956 419.208 984.52 419.865C984.083 420.516 983.865 421.447 983.865 422.658C983.865 423.856 984.077 424.771 984.5 425.402C984.923 426.027 985.558 426.34 986.404 426.34ZM996.902 428H994.607V417.199H996.902V428ZM994.471 414.338C994.471 413.928 994.581 413.612 994.803 413.391C995.031 413.169 995.353 413.059 995.77 413.059C996.173 413.059 996.486 413.169 996.707 413.391C996.935 413.612 997.049 413.928 997.049 414.338C997.049 414.729 996.935 415.038 996.707 415.266C996.486 415.487 996.173 415.598 995.77 415.598C995.353 415.598 995.031 415.487 994.803 415.266C994.581 415.038 994.471 414.729 994.471 414.338ZM1009.29 428H1006.99V421.34C1006.99 420.513 1006.83 419.898 1006.52 419.494C1006.21 419.084 1005.72 418.879 1005.06 418.879C1004.17 418.879 1003.52 419.169 1003.1 419.748C1002.69 420.321 1002.49 421.278 1002.49 422.619V428H1000.19V417.199H1001.99L1002.31 418.615H1002.43C1002.73 418.101 1003.16 417.704 1003.73 417.424C1004.3 417.144 1004.93 417.004 1005.61 417.004C1007.27 417.004 1008.37 417.57 1008.91 418.703H1009.07C1009.39 418.169 1009.84 417.753 1010.42 417.453C1011 417.154 1011.66 417.004 1012.41 417.004C1013.7 417.004 1014.64 417.329 1015.22 417.98C1015.82 418.632 1016.11 419.624 1016.11 420.959V428H1013.82V421.34C1013.82 420.513 1013.66 419.898 1013.34 419.494C1013.03 419.084 1012.54 418.879 1011.87 418.879C1010.98 418.879 1010.33 419.159 1009.91 419.719C1009.5 420.272 1009.29 421.125 1009.29 422.277V428ZM1024.03 428.195C1022.35 428.195 1021.04 427.707 1020.09 426.73C1019.14 425.747 1018.67 424.396 1018.67 422.678C1018.67 420.913 1019.11 419.527 1019.99 418.518C1020.87 417.508 1022.07 417.004 1023.61 417.004C1025.04 417.004 1026.16 417.437 1026.99 418.303C1027.82 419.169 1028.23 420.36 1028.23 421.877V423.117H1021.03C1021.07 424.165 1021.35 424.973 1021.88 425.539C1022.42 426.099 1023.17 426.379 1024.14 426.379C1024.78 426.379 1025.37 426.32 1025.92 426.203C1026.47 426.079 1027.06 425.878 1027.69 425.598V427.463C1027.13 427.73 1026.57 427.919 1025.99 428.029C1025.42 428.14 1024.77 428.195 1024.03 428.195ZM1023.61 418.742C1022.88 418.742 1022.3 418.973 1021.85 419.436C1021.42 419.898 1021.16 420.572 1021.07 421.457H1025.97C1025.96 420.565 1025.75 419.891 1025.33 419.436C1024.91 418.973 1024.34 418.742 1023.61 418.742ZM1040.34 428H1038.04V421.359C1038.04 420.526 1037.87 419.904 1037.53 419.494C1037.2 419.084 1036.66 418.879 1035.94 418.879C1034.97 418.879 1034.26 419.165 1033.81 419.738C1033.36 420.311 1033.13 421.271 1033.13 422.619V428H1030.84V417.199H1032.63L1032.96 418.615H1033.07C1033.4 418.101 1033.86 417.704 1034.46 417.424C1035.06 417.144 1035.72 417.004 1036.45 417.004C1039.04 417.004 1040.34 418.322 1040.34 420.959V428ZM1050.79 424.924C1050.79 425.979 1050.4 426.789 1049.64 427.355C1048.87 427.915 1047.77 428.195 1046.34 428.195C1044.9 428.195 1043.74 427.977 1042.87 427.541V425.559C1044.14 426.145 1045.32 426.438 1046.41 426.438C1047.83 426.438 1048.53 426.011 1048.53 425.158C1048.53 424.885 1048.46 424.657 1048.3 424.475C1048.14 424.292 1047.89 424.104 1047.53 423.908C1047.17 423.713 1046.67 423.492 1046.03 423.244C1044.79 422.762 1043.95 422.281 1043.5 421.799C1043.07 421.317 1042.85 420.692 1042.85 419.924C1042.85 418.999 1043.22 418.283 1043.96 417.775C1044.71 417.261 1045.73 417.004 1047.01 417.004C1048.28 417.004 1049.48 417.261 1050.61 417.775L1049.87 419.504C1048.71 419.022 1047.73 418.781 1046.93 418.781C1045.72 418.781 1045.12 419.126 1045.12 419.816C1045.12 420.155 1045.27 420.441 1045.58 420.676C1045.9 420.91 1046.59 421.232 1047.65 421.643C1048.55 421.988 1049.19 422.303 1049.6 422.59C1050 422.876 1050.3 423.208 1050.5 423.586C1050.69 423.957 1050.79 424.403 1050.79 424.924ZM1055.57 428H1053.28V417.199H1055.57V428ZM1053.14 414.338C1053.14 413.928 1053.25 413.612 1053.47 413.391C1053.7 413.169 1054.02 413.059 1054.44 413.059C1054.85 413.059 1055.16 413.169 1055.38 413.391C1055.61 413.612 1055.72 413.928 1055.72 414.338C1055.72 414.729 1055.61 415.038 1055.38 415.266C1055.16 415.487 1054.85 415.598 1054.44 415.598C1054.02 415.598 1053.7 415.487 1053.47 415.266C1053.25 415.038 1053.14 414.729 1053.14 414.338ZM1068.45 422.58C1068.45 424.344 1067.99 425.721 1067.09 426.711C1066.18 427.701 1064.92 428.195 1063.31 428.195C1062.3 428.195 1061.41 427.967 1060.63 427.512C1059.86 427.056 1059.26 426.402 1058.85 425.549C1058.43 424.696 1058.22 423.706 1058.22 422.58C1058.22 420.829 1058.67 419.462 1059.57 418.479C1060.47 417.495 1061.73 417.004 1063.37 417.004C1064.93 417.004 1066.17 417.508 1067.08 418.518C1067.99 419.52 1068.45 420.874 1068.45 422.58ZM1060.58 422.58C1060.58 425.074 1061.51 426.32 1063.35 426.32C1065.17 426.32 1066.08 425.074 1066.08 422.58C1066.08 420.113 1065.16 418.879 1063.33 418.879C1062.36 418.879 1061.66 419.198 1061.23 419.836C1060.8 420.474 1060.58 421.389 1060.58 422.58ZM1080.59 428H1078.29V421.359C1078.29 420.526 1078.12 419.904 1077.78 419.494C1077.45 419.084 1076.92 418.879 1076.19 418.879C1075.22 418.879 1074.51 419.165 1074.06 419.738C1073.61 420.311 1073.39 421.271 1073.39 422.619V428H1071.09V417.199H1072.89L1073.21 418.615H1073.33C1073.65 418.101 1074.12 417.704 1074.71 417.424C1075.31 417.144 1075.98 417.004 1076.71 417.004C1079.3 417.004 1080.59 418.322 1080.59 420.959V428ZM1083.45 426.779C1083.45 426.304 1083.57 425.939 1083.82 425.686C1084.06 425.432 1084.42 425.305 1084.89 425.305C1085.37 425.305 1085.73 425.438 1085.97 425.705C1086.22 425.965 1086.35 426.324 1086.35 426.779C1086.35 427.242 1086.22 427.609 1085.96 427.883C1085.72 428.15 1085.36 428.283 1084.89 428.283C1084.42 428.283 1084.06 428.15 1083.82 427.883C1083.57 427.616 1083.45 427.248 1083.45 426.779Z" fill="#00DCFF"/>
<path d="M409.877 304.295L411.025 305.26L411.025 305.26L409.877 304.295ZM301.379 334.715L301.858 333.293L301.379 334.715ZM233.334 310.656C232.592 311.024 232.288 311.924 232.656 312.666L238.653 324.761C239.021 325.504 239.921 325.807 240.663 325.439C241.405 325.071 241.708 324.171 241.34 323.429L236.01 312.678L246.762 307.348C247.504 306.98 247.807 306.08 247.439 305.337C247.071 304.595 246.172 304.292 245.429 304.66L233.334 310.656ZM472.852 227.035L408.729 303.329L411.025 305.26L475.148 228.965L472.852 227.035ZM301.858 333.293L234.479 310.579L233.521 313.421L300.899 336.136L301.858 333.293ZM408.729 303.329C382.659 334.348 340.254 346.237 301.858 333.293L300.899 336.136C340.465 349.474 384.161 337.223 411.025 305.26L408.729 303.329Z" fill="#FF006B"/>
<path d="M684.379 90.6266L683.434 89.4619L683.434 89.4619L684.379 90.6266ZM796.671 81.2476L795.932 82.5529L796.671 81.2476ZM858.946 117.726C859.745 117.504 860.212 116.678 859.991 115.88L856.388 102.869C856.166 102.071 855.34 101.603 854.542 101.824C853.743 102.045 853.275 102.872 853.496 103.67L856.7 115.235L845.135 118.438C844.337 118.659 843.869 119.486 844.09 120.284C844.311 121.082 845.138 121.55 845.936 121.329L858.946 117.726ZM607.945 154.601L685.325 91.7912L683.434 89.4619L606.055 152.271L607.945 154.601ZM795.932 82.5529L857.807 117.585L859.285 114.975L797.41 79.9423L795.932 82.5529ZM685.325 91.7912C716.784 66.2552 760.672 62.5896 795.932 82.5529L797.41 79.9423C761.076 59.3709 715.852 63.1482 683.434 89.4619L685.325 91.7912Z" fill="#00FF29"/>
<path d="M842.226 270.902C842.394 270.091 841.874 269.297 841.063 269.128L827.846 266.377C827.035 266.208 826.241 266.728 826.072 267.539C825.903 268.35 826.424 269.145 827.235 269.314L838.983 271.759L836.537 283.507C836.369 284.318 836.889 285.113 837.7 285.281C838.511 285.45 839.306 284.93 839.474 284.119L842.226 270.902ZM757.403 325.228L758.225 326.483L758.225 326.483L757.403 325.228ZM644.739 323.162L645.607 321.939L644.739 323.162ZM839.935 269.342L756.58 323.974L758.225 326.483L841.579 271.851L839.935 269.342ZM645.607 321.939L587.607 280.808L585.871 283.255L643.872 324.386L645.607 321.939ZM756.58 323.974C722.692 346.185 678.659 345.378 645.607 321.939L643.872 324.386C677.93 348.539 723.304 349.371 758.225 326.483L756.58 323.974Z" fill="#0094FF"/>
<path d="M354.061 229.061C354.646 228.475 354.646 227.525 354.061 226.939L344.515 217.393C343.929 216.808 342.979 216.808 342.393 217.393C341.808 217.979 341.808 218.929 342.393 219.515L350.879 228L342.393 236.485C341.808 237.071 341.808 238.021 342.393 238.607C342.979 239.192 343.929 239.192 344.515 238.607L354.061 229.061ZM183 229.5L353 229.5V226.5L183 226.5V229.5Z" fill="#00DCFF"/>
<path d="M184.054 61.9329C183.465 61.3507 182.515 61.3565 181.933 61.9458L172.445 71.5494C171.863 72.1387 171.869 73.0885 172.458 73.6707C173.047 74.2529 173.997 74.2472 174.579 73.6578L183.013 65.1213L191.549 73.555C192.139 74.1372 193.088 74.1314 193.671 73.5421C194.253 72.9528 194.247 72.0031 193.658 71.4208L184.054 61.9329ZM185.5 227.991L184.5 62.9909L181.5 63.0091L182.5 228.009L185.5 227.991Z" fill="#00DCFF"/>
<path d="M78.5012 322.94C78.4681 323.768 79.1123 324.466 79.94 324.499L93.4293 325.038C94.257 325.071 94.9549 324.427 94.988 323.6C95.0211 322.772 94.3769 322.074 93.5492 322.041L81.5587 321.561L82.0384 309.571C82.0715 308.743 81.4273 308.045 80.5995 308.012C79.7718 307.979 79.0739 308.623 79.0408 309.451L78.5012 322.94ZM182.983 225.898L78.9826 321.898L81.0174 324.102L185.017 228.102L182.983 225.898Z" fill="#00DCFF"/>
<path d="M380.368 228.937L383.884 223.15H387.048L381.862 230.987L387.209 239H384.074L380.412 233.067L376.75 239H373.601L378.947 230.987L373.762 223.15H376.896L380.368 228.937Z" fill="#00DCFF"/>
<path d="M180.6 45.7881H189.872V48H177.289V46.0078L186.034 34.3916H177.421V32.1504H189.433V34.0693L180.6 45.7881Z" fill="#00DCFF"/>
<path d="M61.2363 343.03L64.9277 331.15H67.8281L61.4561 349.446C60.4697 352.083 58.9023 353.401 56.7539 353.401L56.2412 353.357L55.2305 353.167V350.97L55.9629 351.028C56.8809 351.028 57.5938 350.843 58.1016 350.472C58.6191 350.101 59.0439 349.422 59.376 348.436L59.9766 346.824L54.3223 331.15H57.2812L61.2363 343.03Z" fill="#00DCFF"/>
<circle cx="185" cy="276" r="10" fill="#FF006B"/>
<circle cx="185" cy="195" r="10" fill="#FF006B"/>
<circle cx="133" cy="227" r="10" fill="#FF006B"/>
<path d="M53.1526 231.922L179.555 100.11L301.882 215.068L179.412 345.899L53.1526 231.922Z" stroke="#FF006B" stroke-width="3"/>
<path d="M1089.06 245.061C1089.65 244.475 1089.65 243.525 1089.06 242.939L1079.51 233.393C1078.93 232.808 1077.98 232.808 1077.39 233.393C1076.81 233.979 1076.81 234.929 1077.39 235.515L1085.88 244L1077.39 252.485C1076.81 253.071 1076.81 254.021 1077.39 254.607C1077.98 255.192 1078.93 255.192 1079.51 254.607L1089.06 245.061ZM918 245.5L1088 245.5V242.5L918 242.5V245.5Z" fill="#00DCFF"/>
<path d="M919.054 77.9329C918.465 77.3507 917.515 77.3565 916.933 77.9458L907.445 87.5494C906.863 88.1387 906.868 89.0885 907.458 89.6707C908.047 90.2529 908.997 90.2472 909.579 89.6578L918.013 81.1213L926.549 89.555C927.138 90.1372 928.088 90.1314 928.67 89.5421C929.253 88.9528 929.247 88.0031 928.658 87.4208L919.054 77.9329ZM920.5 243.991L919.5 78.9909L916.5 79.0091L917.5 244.009L920.5 243.991Z" fill="#00DCFF"/>
<path d="M813.501 338.94C813.468 339.768 814.112 340.466 814.94 340.499L828.429 341.038C829.257 341.071 829.955 340.427 829.988 339.6C830.021 338.772 829.377 338.074 828.549 338.041L816.559 337.561L817.038 325.571C817.071 324.743 816.427 324.045 815.599 324.012C814.772 323.979 814.074 324.623 814.041 325.451L813.501 338.94ZM917.982 241.898L813.982 337.898L816.017 340.102L920.017 244.102L917.982 241.898Z" fill="#00DCFF"/>
<path d="M1115.37 244.937L1118.88 239.15H1122.05L1116.86 246.987L1122.21 255H1119.07L1115.41 249.067L1111.75 255H1108.6L1113.95 246.987L1108.76 239.15H1111.9L1115.37 244.937Z" fill="#00DCFF"/>
<path d="M915.599 61.7881H924.872V64H912.289V62.0078L921.034 50.3916H912.421V48.1504H924.432V50.0693L915.599 61.7881Z" fill="#00DCFF"/>
<path d="M796.236 359.03L799.928 347.15H802.828L796.456 365.446C795.47 368.083 793.902 369.401 791.754 369.401L791.241 369.357L790.23 369.167V366.97L790.963 367.028C791.881 367.028 792.594 366.843 793.102 366.472C793.619 366.101 794.044 365.422 794.376 364.436L794.977 362.824L789.322 347.15H792.281L796.236 359.03Z" fill="#00DCFF"/>
<circle cx="920" cy="292" r="10" fill="#FF006B"/>
<circle cx="920" cy="211" r="10" fill="#FF006B"/>
<circle cx="868" cy="243" r="10" fill="#FF006B"/>
<path d="M788.153 247.922L914.555 116.11L1036.88 231.068L914.412 361.899L788.153 247.922Z" stroke="#FF006B" stroke-width="3"/>
<path d="M760.574 209.719L937.948 146.845L1084.12 248.956L911.932 311.969L760.574 209.719Z" stroke="#0094FF" stroke-width="3"/>
<path d="M737.63 286.097L909.533 131.975L1129.84 138.836L963.982 290.168L737.63 286.097Z" stroke="#00FF29" stroke-width="3"/>
</svg>
