<svg width="49" height="34" viewBox="0 0 49 34" fill="none" xmlns="http://www.w3.org/2000/svg">
<path d="M0 33.5832H5.3778V32.4629H1.12037V1.12037H5.3778V0H0V33.5832Z" fill="#00FFFF"/>
<path d="M13.4629 5.66241C13.4629 5.07421 13.4349 5.0462 13.0428 5.0462C11.9504 6.36264 10.2978 6.78278 8.72931 6.8388C8.64528 6.8388 8.50524 6.8388 8.47723 6.89482C8.44922 6.95084 8.44922 7.00686 8.44922 7.59506C9.31751 7.59506 10.774 7.427 11.8944 6.75477V21.5157C11.8944 22.496 11.8384 22.8322 9.42955 22.8322H8.58927V23.5604C9.93371 23.5324 11.3342 23.5044 12.6786 23.5044C14.0231 23.5044 15.4236 23.5324 16.768 23.5604V22.8322H15.9277C13.5189 22.8322 13.4629 22.524 13.4629 21.5157V5.66241Z" fill="#00FFFF"/>
<path d="M33.0848 13.8972C33.0848 7.20292 36.2219 5.69042 38.0425 5.69042C38.6307 5.69042 40.0591 5.80246 40.6193 6.89482C40.1712 6.89482 39.3309 6.89482 39.3309 7.87515C39.3309 8.6314 39.9471 8.88349 40.3392 8.88349C40.5913 8.88349 41.3476 8.77145 41.3476 7.81913C41.3476 6.05454 39.9471 5.0462 38.0145 5.0462C34.6813 5.0462 31.1802 8.51936 31.1802 14.7094C31.1802 22.328 34.3452 24.0085 36.586 24.0085C39.3029 24.0085 41.8798 21.5717 41.8798 17.8185C41.8798 14.3173 39.611 11.7685 36.754 11.7685C35.0455 11.7685 33.785 12.8888 33.0848 14.8495V13.8972ZM36.586 23.3363C33.1408 23.3363 33.1408 18.1826 33.1408 17.1463C33.1408 15.1296 34.0932 12.2166 36.698 12.2166C37.1742 12.2166 38.5466 12.2166 39.471 14.1492C39.9751 15.2416 39.9751 16.39 39.9751 17.7905C39.9751 19.303 39.9751 20.4233 39.3869 21.5437C38.7707 22.6921 37.8744 23.3363 36.586 23.3363Z" fill="#00FFFF"/>
<path d="M48.9554 33.5832V0H43.5776V1.12037H47.8351V32.4629H43.5776V33.5832H48.9554Z" fill="#00FFFF"/>
</svg>
