<svg width="32" height="101" viewBox="0 0 32 101" fill="none" xmlns="http://www.w3.org/2000/svg">
<path d="M0 50.3889H1.93265V1.93265H9.32712V0H0V50.3889Z" fill="#00FFFF"/>
<path d="M0 100.778H9.32712V98.8456H1.93265V50.3893H0V100.778Z" fill="#00FFFF"/>
<path d="M21.222 19.0292H20.7178C20.4377 21.0178 20.2136 21.3539 20.1016 21.522C19.9615 21.7461 17.9449 21.7461 17.5527 21.7461H12.1749C13.1833 20.6537 15.1439 18.665 17.5247 16.3683C19.2333 14.7437 21.222 12.8391 21.222 10.0662C21.222 6.76105 18.5891 4.85641 15.6481 4.85641C12.5671 4.85641 10.6904 7.57332 10.6904 10.0942C10.6904 11.1865 11.5027 11.3266 11.8388 11.3266C12.1189 11.3266 12.9592 11.1585 12.9592 10.1782C12.9592 9.3099 12.2309 9.05782 11.8388 9.05782C11.6708 9.05782 11.5027 9.08583 11.3907 9.14185C11.9228 6.76105 13.5474 5.58466 15.256 5.58466C17.6928 5.58466 19.2893 7.5173 19.2893 10.0662C19.2893 12.503 17.8608 14.6037 16.2643 16.4243L10.6904 22.7264V23.3706H20.5497L21.222 19.0292Z" fill="#00FFFF"/>
<path d="M15.7321 47.6208C18.2249 47.6208 19.3173 49.7775 19.3173 52.2703C19.3173 55.6314 17.5247 56.9199 15.9001 56.9199C14.4156 56.9199 12.0068 56.1916 11.2506 54.0349C11.3906 54.0909 11.5307 54.0909 11.6707 54.0909C12.3429 54.0909 12.8471 53.6428 12.8471 52.9145C12.8471 52.1023 12.2309 51.7381 11.6707 51.7381C11.1946 51.7381 10.4663 51.9622 10.4663 52.9986C10.4663 55.5754 12.9872 57.5921 15.9561 57.5921C19.0652 57.5921 21.446 55.1553 21.446 52.2983C21.446 49.5814 19.2052 47.6208 16.5443 47.3127C18.6731 46.8645 20.7177 44.9599 20.7177 42.411C20.7177 40.2263 18.505 38.6298 15.9842 38.6298C13.4353 38.6298 11.1946 40.1983 11.1946 42.439C11.1946 43.4194 11.9228 43.5874 12.2869 43.5874C12.8751 43.5874 13.3793 43.2233 13.3793 42.4951C13.3793 41.7668 12.8751 41.4027 12.2869 41.4027C12.1749 41.4027 12.0348 41.4027 11.9228 41.4587C12.7351 39.6101 14.9478 39.274 15.9281 39.274C16.9085 39.274 18.7571 39.7501 18.7571 42.439C18.7571 43.2233 18.645 44.6238 17.6927 45.8562C16.8524 46.9485 15.9001 47.0046 14.9758 47.0886C14.8358 47.0886 14.1916 47.1446 14.0795 47.1446C13.8835 47.1726 13.7714 47.2006 13.7714 47.3967C13.7714 47.5928 13.7994 47.6208 14.3596 47.6208H15.7321Z" fill="#00FFFF"/>
<path d="M18.953 72.7952C18.953 72.207 18.925 72.179 18.4208 72.179L10.1021 85.4274V86.1557H17.3285V88.9006C17.3285 89.9089 17.2724 90.189 15.3118 90.189H14.7796V90.9173C15.6759 90.8613 17.1884 90.8613 18.1407 90.8613C19.0931 90.8613 20.6056 90.8613 21.5019 90.9173V90.189H20.9697C19.009 90.189 18.953 89.9089 18.953 88.9006V86.1557H21.81V85.4274H18.953V72.7952ZM17.4125 74.6438V85.4274H10.6622L17.4125 74.6438Z" fill="#00FFFF"/>
<path d="M29.978 50.3889H31.9106V0H22.5835V1.93265H29.978V50.3889Z" fill="#00FFFF"/>
<path d="M29.978 98.8456H22.5835V100.778H31.9106V50.3893H29.978V98.8456Z" fill="#00FFFF"/>
</svg>
