<svg width="578" height="452" viewBox="0 0 578 452" fill="none" xmlns="http://www.w3.org/2000/svg">
<path d="M73 82.3889H74.9326V33.9326H82.3271V32H73V82.3889Z" fill="#00FFFF"/>
<path d="M73 99.223H74.9326V82.3613H73V99.223Z" fill="#00FFFF"/>
<path d="M73 116.029H74.9326V99.1671H73V116.029Z" fill="#00FFFF"/>
<path d="M73 166.39H82.3271V164.457H74.9326V116.001H73V166.39Z" fill="#00FFFF"/>
<path d="M219.327 116.001L217.395 116.001L217.395 164.457L210 164.457L210 166.39L219.327 166.39L219.327 116.001Z" fill="#00FFFF"/>
<path d="M219.327 99.1668L217.395 99.1668L217.395 116.028L219.327 116.028L219.327 99.1668Z" fill="#00FFFF"/>
<path d="M219.327 82.361L217.395 82.361L217.395 99.2227L219.327 99.2227L219.327 82.361Z" fill="#00FFFF"/>
<path d="M219.327 32L210 32L210 33.9326L217.395 33.9326L217.395 82.3889L219.327 82.3889L219.327 32Z" fill="#00FFFF"/>
<path d="M239 82.3889H240.933V33.9326H248.327V32H239V82.3889Z" fill="#00FFFF"/>
<path d="M239 99.223H240.933V82.3613H239V99.223Z" fill="#00FFFF"/>
<path d="M239 116.029H240.933V99.1671H239V116.029Z" fill="#00FFFF"/>
<path d="M239 166.39H248.327V164.457H240.933V116.001H239V166.39Z" fill="#00FFFF"/>
<path d="M385.327 116.001L383.395 116.001L383.395 164.457L376 164.457L376 166.39L385.327 166.39L385.327 116.001Z" fill="#00FFFF"/>
<path d="M385.327 99.1668L383.395 99.1668L383.395 116.028L385.327 116.028L385.327 99.1668Z" fill="#00FFFF"/>
<path d="M385.327 82.361L383.395 82.361L383.395 99.2227L385.327 99.2227L385.327 82.361Z" fill="#00FFFF"/>
<path d="M385.327 32L376 32L376 33.9326L383.395 33.9326L383.395 82.3889L385.327 82.3889L385.327 32Z" fill="#00FFFF"/>
<path d="M431 82.3889H432.933V33.9326H440.327V32H431V82.3889Z" fill="#00FFFF"/>
<path d="M431 99.223H432.933V82.3613H431V99.223Z" fill="#00FFFF"/>
<path d="M431 116.029H432.933V99.1671H431V116.029Z" fill="#00FFFF"/>
<path d="M431 166.39H440.327V164.457H432.933V116.001H431V166.39Z" fill="#00FFFF"/>
<path d="M577.327 116.001L575.395 116.001L575.395 164.457L568 164.457L568 166.39L577.327 166.39L577.327 116.001Z" fill="#00FFFF"/>
<path d="M577.327 99.1668L575.395 99.1668L575.395 116.028L577.327 116.028L577.327 99.1668Z" fill="#00FFFF"/>
<path d="M577.327 82.361L575.395 82.361L575.395 99.2227L577.327 99.2227L577.327 82.361Z" fill="#00FFFF"/>
<path d="M577.327 32L568 32L568 33.9326L575.395 33.9326L575.395 82.3889L577.327 82.3889L577.327 32Z" fill="#00FFFF"/>
<path d="M539.523 86.2521C539.523 86 539.326 86 539.27 86C539.214 86 539.102 86 538.878 86.2801L536.946 88.6329C535.965 86.9523 534.425 86 532.324 86C526.274 86 520 92.1341 520 98.7163C520 103.394 523.277 106.307 527.366 106.307C529.607 106.307 531.568 105.354 533.192 103.982C535.629 101.937 536.357 99.2204 536.357 98.9963C536.357 98.7443 536.133 98.7443 536.049 98.7443C535.797 98.7443 535.769 98.9123 535.713 99.0244C534.425 103.394 530.644 105.495 527.843 105.495C524.874 105.495 522.297 103.59 522.297 99.6126C522.297 98.7163 522.577 93.8426 525.742 90.1734C527.282 88.3808 529.915 86.8123 532.576 86.8123C535.657 86.8123 537.03 89.3611 537.03 92.2181C537.03 92.9463 536.946 93.5625 536.946 93.6746C536.946 93.9267 537.226 93.9267 537.31 93.9267C537.618 93.9267 537.646 93.8986 537.758 93.3945L539.523 86.2521Z" fill="#00FFFF"/>
<path d="M543.381 103.183C545.459 103.183 546.37 104.981 546.37 107.059C546.37 109.861 544.876 110.935 543.521 110.935C542.284 110.935 540.276 110.328 539.645 108.53C539.762 108.577 539.879 108.577 539.996 108.577C540.556 108.577 540.976 108.203 540.976 107.596C540.976 106.919 540.463 106.615 539.996 106.615C539.599 106.615 538.992 106.802 538.992 107.666C538.992 109.814 541.093 111.495 543.568 111.495C546.16 111.495 548.144 109.464 548.144 107.082C548.144 104.818 546.276 103.183 544.058 102.926C545.833 102.553 547.537 100.965 547.537 98.8404C547.537 97.0192 545.693 95.6883 543.591 95.6883C541.467 95.6883 539.599 96.9958 539.599 98.8637C539.599 99.6809 540.206 99.821 540.509 99.821C541 99.821 541.42 99.5175 541.42 98.9104C541.42 98.3033 541 97.9998 540.509 97.9998C540.416 97.9998 540.299 97.9998 540.206 98.0465C540.883 96.5055 542.727 96.2253 543.545 96.2253C544.362 96.2253 545.903 96.6222 545.903 98.8637C545.903 99.5175 545.81 100.685 545.016 101.712C544.315 102.623 543.521 102.67 542.751 102.74C542.634 102.74 542.097 102.786 542.004 102.786C541.84 102.81 541.747 102.833 541.747 102.996C541.747 103.16 541.77 103.183 542.237 103.183H543.381Z" fill="#00FFFF"/>
<path d="M556.775 96.0151C556.775 95.5248 556.751 95.5015 556.331 95.5015L549.396 106.545V107.152H555.42V109.441C555.42 110.281 555.374 110.515 553.739 110.515H553.296V111.122C554.043 111.075 555.304 111.075 556.098 111.075C556.891 111.075 558.152 111.075 558.899 111.122V110.515H558.456C556.821 110.515 556.775 110.281 556.775 109.441V107.152H559.156V106.545H556.775V96.0151ZM555.49 97.5561V106.545H549.863L555.49 97.5561Z" fill="#00FFFF"/>
<path d="M51.5225 302.252C51.5225 302 51.3265 302 51.2704 302C51.2144 302 51.1024 302 50.8783 302.28L48.9457 304.633C47.9653 302.952 46.4248 302 44.3241 302C38.2741 302 32 308.134 32 314.716C32 319.394 35.2771 322.307 39.3665 322.307C41.6072 322.307 43.5679 321.354 45.1924 319.982C47.6292 317.937 48.3575 315.22 48.3575 314.996C48.3575 314.744 48.1334 314.744 48.0494 314.744C47.7973 314.744 47.7693 314.912 47.7133 315.024C46.4248 319.394 42.6436 321.495 39.8426 321.495C36.8736 321.495 34.2968 319.59 34.2968 315.613C34.2968 314.716 34.5769 309.843 37.7419 306.173C39.2824 304.381 41.9153 302.812 44.5762 302.812C47.6572 302.812 49.0297 305.361 49.0297 308.218C49.0297 308.946 48.9457 309.563 48.9457 309.675C48.9457 309.927 49.2258 309.927 49.3098 309.927C49.6179 309.927 49.6459 309.899 49.7579 309.394L51.5225 302.252Z" fill="#00FFFF"/>
<path d="M55.3812 319.183C57.4593 319.183 58.3699 320.981 58.3699 323.059C58.3699 325.861 56.8756 326.935 55.5213 326.935C54.2839 326.935 52.2759 326.328 51.6455 324.53C51.7622 324.577 51.8789 324.577 51.9957 324.577C52.5561 324.577 52.9763 324.203 52.9763 323.596C52.9763 322.919 52.4627 322.615 51.9957 322.615C51.5988 322.615 50.9917 322.802 50.9917 323.666C50.9917 325.814 53.0931 327.495 55.568 327.495C58.1597 327.495 60.1444 325.464 60.1444 323.082C60.1444 320.818 58.2765 319.183 56.0584 318.926C57.8329 318.553 59.5373 316.965 59.5373 314.84C59.5373 313.019 57.6928 311.688 55.5914 311.688C53.4667 311.688 51.5988 312.996 51.5988 314.864C51.5988 315.681 52.2058 315.821 52.5094 315.821C52.9997 315.821 53.42 315.517 53.42 314.91C53.42 314.303 52.9997 314 52.5094 314C52.416 314 52.2992 314 52.2058 314.047C52.8829 312.505 54.7275 312.225 55.5447 312.225C56.3619 312.225 57.9029 312.622 57.9029 314.864C57.9029 315.517 57.8095 316.685 57.0157 317.712C56.3152 318.623 55.5213 318.67 54.7508 318.74C54.6341 318.74 54.0971 318.786 54.0037 318.786C53.8402 318.81 53.7468 318.833 53.7468 318.996C53.7468 319.16 53.7702 319.183 54.2372 319.183H55.3812Z" fill="#00FFFF"/>
<path d="M68.7747 312.015C68.7747 311.525 68.7513 311.501 68.331 311.501L61.3965 322.545V323.152H67.4204V325.441C67.4204 326.281 67.3737 326.515 65.7393 326.515H65.2957V327.122C66.0429 327.075 67.3037 327.075 68.0975 327.075C68.8914 327.075 70.1522 327.075 70.8994 327.122V326.515H70.4558C68.8214 326.515 68.7747 326.281 68.7747 325.441V323.152H71.1562V322.545H68.7747V312.015ZM67.4905 313.556V322.545H61.8635L67.4905 313.556Z" fill="#00FFFF"/>
<path d="M100.939 359.709C101.289 359.709 101.64 359.709 101.64 359.312C101.64 358.892 101.243 358.892 100.846 358.892H87.7939C87.3969 358.892 87 358.892 87 359.312C87 359.709 87.3502 359.709 87.7005 359.709H100.939ZM100.846 363.865C101.243 363.865 101.64 363.865 101.64 363.445C101.64 363.048 101.289 363.048 100.939 363.048H87.7005C87.3502 363.048 87 363.048 87 363.445C87 363.865 87.3969 363.865 87.7939 363.865H100.846Z" fill="#00FFFF"/>
<path d="M116.247 364.425C116.13 364.822 116.13 364.869 115.803 365.313C115.29 365.967 114.262 366.97 113.165 366.97C112.208 366.97 111.67 366.107 111.67 364.729C111.67 363.445 112.394 360.83 112.838 359.849C113.632 358.215 114.729 357.374 115.64 357.374C117.181 357.374 117.484 359.289 117.484 359.476C117.484 359.499 117.414 359.802 117.391 359.849L116.247 364.425ZM117.741 358.448C117.484 357.841 116.854 356.907 115.64 356.907C113.001 356.907 110.153 360.316 110.153 363.772C110.153 366.083 111.507 367.437 113.095 367.437C114.379 367.437 115.476 366.433 116.13 365.663C116.364 367.041 117.461 367.437 118.161 367.437C118.862 367.437 119.422 367.017 119.843 366.177C120.216 365.383 120.543 363.959 120.543 363.865C120.543 363.748 120.45 363.655 120.309 363.655C120.099 363.655 120.076 363.772 119.983 364.122C119.632 365.5 119.189 366.97 118.231 366.97C117.554 366.97 117.508 366.363 117.508 365.896C117.508 365.359 117.578 365.103 117.788 364.192C117.951 363.608 118.068 363.095 118.255 362.418C119.119 358.915 119.329 358.075 119.329 357.935C119.329 357.608 119.072 357.351 118.722 357.351C117.975 357.351 117.788 358.168 117.741 358.448Z" fill="#00FFFF"/>
<path d="M124.203 364.886C123.927 364.903 123.863 364.919 123.863 365.065C123.863 365.227 123.944 365.227 124.235 365.227H124.981C126.359 365.227 126.975 366.362 126.975 367.918C126.975 370.042 125.873 370.609 125.078 370.609C124.3 370.609 122.971 370.236 122.501 369.166C123.02 369.247 123.49 368.955 123.49 368.372C123.49 367.902 123.149 367.577 122.695 367.577C122.306 367.577 121.885 367.804 121.885 368.42C121.885 369.863 123.328 371.047 125.127 371.047C127.056 371.047 128.483 369.571 128.483 367.934C128.483 366.443 127.283 365.275 125.727 365C127.137 364.595 128.045 363.411 128.045 362.147C128.045 360.866 126.716 359.926 125.143 359.926C123.522 359.926 122.322 360.915 122.322 362.098C122.322 362.747 122.825 362.876 123.068 362.876C123.409 362.876 123.798 362.633 123.798 362.147C123.798 361.628 123.409 361.401 123.052 361.401C122.955 361.401 122.922 361.401 122.874 361.417C123.49 360.315 125.014 360.315 125.095 360.315C125.63 360.315 126.683 360.558 126.683 362.147C126.683 362.455 126.635 363.363 126.165 364.06C125.678 364.773 125.127 364.822 124.689 364.838L124.203 364.886Z" fill="#00FFFF"/>
<path d="M133.825 360.315C133.825 359.942 133.825 359.926 133.501 359.926C133.112 360.363 132.302 360.963 130.632 360.963V361.433C131.005 361.433 131.815 361.433 132.707 361.012V369.458C132.707 370.042 132.658 370.236 131.232 370.236H130.729V370.706C131.167 370.674 132.739 370.674 133.274 370.674C133.809 370.674 135.366 370.674 135.803 370.706V370.236H135.301C133.874 370.236 133.825 370.042 133.825 369.458V360.315Z" fill="#00FFFF"/>
<path d="M143.05 351.584C143.073 351.49 143.12 351.35 143.12 351.233C143.12 351 142.886 351 142.84 351C142.816 351 141.976 351.07 141.556 351.117C141.159 351.14 140.808 351.187 140.388 351.21C139.828 351.257 139.664 351.28 139.664 351.7C139.664 351.934 139.898 351.934 140.131 351.934C141.322 351.934 141.322 352.144 141.322 352.378C141.322 352.541 141.135 353.218 141.042 353.638L140.482 355.88C140.248 356.814 138.917 362.114 138.824 362.534C138.707 363.118 138.707 363.515 138.707 363.818C138.707 366.2 140.038 367.437 141.556 367.437C144.264 367.437 147.066 363.959 147.066 360.573C147.066 358.425 145.852 356.907 144.101 356.907C142.886 356.907 141.789 357.911 141.345 358.378L143.05 351.584ZM141.579 366.97C140.832 366.97 140.015 366.41 140.015 364.589C140.015 363.818 140.085 363.375 140.505 361.74C140.575 361.437 140.949 359.943 141.042 359.639C141.089 359.452 142.466 357.374 144.054 357.374C145.081 357.374 145.548 358.402 145.548 359.616C145.548 360.736 144.894 363.375 144.311 364.589C143.727 365.85 142.653 366.97 141.579 366.97Z" fill="#00FFFF"/>
<path d="M152.046 360.315C152.046 359.942 152.046 359.926 151.721 359.926C151.332 360.363 150.522 360.963 148.852 360.963V361.433C149.225 361.433 150.035 361.433 150.927 361.012V369.458C150.927 370.042 150.878 370.236 149.452 370.236H148.949V370.706C149.387 370.674 150.96 370.674 151.494 370.674C152.029 370.674 153.586 370.674 154.023 370.706V370.236H153.521C152.094 370.236 152.046 370.042 152.046 369.458V360.315Z" fill="#00FFFF"/>
<path d="M161.166 360.153C161.166 359.845 161.166 359.764 160.939 359.764C160.809 359.764 160.76 359.764 160.631 359.958L155.751 367.529V367.999H160.015V369.474C160.015 370.074 159.982 370.236 158.799 370.236H158.474V370.706C158.847 370.674 160.128 370.674 160.582 370.674C161.036 370.674 162.333 370.674 162.706 370.706V370.236H162.381C161.214 370.236 161.166 370.074 161.166 369.474V367.999H162.803V367.529H161.166V360.153ZM160.096 361.417V367.529H156.156L160.096 361.417Z" fill="#00FFFF"/>
<path d="M177.804 361.787H183.991C184.318 361.787 184.715 361.787 184.715 361.39C184.715 360.97 184.341 360.97 183.991 360.97H177.804V354.782C177.804 354.456 177.804 354.059 177.407 354.059C176.986 354.059 176.986 354.432 176.986 354.782V360.97H170.799C170.472 360.97 170.075 360.97 170.075 361.367C170.075 361.787 170.449 361.787 170.799 361.787H176.986V367.974C176.986 368.301 176.986 368.698 177.383 368.698C177.804 368.698 177.804 368.325 177.804 367.974V361.787Z" fill="#00FFFF"/>
<path d="M198.025 364.425C197.908 364.822 197.908 364.869 197.582 365.313C197.068 365.967 196.041 366.97 194.943 366.97C193.986 366.97 193.449 366.107 193.449 364.729C193.449 363.445 194.173 360.83 194.616 359.849C195.41 358.215 196.507 357.374 197.418 357.374C198.959 357.374 199.263 359.289 199.263 359.476C199.263 359.499 199.193 359.802 199.169 359.849L198.025 364.425ZM199.519 358.448C199.263 357.841 198.632 356.907 197.418 356.907C194.78 356.907 191.931 360.316 191.931 363.772C191.931 366.083 193.285 367.437 194.873 367.437C196.157 367.437 197.255 366.433 197.908 365.663C198.142 367.041 199.239 367.437 199.94 367.437C200.64 367.437 201.201 367.017 201.621 366.177C201.994 365.383 202.321 363.959 202.321 363.865C202.321 363.748 202.228 363.655 202.088 363.655C201.878 363.655 201.854 363.772 201.761 364.122C201.411 365.5 200.967 366.97 200.01 366.97C199.333 366.97 199.286 366.363 199.286 365.896C199.286 365.359 199.356 365.103 199.566 364.192C199.73 363.608 199.846 363.095 200.033 362.418C200.897 358.915 201.107 358.075 201.107 357.935C201.107 357.608 200.85 357.351 200.5 357.351C199.753 357.351 199.566 358.168 199.519 358.448Z" fill="#00FFFF"/>
<path d="M205.981 364.886C205.706 364.903 205.641 364.919 205.641 365.065C205.641 365.227 205.722 365.227 206.014 365.227H206.759C208.137 365.227 208.753 366.362 208.753 367.918C208.753 370.042 207.651 370.609 206.857 370.609C206.079 370.609 204.749 370.236 204.279 369.166C204.798 369.247 205.268 368.955 205.268 368.372C205.268 367.902 204.928 367.577 204.474 367.577C204.085 367.577 203.663 367.804 203.663 368.42C203.663 369.863 205.106 371.047 206.905 371.047C208.834 371.047 210.261 369.571 210.261 367.934C210.261 366.443 209.061 365.275 207.505 365C208.916 364.595 209.823 363.411 209.823 362.147C209.823 360.866 208.494 359.926 206.922 359.926C205.3 359.926 204.101 360.915 204.101 362.098C204.101 362.747 204.603 362.876 204.847 362.876C205.187 362.876 205.576 362.633 205.576 362.147C205.576 361.628 205.187 361.401 204.83 361.401C204.733 361.401 204.701 361.401 204.652 361.417C205.268 360.315 206.792 360.315 206.873 360.315C207.408 360.315 208.462 360.558 208.462 362.147C208.462 362.455 208.413 363.363 207.943 364.06C207.457 364.773 206.905 364.822 206.468 364.838L205.981 364.886Z" fill="#00FFFF"/>
<path d="M218.068 367.983H217.711C217.663 368.258 217.533 369.15 217.371 369.409C217.258 369.555 216.333 369.555 215.847 369.555H212.848C213.286 369.182 214.275 368.145 214.696 367.756C217.16 365.486 218.068 364.643 218.068 363.038C218.068 361.174 216.593 359.926 214.712 359.926C212.832 359.926 211.729 361.531 211.729 362.925C211.729 363.752 212.443 363.752 212.491 363.752C212.832 363.752 213.253 363.508 213.253 362.99C213.253 362.536 212.945 362.228 212.491 362.228C212.346 362.228 212.313 362.228 212.264 362.244C212.572 361.142 213.448 360.396 214.502 360.396C215.88 360.396 216.723 361.547 216.723 363.038C216.723 364.416 215.928 365.616 215.004 366.653L211.729 370.317V370.706H217.647L218.068 367.983Z" fill="#00FFFF"/>
<path d="M224.828 351.584C224.852 351.49 224.898 351.35 224.898 351.233C224.898 351 224.665 351 224.618 351C224.595 351 223.754 351.07 223.334 351.117C222.937 351.14 222.587 351.187 222.166 351.21C221.606 351.257 221.443 351.28 221.443 351.7C221.443 351.934 221.676 351.934 221.91 351.934C223.1 351.934 223.1 352.144 223.1 352.378C223.1 352.541 222.914 353.218 222.82 353.638L222.26 355.88C222.026 356.814 220.695 362.114 220.602 362.534C220.485 363.118 220.485 363.515 220.485 363.818C220.485 366.2 221.816 367.437 223.334 367.437C226.042 367.437 228.844 363.959 228.844 360.573C228.844 358.425 227.63 356.907 225.879 356.907C224.665 356.907 223.567 357.911 223.124 358.378L224.828 351.584ZM223.357 366.97C222.61 366.97 221.793 366.41 221.793 364.589C221.793 363.818 221.863 363.375 222.283 361.74C222.353 361.437 222.727 359.943 222.82 359.639C222.867 359.452 224.244 357.374 225.832 357.374C226.86 357.374 227.327 358.402 227.327 359.616C227.327 360.736 226.673 363.375 226.089 364.589C225.505 365.85 224.431 366.97 223.357 366.97Z" fill="#00FFFF"/>
<path d="M236.288 367.983H235.931C235.883 368.258 235.753 369.15 235.591 369.409C235.477 369.555 234.553 369.555 234.067 369.555H231.068C231.505 369.182 232.494 368.145 232.916 367.756C235.38 365.486 236.288 364.643 236.288 363.038C236.288 361.174 234.813 359.926 232.932 359.926C231.052 359.926 229.949 361.531 229.949 362.925C229.949 363.752 230.663 363.752 230.711 363.752C231.052 363.752 231.473 363.508 231.473 362.99C231.473 362.536 231.165 362.228 230.711 362.228C230.565 362.228 230.533 362.228 230.484 362.244C230.792 361.142 231.668 360.396 232.721 360.396C234.099 360.396 234.942 361.547 234.942 363.038C234.942 364.416 234.148 365.616 233.224 366.653L229.949 370.317V370.706H235.866L236.288 367.983Z" fill="#00FFFF"/>
<path d="M242.944 360.153C242.944 359.845 242.944 359.764 242.717 359.764C242.587 359.764 242.539 359.764 242.409 359.958L237.529 367.529V367.999H241.793V369.474C241.793 370.074 241.76 370.236 240.577 370.236H240.253V370.706C240.626 370.674 241.906 370.674 242.36 370.674C242.814 370.674 244.111 370.674 244.484 370.706V370.236H244.16C242.992 370.236 242.944 370.074 242.944 369.474V367.999H244.581V367.529H242.944V360.153ZM241.874 361.417V367.529H237.935L241.874 361.417Z" fill="#00FFFF"/>
<path d="M259.582 361.787H265.769C266.096 361.787 266.493 361.787 266.493 361.39C266.493 360.97 266.12 360.97 265.769 360.97H259.582V354.782C259.582 354.456 259.582 354.059 259.185 354.059C258.765 354.059 258.765 354.432 258.765 354.782V360.97H252.577C252.25 360.97 251.854 360.97 251.854 361.367C251.854 361.787 252.227 361.787 252.577 361.787H258.765V367.974C258.765 368.301 258.765 368.698 259.162 368.698C259.582 368.698 259.582 368.325 259.582 367.974V361.787Z" fill="#00FFFF"/>
<path d="M277.071 366.083C277.071 365.406 276.511 364.939 275.951 364.939C275.274 364.939 274.807 365.5 274.807 366.06C274.807 366.737 275.367 367.204 275.927 367.204C276.604 367.204 277.071 366.644 277.071 366.083Z" fill="#00FFFF"/>
<path d="M283.422 366.083C283.422 365.406 282.862 364.939 282.301 364.939C281.624 364.939 281.157 365.5 281.157 366.06C281.157 366.737 281.718 367.204 282.278 367.204C282.955 367.204 283.422 366.644 283.422 366.083Z" fill="#00FFFF"/>
<path d="M289.773 366.083C289.773 365.406 289.212 364.939 288.652 364.939C287.975 364.939 287.508 365.5 287.508 366.06C287.508 366.737 288.068 367.204 288.629 367.204C289.306 367.204 289.773 366.644 289.773 366.083Z" fill="#00FFFF"/>
<path d="M88.094 98.4255C87.9773 98.8224 87.9773 98.8691 87.6504 99.3127C87.1367 99.9665 86.1094 100.97 85.012 100.97C84.0547 100.97 83.5177 100.107 83.5177 98.729C83.5177 97.4448 84.2415 94.8298 84.6851 93.8492C85.4789 92.2148 86.5763 91.3742 87.4869 91.3742C89.0279 91.3742 89.3315 93.2888 89.3315 93.4756C89.3315 93.4989 89.2614 93.8025 89.2381 93.8492L88.094 98.4255ZM89.5883 92.4482C89.3315 91.8412 88.7011 90.9072 87.4869 90.9072C84.8485 90.9072 82 94.3161 82 97.7717C82 100.083 83.3542 101.437 84.9419 101.437C86.2261 101.437 87.3235 100.433 87.9773 99.663C88.2107 101.041 89.3081 101.437 90.0086 101.437C90.709 101.437 91.2694 101.017 91.6897 100.177C92.0633 99.3828 92.3901 97.9585 92.3901 97.8651C92.3901 97.7484 92.2968 97.655 92.1567 97.655C91.9465 97.655 91.9232 97.7717 91.8298 98.122C91.4796 99.4995 91.0359 100.97 90.0786 100.97C89.4015 100.97 89.3548 100.363 89.3548 99.8965C89.3548 99.3594 89.4249 99.1026 89.635 98.192C89.7984 97.6083 89.9152 97.0946 90.102 96.4175C90.9659 92.9152 91.176 92.0747 91.176 91.9346C91.176 91.6077 90.9192 91.3509 90.569 91.3509C89.8218 91.3509 89.635 92.1681 89.5883 92.4482Z" fill="#00FFFF"/>
<path d="M96.0501 98.8864C95.7745 98.9026 95.7097 98.9188 95.7097 99.0647C95.7097 99.2268 95.7908 99.2268 96.0826 99.2268H96.8283C98.2062 99.2268 98.8223 100.362 98.8223 101.918C98.8223 104.042 97.7199 104.609 96.9255 104.609C96.1474 104.609 94.8181 104.236 94.348 103.166C94.8667 103.247 95.3368 102.955 95.3368 102.372C95.3368 101.902 94.9964 101.577 94.5425 101.577C94.1534 101.577 93.7319 101.804 93.7319 102.42C93.7319 103.863 95.1747 105.047 96.9742 105.047C98.9033 105.047 100.33 103.571 100.33 101.934C100.33 100.443 99.1303 99.2755 97.574 98.9999C98.9844 98.5946 99.8922 97.4112 99.8922 96.1467C99.8922 94.866 98.5629 93.9258 96.9904 93.9258C95.3693 93.9258 94.1696 94.9147 94.1696 96.0981C94.1696 96.7465 94.6722 96.8762 94.9154 96.8762C95.2558 96.8762 95.6449 96.6331 95.6449 96.1467C95.6449 95.628 95.2558 95.401 94.8991 95.401C94.8019 95.401 94.7695 95.401 94.7208 95.4172C95.3368 94.3149 96.8607 94.3149 96.9418 94.3149C97.4767 94.3149 98.5304 94.558 98.5304 96.1467C98.5304 96.4547 98.4818 97.3626 98.0117 98.0596C97.5254 98.7729 96.9742 98.8216 96.5365 98.8378L96.0501 98.8864Z" fill="#00FFFF"/>
<path d="M105.673 94.3149C105.673 93.942 105.673 93.9258 105.348 93.9258C104.959 94.3635 104.149 94.9633 102.479 94.9633V95.4334C102.852 95.4334 103.662 95.4334 104.554 95.0119V103.458C104.554 104.042 104.505 104.236 103.079 104.236H102.576V104.706C103.014 104.674 104.586 104.674 105.121 104.674C105.656 104.674 107.213 104.674 107.65 104.706V104.236H107.148C105.721 104.236 105.673 104.042 105.673 103.458V94.3149Z" fill="#00FFFF"/>
<path d="M116.531 98.4255C116.415 98.8224 116.415 98.8691 116.088 99.3127C115.574 99.9665 114.547 100.97 113.449 100.97C112.492 100.97 111.955 100.107 111.955 98.729C111.955 97.4448 112.679 94.8298 113.123 93.8492C113.916 92.2148 115.014 91.3742 115.924 91.3742C117.465 91.3742 117.769 93.2888 117.769 93.4756C117.769 93.4989 117.699 93.8025 117.676 93.8492L116.531 98.4255ZM118.026 92.4482C117.769 91.8412 117.139 90.9072 115.924 90.9072C113.286 90.9072 110.438 94.3161 110.438 97.7717C110.438 100.083 111.792 101.437 113.379 101.437C114.664 101.437 115.761 100.433 116.415 99.663C116.648 101.041 117.746 101.437 118.446 101.437C119.147 101.437 119.707 101.017 120.127 100.177C120.501 99.3828 120.828 97.9585 120.828 97.8651C120.828 97.7484 120.734 97.655 120.594 97.655C120.384 97.655 120.361 97.7717 120.267 98.122C119.917 99.4995 119.473 100.97 118.516 100.97C117.839 100.97 117.792 100.363 117.792 99.8965C117.792 99.3594 117.862 99.1026 118.073 98.192C118.236 97.6083 118.353 97.0946 118.539 96.4175C119.403 92.9152 119.614 92.0747 119.614 91.9346C119.614 91.6077 119.357 91.3509 119.006 91.3509C118.259 91.3509 118.073 92.1681 118.026 92.4482Z" fill="#00FFFF"/>
<path d="M124.488 98.8864C124.212 98.9026 124.147 98.9188 124.147 99.0647C124.147 99.2268 124.228 99.2268 124.52 99.2268H125.266C126.644 99.2268 127.26 100.362 127.26 101.918C127.26 104.042 126.157 104.609 125.363 104.609C124.585 104.609 123.256 104.236 122.785 103.166C123.304 103.247 123.774 102.955 123.774 102.372C123.774 101.902 123.434 101.577 122.98 101.577C122.591 101.577 122.169 101.804 122.169 102.42C122.169 103.863 123.612 105.047 125.412 105.047C127.341 105.047 128.767 103.571 128.767 101.934C128.767 100.443 127.568 99.2755 126.011 98.9999C127.422 98.5946 128.33 97.4112 128.33 96.1467C128.33 94.866 127 93.9258 125.428 93.9258C123.807 93.9258 122.607 94.9147 122.607 96.0981C122.607 96.7465 123.11 96.8762 123.353 96.8762C123.693 96.8762 124.082 96.6331 124.082 96.1467C124.082 95.628 123.693 95.401 123.337 95.401C123.239 95.401 123.207 95.401 123.158 95.4172C123.774 94.3149 125.298 94.3149 125.379 94.3149C125.914 94.3149 126.968 94.558 126.968 96.1467C126.968 96.4547 126.919 97.3626 126.449 98.0596C125.963 98.7729 125.412 98.8216 124.974 98.8378L124.488 98.8864Z" fill="#00FFFF"/>
<path d="M136.574 101.983H136.217C136.169 102.258 136.039 103.15 135.877 103.409C135.763 103.555 134.839 103.555 134.353 103.555H131.354C131.792 103.182 132.781 102.145 133.202 101.756C135.666 99.4862 136.574 98.6432 136.574 97.0383C136.574 95.174 135.099 93.9258 133.218 93.9258C131.338 93.9258 130.235 95.5307 130.235 96.9249C130.235 97.7516 130.949 97.7516 130.997 97.7516C131.338 97.7516 131.759 97.5085 131.759 96.9897C131.759 96.5358 131.451 96.2278 130.997 96.2278C130.851 96.2278 130.819 96.2278 130.77 96.244C131.078 95.1416 131.954 94.3959 133.007 94.3959C134.385 94.3959 135.228 95.5469 135.228 97.0383C135.228 98.4163 134.434 99.6159 133.51 100.653L130.235 104.317V104.706H136.152L136.574 101.983Z" fill="#00FFFF"/>
<path d="M336.343 40.5837C336.366 40.4903 336.413 40.3502 336.413 40.2335C336.413 40 336.179 40 336.133 40C336.109 40 335.269 40.07 334.849 40.1167C334.452 40.1401 334.101 40.1868 333.681 40.2101C333.121 40.2568 332.957 40.2802 332.957 40.7005C332.957 40.9339 333.191 40.9339 333.424 40.9339C334.615 40.9339 334.615 41.1441 334.615 41.3776C334.615 41.541 334.428 42.2181 334.335 42.6384L333.774 44.8799C333.541 45.8138 332.21 51.114 332.117 51.5342C332 52.118 332 52.5149 332 52.8184C332 55.2 333.331 56.4374 334.849 56.4374C337.557 56.4374 340.359 52.9585 340.359 49.5729C340.359 47.4249 339.145 45.9072 337.394 45.9072C336.179 45.9072 335.082 46.9112 334.638 47.3782L336.343 40.5837ZM334.872 55.9705C334.125 55.9705 333.308 55.4101 333.308 53.5889C333.308 52.8184 333.378 52.3748 333.798 50.7404C333.868 50.4368 334.241 48.9425 334.335 48.639C334.382 48.4522 335.759 46.3742 337.347 46.3742C338.374 46.3742 338.841 47.4015 338.841 48.6157C338.841 49.7364 338.187 52.3748 337.604 53.5889C337.02 54.8497 335.946 55.9705 334.872 55.9705Z" fill="#00FFFF"/>
<path d="M345.339 49.3149C345.339 48.942 345.339 48.9258 345.014 48.9258C344.625 49.3635 343.815 49.9633 342.145 49.9633V50.4334C342.518 50.4334 343.328 50.4334 344.22 50.0119V58.458C344.22 59.0416 344.171 59.2361 342.745 59.2361H342.242V59.7062C342.68 59.6738 344.252 59.6738 344.787 59.6738C345.322 59.6738 346.879 59.6738 347.316 59.7062V59.2361H346.814C345.387 59.2361 345.339 59.0416 345.339 58.458V49.3149Z" fill="#00FFFF"/>
<path d="M354.459 49.1527C354.459 48.8447 354.459 48.7637 354.232 48.7637C354.102 48.7637 354.054 48.7637 353.924 48.9582L349.044 56.5288V56.999H353.308V58.4742C353.308 59.074 353.276 59.2361 352.092 59.2361H351.768V59.7062C352.141 59.6738 353.421 59.6738 353.875 59.6738C354.329 59.6738 355.626 59.6738 355.999 59.7062V59.2361H355.675C354.508 59.2361 354.459 59.074 354.459 58.4742V56.999H356.096V56.5288H354.459V49.1527ZM353.389 50.4172V56.5288H349.45L353.389 50.4172Z" fill="#00FFFF"/>
<path d="M335.343 65.5837C335.366 65.4903 335.413 65.3502 335.413 65.2335C335.413 65 335.179 65 335.133 65C335.109 65 334.269 65.07 333.849 65.1167C333.452 65.1401 333.101 65.1868 332.681 65.2101C332.121 65.2568 331.957 65.2802 331.957 65.7005C331.957 65.9339 332.191 65.9339 332.424 65.9339C333.615 65.9339 333.615 66.1441 333.615 66.3776C333.615 66.541 333.428 67.2181 333.335 67.6384L332.774 69.8799C332.541 70.8138 331.21 76.114 331.117 76.5342C331 77.118 331 77.5149 331 77.8184C331 80.2 332.331 81.4374 333.849 81.4374C336.557 81.4374 339.359 77.9585 339.359 74.5729C339.359 72.4249 338.145 70.9072 336.394 70.9072C335.179 70.9072 334.082 71.9112 333.638 72.3782L335.343 65.5837ZM333.872 80.9705C333.125 80.9705 332.308 80.4101 332.308 78.5889C332.308 77.8184 332.378 77.3748 332.798 75.7404C332.868 75.4368 333.241 73.9425 333.335 73.639C333.382 73.4522 334.759 71.3742 336.347 71.3742C337.374 71.3742 337.841 72.4015 337.841 73.6157C337.841 74.7364 337.187 77.3748 336.604 78.5889C336.02 79.8497 334.946 80.9705 333.872 80.9705Z" fill="#00FFFF"/>
<path d="M346.802 81.9827H346.446C346.397 82.2583 346.267 83.15 346.105 83.4093C345.992 83.5552 345.068 83.5552 344.582 83.5552H341.582C342.02 83.1824 343.009 82.1449 343.431 81.7558C345.895 79.4862 346.802 78.6432 346.802 77.0383C346.802 75.174 345.327 73.9258 343.447 73.9258C341.566 73.9258 340.464 75.5307 340.464 76.9249C340.464 77.7516 341.177 77.7516 341.226 77.7516C341.566 77.7516 341.988 77.5085 341.988 76.9897C341.988 76.5358 341.68 76.2278 341.226 76.2278C341.08 76.2278 341.047 76.2278 340.999 76.244C341.307 75.1416 342.182 74.3959 343.236 74.3959C344.614 74.3959 345.457 75.5469 345.457 77.0383C345.457 78.4163 344.663 79.6159 343.739 80.6534L340.464 84.3172V84.7062H346.381L346.802 81.9827Z" fill="#00FFFF"/>
<path d="M353.458 74.1527C353.458 73.8447 353.458 73.7637 353.232 73.7637C353.102 73.7637 353.053 73.7637 352.924 73.9582L348.044 81.5288V81.999H352.307V83.4742C352.307 84.074 352.275 84.2361 351.092 84.2361H350.767V84.7062C351.14 84.6738 352.421 84.6738 352.875 84.6738C353.329 84.6738 354.626 84.6738 354.999 84.7062V84.2361H354.674C353.507 84.2361 353.458 84.074 353.458 83.4742V81.999H355.096V81.5288H353.458V74.1527ZM352.389 75.4172V81.5288H348.449L352.389 75.4172Z" fill="#00FFFF"/>
<g clip-path="url(#clip0)">
<path d="M102.013 415.84C102.364 415.84 102.714 415.84 102.714 415.443C102.714 415.023 102.317 415.023 101.92 415.023H88.8681C88.4711 415.023 88.0742 415.023 88.0742 415.443C88.0742 415.84 88.4244 415.84 88.7747 415.84H102.013ZM101.92 419.996C102.317 419.996 102.714 419.996 102.714 419.576C102.714 419.179 102.364 419.179 102.013 419.179H88.7747C88.4244 419.179 88.0742 419.179 88.0742 419.576C88.0742 419.996 88.4711 419.996 88.8681 419.996H101.92Z" fill="#00FFFF"/>
<path d="M125.758 389.399C125.791 389.302 126.196 388.491 126.796 387.973C127.217 387.584 127.768 387.324 128.401 387.324C129.049 387.324 129.276 387.811 129.276 388.459C129.276 389.383 128.611 391.231 128.287 392.107C128.141 392.496 128.06 392.706 128.06 392.998C128.06 393.728 128.563 394.311 129.341 394.311C130.849 394.311 131.416 391.928 131.416 391.831C131.416 391.75 131.351 391.685 131.254 391.685C131.108 391.685 131.092 391.734 131.011 392.009C130.638 393.339 130.022 393.987 129.39 393.987C129.227 393.987 128.968 393.971 128.968 393.452C128.968 393.047 129.146 392.56 129.244 392.333C129.568 391.442 130.249 389.626 130.249 388.702C130.249 387.73 129.681 387 128.449 387C127.007 387 126.245 388.021 125.953 388.427C125.904 387.503 125.239 387 124.526 387C124.007 387 123.651 387.308 123.375 387.859C123.083 388.443 122.856 389.415 122.856 389.48C122.856 389.545 122.921 389.626 123.035 389.626C123.164 389.626 123.181 389.61 123.278 389.237C123.537 388.248 123.829 387.324 124.478 387.324C124.85 387.324 124.98 387.584 124.98 388.07C124.98 388.427 124.818 389.059 124.705 389.561L124.251 391.312C124.186 391.62 124.007 392.35 123.926 392.641C123.813 393.063 123.635 393.825 123.635 393.906C123.635 394.133 123.813 394.311 124.056 394.311C124.251 394.311 124.478 394.214 124.607 393.971C124.64 393.89 124.786 393.322 124.867 392.998L125.223 391.539L125.758 389.399Z" fill="#00FFFF"/>
<path d="M139.852 433.842L142.678 426.37H142.094C141.183 428.799 138.708 430.386 136.023 431.087C135.533 431.203 133.245 431.811 128.762 431.811H114.683L126.567 417.871C126.731 417.685 126.777 417.615 126.777 417.498C126.777 417.451 126.777 417.381 126.614 417.148L115.733 402.274H128.528C131.657 402.274 133.782 402.601 133.992 402.648C135.253 402.835 137.284 403.232 139.129 404.399C139.712 404.773 141.3 405.823 142.094 407.715H142.678L139.852 401.154H112.254C111.717 401.154 111.694 401.177 111.624 401.317C111.601 401.387 111.601 401.831 111.601 402.088L123.952 418.992L111.857 433.165C111.624 433.445 111.624 433.562 111.624 433.585C111.624 433.842 111.834 433.842 112.254 433.842H139.852Z" fill="#00FFFF"/>
<path d="M117.17 440.481C117.186 440.416 117.219 440.319 117.219 440.238C117.219 440.076 117.057 440.076 117.024 440.076C117.008 440.076 116.424 440.124 116.133 440.157C115.857 440.173 115.614 440.205 115.322 440.222C114.933 440.254 114.819 440.27 114.819 440.562C114.819 440.724 114.982 440.724 115.144 440.724C115.97 440.724 115.97 440.87 115.97 441.032C115.97 441.097 115.97 441.129 115.889 441.421L113.571 450.694C113.506 450.937 113.506 450.97 113.506 451.067C113.506 451.423 113.782 451.488 113.944 451.488C114.398 451.488 114.495 451.132 114.625 450.629L115.387 447.598C116.554 447.727 117.251 448.214 117.251 448.992C117.251 449.089 117.251 449.154 117.203 449.397C117.138 449.64 117.138 449.835 117.138 449.916C117.138 450.856 117.754 451.488 118.58 451.488C119.326 451.488 119.715 450.807 119.845 450.58C120.185 449.981 120.396 449.073 120.396 449.008C120.396 448.927 120.331 448.862 120.234 448.862C120.088 448.862 120.072 448.927 120.007 449.186C119.78 450.029 119.44 451.164 118.613 451.164C118.289 451.164 118.078 451.002 118.078 450.386C118.078 450.078 118.143 449.721 118.208 449.478C118.272 449.186 118.272 449.17 118.272 448.976C118.272 448.019 117.413 447.484 115.922 447.29C116.505 446.933 117.089 446.301 117.316 446.058C118.24 445.02 118.872 444.501 119.618 444.501C119.991 444.501 120.088 444.599 120.202 444.696C119.602 444.761 119.375 445.182 119.375 445.506C119.375 445.895 119.683 446.025 119.91 446.025C120.347 446.025 120.737 445.652 120.737 445.134C120.737 444.663 120.364 444.177 119.634 444.177C118.743 444.177 118.013 444.809 116.862 446.106C116.7 446.301 116.1 446.917 115.5 447.144L117.17 440.481Z" fill="#00FFFF"/>
<path d="M132.357 446.074C132.584 446.074 132.876 446.074 132.876 445.782C132.876 445.474 132.6 445.474 132.357 445.474H122.809C122.582 445.474 122.29 445.474 122.29 445.766C122.29 446.074 122.566 446.074 122.809 446.074H132.357ZM132.357 449.089C132.584 449.089 132.876 449.089 132.876 448.797C132.876 448.489 132.6 448.489 132.357 448.489H122.809C122.582 448.489 122.29 448.489 122.29 448.781C122.29 449.089 122.566 449.089 122.809 449.089H132.357Z" fill="#00FFFF"/>
<path d="M138.429 440.935C138.429 440.562 138.429 440.546 138.105 440.546C137.716 440.983 136.906 441.583 135.236 441.583V442.053C135.609 442.053 136.419 442.053 137.311 441.632V450.078C137.311 450.662 137.262 450.856 135.836 450.856H135.333V451.326C135.771 451.294 137.343 451.294 137.878 451.294C138.413 451.294 139.97 451.294 140.407 451.326V450.856H139.905C138.478 450.856 138.429 450.662 138.429 450.078V440.935Z" fill="#00FFFF"/>
<path d="M154.384 422.424C154.204 423.027 154.204 423.098 153.701 423.772C152.91 424.765 151.328 426.29 149.638 426.29C148.164 426.29 147.337 424.978 147.337 422.885C147.337 420.933 148.452 416.96 149.135 415.47C150.357 412.987 152.047 411.71 153.449 411.71C155.822 411.71 156.29 414.619 156.29 414.902C156.29 414.938 156.182 415.399 156.146 415.47L154.384 422.424ZM156.685 413.341C156.29 412.419 155.319 411 153.449 411C149.387 411 145 416.18 145 421.43C145 424.942 147.085 427 149.53 427C151.508 427 153.198 425.475 154.204 424.304C154.564 426.397 156.254 427 157.333 427C158.411 427 159.274 426.361 159.921 425.084C160.497 423.878 161 421.714 161 421.572C161 421.395 160.856 421.253 160.64 421.253C160.317 421.253 160.281 421.43 160.137 421.962C159.598 424.055 158.915 426.29 157.44 426.29C156.398 426.29 156.326 425.368 156.326 424.659C156.326 423.843 156.434 423.452 156.757 422.069C157.009 421.182 157.189 420.401 157.476 419.373C158.807 414.051 159.13 412.774 159.13 412.561C159.13 412.064 158.735 411.674 158.196 411.674C157.045 411.674 156.757 412.916 156.685 413.341Z" fill="#00FFFF"/>
<path d="M188.235 403.852C188.268 403.716 188.335 403.511 188.335 403.341C188.335 403 188 403 187.933 403C187.899 403 186.693 403.102 186.089 403.17C185.52 403.205 185.017 403.273 184.413 403.307C183.609 403.375 183.374 403.409 183.374 404.023C183.374 404.364 183.709 404.364 184.045 404.364C185.754 404.364 185.754 404.67 185.754 405.011C185.754 405.25 185.486 406.239 185.352 406.852L184.547 410.125C184.212 411.489 182.302 419.227 182.168 419.841C182 420.693 182 421.273 182 421.716C182 425.193 183.911 427 186.089 427C189.978 427 194 421.92 194 416.977C194 413.841 192.257 411.625 189.743 411.625C188 411.625 186.425 413.091 185.788 413.773L188.235 403.852ZM186.123 426.318C185.05 426.318 183.877 425.5 183.877 422.841C183.877 421.716 183.978 421.068 184.581 418.682C184.682 418.239 185.218 416.057 185.352 415.614C185.419 415.341 187.397 412.307 189.676 412.307C191.151 412.307 191.821 413.807 191.821 415.58C191.821 417.216 190.883 421.068 190.045 422.841C189.207 424.682 187.665 426.318 186.123 426.318Z" fill="#00FFFF"/>
</g>
<path d="M164.318 421.431C164.043 421.447 163.978 421.463 163.978 421.609C163.978 421.771 164.059 421.771 164.351 421.771H165.096C166.474 421.771 167.09 422.906 167.09 424.462C167.09 426.586 165.988 427.153 165.194 427.153C164.415 427.153 163.086 426.78 162.616 425.71C163.135 425.792 163.605 425.5 163.605 424.916C163.605 424.446 163.264 424.122 162.811 424.122C162.421 424.122 162 424.349 162 424.965C162 426.408 163.443 427.591 165.242 427.591C167.171 427.591 168.598 426.116 168.598 424.478C168.598 422.987 167.398 421.82 165.842 421.544C167.252 421.139 168.16 419.956 168.16 418.691C168.16 417.41 166.831 416.47 165.258 416.47C163.637 416.47 162.438 417.459 162.438 418.642C162.438 419.291 162.94 419.421 163.183 419.421C163.524 419.421 163.913 419.177 163.913 418.691C163.913 418.172 163.524 417.945 163.167 417.945C163.07 417.945 163.038 417.945 162.989 417.962C163.605 416.859 165.129 416.859 165.21 416.859C165.745 416.859 166.799 417.102 166.799 418.691C166.799 418.999 166.75 419.907 166.28 420.604C165.793 421.317 165.242 421.366 164.805 421.382L164.318 421.431Z" fill="#00FFFF"/>
<path d="M173.827 416.405C173.844 416.34 173.876 416.243 173.876 416.162C173.876 416 173.714 416 173.681 416C173.665 416 173.082 416.049 172.79 416.081C172.514 416.097 172.271 416.13 171.979 416.146C171.59 416.178 171.477 416.195 171.477 416.486C171.477 416.648 171.639 416.648 171.801 416.648C172.628 416.648 172.628 416.794 172.628 416.956C172.628 417.021 172.628 417.054 172.547 417.346L170.228 426.618C170.164 426.862 170.164 426.894 170.164 426.991C170.164 427.348 170.439 427.413 170.601 427.413C171.055 427.413 171.152 427.056 171.282 426.553L172.044 423.522C173.211 423.652 173.908 424.138 173.908 424.916C173.908 425.013 173.908 425.078 173.86 425.321C173.795 425.565 173.795 425.759 173.795 425.84C173.795 426.78 174.411 427.413 175.238 427.413C175.983 427.413 176.372 426.732 176.502 426.505C176.843 425.905 177.053 424.997 177.053 424.932C177.053 424.851 176.988 424.786 176.891 424.786C176.745 424.786 176.729 424.851 176.664 425.111C176.437 425.954 176.097 427.088 175.27 427.088C174.946 427.088 174.735 426.926 174.735 426.31C174.735 426.002 174.8 425.646 174.865 425.402C174.93 425.111 174.93 425.094 174.93 424.9C174.93 423.943 174.07 423.409 172.579 423.214C173.163 422.857 173.746 422.225 173.973 421.982C174.897 420.944 175.529 420.426 176.275 420.426C176.648 420.426 176.745 420.523 176.859 420.62C176.259 420.685 176.032 421.107 176.032 421.431C176.032 421.82 176.34 421.95 176.567 421.95C177.005 421.95 177.394 421.577 177.394 421.058C177.394 420.588 177.021 420.101 176.291 420.101C175.4 420.101 174.67 420.734 173.519 422.031C173.357 422.225 172.757 422.841 172.158 423.068L173.827 416.405Z" fill="#00FFFF"/>
<path d="M199.088 416.818C199.104 416.754 199.136 416.656 199.136 416.575C199.136 416.413 198.974 416.413 198.942 416.413C198.925 416.413 198.342 416.462 198.05 416.494C197.774 416.51 197.531 416.543 197.239 416.559C196.85 416.592 196.737 416.608 196.737 416.9C196.737 417.062 196.899 417.062 197.061 417.062C197.888 417.062 197.888 417.208 197.888 417.37C197.888 417.435 197.888 417.467 197.807 417.759L195.489 427.032C195.424 427.275 195.424 427.307 195.424 427.404C195.424 427.761 195.699 427.826 195.862 427.826C196.315 427.826 196.413 427.469 196.542 426.967L197.304 423.935C198.472 424.065 199.169 424.551 199.169 425.329C199.169 425.427 199.169 425.491 199.12 425.735C199.055 425.978 199.055 426.172 199.055 426.253C199.055 427.194 199.671 427.826 200.498 427.826C201.244 427.826 201.633 427.145 201.762 426.918C202.103 426.318 202.314 425.41 202.314 425.346C202.314 425.265 202.249 425.2 202.151 425.2C202.006 425.2 201.989 425.265 201.925 425.524C201.698 426.367 201.357 427.502 200.53 427.502C200.206 427.502 199.995 427.34 199.995 426.724C199.995 426.416 200.06 426.059 200.125 425.816C200.19 425.524 200.19 425.508 200.19 425.313C200.19 424.357 199.331 423.822 197.839 423.627C198.423 423.271 199.007 422.638 199.233 422.395C200.157 421.358 200.79 420.839 201.535 420.839C201.908 420.839 202.006 420.936 202.119 421.033C201.519 421.098 201.292 421.52 201.292 421.844C201.292 422.233 201.6 422.363 201.827 422.363C202.265 422.363 202.654 421.99 202.654 421.471C202.654 421.001 202.281 420.515 201.552 420.515C200.66 420.515 199.931 421.147 198.78 422.444C198.617 422.638 198.018 423.254 197.418 423.481L199.088 416.818Z" fill="#00FFFF"/>
<path d="M209.185 417.11C209.185 416.802 209.185 416.721 208.958 416.721C208.828 416.721 208.779 416.721 208.65 416.916L203.77 424.486V424.956H208.034V426.432C208.034 427.032 208.001 427.194 206.818 427.194H206.494V427.664C206.866 427.631 208.147 427.631 208.601 427.631C209.055 427.631 210.352 427.631 210.725 427.664V427.194H210.4C209.233 427.194 209.185 427.032 209.185 426.432V424.956H210.822V424.486H209.185V417.11ZM208.115 418.375V424.486H204.175L208.115 418.375Z" fill="#00FFFF"/>
<path d="M414.939 97.8172C415.289 97.8172 415.64 97.8172 415.64 97.4203C415.64 97 415.243 97 414.846 97H401.794C401.397 97 401 97 401 97.4203C401 97.8172 401.35 97.8172 401.7 97.8172H414.939ZM414.846 101.973C415.243 101.973 415.64 101.973 415.64 101.553C415.64 101.156 415.289 101.156 414.939 101.156H401.7C401.35 101.156 401 101.156 401 101.553C401 101.973 401.397 101.973 401.794 101.973H414.846Z" fill="#00FFFF"/>
<path d="M100.939 312.817C101.289 312.817 101.64 312.817 101.64 312.42C101.64 312 101.243 312 100.846 312H87.7939C87.3969 312 87 312 87 312.42C87 312.817 87.3502 312.817 87.7005 312.817H100.939ZM100.846 316.973C101.243 316.973 101.64 316.973 101.64 316.553C101.64 316.156 101.289 316.156 100.939 316.156H87.7005C87.3502 316.156 87 316.156 87 316.553C87 316.973 87.3969 316.973 87.7939 316.973H100.846Z" fill="#00FFFF"/>
<line x1="144" y1="100" x2="210" y2="100" stroke="#00FFFF" stroke-width="2"/>
<line x1="341" y1="97" x2="341" y2="158" stroke="#00FFFF" stroke-width="2"/>
<path d="M6.86523 98.248H3.52539V104H1.64062V89.7812H6.34766C7.94922 89.7812 9.17969 90.1458 10.0391 90.875C10.9049 91.6042 11.3379 92.6654 11.3379 94.0586C11.3379 94.944 11.097 95.7155 10.6152 96.373C10.14 97.0306 9.47591 97.5221 8.62305 97.8477L11.9629 103.883V104H9.95117L6.86523 98.248ZM3.52539 96.7148H6.40625C7.33724 96.7148 8.07617 96.474 8.62305 95.9922C9.17643 95.5104 9.45312 94.8659 9.45312 94.0586C9.45312 93.1797 9.18945 92.5059 8.66211 92.0371C8.14128 91.5684 7.38607 91.3307 6.39648 91.3242H3.52539V96.7148ZM13.2129 98.6191C13.2129 97.584 13.4147 96.653 13.8184 95.8262C14.2285 94.9993 14.7949 94.3613 15.5176 93.9121C16.2467 93.4629 17.0768 93.2383 18.0078 93.2383C19.4466 93.2383 20.6087 93.7363 21.4941 94.7324C22.3861 95.7285 22.832 97.0534 22.832 98.707V98.834C22.832 99.8626 22.6335 100.787 22.2363 101.607C21.8457 102.421 21.2826 103.056 20.5469 103.512C19.8177 103.967 18.9779 104.195 18.0273 104.195C16.5951 104.195 15.4329 103.697 14.541 102.701C13.6556 101.705 13.2129 100.387 13.2129 98.7461V98.6191ZM15.0293 98.834C15.0293 100.006 15.2995 100.947 15.8398 101.656C16.3867 102.366 17.1159 102.721 18.0273 102.721C18.9453 102.721 19.6745 102.363 20.2148 101.646C20.7552 100.924 21.0254 99.9147 21.0254 98.6191C21.0254 97.4603 20.7487 96.5228 20.1953 95.8066C19.6484 95.084 18.9193 94.7227 18.0078 94.7227C17.1159 94.7227 16.3965 95.0775 15.8496 95.7871C15.3027 96.4967 15.0293 97.5124 15.0293 98.834ZM34.4531 101.51L36.4844 93.4336H38.291L35.2148 104H33.75L31.1816 95.9922L28.6816 104H27.2168L24.1504 93.4336H25.9473L28.0273 101.344L30.4883 93.4336H31.9434L34.4531 101.51ZM42.5781 96.0117H43.9355C44.7884 95.9987 45.459 95.7741 45.9473 95.3379C46.4355 94.9017 46.6797 94.3125 46.6797 93.5703C46.6797 91.9036 45.8496 91.0703 44.1895 91.0703C43.4082 91.0703 42.7832 91.2949 42.3145 91.7441C41.8522 92.1868 41.6211 92.776 41.6211 93.5117H39.8145C39.8145 92.3854 40.2246 91.4512 41.0449 90.709C41.8717 89.9603 42.9199 89.5859 44.1895 89.5859C45.5306 89.5859 46.582 89.9408 47.3438 90.6504C48.1055 91.36 48.4863 92.3464 48.4863 93.6094C48.4863 94.2279 48.2845 94.8268 47.8809 95.4062C47.4837 95.9857 46.9401 96.4186 46.25 96.7051C47.0312 96.9525 47.6335 97.3626 48.0566 97.9355C48.4863 98.5085 48.7012 99.2083 48.7012 100.035C48.7012 101.311 48.2845 102.324 47.4512 103.072C46.6178 103.821 45.5339 104.195 44.1992 104.195C42.8646 104.195 41.7773 103.834 40.9375 103.111C40.1042 102.389 39.6875 101.435 39.6875 100.25H41.5039C41.5039 100.999 41.748 101.598 42.2363 102.047C42.7246 102.496 43.3789 102.721 44.1992 102.721C45.0716 102.721 45.7389 102.493 46.2012 102.037C46.6634 101.581 46.8945 100.927 46.8945 100.074C46.8945 99.2474 46.6406 98.6126 46.1328 98.1699C45.625 97.7272 44.8926 97.4993 43.9355 97.4863H42.5781V96.0117Z" fill="#00FFFF"/>
<path d="M151.479 196.289H145.521L144.184 200H142.25L147.68 185.781H149.32L154.76 200H152.836L151.479 196.289ZM146.088 194.746H150.922L148.5 188.096L146.088 194.746Z" fill="#00FFFF"/>
<path d="M127.357 228.434L127.406 229.605C128.181 228.694 129.226 228.238 130.541 228.238C132.019 228.238 133.025 228.805 133.559 229.938C133.91 229.43 134.366 229.02 134.926 228.707C135.492 228.395 136.16 228.238 136.928 228.238C139.245 228.238 140.424 229.465 140.463 231.92V239H138.656V232.027C138.656 231.272 138.484 230.709 138.139 230.338C137.794 229.96 137.214 229.771 136.4 229.771C135.73 229.771 135.173 229.973 134.73 230.377C134.288 230.774 134.031 231.311 133.959 231.988V239H132.143V232.076C132.143 230.54 131.391 229.771 129.887 229.771C128.702 229.771 127.891 230.276 127.455 231.285V239H125.648V228.434H127.357ZM151.703 232.291L154.047 228.434H156.156L152.699 233.658L156.264 239H154.174L151.732 235.045L149.291 239H147.191L150.756 233.658L147.299 228.434H149.389L151.703 232.291ZM164.75 228.434L164.809 229.762C165.616 228.746 166.671 228.238 167.973 228.238C170.206 228.238 171.332 229.498 171.352 232.018V239H169.545V232.008C169.538 231.246 169.363 230.683 169.018 230.318C168.679 229.954 168.148 229.771 167.426 229.771C166.84 229.771 166.326 229.928 165.883 230.24C165.44 230.553 165.095 230.963 164.848 231.471V239H163.041V228.434H164.75Z" fill="#00FFFF"/>
<path d="M126.439 314.229C126.439 312.757 126.635 311.344 127.025 309.99C127.423 308.636 128.012 307.406 128.793 306.299C129.574 305.192 130.385 304.411 131.225 303.955L131.596 305.146C130.645 305.876 129.864 306.989 129.252 308.486C128.646 309.984 128.314 311.66 128.256 313.516L128.246 314.346C128.246 316.859 128.705 319.04 129.623 320.889C130.176 321.995 130.834 322.861 131.596 323.486L131.225 324.59C130.359 324.108 129.532 323.301 128.744 322.168C127.208 319.954 126.439 317.308 126.439 314.229ZM138.451 311.055C138.178 311.009 137.882 310.986 137.562 310.986C136.378 310.986 135.574 311.491 135.15 312.5V320H133.344V309.434H135.102L135.131 310.654C135.723 309.71 136.563 309.238 137.65 309.238C138.002 309.238 138.269 309.284 138.451 309.375V311.055ZM139.447 314.619C139.447 313.584 139.649 312.653 140.053 311.826C140.463 310.999 141.029 310.361 141.752 309.912C142.481 309.463 143.311 309.238 144.242 309.238C145.681 309.238 146.843 309.736 147.729 310.732C148.62 311.729 149.066 313.053 149.066 314.707V314.834C149.066 315.863 148.868 316.787 148.471 317.607C148.08 318.421 147.517 319.056 146.781 319.512C146.052 319.967 145.212 320.195 144.262 320.195C142.829 320.195 141.667 319.697 140.775 318.701C139.89 317.705 139.447 316.387 139.447 314.746V314.619ZM141.264 314.834C141.264 316.006 141.534 316.947 142.074 317.656C142.621 318.366 143.35 318.721 144.262 318.721C145.18 318.721 145.909 318.363 146.449 317.646C146.99 316.924 147.26 315.915 147.26 314.619C147.26 313.46 146.983 312.523 146.43 311.807C145.883 311.084 145.154 310.723 144.242 310.723C143.35 310.723 142.631 311.077 142.084 311.787C141.537 312.497 141.264 313.512 141.264 314.834ZM160.688 317.51L162.719 309.434H164.525L161.449 320H159.984L157.416 311.992L154.916 320H153.451L150.385 309.434H152.182L154.262 317.344L156.723 309.434H158.178L160.688 317.51ZM168.812 312.012H170.17C171.023 311.999 171.693 311.774 172.182 311.338C172.67 310.902 172.914 310.312 172.914 309.57C172.914 307.904 172.084 307.07 170.424 307.07C169.643 307.07 169.018 307.295 168.549 307.744C168.087 308.187 167.855 308.776 167.855 309.512H166.049C166.049 308.385 166.459 307.451 167.279 306.709C168.106 305.96 169.154 305.586 170.424 305.586C171.765 305.586 172.816 305.941 173.578 306.65C174.34 307.36 174.721 308.346 174.721 309.609C174.721 310.228 174.519 310.827 174.115 311.406C173.718 311.986 173.174 312.419 172.484 312.705C173.266 312.952 173.868 313.363 174.291 313.936C174.721 314.508 174.936 315.208 174.936 316.035C174.936 317.311 174.519 318.324 173.686 319.072C172.852 319.821 171.768 320.195 170.434 320.195C169.099 320.195 168.012 319.834 167.172 319.111C166.339 318.389 165.922 317.435 165.922 316.25H167.738C167.738 316.999 167.982 317.598 168.471 318.047C168.959 318.496 169.613 318.721 170.434 318.721C171.306 318.721 171.973 318.493 172.436 318.037C172.898 317.581 173.129 316.927 173.129 316.074C173.129 315.247 172.875 314.613 172.367 314.17C171.859 313.727 171.127 313.499 170.17 313.486H168.812V312.012ZM182.084 314.619C182.084 313.584 182.286 312.653 182.689 311.826C183.1 310.999 183.666 310.361 184.389 309.912C185.118 309.463 185.948 309.238 186.879 309.238C188.318 309.238 189.48 309.736 190.365 310.732C191.257 311.729 191.703 313.053 191.703 314.707V314.834C191.703 315.863 191.505 316.787 191.107 317.607C190.717 318.421 190.154 319.056 189.418 319.512C188.689 319.967 187.849 320.195 186.898 320.195C185.466 320.195 184.304 319.697 183.412 318.701C182.527 317.705 182.084 316.387 182.084 314.746V314.619ZM183.9 314.834C183.9 316.006 184.171 316.947 184.711 317.656C185.258 318.366 185.987 318.721 186.898 318.721C187.816 318.721 188.546 318.363 189.086 317.646C189.626 316.924 189.896 315.915 189.896 314.619C189.896 313.46 189.62 312.523 189.066 311.807C188.52 311.084 187.79 310.723 186.879 310.723C185.987 310.723 185.268 311.077 184.721 311.787C184.174 312.497 183.9 313.512 183.9 314.834ZM194.857 320V310.83H193.188V309.434H194.857V308.35C194.857 307.217 195.16 306.341 195.766 305.723C196.371 305.104 197.227 304.795 198.334 304.795C198.751 304.795 199.164 304.85 199.574 304.961L199.477 306.426C199.171 306.367 198.845 306.338 198.5 306.338C197.914 306.338 197.462 306.51 197.143 306.855C196.824 307.194 196.664 307.682 196.664 308.32V309.434H198.92V310.83H196.664V320H194.857ZM214.018 316.289H208.061L206.723 320H204.789L210.219 305.781H211.859L217.299 320H215.375L214.018 316.289ZM208.627 314.746H213.461L211.039 308.096L208.627 314.746ZM223.1 314.326C223.1 315.778 222.908 317.171 222.523 318.506C222.146 319.834 221.563 321.061 220.775 322.188C219.994 323.314 219.174 324.115 218.314 324.59L217.934 323.486C218.936 322.718 219.74 321.527 220.346 319.912C220.958 318.291 221.27 316.494 221.283 314.521V314.209C221.283 312.842 221.14 311.572 220.854 310.4C220.567 309.222 220.167 308.167 219.652 307.236C219.145 306.305 218.572 305.579 217.934 305.059L218.314 303.955C219.174 304.43 219.991 305.225 220.766 306.338C221.547 307.451 222.13 308.678 222.514 310.02C222.904 311.361 223.1 312.796 223.1 314.326ZM234.389 313.291L236.732 309.434H238.842L235.385 314.658L238.949 320H236.859L234.418 316.045L231.977 320H229.877L233.441 314.658L229.984 309.434H232.074L234.389 313.291ZM245.658 314.229C245.658 312.757 245.854 311.344 246.244 309.99C246.641 308.636 247.23 307.406 248.012 306.299C248.793 305.192 249.604 304.411 250.443 303.955L250.814 305.146C249.864 305.876 249.083 306.989 248.471 308.486C247.865 309.984 247.533 311.66 247.475 313.516L247.465 314.346C247.465 316.859 247.924 319.04 248.842 320.889C249.395 321.995 250.053 322.861 250.814 323.486L250.443 324.59C249.577 324.108 248.751 323.301 247.963 322.168C246.426 319.954 245.658 317.308 245.658 314.229ZM256.801 318.721C257.445 318.721 258.008 318.525 258.49 318.135C258.972 317.744 259.239 317.256 259.291 316.67H261C260.967 317.275 260.759 317.852 260.375 318.398C259.991 318.945 259.477 319.382 258.832 319.707C258.194 320.033 257.517 320.195 256.801 320.195C255.362 320.195 254.216 319.717 253.363 318.76C252.517 317.796 252.094 316.481 252.094 314.814V314.512C252.094 313.483 252.283 312.568 252.66 311.768C253.038 310.967 253.578 310.345 254.281 309.902C254.991 309.46 255.827 309.238 256.791 309.238C257.976 309.238 258.959 309.593 259.74 310.303C260.528 311.012 260.948 311.934 261 313.066H259.291C259.239 312.383 258.979 311.823 258.51 311.387C258.048 310.944 257.475 310.723 256.791 310.723C255.873 310.723 255.16 311.055 254.652 311.719C254.151 312.376 253.9 313.33 253.9 314.58V314.922C253.9 316.139 254.151 317.077 254.652 317.734C255.154 318.392 255.87 318.721 256.801 318.721ZM262.553 314.619C262.553 313.584 262.755 312.653 263.158 311.826C263.568 310.999 264.135 310.361 264.857 309.912C265.587 309.463 266.417 309.238 267.348 309.238C268.786 309.238 269.949 309.736 270.834 310.732C271.726 311.729 272.172 313.053 272.172 314.707V314.834C272.172 315.863 271.973 316.787 271.576 317.607C271.186 318.421 270.622 319.056 269.887 319.512C269.158 319.967 268.318 320.195 267.367 320.195C265.935 320.195 264.773 319.697 263.881 318.701C262.995 317.705 262.553 316.387 262.553 314.746V314.619ZM264.369 314.834C264.369 316.006 264.639 316.947 265.18 317.656C265.727 318.366 266.456 318.721 267.367 318.721C268.285 318.721 269.014 318.363 269.555 317.646C270.095 316.924 270.365 315.915 270.365 314.619C270.365 313.46 270.089 312.523 269.535 311.807C268.988 311.084 268.259 310.723 267.348 310.723C266.456 310.723 265.736 311.077 265.189 311.787C264.643 312.497 264.369 313.512 264.369 314.834ZM276.4 320H274.594V305H276.4V320ZM286.742 315.225H288.715V316.699H286.742V320H284.926V316.699H278.451V315.635L284.818 305.781H286.742V315.225ZM280.502 315.225H284.926V308.252L284.711 308.643L280.502 315.225ZM295.014 314.619C295.014 313.584 295.215 312.653 295.619 311.826C296.029 310.999 296.596 310.361 297.318 309.912C298.048 309.463 298.878 309.238 299.809 309.238C301.247 309.238 302.41 309.736 303.295 310.732C304.187 311.729 304.633 313.053 304.633 314.707V314.834C304.633 315.863 304.434 316.787 304.037 317.607C303.646 318.421 303.083 319.056 302.348 319.512C301.618 319.967 300.779 320.195 299.828 320.195C298.396 320.195 297.234 319.697 296.342 318.701C295.456 317.705 295.014 316.387 295.014 314.746V314.619ZM296.83 314.834C296.83 316.006 297.1 316.947 297.641 317.656C298.188 318.366 298.917 318.721 299.828 318.721C300.746 318.721 301.475 318.363 302.016 317.646C302.556 316.924 302.826 315.915 302.826 314.619C302.826 313.46 302.549 312.523 301.996 311.807C301.449 311.084 300.72 310.723 299.809 310.723C298.917 310.723 298.197 311.077 297.65 311.787C297.104 312.497 296.83 313.512 296.83 314.834ZM307.787 320V310.83H306.117V309.434H307.787V308.35C307.787 307.217 308.09 306.341 308.695 305.723C309.301 305.104 310.157 304.795 311.264 304.795C311.68 304.795 312.094 304.85 312.504 304.961L312.406 306.426C312.1 306.367 311.775 306.338 311.43 306.338C310.844 306.338 310.391 306.51 310.072 306.855C309.753 307.194 309.594 307.682 309.594 308.32V309.434H311.85V310.83H309.594V320H307.787ZM319.096 320V305.781H323.744C325.287 305.781 326.446 306.1 327.221 306.738C328.002 307.376 328.393 308.32 328.393 309.57C328.393 310.234 328.204 310.824 327.826 311.338C327.449 311.846 326.934 312.24 326.283 312.52C327.051 312.734 327.657 313.145 328.1 313.75C328.549 314.349 328.773 315.065 328.773 315.898C328.773 317.174 328.36 318.177 327.533 318.906C326.706 319.635 325.538 320 324.027 320H319.096ZM320.971 313.35V318.467H324.066C324.939 318.467 325.626 318.242 326.127 317.793C326.635 317.337 326.889 316.712 326.889 315.918C326.889 314.206 325.958 313.35 324.096 313.35H320.971ZM320.971 311.846H323.803C324.623 311.846 325.277 311.641 325.766 311.23C326.26 310.82 326.508 310.264 326.508 309.561C326.508 308.779 326.28 308.213 325.824 307.861C325.368 307.503 324.675 307.324 323.744 307.324H320.971V311.846ZM335.443 314.326C335.443 315.778 335.251 317.171 334.867 318.506C334.49 319.834 333.907 321.061 333.119 322.188C332.338 323.314 331.518 324.115 330.658 324.59L330.277 323.486C331.28 322.718 332.084 321.527 332.689 319.912C333.301 318.291 333.614 316.494 333.627 314.521V314.209C333.627 312.842 333.484 311.572 333.197 310.4C332.911 309.222 332.51 308.167 331.996 307.236C331.488 306.305 330.915 305.579 330.277 305.059L330.658 303.955C331.518 304.43 332.335 305.225 333.109 306.338C333.891 307.451 334.473 308.678 334.857 310.02C335.248 311.361 335.443 312.796 335.443 314.326Z" fill="#00FFFF"/>
<path d="M299.521 228.434L299.58 229.762C300.387 228.746 301.442 228.238 302.744 228.238C304.977 228.238 306.104 229.498 306.123 232.018V239H304.316V232.008C304.31 231.246 304.134 230.683 303.789 230.318C303.451 229.954 302.92 229.771 302.197 229.771C301.611 229.771 301.097 229.928 300.654 230.24C300.212 230.553 299.867 230.963 299.619 231.471V239H297.812V228.434H299.521ZM317.354 232.291L319.697 228.434H321.807L318.35 233.658L321.914 239H319.824L317.383 235.045L314.941 239H312.842L316.406 233.658L312.949 228.434H315.039L317.354 232.291ZM337.617 233.834C337.617 235.442 337.249 236.738 336.514 237.721C335.778 238.704 334.782 239.195 333.525 239.195C332.243 239.195 331.234 238.788 330.498 237.975V243.062H328.691V228.434H330.342L330.43 229.605C331.165 228.694 332.188 228.238 333.496 228.238C334.766 228.238 335.768 228.717 336.504 229.674C337.246 230.631 337.617 231.962 337.617 233.668V233.834ZM335.811 233.629C335.811 232.438 335.557 231.497 335.049 230.807C334.541 230.117 333.844 229.771 332.959 229.771C331.865 229.771 331.045 230.257 330.498 231.227V236.275C331.038 237.239 331.865 237.721 332.979 237.721C333.844 237.721 334.531 237.379 335.039 236.695C335.553 236.005 335.811 234.983 335.811 233.629Z" fill="#00FFFF"/>
<path d="M491.26 228.434L491.309 229.605C492.083 228.694 493.128 228.238 494.443 228.238C495.921 228.238 496.927 228.805 497.461 229.938C497.812 229.43 498.268 229.02 498.828 228.707C499.395 228.395 500.062 228.238 500.83 228.238C503.148 228.238 504.326 229.465 504.365 231.92V239H502.559V232.027C502.559 231.272 502.386 230.709 502.041 230.338C501.696 229.96 501.117 229.771 500.303 229.771C499.632 229.771 499.076 229.973 498.633 230.377C498.19 230.774 497.933 231.311 497.861 231.988V239H496.045V232.076C496.045 230.54 495.293 229.771 493.789 229.771C492.604 229.771 491.794 230.276 491.357 231.285V239H489.551V228.434H491.26ZM515.605 232.291L517.949 228.434H520.059L516.602 233.658L520.166 239H518.076L515.635 235.045L513.193 239H511.094L514.658 233.658L511.201 228.434H513.291L515.605 232.291ZM535.869 233.834C535.869 235.442 535.501 236.738 534.766 237.721C534.03 238.704 533.034 239.195 531.777 239.195C530.495 239.195 529.486 238.788 528.75 237.975V243.062H526.943V228.434H528.594L528.682 229.605C529.417 228.694 530.439 228.238 531.748 228.238C533.018 228.238 534.02 228.717 534.756 229.674C535.498 230.631 535.869 231.962 535.869 233.668V233.834ZM534.062 233.629C534.062 232.438 533.809 231.497 533.301 230.807C532.793 230.117 532.096 229.771 531.211 229.771C530.117 229.771 529.297 230.257 528.75 231.227V236.275C529.29 237.239 530.117 237.721 531.23 237.721C532.096 237.721 532.783 237.379 533.291 236.695C533.805 236.005 534.062 234.983 534.062 233.629Z" fill="#00FFFF"/>
<path d="M311.92 200V185.781H316.568C318.111 185.781 319.27 186.1 320.045 186.738C320.826 187.376 321.217 188.32 321.217 189.57C321.217 190.234 321.028 190.824 320.65 191.338C320.273 191.846 319.758 192.24 319.107 192.52C319.876 192.734 320.481 193.145 320.924 193.75C321.373 194.349 321.598 195.065 321.598 195.898C321.598 197.174 321.184 198.177 320.357 198.906C319.531 199.635 318.362 200 316.852 200H311.92ZM313.795 193.35V198.467H316.891C317.763 198.467 318.45 198.242 318.951 197.793C319.459 197.337 319.713 196.712 319.713 195.918C319.713 194.206 318.782 193.35 316.92 193.35H313.795ZM313.795 191.846H316.627C317.447 191.846 318.102 191.641 318.59 191.23C319.085 190.82 319.332 190.264 319.332 189.561C319.332 188.779 319.104 188.213 318.648 187.861C318.193 187.503 317.499 187.324 316.568 187.324H313.795V191.846Z" fill="#00FFFF"/>
<path d="M517.096 195.488C516.92 196.992 516.363 198.154 515.426 198.975C514.495 199.788 513.255 200.195 511.705 200.195C510.025 200.195 508.678 199.593 507.662 198.389C506.653 197.184 506.148 195.573 506.148 193.555V192.188C506.148 190.866 506.383 189.704 506.852 188.701C507.327 187.699 507.997 186.93 508.863 186.396C509.729 185.856 510.732 185.586 511.871 185.586C513.382 185.586 514.592 186.009 515.504 186.855C516.415 187.695 516.946 188.861 517.096 190.352H515.211C515.048 189.219 514.693 188.398 514.146 187.891C513.606 187.383 512.848 187.129 511.871 187.129C510.673 187.129 509.732 187.572 509.049 188.457C508.372 189.342 508.033 190.602 508.033 192.236V193.613C508.033 195.156 508.355 196.383 509 197.295C509.645 198.206 510.546 198.662 511.705 198.662C512.747 198.662 513.544 198.428 514.098 197.959C514.658 197.484 515.029 196.66 515.211 195.488H517.096Z" fill="#00FFFF"/>
<path d="M335.109 13.4883C334.934 14.9922 334.377 16.1543 333.439 16.9746C332.508 17.7884 331.268 18.1953 329.719 18.1953C328.039 18.1953 326.691 17.5931 325.676 16.3887C324.667 15.1842 324.162 13.5729 324.162 11.5547V10.1875C324.162 8.86589 324.396 7.70378 324.865 6.70117C325.34 5.69857 326.011 4.93034 326.877 4.39648C327.743 3.85612 328.745 3.58594 329.885 3.58594C331.395 3.58594 332.606 4.00911 333.518 4.85547C334.429 5.69531 334.96 6.86068 335.109 8.35156H333.225C333.062 7.21875 332.707 6.39844 332.16 5.89062C331.62 5.38281 330.861 5.12891 329.885 5.12891C328.687 5.12891 327.746 5.57161 327.062 6.45703C326.385 7.34245 326.047 8.60221 326.047 10.2363V11.6133C326.047 13.1562 326.369 14.3835 327.014 15.2949C327.658 16.2064 328.56 16.6621 329.719 16.6621C330.76 16.6621 331.558 16.4277 332.111 15.959C332.671 15.4837 333.042 14.6602 333.225 13.4883H335.109ZM336.916 12.6191C336.916 11.584 337.118 10.653 337.521 9.82617C337.932 8.99935 338.498 8.36133 339.221 7.91211C339.95 7.46289 340.78 7.23828 341.711 7.23828C343.15 7.23828 344.312 7.73633 345.197 8.73242C346.089 9.72852 346.535 11.0534 346.535 12.707V12.834C346.535 13.8626 346.337 14.7871 345.939 15.6074C345.549 16.4212 344.986 17.056 344.25 17.5117C343.521 17.9674 342.681 18.1953 341.73 18.1953C340.298 18.1953 339.136 17.6973 338.244 16.7012C337.359 15.7051 336.916 14.3867 336.916 12.7461V12.6191ZM338.732 12.834C338.732 14.0059 339.003 14.9466 339.543 15.6562C340.09 16.3659 340.819 16.7207 341.73 16.7207C342.648 16.7207 343.378 16.3626 343.918 15.6465C344.458 14.9238 344.729 13.9147 344.729 12.6191C344.729 11.4603 344.452 10.5228 343.898 9.80664C343.352 9.08398 342.622 8.72266 341.711 8.72266C340.819 8.72266 340.1 9.07747 339.553 9.78711C339.006 10.4967 338.732 11.5124 338.732 12.834ZM350.764 18H348.957V3H350.764V18ZM361.105 13.2246H363.078V14.6992H361.105V18H359.289V14.6992H352.814V13.6348L359.182 3.78125H361.105V13.2246ZM354.865 13.2246H359.289V6.25195L359.074 6.64258L354.865 13.2246Z" fill="#00FFFF"/>
<defs>
<clipPath id="clip0">
<rect width="116.22" height="64.4883" fill="white" transform="translate(87 387)"/>
</clipPath>
</defs>
</svg>
