<svg width="242" height="57" viewBox="0 0 242 57" fill="none" xmlns="http://www.w3.org/2000/svg">
<path d="M3.96936 31.2641C3.15216 32.6417 2.3583 33.1087 1.23757 33.1787C0.980734 33.2021 0.793945 33.2021 0.793945 33.6224C0.793945 33.7624 0.910688 33.8558 1.07413 33.8558C1.4944 33.8558 2.54509 33.8091 2.96537 33.8091C3.64248 33.8091 4.38964 33.8558 5.0434 33.8558C5.18349 33.8558 5.46367 33.8558 5.46367 33.4122C5.46367 33.2021 5.27689 33.1787 5.13679 33.1787C4.59977 33.132 4.15615 32.9452 4.15615 32.3849C4.15615 32.058 4.29624 31.8012 4.59978 31.2875L6.37427 28.3456H12.3282C12.3515 28.5557 12.3515 28.7425 12.3749 28.9526C12.4449 29.5597 12.7251 31.9879 12.7251 32.4316C12.7251 33.132 11.5343 33.1787 11.1607 33.1787C10.9039 33.1787 10.6471 33.1787 10.6471 33.599C10.6471 33.8558 10.8572 33.8558 10.9973 33.8558C11.3942 33.8558 11.8612 33.8091 12.2581 33.8091H13.589C15.0133 33.8091 16.0406 33.8558 16.064 33.8558C16.2274 33.8558 16.4842 33.8558 16.4842 33.4122C16.4842 33.1787 16.2741 33.1787 15.9239 33.1787C14.6397 33.1787 14.6163 32.9686 14.5463 32.2681L13.122 17.6986C13.0753 17.2316 12.9819 17.1849 12.7251 17.1849C12.4916 17.1849 12.3515 17.2316 12.1414 17.5818L3.96936 31.2641ZM6.7712 27.6684L11.4643 19.8233L12.2581 27.6684H6.7712Z" fill="#00FFFF"/>
<path d="M28.2295 24.3763L26.0348 19.2629C26.3383 18.7025 27.0388 18.6092 27.3189 18.5858C27.459 18.5858 27.7159 18.5625 27.7159 18.1655C27.7159 17.9087 27.5057 17.9087 27.3656 17.9087C26.9687 17.9087 26.5017 17.9554 26.1048 17.9554H24.7506C23.3263 17.9554 22.299 17.9087 22.2756 17.9087C22.0889 17.9087 21.8554 17.9087 21.8554 18.3523C21.8554 18.5858 22.0655 18.5858 22.369 18.5858C23.7233 18.5858 23.8167 18.8193 24.0501 19.3797L26.8286 25.8706L21.762 31.2875C20.9214 32.1981 19.9174 33.0853 18.1896 33.1787C17.9094 33.2021 17.7227 33.2021 17.7227 33.6223C17.7227 33.6924 17.746 33.8558 18.0028 33.8558C18.3297 33.8558 18.68 33.8091 19.0068 33.8091H20.1042C20.8514 33.8091 21.6686 33.8558 22.3924 33.8558C22.5558 33.8558 22.836 33.8558 22.836 33.4355C22.836 33.2021 22.6726 33.1787 22.5325 33.1787C22.0655 33.132 21.762 32.8752 21.762 32.5016C21.762 32.1047 22.0422 31.8245 22.7193 31.124L24.7973 28.8592C25.311 28.3222 26.5484 26.968 27.0621 26.4543L29.5137 32.1981C29.5371 32.2448 29.6305 32.4782 29.6305 32.5016C29.6305 32.7117 29.1168 33.132 28.3696 33.1787C28.2295 33.1787 27.9727 33.2021 27.9727 33.6223C27.9727 33.8558 28.2062 33.8558 28.3229 33.8558C28.7199 33.8558 29.1868 33.8091 29.5838 33.8091H32.1521C32.5724 33.8091 33.016 33.8558 33.4129 33.8558C33.5764 33.8558 33.8332 33.8558 33.8332 33.4122C33.8332 33.1787 33.5997 33.1787 33.3896 33.1787C31.9887 33.1554 31.942 33.0386 31.5451 32.1747L28.463 24.9366L31.4283 21.7612C31.6618 21.5277 32.1988 20.944 32.409 20.7105C33.4129 19.6598 34.3469 18.7025 36.2381 18.5858C36.4716 18.5625 36.7051 18.5625 36.7051 18.1655C36.7051 17.9087 36.495 17.9087 36.4016 17.9087C36.0747 17.9087 35.7245 17.9554 35.3976 17.9554H34.3235C33.5764 17.9554 32.7592 17.9087 32.0354 17.9087C31.8719 17.9087 31.5918 17.9087 31.5918 18.329C31.5918 18.5625 31.7552 18.5858 31.8953 18.5858C32.2689 18.6325 32.6658 18.8193 32.6658 19.2629L32.6424 19.3096C32.6191 19.4731 32.5724 19.7065 32.3156 19.9867L28.2295 24.3763Z" fill="#00FFFF"/>
<path d="M59.447 26.3609C59.7972 26.3609 60.1474 26.3609 60.1474 25.964C60.1474 25.5437 59.7505 25.5437 59.3536 25.5437H46.3017C45.9047 25.5437 45.5078 25.5437 45.5078 25.964C45.5078 26.3609 45.858 26.3609 46.2083 26.3609H59.447ZM59.3536 30.517C59.7505 30.517 60.1474 30.517 60.1474 30.0967C60.1474 29.6998 59.7972 29.6998 59.447 29.6998H46.2083C45.858 29.6998 45.5078 29.6998 45.5078 30.0967C45.5078 30.517 45.9047 30.517 46.3017 30.517H59.3536Z" fill="#00FFFF"/>
<path d="M73.5635 56.0134H79.7042V54.7292H74.8477V1.28418H79.7042V0H73.5635V56.0134Z" fill="#00FFFF"/>
<path d="M86.2605 4.65545C86.2605 4.16513 86.2371 4.14178 85.9102 4.14178C84.9996 5.23917 83.6221 5.5894 82.3145 5.6361C82.2445 5.6361 82.1278 5.6361 82.1044 5.68279C82.0811 5.72949 82.0811 5.77619 82.0811 6.26651C82.8049 6.26651 84.019 6.12642 84.9529 5.56605V17.8708C84.9529 18.688 84.9062 18.9682 82.8983 18.9682H82.1978V19.5752C83.3185 19.5519 84.486 19.5285 85.6067 19.5285C86.7274 19.5285 87.8949 19.5519 89.0156 19.5752V18.9682H88.3151C86.3072 18.9682 86.2605 18.7113 86.2605 17.8708V4.65545Z" fill="#00FFFF"/>
<path d="M107.176 11.6367C109.254 11.6367 110.164 13.4345 110.164 15.5126C110.164 18.3144 108.67 19.3885 107.316 19.3885C106.078 19.3885 104.07 18.7814 103.44 16.9835C103.557 17.0302 103.673 17.0302 103.79 17.0302C104.35 17.0302 104.771 16.6567 104.771 16.0496C104.771 15.3725 104.257 15.069 103.79 15.069C103.393 15.069 102.786 15.2557 102.786 16.1196C102.786 18.2677 104.888 19.9488 107.362 19.9488C109.954 19.9488 111.939 17.9175 111.939 15.5359C111.939 13.2711 110.071 11.6367 107.853 11.3799C109.627 11.0063 111.332 9.41858 111.332 7.29385C111.332 5.47266 109.487 4.14178 107.386 4.14178C105.261 4.14178 103.393 5.44931 103.393 7.3172C103.393 8.1344 104 8.27449 104.304 8.27449C104.794 8.27449 105.214 7.97096 105.214 7.3639C105.214 6.75683 104.794 6.4533 104.304 6.4533C104.21 6.4533 104.094 6.4533 104 6.5C104.677 4.95899 106.522 4.6788 107.339 4.6788C108.156 4.6788 109.697 5.07573 109.697 7.3172C109.697 7.97096 109.604 9.13839 108.81 10.1657C108.11 11.0763 107.316 11.123 106.545 11.1931C106.429 11.1931 105.892 11.2398 105.798 11.2398C105.635 11.2631 105.541 11.2865 105.541 11.4499C105.541 11.6134 105.565 11.6367 106.032 11.6367H107.176Z" fill="#00FFFF"/>
<path d="M89.7859 44.1007H89.3657C89.1322 45.7584 88.9454 46.0386 88.852 46.1787C88.7352 46.3655 87.0541 46.3655 86.7273 46.3655H82.2443C83.0849 45.4549 84.7193 43.7971 86.7039 41.8825C88.1282 40.5283 89.7859 38.9406 89.7859 36.6291C89.7859 33.874 87.5912 32.2863 85.1395 32.2863C82.5712 32.2863 81.0068 34.5511 81.0068 36.6525C81.0068 37.563 81.6839 37.6798 81.9641 37.6798C82.1976 37.6798 82.8981 37.5397 82.8981 36.7225C82.8981 35.9987 82.291 35.7886 81.9641 35.7886C81.824 35.7886 81.6839 35.8119 81.5906 35.8586C82.0342 33.874 83.3884 32.8933 84.8127 32.8933C86.844 32.8933 88.1749 34.5044 88.1749 36.6291C88.1749 38.6604 86.9841 40.4116 85.6532 41.9292L81.0068 47.1827V47.7197H89.2256L89.7859 44.1007Z" fill="#00FFFF"/>
<path d="M104.491 39.6644C104.491 34.0841 107.106 32.8233 108.624 32.8233C109.114 32.8233 110.305 32.9167 110.772 33.8273C110.398 33.8273 109.698 33.8273 109.698 34.6445C109.698 35.2749 110.211 35.485 110.538 35.485C110.748 35.485 111.379 35.3916 111.379 34.5978C111.379 33.1268 110.211 32.2863 108.6 32.2863C105.822 32.2863 102.903 35.1815 102.903 40.3415C102.903 46.6924 105.542 48.0933 107.41 48.0933C109.674 48.0933 111.823 46.062 111.823 42.9332C111.823 40.0147 109.931 37.8899 107.55 37.8899C106.125 37.8899 105.075 38.8239 104.491 40.4583V39.6644ZM107.41 47.5329C104.538 47.5329 104.538 43.2368 104.538 42.3729C104.538 40.6918 105.332 38.2635 107.503 38.2635C107.9 38.2635 109.044 38.2635 109.815 39.8746C110.235 40.7852 110.235 41.7425 110.235 42.9099C110.235 44.1707 110.235 45.1047 109.744 46.0386C109.231 46.9959 108.484 47.5329 107.41 47.5329Z" fill="#00FFFF"/>
<path d="M117.907 54.7292H113.051V56.0134H119.191V0H113.051V1.28418H117.907V54.7292Z" fill="#00FFFF"/>
<path d="M134.775 56.0134H140.916V54.7292H136.06V1.28418H140.916V0H134.775V56.0134Z" fill="#00FFFF"/>
<path d="M155.501 11.6367C157.579 11.6367 158.49 13.4345 158.49 15.5126C158.49 18.3144 156.995 19.3885 155.641 19.3885C154.403 19.3885 152.396 18.7814 151.765 16.9835C151.882 17.0302 151.999 17.0302 152.115 17.0302C152.676 17.0302 153.096 16.6567 153.096 16.0496C153.096 15.3725 152.582 15.069 152.115 15.069C151.718 15.069 151.111 15.2557 151.111 16.1196C151.111 18.2677 153.213 19.9488 155.688 19.9488C158.279 19.9488 160.264 17.9175 160.264 15.5359C160.264 13.2711 158.396 11.6367 156.178 11.3799C157.952 11.0063 159.657 9.41858 159.657 7.29385C159.657 5.47266 157.812 4.14178 155.711 4.14178C153.586 4.14178 151.718 5.44931 151.718 7.3172C151.718 8.1344 152.325 8.27449 152.629 8.27449C153.119 8.27449 153.54 7.97096 153.54 7.3639C153.54 6.75683 153.119 6.4533 152.629 6.4533C152.536 6.4533 152.419 6.4533 152.325 6.5C153.003 4.95899 154.847 4.6788 155.664 4.6788C156.482 4.6788 158.023 5.07573 158.023 7.3172C158.023 7.97096 157.929 9.13839 157.135 10.1657C156.435 11.0763 155.641 11.123 154.87 11.1931C154.754 11.1931 154.217 11.2398 154.123 11.2398C153.96 11.2631 153.866 11.2865 153.866 11.4499C153.866 11.6134 153.89 11.6367 154.357 11.6367H155.501Z" fill="#00FFFF"/>
<path d="M156.648 42.3495C157.045 42.3495 157.465 42.3495 157.465 41.8826C157.465 41.4156 157.045 41.4156 156.648 41.4156H144.016C143.619 41.4156 143.199 41.4156 143.199 41.8826C143.199 42.3495 143.619 42.3495 144.016 42.3495H156.648Z" fill="#00FFFF"/>
<path d="M165.632 32.7999C165.632 32.3096 165.608 32.2863 165.281 32.2863C164.371 33.3836 162.993 33.7339 161.686 33.7806C161.616 33.7806 161.499 33.7806 161.475 33.8273C161.452 33.874 161.452 33.9207 161.452 34.411C162.176 34.411 163.39 34.2709 164.324 33.7105V46.0153C164.324 46.8325 164.277 47.1126 162.269 47.1126H161.569V47.7197C162.69 47.6964 163.857 47.673 164.978 47.673C166.099 47.673 167.266 47.6964 168.387 47.7197V47.1126H167.686C165.678 47.1126 165.632 46.8558 165.632 46.0153V32.7999Z" fill="#00FFFF"/>
<path d="M175.313 54.7292H170.456V56.0134H176.597V0H170.456V1.28418H175.313V54.7292Z" fill="#00FFFF"/>
<path d="M203.951 26.3609C204.301 26.3609 204.651 26.3609 204.651 25.964C204.651 25.5437 204.254 25.5437 203.857 25.5437H190.806C190.409 25.5437 190.012 25.5437 190.012 25.964C190.012 26.3609 190.362 26.3609 190.712 26.3609H203.951ZM203.857 30.517C204.254 30.517 204.651 30.517 204.651 30.0967C204.651 29.6998 204.301 29.6998 203.951 29.6998H190.712C190.362 29.6998 190.012 29.6998 190.012 30.0967C190.012 30.517 190.409 30.517 190.806 30.517H203.857Z" fill="#00FFFF"/>
<path d="M218.068 56.0134H224.209V54.7292H219.353V1.28418H224.209V0H218.068V56.0134Z" fill="#00FFFF"/>
<path d="M234.361 12.0803C234.361 10.6561 234.337 8.2278 233.357 6.3599C232.493 4.7255 231.115 4.14178 229.901 4.14178C228.78 4.14178 227.356 4.65545 226.469 6.33656C225.535 8.08771 225.441 10.2591 225.441 12.0803C225.441 13.4112 225.465 15.4425 226.189 17.217C227.193 19.6219 228.99 19.9488 229.901 19.9488C230.975 19.9488 232.609 19.5052 233.567 17.2871C234.267 15.676 234.361 13.7848 234.361 12.0803ZM229.901 19.5752C228.407 19.5752 227.519 18.2911 227.193 16.5166C226.936 15.139 226.936 13.131 226.936 11.8235C226.936 10.0256 226.936 8.53133 227.239 7.10706C227.683 5.12243 228.99 4.51536 229.901 4.51536C230.858 4.51536 232.096 5.14578 232.539 7.06036C232.843 8.39124 232.866 9.9556 232.866 11.8235C232.866 13.3412 232.866 15.209 232.586 16.5866C232.096 19.1316 230.718 19.5752 229.901 19.5752Z" fill="#00FFFF"/>
<path d="M234.361 40.2248C234.361 38.8005 234.337 36.3723 233.357 34.5044C232.493 32.87 231.115 32.2863 229.901 32.2863C228.78 32.2863 227.356 32.7999 226.469 34.481C225.535 36.2322 225.441 38.4036 225.441 40.2248C225.441 41.5557 225.465 43.587 226.189 45.3615C227.193 47.7664 228.99 48.0933 229.901 48.0933C230.975 48.0933 232.609 47.6497 233.567 45.4315C234.267 43.8205 234.361 41.9292 234.361 40.2248ZM229.901 47.7197C228.407 47.7197 227.519 46.4355 227.193 44.661C226.936 43.2835 226.936 41.2755 226.936 39.968C226.936 38.1701 226.936 36.6758 227.239 35.2515C227.683 33.2669 228.99 32.6598 229.901 32.6598C230.858 32.6598 232.096 33.2902 232.539 35.2048C232.843 36.5357 232.866 38.1001 232.866 39.968C232.866 41.4856 232.866 43.3535 232.586 44.7311C232.096 47.2761 230.718 47.7197 229.901 47.7197Z" fill="#00FFFF"/>
<path d="M240.445 54.7292H235.589V56.0134H241.73V0H235.589V1.28418H240.445V54.7292Z" fill="#00FFFF"/>
</svg>
