<svg width="155" height="21" viewBox="0 0 155 21" fill="none" xmlns="http://www.w3.org/2000/svg">
<g clip-path="url(#clip0)">
<path d="M3.96936 17.8292C3.15216 19.2068 2.3583 19.6738 1.23757 19.7438C0.980734 19.7672 0.793945 19.7672 0.793945 20.1874C0.793945 20.3275 0.910688 20.4209 1.07413 20.4209C1.4944 20.4209 2.54509 20.3742 2.96537 20.3742C3.64248 20.3742 4.38964 20.4209 5.0434 20.4209C5.18349 20.4209 5.46367 20.4209 5.46367 19.9773C5.46367 19.7672 5.27689 19.7438 5.13679 19.7438C4.59977 19.6971 4.15615 19.5103 4.15615 18.95C4.15615 18.6231 4.29624 18.3663 4.59978 17.8526L6.37427 14.9107H12.3282C12.3515 15.1208 12.3515 15.3076 12.3749 15.5177C12.4449 16.1248 12.7251 18.553 12.7251 18.9967C12.7251 19.6971 11.5343 19.7438 11.1607 19.7438C10.9039 19.7438 10.6471 19.7438 10.6471 20.1641C10.6471 20.4209 10.8572 20.4209 10.9973 20.4209C11.3942 20.4209 11.8612 20.3742 12.2581 20.3742H13.589C15.0133 20.3742 16.0406 20.4209 16.064 20.4209C16.2274 20.4209 16.4842 20.4209 16.4842 19.9773C16.4842 19.7438 16.2741 19.7438 15.9239 19.7438C14.6397 19.7438 14.6163 19.5337 14.5463 18.8332L13.122 4.26367C13.0753 3.7967 12.9819 3.75 12.7251 3.75C12.4916 3.75 12.3515 3.7967 12.1414 4.14693L3.96936 17.8292ZM6.7712 14.2335L11.4643 6.3884L12.2581 14.2335H6.7712Z" fill="#00FFFF"/>
<path d="M27.822 7.05189C28.0976 7.05189 28.3894 7.05189 28.3894 6.72767C28.3894 6.40344 28.0976 6.40344 27.822 6.40344H19.0518C18.7762 6.40344 18.4844 6.40344 18.4844 6.72767C18.4844 7.05189 18.7762 7.05189 19.0518 7.05189H27.822Z" fill="#00FFFF"/>
<path d="M34.4163 0.389069C34.4163 0.0162108 34.4163 0 34.092 0C33.703 0.437702 32.8924 1.03752 31.2227 1.03752V1.50764C31.5955 1.50764 32.4061 1.50764 33.2977 1.08615V9.53219C33.2977 10.1158 33.2491 10.3103 31.8225 10.3103H31.3199V10.7804C31.7576 10.748 33.3301 10.748 33.8651 10.748C34.4001 10.748 35.9563 10.748 36.394 10.7804V10.3103H35.8915C34.4649 10.3103 34.4163 10.1158 34.4163 9.53219V0.389069Z" fill="#00FFFF"/>
<path d="M42.2164 17.8292C41.3992 19.2068 40.6054 19.6738 39.4846 19.7438C39.2278 19.7672 39.041 19.7672 39.041 20.1874C39.041 20.3275 39.1578 20.4209 39.3212 20.4209C39.7415 20.4209 40.7922 20.3742 41.2124 20.3742C41.8896 20.3742 42.6367 20.4209 43.2905 20.4209C43.4306 20.4209 43.7107 20.4209 43.7107 19.9773C43.7107 19.7672 43.524 19.7438 43.3839 19.7438C42.8468 19.6971 42.4032 19.5103 42.4032 18.95C42.4032 18.6231 42.5433 18.3663 42.8468 17.8526L44.6213 14.9107H50.5752C50.5986 15.1208 50.5986 15.3076 50.6219 15.5177C50.692 16.1248 50.9722 18.553 50.9722 18.9967C50.9722 19.6971 49.7814 19.7438 49.4078 19.7438C49.151 19.7438 48.8941 19.7438 48.8941 20.1641C48.8941 20.4209 49.1043 20.4209 49.2444 20.4209C49.6413 20.4209 50.1083 20.3742 50.5052 20.3742H51.8361C53.2603 20.3742 54.2877 20.4209 54.311 20.4209C54.4745 20.4209 54.7313 20.4209 54.7313 19.9773C54.7313 19.7438 54.5212 19.7438 54.1709 19.7438C52.8868 19.7438 52.8634 19.5337 52.7934 18.8332L51.3691 4.26367C51.3224 3.7967 51.229 3.75 50.9722 3.75C50.7387 3.75 50.5986 3.7967 50.3885 4.14693L42.2164 17.8292ZM45.0183 14.2335L49.7113 6.3884L50.5052 14.2335H45.0183Z" fill="#00FFFF"/>
<path d="M66.4756 10.9414L64.2809 5.82804C64.5844 5.26767 65.2849 5.17428 65.565 5.15093C65.7051 5.15093 65.962 5.12758 65.962 4.73065C65.962 4.47382 65.7518 4.47382 65.6117 4.47382C65.2148 4.47382 64.7478 4.52051 64.3509 4.52051H62.9967C61.5724 4.52051 60.5451 4.47382 60.5217 4.47382C60.3349 4.47382 60.1015 4.47382 60.1015 4.91744C60.1015 5.15093 60.3116 5.15093 60.6151 5.15093C61.9694 5.15093 62.0627 5.38441 62.2962 5.94478L65.0747 12.4357L60.0081 17.8526C59.1675 18.7632 58.1635 19.6504 56.4357 19.7438C56.1555 19.7672 55.9688 19.7672 55.9688 20.1875C55.9688 20.2575 55.9921 20.4209 56.2489 20.4209C56.5758 20.4209 56.926 20.3742 57.2529 20.3742H58.3503C59.0975 20.3742 59.9147 20.4209 60.6385 20.4209C60.8019 20.4209 61.0821 20.4209 61.0821 20.0007C61.0821 19.7672 60.9187 19.7438 60.7786 19.7438C60.3116 19.6971 60.0081 19.4403 60.0081 19.0667C60.0081 18.6698 60.2882 18.3896 60.9654 17.6892L63.0434 15.4243C63.5571 14.8873 64.7945 13.5331 65.3082 13.0194L67.7598 18.7632C67.7832 18.8099 67.8766 19.0434 67.8766 19.0667C67.8766 19.2769 67.3629 19.6971 66.6157 19.7438C66.4756 19.7438 66.2188 19.7672 66.2188 20.1875C66.2188 20.4209 66.4523 20.4209 66.569 20.4209C66.966 20.4209 67.4329 20.3742 67.8299 20.3742H70.3982C70.8185 20.3742 71.2621 20.4209 71.659 20.4209C71.8225 20.4209 72.0793 20.4209 72.0793 19.9773C72.0793 19.7438 71.8458 19.7438 71.6357 19.7438C70.2348 19.7205 70.1881 19.6037 69.7911 18.7398L66.7091 11.5018L69.6744 8.32634C69.9079 8.09286 70.4449 7.50914 70.6551 7.27565C71.659 6.22496 72.593 5.26767 74.4842 5.15093C74.7177 5.12758 74.9512 5.12758 74.9512 4.73065C74.9512 4.47382 74.7411 4.47382 74.6477 4.47382C74.3208 4.47382 73.9706 4.52051 73.6437 4.52051H72.5696C71.8225 4.52051 71.0053 4.47382 70.2815 4.47382C70.118 4.47382 69.8378 4.47382 69.8378 4.89409C69.8378 5.12758 70.0013 5.15093 70.1414 5.15093C70.515 5.19762 70.9119 5.38441 70.9119 5.82804L70.8885 5.87473C70.8652 6.03818 70.8185 6.27166 70.5617 6.55185L66.4756 10.9414Z" fill="#00FFFF"/>
<path d="M97.694 12.926C98.0443 12.926 98.3945 12.926 98.3945 12.5291C98.3945 12.1088 97.9976 12.1088 97.6006 12.1088H84.5487C84.1518 12.1088 83.7549 12.1088 83.7549 12.5291C83.7549 12.926 84.1051 12.926 84.4553 12.926H97.694ZM97.6006 17.0821C97.9976 17.0821 98.3945 17.0821 98.3945 16.6618C98.3945 16.2649 98.0443 16.2649 97.694 16.2649H84.4553C84.1051 16.2649 83.7549 16.2649 83.7549 16.6618C83.7549 17.0821 84.1518 17.0821 84.5487 17.0821H97.6006Z" fill="#00FFFF"/>
<path d="M109.943 17.8292C109.126 19.2068 108.332 19.6738 107.211 19.7438C106.954 19.7672 106.768 19.7672 106.768 20.1874C106.768 20.3275 106.884 20.4209 107.048 20.4209C107.468 20.4209 108.519 20.3742 108.939 20.3742C109.616 20.3742 110.363 20.4209 111.017 20.4209C111.157 20.4209 111.437 20.4209 111.437 19.9773C111.437 19.7672 111.251 19.7438 111.11 19.7438C110.573 19.6971 110.13 19.5103 110.13 18.95C110.13 18.6231 110.27 18.3663 110.573 17.8526L112.348 14.9107H118.302C118.325 15.1208 118.325 15.3076 118.349 15.5177C118.419 16.1248 118.699 18.553 118.699 18.9967C118.699 19.6971 117.508 19.7438 117.134 19.7438C116.878 19.7438 116.621 19.7438 116.621 20.1641C116.621 20.4209 116.831 20.4209 116.971 20.4209C117.368 20.4209 117.835 20.3742 118.232 20.3742H119.563C120.987 20.3742 122.014 20.4209 122.038 20.4209C122.201 20.4209 122.458 20.4209 122.458 19.9773C122.458 19.7438 122.248 19.7438 121.898 19.7438C120.613 19.7438 120.59 19.5337 120.52 18.8332L119.096 4.26367C119.049 3.7967 118.956 3.75 118.699 3.75C118.465 3.75 118.325 3.7967 118.115 4.14693L109.943 17.8292ZM112.745 14.2335L117.438 6.3884L118.232 14.2335H112.745Z" fill="#00FFFF"/>
<path d="M133.795 7.05189C134.07 7.05189 134.362 7.05189 134.362 6.72767C134.362 6.40344 134.07 6.40344 133.795 6.40344H125.024C124.749 6.40344 124.457 6.40344 124.457 6.72767C124.457 7.05189 124.749 7.05189 125.024 7.05189H133.795Z" fill="#00FFFF"/>
<path d="M140.39 0.389069C140.39 0.0162108 140.39 0 140.066 0C139.677 0.437702 138.866 1.03752 137.196 1.03752V1.50764C137.569 1.50764 138.38 1.50764 139.271 1.08615V9.53219C139.271 10.1158 139.223 10.3103 137.796 10.3103H137.294V10.7804C137.731 10.748 139.304 10.748 139.839 10.748C140.374 10.748 141.93 10.748 142.368 10.7804V10.3103H141.865C140.439 10.3103 140.39 10.1158 140.39 9.53219V0.389069Z" fill="#00FFFF"/>
<path d="M154.027 12.926C154.027 11.5018 154.003 9.0735 153.023 7.20561C152.159 5.5712 150.781 4.98749 149.567 4.98749C148.446 4.98749 147.022 5.50116 146.135 7.18226C145.201 8.93341 145.107 11.1048 145.107 12.926C145.107 14.2569 145.131 16.2882 145.855 18.0627C146.859 20.4676 148.656 20.7945 149.567 20.7945C150.641 20.7945 152.275 20.3509 153.233 18.1328C153.933 16.5217 154.027 14.6305 154.027 12.926ZM149.567 20.4209C148.073 20.4209 147.185 19.1368 146.859 17.3623C146.602 15.9847 146.602 13.9767 146.602 12.6692C146.602 10.8713 146.602 9.37703 146.905 7.95277C147.349 5.96813 148.656 5.36107 149.567 5.36107C150.524 5.36107 151.762 5.99148 152.205 7.90607C152.509 9.23694 152.532 10.8013 152.532 12.6692C152.532 14.1869 152.532 16.0547 152.252 17.4323C151.762 19.9773 150.384 20.4209 149.567 20.4209Z" fill="#00FFFF"/>
</g>
<defs>
<clipPath id="clip0">
<rect width="154.026" height="20.7945" fill="white"/>
</clipPath>
</defs>
</svg>
