<svg width="197" height="81" viewBox="0 0 197 81" fill="none" xmlns="http://www.w3.org/2000/svg">
<path d="M0 56.0134H6.14069V54.7292H1.28418V1.28418H6.14069V0H0V56.0134Z" fill="#00FFFF"/>
<path d="M12.697 4.65551C12.697 4.16519 12.6736 4.14185 12.3468 4.14185C11.4362 5.23923 10.0586 5.58946 8.75107 5.63616C8.68102 5.63616 8.56428 5.63616 8.54093 5.68286C8.51758 5.72955 8.51758 5.77625 8.51758 6.26657C9.24139 6.26657 10.4555 6.12648 11.3895 5.56611V17.8709C11.3895 18.6881 11.3428 18.9682 9.33478 18.9682H8.63432V19.5753C9.75506 19.552 10.9225 19.5286 12.0432 19.5286C13.164 19.5286 14.3314 19.552 15.4521 19.5753V18.9682H14.7517C12.7437 18.9682 12.697 18.7114 12.697 17.8709V4.65551Z" fill="#00FFFF"/>
<path d="M33.6122 11.6368C35.6902 11.6368 36.6008 13.4346 36.6008 15.5126C36.6008 18.3145 35.1065 19.3885 33.7523 19.3885C32.5148 19.3885 30.5068 18.7814 29.8764 16.9836C29.9932 17.0303 30.1099 17.0303 30.2266 17.0303C30.787 17.0303 31.2073 16.6567 31.2073 16.0497C31.2073 15.3725 30.6936 15.069 30.2266 15.069C29.8297 15.069 29.2227 15.2558 29.2227 16.1197C29.2227 18.2678 31.324 19.9489 33.799 19.9489C36.3907 19.9489 38.3753 17.9175 38.3753 15.536C38.3753 13.2712 36.5074 11.6368 34.2893 11.3799C36.0638 11.0063 37.7683 9.41864 37.7683 7.29391C37.7683 5.47272 35.9237 4.14185 33.8223 4.14185C31.6976 4.14185 29.8297 5.44937 29.8297 7.31726C29.8297 8.13446 30.4368 8.27456 30.7403 8.27456C31.2306 8.27456 31.6509 7.97102 31.6509 7.36396C31.6509 6.75689 31.2306 6.45336 30.7403 6.45336C30.6469 6.45336 30.5302 6.45336 30.4368 6.50006C31.1139 4.95905 32.9584 4.67886 33.7756 4.67886C34.5928 4.67886 36.1339 5.07579 36.1339 7.31726C36.1339 7.97102 36.0405 9.13846 35.2466 10.1658C34.5461 11.0764 33.7523 11.1231 32.9818 11.1931C32.865 11.1931 32.328 11.2398 32.2346 11.2398C32.0712 11.2632 31.9778 11.2865 31.9778 11.45C31.9778 11.6134 32.0011 11.6368 32.4681 11.6368H33.6122Z" fill="#00FFFF"/>
<path d="M16.2225 44.1007H15.8022C15.5687 45.7584 15.3819 46.0386 15.2885 46.1787C15.1718 46.3655 13.4907 46.3655 13.1638 46.3655H8.68084C9.52139 45.4549 11.1558 43.7971 13.1404 41.8825C14.5647 40.5283 16.2225 38.9406 16.2225 36.6291C16.2225 33.874 14.0277 32.2863 11.5761 32.2863C9.00772 32.2863 7.44336 34.5511 7.44336 36.6525C7.44336 37.563 8.12047 37.6798 8.40065 37.6798C8.63414 37.6798 9.3346 37.5397 9.3346 36.7225C9.3346 35.9987 8.72754 35.7886 8.40065 35.7886C8.26056 35.7886 8.12047 35.8119 8.02708 35.8586C8.4707 33.874 9.82492 32.8933 11.2492 32.8933C13.2805 32.8933 14.6114 34.5044 14.6114 36.6291C14.6114 38.6604 13.4206 40.4116 12.0897 41.9292L7.44336 47.1827V47.7197H15.6621L16.2225 44.1007Z" fill="#00FFFF"/>
<path d="M38.9816 33.1735V32.6599H33.4947C30.7629 32.6599 30.7162 32.3563 30.6228 31.9127H30.2025L29.5254 36.2789H29.9457C30.0157 35.8353 30.1792 34.6445 30.4593 34.2009C30.5994 34.0141 32.3272 34.0141 32.7242 34.0141H37.8609L35.2692 37.8666C33.5414 40.4583 32.3506 43.9606 32.3506 47.0193C32.3506 47.2995 32.3506 48.0933 33.1911 48.0933C34.0317 48.0933 34.0317 47.2995 34.0317 46.9959V45.9219C34.0317 42.0927 34.6854 39.5711 35.7595 37.96L38.9816 33.1735Z" fill="#00FFFF"/>
<path d="M44.3428 54.7292H39.4863V56.0134H45.627V0H39.4863V1.28418H44.3428V54.7292Z" fill="#00FFFF"/>
<path d="M61.2109 56.0134H67.3516V54.7292H62.4951V1.28418H67.3516V0H61.2109V56.0134Z" fill="#00FFFF"/>
<path d="M74.7249 16.7967C74.6081 17.1936 74.6081 17.2403 74.2812 17.684C73.7676 18.3377 72.7402 19.3417 71.6428 19.3417C70.6855 19.3417 70.1485 18.4778 70.1485 17.1002C70.1485 15.8161 70.8723 13.201 71.316 12.2204C72.1098 10.586 73.2072 9.74542 74.1178 9.74542C75.6588 9.74542 75.9623 11.66 75.9623 11.8468C75.9623 11.8701 75.8923 12.1737 75.8689 12.2204L74.7249 16.7967ZM76.2192 10.8195C75.9623 10.2124 75.3319 9.27844 74.1178 9.27844C71.4794 9.27844 68.6309 12.6873 68.6309 16.1429C68.6309 18.4545 69.9851 19.8087 71.5728 19.8087C72.857 19.8087 73.9544 18.8047 74.6081 18.0342C74.8416 19.4118 75.939 19.8087 76.6394 19.8087C77.3399 19.8087 77.9003 19.3884 78.3205 18.5479C78.6941 17.754 79.021 16.3297 79.021 16.2363C79.021 16.1196 78.9276 16.0262 78.7875 16.0262C78.5774 16.0262 78.554 16.1429 78.4606 16.4932C78.1104 17.8707 77.6668 19.3417 76.7095 19.3417C76.0324 19.3417 75.9857 18.7346 75.9857 18.2677C75.9857 17.7307 76.0557 17.4738 76.2659 16.5632C76.4293 15.9795 76.5461 15.4658 76.7328 14.7887C77.5967 11.2864 77.8069 10.4459 77.8069 10.3058C77.8069 9.9789 77.55 9.72207 77.1998 9.72207C76.4527 9.72207 76.2659 10.5393 76.2192 10.8195Z" fill="#00FFFF"/>
<path d="M101.106 10.7961C100.662 10.7961 100.452 10.7961 100.125 11.0763C99.9848 11.193 99.728 11.5433 99.728 11.9168C99.728 12.3838 100.078 12.664 100.522 12.664C101.082 12.664 101.713 12.197 101.713 11.2631C101.713 10.1423 100.639 9.27844 99.0275 9.27844C95.9688 9.27844 92.9102 12.6173 92.9102 15.9328C92.9102 17.9641 94.171 19.8087 96.5525 19.8087C99.728 19.8087 101.736 17.3337 101.736 17.0302C101.736 16.8901 101.596 16.7734 101.502 16.7734C101.432 16.7734 101.409 16.7967 101.199 17.0068C99.7046 18.9915 97.4865 19.3417 96.5992 19.3417C94.9882 19.3417 94.4745 17.9408 94.4745 16.7734C94.4745 15.9562 94.8714 13.6913 95.712 12.1036C96.3191 11.0062 97.5799 9.74542 99.0509 9.74542C99.3544 9.74542 100.639 9.79211 101.106 10.7961Z" fill="#00FFFF"/>
<path d="M74.2315 32.0995C74.2549 32.0061 74.3016 31.866 74.3016 31.7492C74.3016 31.5157 74.0681 31.5157 74.0214 31.5157C73.998 31.5157 73.1575 31.5858 72.7372 31.6325C72.3403 31.6558 71.9901 31.7025 71.5698 31.7259C71.0094 31.7726 70.846 31.7959 70.846 32.2162C70.846 32.4497 71.0795 32.4497 71.3129 32.4497C72.5037 32.4497 72.5037 32.6598 72.5037 32.8933C72.5037 33.0568 72.3169 33.7339 72.2235 34.1541L71.6632 36.3956C71.4297 37.3296 70.0988 42.6297 70.0054 43.05C69.8887 43.6337 69.8887 44.0306 69.8887 44.3342C69.8887 46.7157 71.2195 47.9532 72.7372 47.9532C75.4457 47.9532 78.2475 44.4742 78.2475 41.0887C78.2475 38.9406 77.0334 37.423 75.2822 37.423C74.0681 37.423 72.9707 38.4269 72.5271 38.8939L74.2315 32.0995ZM72.7606 47.4862C72.0134 47.4862 71.1962 46.9259 71.1962 45.1047C71.1962 44.3342 71.2662 43.8905 71.6865 42.2561C71.7566 41.9526 72.1301 40.4583 72.2235 40.1547C72.2702 39.968 73.6478 37.8899 75.2355 37.8899C76.2629 37.8899 76.7298 38.9173 76.7298 40.1314C76.7298 41.2521 76.0761 43.8905 75.4923 45.1047C74.9086 46.3655 73.8346 47.4862 72.7606 47.4862Z" fill="#00FFFF"/>
<path d="M102.7 32.0995C102.723 32.0061 102.77 31.866 102.77 31.7492C102.77 31.5157 102.537 31.5157 102.49 31.5157C102.467 31.5157 101.323 31.6091 101.206 31.6325C100.809 31.6558 100.459 31.7025 100.038 31.7259C99.4546 31.7726 99.2912 31.7959 99.2912 32.2162C99.2912 32.4497 99.478 32.4497 99.8048 32.4497C100.949 32.4497 100.972 32.6598 100.972 32.8933C100.972 33.0334 100.926 33.2202 100.902 33.2902L99.478 38.964C99.2211 38.3569 98.5907 37.423 97.3766 37.423C94.7382 37.423 91.8896 40.8319 91.8896 44.2875C91.8896 46.599 93.2439 47.9532 94.8316 47.9532C96.1158 47.9532 97.2131 46.9492 97.8669 46.1787C98.1004 47.5563 99.1978 47.9532 99.8982 47.9532C100.599 47.9532 101.159 47.5329 101.579 46.6924C101.953 45.8985 102.28 44.4742 102.28 44.3809C102.28 44.2641 102.186 44.1707 102.046 44.1707C101.836 44.1707 101.813 44.2875 101.719 44.6377C101.369 46.0153 100.926 47.4862 99.9683 47.4862C99.2912 47.4862 99.2445 46.8792 99.2445 46.4122C99.2445 46.3188 99.2445 45.8285 99.4079 45.1747L102.7 32.0995ZM97.9836 44.9412C97.8669 45.3381 97.8669 45.3848 97.54 45.8285C97.0264 46.4822 95.999 47.4862 94.9016 47.4862C93.9443 47.4862 93.4073 46.6223 93.4073 45.2448C93.4073 43.9606 94.1311 41.3455 94.5747 40.3649C95.3686 38.7305 96.466 37.8899 97.3766 37.8899C98.9176 37.8899 99.2211 39.8045 99.2211 39.9913C99.2211 40.0147 99.1511 40.3182 99.1277 40.3649L97.9836 44.9412Z" fill="#00FFFF"/>
<path d="M108.019 54.7292H103.162V56.0134H109.303V0H103.162V1.28418H108.019V54.7292Z" fill="#00FFFF"/>
<path d="M136.658 26.3609C137.008 26.3609 137.358 26.3609 137.358 25.964C137.358 25.5437 136.961 25.5437 136.564 25.5437H123.513C123.116 25.5437 122.719 25.5437 122.719 25.964C122.719 26.3609 123.069 26.3609 123.419 26.3609H136.658ZM136.564 30.517C136.961 30.517 137.358 30.517 137.358 30.0967C137.358 29.6998 137.008 29.6998 136.658 29.6998H123.419C123.069 29.6998 122.719 29.6998 122.719 30.0967C122.719 30.517 123.116 30.517 123.513 30.517H136.564Z" fill="#00FFFF"/>
<path d="M150.774 56.0134H156.915V54.7292H152.059V1.28418H156.915V0H150.774V56.0134Z" fill="#00FFFF"/>
<path d="M163.471 4.65551C163.471 4.16519 163.448 4.14185 163.121 4.14185C162.211 5.23923 160.833 5.58946 159.525 5.63616C159.455 5.63616 159.339 5.63616 159.315 5.68286C159.292 5.72955 159.292 5.77625 159.292 6.26657C160.016 6.26657 161.23 6.12648 162.164 5.56611V17.8709C162.164 18.6881 162.117 18.9682 160.109 18.9682H159.409V19.5753C160.529 19.552 161.697 19.5286 162.818 19.5286C163.938 19.5286 165.106 19.552 166.227 19.5753V18.9682H165.526C163.518 18.9682 163.471 18.7114 163.471 17.8709V4.65551Z" fill="#00FFFF"/>
<path d="M189.032 12.0804C189.032 10.6561 189.009 8.22786 188.028 6.35997C187.165 4.72556 185.787 4.14185 184.573 4.14185C183.452 4.14185 182.028 4.65552 181.141 6.33662C180.207 8.08777 180.113 10.2592 180.113 12.0804C180.113 13.4113 180.137 15.4426 180.86 17.2171C181.864 19.622 183.662 19.9489 184.573 19.9489C185.647 19.9489 187.281 19.5053 188.239 17.2871C188.939 15.6761 189.032 13.7848 189.032 12.0804ZM184.573 19.5753C183.079 19.5753 182.191 18.2911 181.864 16.5166C181.608 15.1391 181.608 13.1311 181.608 11.8235C181.608 10.0257 181.608 8.53139 181.911 7.10712C182.355 5.12249 183.662 4.51542 184.573 4.51542C185.53 4.51542 186.768 5.14584 187.211 7.06043C187.515 8.3913 187.538 9.95566 187.538 11.8235C187.538 13.3412 187.538 15.2091 187.258 16.5867C186.768 19.1317 185.39 19.5753 184.573 19.5753Z" fill="#00FFFF"/>
<path d="M167.067 40.2248C167.067 38.8005 167.043 36.3723 166.063 34.5044C165.199 32.87 163.821 32.2863 162.607 32.2863C161.486 32.2863 160.062 32.7999 159.175 34.481C158.241 36.2322 158.147 38.4036 158.147 40.2248C158.147 41.5557 158.171 43.587 158.895 45.3615C159.899 47.7664 161.696 48.0933 162.607 48.0933C163.681 48.0933 165.315 47.6497 166.273 45.4315C166.973 43.8205 167.067 41.9292 167.067 40.2248ZM162.607 47.7197C161.113 47.7197 160.225 46.4355 159.899 44.661C159.642 43.2835 159.642 41.2755 159.642 39.968C159.642 38.1701 159.642 36.6758 159.945 35.2515C160.389 33.2669 161.696 32.6598 162.607 32.6598C163.564 32.6598 164.802 33.2902 165.245 35.2048C165.549 36.5357 165.572 38.1001 165.572 39.968C165.572 41.4856 165.572 43.3535 165.292 44.7311C164.802 47.2761 163.424 47.7197 162.607 47.7197Z" fill="#00FFFF"/>
<path d="M185.437 32.7999C185.437 32.3096 185.414 32.2863 185.087 32.2863C184.176 33.3836 182.799 33.7339 181.491 33.7806C181.421 33.7806 181.305 33.7806 181.281 33.8273C181.258 33.874 181.258 33.9207 181.258 34.411C181.982 34.411 183.196 34.2709 184.13 33.7105V46.0153C184.13 46.8325 184.083 47.1126 182.075 47.1126H181.375V47.7197C182.495 47.6964 183.663 47.673 184.783 47.673C185.904 47.673 187.072 47.6964 188.192 47.7197V47.1126H187.492C185.484 47.1126 185.437 46.8558 185.437 46.0153V32.7999Z" fill="#00FFFF"/>
<path d="M195.117 54.7292H190.261V56.0134H196.401V0H190.261V1.28418H195.117V54.7292Z" fill="#00FFFF"/>
<path d="M18.1754 77.0792C17.3582 78.4568 16.5644 78.9238 15.4436 78.9938C15.1868 79.0172 15 79.0172 15 79.4374C15 79.5775 15.1167 79.6709 15.2802 79.6709C15.7005 79.6709 16.7511 79.6242 17.1714 79.6242C17.8485 79.6242 18.5957 79.6709 19.2495 79.6709C19.3895 79.6709 19.6697 79.6709 19.6697 79.2273C19.6697 79.0172 19.4829 78.9938 19.3428 78.9938C18.8058 78.9471 18.3622 78.7603 18.3622 78.2C18.3622 77.8731 18.5023 77.6163 18.8058 77.1026L20.5803 74.1607H26.5342C26.5576 74.3708 26.5576 74.5576 26.5809 74.7677C26.651 75.3748 26.9312 77.803 26.9312 78.2467C26.9312 78.9471 25.7404 78.9938 25.3668 78.9938C25.11 78.9938 24.8531 78.9938 24.8531 79.4141C24.8531 79.6709 25.0633 79.6709 25.2034 79.6709C25.6003 79.6709 26.0673 79.6242 26.4642 79.6242H27.7951C29.2193 79.6242 30.2467 79.6709 30.27 79.6709C30.4335 79.6709 30.6903 79.6709 30.6903 79.2273C30.6903 78.9938 30.4802 78.9938 30.1299 78.9938C28.8457 78.9938 28.8224 78.7837 28.7524 78.0832L27.3281 63.5137C27.2814 63.0467 27.188 63 26.9312 63C26.6977 63 26.5576 63.0467 26.3474 63.3969L18.1754 77.0792ZM20.9773 73.4835L25.6703 65.6384L26.4642 73.4835H20.9773Z" fill="#00FFFF"/>
<path d="M70.1754 77.8292C69.3582 79.2068 68.5644 79.6738 67.4436 79.7438C67.1868 79.7672 67 79.7672 67 80.1874C67 80.3275 67.1167 80.4209 67.2802 80.4209C67.7005 80.4209 68.7511 80.3742 69.1714 80.3742C69.8485 80.3742 70.5957 80.4209 71.2495 80.4209C71.3895 80.4209 71.6697 80.4209 71.6697 79.9773C71.6697 79.7672 71.4829 79.7438 71.3428 79.7438C70.8058 79.6971 70.3622 79.5103 70.3622 78.95C70.3622 78.6231 70.5023 78.3663 70.8058 77.8526L72.5803 74.9107H78.5342C78.5576 75.1208 78.5576 75.3076 78.5809 75.5177C78.651 76.1248 78.9312 78.553 78.9312 78.9967C78.9312 79.6971 77.7404 79.7438 77.3668 79.7438C77.11 79.7438 76.8531 79.7438 76.8531 80.1641C76.8531 80.4209 77.0633 80.4209 77.2034 80.4209C77.6003 80.4209 78.0673 80.3742 78.4642 80.3742H79.7951C81.2193 80.3742 82.2467 80.4209 82.27 80.4209C82.4335 80.4209 82.6903 80.4209 82.6903 79.9773C82.6903 79.7438 82.4802 79.7438 82.1299 79.7438C80.8457 79.7438 80.8224 79.5337 80.7524 78.8332L79.3281 64.2637C79.2814 63.7967 79.188 63.75 78.9312 63.75C78.6977 63.75 78.5576 63.7967 78.3474 64.1469L70.1754 77.8292ZM72.9773 74.2335L77.6703 66.3884L78.4642 74.2335H72.9773Z" fill="#00FFFF"/>
<path d="M94.0281 67.0519C94.3037 67.0519 94.5955 67.0519 94.5955 66.7277C94.5955 66.4034 94.3037 66.4034 94.0281 66.4034H85.2578C84.9822 66.4034 84.6904 66.4034 84.6904 66.7277C84.6904 67.0519 84.9822 67.0519 85.2578 67.0519H94.0281Z" fill="#00FFFF"/>
<path d="M100.622 60.3891C100.622 60.0162 100.622 60 100.298 60C99.909 60.4377 99.0985 61.0375 97.4287 61.0375V61.5076C97.8016 61.5076 98.6121 61.5076 99.5037 61.0862V69.5322C99.5037 70.1158 99.4551 70.3103 98.0285 70.3103H97.526V70.7804C97.9637 70.748 99.5362 70.748 100.071 70.748C100.606 70.748 102.162 70.748 102.6 70.7804V70.3103H102.098C100.671 70.3103 100.622 70.1158 100.622 69.5322V60.3891Z" fill="#00FFFF"/>
<path d="M176.635 65.7278C176.845 64.9106 176.892 64.6771 178.596 64.6771C179.11 64.6771 179.297 64.6771 179.297 64.2335C179.297 64 179.04 64 178.97 64C178.55 64 178.036 64.0467 177.616 64.0467H174.744C174.277 64.0467 173.74 64 173.273 64C173.086 64 172.829 64 172.829 64.4436C172.829 64.6771 173.016 64.6771 173.483 64.6771C174.931 64.6771 174.931 64.8639 174.931 65.1207C174.931 65.2842 174.884 65.4243 174.837 65.6344L171.685 78.2193C171.475 79.0365 171.428 79.27 169.724 79.27C169.21 79.27 169 79.27 169 79.7136C169 79.9471 169.233 79.9471 169.35 79.9471C169.771 79.9471 170.284 79.9004 170.704 79.9004H173.576C174.043 79.9004 174.557 79.9471 175.024 79.9471C175.211 79.9471 175.491 79.9471 175.491 79.5269C175.491 79.27 175.351 79.27 174.837 79.27C173.39 79.27 173.39 79.0832 173.39 78.803C173.39 78.7563 173.39 78.6396 173.483 78.266L176.635 65.7278Z" fill="#00FFFF"/>
</svg>
