<svg width="117" height="57" viewBox="0 0 117 57" fill="none" xmlns="http://www.w3.org/2000/svg">
<path d="M3.96936 31.2641C3.15216 32.6417 2.3583 33.1087 1.23757 33.1787C0.980734 33.202 0.793945 33.202 0.793945 33.6223C0.793945 33.7624 0.910688 33.8558 1.07413 33.8558C1.4944 33.8558 2.54509 33.8091 2.96537 33.8091C3.64248 33.8091 4.38964 33.8558 5.0434 33.8558C5.18349 33.8558 5.46367 33.8558 5.46367 33.4122C5.46367 33.202 5.27689 33.1787 5.13679 33.1787C4.59977 33.132 4.15615 32.9452 4.15615 32.3848C4.15615 32.058 4.29624 31.8011 4.59978 31.2875L6.37427 28.3455H12.3282C12.3515 28.5557 12.3515 28.7425 12.3749 28.9526C12.4449 29.5597 12.7251 31.9879 12.7251 32.4315C12.7251 33.132 11.5343 33.1787 11.1607 33.1787C10.9039 33.1787 10.6471 33.1787 10.6471 33.599C10.6471 33.8558 10.8572 33.8558 10.9973 33.8558C11.3942 33.8558 11.8612 33.8091 12.2581 33.8091H13.589C15.0133 33.8091 16.0406 33.8558 16.064 33.8558C16.2274 33.8558 16.4842 33.8558 16.4842 33.4122C16.4842 33.1787 16.2741 33.1787 15.9239 33.1787C14.6397 33.1787 14.6163 32.9686 14.5463 32.2681L13.122 17.6985C13.0753 17.2316 12.9819 17.1849 12.7251 17.1849C12.4916 17.1849 12.3515 17.2316 12.1414 17.5818L3.96936 31.2641ZM6.7712 27.6684L11.4643 19.8233L12.2581 27.6684H6.7712Z" fill="#00FFFF"/>
<path d="M26.8672 56.0134H33.0079V54.7292H28.1514V1.28418H33.0079V0H26.8672V56.0134Z" fill="#00FFFF"/>
<path d="M40.3811 16.7968C40.2644 17.1937 40.2644 17.2404 39.9375 17.684C39.4238 18.3378 38.3965 19.3418 37.2991 19.3418C36.3418 19.3418 35.8048 18.4779 35.8048 17.1003C35.8048 15.8161 36.5286 13.2011 36.9722 12.2204C37.7661 10.586 38.8634 9.74548 39.774 9.74548C41.3151 9.74548 41.6186 11.6601 41.6186 11.8469C41.6186 11.8702 41.5485 12.1737 41.5252 12.2204L40.3811 16.7968ZM41.8754 10.8195C41.6186 10.2124 40.9882 9.2785 39.774 9.2785C37.1356 9.2785 34.2871 12.6874 34.2871 16.143C34.2871 18.4545 35.6413 19.8087 37.229 19.8087C38.5132 19.8087 39.6106 18.8048 40.2644 18.0342C40.4978 19.4118 41.5952 19.8087 42.2957 19.8087C42.9962 19.8087 43.5565 19.3885 43.9768 18.5479C44.3504 17.7541 44.6773 16.3298 44.6773 16.2364C44.6773 16.1197 44.5839 16.0263 44.4438 16.0263C44.2336 16.0263 44.2103 16.143 44.1169 16.4932C43.7667 17.8708 43.323 19.3418 42.3657 19.3418C41.6886 19.3418 41.6419 18.7347 41.6419 18.2677C41.6419 17.7307 41.712 17.4739 41.9221 16.5633C42.0856 15.9796 42.2023 15.4659 42.3891 14.7888C43.253 11.2865 43.4631 10.4459 43.4631 10.3058C43.4631 9.97896 43.2063 9.72213 42.8561 9.72213C42.1089 9.72213 41.9221 10.5393 41.8754 10.8195Z" fill="#00FFFF"/>
<path d="M39.8868 32.0995C39.9101 32.0061 39.9568 31.866 39.9568 31.7492C39.9568 31.5157 39.7234 31.5157 39.6767 31.5157C39.6533 31.5157 38.8128 31.5858 38.3925 31.6325C37.9956 31.6558 37.6453 31.7025 37.225 31.7259C36.6647 31.7726 36.5012 31.7959 36.5012 32.2162C36.5012 32.4497 36.7347 32.4497 36.9682 32.4497C38.159 32.4497 38.159 32.6598 38.159 32.8933C38.159 33.0568 37.9722 33.7339 37.8788 34.1541L37.3184 36.3956C37.085 37.3296 35.7541 42.6297 35.6607 43.05C35.5439 43.6337 35.5439 44.0306 35.5439 44.3342C35.5439 46.7157 36.8748 47.9532 38.3925 47.9532C41.1009 47.9532 43.9028 44.4742 43.9028 41.0887C43.9028 38.9406 42.6886 37.423 40.9375 37.423C39.7234 37.423 38.626 38.4269 38.1823 38.8939L39.8868 32.0995ZM38.4158 47.4862C37.6687 47.4862 36.8515 46.9259 36.8515 45.1047C36.8515 44.3342 36.9215 43.8905 37.3418 42.2561C37.4118 41.9526 37.7854 40.4583 37.8788 40.1547C37.9255 39.968 39.3031 37.8899 40.8908 37.8899C41.9181 37.8899 42.3851 38.9173 42.3851 40.1314C42.3851 41.2521 41.7313 43.8905 41.1476 45.1047C40.5639 46.3655 39.4899 47.4862 38.4158 47.4862Z" fill="#00FFFF"/>
<path d="M50.5372 54.7292H45.6807V56.0134H51.8214V0H45.6807V1.28418H50.5372V54.7292Z" fill="#00FFFF"/>
<path d="M79.1755 26.3609C79.5257 26.3609 79.8759 26.3609 79.8759 25.964C79.8759 25.5437 79.479 25.5437 79.0821 25.5437H66.0302C65.6333 25.5437 65.2363 25.5437 65.2363 25.964C65.2363 26.3609 65.5866 26.3609 65.9368 26.3609H79.1755ZM79.0821 30.517C79.479 30.517 79.8759 30.517 79.8759 30.0967C79.8759 29.6998 79.5257 29.6998 79.1755 29.6998H65.9368C65.5866 29.6998 65.2363 29.6998 65.2363 30.0967C65.2363 30.517 65.6333 30.517 66.0302 30.517H79.0821Z" fill="#00FFFF"/>
<path d="M93.293 56.0134H99.4337V54.7292H94.5771V1.28418H99.4337V0H93.293V56.0134Z" fill="#00FFFF"/>
<path d="M105.989 4.65545C105.989 4.16513 105.966 4.14178 105.639 4.14178C104.728 5.23917 103.351 5.5894 102.043 5.6361C101.973 5.6361 101.856 5.6361 101.833 5.68279C101.81 5.72949 101.81 5.77619 101.81 6.26651C102.533 6.26651 103.748 6.12642 104.681 5.56605V17.8708C104.681 18.688 104.635 18.9682 102.627 18.9682H101.926V19.5752C103.047 19.5519 104.214 19.5285 105.335 19.5285C106.456 19.5285 107.623 19.5519 108.744 19.5752V18.9682H108.044C106.036 18.9682 105.989 18.7113 105.989 17.8708V4.65545Z" fill="#00FFFF"/>
<path d="M109.585 40.2248C109.585 38.8005 109.562 36.3723 108.581 34.5044C107.717 32.87 106.34 32.2863 105.126 32.2863C104.005 32.2863 102.581 32.7999 101.693 34.481C100.759 36.2322 100.666 38.4036 100.666 40.2248C100.666 41.5557 100.689 43.587 101.413 45.3615C102.417 47.7664 104.215 48.0933 105.126 48.0933C106.2 48.0933 107.834 47.6497 108.791 45.4315C109.492 43.8205 109.585 41.9292 109.585 40.2248ZM105.126 47.7197C103.631 47.7197 102.744 46.4355 102.417 44.661C102.16 43.2835 102.16 41.2755 102.16 39.968C102.16 38.1701 102.16 36.6758 102.464 35.2515C102.907 33.2669 104.215 32.6598 105.126 32.6598C106.083 32.6598 107.32 33.2902 107.764 35.2048C108.068 36.5357 108.091 38.1001 108.091 39.968C108.091 41.4856 108.091 43.3535 107.811 44.7311C107.32 47.2761 105.943 47.7197 105.126 47.7197Z" fill="#00FFFF"/>
<path d="M115.67 54.7292H110.813V56.0134H116.954V0H110.813V1.28418H115.67V54.7292Z" fill="#00FFFF"/>
</svg>
