<svg width="119" height="57" viewBox="0 0 119 57" fill="none" xmlns="http://www.w3.org/2000/svg">
<g clip-path="url(#clip0)">
<path d="M3.96936 31.2641C3.15216 32.6417 2.3583 33.1087 1.23757 33.1787C0.980734 33.202 0.793945 33.202 0.793945 33.6223C0.793945 33.7624 0.910688 33.8558 1.07413 33.8558C1.4944 33.8558 2.54509 33.8091 2.96537 33.8091C3.64248 33.8091 4.38964 33.8558 5.0434 33.8558C5.18349 33.8558 5.46368 33.8558 5.46368 33.4122C5.46368 33.202 5.27689 33.1787 5.13679 33.1787C4.59977 33.132 4.15615 32.9452 4.15615 32.3848C4.15615 32.058 4.29624 31.8011 4.59978 31.2875L6.37427 28.3455H12.3282C12.3515 28.5557 12.3515 28.7425 12.3749 28.9526C12.4449 29.5597 12.7251 31.9879 12.7251 32.4315C12.7251 33.132 11.5343 33.1787 11.1607 33.1787C10.9039 33.1787 10.6471 33.1787 10.6471 33.599C10.6471 33.8558 10.8572 33.8558 10.9973 33.8558C11.3942 33.8558 11.8612 33.8091 12.2581 33.8091H13.589C15.0133 33.8091 16.0406 33.8558 16.064 33.8558C16.2274 33.8558 16.4842 33.8558 16.4842 33.4122C16.4842 33.1787 16.2741 33.1787 15.9239 33.1787C14.6397 33.1787 14.6163 32.9686 14.5463 32.2681L13.122 17.6985C13.0753 17.2316 12.9819 17.1849 12.7251 17.1849C12.4916 17.1849 12.3515 17.2316 12.1414 17.5818L3.96936 31.2641ZM6.7712 27.6684L11.4643 19.8233L12.2581 27.6684H6.7712Z" fill="#00FFFF"/>
<path d="M26.8672 56.0134H33.0079V54.7292H28.1514V1.28418H33.0079V0H26.8672V56.0134Z" fill="#00FFFF"/>
<path d="M43.502 10.7962C43.0584 10.7962 42.8483 10.7962 42.5214 11.0763C42.3813 11.1931 42.1244 11.5433 42.1244 11.9169C42.1244 12.3839 42.4747 12.6641 42.9183 12.6641C43.4787 12.6641 44.1091 12.1971 44.1091 11.2631C44.1091 10.1424 43.035 9.2785 41.424 9.2785C38.3653 9.2785 35.3066 12.6174 35.3066 15.9329C35.3066 17.9642 36.5675 19.8087 38.949 19.8087C42.1244 19.8087 44.1324 17.3338 44.1324 17.0303C44.1324 16.8902 43.9923 16.7734 43.8989 16.7734C43.8289 16.7734 43.8055 16.7968 43.5954 17.0069C42.1011 18.9915 39.883 19.3418 38.9957 19.3418C37.3847 19.3418 36.871 17.9409 36.871 16.7734C36.871 15.9562 37.2679 13.6914 38.1085 12.1037C38.7155 11.0063 39.9764 9.74548 41.4473 9.74548C41.7509 9.74548 43.035 9.79217 43.502 10.7962Z" fill="#00FFFF"/>
<path d="M45.0975 32.0995C45.1209 32.0061 45.1676 31.866 45.1676 31.7492C45.1676 31.5157 44.9341 31.5157 44.8874 31.5157C44.864 31.5157 43.72 31.6091 43.6032 31.6325C43.2063 31.6558 42.8561 31.7025 42.4358 31.7259C41.8521 31.7726 41.6886 31.7959 41.6886 32.2162C41.6886 32.4497 41.8754 32.4497 42.2023 32.4497C43.3464 32.4497 43.3697 32.6598 43.3697 32.8933C43.3697 33.0334 43.323 33.2202 43.2997 33.2902L41.8754 38.964C41.6186 38.3569 40.9882 37.423 39.774 37.423C37.1356 37.423 34.2871 40.8319 34.2871 44.2875C34.2871 46.599 35.6413 47.9532 37.229 47.9532C38.5132 47.9532 39.6106 46.9492 40.2644 46.1787C40.4978 47.5563 41.5952 47.9532 42.2957 47.9532C42.9962 47.9532 43.5565 47.5329 43.9768 46.6924C44.3504 45.8985 44.6773 44.4742 44.6773 44.3809C44.6773 44.2641 44.5839 44.1707 44.4438 44.1707C44.2336 44.1707 44.2103 44.2875 44.1169 44.6377C43.7667 46.0153 43.323 47.4862 42.3657 47.4862C41.6886 47.4862 41.6419 46.8792 41.6419 46.4122C41.6419 46.3188 41.6419 45.8285 41.8054 45.1747L45.0975 32.0995ZM40.3811 44.9412C40.2644 45.3381 40.2644 45.3848 39.9375 45.8285C39.4238 46.4822 38.3965 47.4862 37.2991 47.4862C36.3418 47.4862 35.8048 46.6223 35.8048 45.2448C35.8048 43.9606 36.5286 41.3455 36.9722 40.3649C37.7661 38.7305 38.8634 37.8899 39.774 37.8899C41.3151 37.8899 41.6186 39.8045 41.6186 39.9913C41.6186 40.0147 41.5485 40.3182 41.5252 40.3649L40.3811 44.9412Z" fill="#00FFFF"/>
<path d="M50.4161 54.7292H45.5596V56.0134H51.7003V0H45.5596V1.28418H50.4161V54.7292Z" fill="#00FFFF"/>
<path d="M79.0544 26.3609C79.4046 26.3609 79.7548 26.3609 79.7548 25.964C79.7548 25.5437 79.3579 25.5437 78.961 25.5437H65.9091C65.5122 25.5437 65.1152 25.5437 65.1152 25.964C65.1152 26.3609 65.4655 26.3609 65.8157 26.3609H79.0544ZM78.961 30.517C79.3579 30.517 79.7548 30.517 79.7548 30.0967C79.7548 29.6998 79.4046 29.6998 79.0544 29.6998H65.8157C65.4655 29.6998 65.1152 29.6998 65.1152 30.0967C65.1152 30.517 65.5122 30.517 65.9091 30.517H78.961Z" fill="#00FFFF"/>
<path d="M93.1709 56.0134H99.3116V54.7292H94.4551V1.28418H99.3116V0H93.1709V56.0134Z" fill="#00FFFF"/>
<path d="M110.11 12.0803C110.11 10.6561 110.086 8.2278 109.106 6.35991C108.242 4.7255 106.864 4.14178 105.65 4.14178C104.529 4.14178 103.105 4.65545 102.218 6.33656C101.284 8.08771 101.19 10.2591 101.19 12.0803C101.19 13.4112 101.214 15.4425 101.938 17.217C102.942 19.6219 104.739 19.9488 105.65 19.9488C106.724 19.9488 108.358 19.5052 109.316 17.2871C110.016 15.676 110.11 13.7848 110.11 12.0803ZM105.65 19.5752C104.156 19.5752 103.268 18.2911 102.942 16.5166C102.685 15.139 102.685 13.131 102.685 11.8235C102.685 10.0256 102.685 8.53133 102.988 7.10706C103.432 5.12243 104.739 4.51536 105.65 4.51536C106.607 4.51536 107.845 5.14578 108.288 7.06036C108.592 8.39124 108.615 9.9556 108.615 11.8235C108.615 13.3412 108.615 15.209 108.335 16.5866C107.845 19.1316 106.467 19.5752 105.65 19.5752Z" fill="#00FFFF"/>
<path d="M116.842 54.7292H111.985V56.0134H118.126V0H111.985V1.28418H116.842V54.7292Z" fill="#00FFFF"/>
</g>
<path d="M107.179 33.5137C107.179 33.0233 107.156 33 106.829 33C105.919 34.0974 104.541 34.4476 103.233 34.4943C103.163 34.4943 103.047 34.4943 103.023 34.541C103 34.5877 103 34.6344 103 35.1247C103.724 35.1247 104.938 34.9846 105.872 34.4243V46.729C105.872 47.5462 105.825 47.8264 103.817 47.8264H103.117V48.4335C104.237 48.4101 105.405 48.3868 106.526 48.3868C107.646 48.3868 108.814 48.4101 109.935 48.4335V47.8264H109.234C107.226 47.8264 107.179 47.5696 107.179 46.729V33.5137Z" fill="#00FFFF"/>
<defs>
<clipPath id="clip0">
<rect width="118.126" height="56.0134" fill="white"/>
</clipPath>
</defs>
</svg>
