<svg width="153" height="57" viewBox="0 0 153 57" fill="none" xmlns="http://www.w3.org/2000/svg">
<path d="M0.836914 56.0134H6.97761V54.7292H2.12109V1.28418H6.97761V0H0.836914V56.0134Z" fill="#00FFFF"/>
<path d="M13.5339 4.65551C13.5339 4.16519 13.5106 4.14185 13.1837 4.14185C12.2731 5.23923 10.8955 5.58946 9.58798 5.63616C9.51793 5.63616 9.40119 5.63616 9.37784 5.68286C9.35449 5.72955 9.35449 5.77625 9.35449 6.26657C10.0783 6.26657 11.2924 6.12648 12.2264 5.56611V17.8709C12.2264 18.6881 12.1797 18.9682 10.1717 18.9682H9.47124V19.5753C10.592 19.552 11.7594 19.5286 12.8801 19.5286C14.0009 19.5286 15.1683 19.552 16.289 19.5753V18.9682H15.5886C13.5806 18.9682 13.5339 18.7114 13.5339 17.8709V4.65551Z" fill="#00FFFF"/>
<path d="M34.4491 11.6368C36.5271 11.6368 37.4377 13.4346 37.4377 15.5126C37.4377 18.3145 35.9434 19.3885 34.5892 19.3885C33.3517 19.3885 31.3437 18.7814 30.7133 16.9836C30.8301 17.0303 30.9468 17.0303 31.0636 17.0303C31.6239 17.0303 32.0442 16.6567 32.0442 16.0497C32.0442 15.3725 31.5305 15.069 31.0636 15.069C30.6666 15.069 30.0596 15.2558 30.0596 16.1197C30.0596 18.2678 32.1609 19.9489 34.6359 19.9489C37.2276 19.9489 39.2122 17.9175 39.2122 15.536C39.2122 13.2712 37.3443 11.6368 35.1262 11.3799C36.9007 11.0063 38.6052 9.41864 38.6052 7.29391C38.6052 5.47272 36.7606 4.14185 34.6593 4.14185C32.5345 4.14185 30.6666 5.44937 30.6666 7.31726C30.6666 8.13446 31.2737 8.27456 31.5772 8.27456C32.0676 8.27456 32.4878 7.97102 32.4878 7.36396C32.4878 6.75689 32.0676 6.45336 31.5772 6.45336C31.4838 6.45336 31.3671 6.45336 31.2737 6.50006C31.9508 4.95905 33.7954 4.67886 34.6126 4.67886C35.4298 4.67886 36.9708 5.07579 36.9708 7.31726C36.9708 7.97102 36.8774 9.13846 36.0835 10.1658C35.3831 11.0764 34.5892 11.1231 33.8187 11.1931C33.702 11.1931 33.1649 11.2398 33.0715 11.2398C32.9081 11.2632 32.8147 11.2865 32.8147 11.45C32.8147 11.6134 32.8381 11.6368 33.305 11.6368H34.4491Z" fill="#00FFFF"/>
<path d="M17.0594 44.1007H16.6391C16.4056 45.7584 16.2188 46.0386 16.1254 46.1787C16.0087 46.3655 14.3276 46.3655 14.0007 46.3655H9.51775C10.3583 45.4549 11.9927 43.7971 13.9773 41.8825C15.4016 40.5283 17.0594 38.9406 17.0594 36.6291C17.0594 33.874 14.8646 32.2863 12.413 32.2863C9.84463 32.2863 8.28027 34.5511 8.28027 36.6525C8.28027 37.563 8.95738 37.6798 9.23757 37.6798C9.47105 37.6798 10.1715 37.5397 10.1715 36.7225C10.1715 35.9987 9.56445 35.7886 9.23757 35.7886C9.09748 35.7886 8.95738 35.8119 8.86399 35.8586C9.30761 33.874 10.6618 32.8933 12.0861 32.8933C14.1174 32.8933 15.4483 34.5044 15.4483 36.6291C15.4483 38.6604 14.2575 40.4116 12.9267 41.9292L8.28027 47.1827V47.7197H16.499L17.0594 44.1007Z" fill="#00FFFF"/>
<path d="M39.8185 33.1735V32.6599H34.3316C31.5998 32.6599 31.5531 32.3563 31.4597 31.9127H31.0394L30.3623 36.2789H30.7826C30.8526 35.8353 31.0161 34.6445 31.2963 34.2009C31.4363 34.0141 33.1641 34.0141 33.5611 34.0141H38.6978L36.1061 37.8666C34.3783 40.4583 33.1875 43.9606 33.1875 47.0193C33.1875 47.2995 33.1875 48.0933 34.028 48.0933C34.8686 48.0933 34.8686 47.2995 34.8686 46.9959V45.9219C34.8686 42.0927 35.5224 39.5711 36.5964 37.96L39.8185 33.1735Z" fill="#00FFFF"/>
<path d="M45.1798 54.7292H40.3232V56.0134H46.4639V0H40.3232V1.28418H45.1798V54.7292Z" fill="#00FFFF"/>
<path d="M62.0479 56.0134H68.1885V54.7292H63.332V1.28418H68.1885V0H62.0479V56.0134Z" fill="#00FFFF"/>
<path d="M75.5618 16.7967C75.445 17.1936 75.445 17.2403 75.1181 17.684C74.6045 18.3377 73.5771 19.3417 72.4797 19.3417C71.5225 19.3417 70.9854 18.4778 70.9854 17.1002C70.9854 15.8161 71.7092 13.201 72.1529 12.2204C72.9467 10.586 74.0441 9.74542 74.9547 9.74542C76.4957 9.74542 76.7992 11.66 76.7992 11.8468C76.7992 11.8701 76.7292 12.1737 76.7059 12.2204L75.5618 16.7967ZM77.0561 10.8195C76.7992 10.2124 76.1688 9.27844 74.9547 9.27844C72.3163 9.27844 69.4678 12.6873 69.4678 16.1429C69.4678 18.4545 70.822 19.8087 72.4097 19.8087C73.6939 19.8087 74.7913 18.8047 75.445 18.0342C75.6785 19.4118 76.7759 19.8087 77.4764 19.8087C78.1768 19.8087 78.7372 19.3884 79.1575 18.5479C79.531 17.754 79.8579 16.3297 79.8579 16.2363C79.8579 16.1196 79.7645 16.0262 79.6244 16.0262C79.4143 16.0262 79.3909 16.1429 79.2976 16.4932C78.9473 17.8707 78.5037 19.3417 77.5464 19.3417C76.8693 19.3417 76.8226 18.7346 76.8226 18.2677C76.8226 17.7307 76.8926 17.4738 77.1028 16.5632C77.2662 15.9795 77.383 15.4658 77.5698 14.7887C78.4337 11.2864 78.6438 10.4459 78.6438 10.3058C78.6438 9.9789 78.387 9.72207 78.0367 9.72207C77.2896 9.72207 77.1028 10.5393 77.0561 10.8195Z" fill="#00FFFF"/>
<path d="M75.0684 32.0995C75.0918 32.0061 75.1385 31.866 75.1385 31.7492C75.1385 31.5157 74.905 31.5157 74.8583 31.5157C74.8349 31.5157 73.9944 31.5858 73.5741 31.6325C73.1772 31.6558 72.827 31.7025 72.4067 31.7259C71.8463 31.7726 71.6829 31.7959 71.6829 32.2162C71.6829 32.4497 71.9164 32.4497 72.1499 32.4497C73.3406 32.4497 73.3406 32.6598 73.3406 32.8933C73.3406 33.0568 73.1538 33.7339 73.0605 34.1541L72.5001 36.3956C72.2666 37.3296 70.9357 42.6297 70.8423 43.05C70.7256 43.6337 70.7256 44.0306 70.7256 44.3342C70.7256 46.7157 72.0565 47.9532 73.5741 47.9532C76.2826 47.9532 79.0844 44.4742 79.0844 41.0887C79.0844 38.9406 77.8703 37.423 76.1191 37.423C74.905 37.423 73.8076 38.4269 73.364 38.8939L75.0684 32.0995ZM73.5975 47.4862C72.8503 47.4862 72.0331 46.9259 72.0331 45.1047C72.0331 44.3342 72.1032 43.8905 72.5234 42.2561C72.5935 41.9526 72.9671 40.4583 73.0605 40.1547C73.1071 39.968 74.4847 37.8899 76.0724 37.8899C77.0998 37.8899 77.5667 38.9173 77.5667 40.1314C77.5667 41.2521 76.913 43.8905 76.3293 45.1047C75.7455 46.3655 74.6715 47.4862 73.5975 47.4862Z" fill="#00FFFF"/>
<path d="M85.7188 54.7292H80.8623V56.0134H87.003V0H80.8623V1.28418H85.7188V54.7292Z" fill="#00FFFF"/>
<path d="M114.357 26.3609C114.707 26.3609 115.058 26.3609 115.058 25.964C115.058 25.5437 114.661 25.5437 114.264 25.5437H101.212C100.815 25.5437 100.418 25.5437 100.418 25.964C100.418 26.3609 100.768 26.3609 101.118 26.3609H114.357ZM114.264 30.517C114.661 30.517 115.058 30.517 115.058 30.0967C115.058 29.6998 114.707 29.6998 114.357 29.6998H101.118C100.768 29.6998 100.418 29.6998 100.418 30.0967C100.418 30.517 100.815 30.517 101.212 30.517H114.264Z" fill="#00FFFF"/>
<path d="M128.474 56.0134H134.614V54.7292H129.758V1.28418H134.614V0H128.474V56.0134Z" fill="#00FFFF"/>
<path d="M141.171 4.65551C141.171 4.16519 141.147 4.14185 140.82 4.14185C139.91 5.23923 138.532 5.58946 137.225 5.63616C137.155 5.63616 137.038 5.63616 137.015 5.68286C136.991 5.72955 136.991 5.77625 136.991 6.26657C137.715 6.26657 138.929 6.12648 139.863 5.56611V17.8709C139.863 18.6881 139.816 18.9682 137.808 18.9682H137.108V19.5753C138.229 19.552 139.396 19.5286 140.517 19.5286C141.638 19.5286 142.805 19.552 143.926 19.5753V18.9682H143.225C141.217 18.9682 141.171 18.7114 141.171 17.8709V4.65551Z" fill="#00FFFF"/>
<path d="M144.766 40.2248C144.766 38.8005 144.743 36.3723 143.762 34.5044C142.898 32.87 141.52 32.2863 140.306 32.2863C139.186 32.2863 137.761 32.7999 136.874 34.481C135.94 36.2322 135.847 38.4036 135.847 40.2248C135.847 41.5557 135.87 43.587 136.594 45.3615C137.598 47.7664 139.396 48.0933 140.306 48.0933C141.38 48.0933 143.015 47.6497 143.972 45.4315C144.672 43.8205 144.766 41.9292 144.766 40.2248ZM140.306 47.7197C138.812 47.7197 137.925 46.4355 137.598 44.661C137.341 43.2835 137.341 41.2755 137.341 39.968C137.341 38.1701 137.341 36.6758 137.645 35.2515C138.088 33.2669 139.396 32.6598 140.306 32.6598C141.264 32.6598 142.501 33.2902 142.945 35.2048C143.248 36.5357 143.272 38.1001 143.272 39.968C143.272 41.4856 143.272 43.3535 142.991 44.7311C142.501 47.2761 141.123 47.7197 140.306 47.7197Z" fill="#00FFFF"/>
<path d="M150.852 54.7292H145.995V56.0134H152.136V0H145.995V1.28418H150.852V54.7292Z" fill="#00FFFF"/>
</svg>
