<svg width="153" height="57" viewBox="0 0 153 57" fill="none" xmlns="http://www.w3.org/2000/svg">
<path d="M0.836914 56.0134H6.97761V54.7292H2.12109V1.28418H6.97761V0H0.836914V56.0134Z" fill="#00FFFF"/>
<path d="M13.5339 4.65551C13.5339 4.16519 13.5106 4.14185 13.1837 4.14185C12.2731 5.23923 10.8955 5.58946 9.58798 5.63616C9.51793 5.63616 9.40119 5.63616 9.37784 5.68286C9.35449 5.72955 9.35449 5.77625 9.35449 6.26657C10.0783 6.26657 11.2924 6.12648 12.2264 5.56611V17.8709C12.2264 18.6881 12.1797 18.9682 10.1717 18.9682H9.47124V19.5753C10.592 19.552 11.7594 19.5286 12.8801 19.5286C14.0009 19.5286 15.1683 19.552 16.289 19.5753V18.9682H15.5886C13.5806 18.9682 13.5339 18.7114 13.5339 17.8709V4.65551Z" fill="#00FFFF"/>
<path d="M34.4491 11.6368C36.5271 11.6368 37.4377 13.4346 37.4377 15.5126C37.4377 18.3145 35.9434 19.3885 34.5892 19.3885C33.3517 19.3885 31.3437 18.7814 30.7133 16.9836C30.8301 17.0303 30.9468 17.0303 31.0636 17.0303C31.6239 17.0303 32.0442 16.6567 32.0442 16.0497C32.0442 15.3725 31.5305 15.069 31.0636 15.069C30.6666 15.069 30.0596 15.2558 30.0596 16.1197C30.0596 18.2678 32.1609 19.9489 34.6359 19.9489C37.2276 19.9489 39.2122 17.9175 39.2122 15.536C39.2122 13.2712 37.3443 11.6368 35.1262 11.3799C36.9007 11.0063 38.6052 9.41864 38.6052 7.29391C38.6052 5.47272 36.7606 4.14185 34.6593 4.14185C32.5345 4.14185 30.6666 5.44937 30.6666 7.31726C30.6666 8.13446 31.2737 8.27456 31.5772 8.27456C32.0676 8.27456 32.4878 7.97102 32.4878 7.36396C32.4878 6.75689 32.0676 6.45336 31.5772 6.45336C31.4838 6.45336 31.3671 6.45336 31.2737 6.50006C31.9508 4.95905 33.7954 4.67886 34.6126 4.67886C35.4298 4.67886 36.9708 5.07579 36.9708 7.31726C36.9708 7.97102 36.8774 9.13846 36.0835 10.1658C35.3831 11.0764 34.5892 11.1231 33.8187 11.1931C33.702 11.1931 33.1649 11.2398 33.0715 11.2398C32.9081 11.2632 32.8147 11.2865 32.8147 11.45C32.8147 11.6134 32.8381 11.6368 33.305 11.6368H34.4491Z" fill="#00FFFF"/>
<path d="M17.0594 44.1007H16.6391C16.4056 45.7584 16.2188 46.0386 16.1254 46.1787C16.0087 46.3655 14.3276 46.3655 14.0007 46.3655H9.51775C10.3583 45.4549 11.9927 43.7971 13.9773 41.8825C15.4016 40.5283 17.0594 38.9406 17.0594 36.6291C17.0594 33.874 14.8646 32.2863 12.413 32.2863C9.84463 32.2863 8.28027 34.5511 8.28027 36.6525C8.28027 37.563 8.95738 37.6798 9.23757 37.6798C9.47105 37.6798 10.1715 37.5397 10.1715 36.7225C10.1715 35.9987 9.56445 35.7886 9.23757 35.7886C9.09748 35.7886 8.95738 35.8119 8.86399 35.8586C9.30761 33.874 10.6618 32.8933 12.0861 32.8933C14.1174 32.8933 15.4483 34.5044 15.4483 36.6291C15.4483 38.6604 14.2575 40.4116 12.9267 41.9292L8.28027 47.1827V47.7197H16.499L17.0594 44.1007Z" fill="#00FFFF"/>
<path d="M39.8185 33.1735V32.6599H34.3316C31.5998 32.6599 31.5531 32.3563 31.4597 31.9127H31.0394L30.3623 36.2789H30.7826C30.8526 35.8353 31.0161 34.6445 31.2963 34.2009C31.4363 34.0141 33.1641 34.0141 33.5611 34.0141H38.6978L36.1061 37.8666C34.3783 40.4583 33.1875 43.9606 33.1875 47.0193C33.1875 47.2995 33.1875 48.0933 34.028 48.0933C34.8686 48.0933 34.8686 47.2995 34.8686 46.9959V45.9219C34.8686 42.0927 35.5224 39.5711 36.5964 37.96L39.8185 33.1735Z" fill="#00FFFF"/>
<path d="M45.1798 54.7292H40.3232V56.0134H46.4639V0H40.3232V1.28418H45.1798V54.7292Z" fill="#00FFFF"/>
<path d="M62.0479 56.0134H68.1885V54.7292H63.332V1.28418H68.1885V0H62.0479V56.0134Z" fill="#00FFFF"/>
<path d="M78.6837 10.7961C78.24 10.7961 78.0299 10.7961 77.703 11.0763C77.5629 11.193 77.3061 11.5433 77.3061 11.9168C77.3061 12.3838 77.6563 12.664 78.0999 12.664C78.6603 12.664 79.2907 12.197 79.2907 11.2631C79.2907 10.1423 78.2167 9.27844 76.6056 9.27844C73.547 9.27844 70.4883 12.6173 70.4883 15.9328C70.4883 17.9641 71.7491 19.8087 74.1307 19.8087C77.3061 19.8087 79.3141 17.3337 79.3141 17.0302C79.3141 16.8901 79.174 16.7734 79.0806 16.7734C79.0105 16.7734 78.9872 16.7967 78.7771 17.0068C77.2827 18.9915 75.0646 19.3417 74.1774 19.3417C72.5663 19.3417 72.0526 17.9408 72.0526 16.7734C72.0526 15.9562 72.4496 13.6913 73.2901 12.1036C73.8972 11.0062 75.158 9.74542 76.629 9.74542C76.9325 9.74542 78.2167 9.79211 78.6837 10.7961Z" fill="#00FFFF"/>
<path d="M80.2782 32.0995C80.3015 32.0061 80.3482 31.866 80.3482 31.7492C80.3482 31.5157 80.1148 31.5157 80.0681 31.5157C80.0447 31.5157 78.9006 31.6091 78.7839 31.6325C78.387 31.6558 78.0367 31.7025 77.6165 31.7259C77.0327 31.7726 76.8693 31.7959 76.8693 32.2162C76.8693 32.4497 77.0561 32.4497 77.383 32.4497C78.527 32.4497 78.5504 32.6598 78.5504 32.8933C78.5504 33.0334 78.5037 33.2202 78.4804 33.2902L77.0561 38.964C76.7992 38.3569 76.1688 37.423 74.9547 37.423C72.3163 37.423 69.4678 40.8319 69.4678 44.2875C69.4678 46.599 70.822 47.9532 72.4097 47.9532C73.6939 47.9532 74.7913 46.9492 75.445 46.1787C75.6785 47.5563 76.7759 47.9532 77.4764 47.9532C78.1768 47.9532 78.7372 47.5329 79.1575 46.6924C79.531 45.8985 79.8579 44.4742 79.8579 44.3809C79.8579 44.2641 79.7645 44.1707 79.6244 44.1707C79.4143 44.1707 79.3909 44.2875 79.2976 44.6377C78.9473 46.0153 78.5037 47.4862 77.5464 47.4862C76.8693 47.4862 76.8226 46.8792 76.8226 46.4122C76.8226 46.3188 76.8226 45.8285 76.986 45.1747L80.2782 32.0995ZM75.5618 44.9412C75.445 45.3381 75.445 45.3848 75.1181 45.8285C74.6045 46.4822 73.5771 47.4862 72.4797 47.4862C71.5225 47.4862 70.9854 46.6223 70.9854 45.2448C70.9854 43.9606 71.7092 41.3455 72.1529 40.3649C72.9467 38.7305 74.0441 37.8899 74.9547 37.8899C76.4957 37.8899 76.7992 39.8045 76.7992 39.9913C76.7992 40.0147 76.7292 40.3182 76.7059 40.3649L75.5618 44.9412Z" fill="#00FFFF"/>
<path d="M85.5968 54.7292H80.7402V56.0134H86.8809V0H80.7402V1.28418H85.5968V54.7292Z" fill="#00FFFF"/>
<path d="M114.235 26.3609C114.585 26.3609 114.936 26.3609 114.936 25.964C114.936 25.5437 114.539 25.5437 114.142 25.5437H101.09C100.693 25.5437 100.296 25.5437 100.296 25.964C100.296 26.3609 100.646 26.3609 100.996 26.3609H114.235ZM114.142 30.517C114.539 30.517 114.936 30.517 114.936 30.0967C114.936 29.6998 114.585 29.6998 114.235 29.6998H100.996C100.646 29.6998 100.296 29.6998 100.296 30.0967C100.296 30.517 100.693 30.517 101.09 30.517H114.142Z" fill="#00FFFF"/>
<path d="M128.353 56.0134H134.493V54.7292H129.637V1.28418H134.493V0H128.353V56.0134Z" fill="#00FFFF"/>
<path d="M144.645 12.0804C144.645 10.6561 144.621 8.22786 143.641 6.35997C142.777 4.72556 141.399 4.14185 140.185 4.14185C139.064 4.14185 137.64 4.65552 136.753 6.33662C135.819 8.08777 135.726 10.2592 135.726 12.0804C135.726 13.4113 135.749 15.4426 136.473 17.2171C137.477 19.622 139.275 19.9489 140.185 19.9489C141.259 19.9489 142.894 19.5053 143.851 17.2871C144.551 15.6761 144.645 13.7848 144.645 12.0804ZM140.185 19.5753C138.691 19.5753 137.804 18.2911 137.477 16.5166C137.22 15.1391 137.22 13.1311 137.22 11.8235C137.22 10.0257 137.22 8.53139 137.523 7.10712C137.967 5.12249 139.275 4.51542 140.185 4.51542C141.142 4.51542 142.38 5.14584 142.824 7.06043C143.127 8.3913 143.15 9.95566 143.15 11.8235C143.15 13.3412 143.15 15.2091 142.87 16.5867C142.38 19.1317 141.002 19.5753 140.185 19.5753Z" fill="#00FFFF"/>
<path d="M141.049 32.7999C141.049 32.3096 141.025 32.2863 140.698 32.2863C139.788 33.3836 138.41 33.7339 137.103 33.7806C137.033 33.7806 136.916 33.7806 136.892 33.8273C136.869 33.874 136.869 33.9207 136.869 34.411C137.593 34.411 138.807 34.2709 139.741 33.7105V46.0153C139.741 46.8325 139.694 47.1126 137.686 47.1126H136.986V47.7197C138.107 47.6964 139.274 47.673 140.395 47.673C141.516 47.673 142.683 47.6964 143.804 47.7197V47.1126H143.103C141.095 47.1126 141.049 46.8558 141.049 46.0153V32.7999Z" fill="#00FFFF"/>
<path d="M150.73 54.7292H145.873V56.0134H152.014V0H145.873V1.28418H150.73V54.7292Z" fill="#00FFFF"/>
</svg>
