<svg width="380" height="155" viewBox="0 0 380 155" fill="none" xmlns="http://www.w3.org/2000/svg">
<path d="M37 56.0134H43.1407V54.7292H38.2842V1.28418H43.1407V0H37V56.0134Z" fill="#00FFFF"/>
<path d="M49.697 4.65545C49.697 4.16513 49.6736 4.14178 49.3468 4.14178C48.4362 5.23917 47.0586 5.5894 45.7511 5.6361C45.681 5.6361 45.5643 5.6361 45.5409 5.68279C45.5176 5.72949 45.5176 5.77619 45.5176 6.26651C46.2414 6.26651 47.4555 6.12642 48.3895 5.56605V17.8708C48.3895 18.688 48.3428 18.9682 46.3348 18.9682H45.6343V19.5752C46.7551 19.5519 47.9225 19.5285 49.0432 19.5285C50.164 19.5285 51.3314 19.5519 52.4521 19.5752V18.9682H51.7517C49.7437 18.9682 49.697 18.7113 49.697 17.8708V4.65545Z" fill="#00FFFF"/>
<path d="M70.6122 11.6367C72.6902 11.6367 73.6008 13.4345 73.6008 15.5126C73.6008 18.3144 72.1065 19.3885 70.7523 19.3885C69.5148 19.3885 67.5068 18.7814 66.8764 16.9835C66.9932 17.0302 67.1099 17.0302 67.2266 17.0302C67.787 17.0302 68.2073 16.6567 68.2073 16.0496C68.2073 15.3725 67.6936 15.069 67.2266 15.069C66.8297 15.069 66.2227 15.2557 66.2227 16.1196C66.2227 18.2677 68.324 19.9488 70.799 19.9488C73.3907 19.9488 75.3753 17.9175 75.3753 15.5359C75.3753 13.2711 73.5074 11.6367 71.2893 11.3799C73.0638 11.0063 74.7683 9.41858 74.7683 7.29385C74.7683 5.47266 72.9237 4.14178 70.8223 4.14178C68.6976 4.14178 66.8297 5.44931 66.8297 7.3172C66.8297 8.1344 67.4368 8.27449 67.7403 8.27449C68.2306 8.27449 68.6509 7.97096 68.6509 7.3639C68.6509 6.75683 68.2306 6.4533 67.7403 6.4533C67.6469 6.4533 67.5302 6.4533 67.4368 6.5C68.1139 4.95899 69.9584 4.6788 70.7756 4.6788C71.5928 4.6788 73.1339 5.07573 73.1339 7.3172C73.1339 7.97096 73.0405 9.13839 72.2466 10.1657C71.5461 11.0763 70.7523 11.123 69.9818 11.1931C69.865 11.1931 69.328 11.2398 69.2346 11.2398C69.0712 11.2631 68.9778 11.2865 68.9778 11.4499C68.9778 11.6134 69.0011 11.6367 69.4681 11.6367H70.6122Z" fill="#00FFFF"/>
<path d="M93.6286 4.65545C93.6286 4.16513 93.6053 4.14178 93.2784 4.14178C92.3678 5.23917 90.9902 5.5894 89.6827 5.6361C89.6127 5.6361 89.4959 5.6361 89.4726 5.68279C89.4492 5.72949 89.4492 5.77619 89.4492 6.26651C90.173 6.26651 91.3872 6.12642 92.3211 5.56605V17.8708C92.3211 18.688 92.2744 18.9682 90.2664 18.9682H89.566V19.5752C90.6867 19.5519 91.8541 19.5285 92.9749 19.5285C94.0956 19.5285 95.263 19.5519 96.3838 19.5752V18.9682H95.6833C93.6753 18.9682 93.6286 18.7113 93.6286 17.8708V4.65545Z" fill="#00FFFF"/>
<path d="M119.19 12.0803C119.19 10.6561 119.166 8.2278 118.186 6.3599C117.322 4.7255 115.944 4.14178 114.73 4.14178C113.609 4.14178 112.185 4.65545 111.298 6.33656C110.364 8.08771 110.271 10.2591 110.271 12.0803C110.271 13.4112 110.294 15.4425 111.018 17.217C112.022 19.6219 113.82 19.9488 114.73 19.9488C115.804 19.9488 117.439 19.5052 118.396 17.2871C119.096 15.676 119.19 13.7848 119.19 12.0803ZM114.73 19.5752C113.236 19.5752 112.349 18.2911 112.022 16.5166C111.765 15.139 111.765 13.131 111.765 11.8235C111.765 10.0256 111.765 8.53133 112.068 7.10706C112.512 5.12243 113.82 4.51536 114.73 4.51536C115.687 4.51536 116.925 5.14578 117.368 7.06036C117.672 8.39124 117.695 9.9556 117.695 11.8235C117.695 13.3412 117.695 15.209 117.415 16.5866C116.925 19.1316 115.547 19.5752 114.73 19.5752Z" fill="#00FFFF"/>
<path d="M53.2225 44.1007H52.8022C52.5687 45.7584 52.3819 46.0386 52.2885 46.1787C52.1718 46.3655 50.4907 46.3655 50.1638 46.3655H45.6808C46.5214 45.4549 48.1558 43.7971 50.1404 41.8825C51.5647 40.5283 53.2225 38.9406 53.2225 36.6291C53.2225 33.874 51.0277 32.2863 48.5761 32.2863C46.0077 32.2863 44.4434 34.5511 44.4434 36.6525C44.4434 37.563 45.1205 37.6798 45.4007 37.6798C45.6341 37.6798 46.3346 37.5397 46.3346 36.7225C46.3346 35.9987 45.7275 35.7886 45.4007 35.7886C45.2606 35.7886 45.1205 35.8119 45.0271 35.8586C45.4707 33.874 46.8249 32.8933 48.2492 32.8933C50.2805 32.8933 51.6114 34.5044 51.6114 36.6291C51.6114 38.6604 50.4206 40.4116 49.0897 41.9292L44.4434 47.1827V47.7197H52.6621L53.2225 44.1007Z" fill="#00FFFF"/>
<path d="M75.9816 33.1735V32.6598H70.4947C67.7629 32.6598 67.7162 32.3563 67.6228 31.9127H67.2025L66.5254 36.2789H66.9457C67.0157 35.8352 67.1792 34.6445 67.4593 34.2008C67.5994 34.014 69.3272 34.014 69.7242 34.014H74.8609L72.2692 37.8666C70.5414 40.4583 69.3506 43.9606 69.3506 47.0192C69.3506 47.2994 69.3506 48.0933 70.1911 48.0933C71.0317 48.0933 71.0317 47.2994 71.0317 46.9959V45.9219C71.0317 42.0927 71.6854 39.571 72.7595 37.96L75.9816 33.1735Z" fill="#00FFFF"/>
<path d="M97.2239 40.2248C97.2239 38.8005 97.2005 36.3723 96.2199 34.5044C95.356 32.87 93.9784 32.2863 92.7643 32.2863C91.6435 32.2863 90.2193 32.7999 89.332 34.481C88.3981 36.2322 88.3047 38.4036 88.3047 40.2248C88.3047 41.5557 88.328 43.587 89.0518 45.3615C90.0558 47.7664 91.8537 48.0933 92.7643 48.0933C93.8383 48.0933 95.4727 47.6497 96.43 45.4315C97.1305 43.8205 97.2239 41.9292 97.2239 40.2248ZM92.7643 47.7197C91.27 47.7197 90.3827 46.4355 90.0558 44.661C89.799 43.2835 89.799 41.2755 89.799 39.968C89.799 38.1701 89.799 36.6758 90.1025 35.2515C90.5462 33.2669 91.8537 32.6598 92.7643 32.6598C93.7216 32.6598 94.9591 33.2902 95.4027 35.2048C95.7062 36.5357 95.7296 38.1001 95.7296 39.968C95.7296 41.4856 95.7296 43.3535 95.4494 44.7311C94.9591 47.2761 93.5815 47.7197 92.7643 47.7197Z" fill="#00FFFF"/>
<path d="M115.594 32.7999C115.594 32.3096 115.571 32.2863 115.244 32.2863C114.334 33.3836 112.956 33.7339 111.649 33.7806C111.578 33.7806 111.462 33.7806 111.438 33.8273C111.415 33.874 111.415 33.9207 111.415 34.411C112.139 34.411 113.353 34.2709 114.287 33.7105V46.0153C114.287 46.8325 114.24 47.1126 112.232 47.1126H111.532V47.7197C112.653 47.6964 113.82 47.673 114.941 47.673C116.061 47.673 117.229 47.6964 118.35 47.7197V47.1126H117.649C115.641 47.1126 115.594 46.8558 115.594 46.0153V32.7999Z" fill="#00FFFF"/>
<path d="M125.274 54.7292H120.418V56.0134H126.559V0H120.418V1.28418H125.274V54.7292Z" fill="#00FFFF"/>
<line x1="82.5" y1="1" x2="82.5" y2="55" stroke="#00FFFF"/>
<path d="M147.859 98.9846L147.808 98.4872L147.808 98.4872L147.859 98.9846ZM128.024 88.232L128.469 88.0035L128.469 88.0035L128.024 88.232ZM113.153 58.5239C112.89 58.4395 112.608 58.5842 112.524 58.8472L111.148 63.1318C111.064 63.3947 111.209 63.6763 111.472 63.7607C111.735 63.8451 112.016 63.7004 112.101 63.4375L113.323 59.6289L117.132 60.8516C117.395 60.936 117.676 60.7913 117.761 60.5284C117.845 60.2654 117.7 59.9839 117.437 59.8995L113.153 58.5239ZM184.385 94.7239L147.808 98.4872L147.91 99.482L184.488 95.7187L184.385 94.7239ZM128.469 88.0035L113.445 58.7714L112.555 59.2286L127.579 88.4606L128.469 88.0035ZM147.808 98.4872C139.818 99.3093 132.141 95.1476 128.469 88.0035L127.579 88.4606C131.44 95.9711 139.51 100.346 147.91 99.482L147.808 98.4872Z" fill="#00FFFF"/>
<path d="M190.397 86.8311C189.593 86.5999 189.007 86.3167 188.64 85.9814C188.275 85.6429 188.093 85.2262 188.093 84.7314C188.093 84.1715 188.316 83.7093 188.762 83.3447C189.211 82.9769 189.794 82.793 190.51 82.793C190.998 82.793 191.433 82.8874 191.813 83.0762C192.198 83.265 192.494 83.5254 192.702 83.8574C192.914 84.1895 193.02 84.5524 193.02 84.9463H192.077C192.077 84.5166 191.94 84.1797 191.667 83.9355C191.394 83.6882 191.008 83.5645 190.51 83.5645C190.048 83.5645 189.686 83.667 189.426 83.8721C189.169 84.0739 189.04 84.3555 189.04 84.7168C189.04 85.0065 189.162 85.2523 189.406 85.4541C189.654 85.6527 190.072 85.835 190.661 86.001C191.254 86.167 191.716 86.3509 192.048 86.5527C192.383 86.7513 192.631 86.984 192.79 87.251C192.953 87.5179 193.034 87.832 193.034 88.1934C193.034 88.7695 192.81 89.2318 192.36 89.5801C191.911 89.9251 191.311 90.0977 190.559 90.0977C190.07 90.0977 189.615 90.0049 189.191 89.8193C188.768 89.6305 188.441 89.3734 188.21 89.0479C187.982 88.7223 187.868 88.3529 187.868 87.9395H188.811C188.811 88.3691 188.968 88.7093 189.284 88.96C189.603 89.2074 190.028 89.3311 190.559 89.3311C191.053 89.3311 191.433 89.2301 191.696 89.0283C191.96 88.8265 192.092 88.5514 192.092 88.2031C192.092 87.8548 191.97 87.5863 191.726 87.3975C191.481 87.2054 191.039 87.0166 190.397 86.8311ZM195.324 83.4375V84.7168H196.311V85.415H195.324V88.6914C195.324 88.903 195.368 89.0625 195.456 89.1699C195.544 89.2741 195.694 89.3262 195.905 89.3262C196.009 89.3262 196.153 89.3066 196.335 89.2676V90C196.097 90.0651 195.866 90.0977 195.642 90.0977C195.238 90.0977 194.934 89.9756 194.729 89.7314C194.523 89.4873 194.421 89.1406 194.421 88.6914V85.415H193.459V84.7168H194.421V83.4375H195.324ZM198.352 90H197.448V84.7168H198.352V90ZM197.375 83.3154C197.375 83.1689 197.419 83.0452 197.507 82.9443C197.598 82.8434 197.731 82.793 197.907 82.793C198.083 82.793 198.216 82.8434 198.308 82.9443C198.399 83.0452 198.444 83.1689 198.444 83.3154C198.444 83.4619 198.399 83.584 198.308 83.6816C198.216 83.7793 198.083 83.8281 197.907 83.8281C197.731 83.8281 197.598 83.7793 197.507 83.6816C197.419 83.584 197.375 83.4619 197.375 83.3154ZM201.921 89.3604C202.243 89.3604 202.525 89.2627 202.766 89.0674C203.007 88.8721 203.14 88.6279 203.166 88.335H204.021C204.004 88.6377 203.9 88.9258 203.708 89.1992C203.516 89.4727 203.259 89.6908 202.937 89.8535C202.618 90.0163 202.279 90.0977 201.921 90.0977C201.201 90.0977 200.629 89.8584 200.202 89.3799C199.779 88.8981 199.567 88.2406 199.567 87.4072V87.2559C199.567 86.7415 199.662 86.2842 199.851 85.8838C200.039 85.4834 200.31 85.1725 200.661 84.9512C201.016 84.7298 201.434 84.6191 201.916 84.6191C202.508 84.6191 203 84.7965 203.391 85.1514C203.785 85.5062 203.994 85.9668 204.021 86.5332H203.166C203.14 86.1914 203.01 85.9115 202.775 85.6934C202.544 85.472 202.258 85.3613 201.916 85.3613C201.457 85.3613 201.101 85.5273 200.847 85.8594C200.596 86.1882 200.471 86.665 200.471 87.29V87.4609C200.471 88.0697 200.596 88.5384 200.847 88.8672C201.097 89.196 201.455 89.3604 201.921 89.3604ZM206.511 87.5537L205.944 88.1445V90H205.041V82.5H205.944V87.0361L206.428 86.4551L208.073 84.7168H209.172L207.116 86.9238L209.411 90H208.352L206.511 87.5537ZM215.139 85.5273C215.002 85.5046 214.854 85.4932 214.694 85.4932C214.102 85.4932 213.7 85.7454 213.488 86.25V90H212.585V84.7168H213.464L213.479 85.3271C213.775 84.8551 214.195 84.6191 214.738 84.6191C214.914 84.6191 215.048 84.6419 215.139 84.6875V85.5273ZM216.955 90H216.052V84.7168H216.955V90ZM215.979 83.3154C215.979 83.1689 216.022 83.0452 216.11 82.9443C216.201 82.8434 216.335 82.793 216.511 82.793C216.687 82.793 216.82 82.8434 216.911 82.9443C217.002 83.0452 217.048 83.1689 217.048 83.3154C217.048 83.4619 217.002 83.584 216.911 83.6816C216.82 83.7793 216.687 83.8281 216.511 83.8281C216.335 83.8281 216.201 83.7793 216.11 83.6816C216.022 83.584 215.979 83.4619 215.979 83.3154ZM218.19 87.3145C218.19 86.4909 218.381 85.8366 218.762 85.3516C219.143 84.8633 219.647 84.6191 220.275 84.6191C220.92 84.6191 221.423 84.847 221.784 85.3027L221.828 84.7168H222.653V89.873C222.653 90.5566 222.45 91.0954 222.043 91.4893C221.639 91.8831 221.096 92.0801 220.412 92.0801C220.031 92.0801 219.659 91.9987 219.294 91.8359C218.929 91.6732 218.651 91.4502 218.459 91.167L218.928 90.625C219.315 91.1035 219.789 91.3428 220.349 91.3428C220.788 91.3428 221.13 91.2191 221.374 90.9717C221.621 90.7243 221.745 90.376 221.745 89.9268V89.4727C221.384 89.8893 220.891 90.0977 220.266 90.0977C219.647 90.0977 219.146 89.8486 218.762 89.3506C218.381 88.8525 218.19 88.1738 218.19 87.3145ZM219.099 87.417C219.099 88.0127 219.221 88.4814 219.465 88.8232C219.709 89.1618 220.051 89.3311 220.49 89.3311C221.06 89.3311 221.478 89.0723 221.745 88.5547V86.1426C221.468 85.638 221.053 85.3857 220.5 85.3857C220.061 85.3857 219.717 85.5566 219.47 85.8984C219.222 86.2402 219.099 86.7464 219.099 87.417ZM224.924 85.3564C225.324 84.8649 225.845 84.6191 226.486 84.6191C227.603 84.6191 228.166 85.249 228.176 86.5088V90H227.272V86.5039C227.269 86.123 227.181 85.8415 227.009 85.6592C226.84 85.4769 226.574 85.3857 226.213 85.3857C225.92 85.3857 225.663 85.4639 225.441 85.6201C225.22 85.7764 225.048 85.9814 224.924 86.2354V90H224.021V82.5H224.924V85.3564ZM230.754 83.4375V84.7168H231.74V85.415H230.754V88.6914C230.754 88.903 230.798 89.0625 230.886 89.1699C230.974 89.2741 231.123 89.3262 231.335 89.3262C231.439 89.3262 231.582 89.3066 231.765 89.2676V90C231.527 90.0651 231.296 90.0977 231.071 90.0977C230.668 90.0977 230.363 89.9756 230.158 89.7314C229.953 89.4873 229.851 89.1406 229.851 88.6914V85.415H228.889V84.7168H229.851V83.4375H230.754ZM234.68 87.3486H232.297V86.6113H234.68V87.3486ZM236.467 85.3564C236.867 84.8649 237.388 84.6191 238.029 84.6191C239.146 84.6191 239.709 85.249 239.719 86.5088V90H238.815V86.5039C238.812 86.123 238.724 85.8415 238.552 85.6592C238.382 85.4769 238.117 85.3857 237.756 85.3857C237.463 85.3857 237.206 85.4639 236.984 85.6201C236.763 85.7764 236.59 85.9814 236.467 86.2354V90H235.563V82.5H236.467V85.3564ZM244.333 90C244.281 89.8958 244.239 89.7103 244.206 89.4434C243.786 89.8796 243.285 90.0977 242.702 90.0977C242.181 90.0977 241.753 89.9512 241.418 89.6582C241.086 89.362 240.92 88.9876 240.92 88.5352C240.92 87.985 241.128 87.5586 241.545 87.2559C241.965 86.9499 242.554 86.7969 243.312 86.7969H244.191V86.3818C244.191 86.0661 244.097 85.8154 243.908 85.6299C243.719 85.4411 243.441 85.3467 243.073 85.3467C242.751 85.3467 242.481 85.4281 242.263 85.5908C242.045 85.7536 241.936 85.9505 241.936 86.1816H241.027C241.027 85.918 241.12 85.6641 241.306 85.4199C241.494 85.1725 241.748 84.9772 242.067 84.834C242.39 84.6908 242.743 84.6191 243.127 84.6191C243.736 84.6191 244.213 84.7721 244.558 85.0781C244.903 85.3809 245.082 85.7992 245.095 86.333V88.7646C245.095 89.2497 245.157 89.6354 245.28 89.9219V90H244.333ZM242.834 89.3115C243.117 89.3115 243.386 89.2383 243.64 89.0918C243.894 88.9453 244.077 88.7549 244.191 88.5205V87.4365H243.483C242.377 87.4365 241.823 87.7604 241.823 88.4082C241.823 88.6914 241.918 88.9128 242.106 89.0723C242.295 89.2318 242.538 89.3115 242.834 89.3115ZM247.365 84.7168L247.395 85.3809C247.798 84.873 248.326 84.6191 248.977 84.6191C250.093 84.6191 250.656 85.249 250.666 86.5088V90H249.763V86.5039C249.759 86.123 249.672 85.8415 249.499 85.6592C249.33 85.4769 249.064 85.3857 248.703 85.3857C248.41 85.3857 248.153 85.4639 247.932 85.6201C247.71 85.7764 247.538 85.9814 247.414 86.2354V90H246.511V84.7168H247.365ZM251.809 87.3145C251.809 86.5039 252.001 85.8529 252.385 85.3613C252.769 84.8665 253.272 84.6191 253.894 84.6191C254.512 84.6191 255.002 84.8307 255.363 85.2539V82.5H256.267V90H255.437L255.393 89.4336C255.031 89.8763 254.528 90.0977 253.884 90.0977C253.272 90.0977 252.772 89.847 252.385 89.3457C252.001 88.8444 251.809 88.1901 251.809 87.3828V87.3145ZM252.712 87.417C252.712 88.016 252.836 88.4847 253.083 88.8232C253.33 89.1618 253.672 89.3311 254.108 89.3311C254.681 89.3311 255.1 89.0739 255.363 88.5596V86.1328C255.093 85.6348 254.678 85.3857 254.118 85.3857C253.675 85.3857 253.33 85.5566 253.083 85.8984C252.836 86.2402 252.712 86.7464 252.712 87.417ZM263.229 88.5986C263.229 88.3545 263.137 88.1657 262.951 88.0322C262.769 87.8955 262.448 87.7783 261.989 87.6807C261.534 87.583 261.171 87.4658 260.9 87.3291C260.633 87.1924 260.435 87.0296 260.305 86.8408C260.178 86.652 260.114 86.4274 260.114 86.167C260.114 85.734 260.297 85.3678 260.661 85.0684C261.029 84.7689 261.498 84.6191 262.067 84.6191C262.666 84.6191 263.151 84.7738 263.522 85.083C263.897 85.3923 264.084 85.7878 264.084 86.2695H263.176C263.176 86.0221 263.07 85.8089 262.858 85.6299C262.65 85.4508 262.386 85.3613 262.067 85.3613C261.739 85.3613 261.481 85.4329 261.296 85.5762C261.11 85.7194 261.018 85.9066 261.018 86.1377C261.018 86.3558 261.104 86.5202 261.276 86.6309C261.449 86.7415 261.76 86.8473 262.209 86.9482C262.661 87.0492 263.028 87.1696 263.308 87.3096C263.588 87.4495 263.794 87.6188 263.928 87.8174C264.064 88.0127 264.133 88.252 264.133 88.5352C264.133 89.0072 263.944 89.3864 263.566 89.6729C263.189 89.9561 262.699 90.0977 262.097 90.0977C261.674 90.0977 261.299 90.0228 260.974 89.873C260.648 89.7233 260.393 89.515 260.207 89.248C260.025 88.9779 259.934 88.6865 259.934 88.374H260.837C260.853 88.6768 260.974 88.9176 261.198 89.0967C261.426 89.2725 261.726 89.3604 262.097 89.3604C262.438 89.3604 262.712 89.292 262.917 89.1553C263.125 89.0153 263.229 88.8298 263.229 88.5986ZM266.291 90H265.388V84.7168H266.291V90ZM265.314 83.3154C265.314 83.1689 265.358 83.0452 265.446 82.9443C265.537 82.8434 265.671 82.793 265.847 82.793C266.022 82.793 266.156 82.8434 266.247 82.9443C266.338 83.0452 266.384 83.1689 266.384 83.3154C266.384 83.4619 266.338 83.584 266.247 83.6816C266.156 83.7793 266.022 83.8281 265.847 83.8281C265.671 83.8281 265.537 83.7793 265.446 83.6816C265.358 83.584 265.314 83.4619 265.314 83.3154ZM267.521 87.3145C267.521 86.5039 267.714 85.8529 268.098 85.3613C268.482 84.8665 268.985 84.6191 269.606 84.6191C270.225 84.6191 270.715 84.8307 271.076 85.2539V82.5H271.979V90H271.149L271.105 89.4336C270.744 89.8763 270.241 90.0977 269.597 90.0977C268.985 90.0977 268.485 89.847 268.098 89.3457C267.714 88.8444 267.521 88.1901 267.521 87.3828V87.3145ZM268.425 87.417C268.425 88.016 268.549 88.4847 268.796 88.8232C269.043 89.1618 269.385 89.3311 269.821 89.3311C270.394 89.3311 270.812 89.0739 271.076 88.5596V86.1328C270.806 85.6348 270.391 85.3857 269.831 85.3857C269.388 85.3857 269.043 85.5566 268.796 85.8984C268.549 86.2402 268.425 86.7464 268.425 87.417ZM275.578 90.0977C274.862 90.0977 274.279 89.8633 273.83 89.3945C273.381 88.9225 273.156 88.2926 273.156 87.5049V87.3389C273.156 86.8148 273.256 86.3477 273.454 85.9375C273.656 85.5241 273.936 85.2018 274.294 84.9707C274.655 84.7363 275.046 84.6191 275.466 84.6191C276.153 84.6191 276.687 84.8454 277.067 85.2979C277.448 85.7503 277.639 86.3981 277.639 87.2412V87.6172H274.06C274.073 88.138 274.224 88.5596 274.514 88.8818C274.807 89.2008 275.178 89.3604 275.627 89.3604C275.946 89.3604 276.216 89.2952 276.438 89.165C276.659 89.0348 276.853 88.8623 277.019 88.6475L277.57 89.0771C277.128 89.7575 276.464 90.0977 275.578 90.0977ZM275.466 85.3613C275.101 85.3613 274.795 85.4948 274.548 85.7617C274.3 86.0254 274.147 86.3965 274.089 86.875H276.735V86.8066C276.709 86.3477 276.586 85.9928 276.364 85.7422C276.143 85.4883 275.843 85.3613 275.466 85.3613ZM280.93 87.3096C280.93 86.792 281.031 86.3265 281.232 85.9131C281.438 85.4997 281.721 85.1807 282.082 84.9561C282.447 84.7314 282.862 84.6191 283.327 84.6191C284.047 84.6191 284.628 84.8682 285.07 85.3662C285.516 85.8643 285.739 86.5267 285.739 87.3535V87.417C285.739 87.9313 285.64 88.3936 285.441 88.8037C285.246 89.2106 284.965 89.528 284.597 89.7559C284.232 89.9837 283.812 90.0977 283.337 90.0977C282.621 90.0977 282.04 89.8486 281.594 89.3506C281.151 88.8525 280.93 88.1934 280.93 87.373V87.3096ZM281.838 87.417C281.838 88.0029 281.973 88.4733 282.243 88.8281C282.517 89.1829 282.881 89.3604 283.337 89.3604C283.796 89.3604 284.16 89.1813 284.431 88.8232C284.701 88.4619 284.836 87.9574 284.836 87.3096C284.836 86.7301 284.698 86.2614 284.421 85.9033C284.147 85.542 283.783 85.3613 283.327 85.3613C282.881 85.3613 282.521 85.5387 282.248 85.8936C281.975 86.2484 281.838 86.7562 281.838 87.417ZM287.727 84.7168L287.756 85.3809C288.16 84.873 288.687 84.6191 289.338 84.6191C290.454 84.6191 291.018 85.249 291.027 86.5088V90H290.124V86.5039C290.121 86.123 290.033 85.8415 289.86 85.6592C289.691 85.4769 289.426 85.3857 289.064 85.3857C288.771 85.3857 288.514 85.4639 288.293 85.6201C288.072 85.7764 287.899 85.9814 287.775 86.2354V90H286.872V84.7168H287.727ZM298.132 90C298.08 89.8958 298.037 89.7103 298.005 89.4434C297.585 89.8796 297.084 90.0977 296.501 90.0977C295.98 90.0977 295.552 89.9512 295.217 89.6582C294.885 89.362 294.719 88.9876 294.719 88.5352C294.719 87.985 294.927 87.5586 295.344 87.2559C295.764 86.9499 296.353 86.7969 297.111 86.7969H297.99V86.3818C297.99 86.0661 297.896 85.8154 297.707 85.6299C297.518 85.4411 297.24 85.3467 296.872 85.3467C296.55 85.3467 296.28 85.4281 296.062 85.5908C295.843 85.7536 295.734 85.9505 295.734 86.1816H294.826C294.826 85.918 294.919 85.6641 295.104 85.4199C295.293 85.1725 295.547 84.9772 295.866 84.834C296.188 84.6908 296.542 84.6191 296.926 84.6191C297.535 84.6191 298.011 84.7721 298.356 85.0781C298.701 85.3809 298.881 85.7992 298.894 86.333V88.7646C298.894 89.2497 298.955 89.6354 299.079 89.9219V90H298.132ZM296.633 89.3115C296.916 89.3115 297.185 89.2383 297.438 89.0918C297.692 88.9453 297.876 88.7549 297.99 88.5205V87.4365H297.282C296.175 87.4365 295.622 87.7604 295.622 88.4082C295.622 88.6914 295.716 88.9128 295.905 89.0723C296.094 89.2318 296.337 89.3115 296.633 89.3115ZM303.386 88.5986C303.386 88.3545 303.293 88.1657 303.107 88.0322C302.925 87.8955 302.604 87.7783 302.146 87.6807C301.69 87.583 301.327 87.4658 301.057 87.3291C300.79 87.1924 300.591 87.0296 300.461 86.8408C300.334 86.652 300.271 86.4274 300.271 86.167C300.271 85.734 300.453 85.3678 300.817 85.0684C301.185 84.7689 301.654 84.6191 302.224 84.6191C302.823 84.6191 303.308 84.7738 303.679 85.083C304.053 85.3923 304.24 85.7878 304.24 86.2695H303.332C303.332 86.0221 303.226 85.8089 303.015 85.6299C302.806 85.4508 302.543 85.3613 302.224 85.3613C301.895 85.3613 301.638 85.4329 301.452 85.5762C301.267 85.7194 301.174 85.9066 301.174 86.1377C301.174 86.3558 301.26 86.5202 301.433 86.6309C301.605 86.7415 301.916 86.8473 302.365 86.9482C302.818 87.0492 303.184 87.1696 303.464 87.3096C303.744 87.4495 303.951 87.6188 304.084 87.8174C304.221 88.0127 304.289 88.252 304.289 88.5352C304.289 89.0072 304.1 89.3864 303.723 89.6729C303.345 89.9561 302.855 90.0977 302.253 90.0977C301.83 90.0977 301.455 90.0228 301.13 89.873C300.804 89.7233 300.549 89.515 300.363 89.248C300.181 88.9779 300.09 88.6865 300.09 88.374H300.993C301.009 88.6768 301.13 88.9176 301.354 89.0967C301.582 89.2725 301.882 89.3604 302.253 89.3604C302.595 89.3604 302.868 89.292 303.073 89.1553C303.282 89.0153 303.386 88.8298 303.386 88.5986ZM311.208 90C311.156 89.8958 311.114 89.7103 311.081 89.4434C310.661 89.8796 310.16 90.0977 309.577 90.0977C309.056 90.0977 308.628 89.9512 308.293 89.6582C307.961 89.362 307.795 88.9876 307.795 88.5352C307.795 87.985 308.003 87.5586 308.42 87.2559C308.84 86.9499 309.429 86.7969 310.188 86.7969H311.066V86.3818C311.066 86.0661 310.972 85.8154 310.783 85.6299C310.594 85.4411 310.316 85.3467 309.948 85.3467C309.626 85.3467 309.356 85.4281 309.138 85.5908C308.92 85.7536 308.811 85.9505 308.811 86.1816H307.902C307.902 85.918 307.995 85.6641 308.181 85.4199C308.369 85.1725 308.623 84.9772 308.942 84.834C309.265 84.6908 309.618 84.6191 310.002 84.6191C310.611 84.6191 311.088 84.7721 311.433 85.0781C311.778 85.3809 311.957 85.7992 311.97 86.333V88.7646C311.97 89.2497 312.032 89.6354 312.155 89.9219V90H311.208ZM309.709 89.3115C309.992 89.3115 310.261 89.2383 310.515 89.0918C310.769 88.9453 310.952 88.7549 311.066 88.5205V87.4365H310.358C309.252 87.4365 308.698 87.7604 308.698 88.4082C308.698 88.6914 308.793 88.9128 308.981 89.0723C309.17 89.2318 309.413 89.3115 309.709 89.3115ZM314.24 84.7168L314.27 85.3809C314.673 84.873 315.201 84.6191 315.852 84.6191C316.968 84.6191 317.531 85.249 317.541 86.5088V90H316.638V86.5039C316.634 86.123 316.547 85.8415 316.374 85.6592C316.205 85.4769 315.939 85.3857 315.578 85.3857C315.285 85.3857 315.028 85.4639 314.807 85.6201C314.585 85.7764 314.413 85.9814 314.289 86.2354V90H313.386V84.7168H314.24ZM323.576 90.0977C322.86 90.0977 322.277 89.8633 321.828 89.3945C321.379 88.9225 321.154 88.2926 321.154 87.5049V87.3389C321.154 86.8148 321.254 86.3477 321.452 85.9375C321.654 85.5241 321.934 85.2018 322.292 84.9707C322.653 84.7363 323.044 84.6191 323.464 84.6191C324.151 84.6191 324.685 84.8454 325.065 85.2979C325.446 85.7503 325.637 86.3981 325.637 87.2412V87.6172H322.058C322.071 88.138 322.222 88.5596 322.512 88.8818C322.805 89.2008 323.176 89.3604 323.625 89.3604C323.944 89.3604 324.214 89.2952 324.436 89.165C324.657 89.0348 324.851 88.8623 325.017 88.6475L325.568 89.0771C325.126 89.7575 324.462 90.0977 323.576 90.0977ZM323.464 85.3613C323.099 85.3613 322.793 85.4948 322.546 85.7617C322.299 86.0254 322.146 86.3965 322.087 86.875H324.733V86.8066C324.707 86.3477 324.584 85.9928 324.362 85.7422C324.141 85.4883 323.841 85.3613 323.464 85.3613ZM328.459 86.6455L329.631 84.7168H330.686L328.957 87.3291L330.739 90H329.694L328.474 88.0225L327.253 90H326.203L327.985 87.3291L326.257 84.7168H327.302L328.459 86.6455ZM332.873 83.4375V84.7168H333.859V85.415H332.873V88.6914C332.873 88.903 332.917 89.0625 333.005 89.1699C333.093 89.2741 333.243 89.3262 333.454 89.3262C333.558 89.3262 333.701 89.3066 333.884 89.2676V90C333.646 90.0651 333.415 90.0977 333.19 90.0977C332.787 90.0977 332.482 89.9756 332.277 89.7314C332.072 89.4873 331.97 89.1406 331.97 88.6914V85.415H331.008V84.7168H331.97V83.4375H332.873ZM337.473 85.5273C337.336 85.5046 337.188 85.4932 337.028 85.4932C336.436 85.4932 336.034 85.7454 335.822 86.25V90H334.919V84.7168H335.798L335.812 85.3271C336.109 84.8551 336.529 84.6191 337.072 84.6191C337.248 84.6191 337.382 84.6419 337.473 84.6875V85.5273ZM341.374 90C341.322 89.8958 341.28 89.7103 341.247 89.4434C340.827 89.8796 340.326 90.0977 339.743 90.0977C339.222 90.0977 338.794 89.9512 338.459 89.6582C338.127 89.362 337.961 88.9876 337.961 88.5352C337.961 87.985 338.169 87.5586 338.586 87.2559C339.006 86.9499 339.595 86.7969 340.354 86.7969H341.232V86.3818C341.232 86.0661 341.138 85.8154 340.949 85.6299C340.76 85.4411 340.482 85.3467 340.114 85.3467C339.792 85.3467 339.522 85.4281 339.304 85.5908C339.086 85.7536 338.977 85.9505 338.977 86.1816H338.068C338.068 85.918 338.161 85.6641 338.347 85.4199C338.535 85.1725 338.789 84.9772 339.108 84.834C339.431 84.6908 339.784 84.6191 340.168 84.6191C340.777 84.6191 341.254 84.7721 341.599 85.0781C341.944 85.3809 342.123 85.7992 342.136 86.333V88.7646C342.136 89.2497 342.198 89.6354 342.321 89.9219V90H341.374ZM339.875 89.3115C340.158 89.3115 340.427 89.2383 340.681 89.0918C340.935 88.9453 341.118 88.7549 341.232 88.5205V87.4365H340.524C339.418 87.4365 338.864 87.7604 338.864 88.4082C338.864 88.6914 338.959 88.9128 339.147 89.0723C339.336 89.2318 339.579 89.3115 339.875 89.3115ZM348.151 89.3604C348.474 89.3604 348.755 89.2627 348.996 89.0674C349.237 88.8721 349.37 88.6279 349.396 88.335H350.251C350.235 88.6377 350.131 88.9258 349.938 89.1992C349.746 89.4727 349.489 89.6908 349.167 89.8535C348.848 90.0163 348.509 90.0977 348.151 90.0977C347.432 90.0977 346.859 89.8584 346.433 89.3799C346.009 88.8981 345.798 88.2406 345.798 87.4072V87.2559C345.798 86.7415 345.892 86.2842 346.081 85.8838C346.27 85.4834 346.54 85.1725 346.892 84.9512C347.246 84.7298 347.665 84.6191 348.146 84.6191C348.739 84.6191 349.23 84.7965 349.621 85.1514C350.015 85.5062 350.225 85.9668 350.251 86.5332H349.396C349.37 86.1914 349.24 85.9115 349.006 85.6934C348.775 85.472 348.488 85.3613 348.146 85.3613C347.688 85.3613 347.331 85.5273 347.077 85.8594C346.826 86.1882 346.701 86.665 346.701 87.29V87.4609C346.701 88.0697 346.826 88.5384 347.077 88.8672C347.328 89.196 347.686 89.3604 348.151 89.3604ZM351.027 87.3096C351.027 86.792 351.128 86.3265 351.33 85.9131C351.535 85.4997 351.818 85.1807 352.18 84.9561C352.544 84.7314 352.959 84.6191 353.425 84.6191C354.144 84.6191 354.725 84.8682 355.168 85.3662C355.614 85.8643 355.837 86.5267 355.837 87.3535V87.417C355.837 87.9313 355.738 88.3936 355.539 88.8037C355.344 89.2106 355.062 89.528 354.694 89.7559C354.33 89.9837 353.91 90.0977 353.435 90.0977C352.718 90.0977 352.137 89.8486 351.691 89.3506C351.249 88.8525 351.027 88.1934 351.027 87.373V87.3096ZM351.936 87.417C351.936 88.0029 352.071 88.4733 352.341 88.8281C352.614 89.1829 352.979 89.3604 353.435 89.3604C353.894 89.3604 354.258 89.1813 354.528 88.8232C354.799 88.4619 354.934 87.9574 354.934 87.3096C354.934 86.7301 354.795 86.2614 354.519 85.9033C354.245 85.542 353.881 85.3613 353.425 85.3613C352.979 85.3613 352.619 85.5387 352.346 85.8936C352.072 86.2484 351.936 86.7562 351.936 87.417ZM357.951 90H357.048V82.5H357.951V90ZM362.663 89.4775C362.312 89.891 361.796 90.0977 361.115 90.0977C360.552 90.0977 360.122 89.9349 359.826 89.6094C359.533 89.2806 359.385 88.7956 359.382 88.1543V84.7168H360.285V88.1299C360.285 88.9307 360.611 89.3311 361.262 89.3311C361.952 89.3311 362.411 89.0739 362.639 88.5596V84.7168H363.542V90H362.683L362.663 89.4775ZM365.769 84.7168L365.793 85.3027C366.18 84.847 366.703 84.6191 367.36 84.6191C368.099 84.6191 368.602 84.9023 368.869 85.4688C369.045 85.2148 369.273 85.0098 369.553 84.8535C369.836 84.6973 370.17 84.6191 370.554 84.6191C371.713 84.6191 372.302 85.2327 372.321 86.46V90H371.418V86.5137C371.418 86.1361 371.332 85.8545 371.159 85.6689C370.987 85.4801 370.697 85.3857 370.29 85.3857C369.955 85.3857 369.676 85.4867 369.455 85.6885C369.234 85.887 369.105 86.1556 369.069 86.4941V90H368.161V86.5381C368.161 85.7699 367.785 85.3857 367.033 85.3857C366.441 85.3857 366.035 85.638 365.817 86.1426V90H364.914V84.7168H365.769ZM374.543 84.7168L374.572 85.3809C374.976 84.873 375.503 84.6191 376.154 84.6191C377.271 84.6191 377.834 85.249 377.844 86.5088V90H376.94V86.5039C376.937 86.123 376.849 85.8415 376.677 85.6592C376.507 85.4769 376.242 85.3857 375.881 85.3857C375.588 85.3857 375.331 85.4639 375.109 85.6201C374.888 85.7764 374.715 85.9814 374.592 86.2354V90H373.688V84.7168H374.543ZM237.897 98.0254H233.825V97.2393H237.897V98.0254ZM237.897 100.052H233.825V99.2705H237.897V100.052ZM242.453 98.8262L239.226 97.5615V96.6338L243.396 98.4795V99.1924L239.226 101.043V100.105L242.453 98.8262ZM250.222 102C250.17 101.896 250.127 101.71 250.095 101.443C249.675 101.88 249.174 102.098 248.591 102.098C248.07 102.098 247.642 101.951 247.307 101.658C246.975 101.362 246.809 100.988 246.809 100.535C246.809 99.985 247.017 99.5586 247.434 99.2559C247.854 98.9499 248.443 98.7969 249.201 98.7969H250.08V98.3818C250.08 98.0661 249.986 97.8154 249.797 97.6299C249.608 97.4411 249.33 97.3467 248.962 97.3467C248.64 97.3467 248.369 97.4281 248.151 97.5908C247.933 97.7536 247.824 97.9505 247.824 98.1816H246.916C246.916 97.918 247.009 97.6641 247.194 97.4199C247.383 97.1725 247.637 96.9772 247.956 96.834C248.278 96.6908 248.632 96.6191 249.016 96.6191C249.624 96.6191 250.101 96.7721 250.446 97.0781C250.791 97.3809 250.97 97.7992 250.983 98.333V100.765C250.983 101.25 251.045 101.635 251.169 101.922V102H250.222ZM248.723 101.312C249.006 101.312 249.274 101.238 249.528 101.092C249.782 100.945 249.966 100.755 250.08 100.521V99.4365H249.372C248.265 99.4365 247.712 99.7604 247.712 100.408C247.712 100.691 247.806 100.913 247.995 101.072C248.184 101.232 248.426 101.312 248.723 101.312ZM255.661 101.478C255.31 101.891 254.794 102.098 254.113 102.098C253.55 102.098 253.12 101.935 252.824 101.609C252.531 101.281 252.383 100.796 252.38 100.154V96.7168H253.283V100.13C253.283 100.931 253.609 101.331 254.26 101.331C254.95 101.331 255.409 101.074 255.637 100.56V96.7168H256.54V102H255.681L255.661 101.478ZM257.702 99.3145C257.702 98.4909 257.893 97.8366 258.273 97.3516C258.654 96.8633 259.159 96.6191 259.787 96.6191C260.432 96.6191 260.935 96.847 261.296 97.3027L261.34 96.7168H262.165V101.873C262.165 102.557 261.962 103.095 261.555 103.489C261.151 103.883 260.607 104.08 259.924 104.08C259.543 104.08 259.17 103.999 258.806 103.836C258.441 103.673 258.163 103.45 257.971 103.167L258.439 102.625C258.827 103.104 259.3 103.343 259.86 103.343C260.3 103.343 260.642 103.219 260.886 102.972C261.133 102.724 261.257 102.376 261.257 101.927V101.473C260.896 101.889 260.402 102.098 259.777 102.098C259.159 102.098 258.658 101.849 258.273 101.351C257.893 100.853 257.702 100.174 257.702 99.3145ZM258.61 99.417C258.61 100.013 258.732 100.481 258.977 100.823C259.221 101.162 259.562 101.331 260.002 101.331C260.572 101.331 260.99 101.072 261.257 100.555V98.1426C260.98 97.638 260.565 97.3857 260.012 97.3857C259.572 97.3857 259.229 97.5566 258.981 97.8984C258.734 98.2402 258.61 98.7464 258.61 99.417ZM266.794 101.478C266.442 101.891 265.926 102.098 265.246 102.098C264.683 102.098 264.253 101.935 263.957 101.609C263.664 101.281 263.516 100.796 263.513 100.154V96.7168H264.416V100.13C264.416 100.931 264.742 101.331 265.393 101.331C266.083 101.331 266.542 101.074 266.77 100.56V96.7168H267.673V102H266.813L266.794 101.478ZM269.899 96.7168L269.924 97.3027C270.311 96.847 270.834 96.6191 271.491 96.6191C272.23 96.6191 272.733 96.9023 273 97.4688C273.176 97.2148 273.404 97.0098 273.684 96.8535C273.967 96.6973 274.3 96.6191 274.685 96.6191C275.843 96.6191 276.433 97.2327 276.452 98.46V102H275.549V98.5137C275.549 98.1361 275.463 97.8545 275.29 97.6689C275.118 97.4801 274.828 97.3857 274.421 97.3857C274.086 97.3857 273.807 97.4867 273.586 97.6885C273.365 97.887 273.236 98.1556 273.2 98.4941V102H272.292V98.5381C272.292 97.7699 271.916 97.3857 271.164 97.3857C270.572 97.3857 270.166 97.638 269.948 98.1426V102H269.045V96.7168H269.899ZM280.012 102.098C279.296 102.098 278.713 101.863 278.264 101.395C277.814 100.923 277.59 100.293 277.59 99.5049V99.3389C277.59 98.8148 277.689 98.3477 277.888 97.9375C278.09 97.5241 278.369 97.2018 278.728 96.9707C279.089 96.7363 279.479 96.6191 279.899 96.6191C280.586 96.6191 281.12 96.8454 281.501 97.2979C281.882 97.7503 282.072 98.3981 282.072 99.2412V99.6172H278.493C278.506 100.138 278.658 100.56 278.947 100.882C279.24 101.201 279.611 101.36 280.061 101.36C280.38 101.36 280.65 101.295 280.871 101.165C281.092 101.035 281.286 100.862 281.452 100.647L282.004 101.077C281.561 101.757 280.897 102.098 280.012 102.098ZM279.899 97.3613C279.535 97.3613 279.229 97.4948 278.981 97.7617C278.734 98.0254 278.581 98.3965 278.522 98.875H281.169V98.8066C281.143 98.3477 281.019 97.9928 280.798 97.7422C280.576 97.4883 280.277 97.3613 279.899 97.3613ZM283.977 96.7168L284.006 97.3809C284.41 96.873 284.937 96.6191 285.588 96.6191C286.704 96.6191 287.268 97.249 287.277 98.5088V102H286.374V98.5039C286.371 98.123 286.283 97.8415 286.11 97.6592C285.941 97.4769 285.676 97.3857 285.314 97.3857C285.021 97.3857 284.764 97.4639 284.543 97.6201C284.322 97.7764 284.149 97.9814 284.025 98.2354V102H283.122V96.7168H283.977ZM289.865 95.4375V96.7168H290.852V97.415H289.865V100.691C289.865 100.903 289.909 101.062 289.997 101.17C290.085 101.274 290.235 101.326 290.446 101.326C290.55 101.326 290.694 101.307 290.876 101.268V102C290.638 102.065 290.407 102.098 290.183 102.098C289.779 102.098 289.475 101.976 289.27 101.731C289.064 101.487 288.962 101.141 288.962 100.691V97.415H288V96.7168H288.962V95.4375H289.865ZM294.104 102.098C293.387 102.098 292.805 101.863 292.355 101.395C291.906 100.923 291.682 100.293 291.682 99.5049V99.3389C291.682 98.8148 291.781 98.3477 291.979 97.9375C292.181 97.5241 292.461 97.2018 292.819 96.9707C293.181 96.7363 293.571 96.6191 293.991 96.6191C294.678 96.6191 295.212 96.8454 295.593 97.2979C295.974 97.7503 296.164 98.3981 296.164 99.2412V99.6172H292.585C292.598 100.138 292.749 100.56 293.039 100.882C293.332 101.201 293.703 101.36 294.152 101.36C294.471 101.36 294.742 101.295 294.963 101.165C295.184 101.035 295.378 100.862 295.544 100.647L296.096 101.077C295.653 101.757 294.989 102.098 294.104 102.098ZM293.991 97.3613C293.627 97.3613 293.321 97.4948 293.073 97.7617C292.826 98.0254 292.673 98.3965 292.614 98.875H295.261V98.8066C295.235 98.3477 295.111 97.9928 294.89 97.7422C294.668 97.4883 294.369 97.3613 293.991 97.3613ZM296.994 99.3145C296.994 98.5039 297.186 97.8529 297.57 97.3613C297.954 96.8665 298.457 96.6191 299.079 96.6191C299.698 96.6191 300.188 96.8307 300.549 97.2539V94.5H301.452V102H300.622L300.578 101.434C300.217 101.876 299.714 102.098 299.069 102.098C298.457 102.098 297.958 101.847 297.57 101.346C297.186 100.844 296.994 100.19 296.994 99.3828V99.3145ZM297.897 99.417C297.897 100.016 298.021 100.485 298.269 100.823C298.516 101.162 298.858 101.331 299.294 101.331C299.867 101.331 300.285 101.074 300.549 100.56V98.1328C300.279 97.6348 299.864 97.3857 299.304 97.3857C298.861 97.3857 298.516 97.5566 298.269 97.8984C298.021 98.2402 297.897 98.7464 297.897 99.417ZM306.188 96.7168L306.213 97.3027C306.6 96.847 307.123 96.6191 307.78 96.6191C308.519 96.6191 309.022 96.9023 309.289 97.4688C309.465 97.2148 309.693 97.0098 309.973 96.8535C310.256 96.6973 310.59 96.6191 310.974 96.6191C312.132 96.6191 312.722 97.2327 312.741 98.46V102H311.838V98.5137C311.838 98.1361 311.752 97.8545 311.579 97.6689C311.407 97.4801 311.117 97.3857 310.71 97.3857C310.375 97.3857 310.096 97.4867 309.875 97.6885C309.654 97.887 309.525 98.1556 309.489 98.4941V102H308.581V98.5381C308.581 97.7699 308.205 97.3857 307.453 97.3857C306.861 97.3857 306.455 97.638 306.237 98.1426V102H305.334V96.7168H306.188ZM317.37 102C317.318 101.896 317.276 101.71 317.243 101.443C316.823 101.88 316.322 102.098 315.739 102.098C315.218 102.098 314.79 101.951 314.455 101.658C314.123 101.362 313.957 100.988 313.957 100.535C313.957 99.985 314.165 99.5586 314.582 99.2559C315.002 98.9499 315.591 98.7969 316.35 98.7969H317.229V98.3818C317.229 98.0661 317.134 97.8154 316.945 97.6299C316.757 97.4411 316.478 97.3467 316.11 97.3467C315.788 97.3467 315.518 97.4281 315.3 97.5908C315.082 97.7536 314.973 97.9505 314.973 98.1816H314.064C314.064 97.918 314.157 97.6641 314.343 97.4199C314.532 97.1725 314.785 96.9772 315.104 96.834C315.427 96.6908 315.78 96.6191 316.164 96.6191C316.773 96.6191 317.25 96.7721 317.595 97.0781C317.94 97.3809 318.119 97.7992 318.132 98.333V100.765C318.132 101.25 318.194 101.635 318.317 101.922V102H317.37ZM315.871 101.312C316.154 101.312 316.423 101.238 316.677 101.092C316.931 100.945 317.115 100.755 317.229 100.521V99.4365H316.521C315.414 99.4365 314.86 99.7604 314.86 100.408C314.86 100.691 314.955 100.913 315.144 101.072C315.332 101.232 315.575 101.312 315.871 101.312ZM320.773 95.4375V96.7168H321.76V97.415H320.773V100.691C320.773 100.903 320.817 101.062 320.905 101.17C320.993 101.274 321.143 101.326 321.354 101.326C321.459 101.326 321.602 101.307 321.784 101.268V102C321.547 102.065 321.315 102.098 321.091 102.098C320.687 102.098 320.383 101.976 320.178 101.731C319.973 101.487 319.87 101.141 319.87 100.691V97.415H318.908V96.7168H319.87V95.4375H320.773ZM325.373 97.5273C325.236 97.5046 325.088 97.4932 324.929 97.4932C324.336 97.4932 323.934 97.7454 323.723 98.25V102H322.819V96.7168H323.698L323.713 97.3271C324.009 96.8551 324.429 96.6191 324.973 96.6191C325.148 96.6191 325.282 96.6419 325.373 96.6875V97.5273ZM327.189 102H326.286V96.7168H327.189V102ZM326.213 95.3154C326.213 95.1689 326.257 95.0452 326.345 94.9443C326.436 94.8434 326.569 94.793 326.745 94.793C326.921 94.793 327.054 94.8434 327.146 94.9443C327.237 95.0452 327.282 95.1689 327.282 95.3154C327.282 95.4619 327.237 95.584 327.146 95.6816C327.054 95.7793 326.921 95.8281 326.745 95.8281C326.569 95.8281 326.436 95.7793 326.345 95.6816C326.257 95.584 326.213 95.4619 326.213 95.3154ZM330.412 98.6455L331.584 96.7168H332.639L330.91 99.3291L332.692 102H331.647L330.427 100.022L329.206 102H328.156L329.938 99.3291L328.21 96.7168H329.255L330.412 98.6455ZM195.48 111.114C195.48 110.379 195.578 109.672 195.773 108.995C195.972 108.318 196.267 107.703 196.657 107.149C197.048 106.596 197.453 106.205 197.873 105.978L198.059 106.573C197.583 106.938 197.193 107.494 196.887 108.243C196.584 108.992 196.418 109.83 196.389 110.758L196.384 111.173C196.384 112.429 196.613 113.52 197.072 114.444C197.349 114.998 197.678 115.431 198.059 115.743L197.873 116.295C197.44 116.054 197.027 115.65 196.633 115.084C195.865 113.977 195.48 112.654 195.48 111.114ZM198.713 111.314C198.713 110.504 198.905 109.853 199.289 109.361C199.673 108.867 200.176 108.619 200.798 108.619C201.416 108.619 201.906 108.831 202.268 109.254V106.5H203.171V114H202.341L202.297 113.434C201.936 113.876 201.433 114.098 200.788 114.098C200.176 114.098 199.676 113.847 199.289 113.346C198.905 112.844 198.713 112.19 198.713 111.383V111.314ZM199.616 111.417C199.616 112.016 199.74 112.485 199.987 112.823C200.235 113.162 200.576 113.331 201.013 113.331C201.586 113.331 202.004 113.074 202.268 112.56V110.133C201.997 109.635 201.582 109.386 201.022 109.386C200.58 109.386 200.235 109.557 199.987 109.898C199.74 110.24 199.616 110.746 199.616 111.417ZM204.338 111.31C204.338 110.792 204.439 110.326 204.641 109.913C204.846 109.5 205.129 109.181 205.49 108.956C205.855 108.731 206.27 108.619 206.735 108.619C207.455 108.619 208.036 108.868 208.479 109.366C208.924 109.864 209.147 110.527 209.147 111.354V111.417C209.147 111.931 209.048 112.394 208.85 112.804C208.654 113.211 208.373 113.528 208.005 113.756C207.64 113.984 207.22 114.098 206.745 114.098C206.029 114.098 205.448 113.849 205.002 113.351C204.559 112.853 204.338 112.193 204.338 111.373V111.31ZM205.246 111.417C205.246 112.003 205.381 112.473 205.651 112.828C205.925 113.183 206.289 113.36 206.745 113.36C207.204 113.36 207.569 113.181 207.839 112.823C208.109 112.462 208.244 111.957 208.244 111.31C208.244 110.73 208.106 110.261 207.829 109.903C207.556 109.542 207.191 109.361 206.735 109.361C206.289 109.361 205.93 109.539 205.656 109.894C205.383 110.248 205.246 110.756 205.246 111.417ZM215.837 112.599C215.837 112.354 215.744 112.166 215.559 112.032C215.376 111.896 215.056 111.778 214.597 111.681C214.141 111.583 213.778 111.466 213.508 111.329C213.241 111.192 213.042 111.03 212.912 110.841C212.785 110.652 212.722 110.427 212.722 110.167C212.722 109.734 212.904 109.368 213.269 109.068C213.636 108.769 214.105 108.619 214.675 108.619C215.274 108.619 215.759 108.774 216.13 109.083C216.504 109.392 216.691 109.788 216.691 110.27H215.783C215.783 110.022 215.677 109.809 215.466 109.63C215.257 109.451 214.994 109.361 214.675 109.361C214.346 109.361 214.089 109.433 213.903 109.576C213.718 109.719 213.625 109.907 213.625 110.138C213.625 110.356 213.711 110.52 213.884 110.631C214.056 110.742 214.367 110.847 214.816 110.948C215.269 111.049 215.635 111.17 215.915 111.31C216.195 111.45 216.402 111.619 216.535 111.817C216.672 112.013 216.74 112.252 216.74 112.535C216.74 113.007 216.551 113.386 216.174 113.673C215.796 113.956 215.306 114.098 214.704 114.098C214.281 114.098 213.907 114.023 213.581 113.873C213.256 113.723 213 113.515 212.814 113.248C212.632 112.978 212.541 112.687 212.541 112.374H213.444C213.461 112.677 213.581 112.918 213.806 113.097C214.034 113.272 214.333 113.36 214.704 113.36C215.046 113.36 215.319 113.292 215.524 113.155C215.733 113.015 215.837 112.83 215.837 112.599ZM221.179 114C221.127 113.896 221.084 113.71 221.052 113.443C220.632 113.88 220.131 114.098 219.548 114.098C219.027 114.098 218.599 113.951 218.264 113.658C217.932 113.362 217.766 112.988 217.766 112.535C217.766 111.985 217.974 111.559 218.391 111.256C218.811 110.95 219.4 110.797 220.158 110.797H221.037V110.382C221.037 110.066 220.943 109.815 220.754 109.63C220.565 109.441 220.287 109.347 219.919 109.347C219.597 109.347 219.326 109.428 219.108 109.591C218.89 109.754 218.781 109.951 218.781 110.182H217.873C217.873 109.918 217.966 109.664 218.151 109.42C218.34 109.173 218.594 108.977 218.913 108.834C219.235 108.691 219.589 108.619 219.973 108.619C220.581 108.619 221.058 108.772 221.403 109.078C221.748 109.381 221.927 109.799 221.94 110.333V112.765C221.94 113.25 222.002 113.635 222.126 113.922V114H221.179ZM219.68 113.312C219.963 113.312 220.231 113.238 220.485 113.092C220.739 112.945 220.923 112.755 221.037 112.521V111.437H220.329C219.222 111.437 218.669 111.76 218.669 112.408C218.669 112.691 218.763 112.913 218.952 113.072C219.141 113.232 219.383 113.312 219.68 113.312ZM224.206 108.717L224.23 109.303C224.618 108.847 225.14 108.619 225.798 108.619C226.537 108.619 227.04 108.902 227.307 109.469C227.482 109.215 227.71 109.01 227.99 108.854C228.273 108.697 228.607 108.619 228.991 108.619C230.15 108.619 230.739 109.233 230.759 110.46V114H229.855V110.514C229.855 110.136 229.769 109.854 229.597 109.669C229.424 109.48 229.134 109.386 228.728 109.386C228.392 109.386 228.114 109.487 227.893 109.688C227.671 109.887 227.543 110.156 227.507 110.494V114H226.599V110.538C226.599 109.77 226.223 109.386 225.471 109.386C224.878 109.386 224.473 109.638 224.255 110.143V114H223.352V108.717H224.206ZM234.318 114.098C233.602 114.098 233.02 113.863 232.57 113.395C232.121 112.923 231.896 112.293 231.896 111.505V111.339C231.896 110.815 231.996 110.348 232.194 109.938C232.396 109.524 232.676 109.202 233.034 108.971C233.396 108.736 233.786 108.619 234.206 108.619C234.893 108.619 235.427 108.845 235.808 109.298C236.188 109.75 236.379 110.398 236.379 111.241V111.617H232.8C232.813 112.138 232.964 112.56 233.254 112.882C233.547 113.201 233.918 113.36 234.367 113.36C234.686 113.36 234.956 113.295 235.178 113.165C235.399 113.035 235.593 112.862 235.759 112.647L236.311 113.077C235.868 113.757 235.204 114.098 234.318 114.098ZM234.206 109.361C233.841 109.361 233.535 109.495 233.288 109.762C233.041 110.025 232.888 110.396 232.829 110.875H235.476V110.807C235.45 110.348 235.326 109.993 235.104 109.742C234.883 109.488 234.584 109.361 234.206 109.361ZM241.135 107.438V108.717H242.121V109.415H241.135V112.691C241.135 112.903 241.179 113.062 241.267 113.17C241.354 113.274 241.504 113.326 241.716 113.326C241.82 113.326 241.963 113.307 242.146 113.268V114C241.908 114.065 241.677 114.098 241.452 114.098C241.049 114.098 240.744 113.976 240.539 113.731C240.334 113.487 240.231 113.141 240.231 112.691V109.415H239.27V108.717H240.231V107.438H241.135ZM244.084 109.356C244.484 108.865 245.005 108.619 245.646 108.619C246.763 108.619 247.326 109.249 247.336 110.509V114H246.433V110.504C246.429 110.123 246.341 109.841 246.169 109.659C246 109.477 245.734 109.386 245.373 109.386C245.08 109.386 244.823 109.464 244.602 109.62C244.38 109.776 244.208 109.981 244.084 110.235V114H243.181V106.5H244.084V109.356ZM249.67 114H248.767V108.717H249.67V114ZM248.693 107.315C248.693 107.169 248.737 107.045 248.825 106.944C248.916 106.843 249.05 106.793 249.226 106.793C249.401 106.793 249.535 106.843 249.626 106.944C249.717 107.045 249.763 107.169 249.763 107.315C249.763 107.462 249.717 107.584 249.626 107.682C249.535 107.779 249.401 107.828 249.226 107.828C249.05 107.828 248.916 107.779 248.825 107.682C248.737 107.584 248.693 107.462 248.693 107.315ZM251.975 108.717L252.004 109.381C252.408 108.873 252.935 108.619 253.586 108.619C254.702 108.619 255.266 109.249 255.275 110.509V114H254.372V110.504C254.369 110.123 254.281 109.841 254.108 109.659C253.939 109.477 253.674 109.386 253.312 109.386C253.02 109.386 252.762 109.464 252.541 109.62C252.32 109.776 252.147 109.981 252.023 110.235V114H251.12V108.717H251.975ZM256.423 111.314C256.423 110.491 256.613 109.837 256.994 109.352C257.375 108.863 257.88 108.619 258.508 108.619C259.152 108.619 259.655 108.847 260.017 109.303L260.061 108.717H260.886V113.873C260.886 114.557 260.682 115.095 260.275 115.489C259.872 115.883 259.328 116.08 258.645 116.08C258.264 116.08 257.891 115.999 257.526 115.836C257.162 115.673 256.883 115.45 256.691 115.167L257.16 114.625C257.548 115.104 258.021 115.343 258.581 115.343C259.021 115.343 259.362 115.219 259.606 114.972C259.854 114.724 259.978 114.376 259.978 113.927V113.473C259.616 113.889 259.123 114.098 258.498 114.098C257.88 114.098 257.378 113.849 256.994 113.351C256.613 112.853 256.423 112.174 256.423 111.314ZM257.331 111.417C257.331 112.013 257.453 112.481 257.697 112.823C257.941 113.162 258.283 113.331 258.723 113.331C259.292 113.331 259.711 113.072 259.978 112.555V110.143C259.701 109.638 259.286 109.386 258.732 109.386C258.293 109.386 257.95 109.557 257.702 109.898C257.455 110.24 257.331 110.746 257.331 111.417ZM265.329 112.599C265.329 112.354 265.236 112.166 265.051 112.032C264.868 111.896 264.548 111.778 264.089 111.681C263.633 111.583 263.27 111.466 263 111.329C262.733 111.192 262.535 111.03 262.404 110.841C262.277 110.652 262.214 110.427 262.214 110.167C262.214 109.734 262.396 109.368 262.761 109.068C263.129 108.769 263.597 108.619 264.167 108.619C264.766 108.619 265.251 108.774 265.622 109.083C265.996 109.392 266.184 109.788 266.184 110.27H265.275C265.275 110.022 265.17 109.809 264.958 109.63C264.75 109.451 264.486 109.361 264.167 109.361C263.838 109.361 263.581 109.433 263.396 109.576C263.21 109.719 263.117 109.907 263.117 110.138C263.117 110.356 263.203 110.52 263.376 110.631C263.549 110.742 263.859 110.847 264.309 110.948C264.761 111.049 265.127 111.17 265.407 111.31C265.687 111.45 265.894 111.619 266.027 111.817C266.164 112.013 266.232 112.252 266.232 112.535C266.232 113.007 266.044 113.386 265.666 113.673C265.288 113.956 264.799 114.098 264.196 114.098C263.773 114.098 263.399 114.023 263.073 113.873C262.748 113.723 262.492 113.515 262.307 113.248C262.124 112.978 262.033 112.687 262.033 112.374H262.937C262.953 112.677 263.073 112.918 263.298 113.097C263.526 113.272 263.825 113.36 264.196 113.36C264.538 113.36 264.812 113.292 265.017 113.155C265.225 113.015 265.329 112.83 265.329 112.599ZM274.567 112.755L275.583 108.717H276.486L274.948 114H274.216L272.932 109.996L271.682 114H270.949L269.416 108.717H270.314L271.354 112.672L272.585 108.717H273.312L274.567 112.755ZM278.391 114H277.487V108.717H278.391V114ZM277.414 107.315C277.414 107.169 277.458 107.045 277.546 106.944C277.637 106.843 277.771 106.793 277.946 106.793C278.122 106.793 278.256 106.843 278.347 106.944C278.438 107.045 278.483 107.169 278.483 107.315C278.483 107.462 278.438 107.584 278.347 107.682C278.256 107.779 278.122 107.828 277.946 107.828C277.771 107.828 277.637 107.779 277.546 107.682C277.458 107.584 277.414 107.462 277.414 107.315ZM281.066 107.438V108.717H282.053V109.415H281.066V112.691C281.066 112.903 281.11 113.062 281.198 113.17C281.286 113.274 281.436 113.326 281.647 113.326C281.752 113.326 281.895 113.307 282.077 113.268V114C281.84 114.065 281.608 114.098 281.384 114.098C280.98 114.098 280.676 113.976 280.471 113.731C280.266 113.487 280.163 113.141 280.163 112.691V109.415H279.201V108.717H280.163V107.438H281.066ZM284.016 109.356C284.416 108.865 284.937 108.619 285.578 108.619C286.695 108.619 287.258 109.249 287.268 110.509V114H286.364V110.504C286.361 110.123 286.273 109.841 286.101 109.659C285.931 109.477 285.666 109.386 285.305 109.386C285.012 109.386 284.755 109.464 284.533 109.62C284.312 109.776 284.139 109.981 284.016 110.235V114H283.112V106.5H284.016V109.356ZM292.082 114H291.179V106.5H292.082V114ZM295.725 114.098C295.008 114.098 294.426 113.863 293.977 113.395C293.527 112.923 293.303 112.293 293.303 111.505V111.339C293.303 110.815 293.402 110.348 293.601 109.938C293.802 109.524 294.082 109.202 294.44 108.971C294.802 108.736 295.192 108.619 295.612 108.619C296.299 108.619 296.833 108.845 297.214 109.298C297.595 109.75 297.785 110.398 297.785 111.241V111.617H294.206C294.219 112.138 294.37 112.56 294.66 112.882C294.953 113.201 295.324 113.36 295.773 113.36C296.092 113.36 296.363 113.295 296.584 113.165C296.805 113.035 296.999 112.862 297.165 112.647L297.717 113.077C297.274 113.757 296.61 114.098 295.725 114.098ZM295.612 109.361C295.248 109.361 294.942 109.495 294.694 109.762C294.447 110.025 294.294 110.396 294.235 110.875H296.882V110.807C296.856 110.348 296.732 109.993 296.511 109.742C296.289 109.488 295.99 109.361 295.612 109.361ZM299.279 114V109.415H298.444V108.717H299.279V108.175C299.279 107.608 299.431 107.171 299.733 106.861C300.036 106.552 300.464 106.397 301.018 106.397C301.226 106.397 301.433 106.425 301.638 106.48L301.589 107.213C301.436 107.184 301.273 107.169 301.101 107.169C300.808 107.169 300.581 107.255 300.422 107.428C300.262 107.597 300.183 107.841 300.183 108.16V108.717H301.311V109.415H300.183V114H299.279ZM303.537 107.438V108.717H304.523V109.415H303.537V112.691C303.537 112.903 303.581 113.062 303.669 113.17C303.757 113.274 303.907 113.326 304.118 113.326C304.222 113.326 304.366 113.307 304.548 113.268V114C304.31 114.065 304.079 114.098 303.854 114.098C303.451 114.098 303.146 113.976 302.941 113.731C302.736 113.487 302.634 113.141 302.634 112.691V109.415H301.672V108.717H302.634V107.438H303.537ZM311.325 114C311.273 113.896 311.231 113.71 311.198 113.443C310.778 113.88 310.277 114.098 309.694 114.098C309.174 114.098 308.745 113.951 308.41 113.658C308.078 113.362 307.912 112.988 307.912 112.535C307.912 111.985 308.12 111.559 308.537 111.256C308.957 110.95 309.546 110.797 310.305 110.797H311.184V110.382C311.184 110.066 311.089 109.815 310.9 109.63C310.712 109.441 310.433 109.347 310.065 109.347C309.743 109.347 309.473 109.428 309.255 109.591C309.037 109.754 308.928 109.951 308.928 110.182H308.02C308.02 109.918 308.112 109.664 308.298 109.42C308.487 109.173 308.741 108.977 309.06 108.834C309.382 108.691 309.735 108.619 310.119 108.619C310.728 108.619 311.205 108.772 311.55 109.078C311.895 109.381 312.074 109.799 312.087 110.333V112.765C312.087 113.25 312.149 113.635 312.272 113.922V114H311.325ZM309.826 113.312C310.109 113.312 310.378 113.238 310.632 113.092C310.886 112.945 311.07 112.755 311.184 112.521V111.437H310.476C309.369 111.437 308.815 111.76 308.815 112.408C308.815 112.691 308.91 112.913 309.099 113.072C309.287 113.232 309.53 113.312 309.826 113.312ZM314.357 108.717L314.387 109.381C314.79 108.873 315.318 108.619 315.969 108.619C317.085 108.619 317.648 109.249 317.658 110.509V114H316.755V110.504C316.752 110.123 316.664 109.841 316.491 109.659C316.322 109.477 316.057 109.386 315.695 109.386C315.402 109.386 315.145 109.464 314.924 109.62C314.702 109.776 314.53 109.981 314.406 110.235V114H313.503V108.717H314.357ZM318.801 111.314C318.801 110.504 318.993 109.853 319.377 109.361C319.761 108.867 320.264 108.619 320.886 108.619C321.504 108.619 321.994 108.831 322.355 109.254V106.5H323.259V114H322.429L322.385 113.434C322.023 113.876 321.521 114.098 320.876 114.098C320.264 114.098 319.764 113.847 319.377 113.346C318.993 112.844 318.801 112.19 318.801 111.383V111.314ZM319.704 111.417C319.704 112.016 319.828 112.485 320.075 112.823C320.323 113.162 320.664 113.331 321.101 113.331C321.674 113.331 322.092 113.074 322.355 112.56V110.133C322.085 109.635 321.67 109.386 321.11 109.386C320.668 109.386 320.323 109.557 320.075 109.898C319.828 110.24 319.704 110.746 319.704 111.417ZM329.699 109.527C329.562 109.505 329.414 109.493 329.255 109.493C328.662 109.493 328.26 109.745 328.049 110.25V114H327.146V108.717H328.024L328.039 109.327C328.335 108.855 328.755 108.619 329.299 108.619C329.475 108.619 329.608 108.642 329.699 108.688V109.527ZM331.516 114H330.612V108.717H331.516V114ZM330.539 107.315C330.539 107.169 330.583 107.045 330.671 106.944C330.762 106.843 330.896 106.793 331.071 106.793C331.247 106.793 331.381 106.843 331.472 106.944C331.563 107.045 331.608 107.169 331.608 107.315C331.608 107.462 331.563 107.584 331.472 107.682C331.381 107.779 331.247 107.828 331.071 107.828C330.896 107.828 330.762 107.779 330.671 107.682C330.583 107.584 330.539 107.462 330.539 107.315ZM332.751 111.314C332.751 110.491 332.941 109.837 333.322 109.352C333.703 108.863 334.208 108.619 334.836 108.619C335.48 108.619 335.983 108.847 336.345 109.303L336.389 108.717H337.214V113.873C337.214 114.557 337.01 115.095 336.604 115.489C336.2 115.883 335.656 116.08 334.973 116.08C334.592 116.08 334.219 115.999 333.854 115.836C333.49 115.673 333.212 115.45 333.02 115.167L333.488 114.625C333.876 115.104 334.349 115.343 334.909 115.343C335.349 115.343 335.69 115.219 335.935 114.972C336.182 114.724 336.306 114.376 336.306 113.927V113.473C335.944 113.889 335.451 114.098 334.826 114.098C334.208 114.098 333.706 113.849 333.322 113.351C332.941 112.853 332.751 112.174 332.751 111.314ZM333.659 111.417C333.659 112.013 333.781 112.481 334.025 112.823C334.27 113.162 334.611 113.331 335.051 113.331C335.62 113.331 336.039 113.072 336.306 112.555V110.143C336.029 109.638 335.614 109.386 335.061 109.386C334.621 109.386 334.278 109.557 334.03 109.898C333.783 110.24 333.659 110.746 333.659 111.417ZM339.484 109.356C339.885 108.865 340.406 108.619 341.047 108.619C342.163 108.619 342.727 109.249 342.736 110.509V114H341.833V110.504C341.83 110.123 341.742 109.841 341.569 109.659C341.4 109.477 341.135 109.386 340.773 109.386C340.48 109.386 340.223 109.464 340.002 109.62C339.781 109.776 339.608 109.981 339.484 110.235V114H338.581V106.5H339.484V109.356ZM345.314 107.438V108.717H346.301V109.415H345.314V112.691C345.314 112.903 345.358 113.062 345.446 113.17C345.534 113.274 345.684 113.326 345.896 113.326C346 113.326 346.143 113.307 346.325 113.268V114C346.088 114.065 345.856 114.098 345.632 114.098C345.228 114.098 344.924 113.976 344.719 113.731C344.514 113.487 344.411 113.141 344.411 112.691V109.415H343.449V108.717H344.411V107.438H345.314ZM352.917 112.599C352.917 112.354 352.824 112.166 352.639 112.032C352.456 111.896 352.136 111.778 351.677 111.681C351.221 111.583 350.858 111.466 350.588 111.329C350.321 111.192 350.122 111.03 349.992 110.841C349.865 110.652 349.802 110.427 349.802 110.167C349.802 109.734 349.984 109.368 350.349 109.068C350.716 108.769 351.185 108.619 351.755 108.619C352.354 108.619 352.839 108.774 353.21 109.083C353.584 109.392 353.771 109.788 353.771 110.27H352.863C352.863 110.022 352.757 109.809 352.546 109.63C352.338 109.451 352.074 109.361 351.755 109.361C351.426 109.361 351.169 109.433 350.983 109.576C350.798 109.719 350.705 109.907 350.705 110.138C350.705 110.356 350.791 110.52 350.964 110.631C351.136 110.742 351.447 110.847 351.896 110.948C352.349 111.049 352.715 111.17 352.995 111.31C353.275 111.45 353.482 111.619 353.615 111.817C353.752 112.013 353.82 112.252 353.82 112.535C353.82 113.007 353.632 113.386 353.254 113.673C352.876 113.956 352.386 114.098 351.784 114.098C351.361 114.098 350.987 114.023 350.661 113.873C350.336 113.723 350.08 113.515 349.895 113.248C349.712 112.978 349.621 112.687 349.621 112.374H350.524C350.541 112.677 350.661 112.918 350.886 113.097C351.114 113.272 351.413 113.36 351.784 113.36C352.126 113.36 352.399 113.292 352.604 113.155C352.813 113.015 352.917 112.83 352.917 112.599ZM355.979 114H355.075V108.717H355.979V114ZM355.002 107.315C355.002 107.169 355.046 107.045 355.134 106.944C355.225 106.843 355.358 106.793 355.534 106.793C355.71 106.793 355.843 106.843 355.935 106.944C356.026 107.045 356.071 107.169 356.071 107.315C356.071 107.462 356.026 107.584 355.935 107.682C355.843 107.779 355.71 107.828 355.534 107.828C355.358 107.828 355.225 107.779 355.134 107.682C355.046 107.584 355.002 107.462 355.002 107.315ZM357.209 111.314C357.209 110.504 357.401 109.853 357.785 109.361C358.169 108.867 358.672 108.619 359.294 108.619C359.912 108.619 360.402 108.831 360.764 109.254V106.5H361.667V114H360.837L360.793 113.434C360.432 113.876 359.929 114.098 359.284 114.098C358.672 114.098 358.173 113.847 357.785 113.346C357.401 112.844 357.209 112.19 357.209 111.383V111.314ZM358.112 111.417C358.112 112.016 358.236 112.485 358.483 112.823C358.731 113.162 359.073 113.331 359.509 113.331C360.082 113.331 360.5 113.074 360.764 112.56V110.133C360.493 109.635 360.078 109.386 359.519 109.386C359.076 109.386 358.731 109.557 358.483 109.898C358.236 110.24 358.112 110.746 358.112 111.417ZM365.266 114.098C364.549 114.098 363.967 113.863 363.518 113.395C363.068 112.923 362.844 112.293 362.844 111.505V111.339C362.844 110.815 362.943 110.348 363.142 109.938C363.343 109.524 363.623 109.202 363.981 108.971C364.343 108.736 364.733 108.619 365.153 108.619C365.84 108.619 366.374 108.845 366.755 109.298C367.136 109.75 367.326 110.398 367.326 111.241V111.617H363.747C363.76 112.138 363.911 112.56 364.201 112.882C364.494 113.201 364.865 113.36 365.314 113.36C365.633 113.36 365.904 113.295 366.125 113.165C366.346 113.035 366.54 112.862 366.706 112.647L367.258 113.077C366.815 113.757 366.151 114.098 365.266 114.098ZM365.153 109.361C364.789 109.361 364.483 109.495 364.235 109.762C363.988 110.025 363.835 110.396 363.776 110.875H366.423V110.807C366.397 110.348 366.273 109.993 366.052 109.742C365.83 109.488 365.531 109.361 365.153 109.361ZM370.461 111.163C370.461 111.889 370.365 112.586 370.173 113.253C369.984 113.917 369.693 114.531 369.299 115.094C368.908 115.657 368.498 116.057 368.068 116.295L367.878 115.743C368.379 115.359 368.781 114.763 369.084 113.956C369.39 113.146 369.546 112.247 369.553 111.261V111.104C369.553 110.421 369.481 109.786 369.338 109.2C369.195 108.611 368.994 108.084 368.737 107.618C368.483 107.153 368.197 106.79 367.878 106.529L368.068 105.978C368.498 106.215 368.907 106.612 369.294 107.169C369.685 107.726 369.976 108.339 370.168 109.01C370.363 109.68 370.461 110.398 370.461 111.163Z" fill="#00FFFF"/>
<path d="M12.5 110.995C12.4974 111.271 12.7191 111.497 12.9952 111.5L17.495 111.543C17.7712 111.545 17.9971 111.324 17.9998 111.048C18.0024 110.771 17.7807 110.546 17.5046 110.543L13.5047 110.505L13.5428 106.505C13.5455 106.229 13.3237 106.003 13.0476 106C12.7715 105.998 12.5455 106.219 12.5429 106.495L12.5 110.995ZM65.6498 58.6431L12.6498 110.643L13.3502 111.357L66.3502 59.3569L65.6498 58.6431Z" fill="#00FFFF"/>
<path d="M88.5746 114.263C88.7197 114.498 89.0278 114.571 89.2627 114.425L93.0913 112.061C93.3263 111.916 93.3991 111.607 93.254 111.373C93.1089 111.138 92.8008 111.065 92.5658 111.21L89.1627 113.312L87.0607 109.909C86.9156 109.674 86.6075 109.601 86.3725 109.746C86.1376 109.891 86.0648 110.199 86.2099 110.434L88.5746 114.263ZM101.513 58.885L88.5134 113.885L89.4866 114.115L102.487 59.115L101.513 58.885Z" fill="#00FFFF"/>
<path d="M12.1416 151C12.0895 150.896 12.0472 150.71 12.0146 150.443C11.5947 150.88 11.0934 151.098 10.5107 151.098C9.98991 151.098 9.56185 150.951 9.22656 150.658C8.89453 150.362 8.72852 149.988 8.72852 149.535C8.72852 148.985 8.93685 148.559 9.35352 148.256C9.77344 147.95 10.3626 147.797 11.1211 147.797H12V147.382C12 147.066 11.9056 146.815 11.7168 146.63C11.528 146.441 11.2497 146.347 10.8818 146.347C10.5596 146.347 10.2894 146.428 10.0713 146.591C9.85319 146.754 9.74414 146.951 9.74414 147.182H8.83594C8.83594 146.918 8.92871 146.664 9.11426 146.42C9.30306 146.173 9.55697 145.977 9.87598 145.834C10.1982 145.691 10.5514 145.619 10.9355 145.619C11.5443 145.619 12.0212 145.772 12.3662 146.078C12.7113 146.381 12.8903 146.799 12.9033 147.333V149.765C12.9033 150.25 12.9652 150.635 13.0889 150.922V151H12.1416ZM10.6426 150.312C10.9258 150.312 11.1943 150.238 11.4482 150.092C11.7021 149.945 11.8861 149.755 12 149.521V148.437H11.292C10.1852 148.437 9.63184 148.76 9.63184 149.408C9.63184 149.691 9.72624 149.913 9.91504 150.072C10.1038 150.232 10.3464 150.312 10.6426 150.312ZM14.7637 151V146.415H13.9287V145.717H14.7637V145.175C14.7637 144.608 14.915 144.171 15.2178 143.861C15.5205 143.552 15.9486 143.397 16.502 143.397C16.7103 143.397 16.917 143.425 17.1221 143.48L17.0732 144.213C16.9202 144.184 16.7575 144.169 16.585 144.169C16.292 144.169 16.0658 144.255 15.9062 144.428C15.7467 144.597 15.667 144.841 15.667 145.16V145.717H16.7949V146.415H15.667V151H14.7637ZM19.0215 144.438V145.717H20.0078V146.415H19.0215V149.691C19.0215 149.903 19.0654 150.062 19.1533 150.17C19.2412 150.274 19.391 150.326 19.6025 150.326C19.7067 150.326 19.8499 150.307 20.0322 150.268V151C19.7946 151.065 19.5635 151.098 19.3389 151.098C18.9352 151.098 18.6309 150.976 18.4258 150.731C18.2207 150.487 18.1182 150.141 18.1182 149.691V146.415H17.1562V145.717H18.1182V144.438H19.0215ZM23.2598 151.098C22.5436 151.098 21.9609 150.863 21.5117 150.395C21.0625 149.923 20.8379 149.293 20.8379 148.505V148.339C20.8379 147.815 20.9372 147.348 21.1357 146.938C21.3376 146.524 21.6175 146.202 21.9756 145.971C22.3369 145.736 22.7275 145.619 23.1475 145.619C23.8343 145.619 24.3682 145.845 24.749 146.298C25.1299 146.75 25.3203 147.398 25.3203 148.241V148.617H21.7412C21.7542 149.138 21.9056 149.56 22.1953 149.882C22.4883 150.201 22.8594 150.36 23.3086 150.36C23.6276 150.36 23.8978 150.295 24.1191 150.165C24.3405 150.035 24.5342 149.862 24.7002 149.647L25.252 150.077C24.8092 150.757 24.1452 151.098 23.2598 151.098ZM23.1475 146.361C22.7829 146.361 22.4769 146.495 22.2295 146.762C21.9821 147.025 21.8291 147.396 21.7705 147.875H24.417V147.807C24.391 147.348 24.2673 146.993 24.0459 146.742C23.8245 146.488 23.5251 146.361 23.1475 146.361ZM28.9238 146.527C28.7871 146.505 28.639 146.493 28.4795 146.493C27.887 146.493 27.485 146.745 27.2734 147.25V151H26.3701V145.717H27.249L27.2637 146.327C27.5599 145.855 27.9798 145.619 28.5234 145.619C28.6992 145.619 28.8327 145.642 28.9238 145.688V146.527ZM34.4316 151.098C33.7155 151.098 33.1328 150.863 32.6836 150.395C32.2344 149.923 32.0098 149.293 32.0098 148.505V148.339C32.0098 147.815 32.109 147.348 32.3076 146.938C32.5094 146.524 32.7894 146.202 33.1475 145.971C33.5088 145.736 33.8994 145.619 34.3193 145.619C35.0062 145.619 35.54 145.845 35.9209 146.298C36.3018 146.75 36.4922 147.398 36.4922 148.241V148.617H32.9131C32.9261 149.138 33.0775 149.56 33.3672 149.882C33.6602 150.201 34.0312 150.36 34.4805 150.36C34.7995 150.36 35.0697 150.295 35.291 150.165C35.5124 150.035 35.7061 149.862 35.8721 149.647L36.4238 150.077C35.9811 150.757 35.3171 151.098 34.4316 151.098ZM34.3193 146.361C33.9548 146.361 33.6488 146.495 33.4014 146.762C33.154 147.025 33.001 147.396 32.9424 147.875H35.5889V147.807C35.5628 147.348 35.4391 146.993 35.2178 146.742C34.9964 146.488 34.6969 146.361 34.3193 146.361ZM38.5234 151H37.6201V143.5H38.5234V151ZM40.9551 151H40.0518V145.717H40.9551V151ZM39.9785 144.315C39.9785 144.169 40.0225 144.045 40.1104 143.944C40.2015 143.843 40.335 143.793 40.5107 143.793C40.6865 143.793 40.82 143.843 40.9111 143.944C41.0023 144.045 41.0479 144.169 41.0479 144.315C41.0479 144.462 41.0023 144.584 40.9111 144.682C40.82 144.779 40.6865 144.828 40.5107 144.828C40.335 144.828 40.2015 144.779 40.1104 144.682C40.0225 144.584 39.9785 144.462 39.9785 144.315ZM43.2549 145.717L43.2793 146.303C43.6667 145.847 44.1891 145.619 44.8467 145.619C45.5856 145.619 46.0885 145.902 46.3555 146.469C46.5312 146.215 46.7591 146.01 47.0391 145.854C47.3223 145.697 47.6559 145.619 48.04 145.619C49.1989 145.619 49.7881 146.233 49.8076 147.46V151H48.9043V147.514C48.9043 147.136 48.818 146.854 48.6455 146.669C48.473 146.48 48.1833 146.386 47.7764 146.386C47.4411 146.386 47.1628 146.487 46.9414 146.688C46.7201 146.887 46.5915 147.156 46.5557 147.494V151H45.6475V147.538C45.6475 146.77 45.2715 146.386 44.5195 146.386C43.9271 146.386 43.5218 146.638 43.3037 147.143V151H42.4004V145.717H43.2549ZM52.1562 151H51.2529V145.717H52.1562V151ZM51.1797 144.315C51.1797 144.169 51.2236 144.045 51.3115 143.944C51.4027 143.843 51.5361 143.793 51.7119 143.793C51.8877 143.793 52.0212 143.843 52.1123 143.944C52.2035 144.045 52.249 144.169 52.249 144.315C52.249 144.462 52.2035 144.584 52.1123 144.682C52.0212 144.779 51.8877 144.828 51.7119 144.828C51.5361 144.828 51.4027 144.779 51.3115 144.682C51.2236 144.584 51.1797 144.462 51.1797 144.315ZM54.4609 145.717L54.4902 146.381C54.8939 145.873 55.4212 145.619 56.0723 145.619C57.1888 145.619 57.752 146.249 57.7617 147.509V151H56.8584V147.504C56.8551 147.123 56.7673 146.841 56.5947 146.659C56.4255 146.477 56.1602 146.386 55.7988 146.386C55.5059 146.386 55.2487 146.464 55.0273 146.62C54.806 146.776 54.6335 146.981 54.5098 147.235V151H53.6064V145.717H54.4609ZM62.3857 151C62.3337 150.896 62.2913 150.71 62.2588 150.443C61.8389 150.88 61.3376 151.098 60.7549 151.098C60.234 151.098 59.806 150.951 59.4707 150.658C59.1387 150.362 58.9727 149.988 58.9727 149.535C58.9727 148.985 59.181 148.559 59.5977 148.256C60.0176 147.95 60.6068 147.797 61.3652 147.797H62.2441V147.382C62.2441 147.066 62.1497 146.815 61.9609 146.63C61.7721 146.441 61.4938 146.347 61.126 146.347C60.8037 146.347 60.5335 146.428 60.3154 146.591C60.0973 146.754 59.9883 146.951 59.9883 147.182H59.0801C59.0801 146.918 59.1729 146.664 59.3584 146.42C59.5472 146.173 59.8011 145.977 60.1201 145.834C60.4424 145.691 60.7956 145.619 61.1797 145.619C61.7884 145.619 62.2653 145.772 62.6104 146.078C62.9554 146.381 63.1344 146.799 63.1475 147.333V149.765C63.1475 150.25 63.2093 150.635 63.333 150.922V151H62.3857ZM60.8867 150.312C61.1699 150.312 61.4385 150.238 61.6924 150.092C61.9463 149.945 62.1302 149.755 62.2441 149.521V148.437H61.5361C60.4294 148.437 59.876 148.76 59.876 149.408C59.876 149.691 59.9704 149.913 60.1592 150.072C60.348 150.232 60.5905 150.312 60.8867 150.312ZM65.7891 144.438V145.717H66.7754V146.415H65.7891V149.691C65.7891 149.903 65.833 150.062 65.9209 150.17C66.0088 150.274 66.1585 150.326 66.3701 150.326C66.4743 150.326 66.6175 150.307 66.7998 150.268V151C66.5622 151.065 66.3311 151.098 66.1064 151.098C65.7028 151.098 65.3984 150.976 65.1934 150.731C64.9883 150.487 64.8857 150.141 64.8857 149.691V146.415H63.9238V145.717H64.8857V144.438H65.7891ZM68.8164 151H67.9131V145.717H68.8164V151ZM67.8398 144.315C67.8398 144.169 67.8838 144.045 67.9717 143.944C68.0628 143.843 68.1963 143.793 68.3721 143.793C68.5479 143.793 68.6813 143.843 68.7725 143.944C68.8636 144.045 68.9092 144.169 68.9092 144.315C68.9092 144.462 68.8636 144.584 68.7725 144.682C68.6813 144.779 68.5479 144.828 68.3721 144.828C68.1963 144.828 68.0628 144.779 67.9717 144.682C67.8838 144.584 67.8398 144.462 67.8398 144.315ZM70.0273 148.31C70.0273 147.792 70.1283 147.326 70.3301 146.913C70.5352 146.5 70.8184 146.181 71.1797 145.956C71.5443 145.731 71.9593 145.619 72.4248 145.619C73.1442 145.619 73.7253 145.868 74.168 146.366C74.6139 146.864 74.8369 147.527 74.8369 148.354V148.417C74.8369 148.931 74.7376 149.394 74.5391 149.804C74.3438 150.211 74.0622 150.528 73.6943 150.756C73.3298 150.984 72.9098 151.098 72.4346 151.098C71.7184 151.098 71.1374 150.849 70.6914 150.351C70.2487 149.853 70.0273 149.193 70.0273 148.373V148.31ZM70.9355 148.417C70.9355 149.003 71.0706 149.473 71.3408 149.828C71.6143 150.183 71.9788 150.36 72.4346 150.36C72.8936 150.36 73.2581 150.181 73.5283 149.823C73.7985 149.462 73.9336 148.957 73.9336 148.31C73.9336 147.73 73.7952 147.261 73.5186 146.903C73.2451 146.542 72.8805 146.361 72.4248 146.361C71.9788 146.361 71.6191 146.539 71.3457 146.894C71.0723 147.248 70.9355 147.756 70.9355 148.417ZM76.8242 145.717L76.8535 146.381C77.2572 145.873 77.7845 145.619 78.4355 145.619C79.5521 145.619 80.1152 146.249 80.125 147.509V151H79.2217V147.504C79.2184 147.123 79.1305 146.841 78.958 146.659C78.7887 146.477 78.5234 146.386 78.1621 146.386C77.8691 146.386 77.612 146.464 77.3906 146.62C77.1693 146.776 76.9967 146.981 76.873 147.235V151H75.9697V145.717H76.8242Z" fill="#00FFFF"/>
<path d="M74.1754 133.829C73.3582 135.207 72.5644 135.674 71.4436 135.744C71.1868 135.767 71 135.767 71 136.187C71 136.328 71.1167 136.421 71.2802 136.421C71.7005 136.421 72.7511 136.374 73.1714 136.374C73.8485 136.374 74.5957 136.421 75.2495 136.421C75.3895 136.421 75.6697 136.421 75.6697 135.977C75.6697 135.767 75.4829 135.744 75.3428 135.744C74.8058 135.697 74.3622 135.51 74.3622 134.95C74.3622 134.623 74.5023 134.366 74.8058 133.853L76.5803 130.911H82.5342C82.5576 131.121 82.5576 131.308 82.5809 131.518C82.651 132.125 82.9312 134.553 82.9312 134.997C82.9312 135.697 81.7404 135.744 81.3668 135.744C81.11 135.744 80.8531 135.744 80.8531 136.164C80.8531 136.421 81.0633 136.421 81.2034 136.421C81.6003 136.421 82.0673 136.374 82.4642 136.374H83.7951C85.2193 136.374 86.2467 136.421 86.27 136.421C86.4335 136.421 86.6903 136.421 86.6903 135.977C86.6903 135.744 86.4802 135.744 86.1299 135.744C84.8457 135.744 84.8224 135.534 84.7524 134.833L83.3281 120.264C83.2814 119.797 83.188 119.75 82.9312 119.75C82.6977 119.75 82.5576 119.797 82.3474 120.147L74.1754 133.829ZM76.9773 130.234L81.6703 122.388L82.4642 130.234H76.9773Z" fill="#00FFFF"/>
<path d="M96.5437 121.648C96.8193 121.648 97.1111 121.648 97.1111 121.324C97.1111 121 96.8193 121 96.5437 121H87.7734C87.4979 121 87.2061 121 87.2061 121.324C87.2061 121.648 87.4979 121.648 87.7734 121.648H96.5437Z" fill="#00FFFF"/>
<path d="M104.4 116.389C104.4 116.016 104.4 116 104.075 116C103.686 116.438 102.876 117.038 101.206 117.038V117.508C101.579 117.508 102.389 117.508 103.281 117.086V125.532C103.281 126.116 103.232 126.31 101.806 126.31H101.303V126.78C101.741 126.748 103.314 126.748 103.848 126.748C104.383 126.748 105.94 126.748 106.377 126.78V126.31H105.875C104.448 126.31 104.4 126.116 104.4 125.532V116.389Z" fill="#00FFFF"/>
<path d="M10.635 121.728C10.8451 120.911 10.8918 120.677 12.5963 120.677C13.11 120.677 13.2968 120.677 13.2968 120.233C13.2968 120 13.0399 120 12.9699 120C12.5496 120 12.0359 120.047 11.6157 120.047H8.74377C8.27679 120.047 7.73978 120 7.2728 120C7.08601 120 6.82918 120 6.82918 120.444C6.82918 120.677 7.01597 120.677 7.48294 120.677C8.93056 120.677 8.93056 120.864 8.93056 121.121C8.93056 121.284 8.88386 121.424 8.83716 121.634L5.68509 134.219C5.47496 135.037 5.42826 135.27 3.72381 135.27C3.21014 135.27 3 135.27 3 135.714C3 135.947 3.23349 135.947 3.35023 135.947C3.77051 135.947 4.28418 135.9 4.70445 135.9H7.57633C8.04331 135.9 8.55698 135.947 9.02395 135.947C9.21074 135.947 9.49092 135.947 9.49092 135.527C9.49092 135.27 9.35083 135.27 8.83716 135.27C7.38955 135.27 7.38955 135.083 7.38955 134.803C7.38955 134.756 7.38955 134.64 7.48294 134.266L10.635 121.728Z" fill="#00FFFF"/>
</svg>
