<svg width="481" height="138" viewBox="0 0 481 138" fill="none" xmlns="http://www.w3.org/2000/svg">
<path d="M139.144 61.0134H145.284V59.7292H140.428V6.28418H145.284V5H139.144V61.0134Z" fill="#00FFFF"/>
<path d="M151.841 9.65545C151.841 9.16513 151.817 9.14178 151.49 9.14178C150.58 10.2392 149.202 10.5894 147.895 10.6361C147.825 10.6361 147.708 10.6361 147.684 10.6828C147.661 10.7295 147.661 10.7762 147.661 11.2665C148.385 11.2665 149.599 11.1264 150.533 10.5661V22.8708C150.533 23.688 150.486 23.9682 148.478 23.9682H147.778V24.5752C148.899 24.5519 150.066 24.5285 151.187 24.5285C152.308 24.5285 153.475 24.5519 154.596 24.5752V23.9682H153.895C151.887 23.9682 151.841 23.7113 151.841 22.8708V9.65545Z" fill="#00FFFF"/>
<path d="M172.756 16.6367C174.834 16.6367 175.744 18.4345 175.744 20.5126C175.744 23.3144 174.25 24.3885 172.896 24.3885C171.658 24.3885 169.65 23.7814 169.02 21.9835C169.137 22.0302 169.253 22.0302 169.37 22.0302C169.931 22.0302 170.351 21.6567 170.351 21.0496C170.351 20.3725 169.837 20.069 169.37 20.069C168.973 20.069 168.366 20.2557 168.366 21.1196C168.366 23.2677 170.468 24.9488 172.943 24.9488C175.534 24.9488 177.519 22.9175 177.519 20.5359C177.519 18.2711 175.651 16.6367 173.433 16.3799C175.207 16.0063 176.912 14.4186 176.912 12.2939C176.912 10.4727 175.067 9.14178 172.966 9.14178C170.841 9.14178 168.973 10.4493 168.973 12.3172C168.973 13.1344 169.58 13.2745 169.884 13.2745C170.374 13.2745 170.794 12.971 170.794 12.3639C170.794 11.7568 170.374 11.4533 169.884 11.4533C169.79 11.4533 169.674 11.4533 169.58 11.5C170.257 9.95899 172.102 9.6788 172.919 9.6788C173.736 9.6788 175.277 10.0757 175.277 12.3172C175.277 12.971 175.184 14.1384 174.39 15.1657C173.69 16.0763 172.896 16.123 172.125 16.1931C172.009 16.1931 171.472 16.2398 171.378 16.2398C171.215 16.2631 171.121 16.2865 171.121 16.4499C171.121 16.6134 171.145 16.6367 171.612 16.6367H172.756Z" fill="#00FFFF"/>
<path d="M204.852 9.65545C204.852 9.16513 204.829 9.14178 204.502 9.14178C203.591 10.2392 202.214 10.5894 200.906 10.6361C200.836 10.6361 200.72 10.6361 200.696 10.6828C200.673 10.7295 200.673 10.7762 200.673 11.2665C201.397 11.2665 202.611 11.1264 203.545 10.5661V22.8708C203.545 23.688 203.498 23.9682 201.49 23.9682H200.79V24.5752C201.91 24.5519 203.078 24.5285 204.198 24.5285C205.319 24.5285 206.487 24.5519 207.607 24.5752V23.9682H206.907C204.899 23.9682 204.852 23.7113 204.852 22.8708V9.65545Z" fill="#00FFFF"/>
<path d="M239.493 17.0803C239.493 15.6561 239.47 13.2278 238.489 11.3599C237.626 9.7255 236.248 9.14178 235.034 9.14178C233.913 9.14178 232.489 9.65545 231.602 11.3366C230.668 13.0877 230.574 15.2591 230.574 17.0803C230.574 18.4112 230.598 20.4425 231.321 22.217C232.325 24.6219 234.123 24.9488 235.034 24.9488C236.108 24.9488 237.742 24.5052 238.7 22.2871C239.4 20.676 239.493 18.7848 239.493 17.0803ZM235.034 24.5752C233.539 24.5752 232.652 23.2911 232.325 21.5166C232.069 20.139 232.069 18.131 232.069 16.8235C232.069 15.0256 232.069 13.5313 232.372 12.1071C232.816 10.1224 234.123 9.51536 235.034 9.51536C235.991 9.51536 237.229 10.1458 237.672 12.0604C237.976 13.3912 237.999 14.9556 237.999 16.8235C237.999 18.3412 237.999 20.209 237.719 21.5866C237.229 24.1316 235.851 24.5752 235.034 24.5752Z" fill="#00FFFF"/>
<path d="M155.436 45.2248C155.436 43.8005 155.412 41.3723 154.432 39.5044C153.568 37.87 152.19 37.2863 150.976 37.2863C149.855 37.2863 148.431 37.7999 147.544 39.481C146.61 41.2322 146.517 43.4036 146.517 45.2248C146.517 46.5557 146.54 48.587 147.264 50.3615C148.268 52.7664 150.066 53.0933 150.976 53.0933C152.05 53.0933 153.685 52.6497 154.642 50.4315C155.342 48.8205 155.436 46.9292 155.436 45.2248ZM150.976 52.7197C149.482 52.7197 148.595 51.4355 148.268 49.661C148.011 48.2835 148.011 46.2755 148.011 44.968C148.011 43.1701 148.011 41.6758 148.314 40.2515C148.758 38.2669 150.066 37.6598 150.976 37.6598C151.933 37.6598 153.171 38.2902 153.615 40.2048C153.918 41.5357 153.941 43.1001 153.941 44.968C153.941 46.4856 153.941 48.3535 153.661 49.7311C153.171 52.2761 151.793 52.7197 150.976 52.7197Z" fill="#00FFFF"/>
<path d="M173.806 37.7999C173.806 37.3096 173.783 37.2863 173.456 37.2863C172.546 38.3836 171.168 38.7339 169.86 38.7806C169.79 38.7806 169.674 38.7806 169.65 38.8273C169.627 38.874 169.627 38.9207 169.627 39.411C170.351 39.411 171.565 39.2709 172.499 38.7105V51.0153C172.499 51.8325 172.452 52.1126 170.444 52.1126H169.744V52.7197C170.864 52.6964 172.032 52.673 173.153 52.673C174.273 52.673 175.441 52.6964 176.562 52.7197V52.1126H175.861C173.853 52.1126 173.806 51.8558 173.806 51.0153V37.7999Z" fill="#00FFFF"/>
<path d="M204.948 47.3495C205.345 47.3495 205.765 47.3495 205.765 46.8826C205.765 46.4156 205.345 46.4156 204.948 46.4156H192.316C191.919 46.4156 191.499 46.4156 191.499 46.8826C191.499 47.3495 191.919 47.3495 192.316 47.3495H204.948Z" fill="#00FFFF"/>
<path d="M217.458 49.1007H217.038C216.804 50.7584 216.617 51.0386 216.524 51.1787C216.407 51.3655 214.726 51.3655 214.399 51.3655H209.916C210.757 50.4549 212.391 48.7971 214.376 46.8825C215.8 45.5283 217.458 43.9406 217.458 41.6291C217.458 38.874 215.263 37.2863 212.811 37.2863C210.243 37.2863 208.679 39.5511 208.679 41.6525C208.679 42.563 209.356 42.6798 209.636 42.6798C209.869 42.6798 210.57 42.5397 210.57 41.7225C210.57 40.9987 209.963 40.7886 209.636 40.7886C209.496 40.7886 209.356 40.8119 209.262 40.8586C209.706 38.874 211.06 37.8933 212.485 37.8933C214.516 37.8933 215.847 39.5044 215.847 41.6291C215.847 43.6604 214.656 45.4116 213.325 46.9292L208.679 52.1827V52.7197H216.897L217.458 49.1007Z" fill="#00FFFF"/>
<path d="M235.898 37.7999C235.898 37.3096 235.875 37.2863 235.548 37.2863C234.637 38.3836 233.26 38.7339 231.952 38.7806C231.882 38.7806 231.765 38.7806 231.742 38.8273C231.719 38.874 231.719 38.9207 231.719 39.411C232.443 39.411 233.657 39.2709 234.591 38.7105V51.0153C234.591 51.8325 234.544 52.1126 232.536 52.1126H231.835V52.7197C232.956 52.6964 234.124 52.673 235.244 52.673C236.365 52.673 237.533 52.6964 238.653 52.7197V52.1126H237.953C235.945 52.1126 235.898 51.8558 235.898 51.0153V37.7999Z" fill="#00FFFF"/>
<path d="M245.578 59.7292H240.722V61.0134H246.862V5H240.722V6.28418H245.578V59.7292Z" fill="#00FFFF"/>
<path d="M285 61.0134H291.141V59.7292H286.284V6.28418H291.141V5H285V61.0134Z" fill="#00FFFF"/>
<path d="M297.696 9.65545C297.696 9.16513 297.673 9.14178 297.346 9.14178C296.435 10.2392 295.058 10.5894 293.75 10.6361C293.68 10.6361 293.563 10.6361 293.54 10.6828C293.517 10.7295 293.517 10.7762 293.517 11.2665C294.24 11.2665 295.455 11.1264 296.388 10.5661V22.8708C296.388 23.688 296.342 23.9682 294.334 23.9682H293.633V24.5752C294.754 24.5519 295.922 24.5285 297.042 24.5285C298.163 24.5285 299.33 24.5519 300.451 24.5752V23.9682H299.751C297.743 23.9682 297.696 23.7113 297.696 22.8708V9.65545Z" fill="#00FFFF"/>
<path d="M323.258 17.0803C323.258 15.6561 323.235 13.2278 322.254 11.3599C321.39 9.7255 320.013 9.14178 318.798 9.14178C317.678 9.14178 316.253 9.65545 315.366 11.3366C314.432 13.0877 314.339 15.2591 314.339 17.0803C314.339 18.4112 314.362 20.4425 315.086 22.217C316.09 24.6219 317.888 24.9488 318.798 24.9488C319.872 24.9488 321.507 24.5052 322.464 22.2871C323.165 20.676 323.258 18.7848 323.258 17.0803ZM318.798 24.5752C317.304 24.5752 316.417 23.2911 316.09 21.5166C315.833 20.139 315.833 18.131 315.833 16.8235C315.833 15.0256 315.833 13.5313 316.137 12.1071C316.58 10.1224 317.888 9.51536 318.798 9.51536C319.756 9.51536 320.993 10.1458 321.437 12.0604C321.74 13.3912 321.764 14.9556 321.764 16.8235C321.764 18.3412 321.764 20.209 321.484 21.5866C320.993 24.1316 319.616 24.5752 318.798 24.5752Z" fill="#00FFFF"/>
<path d="M355.027 10.029V9.51535H349.541C346.809 9.51535 346.762 9.21181 346.669 8.76819H346.248L345.571 13.1344H345.992C346.062 12.6908 346.225 11.5 346.505 11.0564C346.645 10.8696 348.373 10.8696 348.77 10.8696H353.907L351.315 14.7221C349.587 17.3138 348.396 20.8161 348.396 23.8748C348.396 24.155 348.396 24.9488 349.237 24.9488C350.078 24.9488 350.078 24.155 350.078 23.8514V22.7774C350.078 18.9482 350.731 16.4265 351.805 14.8155L355.027 10.029Z" fill="#00FFFF"/>
<path d="M380.703 16.6367C382.781 16.6367 383.692 18.4345 383.692 20.5126C383.692 23.3144 382.197 24.3885 380.843 24.3885C379.606 24.3885 377.598 23.7814 376.967 21.9835C377.084 22.0302 377.201 22.0302 377.317 22.0302C377.878 22.0302 378.298 21.6567 378.298 21.0496C378.298 20.3725 377.784 20.069 377.317 20.069C376.921 20.069 376.313 20.2557 376.313 21.1196C376.313 23.2677 378.415 24.9488 380.89 24.9488C383.482 24.9488 385.466 22.9175 385.466 20.5359C385.466 18.2711 383.598 16.6367 381.38 16.3799C383.155 16.0063 384.859 14.4186 384.859 12.2939C384.859 10.4727 383.015 9.14178 380.913 9.14178C378.788 9.14178 376.921 10.4493 376.921 12.3172C376.921 13.1344 377.528 13.2745 377.831 13.2745C378.321 13.2745 378.742 12.971 378.742 12.3639C378.742 11.7568 378.321 11.4533 377.831 11.4533C377.738 11.4533 377.621 11.4533 377.528 11.5C378.205 9.95899 380.049 9.6788 380.866 9.6788C381.684 9.6788 383.225 10.0757 383.225 12.3172C383.225 12.971 383.131 14.1384 382.337 15.1657C381.637 16.0763 380.843 16.123 380.073 16.1931C379.956 16.1931 379.419 16.2398 379.325 16.2398C379.162 16.2631 379.069 16.2865 379.069 16.4499C379.069 16.6134 379.092 16.6367 379.559 16.6367H380.703Z" fill="#00FFFF"/>
<path d="M301.292 45.2248C301.292 43.8005 301.269 41.3723 300.288 39.5044C299.424 37.87 298.047 37.2863 296.833 37.2863C295.712 37.2863 294.288 37.7999 293.4 39.481C292.466 41.2322 292.373 43.4036 292.373 45.2248C292.373 46.5557 292.396 48.587 293.12 50.3615C294.124 52.7664 295.922 53.0933 296.833 53.0933C297.907 53.0933 299.541 52.6497 300.498 50.4315C301.199 48.8205 301.292 46.9292 301.292 45.2248ZM296.833 52.7197C295.338 52.7197 294.451 51.4355 294.124 49.661C293.867 48.2835 293.867 46.2755 293.867 44.968C293.867 43.1701 293.867 41.6758 294.171 40.2515C294.615 38.2669 295.922 37.6598 296.833 37.6598C297.79 37.6598 299.027 38.2902 299.471 40.2048C299.775 41.5357 299.798 43.1001 299.798 44.968C299.798 46.4856 299.798 48.3535 299.518 49.7311C299.027 52.2761 297.65 52.7197 296.833 52.7197Z" fill="#00FFFF"/>
<path d="M319.662 37.7999C319.662 37.3096 319.638 37.2863 319.312 37.2863C318.401 38.3836 317.023 38.7339 315.716 38.7806C315.646 38.7806 315.529 38.7806 315.506 38.8273C315.482 38.874 315.482 38.9207 315.482 39.411C316.206 39.411 317.42 39.2709 318.354 38.7105V51.0153C318.354 51.8325 318.308 52.1126 316.3 52.1126H315.599V52.7197C316.72 52.6964 317.887 52.673 319.008 52.673C320.129 52.673 321.296 52.6964 322.417 52.7197V52.1126H321.717C319.709 52.1126 319.662 51.8558 319.662 51.0153V37.7999Z" fill="#00FFFF"/>
<path d="M350.804 47.3495C351.201 47.3495 351.621 47.3495 351.621 46.8826C351.621 46.4156 351.201 46.4156 350.804 46.4156H338.173C337.776 46.4156 337.355 46.4156 337.355 46.8826C337.355 47.3495 337.776 47.3495 338.173 47.3495H350.804Z" fill="#00FFFF"/>
<path d="M363.313 49.1007H362.893C362.66 50.7584 362.473 51.0386 362.379 51.1787C362.263 51.3655 360.581 51.3655 360.255 51.3655H355.772C356.612 50.4549 358.247 48.7971 360.231 46.8825C361.656 45.5283 363.313 43.9406 363.313 41.6291C363.313 38.874 361.118 37.2863 358.667 37.2863C356.099 37.2863 354.534 39.5511 354.534 41.6525C354.534 42.563 355.211 42.6798 355.491 42.6798C355.725 42.6798 356.425 42.5397 356.425 41.7225C356.425 40.9987 355.818 40.7886 355.491 40.7886C355.351 40.7886 355.211 40.8119 355.118 40.8586C355.562 38.874 356.916 37.8933 358.34 37.8933C360.371 37.8933 361.702 39.5044 361.702 41.6291C361.702 43.6604 360.511 45.4116 359.181 46.9292L354.534 52.1827V52.7197H362.753L363.313 49.1007Z" fill="#00FFFF"/>
<path d="M381.754 37.7999C381.754 37.3096 381.73 37.2863 381.403 37.2863C380.493 38.3836 379.115 38.7339 377.808 38.7806C377.738 38.7806 377.621 38.7806 377.598 38.8273C377.574 38.874 377.574 38.9207 377.574 39.411C378.298 39.411 379.512 39.2709 380.446 38.7105V51.0153C380.446 51.8325 380.399 52.1126 378.391 52.1126H377.691V52.7197C378.812 52.6964 379.979 52.673 381.1 52.673C382.221 52.673 383.388 52.6964 384.509 52.7197V52.1126H383.808C381.8 52.1126 381.754 51.8558 381.754 51.0153V37.7999Z" fill="#00FFFF"/>
<path d="M391.435 59.7292H386.578V61.0134H392.719V5H386.578V6.28418H391.435V59.7292Z" fill="#00FFFF"/>
<path d="M0 62.0134H6.14069V60.7292H1.28418V7.28418H6.14069V6H0V62.0134Z" fill="#00FFFF"/>
<path d="M12.697 10.6555C12.697 10.1651 12.6736 10.1418 12.3468 10.1418C11.4362 11.2392 10.0586 11.5894 8.75107 11.6361C8.68102 11.6361 8.56428 11.6361 8.54093 11.6828C8.51758 11.7295 8.51758 11.7762 8.51758 12.2665C9.24139 12.2665 10.4555 12.1264 11.3895 11.5661V23.8708C11.3895 24.688 11.3428 24.9682 9.33478 24.9682H8.63432V25.5752C9.75506 25.5519 10.9225 25.5285 12.0432 25.5285C13.164 25.5285 14.3314 25.5519 15.4521 25.5752V24.9682H14.7517C12.7437 24.9682 12.697 24.7113 12.697 23.8708V10.6555Z" fill="#00FFFF"/>
<path d="M33.6122 17.6367C35.6902 17.6367 36.6008 19.4345 36.6008 21.5126C36.6008 24.3144 35.1065 25.3885 33.7523 25.3885C32.5148 25.3885 30.5068 24.7814 29.8764 22.9835C29.9932 23.0302 30.1099 23.0302 30.2266 23.0302C30.787 23.0302 31.2073 22.6567 31.2073 22.0496C31.2073 21.3725 30.6936 21.069 30.2266 21.069C29.8297 21.069 29.2227 21.2557 29.2227 22.1196C29.2227 24.2677 31.324 25.9488 33.799 25.9488C36.3907 25.9488 38.3753 23.9175 38.3753 21.5359C38.3753 19.2711 36.5074 17.6367 34.2893 17.3799C36.0638 17.0063 37.7683 15.4186 37.7683 13.2939C37.7683 11.4727 35.9237 10.1418 33.8223 10.1418C31.6976 10.1418 29.8297 11.4493 29.8297 13.3172C29.8297 14.1344 30.4368 14.2745 30.7403 14.2745C31.2306 14.2745 31.6509 13.971 31.6509 13.3639C31.6509 12.7568 31.2306 12.4533 30.7403 12.4533C30.6469 12.4533 30.5302 12.4533 30.4368 12.5C31.1139 10.959 32.9584 10.6788 33.7756 10.6788C34.5928 10.6788 36.1339 11.0757 36.1339 13.3172C36.1339 13.971 36.0405 15.1384 35.2466 16.1657C34.5461 17.0763 33.7523 17.123 32.9818 17.1931C32.865 17.1931 32.328 17.2398 32.2346 17.2398C32.0712 17.2631 31.9778 17.2865 31.9778 17.4499C31.9778 17.6134 32.0011 17.6367 32.4681 17.6367H33.6122Z" fill="#00FFFF"/>
<path d="M56.6286 10.6555C56.6286 10.1651 56.6053 10.1418 56.2784 10.1418C55.3678 11.2392 53.9902 11.5894 52.6827 11.6361C52.6127 11.6361 52.4959 11.6361 52.4726 11.6828C52.4492 11.7295 52.4492 11.7762 52.4492 12.2665C53.173 12.2665 54.3872 12.1264 55.3211 11.5661V23.8708C55.3211 24.688 55.2744 24.9682 53.2664 24.9682H52.566V25.5752C53.6867 25.5519 54.8541 25.5285 55.9749 25.5285C57.0956 25.5285 58.263 25.5519 59.3838 25.5752V24.9682H58.6833C56.6753 24.9682 56.6286 24.7113 56.6286 23.8708V10.6555Z" fill="#00FFFF"/>
<path d="M82.1897 18.0803C82.1897 16.6561 82.1663 14.2278 81.1857 12.3599C80.3218 10.7255 78.9442 10.1418 77.7301 10.1418C76.6094 10.1418 75.1851 10.6555 74.2978 12.3366C73.3639 14.0877 73.2705 16.2591 73.2705 18.0803C73.2705 19.4112 73.2939 21.4425 74.0177 23.217C75.0217 25.6219 76.8195 25.9488 77.7301 25.9488C78.8041 25.9488 80.4385 25.5052 81.3958 23.2871C82.0963 21.676 82.1897 19.7848 82.1897 18.0803ZM77.7301 25.5752C76.2358 25.5752 75.3485 24.2911 75.0217 22.5166C74.7648 21.139 74.7648 19.131 74.7648 17.8235C74.7648 16.0256 74.7648 14.5313 75.0684 13.1071C75.512 11.1224 76.8195 10.5154 77.7301 10.5154C78.6874 10.5154 79.9249 11.1458 80.3685 13.0604C80.672 14.3912 80.6954 15.9556 80.6954 17.8235C80.6954 19.3412 80.6954 21.209 80.4152 22.5866C79.9249 25.1316 78.5473 25.5752 77.7301 25.5752Z" fill="#00FFFF"/>
<path d="M16.2225 50.1007H15.8022C15.5687 51.7584 15.3819 52.0386 15.2885 52.1787C15.1718 52.3655 13.4907 52.3655 13.1638 52.3655H8.68084C9.52139 51.4549 11.1558 49.7971 13.1404 47.8825C14.5647 46.5283 16.2225 44.9406 16.2225 42.6291C16.2225 39.874 14.0277 38.2863 11.5761 38.2863C9.00772 38.2863 7.44336 40.5511 7.44336 42.6525C7.44336 43.563 8.12047 43.6798 8.40065 43.6798C8.63414 43.6798 9.3346 43.5397 9.3346 42.7225C9.3346 41.9987 8.72754 41.7886 8.40065 41.7886C8.26056 41.7886 8.12047 41.8119 8.02708 41.8586C8.4707 39.874 9.82492 38.8933 11.2492 38.8933C13.2805 38.8933 14.6114 40.5044 14.6114 42.6291C14.6114 44.6604 13.4206 46.4116 12.0897 47.9292L7.44336 53.1827V53.7197H15.6621L16.2225 50.1007Z" fill="#00FFFF"/>
<path d="M38.9816 39.1735V38.6598H33.4947C30.7629 38.6598 30.7162 38.3563 30.6228 37.9127H30.2025L29.5254 42.2789H29.9457C30.0157 41.8352 30.1792 40.6445 30.4593 40.2008C30.5994 40.014 32.3272 40.014 32.7242 40.014H37.8609L35.2692 43.8666C33.5414 46.4583 32.3506 49.9606 32.3506 53.0192C32.3506 53.2994 32.3506 54.0933 33.1911 54.0933C34.0317 54.0933 34.0317 53.2994 34.0317 52.9959V51.9219C34.0317 48.0927 34.6854 45.571 35.7595 43.96L38.9816 39.1735Z" fill="#00FFFF"/>
<path d="M60.2239 46.2248C60.2239 44.8005 60.2005 42.3723 59.2199 40.5044C58.356 38.87 56.9784 38.2863 55.7643 38.2863C54.6435 38.2863 53.2193 38.7999 52.332 40.481C51.3981 42.2322 51.3047 44.4036 51.3047 46.2248C51.3047 47.5557 51.328 49.587 52.0518 51.3615C53.0558 53.7664 54.8537 54.0933 55.7643 54.0933C56.8383 54.0933 58.4727 53.6497 59.43 51.4315C60.1305 49.8205 60.2239 47.9292 60.2239 46.2248ZM55.7643 53.7197C54.27 53.7197 53.3827 52.4355 53.0558 50.661C52.799 49.2835 52.799 47.2755 52.799 45.968C52.799 44.1701 52.799 42.6758 53.1025 41.2515C53.5462 39.2669 54.8537 38.6598 55.7643 38.6598C56.7216 38.6598 57.9591 39.2902 58.4027 41.2048C58.7062 42.5357 58.7296 44.1001 58.7296 45.968C58.7296 47.4856 58.7296 49.3535 58.4494 50.7311C57.9591 53.2761 56.5815 53.7197 55.7643 53.7197Z" fill="#00FFFF"/>
<path d="M78.5944 38.7999C78.5944 38.3096 78.5711 38.2863 78.2442 38.2863C77.3336 39.3836 75.9561 39.7339 74.6485 39.7806C74.5785 39.7806 74.4617 39.7806 74.4384 39.8273C74.415 39.874 74.415 39.9207 74.415 40.411C75.1388 40.411 76.353 40.2709 77.2869 39.7105V52.0153C77.2869 52.8325 77.2402 53.1126 75.2322 53.1126H74.5318V53.7197C75.6525 53.6964 76.82 53.673 77.9407 53.673C79.0614 53.673 80.2289 53.6964 81.3496 53.7197V53.1126H80.6491C78.6411 53.1126 78.5944 52.8558 78.5944 52.0153V38.7999Z" fill="#00FFFF"/>
<path d="M88.2745 60.7292H83.418V62.0134H89.5587V6H83.418V7.28418H88.2745V60.7292Z" fill="#00FFFF"/>
<line x1="45.5" y1="7" x2="45.5" y2="61" stroke="#00FFFF"/>
<line x1="187.5" y1="6" x2="187.5" y2="60" stroke="#00FFFF"/>
<line x1="332.053" y1="6" x2="332.053" y2="60" stroke="#00FFFF"/>
<path d="M17.1754 79.0792C16.3582 80.4568 15.5644 80.9238 14.4436 80.9938C14.1868 81.0172 14 81.0172 14 81.4374C14 81.5775 14.1167 81.6709 14.2802 81.6709C14.7005 81.6709 15.7511 81.6242 16.1714 81.6242C16.8485 81.6242 17.5957 81.6709 18.2495 81.6709C18.3895 81.6709 18.6697 81.6709 18.6697 81.2273C18.6697 81.0172 18.4829 80.9938 18.3428 80.9938C17.8058 80.9471 17.3622 80.7603 17.3622 80.2C17.3622 79.8731 17.5023 79.6163 17.8058 79.1026L19.5803 76.1607H25.5342C25.5576 76.3708 25.5576 76.5576 25.5809 76.7677C25.651 77.3748 25.9312 79.803 25.9312 80.2467C25.9312 80.9471 24.7404 80.9938 24.3668 80.9938C24.11 80.9938 23.8531 80.9938 23.8531 81.4141C23.8531 81.6709 24.0633 81.6709 24.2034 81.6709C24.6003 81.6709 25.0673 81.6242 25.4642 81.6242H26.7951C28.2193 81.6242 29.2467 81.6709 29.27 81.6709C29.4335 81.6709 29.6903 81.6709 29.6903 81.2273C29.6903 80.9938 29.4802 80.9938 29.1299 80.9938C27.8457 80.9938 27.8224 80.7837 27.7524 80.0832L26.3281 65.5137C26.2814 65.0467 26.188 65 25.9312 65C25.6977 65 25.5576 65.0467 25.3474 65.3969L17.1754 79.0792ZM19.9773 75.4835L24.6703 67.6384L25.4642 75.4835H19.9773Z" fill="#00FFFF"/>
<path d="M68.635 66.7278C68.8451 65.9106 68.8918 65.6771 70.5963 65.6771C71.11 65.6771 71.2968 65.6771 71.2968 65.2335C71.2968 65 71.0399 65 70.9699 65C70.5496 65 70.0359 65.0467 69.6157 65.0467H66.7438C66.2768 65.0467 65.7398 65 65.2728 65C65.086 65 64.8292 65 64.8292 65.4436C64.8292 65.6771 65.016 65.6771 65.4829 65.6771C66.9306 65.6771 66.9306 65.8639 66.9306 66.1207C66.9306 66.2842 66.8839 66.4243 66.8372 66.6344L63.6851 79.2193C63.475 80.0365 63.4283 80.27 61.7238 80.27C61.2101 80.27 61 80.27 61 80.7136C61 80.9471 61.2335 80.9471 61.3502 80.9471C61.7705 80.9471 62.2842 80.9004 62.7045 80.9004H65.5763C66.0433 80.9004 66.557 80.9471 67.024 80.9471C67.2107 80.9471 67.4909 80.9471 67.4909 80.5269C67.4909 80.27 67.3508 80.27 66.8372 80.27C65.3895 80.27 65.3895 80.0832 65.3895 79.803C65.3895 79.7563 65.3895 79.6396 65.4829 79.266L68.635 66.7278Z" fill="#00FFFF"/>
<path d="M312.188 65.7278C312.398 64.9106 312.445 64.6771 314.149 64.6771C314.663 64.6771 314.849 64.6771 314.849 64.2335C314.849 64 314.593 64 314.523 64C314.102 64 313.589 64.0467 313.168 64.0467H310.297C309.83 64.0467 309.293 64 308.826 64C308.639 64 308.382 64 308.382 64.4436C308.382 64.6771 308.569 64.6771 309.036 64.6771C310.483 64.6771 310.483 64.8639 310.483 65.1207C310.483 65.2842 310.437 65.4243 310.39 65.6344L307.238 78.2193C307.028 79.0365 306.981 79.27 305.277 79.27C304.763 79.27 304.553 79.27 304.553 79.7136C304.553 79.9471 304.786 79.9471 304.903 79.9471C305.323 79.9471 305.837 79.9004 306.257 79.9004H309.129C309.596 79.9004 310.11 79.9471 310.577 79.9471C310.763 79.9471 311.044 79.9471 311.044 79.5269C311.044 79.27 310.904 79.27 310.39 79.27C308.942 79.27 308.942 79.0832 308.942 78.803C308.942 78.7563 308.942 78.6396 309.036 78.266L312.188 65.7278Z" fill="#00FFFF"/>
<path d="M350.728 77.8292C349.911 79.2068 349.117 79.6738 347.996 79.7438C347.74 79.7672 347.553 79.7672 347.553 80.1874C347.553 80.3275 347.669 80.4209 347.833 80.4209C348.253 80.4209 349.304 80.3742 349.724 80.3742C350.401 80.3742 351.148 80.4209 351.802 80.4209C351.942 80.4209 352.222 80.4209 352.222 79.9773C352.222 79.7672 352.036 79.7438 351.896 79.7438C351.359 79.6971 350.915 79.5103 350.915 78.95C350.915 78.6231 351.055 78.3663 351.359 77.8526L353.133 74.9107H359.087C359.11 75.1208 359.11 75.3076 359.134 75.5177C359.204 76.1248 359.484 78.553 359.484 78.9967C359.484 79.6971 358.293 79.7438 357.92 79.7438C357.663 79.7438 357.406 79.7438 357.406 80.1641C357.406 80.4209 357.616 80.4209 357.756 80.4209C358.153 80.4209 358.62 80.3742 359.017 80.3742H360.348C361.772 80.3742 362.799 80.4209 362.823 80.4209C362.986 80.4209 363.243 80.4209 363.243 79.9773C363.243 79.7438 363.033 79.7438 362.683 79.7438C361.398 79.7438 361.375 79.5337 361.305 78.8332L359.881 64.2637C359.834 63.7967 359.741 63.75 359.484 63.75C359.25 63.75 359.11 63.7967 358.9 64.1469L350.728 77.8292ZM353.53 74.2335L358.223 66.3884L359.017 74.2335H353.53Z" fill="#00FFFF"/>
<path d="M373.096 65.6484C373.372 65.6484 373.664 65.6484 373.664 65.3242C373.664 65 373.372 65 373.096 65H364.326C364.051 65 363.759 65 363.759 65.3242C363.759 65.6484 364.051 65.6484 364.326 65.6484H373.096Z" fill="#00FFFF"/>
<path d="M380.952 60.3891C380.952 60.0162 380.952 60 380.628 60C380.239 60.4377 379.429 61.0375 377.759 61.0375V61.5076C378.132 61.5076 378.942 61.5076 379.834 61.0862V69.5322C379.834 70.1158 379.785 70.3103 378.359 70.3103H377.856V70.7804C378.294 70.748 379.866 70.748 380.401 70.748C380.936 70.748 382.492 70.748 382.93 70.7804V70.3103H382.428C381.001 70.3103 380.952 70.1158 380.952 69.5322V60.3891Z" fill="#00FFFF"/>
<path d="M120.707 34.7071C121.098 34.3166 121.098 33.6834 120.707 33.2929L114.343 26.9289C113.953 26.5384 113.319 26.5384 112.929 26.9289C112.538 27.3195 112.538 27.9526 112.929 28.3431L118.586 34L112.929 39.6569C112.538 40.0474 112.538 40.6805 112.929 41.0711C113.319 41.4616 113.953 41.4616 114.343 41.0711L120.707 34.7071ZM108 35H120V33H108V35Z" fill="#00FFFF"/>
<path d="M272.707 33.7071C273.098 33.3166 273.098 32.6834 272.707 32.2929L266.343 25.9289C265.953 25.5384 265.319 25.5384 264.929 25.9289C264.538 26.3195 264.538 26.9526 264.929 27.3431L270.586 33L264.929 38.6569C264.538 39.0474 264.538 39.6805 264.929 40.0711C265.319 40.4616 265.953 40.4616 266.343 40.0711L272.707 33.7071ZM260 34H272V32H260V34Z" fill="#00FFFF"/>
<path d="M182.414 55.6749C179.985 57.6186 177.866 58.2661 175.883 58.0146C173.879 57.7605 171.911 56.5765 169.816 54.6361C167.724 52.698 165.559 50.0558 163.152 46.9689C162.517 46.1545 161.866 45.3096 161.195 44.44C159.332 42.0241 157.322 39.4176 155.112 36.7466C143.078 22.2056 139.227 17.187 139.227 8.56534C139.227 6.66946 140.846 4.93904 143.784 3.54708C146.683 2.17383 150.684 1.22501 155.024 0.81184C159.36 0.39912 164.001 0.524073 168.169 1.27565C172.348 2.02906 175.999 3.40273 178.403 5.44628C180.796 7.48049 182.791 11.1978 184.29 15.818C185.783 20.4215 186.762 25.8531 187.165 31.2402C187.569 36.6282 187.397 41.9498 186.602 46.3339C185.801 50.7502 184.388 54.0956 182.414 55.6749Z" stroke="#00FFFF"/>
<path d="M207.201 116.985L207.15 116.487L207.15 116.487L207.201 116.985ZM187.366 106.232L187.811 106.003L187.811 106.003L187.366 106.232ZM172.495 76.5239C172.232 76.4395 171.95 76.5842 171.866 76.8472L170.49 81.1318C170.406 81.3947 170.551 81.6763 170.813 81.7607C171.076 81.8451 171.358 81.7004 171.442 81.4375L172.665 77.6289L176.474 78.8516C176.737 78.936 177.018 78.7913 177.102 78.5284C177.187 78.2654 177.042 77.9839 176.779 77.8995L172.495 76.5239ZM243.727 112.724L207.15 116.487L207.252 117.482L243.829 113.719L243.727 112.724ZM187.811 106.003L172.786 76.7714L171.897 77.2286L186.921 106.461L187.811 106.003ZM207.15 116.487C199.159 117.309 191.483 113.148 187.811 106.003L186.921 106.461C190.781 113.971 198.852 118.346 207.252 117.482L207.15 116.487Z" fill="#00FFFF"/>
<path d="M319.855 107.478C319.504 107.891 318.988 108.098 318.308 108.098C317.744 108.098 317.315 107.935 317.019 107.609C316.726 107.281 316.577 106.796 316.574 106.154V102.717H317.478V106.13C317.478 106.931 317.803 107.331 318.454 107.331C319.144 107.331 319.603 107.074 319.831 106.56V102.717H320.734V108H319.875L319.855 107.478ZM326.574 105.417C326.574 106.221 326.39 106.869 326.022 107.36C325.655 107.852 325.157 108.098 324.528 108.098C323.887 108.098 323.382 107.894 323.015 107.487V110.031H322.111V102.717H322.937L322.98 103.303C323.348 102.847 323.859 102.619 324.514 102.619C325.148 102.619 325.65 102.858 326.018 103.337C326.389 103.815 326.574 104.481 326.574 105.334V105.417ZM325.671 105.314C325.671 104.719 325.544 104.248 325.29 103.903C325.036 103.558 324.688 103.386 324.245 103.386C323.698 103.386 323.288 103.628 323.015 104.113V106.638C323.285 107.119 323.698 107.36 324.255 107.36C324.688 107.36 325.031 107.189 325.285 106.848C325.542 106.503 325.671 105.992 325.671 105.314ZM332.189 105.417C332.189 106.221 332.006 106.869 331.638 107.36C331.27 107.852 330.772 108.098 330.144 108.098C329.502 108.098 328.998 107.894 328.63 107.487V110.031H327.727V102.717H328.552L328.596 103.303C328.964 102.847 329.475 102.619 330.129 102.619C330.764 102.619 331.265 102.858 331.633 103.337C332.004 103.815 332.189 104.481 332.189 105.334V105.417ZM331.286 105.314C331.286 104.719 331.159 104.248 330.905 103.903C330.651 103.558 330.303 103.386 329.86 103.386C329.313 103.386 328.903 103.628 328.63 104.113V106.638C328.9 107.119 329.313 107.36 329.87 107.36C330.303 107.36 330.646 107.189 330.9 106.848C331.158 106.503 331.286 105.992 331.286 105.314ZM335.534 108.098C334.818 108.098 334.235 107.863 333.786 107.395C333.337 106.923 333.112 106.293 333.112 105.505V105.339C333.112 104.815 333.212 104.348 333.41 103.938C333.612 103.524 333.892 103.202 334.25 102.971C334.611 102.736 335.002 102.619 335.422 102.619C336.109 102.619 336.643 102.845 337.023 103.298C337.404 103.75 337.595 104.398 337.595 105.241V105.617H334.016C334.029 106.138 334.18 106.56 334.47 106.882C334.763 107.201 335.134 107.36 335.583 107.36C335.902 107.36 336.172 107.295 336.394 107.165C336.615 107.035 336.809 106.862 336.975 106.647L337.526 107.077C337.084 107.757 336.42 108.098 335.534 108.098ZM335.422 103.361C335.057 103.361 334.751 103.495 334.504 103.762C334.257 104.025 334.104 104.396 334.045 104.875H336.691V104.807C336.665 104.348 336.542 103.993 336.32 103.742C336.099 103.488 335.799 103.361 335.422 103.361ZM341.198 103.527C341.062 103.505 340.913 103.493 340.754 103.493C340.161 103.493 339.759 103.745 339.548 104.25V108H338.645V102.717H339.523L339.538 103.327C339.834 102.855 340.254 102.619 340.798 102.619C340.974 102.619 341.107 102.642 341.198 102.688V103.527ZM345.739 101.438V102.717H346.726V103.415H345.739V106.691C345.739 106.903 345.783 107.062 345.871 107.17C345.959 107.274 346.109 107.326 346.32 107.326C346.424 107.326 346.568 107.307 346.75 107.268V108C346.512 108.065 346.281 108.098 346.057 108.098C345.653 108.098 345.349 107.976 345.144 107.731C344.938 107.487 344.836 107.141 344.836 106.691V103.415H343.874V102.717H344.836V101.438H345.739ZM350.339 103.527C350.202 103.505 350.054 103.493 349.895 103.493C349.302 103.493 348.9 103.745 348.688 104.25V108H347.785V102.717H348.664L348.679 103.327C348.975 102.855 349.395 102.619 349.938 102.619C350.114 102.619 350.248 102.642 350.339 102.688V103.527ZM352.155 108H351.252V102.717H352.155V108ZM351.179 101.315C351.179 101.169 351.223 101.045 351.311 100.944C351.402 100.843 351.535 100.793 351.711 100.793C351.887 100.793 352.02 100.843 352.111 100.944C352.202 101.045 352.248 101.169 352.248 101.315C352.248 101.462 352.202 101.584 352.111 101.682C352.02 101.779 351.887 101.828 351.711 101.828C351.535 101.828 351.402 101.779 351.311 101.682C351.223 101.584 351.179 101.462 351.179 101.315ZM356.867 108C356.815 107.896 356.773 107.71 356.74 107.443C356.32 107.88 355.819 108.098 355.236 108.098C354.715 108.098 354.287 107.951 353.952 107.658C353.62 107.362 353.454 106.988 353.454 106.535C353.454 105.985 353.662 105.559 354.079 105.256C354.499 104.95 355.088 104.797 355.847 104.797H356.726V104.382C356.726 104.066 356.631 103.815 356.442 103.63C356.254 103.441 355.975 103.347 355.607 103.347C355.285 103.347 355.015 103.428 354.797 103.591C354.579 103.754 354.47 103.951 354.47 104.182H353.562C353.562 103.918 353.654 103.664 353.84 103.42C354.029 103.173 354.283 102.977 354.602 102.834C354.924 102.691 355.277 102.619 355.661 102.619C356.27 102.619 356.747 102.772 357.092 103.078C357.437 103.381 357.616 103.799 357.629 104.333V106.765C357.629 107.25 357.691 107.635 357.814 107.922V108H356.867ZM355.368 107.312C355.651 107.312 355.92 107.238 356.174 107.092C356.428 106.945 356.612 106.755 356.726 106.521V105.437H356.018C354.911 105.437 354.357 105.76 354.357 106.408C354.357 106.691 354.452 106.913 354.641 107.072C354.829 107.232 355.072 107.312 355.368 107.312ZM359.899 102.717L359.929 103.381C360.332 102.873 360.86 102.619 361.511 102.619C362.627 102.619 363.19 103.249 363.2 104.509V108H362.297V104.504C362.294 104.123 362.206 103.841 362.033 103.659C361.864 103.477 361.599 103.386 361.237 103.386C360.944 103.386 360.687 103.464 360.466 103.62C360.244 103.776 360.072 103.981 359.948 104.235V108H359.045V102.717H359.899ZM364.348 105.314C364.348 104.491 364.538 103.837 364.919 103.352C365.3 102.863 365.804 102.619 366.433 102.619C367.077 102.619 367.58 102.847 367.941 103.303L367.985 102.717H368.811V107.873C368.811 108.557 368.607 109.095 368.2 109.489C367.797 109.883 367.253 110.08 366.569 110.08C366.188 110.08 365.816 109.999 365.451 109.836C365.087 109.673 364.808 109.45 364.616 109.167L365.085 108.625C365.472 109.104 365.946 109.343 366.506 109.343C366.945 109.343 367.287 109.219 367.531 108.972C367.779 108.724 367.902 108.376 367.902 107.927V107.473C367.541 107.889 367.048 108.098 366.423 108.098C365.804 108.098 365.303 107.849 364.919 107.351C364.538 106.853 364.348 106.174 364.348 105.314ZM365.256 105.417C365.256 106.013 365.378 106.481 365.622 106.823C365.866 107.162 366.208 107.331 366.647 107.331C367.217 107.331 367.635 107.072 367.902 106.555V104.143C367.626 103.638 367.211 103.386 366.657 103.386C366.218 103.386 365.874 103.557 365.627 103.898C365.38 104.24 365.256 104.746 365.256 105.417ZM373.439 107.478C373.088 107.891 372.572 108.098 371.892 108.098C371.328 108.098 370.899 107.935 370.603 107.609C370.31 107.281 370.161 106.796 370.158 106.154V102.717H371.062V106.13C371.062 106.931 371.387 107.331 372.038 107.331C372.728 107.331 373.187 107.074 373.415 106.56V102.717H374.318V108H373.459L373.439 107.478ZM376.677 108H375.773V100.5H376.677V108ZM381.389 108C381.337 107.896 381.294 107.71 381.262 107.443C380.842 107.88 380.34 108.098 379.758 108.098C379.237 108.098 378.809 107.951 378.474 107.658C378.142 107.362 377.976 106.988 377.976 106.535C377.976 105.985 378.184 105.559 378.601 105.256C379.021 104.95 379.61 104.797 380.368 104.797H381.247V104.382C381.247 104.066 381.153 103.815 380.964 103.63C380.775 103.441 380.497 103.347 380.129 103.347C379.807 103.347 379.536 103.428 379.318 103.591C379.1 103.754 378.991 103.951 378.991 104.182H378.083C378.083 103.918 378.176 103.664 378.361 103.42C378.55 103.173 378.804 102.977 379.123 102.834C379.445 102.691 379.799 102.619 380.183 102.619C380.791 102.619 381.268 102.772 381.613 103.078C381.958 103.381 382.137 103.799 382.15 104.333V106.765C382.15 107.25 382.212 107.635 382.336 107.922V108H381.389ZM379.89 107.312C380.173 107.312 380.441 107.238 380.695 107.092C380.949 106.945 381.133 106.755 381.247 106.521V105.437H380.539C379.432 105.437 378.879 105.76 378.879 106.408C378.879 106.691 378.973 106.913 379.162 107.072C379.351 107.232 379.593 107.312 379.89 107.312ZM386.12 103.527C385.983 103.505 385.835 103.493 385.676 103.493C385.083 103.493 384.681 103.745 384.47 104.25V108H383.566V102.717H384.445L384.46 103.327C384.756 102.855 385.176 102.619 385.72 102.619C385.896 102.619 386.029 102.642 386.12 102.688V103.527ZM389.88 108V103.415H389.045V102.717H389.88V102.175C389.88 101.608 390.031 101.171 390.334 100.861C390.637 100.552 391.065 100.397 391.618 100.397C391.826 100.397 392.033 100.425 392.238 100.48L392.189 101.213C392.036 101.184 391.874 101.169 391.701 101.169C391.408 101.169 391.182 101.255 391.022 101.428C390.863 101.597 390.783 101.841 390.783 102.16V102.717H391.911V103.415H390.783V108H389.88ZM392.673 105.31C392.673 104.792 392.774 104.326 392.976 103.913C393.181 103.5 393.464 103.181 393.825 102.956C394.19 102.731 394.605 102.619 395.07 102.619C395.79 102.619 396.371 102.868 396.813 103.366C397.259 103.864 397.482 104.527 397.482 105.354V105.417C397.482 105.931 397.383 106.394 397.185 106.804C396.989 107.211 396.708 107.528 396.34 107.756C395.975 107.984 395.555 108.098 395.08 108.098C394.364 108.098 393.783 107.849 393.337 107.351C392.894 106.853 392.673 106.193 392.673 105.373V105.31ZM393.581 105.417C393.581 106.003 393.716 106.473 393.986 106.828C394.26 107.183 394.624 107.36 395.08 107.36C395.539 107.36 395.904 107.181 396.174 106.823C396.444 106.462 396.579 105.957 396.579 105.31C396.579 104.73 396.441 104.261 396.164 103.903C395.891 103.542 395.526 103.361 395.07 103.361C394.624 103.361 394.265 103.539 393.991 103.894C393.718 104.248 393.581 104.756 393.581 105.417ZM401.169 103.527C401.032 103.505 400.884 103.493 400.725 103.493C400.132 103.493 399.73 103.745 399.519 104.25V108H398.615V102.717H399.494L399.509 103.327C399.805 102.855 400.225 102.619 400.769 102.619C400.944 102.619 401.078 102.642 401.169 102.688V103.527ZM402.854 102.717L402.878 103.303C403.265 102.847 403.788 102.619 404.445 102.619C405.184 102.619 405.687 102.902 405.954 103.469C406.13 103.215 406.358 103.01 406.638 102.854C406.921 102.697 407.255 102.619 407.639 102.619C408.798 102.619 409.387 103.233 409.406 104.46V108H408.503V104.514C408.503 104.136 408.417 103.854 408.244 103.669C408.072 103.48 407.782 103.386 407.375 103.386C407.04 103.386 406.761 103.487 406.54 103.688C406.319 103.887 406.19 104.156 406.154 104.494V108H405.246V104.538C405.246 103.77 404.87 103.386 404.118 103.386C403.526 103.386 403.12 103.638 402.902 104.143V108H401.999V102.717H402.854ZM266.633 116.025H262.561V115.239H266.633V116.025ZM266.633 118.052H262.561V117.271H266.633V118.052ZM271.188 116.826L267.961 115.562V114.634L272.131 116.479V117.192L267.961 119.043V118.105L271.188 116.826ZM281.086 119.067C280.845 119.412 280.508 119.671 280.075 119.844C279.646 120.013 279.144 120.098 278.571 120.098C277.992 120.098 277.478 119.963 277.028 119.692C276.579 119.419 276.231 119.032 275.983 118.53C275.739 118.029 275.614 117.448 275.607 116.787V116.167C275.607 115.096 275.856 114.266 276.354 113.677C276.856 113.088 277.559 112.793 278.464 112.793C279.206 112.793 279.803 112.983 280.256 113.364C280.708 113.742 280.985 114.279 281.086 114.976H280.148C279.973 114.035 279.413 113.564 278.469 113.564C277.84 113.564 277.364 113.786 277.038 114.229C276.716 114.668 276.553 115.306 276.55 116.143V116.724C276.55 117.521 276.732 118.156 277.097 118.628C277.461 119.097 277.954 119.331 278.576 119.331C278.928 119.331 279.235 119.292 279.499 119.214C279.763 119.136 279.981 119.004 280.153 118.818V117.222H278.508V116.46H281.086V119.067ZM285.773 120C285.721 119.896 285.679 119.71 285.646 119.443C285.227 119.88 284.725 120.098 284.143 120.098C283.622 120.098 283.194 119.951 282.858 119.658C282.526 119.362 282.36 118.988 282.36 118.535C282.36 117.985 282.569 117.559 282.985 117.256C283.405 116.95 283.994 116.797 284.753 116.797H285.632V116.382C285.632 116.066 285.537 115.815 285.349 115.63C285.16 115.441 284.882 115.347 284.514 115.347C284.191 115.347 283.921 115.428 283.703 115.591C283.485 115.754 283.376 115.951 283.376 116.182H282.468C282.468 115.918 282.561 115.664 282.746 115.42C282.935 115.173 283.189 114.977 283.508 114.834C283.83 114.691 284.183 114.619 284.567 114.619C285.176 114.619 285.653 114.772 285.998 115.078C286.343 115.381 286.522 115.799 286.535 116.333V118.765C286.535 119.25 286.597 119.635 286.721 119.922V120H285.773ZM284.274 119.312C284.558 119.312 284.826 119.238 285.08 119.092C285.334 118.945 285.518 118.755 285.632 118.521V117.437H284.924C283.817 117.437 283.264 117.76 283.264 118.408C283.264 118.691 283.358 118.913 283.547 119.072C283.736 119.232 283.978 119.312 284.274 119.312ZM291.213 119.478C290.861 119.891 290.345 120.098 289.665 120.098C289.102 120.098 288.672 119.935 288.376 119.609C288.083 119.281 287.935 118.796 287.932 118.154V114.717H288.835V118.13C288.835 118.931 289.16 119.331 289.812 119.331C290.502 119.331 290.961 119.074 291.188 118.56V114.717H292.092V120H291.232L291.213 119.478ZM296.545 118.599C296.545 118.354 296.452 118.166 296.267 118.032C296.084 117.896 295.764 117.778 295.305 117.681C294.849 117.583 294.486 117.466 294.216 117.329C293.949 117.192 293.75 117.03 293.62 116.841C293.493 116.652 293.43 116.427 293.43 116.167C293.43 115.734 293.612 115.368 293.977 115.068C294.344 114.769 294.813 114.619 295.383 114.619C295.982 114.619 296.467 114.774 296.838 115.083C297.212 115.392 297.399 115.788 297.399 116.27H296.491C296.491 116.022 296.385 115.809 296.174 115.63C295.965 115.451 295.702 115.361 295.383 115.361C295.054 115.361 294.797 115.433 294.611 115.576C294.426 115.719 294.333 115.907 294.333 116.138C294.333 116.356 294.419 116.52 294.592 116.631C294.764 116.742 295.075 116.847 295.524 116.948C295.977 117.049 296.343 117.17 296.623 117.31C296.903 117.45 297.11 117.619 297.243 117.817C297.38 118.013 297.448 118.252 297.448 118.535C297.448 119.007 297.259 119.386 296.882 119.673C296.504 119.956 296.014 120.098 295.412 120.098C294.989 120.098 294.615 120.023 294.289 119.873C293.964 119.723 293.708 119.515 293.522 119.248C293.34 118.978 293.249 118.687 293.249 118.374H294.152C294.169 118.677 294.289 118.918 294.514 119.097C294.742 119.272 295.041 119.36 295.412 119.36C295.754 119.36 296.027 119.292 296.232 119.155C296.441 119.015 296.545 118.83 296.545 118.599ZM301.701 118.599C301.701 118.354 301.608 118.166 301.423 118.032C301.241 117.896 300.92 117.778 300.461 117.681C300.005 117.583 299.642 117.466 299.372 117.329C299.105 117.192 298.907 117.03 298.776 116.841C298.649 116.652 298.586 116.427 298.586 116.167C298.586 115.734 298.768 115.368 299.133 115.068C299.501 114.769 299.969 114.619 300.539 114.619C301.138 114.619 301.623 114.774 301.994 115.083C302.368 115.392 302.556 115.788 302.556 116.27H301.647C301.647 116.022 301.542 115.809 301.33 115.63C301.122 115.451 300.858 115.361 300.539 115.361C300.21 115.361 299.953 115.433 299.768 115.576C299.582 115.719 299.489 115.907 299.489 116.138C299.489 116.356 299.576 116.52 299.748 116.631C299.921 116.742 300.231 116.847 300.681 116.948C301.133 117.049 301.499 117.17 301.779 117.31C302.059 117.45 302.266 117.619 302.399 117.817C302.536 118.013 302.604 118.252 302.604 118.535C302.604 119.007 302.416 119.386 302.038 119.673C301.66 119.956 301.171 120.098 300.568 120.098C300.145 120.098 299.771 120.023 299.445 119.873C299.12 119.723 298.864 119.515 298.679 119.248C298.496 118.978 298.405 118.687 298.405 118.374H299.309C299.325 118.677 299.445 118.918 299.67 119.097C299.898 119.272 300.197 119.36 300.568 119.36C300.91 119.36 301.184 119.292 301.389 119.155C301.597 119.015 301.701 118.83 301.701 118.599ZM310.939 118.755L311.955 114.717H312.858L311.32 120H310.588L309.304 115.996L308.054 120H307.321L305.788 114.717H306.687L307.727 118.672L308.957 114.717H309.685L310.939 118.755ZM314.763 120H313.859V114.717H314.763V120ZM313.786 113.315C313.786 113.169 313.83 113.045 313.918 112.944C314.009 112.843 314.143 112.793 314.318 112.793C314.494 112.793 314.628 112.843 314.719 112.944C314.81 113.045 314.855 113.169 314.855 113.315C314.855 113.462 314.81 113.584 314.719 113.682C314.628 113.779 314.494 113.828 314.318 113.828C314.143 113.828 314.009 113.779 313.918 113.682C313.83 113.584 313.786 113.462 313.786 113.315ZM317.194 120H316.291V112.5H317.194V120ZM319.626 120H318.723V112.5H319.626V120ZM323.337 117.314C323.337 116.484 323.527 115.828 323.908 115.347C324.289 114.862 324.8 114.619 325.441 114.619C326.066 114.619 326.56 114.829 326.921 115.249L326.96 114.717H327.79V122.031H326.887V119.512C326.522 119.902 326.037 120.098 325.432 120.098C324.794 120.098 324.284 119.85 323.903 119.355C323.526 118.857 323.337 118.198 323.337 117.378V117.314ZM324.24 117.417C324.24 118.022 324.367 118.498 324.621 118.843C324.878 119.188 325.223 119.36 325.656 119.36C326.193 119.36 326.604 119.123 326.887 118.647V116.06C326.6 115.594 326.193 115.361 325.666 115.361C325.23 115.361 324.883 115.535 324.626 115.884C324.369 116.229 324.24 116.74 324.24 117.417ZM332.502 119.478C332.15 119.891 331.634 120.098 330.954 120.098C330.391 120.098 329.961 119.935 329.665 119.609C329.372 119.281 329.224 118.796 329.221 118.154V114.717H330.124V118.13C330.124 118.931 330.45 119.331 331.101 119.331C331.791 119.331 332.25 119.074 332.478 118.56V114.717H333.381V120H332.521L332.502 119.478ZM335.739 120H334.836V114.717H335.739V120ZM334.763 113.315C334.763 113.169 334.807 113.045 334.895 112.944C334.986 112.843 335.119 112.793 335.295 112.793C335.471 112.793 335.604 112.843 335.695 112.944C335.786 113.045 335.832 113.169 335.832 113.315C335.832 113.462 335.786 113.584 335.695 113.682C335.604 113.779 335.471 113.828 335.295 113.828C335.119 113.828 334.986 113.779 334.895 113.682C334.807 113.584 334.763 113.462 334.763 113.315ZM338.415 113.438V114.717H339.401V115.415H338.415V118.691C338.415 118.903 338.459 119.062 338.547 119.17C338.635 119.274 338.785 119.326 338.996 119.326C339.1 119.326 339.243 119.307 339.426 119.268V120C339.188 120.065 338.957 120.098 338.732 120.098C338.329 120.098 338.024 119.976 337.819 119.731C337.614 119.487 337.512 119.141 337.512 118.691V115.415H336.55V114.717H337.512V113.438H338.415ZM347.414 117.417C347.414 118.224 347.229 118.874 346.857 119.365C346.486 119.854 345.988 120.098 345.363 120.098C344.696 120.098 344.18 119.862 343.815 119.39L343.771 120H342.941V112.5H343.845V115.298C344.209 114.845 344.712 114.619 345.354 114.619C345.995 114.619 346.498 114.862 346.862 115.347C347.23 115.832 347.414 116.496 347.414 117.339V117.417ZM346.511 117.314C346.511 116.699 346.392 116.224 346.154 115.889C345.917 115.553 345.575 115.386 345.129 115.386C344.533 115.386 344.105 115.662 343.845 116.216V118.501C344.121 119.054 344.553 119.331 345.139 119.331C345.572 119.331 345.909 119.163 346.149 118.828C346.39 118.493 346.511 117.988 346.511 117.314ZM351.818 119.478C351.467 119.891 350.951 120.098 350.271 120.098C349.707 120.098 349.278 119.935 348.981 119.609C348.688 119.281 348.54 118.796 348.537 118.154V114.717H349.44V118.13C349.44 118.931 349.766 119.331 350.417 119.331C351.107 119.331 351.566 119.074 351.794 118.56V114.717H352.697V120H351.838L351.818 119.478ZM355.3 113.438V114.717H356.286V115.415H355.3V118.691C355.3 118.903 355.344 119.062 355.432 119.17C355.52 119.274 355.669 119.326 355.881 119.326C355.985 119.326 356.128 119.307 356.311 119.268V120C356.073 120.065 355.842 120.098 355.617 120.098C355.214 120.098 354.909 119.976 354.704 119.731C354.499 119.487 354.396 119.141 354.396 118.691V115.415H353.435V114.717H354.396V113.438H355.3ZM362.946 112.891H363.889V117.925C363.889 118.605 363.684 119.137 363.273 119.521C362.867 119.906 362.323 120.098 361.643 120.098C360.936 120.098 360.386 119.917 359.992 119.556C359.598 119.194 359.401 118.688 359.401 118.037H360.339C360.339 118.444 360.45 118.761 360.671 118.989C360.896 119.217 361.219 119.331 361.643 119.331C362.03 119.331 362.342 119.209 362.58 118.965C362.821 118.721 362.943 118.379 362.946 117.939V112.891ZM365.104 117.31C365.104 116.792 365.205 116.326 365.407 115.913C365.612 115.5 365.896 115.181 366.257 114.956C366.621 114.731 367.036 114.619 367.502 114.619C368.221 114.619 368.802 114.868 369.245 115.366C369.691 115.864 369.914 116.527 369.914 117.354V117.417C369.914 117.931 369.815 118.394 369.616 118.804C369.421 119.211 369.139 119.528 368.771 119.756C368.407 119.984 367.987 120.098 367.512 120.098C366.796 120.098 366.215 119.849 365.769 119.351C365.326 118.853 365.104 118.193 365.104 117.373V117.31ZM366.013 117.417C366.013 118.003 366.148 118.473 366.418 118.828C366.691 119.183 367.056 119.36 367.512 119.36C367.971 119.36 368.335 119.181 368.605 118.823C368.876 118.462 369.011 117.957 369.011 117.31C369.011 116.73 368.872 116.261 368.596 115.903C368.322 115.542 367.958 115.361 367.502 115.361C367.056 115.361 366.696 115.539 366.423 115.894C366.149 116.248 366.013 116.756 366.013 117.417ZM373.601 115.527C373.464 115.505 373.316 115.493 373.156 115.493C372.564 115.493 372.162 115.745 371.95 116.25V120H371.047V114.717H371.926L371.94 115.327C372.237 114.855 372.657 114.619 373.2 114.619C373.376 114.619 373.509 114.642 373.601 114.688V115.527ZM374.118 117.314C374.118 116.504 374.31 115.853 374.694 115.361C375.078 114.867 375.581 114.619 376.203 114.619C376.822 114.619 377.312 114.831 377.673 115.254V112.5H378.576V120H377.746L377.702 119.434C377.341 119.876 376.838 120.098 376.193 120.098C375.581 120.098 375.082 119.847 374.694 119.346C374.31 118.844 374.118 118.19 374.118 117.383V117.314ZM375.021 117.417C375.021 118.016 375.145 118.485 375.393 118.823C375.64 119.162 375.982 119.331 376.418 119.331C376.991 119.331 377.409 119.074 377.673 118.56V116.133C377.403 115.635 376.988 115.386 376.428 115.386C375.985 115.386 375.64 115.557 375.393 115.898C375.145 116.24 375.021 116.746 375.021 117.417ZM383.244 120C383.192 119.896 383.15 119.71 383.117 119.443C382.697 119.88 382.196 120.098 381.613 120.098C381.092 120.098 380.664 119.951 380.329 119.658C379.997 119.362 379.831 118.988 379.831 118.535C379.831 117.985 380.039 117.559 380.456 117.256C380.876 116.95 381.465 116.797 382.224 116.797H383.103V116.382C383.103 116.066 383.008 115.815 382.819 115.63C382.631 115.441 382.352 115.347 381.984 115.347C381.662 115.347 381.392 115.428 381.174 115.591C380.956 115.754 380.847 115.951 380.847 116.182H379.938C379.938 115.918 380.031 115.664 380.217 115.42C380.406 115.173 380.66 114.977 380.979 114.834C381.301 114.691 381.654 114.619 382.038 114.619C382.647 114.619 383.124 114.772 383.469 115.078C383.814 115.381 383.993 115.799 384.006 116.333V118.765C384.006 119.25 384.068 119.635 384.191 119.922V120H383.244ZM381.745 119.312C382.028 119.312 382.297 119.238 382.551 119.092C382.805 118.945 382.989 118.755 383.103 118.521V117.437H382.395C381.288 117.437 380.734 117.76 380.734 118.408C380.734 118.691 380.829 118.913 381.018 119.072C381.206 119.232 381.449 119.312 381.745 119.312ZM386.276 114.717L386.306 115.381C386.709 114.873 387.237 114.619 387.888 114.619C389.004 114.619 389.567 115.249 389.577 116.509V120H388.674V116.504C388.671 116.123 388.583 115.841 388.41 115.659C388.241 115.477 387.976 115.386 387.614 115.386C387.321 115.386 387.064 115.464 386.843 115.62C386.621 115.776 386.449 115.981 386.325 116.235V120H385.422V114.717H386.276ZM396.496 118.599C396.496 118.354 396.403 118.166 396.218 118.032C396.035 117.896 395.715 117.778 395.256 117.681C394.8 117.583 394.437 117.466 394.167 117.329C393.9 117.192 393.701 117.03 393.571 116.841C393.444 116.652 393.381 116.427 393.381 116.167C393.381 115.734 393.563 115.368 393.928 115.068C394.296 114.769 394.764 114.619 395.334 114.619C395.933 114.619 396.418 114.774 396.789 115.083C397.163 115.392 397.351 115.788 397.351 116.27H396.442C396.442 116.022 396.337 115.809 396.125 115.63C395.917 115.451 395.653 115.361 395.334 115.361C395.005 115.361 394.748 115.433 394.562 115.576C394.377 115.719 394.284 115.907 394.284 116.138C394.284 116.356 394.37 116.52 394.543 116.631C394.715 116.742 395.026 116.847 395.476 116.948C395.928 117.049 396.294 117.17 396.574 117.31C396.854 117.45 397.061 117.619 397.194 117.817C397.331 118.013 397.399 118.252 397.399 118.535C397.399 119.007 397.211 119.386 396.833 119.673C396.455 119.956 395.965 120.098 395.363 120.098C394.94 120.098 394.566 120.023 394.24 119.873C393.915 119.723 393.659 119.515 393.474 119.248C393.291 118.978 393.2 118.687 393.2 118.374H394.104C394.12 118.677 394.24 118.918 394.465 119.097C394.693 119.272 394.992 119.36 395.363 119.36C395.705 119.36 395.979 119.292 396.184 119.155C396.392 119.015 396.496 118.83 396.496 118.599ZM401.838 120C401.786 119.896 401.743 119.71 401.711 119.443C401.291 119.88 400.79 120.098 400.207 120.098C399.686 120.098 399.258 119.951 398.923 119.658C398.591 119.362 398.425 118.988 398.425 118.535C398.425 117.985 398.633 117.559 399.05 117.256C399.47 116.95 400.059 116.797 400.817 116.797H401.696V116.382C401.696 116.066 401.602 115.815 401.413 115.63C401.224 115.441 400.946 115.347 400.578 115.347C400.256 115.347 399.986 115.428 399.768 115.591C399.549 115.754 399.44 115.951 399.44 116.182H398.532C398.532 115.918 398.625 115.664 398.811 115.42C398.999 115.173 399.253 114.977 399.572 114.834C399.895 114.691 400.248 114.619 400.632 114.619C401.241 114.619 401.717 114.772 402.062 115.078C402.408 115.381 402.587 115.799 402.6 116.333V118.765C402.6 119.25 402.661 119.635 402.785 119.922V120H401.838ZM400.339 119.312C400.622 119.312 400.891 119.238 401.145 119.092C401.398 118.945 401.582 118.755 401.696 118.521V117.437H400.988C399.882 117.437 399.328 117.76 399.328 118.408C399.328 118.691 399.423 118.913 399.611 119.072C399.8 119.232 400.043 119.312 400.339 119.312ZM405.666 118.677L406.896 114.717H407.863L405.739 120.815C405.41 121.694 404.888 122.134 404.172 122.134L404.001 122.119L403.664 122.056V121.323L403.908 121.343C404.214 121.343 404.452 121.281 404.621 121.157C404.794 121.034 404.935 120.807 405.046 120.479L405.246 119.941L403.361 114.717H404.348L405.666 118.677ZM411.75 118.599C411.75 118.354 411.657 118.166 411.472 118.032C411.289 117.896 410.969 117.778 410.51 117.681C410.054 117.583 409.691 117.466 409.421 117.329C409.154 117.192 408.955 117.03 408.825 116.841C408.698 116.652 408.635 116.427 408.635 116.167C408.635 115.734 408.817 115.368 409.182 115.068C409.549 114.769 410.018 114.619 410.588 114.619C411.187 114.619 411.672 114.774 412.043 115.083C412.417 115.392 412.604 115.788 412.604 116.27H411.696C411.696 116.022 411.59 115.809 411.379 115.63C411.171 115.451 410.907 115.361 410.588 115.361C410.259 115.361 410.002 115.433 409.816 115.576C409.631 115.719 409.538 115.907 409.538 116.138C409.538 116.356 409.624 116.52 409.797 116.631C409.969 116.742 410.28 116.847 410.729 116.948C411.182 117.049 411.548 117.17 411.828 117.31C412.108 117.45 412.315 117.619 412.448 117.817C412.585 118.013 412.653 118.252 412.653 118.535C412.653 119.007 412.465 119.386 412.087 119.673C411.709 119.956 411.219 120.098 410.617 120.098C410.194 120.098 409.82 120.023 409.494 119.873C409.169 119.723 408.913 119.515 408.728 119.248C408.545 118.978 408.454 118.687 408.454 118.374H409.357C409.374 118.677 409.494 118.918 409.719 119.097C409.947 119.272 410.246 119.36 410.617 119.36C410.959 119.36 411.232 119.292 411.438 119.155C411.646 119.015 411.75 118.83 411.75 118.599ZM417.785 117.554L417.219 118.145V120H416.315V112.5H417.219V117.036L417.702 116.455L419.348 114.717H420.446L418.391 116.924L420.686 120H419.626L417.785 117.554ZM423.474 120.098C422.757 120.098 422.175 119.863 421.726 119.395C421.276 118.923 421.052 118.293 421.052 117.505V117.339C421.052 116.815 421.151 116.348 421.35 115.938C421.551 115.524 421.831 115.202 422.189 114.971C422.551 114.736 422.941 114.619 423.361 114.619C424.048 114.619 424.582 114.845 424.963 115.298C425.344 115.75 425.534 116.398 425.534 117.241V117.617H421.955C421.968 118.138 422.119 118.56 422.409 118.882C422.702 119.201 423.073 119.36 423.522 119.36C423.841 119.36 424.112 119.295 424.333 119.165C424.554 119.035 424.748 118.862 424.914 118.647L425.466 119.077C425.023 119.757 424.359 120.098 423.474 120.098ZM423.361 115.361C422.997 115.361 422.691 115.495 422.443 115.762C422.196 116.025 422.043 116.396 421.984 116.875H424.631V116.807C424.605 116.348 424.481 115.993 424.26 115.742C424.038 115.488 423.739 115.361 423.361 115.361ZM428.776 120.098C428.06 120.098 427.478 119.863 427.028 119.395C426.579 118.923 426.354 118.293 426.354 117.505V117.339C426.354 116.815 426.454 116.348 426.652 115.938C426.854 115.524 427.134 115.202 427.492 114.971C427.854 114.736 428.244 114.619 428.664 114.619C429.351 114.619 429.885 114.845 430.266 115.298C430.646 115.75 430.837 116.398 430.837 117.241V117.617H427.258C427.271 118.138 427.422 118.56 427.712 118.882C428.005 119.201 428.376 119.36 428.825 119.36C429.144 119.36 429.414 119.295 429.636 119.165C429.857 119.035 430.051 118.862 430.217 118.647L430.769 119.077C430.326 119.757 429.662 120.098 428.776 120.098ZM428.664 115.361C428.299 115.361 427.993 115.495 427.746 115.762C427.499 116.025 427.346 116.396 427.287 116.875H429.934V116.807C429.908 116.348 429.784 115.993 429.562 115.742C429.341 115.488 429.042 115.361 428.664 115.361ZM436.35 117.417C436.35 118.221 436.166 118.869 435.798 119.36C435.43 119.852 434.932 120.098 434.304 120.098C433.662 120.098 433.158 119.894 432.79 119.487V122.031H431.887V114.717H432.712L432.756 115.303C433.124 114.847 433.635 114.619 434.289 114.619C434.924 114.619 435.425 114.858 435.793 115.337C436.164 115.815 436.35 116.481 436.35 117.334V117.417ZM435.446 117.314C435.446 116.719 435.319 116.248 435.065 115.903C434.812 115.558 434.463 115.386 434.021 115.386C433.474 115.386 433.063 115.628 432.79 116.113V118.638C433.06 119.119 433.474 119.36 434.03 119.36C434.463 119.36 434.807 119.189 435.061 118.848C435.318 118.503 435.446 117.992 435.446 117.314ZM439.768 117.314C439.768 116.491 439.958 115.837 440.339 115.352C440.72 114.863 441.224 114.619 441.853 114.619C442.497 114.619 443 114.847 443.361 115.303L443.405 114.717H444.23V119.873C444.23 120.557 444.027 121.095 443.62 121.489C443.216 121.883 442.673 122.08 441.989 122.08C441.608 122.08 441.236 121.999 440.871 121.836C440.507 121.673 440.228 121.45 440.036 121.167L440.505 120.625C440.892 121.104 441.366 121.343 441.926 121.343C442.365 121.343 442.707 121.219 442.951 120.972C443.199 120.724 443.322 120.376 443.322 119.927V119.473C442.961 119.889 442.468 120.098 441.843 120.098C441.224 120.098 440.723 119.849 440.339 119.351C439.958 118.853 439.768 118.174 439.768 117.314ZM440.676 117.417C440.676 118.013 440.798 118.481 441.042 118.823C441.286 119.162 441.628 119.331 442.067 119.331C442.637 119.331 443.055 119.072 443.322 118.555V116.143C443.046 115.638 442.631 115.386 442.077 115.386C441.638 115.386 441.294 115.557 441.047 115.898C440.799 116.24 440.676 116.746 440.676 117.417ZM445.358 117.31C445.358 116.792 445.459 116.326 445.661 115.913C445.866 115.5 446.149 115.181 446.511 114.956C446.875 114.731 447.29 114.619 447.756 114.619C448.475 114.619 449.056 114.868 449.499 115.366C449.945 115.864 450.168 116.527 450.168 117.354V117.417C450.168 117.931 450.069 118.394 449.87 118.804C449.675 119.211 449.393 119.528 449.025 119.756C448.661 119.984 448.241 120.098 447.766 120.098C447.049 120.098 446.468 119.849 446.022 119.351C445.58 118.853 445.358 118.193 445.358 117.373V117.31ZM446.267 117.417C446.267 118.003 446.402 118.473 446.672 118.828C446.945 119.183 447.31 119.36 447.766 119.36C448.225 119.36 448.589 119.181 448.859 118.823C449.13 118.462 449.265 117.957 449.265 117.31C449.265 116.73 449.126 116.261 448.85 115.903C448.576 115.542 448.212 115.361 447.756 115.361C447.31 115.361 446.95 115.539 446.677 115.894C446.403 116.248 446.267 116.756 446.267 117.417ZM452.282 120H451.379V114.717H452.282V120ZM451.306 113.315C451.306 113.169 451.35 113.045 451.438 112.944C451.529 112.843 451.662 112.793 451.838 112.793C452.014 112.793 452.147 112.843 452.238 112.944C452.329 113.045 452.375 113.169 452.375 113.315C452.375 113.462 452.329 113.584 452.238 113.682C452.147 113.779 452.014 113.828 451.838 113.828C451.662 113.828 451.529 113.779 451.438 113.682C451.35 113.584 451.306 113.462 451.306 113.315ZM454.587 114.717L454.616 115.381C455.02 114.873 455.547 114.619 456.198 114.619C457.315 114.619 457.878 115.249 457.888 116.509V120H456.984V116.504C456.981 116.123 456.893 115.841 456.721 115.659C456.551 115.477 456.286 115.386 455.925 115.386C455.632 115.386 455.375 115.464 455.153 115.62C454.932 115.776 454.759 115.981 454.636 116.235V120H453.732V114.717H454.587ZM459.035 117.314C459.035 116.491 459.226 115.837 459.606 115.352C459.987 114.863 460.492 114.619 461.12 114.619C461.765 114.619 462.268 114.847 462.629 115.303L462.673 114.717H463.498V119.873C463.498 120.557 463.295 121.095 462.888 121.489C462.484 121.883 461.94 122.08 461.257 122.08C460.876 122.08 460.503 121.999 460.139 121.836C459.774 121.673 459.496 121.45 459.304 121.167L459.772 120.625C460.16 121.104 460.633 121.343 461.193 121.343C461.633 121.343 461.975 121.219 462.219 120.972C462.466 120.724 462.59 120.376 462.59 119.927V119.473C462.229 119.889 461.735 120.098 461.11 120.098C460.492 120.098 459.991 119.849 459.606 119.351C459.226 118.853 459.035 118.174 459.035 117.314ZM459.943 117.417C459.943 118.013 460.065 118.481 460.31 118.823C460.554 119.162 460.896 119.331 461.335 119.331C461.905 119.331 462.323 119.072 462.59 118.555V116.143C462.313 115.638 461.898 115.386 461.345 115.386C460.905 115.386 460.562 115.557 460.314 115.898C460.067 116.24 459.943 116.746 459.943 117.417ZM308.273 128.025H304.201V127.239H308.273V128.025ZM308.273 130.052H304.201V129.271H308.273V130.052ZM312.829 128.826L309.602 127.562V126.634L313.771 128.479V129.192L309.602 131.043V130.105L312.829 128.826ZM318.117 131.478C317.766 131.891 317.25 132.098 316.569 132.098C316.006 132.098 315.576 131.935 315.28 131.609C314.987 131.281 314.839 130.796 314.836 130.154V126.717H315.739V130.13C315.739 130.931 316.065 131.331 316.716 131.331C317.406 131.331 317.865 131.074 318.093 130.56V126.717H318.996V132H318.137L318.117 131.478ZM323.449 130.599C323.449 130.354 323.356 130.166 323.171 130.032C322.989 129.896 322.668 129.778 322.209 129.681C321.753 129.583 321.39 129.466 321.12 129.329C320.853 129.192 320.655 129.03 320.524 128.841C320.397 128.652 320.334 128.427 320.334 128.167C320.334 127.734 320.516 127.368 320.881 127.068C321.249 126.769 321.717 126.619 322.287 126.619C322.886 126.619 323.371 126.774 323.742 127.083C324.117 127.392 324.304 127.788 324.304 128.27H323.396C323.396 128.022 323.29 127.809 323.078 127.63C322.87 127.451 322.606 127.361 322.287 127.361C321.958 127.361 321.701 127.433 321.516 127.576C321.33 127.719 321.237 127.907 321.237 128.138C321.237 128.356 321.324 128.52 321.496 128.631C321.669 128.742 321.979 128.847 322.429 128.948C322.881 129.049 323.247 129.17 323.527 129.31C323.807 129.45 324.014 129.619 324.147 129.817C324.284 130.013 324.353 130.252 324.353 130.535C324.353 131.007 324.164 131.386 323.786 131.673C323.409 131.956 322.919 132.098 322.316 132.098C321.893 132.098 321.519 132.023 321.193 131.873C320.868 131.723 320.612 131.515 320.427 131.248C320.244 130.978 320.153 130.687 320.153 130.374H321.057C321.073 130.677 321.193 130.918 321.418 131.097C321.646 131.272 321.945 131.36 322.316 131.36C322.658 131.36 322.932 131.292 323.137 131.155C323.345 131.015 323.449 130.83 323.449 130.599ZM327.722 132.098C327.006 132.098 326.423 131.863 325.974 131.395C325.524 130.923 325.3 130.293 325.3 129.505V129.339C325.3 128.815 325.399 128.348 325.598 127.938C325.799 127.524 326.079 127.202 326.438 126.971C326.799 126.736 327.189 126.619 327.609 126.619C328.296 126.619 328.83 126.845 329.211 127.298C329.592 127.75 329.782 128.398 329.782 129.241V129.617H326.203C326.216 130.138 326.368 130.56 326.657 130.882C326.95 131.201 327.321 131.36 327.771 131.36C328.09 131.36 328.36 131.295 328.581 131.165C328.802 131.035 328.996 130.862 329.162 130.647L329.714 131.077C329.271 131.757 328.607 132.098 327.722 132.098ZM327.609 127.361C327.245 127.361 326.939 127.495 326.691 127.762C326.444 128.025 326.291 128.396 326.232 128.875H328.879V128.807C328.853 128.348 328.729 127.993 328.508 127.742C328.286 127.488 327.987 127.361 327.609 127.361ZM335.505 132.098C334.789 132.098 334.206 131.863 333.757 131.395C333.308 130.923 333.083 130.293 333.083 129.505V129.339C333.083 128.815 333.182 128.348 333.381 127.938C333.583 127.524 333.863 127.202 334.221 126.971C334.582 126.736 334.973 126.619 335.393 126.619C336.079 126.619 336.613 126.845 336.994 127.298C337.375 127.75 337.565 128.398 337.565 129.241V129.617H333.986C333.999 130.138 334.151 130.56 334.44 130.882C334.733 131.201 335.104 131.36 335.554 131.36C335.873 131.36 336.143 131.295 336.364 131.165C336.586 131.035 336.779 130.862 336.945 130.647L337.497 131.077C337.054 131.757 336.39 132.098 335.505 132.098ZM335.393 127.361C335.028 127.361 334.722 127.495 334.475 127.762C334.227 128.025 334.074 128.396 334.016 128.875H336.662V128.807C336.636 128.348 336.512 127.993 336.291 127.742C336.07 127.488 335.77 127.361 335.393 127.361ZM339.597 132H338.693V124.5H339.597V132ZM342.028 132H341.125V126.717H342.028V132ZM341.052 125.315C341.052 125.169 341.096 125.045 341.184 124.944C341.275 124.843 341.408 124.793 341.584 124.793C341.76 124.793 341.893 124.843 341.984 124.944C342.076 125.045 342.121 125.169 342.121 125.315C342.121 125.462 342.076 125.584 341.984 125.682C341.893 125.779 341.76 125.828 341.584 125.828C341.408 125.828 341.275 125.779 341.184 125.682C341.096 125.584 341.052 125.462 341.052 125.315ZM344.328 126.717L344.353 127.303C344.74 126.847 345.262 126.619 345.92 126.619C346.659 126.619 347.162 126.902 347.429 127.469C347.604 127.215 347.832 127.01 348.112 126.854C348.396 126.697 348.729 126.619 349.113 126.619C350.272 126.619 350.861 127.233 350.881 128.46V132H349.978V128.514C349.978 128.136 349.891 127.854 349.719 127.669C349.546 127.48 349.257 127.386 348.85 127.386C348.514 127.386 348.236 127.487 348.015 127.688C347.793 127.887 347.665 128.156 347.629 128.494V132H346.721V128.538C346.721 127.77 346.345 127.386 345.593 127.386C345 127.386 344.595 127.638 344.377 128.143V132H343.474V126.717H344.328ZM353.229 132H352.326V126.717H353.229V132ZM352.253 125.315C352.253 125.169 352.297 125.045 352.385 124.944C352.476 124.843 352.609 124.793 352.785 124.793C352.961 124.793 353.094 124.843 353.186 124.944C353.277 125.045 353.322 125.169 353.322 125.315C353.322 125.462 353.277 125.584 353.186 125.682C353.094 125.779 352.961 125.828 352.785 125.828C352.609 125.828 352.476 125.779 352.385 125.682C352.297 125.584 352.253 125.462 352.253 125.315ZM355.534 126.717L355.563 127.381C355.967 126.873 356.494 126.619 357.146 126.619C358.262 126.619 358.825 127.249 358.835 128.509V132H357.932V128.504C357.928 128.123 357.84 127.841 357.668 127.659C357.499 127.477 357.233 127.386 356.872 127.386C356.579 127.386 356.322 127.464 356.101 127.62C355.879 127.776 355.707 127.981 355.583 128.235V132H354.68V126.717H355.534ZM363.459 132C363.407 131.896 363.365 131.71 363.332 131.443C362.912 131.88 362.411 132.098 361.828 132.098C361.307 132.098 360.879 131.951 360.544 131.658C360.212 131.362 360.046 130.988 360.046 130.535C360.046 129.985 360.254 129.559 360.671 129.256C361.091 128.95 361.68 128.797 362.438 128.797H363.317V128.382C363.317 128.066 363.223 127.815 363.034 127.63C362.845 127.441 362.567 127.347 362.199 127.347C361.877 127.347 361.607 127.428 361.389 127.591C361.171 127.754 361.062 127.951 361.062 128.182H360.153C360.153 127.918 360.246 127.664 360.432 127.42C360.62 127.173 360.874 126.977 361.193 126.834C361.516 126.691 361.869 126.619 362.253 126.619C362.862 126.619 363.339 126.772 363.684 127.078C364.029 127.381 364.208 127.799 364.221 128.333V130.765C364.221 131.25 364.283 131.635 364.406 131.922V132H363.459ZM361.96 131.312C362.243 131.312 362.512 131.238 362.766 131.092C363.02 130.945 363.203 130.755 363.317 130.521V129.437H362.609C361.503 129.437 360.949 129.76 360.949 130.408C360.949 130.691 361.044 130.913 361.232 131.072C361.421 131.232 361.664 131.312 361.96 131.312ZM366.862 125.438V126.717H367.849V127.415H366.862V130.691C366.862 130.903 366.906 131.062 366.994 131.17C367.082 131.274 367.232 131.326 367.443 131.326C367.548 131.326 367.691 131.307 367.873 131.268V132C367.635 132.065 367.404 132.098 367.18 132.098C366.776 132.098 366.472 131.976 366.267 131.731C366.062 131.487 365.959 131.141 365.959 130.691V127.415H364.997V126.717H365.959V125.438H366.862ZM369.89 132H368.986V126.717H369.89V132ZM368.913 125.315C368.913 125.169 368.957 125.045 369.045 124.944C369.136 124.843 369.27 124.793 369.445 124.793C369.621 124.793 369.755 124.843 369.846 124.944C369.937 125.045 369.982 125.169 369.982 125.315C369.982 125.462 369.937 125.584 369.846 125.682C369.755 125.779 369.621 125.828 369.445 125.828C369.27 125.828 369.136 125.779 369.045 125.682C368.957 125.584 368.913 125.462 368.913 125.315ZM371.101 129.31C371.101 128.792 371.201 128.326 371.403 127.913C371.608 127.5 371.892 127.181 372.253 126.956C372.618 126.731 373.033 126.619 373.498 126.619C374.217 126.619 374.799 126.868 375.241 127.366C375.687 127.864 375.91 128.527 375.91 129.354V129.417C375.91 129.931 375.811 130.394 375.612 130.804C375.417 131.211 375.135 131.528 374.768 131.756C374.403 131.984 373.983 132.098 373.508 132.098C372.792 132.098 372.211 131.849 371.765 131.351C371.322 130.853 371.101 130.193 371.101 129.373V129.31ZM372.009 129.417C372.009 130.003 372.144 130.473 372.414 130.828C372.688 131.183 373.052 131.36 373.508 131.36C373.967 131.36 374.331 131.181 374.602 130.823C374.872 130.462 375.007 129.957 375.007 129.31C375.007 128.73 374.868 128.261 374.592 127.903C374.318 127.542 373.954 127.361 373.498 127.361C373.052 127.361 372.692 127.539 372.419 127.894C372.146 128.248 372.009 128.756 372.009 129.417ZM377.897 126.717L377.927 127.381C378.33 126.873 378.858 126.619 379.509 126.619C380.625 126.619 381.188 127.249 381.198 128.509V132H380.295V128.504C380.292 128.123 380.204 127.841 380.031 127.659C379.862 127.477 379.597 127.386 379.235 127.386C378.942 127.386 378.685 127.464 378.464 127.62C378.243 127.776 378.07 127.981 377.946 128.235V132H377.043V126.717H377.897ZM388.303 131.478C387.951 131.891 387.435 132.098 386.755 132.098C386.192 132.098 385.762 131.935 385.466 131.609C385.173 131.281 385.025 130.796 385.021 130.154V126.717H385.925V130.13C385.925 130.931 386.25 131.331 386.901 131.331C387.591 131.331 388.05 131.074 388.278 130.56V126.717H389.182V132H388.322L388.303 131.478ZM395.021 129.417C395.021 130.221 394.838 130.869 394.47 131.36C394.102 131.852 393.604 132.098 392.976 132.098C392.334 132.098 391.83 131.894 391.462 131.487V134.031H390.559V126.717H391.384L391.428 127.303C391.796 126.847 392.307 126.619 392.961 126.619C393.596 126.619 394.097 126.858 394.465 127.337C394.836 127.815 395.021 128.481 395.021 129.334V129.417ZM394.118 129.314C394.118 128.719 393.991 128.248 393.737 127.903C393.483 127.558 393.135 127.386 392.692 127.386C392.146 127.386 391.735 127.628 391.462 128.113V130.638C391.732 131.119 392.146 131.36 392.702 131.36C393.135 131.36 393.479 131.189 393.732 130.848C393.99 130.503 394.118 129.992 394.118 129.314ZM400.852 130.755L401.867 126.717H402.771L401.232 132H400.5L399.216 127.996L397.966 132H397.233L395.7 126.717H396.599L397.639 130.672L398.869 126.717H399.597L400.852 130.755ZM406.955 132C406.903 131.896 406.861 131.71 406.828 131.443C406.408 131.88 405.907 132.098 405.324 132.098C404.803 132.098 404.375 131.951 404.04 131.658C403.708 131.362 403.542 130.988 403.542 130.535C403.542 129.985 403.75 129.559 404.167 129.256C404.587 128.95 405.176 128.797 405.935 128.797H406.813V128.382C406.813 128.066 406.719 127.815 406.53 127.63C406.341 127.441 406.063 127.347 405.695 127.347C405.373 127.347 405.103 127.428 404.885 127.591C404.667 127.754 404.558 127.951 404.558 128.182H403.649C403.649 127.918 403.742 127.664 403.928 127.42C404.117 127.173 404.37 126.977 404.689 126.834C405.012 126.691 405.365 126.619 405.749 126.619C406.358 126.619 406.835 126.772 407.18 127.078C407.525 127.381 407.704 127.799 407.717 128.333V130.765C407.717 131.25 407.779 131.635 407.902 131.922V132H406.955ZM405.456 131.312C405.739 131.312 406.008 131.238 406.262 131.092C406.516 130.945 406.7 130.755 406.813 130.521V129.437H406.105C404.999 129.437 404.445 129.76 404.445 130.408C404.445 130.691 404.54 130.913 404.729 131.072C404.917 131.232 405.16 131.312 405.456 131.312ZM411.687 127.527C411.55 127.505 411.402 127.493 411.242 127.493C410.65 127.493 410.248 127.745 410.036 128.25V132H409.133V126.717H410.012L410.026 127.327C410.323 126.855 410.743 126.619 411.286 126.619C411.462 126.619 411.595 126.642 411.687 126.688V127.527ZM412.204 129.314C412.204 128.504 412.396 127.853 412.78 127.361C413.164 126.867 413.667 126.619 414.289 126.619C414.908 126.619 415.397 126.831 415.759 127.254V124.5H416.662V132H415.832L415.788 131.434C415.427 131.876 414.924 132.098 414.279 132.098C413.667 132.098 413.168 131.847 412.78 131.346C412.396 130.844 412.204 130.19 412.204 129.383V129.314ZM413.107 129.417C413.107 130.016 413.231 130.485 413.479 130.823C413.726 131.162 414.068 131.331 414.504 131.331C415.077 131.331 415.495 131.074 415.759 130.56V128.133C415.489 127.635 415.074 127.386 414.514 127.386C414.071 127.386 413.726 127.557 413.479 127.898C413.231 128.24 413.107 128.746 413.107 129.417ZM421.145 130.599C421.145 130.354 421.052 130.166 420.866 130.032C420.684 129.896 420.363 129.778 419.904 129.681C419.449 129.583 419.086 129.466 418.815 129.329C418.549 129.192 418.35 129.03 418.22 128.841C418.093 128.652 418.029 128.427 418.029 128.167C418.029 127.734 418.212 127.368 418.576 127.068C418.944 126.769 419.413 126.619 419.982 126.619C420.581 126.619 421.066 126.774 421.438 127.083C421.812 127.392 421.999 127.788 421.999 128.27H421.091C421.091 128.022 420.985 127.809 420.773 127.63C420.565 127.451 420.301 127.361 419.982 127.361C419.654 127.361 419.396 127.433 419.211 127.576C419.025 127.719 418.933 127.907 418.933 128.138C418.933 128.356 419.019 128.52 419.191 128.631C419.364 128.742 419.675 128.847 420.124 128.948C420.576 129.049 420.943 129.17 421.223 129.31C421.503 129.45 421.709 129.619 421.843 129.817C421.979 130.013 422.048 130.252 422.048 130.535C422.048 131.007 421.859 131.386 421.481 131.673C421.104 131.956 420.614 132.098 420.012 132.098C419.589 132.098 419.214 132.023 418.889 131.873C418.563 131.723 418.308 131.515 418.122 131.248C417.94 130.978 417.849 130.687 417.849 130.374H418.752C418.768 130.677 418.889 130.918 419.113 131.097C419.341 131.272 419.641 131.36 420.012 131.36C420.354 131.36 420.627 131.292 420.832 131.155C421.04 131.015 421.145 130.83 421.145 130.599Z" fill="#00FFFF"/>
</svg>
