<svg width="236" height="94" viewBox="0 0 236 94" fill="none" xmlns="http://www.w3.org/2000/svg">
<path d="M42.1533 52.2857C42.1766 52.2156 42.2467 52.0522 42.2467 51.9588C42.2467 51.842 42.1533 51.7253 42.0132 51.7253C41.9198 51.7253 41.8731 51.7486 41.803 51.8187C41.7563 51.842 41.7563 51.8887 41.5462 52.3557C40.1686 55.6245 39.1646 57.0254 35.4289 57.0254H32.02C31.6931 57.0254 31.6464 57.0254 31.5063 57.0021C31.2495 56.9787 31.2261 56.932 31.2261 56.7453C31.2261 56.5818 31.2728 56.4417 31.3195 56.2316L32.9306 49.7874H35.2421C37.0633 49.7874 37.2034 50.1843 37.2034 50.8847C37.2034 51.1182 37.2034 51.3284 37.0399 52.0288C36.9932 52.1222 36.9699 52.2156 36.9699 52.2857C36.9699 52.4491 37.0866 52.5192 37.2267 52.5192C37.4368 52.5192 37.4602 52.3557 37.5536 52.0288L38.8845 46.6119C38.8845 46.4952 38.7911 46.3785 38.651 46.3785C38.4408 46.3785 38.4175 46.4719 38.3241 46.7987C37.8571 48.5966 37.3901 49.1103 35.3121 49.1103H33.094L34.5416 43.3665C34.7518 42.5493 34.7984 42.4792 35.7557 42.4792H39.0946C41.9665 42.4792 42.5502 43.2497 42.5502 45.0242C42.5502 45.0476 42.5502 45.7013 42.4568 46.4719C42.4335 46.5652 42.4101 46.7053 42.4101 46.752C42.4101 46.9388 42.5269 47.0089 42.6669 47.0089C42.8304 47.0089 42.9238 46.9155 42.9705 46.4952L43.4608 42.4092C43.4608 42.3391 43.5075 42.1057 43.5075 42.059C43.5075 41.8021 43.2974 41.8021 42.8771 41.8021H31.4829C31.0393 41.8021 30.8058 41.8021 30.8058 42.2224C30.8058 42.4792 30.9693 42.4792 31.3662 42.4792C32.8138 42.4792 32.8138 42.6427 32.8138 42.8995C32.8138 43.0163 32.7905 43.1096 32.7204 43.3665L29.5684 55.9748C29.3582 56.792 29.3115 57.0254 27.6771 57.0254C27.2335 57.0254 27 57.0254 27 57.4457C27 57.7026 27.1401 57.7026 27.6071 57.7026H39.3281C39.8418 57.7026 39.8651 57.6792 40.0285 57.3056L42.1533 52.2857Z" fill="#00FFFF"/>
<path d="M48.3198 40.3617C48.4008 40.1672 48.4657 40.0213 48.4657 39.8592C48.4657 39.3891 48.0442 39 47.5416 39C47.0877 39 46.7959 39.308 46.6825 39.7295L44.7533 46.8138C44.7533 46.8462 44.6885 47.0245 44.6885 47.0408C44.6885 47.2191 45.11 47.3326 45.2397 47.3326C45.3369 47.3326 45.3531 47.2839 45.4504 47.0732L48.3198 40.3617Z" fill="#00FFFF"/>
<path d="M54.5624 53.0328C54.9593 53.1028 55.5897 53.2429 55.7298 53.2663C56.0334 53.3597 57.0841 53.7332 57.0841 54.854C57.0841 55.5778 56.4303 57.469 53.7218 57.469C53.2315 57.469 51.4804 57.399 51.0134 56.1148C51.9473 56.2316 52.4143 55.5077 52.4143 54.9941C52.4143 54.5038 52.0874 54.2469 51.6205 54.2469C51.1068 54.2469 50.4297 54.6438 50.4297 55.6945C50.4297 57.0721 51.8306 57.936 53.6985 57.936C57.2475 57.936 58.2982 55.321 58.2982 54.1068C58.2982 53.7566 58.2982 53.1028 57.551 52.3557C56.9673 51.7953 56.4069 51.6786 55.1461 51.4217C54.5157 51.2816 53.5117 51.0715 53.5117 50.0208C53.5117 49.5538 53.932 47.8727 56.1501 47.8727C57.1307 47.8727 58.088 48.2463 58.3215 49.0869C57.2942 49.0869 57.2475 49.9741 57.2475 49.9975C57.2475 50.4878 57.6911 50.6279 57.9013 50.6279C58.2281 50.6279 58.8819 50.371 58.8819 49.3904C58.8819 48.4098 57.9946 47.4058 56.1735 47.4058C53.1148 47.4058 52.2976 49.8107 52.2976 50.768C52.2976 52.5425 54.0254 52.916 54.5624 53.0328Z" fill="#00FFFF"/>
<path d="M64.4954 23.5164V22.6992H62.3006V1.03162H64.4954V0.214417H61.4834V23.5164H64.4954Z" fill="#00FFFF"/>
<path d="M68.8063 15.1109C67.9891 16.4884 67.1952 16.9554 66.0745 17.0254C65.8176 17.0488 65.6309 17.0488 65.6309 17.4691C65.6309 17.6092 65.7476 17.7026 65.911 17.7026C66.3313 17.7026 67.382 17.6559 67.8023 17.6559C68.4794 17.6559 69.2266 17.7026 69.8803 17.7026C70.0204 17.7026 70.3006 17.7026 70.3006 17.2589C70.3006 17.0488 70.1138 17.0254 69.9737 17.0254C69.4367 16.9787 68.9931 16.792 68.9931 16.2316C68.9931 15.9047 69.1332 15.6479 69.4367 15.1342L71.2112 12.1923H77.1651C77.1884 12.4024 77.1884 12.5892 77.2118 12.7993C77.2818 13.4064 77.562 15.8347 77.562 16.2783C77.562 16.9787 76.3712 17.0254 75.9977 17.0254C75.7408 17.0254 75.484 17.0254 75.484 17.4457C75.484 17.7026 75.6941 17.7026 75.8342 17.7026C76.2311 17.7026 76.6981 17.6559 77.095 17.6559H78.4259C79.8502 17.6559 80.8775 17.7026 80.9009 17.7026C81.0643 17.7026 81.3212 17.7026 81.3212 17.2589C81.3212 17.0254 81.111 17.0254 80.7608 17.0254C79.4766 17.0254 79.4533 16.8153 79.3832 16.1148L77.9589 1.54529C77.9122 1.07831 77.8189 1.03162 77.562 1.03162C77.3285 1.03162 77.1884 1.07831 76.9783 1.42854L68.8063 15.1109ZM71.6081 11.5152L76.3012 3.67001L77.095 11.5152H71.6081Z" fill="#00FFFF"/>
<path d="M90.5676 3.48323C90.7778 2.66603 90.8245 2.43254 92.5289 2.43254C93.0426 2.43254 93.2294 2.43254 93.2294 1.98892C93.2294 1.75543 92.9725 1.75543 92.9025 1.75543C92.4822 1.75543 91.9685 1.80213 91.5483 1.80213H88.6764C88.2094 1.80213 87.6724 1.75543 87.2054 1.75543C87.0186 1.75543 86.7618 1.75543 86.7618 2.19906C86.7618 2.43254 86.9486 2.43254 87.4156 2.43254C88.8632 2.43254 88.8632 2.61933 88.8632 2.87617C88.8632 3.03961 88.8165 3.1797 88.7698 3.38984L85.6177 15.9748C85.4076 16.792 85.3609 17.0254 83.6564 17.0254C83.1428 17.0254 82.9326 17.0254 82.9326 17.4691C82.9326 17.7026 83.1661 17.7026 83.2828 17.7026C83.7031 17.7026 84.2168 17.6559 84.6371 17.6559H87.509C87.9759 17.6559 88.4896 17.7026 88.9566 17.7026C89.1434 17.7026 89.4235 17.7026 89.4235 17.2823C89.4235 17.0254 89.2834 17.0254 88.7698 17.0254C87.3222 17.0254 87.3222 16.8387 87.3222 16.5585C87.3222 16.5118 87.3222 16.395 87.4156 16.0215L90.5676 3.48323Z" fill="#00FFFF"/>
<path d="M97.2327 0.214417H94.2207V1.03162H96.4155V22.6992H94.2207V23.5164H97.2327V0.214417Z" fill="#00FFFF"/>
<path d="M25 64.1879L29 61.6879C28 63.3546 27.2 66.1879 32 64.1879C36.8 62.1879 40.6667 63.3546 42 64.1879L44 61.6879L48 64.1879C48.3333 62.5212 49.9 59.6879 53.5 61.6879C57.1 63.6879 59 62.5212 59.5 61.6879" stroke="#00FFFF"/>
<path d="M23.4563 28.9629L23.021 28.7168L23.021 28.7168L23.4563 28.9629ZM24.4823 27.8662C24.4084 27.6002 24.1328 27.4444 23.8667 27.5183L19.5309 28.7226C19.2648 28.7965 19.109 29.0721 19.1829 29.3382C19.2568 29.6042 19.5324 29.76 19.7985 29.6861L23.6526 28.6156L24.7231 32.4697C24.797 32.7358 25.0726 32.8916 25.3386 32.8177C25.6047 32.7438 25.7605 32.4682 25.6866 32.2021L24.4823 27.8662ZM23.8916 29.2089L24.4358 28.2461L23.5652 27.754L23.021 28.7168L23.8916 29.2089ZM27.3103 46.6076C22.0367 42.4443 20.5853 35.0581 23.8916 29.2089L23.021 28.7168C19.4721 34.9953 21.03 42.9237 26.6907 47.3925L27.3103 46.6076Z" fill="#00FFFF"/>
<line x1="18" y1="22.5" x2="58" y2="22.5" stroke="#00FFFF"/>
<path d="M87.3896 62.7549L88.4053 58.7168H89.3086L87.7705 64H87.0381L85.7539 59.9961L84.5039 64H83.7715L82.2383 58.7168H83.1367L84.1768 62.6719L85.4072 58.7168H86.1348L87.3896 62.7549ZM91.1348 59.3564C91.5352 58.8649 92.056 58.6191 92.6973 58.6191C93.8138 58.6191 94.377 59.249 94.3867 60.5088V64H93.4834V60.5039C93.4801 60.123 93.3923 59.8415 93.2197 59.6592C93.0505 59.4769 92.7852 59.3857 92.4238 59.3857C92.1309 59.3857 91.8737 59.4639 91.6523 59.6201C91.431 59.7764 91.2585 59.9814 91.1348 60.2354V64H90.2314V56.5H91.1348V59.3564ZM95.5 61.3096C95.5 60.792 95.6009 60.3265 95.8027 59.9131C96.0078 59.4997 96.291 59.1807 96.6523 58.9561C97.0169 58.7314 97.432 58.6191 97.8975 58.6191C98.6169 58.6191 99.1979 58.8682 99.6406 59.3662C100.087 59.8643 100.31 60.5267 100.31 61.3535V61.417C100.31 61.9313 100.21 62.3936 100.012 62.8037C99.8164 63.2106 99.5348 63.528 99.167 63.7559C98.8024 63.9837 98.3825 64.0977 97.9072 64.0977C97.1911 64.0977 96.61 63.8486 96.1641 63.3506C95.7214 62.8525 95.5 62.1934 95.5 61.373V61.3096ZM96.4082 61.417C96.4082 62.0029 96.5433 62.4733 96.8135 62.8281C97.0869 63.1829 97.4515 63.3604 97.9072 63.3604C98.3662 63.3604 98.7308 63.1813 99.001 62.8232C99.2712 62.4619 99.4062 61.9574 99.4062 61.3096C99.4062 60.7301 99.2679 60.2614 98.9912 59.9033C98.7178 59.542 98.3532 59.3613 97.8975 59.3613C97.4515 59.3613 97.0918 59.5387 96.8184 59.8936C96.5449 60.2484 96.4082 60.7562 96.4082 61.417ZM102.424 64H101.521V56.5H102.424V64ZM106.066 64.0977C105.35 64.0977 104.768 63.8633 104.318 63.3945C103.869 62.9225 103.645 62.2926 103.645 61.5049V61.3389C103.645 60.8148 103.744 60.3477 103.942 59.9375C104.144 59.5241 104.424 59.2018 104.782 58.9707C105.144 58.7363 105.534 58.6191 105.954 58.6191C106.641 58.6191 107.175 58.8454 107.556 59.2979C107.937 59.7503 108.127 60.3981 108.127 61.2412V61.6172H104.548C104.561 62.138 104.712 62.5596 105.002 62.8818C105.295 63.2008 105.666 63.3604 106.115 63.3604C106.434 63.3604 106.704 63.2952 106.926 63.165C107.147 63.0348 107.341 62.8623 107.507 62.6475L108.059 63.0771C107.616 63.7575 106.952 64.0977 106.066 64.0977ZM105.954 59.3613C105.59 59.3613 105.284 59.4948 105.036 59.7617C104.789 60.0254 104.636 60.3965 104.577 60.875H107.224V60.8066C107.198 60.3477 107.074 59.9928 106.853 59.7422C106.631 59.4883 106.332 59.3613 105.954 59.3613ZM112.639 64H111.735V56.5H112.639V64ZM113.85 61.3096C113.85 60.792 113.951 60.3265 114.152 59.9131C114.357 59.4997 114.641 59.1807 115.002 58.9561C115.367 58.7314 115.782 58.6191 116.247 58.6191C116.966 58.6191 117.548 58.8682 117.99 59.3662C118.436 59.8643 118.659 60.5267 118.659 61.3535V61.417C118.659 61.9313 118.56 62.3936 118.361 62.8037C118.166 63.2106 117.884 63.528 117.517 63.7559C117.152 63.9837 116.732 64.0977 116.257 64.0977C115.541 64.0977 114.96 63.8486 114.514 63.3506C114.071 62.8525 113.85 62.1934 113.85 61.373V61.3096ZM114.758 61.417C114.758 62.0029 114.893 62.4733 115.163 62.8281C115.437 63.1829 115.801 63.3604 116.257 63.3604C116.716 63.3604 117.08 63.1813 117.351 62.8232C117.621 62.4619 117.756 61.9574 117.756 61.3096C117.756 60.7301 117.618 60.2614 117.341 59.9033C117.067 59.542 116.703 59.3613 116.247 59.3613C115.801 59.3613 115.441 59.5387 115.168 59.8936C114.895 60.2484 114.758 60.7562 114.758 61.417ZM121.018 57.4375V58.7168H122.004V59.415H121.018V62.6914C121.018 62.903 121.062 63.0625 121.149 63.1699C121.237 63.2741 121.387 63.3262 121.599 63.3262C121.703 63.3262 121.846 63.3066 122.028 63.2676V64C121.791 64.0651 121.56 64.0977 121.335 64.0977C120.931 64.0977 120.627 63.9756 120.422 63.7314C120.217 63.4873 120.114 63.1406 120.114 62.6914V59.415H119.152V58.7168H120.114V57.4375H121.018ZM126.14 62.5986C126.14 62.3545 126.047 62.1657 125.861 62.0322C125.679 61.8955 125.358 61.7783 124.899 61.6807C124.444 61.583 124.081 61.4658 123.811 61.3291C123.544 61.1924 123.345 61.0296 123.215 60.8408C123.088 60.652 123.024 60.4274 123.024 60.167C123.024 59.734 123.207 59.3678 123.571 59.0684C123.939 58.7689 124.408 58.6191 124.978 58.6191C125.576 58.6191 126.062 58.7738 126.433 59.083C126.807 59.3923 126.994 59.7878 126.994 60.2695H126.086C126.086 60.0221 125.98 59.8089 125.769 59.6299C125.56 59.4508 125.297 59.3613 124.978 59.3613C124.649 59.3613 124.392 59.4329 124.206 59.5762C124.021 59.7194 123.928 59.9066 123.928 60.1377C123.928 60.3558 124.014 60.5202 124.187 60.6309C124.359 60.7415 124.67 60.8473 125.119 60.9482C125.572 61.0492 125.938 61.1696 126.218 61.3096C126.498 61.4495 126.704 61.6188 126.838 61.8174C126.975 62.0127 127.043 62.252 127.043 62.5352C127.043 63.0072 126.854 63.3864 126.477 63.6729C126.099 63.9561 125.609 64.0977 125.007 64.0977C124.584 64.0977 124.209 64.0228 123.884 63.873C123.558 63.7233 123.303 63.515 123.117 63.248C122.935 62.9779 122.844 62.6865 122.844 62.374H123.747C123.763 62.6768 123.884 62.9176 124.108 63.0967C124.336 63.2725 124.636 63.3604 125.007 63.3604C125.349 63.3604 125.622 63.292 125.827 63.1553C126.035 63.0153 126.14 62.8298 126.14 62.5986ZM130.461 61.3096C130.461 60.792 130.562 60.3265 130.764 59.9131C130.969 59.4997 131.252 59.1807 131.613 58.9561C131.978 58.7314 132.393 58.6191 132.858 58.6191C133.578 58.6191 134.159 58.8682 134.602 59.3662C135.048 59.8643 135.271 60.5267 135.271 61.3535V61.417C135.271 61.9313 135.171 62.3936 134.973 62.8037C134.777 63.2106 134.496 63.528 134.128 63.7559C133.763 63.9837 133.343 64.0977 132.868 64.0977C132.152 64.0977 131.571 63.8486 131.125 63.3506C130.682 62.8525 130.461 62.1934 130.461 61.373V61.3096ZM131.369 61.417C131.369 62.0029 131.504 62.4733 131.774 62.8281C132.048 63.1829 132.412 63.3604 132.868 63.3604C133.327 63.3604 133.692 63.1813 133.962 62.8232C134.232 62.4619 134.367 61.9574 134.367 61.3096C134.367 60.7301 134.229 60.2614 133.952 59.9033C133.679 59.542 133.314 59.3613 132.858 59.3613C132.412 59.3613 132.053 59.5387 131.779 59.8936C131.506 60.2484 131.369 60.7562 131.369 61.417ZM136.848 64V59.415H136.013V58.7168H136.848V58.1748C136.848 57.6084 136.999 57.1706 137.302 56.8613C137.604 56.5521 138.033 56.3975 138.586 56.3975C138.794 56.3975 139.001 56.4251 139.206 56.4805L139.157 57.2129C139.004 57.1836 138.841 57.1689 138.669 57.1689C138.376 57.1689 138.15 57.2552 137.99 57.4277C137.831 57.597 137.751 57.8411 137.751 58.1602V58.7168H138.879V59.415H137.751V64H136.848ZM146.521 60.7139H143.439V63.2334H147.019V64H142.502V56.8906H146.97V57.6621H143.439V59.9473H146.521V60.7139ZM148.107 58.8926L147.595 58.541C147.897 58.1178 148.054 57.6719 148.063 57.2031V56.5H148.957V57.1348C148.954 57.4603 148.872 57.7858 148.713 58.1113C148.557 58.4336 148.355 58.694 148.107 58.8926ZM152.575 62.5986C152.575 62.3545 152.482 62.1657 152.297 62.0322C152.115 61.8955 151.794 61.7783 151.335 61.6807C150.879 61.583 150.516 61.4658 150.246 61.3291C149.979 61.1924 149.781 61.0296 149.65 60.8408C149.523 60.652 149.46 60.4274 149.46 60.167C149.46 59.734 149.642 59.3678 150.007 59.0684C150.375 58.7689 150.843 58.6191 151.413 58.6191C152.012 58.6191 152.497 58.7738 152.868 59.083C153.243 59.3923 153.43 59.7878 153.43 60.2695H152.521C152.521 60.0221 152.416 59.8089 152.204 59.6299C151.996 59.4508 151.732 59.3613 151.413 59.3613C151.084 59.3613 150.827 59.4329 150.642 59.5762C150.456 59.7194 150.363 59.9066 150.363 60.1377C150.363 60.3558 150.45 60.5202 150.622 60.6309C150.795 60.7415 151.105 60.8473 151.555 60.9482C152.007 61.0492 152.373 61.1696 152.653 61.3096C152.933 61.4495 153.14 61.6188 153.273 61.8174C153.41 62.0127 153.479 62.252 153.479 62.5352C153.479 63.0072 153.29 63.3864 152.912 63.6729C152.535 63.9561 152.045 64.0977 151.442 64.0977C151.019 64.0977 150.645 64.0228 150.319 63.873C149.994 63.7233 149.738 63.515 149.553 63.248C149.37 62.9779 149.279 62.6865 149.279 62.374H150.183C150.199 62.6768 150.319 62.9176 150.544 63.0967C150.772 63.2725 151.071 63.3604 151.442 63.3604C151.784 63.3604 152.058 63.292 152.263 63.1553C152.471 63.0153 152.575 62.8298 152.575 62.5986ZM69.6699 73.1143C69.6699 72.3786 69.7676 71.6722 69.9629 70.9951C70.1615 70.318 70.4561 69.7028 70.8467 69.1494C71.2373 68.596 71.6426 68.2054 72.0625 67.9775L72.248 68.5732C71.7728 68.9378 71.3822 69.4945 71.0762 70.2432C70.7734 70.9919 70.6074 71.8301 70.5781 72.7578L70.5732 73.1729C70.5732 74.4294 70.8027 75.5199 71.2617 76.4443C71.5384 76.9977 71.8672 77.4307 72.248 77.7432L72.0625 78.2949C71.6296 78.054 71.2161 77.6504 70.8223 77.084C70.054 75.9772 69.6699 74.654 69.6699 73.1143ZM77.2822 72.7139H74.2012V75.2334H77.7803V76H73.2637V68.8906H77.7314V69.6621H74.2012V71.9473H77.2822V72.7139ZM79.7871 76H78.8838V68.5H79.7871V76ZM82.2188 76H81.3154V70.7168H82.2188V76ZM81.2422 69.3154C81.2422 69.1689 81.2861 69.0452 81.374 68.9443C81.4652 68.8434 81.5986 68.793 81.7744 68.793C81.9502 68.793 82.0837 68.8434 82.1748 68.9443C82.266 69.0452 82.3115 69.1689 82.3115 69.3154C82.3115 69.4619 82.266 69.584 82.1748 69.6816C82.0837 69.7793 81.9502 69.8281 81.7744 69.8281C81.5986 69.8281 81.4652 69.7793 81.374 69.6816C81.2861 69.584 81.2422 69.4619 81.2422 69.3154ZM84.5186 70.7168L84.543 71.3027C84.9303 70.847 85.4528 70.6191 86.1104 70.6191C86.8493 70.6191 87.3522 70.9023 87.6191 71.4688C87.7949 71.2148 88.0228 71.0098 88.3027 70.8535C88.5859 70.6973 88.9196 70.6191 89.3037 70.6191C90.4626 70.6191 91.0518 71.2327 91.0713 72.46V76H90.168V72.5137C90.168 72.1361 90.0817 71.8545 89.9092 71.6689C89.7367 71.4801 89.4469 71.3857 89.04 71.3857C88.7048 71.3857 88.4264 71.4867 88.2051 71.6885C87.9837 71.887 87.8551 72.1556 87.8193 72.4941V76H86.9111V72.5381C86.9111 71.7699 86.5352 71.3857 85.7832 71.3857C85.1908 71.3857 84.7855 71.638 84.5674 72.1426V76H83.6641V70.7168H84.5186ZM93.4199 76H92.5166V70.7168H93.4199V76ZM92.4434 69.3154C92.4434 69.1689 92.4873 69.0452 92.5752 68.9443C92.6663 68.8434 92.7998 68.793 92.9756 68.793C93.1514 68.793 93.2848 68.8434 93.376 68.9443C93.4671 69.0452 93.5127 69.1689 93.5127 69.3154C93.5127 69.4619 93.4671 69.584 93.376 69.6816C93.2848 69.7793 93.1514 69.8281 92.9756 69.8281C92.7998 69.8281 92.6663 69.7793 92.5752 69.6816C92.4873 69.584 92.4434 69.4619 92.4434 69.3154ZM95.7246 70.7168L95.7539 71.3809C96.1576 70.873 96.6849 70.6191 97.3359 70.6191C98.4525 70.6191 99.0156 71.249 99.0254 72.5088V76H98.1221V72.5039C98.1188 72.123 98.0309 71.8415 97.8584 71.6592C97.6891 71.4769 97.4238 71.3857 97.0625 71.3857C96.7695 71.3857 96.5124 71.4639 96.291 71.6201C96.0697 71.7764 95.8971 71.9814 95.7734 72.2354V76H94.8701V70.7168H95.7246ZM103.649 76C103.597 75.8958 103.555 75.7103 103.522 75.4434C103.103 75.8796 102.601 76.0977 102.019 76.0977C101.498 76.0977 101.07 75.9512 100.734 75.6582C100.402 75.362 100.236 74.9876 100.236 74.5352C100.236 73.985 100.445 73.5586 100.861 73.2559C101.281 72.9499 101.87 72.7969 102.629 72.7969H103.508V72.3818C103.508 72.0661 103.413 71.8154 103.225 71.6299C103.036 71.4411 102.757 71.3467 102.39 71.3467C102.067 71.3467 101.797 71.4281 101.579 71.5908C101.361 71.7536 101.252 71.9505 101.252 72.1816H100.344C100.344 71.918 100.437 71.6641 100.622 71.4199C100.811 71.1725 101.065 70.9772 101.384 70.834C101.706 70.6908 102.059 70.6191 102.443 70.6191C103.052 70.6191 103.529 70.7721 103.874 71.0781C104.219 71.3809 104.398 71.7992 104.411 72.333V74.7646C104.411 75.2497 104.473 75.6354 104.597 75.9219V76H103.649ZM102.15 75.3115C102.434 75.3115 102.702 75.2383 102.956 75.0918C103.21 74.9453 103.394 74.7549 103.508 74.5205V73.4365H102.8C101.693 73.4365 101.14 73.7604 101.14 74.4082C101.14 74.6914 101.234 74.9128 101.423 75.0723C101.612 75.2318 101.854 75.3115 102.15 75.3115ZM107.053 69.4375V70.7168H108.039V71.415H107.053V74.6914C107.053 74.903 107.097 75.0625 107.185 75.1699C107.272 75.2741 107.422 75.3262 107.634 75.3262C107.738 75.3262 107.881 75.3066 108.063 75.2676V76C107.826 76.0651 107.595 76.0977 107.37 76.0977C106.966 76.0977 106.662 75.9756 106.457 75.7314C106.252 75.4873 106.149 75.1406 106.149 74.6914V71.415H105.188V70.7168H106.149V69.4375H107.053ZM110.08 76H109.177V70.7168H110.08V76ZM109.104 69.3154C109.104 69.1689 109.147 69.0452 109.235 68.9443C109.326 68.8434 109.46 68.793 109.636 68.793C109.812 68.793 109.945 68.8434 110.036 68.9443C110.127 69.0452 110.173 69.1689 110.173 69.3154C110.173 69.4619 110.127 69.584 110.036 69.6816C109.945 69.7793 109.812 69.8281 109.636 69.8281C109.46 69.8281 109.326 69.7793 109.235 69.6816C109.147 69.584 109.104 69.4619 109.104 69.3154ZM111.291 73.3096C111.291 72.792 111.392 72.3265 111.594 71.9131C111.799 71.4997 112.082 71.1807 112.443 70.9561C112.808 70.7314 113.223 70.6191 113.688 70.6191C114.408 70.6191 114.989 70.8682 115.432 71.3662C115.878 71.8643 116.101 72.5267 116.101 73.3535V73.417C116.101 73.9313 116.001 74.3936 115.803 74.8037C115.607 75.2106 115.326 75.528 114.958 75.7559C114.593 75.9837 114.174 76.0977 113.698 76.0977C112.982 76.0977 112.401 75.8486 111.955 75.3506C111.512 74.8525 111.291 74.1934 111.291 73.373V73.3096ZM112.199 73.417C112.199 74.0029 112.334 74.4733 112.604 74.8281C112.878 75.1829 113.243 75.3604 113.698 75.3604C114.157 75.3604 114.522 75.1813 114.792 74.8232C115.062 74.4619 115.197 73.9574 115.197 73.3096C115.197 72.7301 115.059 72.2614 114.782 71.9033C114.509 71.542 114.144 71.3613 113.688 71.3613C113.243 71.3613 112.883 71.5387 112.609 71.8936C112.336 72.2484 112.199 72.7562 112.199 73.417ZM118.088 70.7168L118.117 71.3809C118.521 70.873 119.048 70.6191 119.699 70.6191C120.816 70.6191 121.379 71.249 121.389 72.5088V76H120.485V72.5039C120.482 72.123 120.394 71.8415 120.222 71.6592C120.052 71.4769 119.787 71.3857 119.426 71.3857C119.133 71.3857 118.876 71.4639 118.654 71.6201C118.433 71.7764 118.26 71.9814 118.137 72.2354V76H117.233V70.7168H118.088ZM126.584 68.8906L128.908 74.6914L131.232 68.8906H132.448V76H131.511V73.2314L131.599 70.2432L129.265 76H128.547L126.218 70.2578L126.311 73.2314V76H125.373V68.8906H126.584ZM137.224 76C137.172 75.8958 137.129 75.7103 137.097 75.4434C136.677 75.8796 136.175 76.0977 135.593 76.0977C135.072 76.0977 134.644 75.9512 134.309 75.6582C133.977 75.362 133.811 74.9876 133.811 74.5352C133.811 73.985 134.019 73.5586 134.436 73.2559C134.855 72.9499 135.445 72.7969 136.203 72.7969H137.082V72.3818C137.082 72.0661 136.988 71.8154 136.799 71.6299C136.61 71.4411 136.332 71.3467 135.964 71.3467C135.642 71.3467 135.371 71.4281 135.153 71.5908C134.935 71.7536 134.826 71.9505 134.826 72.1816H133.918C133.918 71.918 134.011 71.6641 134.196 71.4199C134.385 71.1725 134.639 70.9772 134.958 70.834C135.28 70.6908 135.633 70.6191 136.018 70.6191C136.626 70.6191 137.103 70.7721 137.448 71.0781C137.793 71.3809 137.972 71.7992 137.985 72.333V74.7646C137.985 75.2497 138.047 75.6354 138.171 75.9219V76H137.224ZM135.725 75.3115C136.008 75.3115 136.276 75.2383 136.53 75.0918C136.784 74.9453 136.968 74.7549 137.082 74.5205V73.4365H136.374C135.267 73.4365 134.714 73.7604 134.714 74.4082C134.714 74.6914 134.808 74.9128 134.997 75.0723C135.186 75.2318 135.428 75.3115 135.725 75.3115ZM140.627 69.4375V70.7168H141.613V71.415H140.627V74.6914C140.627 74.903 140.671 75.0625 140.759 75.1699C140.847 75.2741 140.996 75.3262 141.208 75.3262C141.312 75.3262 141.455 75.3066 141.638 75.2676V76C141.4 76.0651 141.169 76.0977 140.944 76.0977C140.541 76.0977 140.236 75.9756 140.031 75.7314C139.826 75.4873 139.724 75.1406 139.724 74.6914V71.415H138.762V70.7168H139.724V69.4375H140.627ZM145.227 71.5273C145.09 71.5046 144.942 71.4932 144.782 71.4932C144.19 71.4932 143.788 71.7454 143.576 72.25V76H142.673V70.7168H143.552L143.566 71.3271C143.863 70.8551 144.283 70.6191 144.826 70.6191C145.002 70.6191 145.135 70.6419 145.227 70.6875V71.5273ZM147.043 76H146.14V70.7168H147.043V76ZM146.066 69.3154C146.066 69.1689 146.11 69.0452 146.198 68.9443C146.289 68.8434 146.423 68.793 146.599 68.793C146.774 68.793 146.908 68.8434 146.999 68.9443C147.09 69.0452 147.136 69.1689 147.136 69.3154C147.136 69.4619 147.09 69.584 146.999 69.6816C146.908 69.7793 146.774 69.8281 146.599 69.8281C146.423 69.8281 146.289 69.7793 146.198 69.6816C146.11 69.584 146.066 69.4619 146.066 69.3154ZM150.612 75.3604C150.935 75.3604 151.216 75.2627 151.457 75.0674C151.698 74.8721 151.831 74.6279 151.857 74.335H152.712C152.696 74.6377 152.591 74.9258 152.399 75.1992C152.207 75.4727 151.95 75.6908 151.628 75.8535C151.309 76.0163 150.97 76.0977 150.612 76.0977C149.893 76.0977 149.32 75.8584 148.894 75.3799C148.47 74.8981 148.259 74.2406 148.259 73.4072V73.2559C148.259 72.7415 148.353 72.2842 148.542 71.8838C148.731 71.4834 149.001 71.1725 149.353 70.9512C149.707 70.7298 150.126 70.6191 150.607 70.6191C151.2 70.6191 151.691 70.7965 152.082 71.1514C152.476 71.5062 152.686 71.9668 152.712 72.5332H151.857C151.831 72.1914 151.701 71.9115 151.467 71.6934C151.236 71.472 150.949 71.3613 150.607 71.3613C150.148 71.3613 149.792 71.5273 149.538 71.8594C149.287 72.1882 149.162 72.665 149.162 73.29V73.4609C149.162 74.0697 149.287 74.5384 149.538 74.8672C149.789 75.196 150.147 75.3604 150.612 75.3604ZM155.92 76.0977C155.204 76.0977 154.621 75.8633 154.172 75.3945C153.723 74.9225 153.498 74.2926 153.498 73.5049V73.3389C153.498 72.8148 153.597 72.3477 153.796 71.9375C153.998 71.5241 154.278 71.2018 154.636 70.9707C154.997 70.7363 155.388 70.6191 155.808 70.6191C156.494 70.6191 157.028 70.8454 157.409 71.2979C157.79 71.7503 157.98 72.3981 157.98 73.2412V73.6172H154.401C154.414 74.138 154.566 74.5596 154.855 74.8818C155.148 75.2008 155.52 75.3604 155.969 75.3604C156.288 75.3604 156.558 75.2952 156.779 75.165C157.001 75.0348 157.194 74.8623 157.36 74.6475L157.912 75.0771C157.469 75.7575 156.805 76.0977 155.92 76.0977ZM155.808 71.3613C155.443 71.3613 155.137 71.4948 154.89 71.7617C154.642 72.0254 154.489 72.3965 154.431 72.875H157.077V72.8066C157.051 72.3477 156.927 71.9928 156.706 71.7422C156.485 71.4883 156.185 71.3613 155.808 71.3613ZM162.106 74.5986C162.106 74.3545 162.014 74.1657 161.828 74.0322C161.646 73.8955 161.325 73.7783 160.866 73.6807C160.41 73.583 160.048 73.4658 159.777 73.3291C159.51 73.1924 159.312 73.0296 159.182 72.8408C159.055 72.652 158.991 72.4274 158.991 72.167C158.991 71.734 159.174 71.3678 159.538 71.0684C159.906 70.7689 160.375 70.6191 160.944 70.6191C161.543 70.6191 162.028 70.7738 162.399 71.083C162.774 71.3923 162.961 71.7878 162.961 72.2695H162.053C162.053 72.0221 161.947 71.8089 161.735 71.6299C161.527 71.4508 161.263 71.3613 160.944 71.3613C160.616 71.3613 160.358 71.4329 160.173 71.5762C159.987 71.7194 159.895 71.9066 159.895 72.1377C159.895 72.3558 159.981 72.5202 160.153 72.6309C160.326 72.7415 160.637 72.8473 161.086 72.9482C161.538 73.0492 161.905 73.1696 162.185 73.3096C162.465 73.4495 162.671 73.6188 162.805 73.8174C162.941 74.0127 163.01 74.252 163.01 74.5352C163.01 75.0072 162.821 75.3864 162.443 75.6729C162.066 75.9561 161.576 76.0977 160.974 76.0977C160.55 76.0977 160.176 76.0228 159.851 75.873C159.525 75.7233 159.27 75.515 159.084 75.248C158.902 74.9779 158.811 74.6865 158.811 74.374H159.714C159.73 74.6768 159.851 74.9176 160.075 75.0967C160.303 75.2725 160.603 75.3604 160.974 75.3604C161.315 75.3604 161.589 75.292 161.794 75.1553C162.002 75.0153 162.106 74.8298 162.106 74.5986ZM166.271 73.1631C166.271 73.889 166.175 74.5856 165.983 75.2529C165.795 75.917 165.503 76.5306 165.109 77.0938C164.719 77.6569 164.309 78.0573 163.879 78.2949L163.688 77.7432C164.19 77.359 164.592 76.7633 164.895 75.9561C165.201 75.1455 165.357 74.2471 165.363 73.2607V73.1045C165.363 72.4209 165.292 71.7861 165.148 71.2002C165.005 70.611 164.805 70.0837 164.548 69.6182C164.294 69.1527 164.007 68.7897 163.688 68.5293L163.879 67.9775C164.309 68.2152 164.717 68.6123 165.104 69.1689C165.495 69.7256 165.786 70.3392 165.979 71.0098C166.174 71.6803 166.271 72.3981 166.271 73.1631ZM52.8438 88.0977C52.1276 88.0977 51.5449 87.8633 51.0957 87.3945C50.6465 86.9225 50.4219 86.2926 50.4219 85.5049V85.3389C50.4219 84.8148 50.5212 84.3477 50.7197 83.9375C50.9215 83.5241 51.2015 83.2018 51.5596 82.9707C51.9209 82.7363 52.3115 82.6191 52.7314 82.6191C53.4183 82.6191 53.9521 82.8454 54.333 83.2979C54.7139 83.7503 54.9043 84.3981 54.9043 85.2412V85.6172H51.3252C51.3382 86.138 51.4896 86.5596 51.7793 86.8818C52.0723 87.2008 52.4434 87.3604 52.8926 87.3604C53.2116 87.3604 53.4818 87.2952 53.7031 87.165C53.9245 87.0348 54.1182 86.8623 54.2842 86.6475L54.8359 87.0771C54.3932 87.7575 53.7292 88.0977 52.8438 88.0977ZM52.7314 83.3613C52.3669 83.3613 52.0609 83.4948 51.8135 83.7617C51.5661 84.0254 51.4131 84.3965 51.3545 84.875H54.001V84.8066C53.9749 84.3477 53.8512 83.9928 53.6299 83.7422C53.4085 83.4883 53.109 83.3613 52.7314 83.3613ZM56.9355 88H56.0322V80.5H56.9355V88ZM59.3672 88H58.4639V82.7168H59.3672V88ZM58.3906 81.3154C58.3906 81.1689 58.4346 81.0452 58.5225 80.9443C58.6136 80.8434 58.7471 80.793 58.9229 80.793C59.0986 80.793 59.2321 80.8434 59.3232 80.9443C59.4144 81.0452 59.46 81.1689 59.46 81.3154C59.46 81.4619 59.4144 81.584 59.3232 81.6816C59.2321 81.7793 59.0986 81.8281 58.9229 81.8281C58.7471 81.8281 58.6136 81.7793 58.5225 81.6816C58.4346 81.584 58.3906 81.4619 58.3906 81.3154ZM61.667 82.7168L61.6914 83.3027C62.0788 82.847 62.6012 82.6191 63.2588 82.6191C63.9977 82.6191 64.5007 82.9023 64.7676 83.4688C64.9434 83.2148 65.1712 83.0098 65.4512 82.8535C65.7344 82.6973 66.068 82.6191 66.4521 82.6191C67.611 82.6191 68.2002 83.2327 68.2197 84.46V88H67.3164V84.5137C67.3164 84.1361 67.2301 83.8545 67.0576 83.6689C66.8851 83.4801 66.5954 83.3857 66.1885 83.3857C65.8532 83.3857 65.5749 83.4867 65.3535 83.6885C65.1322 83.887 65.0036 84.1556 64.9678 84.4941V88H64.0596V84.5381C64.0596 83.7699 63.6836 83.3857 62.9316 83.3857C62.3392 83.3857 61.9339 83.638 61.7158 84.1426V88H60.8125V82.7168H61.667ZM70.5684 88H69.665V82.7168H70.5684V88ZM69.5918 81.3154C69.5918 81.1689 69.6357 81.0452 69.7236 80.9443C69.8148 80.8434 69.9482 80.793 70.124 80.793C70.2998 80.793 70.4333 80.8434 70.5244 80.9443C70.6156 81.0452 70.6611 81.1689 70.6611 81.3154C70.6611 81.4619 70.6156 81.584 70.5244 81.6816C70.4333 81.7793 70.2998 81.8281 70.124 81.8281C69.9482 81.8281 69.8148 81.7793 69.7236 81.6816C69.6357 81.584 69.5918 81.4619 69.5918 81.3154ZM72.873 82.7168L72.9023 83.3809C73.306 82.873 73.8333 82.6191 74.4844 82.6191C75.6009 82.6191 76.1641 83.249 76.1738 84.5088V88H75.2705V84.5039C75.2673 84.123 75.1794 83.8415 75.0068 83.6592C74.8376 83.4769 74.5723 83.3857 74.2109 83.3857C73.918 83.3857 73.6608 83.4639 73.4395 83.6201C73.2181 83.7764 73.0456 83.9814 72.9219 84.2354V88H72.0186V82.7168H72.873ZM80.7979 88C80.7458 87.8958 80.7035 87.7103 80.6709 87.4434C80.251 87.8796 79.7497 88.0977 79.167 88.0977C78.6462 88.0977 78.2181 87.9512 77.8828 87.6582C77.5508 87.362 77.3848 86.9876 77.3848 86.5352C77.3848 85.985 77.5931 85.5586 78.0098 85.2559C78.4297 84.9499 79.0189 84.7969 79.7773 84.7969H80.6562V84.3818C80.6562 84.0661 80.5618 83.8154 80.373 83.6299C80.1842 83.4411 79.9059 83.3467 79.5381 83.3467C79.2158 83.3467 78.9456 83.4281 78.7275 83.5908C78.5094 83.7536 78.4004 83.9505 78.4004 84.1816H77.4922C77.4922 83.918 77.585 83.6641 77.7705 83.4199C77.9593 83.1725 78.2132 82.9772 78.5322 82.834C78.8545 82.6908 79.2077 82.6191 79.5918 82.6191C80.2005 82.6191 80.6774 82.7721 81.0225 83.0781C81.3675 83.3809 81.5465 83.7992 81.5596 84.333V86.7646C81.5596 87.2497 81.6214 87.6354 81.7451 87.9219V88H80.7979ZM79.2988 87.3115C79.582 87.3115 79.8506 87.2383 80.1045 87.0918C80.3584 86.9453 80.5423 86.7549 80.6562 86.5205V85.4365H79.9482C78.8415 85.4365 78.2881 85.7604 78.2881 86.4082C78.2881 86.6914 78.3825 86.9128 78.5713 87.0723C78.7601 87.2318 79.0026 87.3115 79.2988 87.3115ZM84.2012 81.4375V82.7168H85.1875V83.415H84.2012V86.6914C84.2012 86.903 84.2451 87.0625 84.333 87.1699C84.4209 87.2741 84.5706 87.3262 84.7822 87.3262C84.8864 87.3262 85.0296 87.3066 85.2119 87.2676V88C84.9743 88.0651 84.7432 88.0977 84.5186 88.0977C84.1149 88.0977 83.8105 87.9756 83.6055 87.7314C83.4004 87.4873 83.2979 87.1406 83.2979 86.6914V83.415H82.3359V82.7168H83.2979V81.4375H84.2012ZM87.2285 88H86.3252V82.7168H87.2285V88ZM86.252 81.3154C86.252 81.1689 86.2959 81.0452 86.3838 80.9443C86.4749 80.8434 86.6084 80.793 86.7842 80.793C86.96 80.793 87.0934 80.8434 87.1846 80.9443C87.2757 81.0452 87.3213 81.1689 87.3213 81.3154C87.3213 81.4619 87.2757 81.584 87.1846 81.6816C87.0934 81.7793 86.96 81.8281 86.7842 81.8281C86.6084 81.8281 86.4749 81.7793 86.3838 81.6816C86.2959 81.584 86.252 81.4619 86.252 81.3154ZM88.4395 85.3096C88.4395 84.792 88.5404 84.3265 88.7422 83.9131C88.9473 83.4997 89.2305 83.1807 89.5918 82.9561C89.9564 82.7314 90.3714 82.6191 90.8369 82.6191C91.5563 82.6191 92.1374 82.8682 92.5801 83.3662C93.026 83.8643 93.249 84.5267 93.249 85.3535V85.417C93.249 85.9313 93.1497 86.3936 92.9512 86.8037C92.7559 87.2106 92.4743 87.528 92.1064 87.7559C91.7419 87.9837 91.3219 88.0977 90.8467 88.0977C90.1305 88.0977 89.5495 87.8486 89.1035 87.3506C88.6608 86.8525 88.4395 86.1934 88.4395 85.373V85.3096ZM89.3477 85.417C89.3477 86.0029 89.4827 86.4733 89.7529 86.8281C90.0264 87.1829 90.391 87.3604 90.8467 87.3604C91.3057 87.3604 91.6702 87.1813 91.9404 86.8232C92.2106 86.4619 92.3457 85.9574 92.3457 85.3096C92.3457 84.7301 92.2074 84.2614 91.9307 83.9033C91.6572 83.542 91.2926 83.3613 90.8369 83.3613C90.391 83.3613 90.0312 83.5387 89.7578 83.8936C89.4844 84.2484 89.3477 84.7562 89.3477 85.417ZM95.2363 82.7168L95.2656 83.3809C95.6693 82.873 96.1966 82.6191 96.8477 82.6191C97.9642 82.6191 98.5273 83.249 98.5371 84.5088V88H97.6338V84.5039C97.6305 84.123 97.5426 83.8415 97.3701 83.6592C97.2008 83.4769 96.9355 83.3857 96.5742 83.3857C96.2812 83.3857 96.0241 83.4639 95.8027 83.6201C95.5814 83.7764 95.4089 83.9814 95.2852 84.2354V88H94.3818V82.7168H95.2363ZM105.456 86.5986C105.456 86.3545 105.363 86.1657 105.178 86.0322C104.995 85.8955 104.675 85.7783 104.216 85.6807C103.76 85.583 103.397 85.4658 103.127 85.3291C102.86 85.1924 102.661 85.0296 102.531 84.8408C102.404 84.652 102.341 84.4274 102.341 84.167C102.341 83.734 102.523 83.3678 102.888 83.0684C103.256 82.7689 103.724 82.6191 104.294 82.6191C104.893 82.6191 105.378 82.7738 105.749 83.083C106.123 83.3923 106.311 83.7878 106.311 84.2695H105.402C105.402 84.0221 105.297 83.8089 105.085 83.6299C104.877 83.4508 104.613 83.3613 104.294 83.3613C103.965 83.3613 103.708 83.4329 103.522 83.5762C103.337 83.7194 103.244 83.9066 103.244 84.1377C103.244 84.3558 103.33 84.5202 103.503 84.6309C103.675 84.7415 103.986 84.8473 104.436 84.9482C104.888 85.0492 105.254 85.1696 105.534 85.3096C105.814 85.4495 106.021 85.6188 106.154 85.8174C106.291 86.0127 106.359 86.252 106.359 86.5352C106.359 87.0072 106.171 87.3864 105.793 87.6729C105.415 87.9561 104.925 88.0977 104.323 88.0977C103.9 88.0977 103.526 88.0228 103.2 87.873C102.875 87.7233 102.619 87.515 102.434 87.248C102.251 86.9779 102.16 86.6865 102.16 86.374H103.063C103.08 86.6768 103.2 86.9176 103.425 87.0967C103.653 87.2725 103.952 87.3604 104.323 87.3604C104.665 87.3604 104.938 87.292 105.144 87.1553C105.352 87.0153 105.456 86.8298 105.456 86.5986ZM108.762 81.4375V82.7168H109.748V83.415H108.762V86.6914C108.762 86.903 108.806 87.0625 108.894 87.1699C108.981 87.2741 109.131 87.3262 109.343 87.3262C109.447 87.3262 109.59 87.3066 109.772 87.2676V88C109.535 88.0651 109.304 88.0977 109.079 88.0977C108.675 88.0977 108.371 87.9756 108.166 87.7314C107.961 87.4873 107.858 87.1406 107.858 86.6914V83.415H106.896V82.7168H107.858V81.4375H108.762ZM113 88.0977C112.284 88.0977 111.701 87.8633 111.252 87.3945C110.803 86.9225 110.578 86.2926 110.578 85.5049V85.3389C110.578 84.8148 110.677 84.3477 110.876 83.9375C111.078 83.5241 111.358 83.2018 111.716 82.9707C112.077 82.7363 112.468 82.6191 112.888 82.6191C113.575 82.6191 114.108 82.8454 114.489 83.2979C114.87 83.7503 115.061 84.3981 115.061 85.2412V85.6172H111.481C111.494 86.138 111.646 86.5596 111.936 86.8818C112.229 87.2008 112.6 87.3604 113.049 87.3604C113.368 87.3604 113.638 87.2952 113.859 87.165C114.081 87.0348 114.274 86.8623 114.44 86.6475L114.992 87.0771C114.549 87.7575 113.885 88.0977 113 88.0977ZM112.888 83.3613C112.523 83.3613 112.217 83.4948 111.97 83.7617C111.722 84.0254 111.569 84.3965 111.511 84.875H114.157V84.8066C114.131 84.3477 114.007 83.9928 113.786 83.7422C113.565 83.4883 113.265 83.3613 112.888 83.3613ZM120.573 85.417C120.573 86.221 120.389 86.8688 120.021 87.3604C119.654 87.8519 119.156 88.0977 118.527 88.0977C117.886 88.0977 117.382 87.8942 117.014 87.4873V90.0312H116.11V82.7168H116.936L116.979 83.3027C117.347 82.847 117.858 82.6191 118.513 82.6191C119.147 82.6191 119.649 82.8584 120.017 83.3369C120.388 83.8154 120.573 84.4811 120.573 85.334V85.417ZM119.67 85.3145C119.67 84.7188 119.543 84.2484 119.289 83.9033C119.035 83.5583 118.687 83.3857 118.244 83.3857C117.697 83.3857 117.287 83.6283 117.014 84.1133V86.6377C117.284 87.1195 117.697 87.3604 118.254 87.3604C118.687 87.3604 119.03 87.1895 119.284 86.8477C119.541 86.5026 119.67 85.9915 119.67 85.3145ZM125.188 88H124.284V82.7168H125.188V88ZM124.211 81.3154C124.211 81.1689 124.255 81.0452 124.343 80.9443C124.434 80.8434 124.567 80.793 124.743 80.793C124.919 80.793 125.052 80.8434 125.144 80.9443C125.235 81.0452 125.28 81.1689 125.28 81.3154C125.28 81.4619 125.235 81.584 125.144 81.6816C125.052 81.7793 124.919 81.8281 124.743 81.8281C124.567 81.8281 124.434 81.7793 124.343 81.6816C124.255 81.584 124.211 81.4619 124.211 81.3154ZM127.492 82.7168L127.521 83.3809C127.925 82.873 128.452 82.6191 129.104 82.6191C130.22 82.6191 130.783 83.249 130.793 84.5088V88H129.89V84.5039C129.886 84.123 129.799 83.8415 129.626 83.6592C129.457 83.4769 129.191 83.3857 128.83 83.3857C128.537 83.3857 128.28 83.4639 128.059 83.6201C127.837 83.7764 127.665 83.9814 127.541 84.2354V88H126.638V82.7168H127.492ZM135.485 82.7168L135.51 83.3027C135.897 82.847 136.42 82.6191 137.077 82.6191C137.816 82.6191 138.319 82.9023 138.586 83.4688C138.762 83.2148 138.99 83.0098 139.27 82.8535C139.553 82.6973 139.886 82.6191 140.271 82.6191C141.429 82.6191 142.019 83.2327 142.038 84.46V88H141.135V84.5137C141.135 84.1361 141.049 83.8545 140.876 83.6689C140.703 83.4801 140.414 83.3857 140.007 83.3857C139.672 83.3857 139.393 83.4867 139.172 83.6885C138.951 83.887 138.822 84.1556 138.786 84.4941V88H137.878V84.5381C137.878 83.7699 137.502 83.3857 136.75 83.3857C136.158 83.3857 135.752 83.638 135.534 84.1426V88H134.631V82.7168H135.485ZM146.667 88C146.615 87.8958 146.573 87.7103 146.54 87.4434C146.12 87.8796 145.619 88.0977 145.036 88.0977C144.515 88.0977 144.087 87.9512 143.752 87.6582C143.42 87.362 143.254 86.9876 143.254 86.5352C143.254 85.985 143.462 85.5586 143.879 85.2559C144.299 84.9499 144.888 84.7969 145.646 84.7969H146.525V84.3818C146.525 84.0661 146.431 83.8154 146.242 83.6299C146.053 83.4411 145.775 83.3467 145.407 83.3467C145.085 83.3467 144.815 83.4281 144.597 83.5908C144.379 83.7536 144.27 83.9505 144.27 84.1816H143.361C143.361 83.918 143.454 83.6641 143.64 83.4199C143.828 83.1725 144.082 82.9772 144.401 82.834C144.724 82.6908 145.077 82.6191 145.461 82.6191C146.07 82.6191 146.547 82.7721 146.892 83.0781C147.237 83.3809 147.416 83.7992 147.429 84.333V86.7646C147.429 87.2497 147.491 87.6354 147.614 87.9219V88H146.667ZM145.168 87.3115C145.451 87.3115 145.72 87.2383 145.974 87.0918C146.228 86.9453 146.411 86.7549 146.525 86.5205V85.4365H145.817C144.711 85.4365 144.157 85.7604 144.157 86.4082C144.157 86.6914 144.252 86.9128 144.44 87.0723C144.629 87.2318 144.872 87.3115 145.168 87.3115ZM150.07 81.4375V82.7168H151.057V83.415H150.07V86.6914C150.07 86.903 150.114 87.0625 150.202 87.1699C150.29 87.2741 150.44 87.3262 150.651 87.3262C150.756 87.3262 150.899 87.3066 151.081 87.2676V88C150.843 88.0651 150.612 88.0977 150.388 88.0977C149.984 88.0977 149.68 87.9756 149.475 87.7314C149.27 87.4873 149.167 87.1406 149.167 86.6914V83.415H148.205V82.7168H149.167V81.4375H150.07ZM154.67 83.5273C154.533 83.5046 154.385 83.4932 154.226 83.4932C153.633 83.4932 153.231 83.7454 153.02 84.25V88H152.116V82.7168H152.995L153.01 83.3271C153.306 82.8551 153.726 82.6191 154.27 82.6191C154.445 82.6191 154.579 82.6419 154.67 82.6875V83.5273ZM156.486 88H155.583V82.7168H156.486V88ZM155.51 81.3154C155.51 81.1689 155.554 81.0452 155.642 80.9443C155.733 80.8434 155.866 80.793 156.042 80.793C156.218 80.793 156.351 80.8434 156.442 80.9443C156.534 81.0452 156.579 81.1689 156.579 81.3154C156.579 81.4619 156.534 81.584 156.442 81.6816C156.351 81.7793 156.218 81.8281 156.042 81.8281C155.866 81.8281 155.733 81.7793 155.642 81.6816C155.554 81.584 155.51 81.4619 155.51 81.3154ZM159.709 84.6455L160.881 82.7168H161.936L160.207 85.3291L161.989 88H160.944L159.724 86.0225L158.503 88H157.453L159.235 85.3291L157.507 82.7168H158.552L159.709 84.6455ZM165.822 88V83.415H164.987V82.7168H165.822V82.1748C165.822 81.6084 165.974 81.1706 166.276 80.8613C166.579 80.5521 167.007 80.3975 167.561 80.3975C167.769 80.3975 167.976 80.4251 168.181 80.4805L168.132 81.2129C167.979 81.1836 167.816 81.1689 167.644 81.1689C167.351 81.1689 167.124 81.2552 166.965 81.4277C166.805 81.597 166.726 81.8411 166.726 82.1602V82.7168H167.854V83.415H166.726V88H165.822ZM168.615 85.3096C168.615 84.792 168.716 84.3265 168.918 83.9131C169.123 83.4997 169.406 83.1807 169.768 82.9561C170.132 82.7314 170.547 82.6191 171.013 82.6191C171.732 82.6191 172.313 82.8682 172.756 83.3662C173.202 83.8643 173.425 84.5267 173.425 85.3535V85.417C173.425 85.9313 173.326 86.3936 173.127 86.8037C172.932 87.2106 172.65 87.528 172.282 87.7559C171.918 87.9837 171.498 88.0977 171.022 88.0977C170.306 88.0977 169.725 87.8486 169.279 87.3506C168.837 86.8525 168.615 86.1934 168.615 85.373V85.3096ZM169.523 85.417C169.523 86.0029 169.659 86.4733 169.929 86.8281C170.202 87.1829 170.567 87.3604 171.022 87.3604C171.481 87.3604 171.846 87.1813 172.116 86.8232C172.386 86.4619 172.521 85.9574 172.521 85.3096C172.521 84.7301 172.383 84.2614 172.106 83.9033C171.833 83.542 171.468 83.3613 171.013 83.3613C170.567 83.3613 170.207 83.5387 169.934 83.8936C169.66 84.2484 169.523 84.7562 169.523 85.417ZM177.111 83.5273C176.975 83.5046 176.826 83.4932 176.667 83.4932C176.075 83.4932 175.673 83.7454 175.461 84.25V88H174.558V82.7168H175.437L175.451 83.3271C175.747 82.8551 176.167 82.6191 176.711 82.6191C176.887 82.6191 177.02 82.6419 177.111 82.6875V83.5273ZM178.796 82.7168L178.82 83.3027C179.208 82.847 179.73 82.6191 180.388 82.6191C181.127 82.6191 181.63 82.9023 181.896 83.4688C182.072 83.2148 182.3 83.0098 182.58 82.8535C182.863 82.6973 183.197 82.6191 183.581 82.6191C184.74 82.6191 185.329 83.2327 185.349 84.46V88H184.445V84.5137C184.445 84.1361 184.359 83.8545 184.187 83.6689C184.014 83.4801 183.724 83.3857 183.317 83.3857C182.982 83.3857 182.704 83.4867 182.482 83.6885C182.261 83.887 182.132 84.1556 182.097 84.4941V88H181.188V84.5381C181.188 83.7699 180.812 83.3857 180.061 83.3857C179.468 83.3857 179.063 83.638 178.845 84.1426V88H177.941V82.7168H178.796Z" fill="#00FFFF"/>
</svg>
