<svg width="505" height="253" viewBox="0 0 505 253" fill="none" xmlns="http://www.w3.org/2000/svg">
<path d="M0 101.389H1.93265V52.9326H9.32712V51H0V101.389Z" fill="#00FFFF"/>
<path d="M0 118.223H1.93265V101.361H0V118.223Z" fill="#00FFFF"/>
<path d="M0 135.029H1.93265V118.167H0V135.029Z" fill="#00FFFF"/>
<path d="M0 185.39H9.32712V183.457H1.93265V135.001H0V185.39Z" fill="#00FFFF"/>
<path d="M146.327 135.001L144.395 135.001L144.395 183.457L137 183.457L137 185.39L146.327 185.39L146.327 135.001Z" fill="#00FFFF"/>
<path d="M146.327 118.167L144.395 118.167L144.395 135.028L146.327 135.028L146.327 118.167Z" fill="#00FFFF"/>
<path d="M146.327 101.361L144.395 101.361L144.395 118.223L146.327 118.223L146.327 101.361Z" fill="#00FFFF"/>
<path d="M146.327 51L137 51L137 52.9326L144.395 52.9326L144.395 101.389L146.327 101.389L146.327 51Z" fill="#00FFFF"/>
<path d="M166 101.389H167.933V52.9326H175.327V51H166V101.389Z" fill="#00FFFF"/>
<path d="M166 118.223H167.933V101.361H166V118.223Z" fill="#00FFFF"/>
<path d="M166 135.029H167.933V118.167H166V135.029Z" fill="#00FFFF"/>
<path d="M166 185.39H175.327V183.457H167.933V135.001H166V185.39Z" fill="#00FFFF"/>
<path d="M312.327 135.001L310.395 135.001L310.395 183.457L303 183.457L303 185.39L312.327 185.39L312.327 135.001Z" fill="#00FFFF"/>
<path d="M312.327 118.167L310.395 118.167L310.395 135.028L312.327 135.028L312.327 118.167Z" fill="#00FFFF"/>
<path d="M312.327 101.361L310.395 101.361L310.395 118.223L312.327 118.223L312.327 101.361Z" fill="#00FFFF"/>
<path d="M312.327 51L303 51L303 52.9326L310.395 52.9326L310.395 101.389L312.327 101.389L312.327 51Z" fill="#00FFFF"/>
<path d="M358 101.389H359.933V52.9326H367.327V51H358V101.389Z" fill="#00FFFF"/>
<path d="M358 118.223H359.933V101.361H358V118.223Z" fill="#00FFFF"/>
<path d="M358 135.029H359.933V118.167H358V135.029Z" fill="#00FFFF"/>
<path d="M358 185.39H367.327V183.457H359.933V135.001H358V185.39Z" fill="#00FFFF"/>
<path d="M504.327 135.001L502.395 135.001L502.395 183.457L495 183.457L495 185.39L504.327 185.39L504.327 135.001Z" fill="#00FFFF"/>
<path d="M504.327 118.167L502.395 118.167L502.395 135.028L504.327 135.028L504.327 118.167Z" fill="#00FFFF"/>
<path d="M504.327 101.361L502.395 101.361L502.395 118.223L504.327 118.223L504.327 101.361Z" fill="#00FFFF"/>
<path d="M504.327 51L495 51L495 52.9326L502.395 52.9326L502.395 101.389L504.327 101.389L504.327 51Z" fill="#00FFFF"/>
<path d="M341.939 116.817C342.289 116.817 342.64 116.817 342.64 116.42C342.64 116 342.243 116 341.846 116H328.794C328.397 116 328 116 328 116.42C328 116.817 328.35 116.817 328.7 116.817H341.939ZM341.846 120.973C342.243 120.973 342.64 120.973 342.64 120.553C342.64 120.156 342.289 120.156 341.939 120.156H328.7C328.35 120.156 328 120.156 328 120.553C328 120.973 328.397 120.973 328.794 120.973H341.846Z" fill="#00FFFF"/>
<path d="M78.4785 215.289H72.5215L71.1836 219H69.25L74.6797 204.781H76.3203L81.7598 219H79.8359L78.4785 215.289ZM73.0879 213.746H77.9219L75.5 207.096L73.0879 213.746Z" fill="#00FFFF"/>
<path d="M238.92 219V204.781H243.568C245.111 204.781 246.27 205.1 247.045 205.738C247.826 206.376 248.217 207.32 248.217 208.57C248.217 209.234 248.028 209.824 247.65 210.338C247.273 210.846 246.758 211.24 246.107 211.52C246.876 211.734 247.481 212.145 247.924 212.75C248.373 213.349 248.598 214.065 248.598 214.898C248.598 216.174 248.184 217.177 247.357 217.906C246.531 218.635 245.362 219 243.852 219H238.92ZM240.795 212.35V217.467H243.891C244.763 217.467 245.45 217.242 245.951 216.793C246.459 216.337 246.713 215.712 246.713 214.918C246.713 213.206 245.782 212.35 243.92 212.35H240.795ZM240.795 210.846H243.627C244.447 210.846 245.102 210.641 245.59 210.23C246.085 209.82 246.332 209.264 246.332 208.561C246.332 207.779 246.104 207.213 245.648 206.861C245.193 206.503 244.499 206.324 243.568 206.324H240.795V210.846Z" fill="#00FFFF"/>
<path d="M178.975 36.7329C179.39 36.7427 179.756 36.623 180.074 36.374C180.396 36.1201 180.601 35.7905 180.689 35.3853L182.33 35.3779C182.276 35.9004 182.085 36.3765 181.758 36.8062C181.436 37.2358 181.021 37.5703 180.513 37.8096C180.005 38.0488 179.476 38.1611 178.924 38.1465C178.245 38.1367 177.667 37.9609 177.188 37.6191C176.709 37.2773 176.36 36.8062 176.141 36.2056C175.921 35.6001 175.848 34.9263 175.921 34.1841L175.943 33.9277C176.026 33.1611 176.248 32.4678 176.609 31.8477C176.976 31.2227 177.447 30.7417 178.023 30.4048C178.599 30.0679 179.239 29.9092 179.942 29.9287C180.801 29.9482 181.487 30.2339 182 30.7856C182.513 31.3325 182.769 32.0454 182.769 32.9243H181.143C181.143 32.4702 181.031 32.0991 180.806 31.811C180.586 31.5229 180.267 31.3691 179.847 31.3496C179.168 31.3301 178.633 31.6182 178.243 32.2139C177.852 32.8096 177.642 33.6494 177.613 34.7334C177.579 36.0469 178.033 36.7134 178.975 36.7329ZM183.626 34.0083C183.709 33.2319 183.936 32.5264 184.307 31.8916C184.683 31.2568 185.164 30.7661 185.75 30.4194C186.336 30.0728 186.985 29.9092 187.698 29.9287C188.377 29.9385 188.963 30.1191 189.456 30.4707C189.949 30.8223 190.308 31.3032 190.533 31.9136C190.762 32.5239 190.843 33.2026 190.774 33.9497C190.696 34.7896 190.467 35.5317 190.086 36.1763C189.71 36.8208 189.227 37.3164 188.636 37.6631C188.05 38.0049 187.398 38.166 186.68 38.1465C186.006 38.1367 185.423 37.9585 184.93 37.6118C184.441 37.2603 184.083 36.7817 183.853 36.1763C183.624 35.5659 183.541 34.8945 183.604 34.1621L183.626 34.0083ZM185.333 35.0117C185.357 35.5244 185.491 35.937 185.735 36.2495C185.984 36.5571 186.329 36.7183 186.768 36.7329C187.364 36.7476 187.862 36.5181 188.262 36.0444C188.667 35.5708 188.921 34.9238 189.024 34.1035L189.068 33.3857C189.068 32.7607 188.943 32.27 188.694 31.9136C188.445 31.5571 188.084 31.3691 187.61 31.3496C186.868 31.3301 186.282 31.6938 185.853 32.4409C185.594 32.895 185.43 33.4175 185.362 34.0083C185.323 34.4185 185.313 34.7529 185.333 35.0117ZM193.418 38H191.683L193.638 26.75H195.374L193.418 38ZM199.944 38H198.216L199.695 29.4746L197 30.3682L197.271 28.7935L201.49 27.2993H201.753L199.944 38Z" fill="#00FFFF"/>
<path d="M413.659 11.5171H409.667L408.393 14H406.444L412.201 3.33594H413.827L415.893 14H414.076L413.659 11.5171ZM410.429 10.0229H413.417L412.692 5.61377L410.429 10.0229ZM424.323 8.66797L426.19 6.0752H428.219L425.187 10.0596L426.952 14H425.136L424.03 11.2974L422.082 14H420.06L423.188 9.89844L421.481 6.0752H423.297L424.323 8.66797ZM435.258 12.7329C435.673 12.7427 436.039 12.623 436.356 12.374C436.679 12.1201 436.884 11.7905 436.972 11.3853L438.612 11.3779C438.559 11.9004 438.368 12.3765 438.041 12.8062C437.719 13.2358 437.304 13.5703 436.796 13.8096C436.288 14.0488 435.758 14.1611 435.207 14.1465C434.528 14.1367 433.949 13.9609 433.471 13.6191C432.992 13.2773 432.643 12.8062 432.423 12.2056C432.204 11.6001 432.13 10.9263 432.204 10.1841L432.226 9.92773C432.309 9.16113 432.531 8.46777 432.892 7.84766C433.258 7.22266 433.729 6.7417 434.306 6.40479C434.882 6.06787 435.521 5.90918 436.225 5.92871C437.084 5.94824 437.77 6.23389 438.283 6.78564C438.795 7.33252 439.052 8.04541 439.052 8.92432H437.426C437.426 8.47021 437.313 8.09912 437.089 7.81104C436.869 7.52295 436.549 7.36914 436.129 7.34961C435.451 7.33008 434.916 7.61816 434.525 8.21387C434.135 8.80957 433.925 9.64941 433.896 10.7334C433.861 12.0469 434.315 12.7134 435.258 12.7329ZM439.909 10.0083C439.992 9.23193 440.219 8.52637 440.59 7.8916C440.966 7.25684 441.447 6.76611 442.033 6.41943C442.619 6.07275 443.268 5.90918 443.981 5.92871C444.66 5.93848 445.246 6.11914 445.739 6.4707C446.232 6.82227 446.591 7.30322 446.815 7.91357C447.045 8.52393 447.125 9.20264 447.057 9.94971C446.979 10.7896 446.75 11.5317 446.369 12.1763C445.993 12.8208 445.509 13.3164 444.918 13.6631C444.333 14.0049 443.681 14.166 442.963 14.1465C442.289 14.1367 441.706 13.9585 441.212 13.6118C440.724 13.2603 440.365 12.7817 440.136 12.1763C439.906 11.5659 439.823 10.8945 439.887 10.1621L439.909 10.0083ZM441.615 11.0117C441.64 11.5244 441.774 11.937 442.018 12.2495C442.267 12.5571 442.611 12.7183 443.051 12.7329C443.646 12.7476 444.145 12.5181 444.545 12.0444C444.95 11.5708 445.204 10.9238 445.307 10.1035L445.351 9.38574C445.351 8.76074 445.226 8.27002 444.977 7.91357C444.728 7.55713 444.367 7.36914 443.893 7.34961C443.151 7.33008 442.565 7.69385 442.135 8.44092C441.876 8.89502 441.713 9.41748 441.645 10.0083C441.605 10.4185 441.596 10.7529 441.615 11.0117ZM449.701 14H447.965L449.921 2.75H451.657L449.701 14ZM456.227 14H454.499L455.978 5.47461L453.283 6.36816L453.554 4.79346L457.772 3.29932H458.036L456.227 14Z" fill="#00FFFF"/>
<path d="M444.096 214.488C443.92 215.992 443.363 217.154 442.426 217.975C441.495 218.788 440.255 219.195 438.705 219.195C437.025 219.195 435.678 218.593 434.662 217.389C433.653 216.184 433.148 214.573 433.148 212.555V211.188C433.148 209.866 433.383 208.704 433.852 207.701C434.327 206.699 434.997 205.93 435.863 205.396C436.729 204.856 437.732 204.586 438.871 204.586C440.382 204.586 441.592 205.009 442.504 205.855C443.415 206.695 443.946 207.861 444.096 209.352H442.211C442.048 208.219 441.693 207.398 441.146 206.891C440.606 206.383 439.848 206.129 438.871 206.129C437.673 206.129 436.732 206.572 436.049 207.457C435.372 208.342 435.033 209.602 435.033 211.236V212.613C435.033 214.156 435.355 215.383 436 216.295C436.645 217.206 437.546 217.662 438.705 217.662C439.747 217.662 440.544 217.428 441.098 216.959C441.658 216.484 442.029 215.66 442.211 214.488H444.096Z" fill="#00FFFF"/>
<line x1="189.5" y1="60" x2="189.5" y2="176" stroke="#00FFFF"/>
<line x1="217.5" y1="60" x2="217.5" y2="176" stroke="#00FFFF"/>
<path d="M54.3574 237.434L54.4062 238.605C55.181 237.694 56.2259 237.238 57.541 237.238C59.0189 237.238 60.0247 237.805 60.5586 238.938C60.9102 238.43 61.3659 238.02 61.9258 237.707C62.4922 237.395 63.1595 237.238 63.9277 237.238C66.2454 237.238 67.4238 238.465 67.4629 240.92V248H65.6562V241.027C65.6562 240.272 65.4837 239.709 65.1387 239.338C64.7936 238.96 64.2142 238.771 63.4004 238.771C62.7298 238.771 62.1732 238.973 61.7305 239.377C61.2878 239.774 61.0306 240.311 60.959 240.988V248H59.1426V241.076C59.1426 239.54 58.3906 238.771 56.8867 238.771C55.7018 238.771 54.8913 239.276 54.4551 240.285V248H52.6484V237.434H54.3574ZM78.7031 241.291L81.0469 237.434H83.1562L79.6992 242.658L83.2637 248H81.1738L78.7324 244.045L76.291 248H74.1914L77.7559 242.658L74.2988 237.434H76.3887L78.7031 241.291ZM91.75 237.434L91.8086 238.762C92.6159 237.746 93.6706 237.238 94.9727 237.238C97.2057 237.238 98.332 238.498 98.3516 241.018V248H96.5449V241.008C96.5384 240.246 96.3626 239.683 96.0176 239.318C95.679 238.954 95.1484 238.771 94.4258 238.771C93.8398 238.771 93.3255 238.928 92.8828 239.24C92.4401 239.553 92.0951 239.963 91.8477 240.471V248H90.041V237.434H91.75Z" fill="#00FFFF"/>
<path d="M226.521 237.434L226.58 238.762C227.387 237.746 228.442 237.238 229.744 237.238C231.977 237.238 233.104 238.498 233.123 241.018V248H231.316V241.008C231.31 240.246 231.134 239.683 230.789 239.318C230.451 238.954 229.92 238.771 229.197 238.771C228.611 238.771 228.097 238.928 227.654 239.24C227.212 239.553 226.867 239.963 226.619 240.471V248H224.812V237.434H226.521ZM244.354 241.291L246.697 237.434H248.807L245.35 242.658L248.914 248H246.824L244.383 244.045L241.941 248H239.842L243.406 242.658L239.949 237.434H242.039L244.354 241.291ZM264.617 242.834C264.617 244.442 264.249 245.738 263.514 246.721C262.778 247.704 261.782 248.195 260.525 248.195C259.243 248.195 258.234 247.788 257.498 246.975V252.062H255.691V237.434H257.342L257.43 238.605C258.165 237.694 259.188 237.238 260.496 237.238C261.766 237.238 262.768 237.717 263.504 238.674C264.246 239.631 264.617 240.962 264.617 242.668V242.834ZM262.811 242.629C262.811 241.438 262.557 240.497 262.049 239.807C261.541 239.117 260.844 238.771 259.959 238.771C258.865 238.771 258.045 239.257 257.498 240.227V245.275C258.038 246.239 258.865 246.721 259.979 246.721C260.844 246.721 261.531 246.379 262.039 245.695C262.553 245.005 262.811 243.983 262.811 242.629Z" fill="#00FFFF"/>
<path d="M418.26 237.434L418.309 238.605C419.083 237.694 420.128 237.238 421.443 237.238C422.921 237.238 423.927 237.805 424.461 238.938C424.812 238.43 425.268 238.02 425.828 237.707C426.395 237.395 427.062 237.238 427.83 237.238C430.148 237.238 431.326 238.465 431.365 240.92V248H429.559V241.027C429.559 240.272 429.386 239.709 429.041 239.338C428.696 238.96 428.117 238.771 427.303 238.771C426.632 238.771 426.076 238.973 425.633 239.377C425.19 239.774 424.933 240.311 424.861 240.988V248H423.045V241.076C423.045 239.54 422.293 238.771 420.789 238.771C419.604 238.771 418.794 239.276 418.357 240.285V248H416.551V237.434H418.26ZM442.605 241.291L444.949 237.434H447.059L443.602 242.658L447.166 248H445.076L442.635 244.045L440.193 248H438.094L441.658 242.658L438.201 237.434H440.291L442.605 241.291ZM462.869 242.834C462.869 244.442 462.501 245.738 461.766 246.721C461.03 247.704 460.034 248.195 458.777 248.195C457.495 248.195 456.486 247.788 455.75 246.975V252.062H453.943V237.434H455.594L455.682 238.605C456.417 237.694 457.439 237.238 458.748 237.238C460.018 237.238 461.02 237.717 461.756 238.674C462.498 239.631 462.869 240.962 462.869 242.668V242.834ZM461.062 242.629C461.062 241.438 460.809 240.497 460.301 239.807C459.793 239.117 459.096 238.771 458.211 238.771C457.117 238.771 456.297 239.257 455.75 240.227V245.275C456.29 246.239 457.117 246.721 458.23 246.721C459.096 246.721 459.783 246.379 460.291 245.695C460.805 245.005 461.062 243.983 461.062 242.629Z" fill="#00FFFF"/>
<line x1="285.5" y1="60" x2="285.5" y2="176" stroke="#00FFFF"/>
<line x1="383.5" y1="60" x2="383.5" y2="176" stroke="#00FFFF"/>
<line x1="411.5" y1="60" x2="411.5" y2="176" stroke="#00FFFF"/>
<line x1="479.5" y1="60" x2="479.5" y2="176" stroke="#00FFFF"/>
<path d="M381.501 54.9572C381.477 55.7852 382.129 56.4757 382.957 56.4994L396.452 56.8849C397.28 56.9086 397.97 56.2565 397.994 55.4284C398.018 54.6003 397.365 53.9098 396.537 53.8862L384.542 53.5435L384.885 41.5483C384.909 40.7203 384.256 40.0298 383.428 40.0061C382.6 39.9825 381.91 40.6346 381.886 41.4627L381.501 54.9572ZM417.97 19.9095L381.97 53.9095L384.03 56.0905L420.03 22.0905L417.97 19.9095Z" fill="#00FFFF"/>
<path d="M235.303 119.579C235.303 119.11 235.439 118.72 235.713 118.407C235.996 118.095 236.416 117.938 236.973 117.938C237.529 117.938 237.949 118.095 238.232 118.407C238.525 118.72 238.672 119.11 238.672 119.579C238.672 120.028 238.525 120.404 238.232 120.707C237.949 121.01 237.529 121.161 236.973 121.161C236.416 121.161 235.996 121.01 235.713 120.707C235.439 120.404 235.303 120.028 235.303 119.579ZM250.654 119.579C250.654 119.11 250.791 118.72 251.064 118.407C251.348 118.095 251.768 117.938 252.324 117.938C252.881 117.938 253.301 118.095 253.584 118.407C253.877 118.72 254.023 119.11 254.023 119.579C254.023 120.028 253.877 120.404 253.584 120.707C253.301 121.01 252.881 121.161 252.324 121.161C251.768 121.161 251.348 121.01 251.064 120.707C250.791 120.404 250.654 120.028 250.654 119.579ZM266.006 119.579C266.006 119.11 266.143 118.72 266.416 118.407C266.699 118.095 267.119 117.938 267.676 117.938C268.232 117.938 268.652 118.095 268.936 118.407C269.229 118.72 269.375 119.11 269.375 119.579C269.375 120.028 269.229 120.404 268.936 120.707C268.652 121.01 268.232 121.161 267.676 121.161C267.119 121.161 266.699 121.01 266.416 120.707C266.143 120.404 266.006 120.028 266.006 119.579Z" fill="#00FFFF"/>
</svg>
