<svg width="546" height="256" viewBox="0 0 273 128" fill="none" xmlns="http://www.w3.org/2000/svg">
<path d="M39.1533 49.4835C39.1766 49.4135 39.2467 49.2501 39.2467 49.1567C39.2467 49.0399 39.1533 48.9232 39.0132 48.9232C38.9198 48.9232 38.8731 48.9465 38.803 49.0166C38.7563 49.0399 38.7563 49.0866 38.5462 49.5536C37.1686 52.8224 36.1646 54.2233 32.4289 54.2233H29.02C28.6931 54.2233 28.6464 54.2233 28.5063 54.2C28.2495 54.1766 28.2261 54.1299 28.2261 53.9431C28.2261 53.7797 28.2728 53.6396 28.3195 53.4295L29.9306 46.9852H32.2421C34.0633 46.9852 34.2034 47.3822 34.2034 48.0826C34.2034 48.3161 34.2034 48.5262 34.0399 49.2267C33.9932 49.3201 33.9699 49.4135 33.9699 49.4835C33.9699 49.647 34.0866 49.717 34.2267 49.717C34.4368 49.717 34.4602 49.5536 34.5536 49.2267L35.8845 43.8098C35.8845 43.6931 35.7911 43.5763 35.651 43.5763C35.4408 43.5763 35.4175 43.6697 35.3241 43.9966C34.8571 45.7945 34.3901 46.3081 32.3121 46.3081H30.094L31.5416 40.5644C31.7518 39.7472 31.7984 39.6771 32.7557 39.6771H36.0946C38.9665 39.6771 39.5502 40.4476 39.5502 42.2221C39.5502 42.2455 39.5502 42.8992 39.4568 43.6697C39.4335 43.7631 39.4101 43.9032 39.4101 43.9499C39.4101 44.1367 39.5269 44.2067 39.6669 44.2067C39.8304 44.2067 39.9238 44.1134 39.9705 43.6931L40.4608 39.6071C40.4608 39.537 40.5075 39.3035 40.5075 39.2568C40.5075 39 40.2974 39 39.8771 39H28.4829C28.0393 39 27.8058 39 27.8058 39.4203C27.8058 39.6771 27.9693 39.6771 28.3662 39.6771C29.8138 39.6771 29.8138 39.8406 29.8138 40.0974C29.8138 40.2141 29.7905 40.3075 29.7204 40.5644L26.5684 53.1726C26.3582 53.9898 26.3115 54.2233 24.6771 54.2233C24.2335 54.2233 24 54.2233 24 54.6436C24 54.9004 24.1401 54.9004 24.6071 54.9004H36.3281C36.8418 54.9004 36.8651 54.8771 37.0285 54.5035L39.1533 49.4835Z" fill="#00FFFF"/>
<path d="M54.5022 59.5163V58.6991H52.3074V37.0316H54.5022V36.2144H51.4902V59.5163H54.5022Z" fill="#00FFFF"/>
<path d="M58.8131 51.1109C57.9959 52.4884 57.2021 52.9554 56.0813 53.0254C55.8245 53.0488 55.6377 53.0488 55.6377 53.4691C55.6377 53.6092 55.7544 53.7026 55.9179 53.7026C56.3382 53.7026 57.3888 53.6559 57.8091 53.6559C58.4862 53.6559 59.2334 53.7026 59.8871 53.7026C60.0272 53.7026 60.3074 53.7026 60.3074 53.2589C60.3074 53.0488 60.1206 53.0254 59.9805 53.0254C59.4435 52.9787 58.9999 52.792 58.9999 52.2316C58.9999 51.9047 59.14 51.6479 59.4435 51.1342L61.218 48.1923H67.1719C67.1953 48.4024 67.1953 48.5892 67.2186 48.7993C67.2887 49.4064 67.5689 51.8347 67.5689 52.2783C67.5689 52.9787 66.3781 53.0254 66.0045 53.0254C65.7477 53.0254 65.4908 53.0254 65.4908 53.4457C65.4908 53.7026 65.701 53.7026 65.8411 53.7026C66.238 53.7026 66.705 53.6559 67.1019 53.6559H68.4328C69.857 53.6559 70.8844 53.7026 70.9077 53.7026C71.0712 53.7026 71.328 53.7026 71.328 53.2589C71.328 53.0254 71.1178 53.0254 70.7676 53.0254C69.4834 53.0254 69.4601 52.8153 69.39 52.1148L67.9658 37.5453C67.9191 37.0783 67.8257 37.0316 67.5689 37.0316C67.3354 37.0316 67.1953 37.0783 66.9851 37.4285L58.8131 51.1109ZM61.6149 47.5152L66.308 39.67L67.1019 47.5152H61.6149Z" fill="#00FFFF"/>
<path d="M80.5754 39.4832C80.7856 38.666 80.8323 38.4325 82.5367 38.4325C83.0504 38.4325 83.2372 38.4325 83.2372 37.9889C83.2372 37.7554 82.9803 37.7554 82.9103 37.7554C82.49 37.7554 81.9764 37.8021 81.5561 37.8021H78.6842C78.2172 37.8021 77.6802 37.7554 77.2132 37.7554C77.0264 37.7554 76.7696 37.7554 76.7696 38.199C76.7696 38.4325 76.9564 38.4325 77.4234 38.4325C78.871 38.4325 78.871 38.6193 78.871 38.8761C78.871 39.0395 78.8243 39.1796 78.7776 39.3898L75.6255 51.9747C75.4154 52.7919 75.3687 53.0254 73.6642 53.0254C73.1506 53.0254 72.9404 53.0254 72.9404 53.469C72.9404 53.7025 73.1739 53.7025 73.2907 53.7025C73.7109 53.7025 74.2246 53.6558 74.6449 53.6558H77.5168C77.9837 53.6558 78.4974 53.7025 78.9644 53.7025C79.1512 53.7025 79.4314 53.7025 79.4314 53.2822C79.4314 53.0254 79.2913 53.0254 78.7776 53.0254C77.33 53.0254 77.33 52.8386 77.33 52.5584C77.33 52.5117 77.33 52.395 77.4234 52.0214L80.5754 39.4832Z" fill="#00FFFF"/>
<path d="M87.2405 36.2144H84.2285V37.0316H86.4233V58.6991H84.2285V59.5163H87.2405V36.2144Z" fill="#00FFFF"/>
<path d="M111.229 46.2076C111.579 46.2076 111.93 46.2076 111.93 45.8107C111.93 45.3904 111.533 45.3904 111.136 45.3904H98.0839C97.687 45.3904 97.29 45.3904 97.29 45.8107C97.29 46.2076 97.6403 46.2076 97.9905 46.2076H111.229ZM111.136 50.3636C111.533 50.3636 111.93 50.3636 111.93 49.9434C111.93 49.5464 111.579 49.5464 111.229 49.5464H97.9905C97.6403 49.5464 97.29 49.5464 97.29 49.9434C97.29 50.3636 97.687 50.3636 98.0839 50.3636H111.136Z" fill="#00FFFF"/>
<path d="M124.996 59.5163V58.6991H122.802V37.0316H124.996V36.2144H121.984V59.5163H124.996Z" fill="#00FFFF"/>
<path d="M133.93 39.4832C134.14 38.666 134.187 38.4325 135.891 38.4325C136.405 38.4325 136.592 38.4325 136.592 37.9889C136.592 37.7554 136.335 37.7554 136.265 37.7554C135.845 37.7554 135.331 37.8021 134.911 37.8021H132.039C131.572 37.8021 131.035 37.7554 130.568 37.7554C130.381 37.7554 130.124 37.7554 130.124 38.199C130.124 38.4325 130.311 38.4325 130.778 38.4325C132.225 38.4325 132.225 38.6193 132.225 38.8761C132.225 39.0395 132.179 39.1796 132.132 39.3898L128.98 51.9747C128.77 52.7919 128.723 53.0254 127.019 53.0254C126.505 53.0254 126.295 53.0254 126.295 53.469C126.295 53.7025 126.528 53.7025 126.645 53.7025C127.065 53.7025 127.579 53.6558 127.999 53.6558H130.871C131.338 53.6558 131.852 53.7025 132.319 53.7025C132.506 53.7025 132.786 53.7025 132.786 53.2822C132.786 53.0254 132.646 53.0254 132.132 53.0254C130.684 53.0254 130.684 52.8386 130.684 52.5584C130.684 52.5117 130.684 52.395 130.778 52.0214L133.93 39.4832Z" fill="#00FFFF"/>
<path d="M147.853 48.1373C147.853 45.9425 148.973 44.0046 150.654 42.6737C151.098 42.3468 151.915 41.6931 151.915 40.2221C151.915 38.3309 150.491 37 147.736 37C145.401 37 144 38.6111 144 40.1521C144 41.0627 144.771 41.0627 144.841 41.0627C145.097 41.0627 145.681 40.8992 145.681 40.2221C145.681 39.6384 145.237 39.3816 144.841 39.3816C144.747 39.3816 144.63 39.4049 144.56 39.4283C145.051 37.9573 146.452 37.3736 147.689 37.3736C150.398 37.3736 150.421 39.2415 150.421 40.1054C150.421 41.5296 149.977 42.02 149.534 42.4869C147.993 44.1447 147.432 46.3395 147.432 48.0439V48.9545C147.432 49.3514 147.432 49.4448 147.642 49.4448C147.853 49.4448 147.853 49.3514 147.853 48.9545V48.1373ZM148.6 52.4335C148.6 51.9198 148.179 51.4762 147.642 51.4762C147.129 51.4762 146.685 51.8964 146.685 52.4335C146.685 52.9471 147.105 53.3908 147.642 53.3908C148.156 53.3908 148.6 52.9705 148.6 52.4335Z" fill="#00FFFF"/>
<path d="M160.012 36H157V36.8172H159.195V58.4847H157V59.302H160.012V36Z" fill="#00FFFF"/>
<circle cx="33" cy="47" r="12.5" stroke="#00FFFF"/>
<path d="M32.3536 67.6464C32.1583 67.4512 31.8417 67.4512 31.6464 67.6464L28.4645 70.8284C28.2692 71.0237 28.2692 71.3403 28.4645 71.5355C28.6597 71.7308 28.9763 71.7308 29.1716 71.5355L32 68.7071L34.8284 71.5355C35.0237 71.7308 35.3403 71.7308 35.5355 71.5355C35.7308 71.3403 35.7308 71.0237 35.5355 70.8284L32.3536 67.6464ZM32.5 83L32.5 68L31.5 68L31.5 83L32.5 83Z" fill="#00FFFF"/>
<path d="M132.646 32.3536C132.842 32.5488 133.158 32.5488 133.354 32.3536L136.536 29.1716C136.731 28.9763 136.731 28.6597 136.536 28.4645C136.34 28.2692 136.024 28.2692 135.828 28.4645L133 31.2929L130.172 28.4645C129.976 28.2692 129.66 28.2692 129.464 28.4645C129.269 28.6597 129.269 28.9763 129.464 29.1716L132.646 32.3536ZM132.5 17L132.5 32L133.5 32L133.5 17L132.5 17Z" fill="#00FFFF"/>
<path d="M0.444336 95.3096C0.444336 94.792 0.545247 94.3265 0.74707 93.9131C0.952148 93.4997 1.23535 93.1807 1.59668 92.9561C1.96126 92.7314 2.3763 92.6191 2.8418 92.6191C3.5612 92.6191 4.14225 92.8682 4.58496 93.3662C5.03092 93.8643 5.25391 94.5267 5.25391 95.3535V95.417C5.25391 95.9313 5.15462 96.3936 4.95605 96.8037C4.76074 97.2106 4.47917 97.528 4.11133 97.7559C3.74674 97.9837 3.32682 98.0977 2.85156 98.0977C2.13542 98.0977 1.55436 97.8486 1.1084 97.3506C0.66569 96.8525 0.444336 96.1934 0.444336 95.373V95.3096ZM1.35254 95.417C1.35254 96.0029 1.48763 96.4733 1.75781 96.8281C2.03125 97.1829 2.39583 97.3604 2.85156 97.3604C3.31055 97.3604 3.67513 97.1813 3.94531 96.8232C4.21549 96.4619 4.35059 95.9574 4.35059 95.3096C4.35059 94.7301 4.21224 94.2614 3.93555 93.9033C3.66211 93.542 3.29753 93.3613 2.8418 93.3613C2.39583 93.3613 2.03613 93.5387 1.7627 93.8936C1.48926 94.2484 1.35254 94.7562 1.35254 95.417ZM8.05176 96.7744L9.36035 92.7168H10.2832L8.38867 98H7.7002L5.78613 92.7168H6.70898L8.05176 96.7744ZM13.2764 98.0977C12.5602 98.0977 11.9775 97.8633 11.5283 97.3945C11.0791 96.9225 10.8545 96.2926 10.8545 95.5049V95.3389C10.8545 94.8148 10.9538 94.3477 11.1523 93.9375C11.3542 93.5241 11.6341 93.2018 11.9922 92.9707C12.3535 92.7363 12.7441 92.6191 13.1641 92.6191C13.8509 92.6191 14.3848 92.8454 14.7656 93.2979C15.1465 93.7503 15.3369 94.3981 15.3369 95.2412V95.6172H11.7578C11.7708 96.138 11.9222 96.5596 12.2119 96.8818C12.5049 97.2008 12.876 97.3604 13.3252 97.3604C13.6442 97.3604 13.9144 97.2952 14.1357 97.165C14.3571 97.0348 14.5508 96.8623 14.7168 96.6475L15.2686 97.0771C14.8258 97.7575 14.1618 98.0977 13.2764 98.0977ZM13.1641 93.3613C12.7995 93.3613 12.4935 93.4948 12.2461 93.7617C11.9987 94.0254 11.8457 94.3965 11.7871 94.875H14.4336V94.8066C14.4076 94.3477 14.2839 93.9928 14.0625 93.7422C13.8411 93.4883 13.5417 93.3613 13.1641 93.3613ZM18.9404 93.5273C18.8037 93.5046 18.6556 93.4932 18.4961 93.4932C17.9036 93.4932 17.5016 93.7454 17.29 94.25V98H16.3867V92.7168H17.2656L17.2803 93.3271C17.5765 92.8551 17.9964 92.6191 18.54 92.6191C18.7158 92.6191 18.8493 92.6419 18.9404 92.6875V93.5273ZM22.8418 98C22.7897 97.8958 22.7474 97.7103 22.7148 97.4434C22.2949 97.8796 21.7936 98.0977 21.2109 98.0977C20.6901 98.0977 20.262 97.9512 19.9268 97.6582C19.5947 97.362 19.4287 96.9876 19.4287 96.5352C19.4287 95.985 19.637 95.5586 20.0537 95.2559C20.4736 94.9499 21.0628 94.7969 21.8213 94.7969H22.7002V94.3818C22.7002 94.0661 22.6058 93.8154 22.417 93.6299C22.2282 93.4411 21.9499 93.3467 21.582 93.3467C21.2598 93.3467 20.9896 93.4281 20.7715 93.5908C20.5534 93.7536 20.4443 93.9505 20.4443 94.1816H19.5361C19.5361 93.918 19.6289 93.6641 19.8145 93.4199C20.0033 93.1725 20.2572 92.9772 20.5762 92.834C20.8984 92.6908 21.2516 92.6191 21.6357 92.6191C22.2445 92.6191 22.7214 92.7721 23.0664 93.0781C23.4115 93.3809 23.5905 93.7992 23.6035 94.333V96.7646C23.6035 97.2497 23.6654 97.6354 23.7891 97.9219V98H22.8418ZM21.3428 97.3115C21.626 97.3115 21.8945 97.2383 22.1484 97.0918C22.4023 96.9453 22.5863 96.7549 22.7002 96.5205V95.4365H21.9922C20.8854 95.4365 20.332 95.7604 20.332 96.4082C20.332 96.6914 20.4264 96.9128 20.6152 97.0723C20.804 97.2318 21.0465 97.3115 21.3428 97.3115ZM26.001 98H25.0977V90.5H26.001V98ZM28.4326 98H27.5293V90.5H28.4326V98ZM33.2129 92.7168L33.2373 93.3027C33.6247 92.847 34.1471 92.6191 34.8047 92.6191C35.5436 92.6191 36.0465 92.9023 36.3135 93.4688C36.4893 93.2148 36.7171 93.0098 36.9971 92.8535C37.2803 92.6973 37.6139 92.6191 37.998 92.6191C39.1569 92.6191 39.7461 93.2327 39.7656 94.46V98H38.8623V94.5137C38.8623 94.1361 38.776 93.8545 38.6035 93.6689C38.431 93.4801 38.1413 93.3857 37.7344 93.3857C37.3991 93.3857 37.1208 93.4867 36.8994 93.6885C36.6781 93.887 36.5495 94.1556 36.5137 94.4941V98H35.6055V94.5381C35.6055 93.7699 35.2295 93.3857 34.4775 93.3857C33.8851 93.3857 33.4798 93.638 33.2617 94.1426V98H32.3584V92.7168H33.2129ZM44.3945 98C44.3424 97.8958 44.3001 97.7103 44.2676 97.4434C43.8477 97.8796 43.3464 98.0977 42.7637 98.0977C42.2428 98.0977 41.8148 97.9512 41.4795 97.6582C41.1475 97.362 40.9814 96.9876 40.9814 96.5352C40.9814 95.985 41.1898 95.5586 41.6064 95.2559C42.0264 94.9499 42.6156 94.7969 43.374 94.7969H44.2529V94.3818C44.2529 94.0661 44.1585 93.8154 43.9697 93.6299C43.7809 93.4411 43.5026 93.3467 43.1348 93.3467C42.8125 93.3467 42.5423 93.4281 42.3242 93.5908C42.1061 93.7536 41.9971 93.9505 41.9971 94.1816H41.0889C41.0889 93.918 41.1816 93.6641 41.3672 93.4199C41.556 93.1725 41.8099 92.9772 42.1289 92.834C42.4512 92.6908 42.8044 92.6191 43.1885 92.6191C43.7972 92.6191 44.2741 92.7721 44.6191 93.0781C44.9642 93.3809 45.1432 93.7992 45.1562 94.333V96.7646C45.1562 97.2497 45.2181 97.6354 45.3418 97.9219V98H44.3945ZM42.8955 97.3115C43.1787 97.3115 43.4473 97.2383 43.7012 97.0918C43.9551 96.9453 44.139 96.7549 44.2529 96.5205V95.4365H43.5449C42.4382 95.4365 41.8848 95.7604 41.8848 96.4082C41.8848 96.6914 41.9792 96.9128 42.168 97.0723C42.3568 97.2318 42.5993 97.3115 42.8955 97.3115ZM47.7979 91.4375V92.7168H48.7842V93.415H47.7979V96.6914C47.7979 96.903 47.8418 97.0625 47.9297 97.1699C48.0176 97.2741 48.1673 97.3262 48.3789 97.3262C48.4831 97.3262 48.6263 97.3066 48.8086 97.2676V98C48.571 98.0651 48.3398 98.0977 48.1152 98.0977C47.7116 98.0977 47.4072 97.9756 47.2021 97.7314C46.9971 97.4873 46.8945 97.1406 46.8945 96.6914V93.415H45.9326V92.7168H46.8945V91.4375H47.7979ZM52.3975 93.5273C52.2607 93.5046 52.1126 93.4932 51.9531 93.4932C51.3607 93.4932 50.9587 93.7454 50.7471 94.25V98H49.8438V92.7168H50.7227L50.7373 93.3271C51.0335 92.8551 51.4535 92.6191 51.9971 92.6191C52.1729 92.6191 52.3063 92.6419 52.3975 92.6875V93.5273ZM54.2139 98H53.3105V92.7168H54.2139V98ZM53.2373 91.3154C53.2373 91.1689 53.2812 91.0452 53.3691 90.9443C53.4603 90.8434 53.5938 90.793 53.7695 90.793C53.9453 90.793 54.0788 90.8434 54.1699 90.9443C54.2611 91.0452 54.3066 91.1689 54.3066 91.3154C54.3066 91.4619 54.2611 91.584 54.1699 91.6816C54.0788 91.7793 53.9453 91.8281 53.7695 91.8281C53.5938 91.8281 53.4603 91.7793 53.3691 91.6816C53.2812 91.584 53.2373 91.4619 53.2373 91.3154ZM57.4365 94.6455L58.6084 92.7168H59.6631L57.9346 95.3291L59.7168 98H58.6719L57.4512 96.0225L56.2305 98H55.1807L56.9629 95.3291L55.2344 92.7168H56.2793L57.4365 94.6455ZM65.5664 93.6152L67.2705 90.8906H68.374L66.1279 94.416L68.4277 98H67.3145L65.5664 95.2266L63.8086 98H62.7002L65.0049 94.416L62.7539 90.8906H63.8525L65.5664 93.6152ZM0.649414 107.114C0.649414 106.379 0.74707 105.672 0.942383 104.995C1.14095 104.318 1.43555 103.703 1.82617 103.149C2.2168 102.596 2.62207 102.205 3.04199 101.978L3.22754 102.573C2.75228 102.938 2.36165 103.494 2.05566 104.243C1.75293 104.992 1.58691 105.83 1.55762 106.758L1.55273 107.173C1.55273 108.429 1.78223 109.52 2.24121 110.444C2.5179 110.998 2.84668 111.431 3.22754 111.743L3.04199 112.295C2.60905 112.054 2.19564 111.65 1.80176 111.084C1.03353 109.977 0.649414 108.654 0.649414 107.114ZM6.29395 110.098C5.5778 110.098 4.99512 109.863 4.5459 109.395C4.09668 108.923 3.87207 108.293 3.87207 107.505V107.339C3.87207 106.815 3.97135 106.348 4.16992 105.938C4.37174 105.524 4.65169 105.202 5.00977 104.971C5.37109 104.736 5.76172 104.619 6.18164 104.619C6.86849 104.619 7.40234 104.845 7.7832 105.298C8.16406 105.75 8.35449 106.398 8.35449 107.241V107.617H4.77539C4.78841 108.138 4.93978 108.56 5.22949 108.882C5.52246 109.201 5.89355 109.36 6.34277 109.36C6.66178 109.36 6.93197 109.295 7.15332 109.165C7.37467 109.035 7.56836 108.862 7.73438 108.647L8.28613 109.077C7.84342 109.757 7.17936 110.098 6.29395 110.098ZM6.18164 105.361C5.81706 105.361 5.51107 105.495 5.26367 105.762C5.01628 106.025 4.86328 106.396 4.80469 106.875H7.45117V106.807C7.42513 106.348 7.30143 105.993 7.08008 105.742C6.85872 105.488 6.55924 105.361 6.18164 105.361ZM10.3857 110H9.48242V102.5H10.3857V110ZM12.8174 110H11.9141V104.717H12.8174V110ZM11.8408 103.315C11.8408 103.169 11.8848 103.045 11.9727 102.944C12.0638 102.843 12.1973 102.793 12.373 102.793C12.5488 102.793 12.6823 102.843 12.7734 102.944C12.8646 103.045 12.9102 103.169 12.9102 103.315C12.9102 103.462 12.8646 103.584 12.7734 103.682C12.6823 103.779 12.5488 103.828 12.373 103.828C12.1973 103.828 12.0638 103.779 11.9727 103.682C11.8848 103.584 11.8408 103.462 11.8408 103.315ZM15.1172 104.717L15.1416 105.303C15.529 104.847 16.0514 104.619 16.709 104.619C17.4479 104.619 17.9508 104.902 18.2178 105.469C18.3936 105.215 18.6214 105.01 18.9014 104.854C19.1846 104.697 19.5182 104.619 19.9023 104.619C21.0612 104.619 21.6504 105.233 21.6699 106.46V110H20.7666V106.514C20.7666 106.136 20.6803 105.854 20.5078 105.669C20.3353 105.48 20.0456 105.386 19.6387 105.386C19.3034 105.386 19.0251 105.487 18.8037 105.688C18.5824 105.887 18.4538 106.156 18.418 106.494V110H17.5098V106.538C17.5098 105.77 17.1338 105.386 16.3818 105.386C15.7894 105.386 15.3841 105.638 15.166 106.143V110H14.2627V104.717H15.1172ZM24.0186 110H23.1152V104.717H24.0186V110ZM23.042 103.315C23.042 103.169 23.0859 103.045 23.1738 102.944C23.265 102.843 23.3984 102.793 23.5742 102.793C23.75 102.793 23.8835 102.843 23.9746 102.944C24.0658 103.045 24.1113 103.169 24.1113 103.315C24.1113 103.462 24.0658 103.584 23.9746 103.682C23.8835 103.779 23.75 103.828 23.5742 103.828C23.3984 103.828 23.265 103.779 23.1738 103.682C23.0859 103.584 23.042 103.462 23.042 103.315ZM26.3232 104.717L26.3525 105.381C26.7562 104.873 27.2835 104.619 27.9346 104.619C29.0511 104.619 29.6143 105.249 29.624 106.509V110H28.7207V106.504C28.7174 106.123 28.6296 105.841 28.457 105.659C28.2878 105.477 28.0225 105.386 27.6611 105.386C27.3682 105.386 27.111 105.464 26.8896 105.62C26.6683 105.776 26.4958 105.981 26.3721 106.235V110H25.4688V104.717H26.3232ZM34.248 110C34.196 109.896 34.1536 109.71 34.1211 109.443C33.7012 109.88 33.1999 110.098 32.6172 110.098C32.0964 110.098 31.6683 109.951 31.333 109.658C31.001 109.362 30.835 108.988 30.835 108.535C30.835 107.985 31.0433 107.559 31.46 107.256C31.8799 106.95 32.4691 106.797 33.2275 106.797H34.1064V106.382C34.1064 106.066 34.012 105.815 33.8232 105.63C33.6344 105.441 33.3561 105.347 32.9883 105.347C32.666 105.347 32.3958 105.428 32.1777 105.591C31.9596 105.754 31.8506 105.951 31.8506 106.182H30.9424C30.9424 105.918 31.0352 105.664 31.2207 105.42C31.4095 105.173 31.6634 104.977 31.9824 104.834C32.3047 104.691 32.6579 104.619 33.042 104.619C33.6507 104.619 34.1276 104.772 34.4727 105.078C34.8177 105.381 34.9967 105.799 35.0098 106.333V108.765C35.0098 109.25 35.0716 109.635 35.1953 109.922V110H34.248ZM32.749 109.312C33.0322 109.312 33.3008 109.238 33.5547 109.092C33.8086 108.945 33.9925 108.755 34.1064 108.521V107.437H33.3984C32.2917 107.437 31.7383 107.76 31.7383 108.408C31.7383 108.691 31.8327 108.913 32.0215 109.072C32.2103 109.232 32.4528 109.312 32.749 109.312ZM37.6514 103.438V104.717H38.6377V105.415H37.6514V108.691C37.6514 108.903 37.6953 109.062 37.7832 109.17C37.8711 109.274 38.0208 109.326 38.2324 109.326C38.3366 109.326 38.4798 109.307 38.6621 109.268V110C38.4245 110.065 38.1934 110.098 37.9688 110.098C37.5651 110.098 37.2607 109.976 37.0557 109.731C36.8506 109.487 36.748 109.141 36.748 108.691V105.415H35.7861V104.717H36.748V103.438H37.6514ZM40.6787 110H39.7754V104.717H40.6787V110ZM39.7021 103.315C39.7021 103.169 39.7461 103.045 39.834 102.944C39.9251 102.843 40.0586 102.793 40.2344 102.793C40.4102 102.793 40.5436 102.843 40.6348 102.944C40.7259 103.045 40.7715 103.169 40.7715 103.315C40.7715 103.462 40.7259 103.584 40.6348 103.682C40.5436 103.779 40.4102 103.828 40.2344 103.828C40.0586 103.828 39.9251 103.779 39.834 103.682C39.7461 103.584 39.7021 103.462 39.7021 103.315ZM41.8896 107.31C41.8896 106.792 41.9906 106.326 42.1924 105.913C42.3975 105.5 42.6807 105.181 43.042 104.956C43.4066 104.731 43.8216 104.619 44.2871 104.619C45.0065 104.619 45.5876 104.868 46.0303 105.366C46.4762 105.864 46.6992 106.527 46.6992 107.354V107.417C46.6992 107.931 46.5999 108.394 46.4014 108.804C46.2061 109.211 45.9245 109.528 45.5566 109.756C45.1921 109.984 44.7721 110.098 44.2969 110.098C43.5807 110.098 42.9997 109.849 42.5537 109.351C42.111 108.853 41.8896 108.193 41.8896 107.373V107.31ZM42.7979 107.417C42.7979 108.003 42.9329 108.473 43.2031 108.828C43.4766 109.183 43.8411 109.36 44.2969 109.36C44.7559 109.36 45.1204 109.181 45.3906 108.823C45.6608 108.462 45.7959 107.957 45.7959 107.31C45.7959 106.73 45.6576 106.261 45.3809 105.903C45.1074 105.542 44.7428 105.361 44.2871 105.361C43.8411 105.361 43.4814 105.539 43.208 105.894C42.9346 106.248 42.7979 106.756 42.7979 107.417ZM48.6865 104.717L48.7158 105.381C49.1195 104.873 49.6468 104.619 50.2979 104.619C51.4144 104.619 51.9775 105.249 51.9873 106.509V110H51.084V106.504C51.0807 106.123 50.9928 105.841 50.8203 105.659C50.651 105.477 50.3857 105.386 50.0244 105.386C49.7314 105.386 49.4743 105.464 49.2529 105.62C49.0316 105.776 48.859 105.981 48.7354 106.235V110H47.832V104.717H48.6865ZM56.6797 104.717L56.7041 105.303C57.0915 104.847 57.6139 104.619 58.2715 104.619C59.0104 104.619 59.5133 104.902 59.7803 105.469C59.9561 105.215 60.1839 105.01 60.4639 104.854C60.7471 104.697 61.0807 104.619 61.4648 104.619C62.6237 104.619 63.2129 105.233 63.2324 106.46V110H62.3291V106.514C62.3291 106.136 62.2428 105.854 62.0703 105.669C61.8978 105.48 61.6081 105.386 61.2012 105.386C60.8659 105.386 60.5876 105.487 60.3662 105.688C60.1449 105.887 60.0163 106.156 59.9805 106.494V110H59.0723V106.538C59.0723 105.77 58.6963 105.386 57.9443 105.386C57.3519 105.386 56.9466 105.638 56.7285 106.143V110H55.8252V104.717H56.6797ZM67.8613 110C67.8092 109.896 67.7669 109.71 67.7344 109.443C67.3145 109.88 66.8132 110.098 66.2305 110.098C65.7096 110.098 65.2816 109.951 64.9463 109.658C64.6143 109.362 64.4482 108.988 64.4482 108.535C64.4482 107.985 64.6566 107.559 65.0732 107.256C65.4932 106.95 66.0824 106.797 66.8408 106.797H67.7197V106.382C67.7197 106.066 67.6253 105.815 67.4365 105.63C67.2477 105.441 66.9694 105.347 66.6016 105.347C66.2793 105.347 66.0091 105.428 65.791 105.591C65.5729 105.754 65.4639 105.951 65.4639 106.182H64.5557C64.5557 105.918 64.6484 105.664 64.834 105.42C65.0228 105.173 65.2767 104.977 65.5957 104.834C65.918 104.691 66.2712 104.619 66.6553 104.619C67.264 104.619 67.7409 104.772 68.0859 105.078C68.431 105.381 68.61 105.799 68.623 106.333V108.765C68.623 109.25 68.6849 109.635 68.8086 109.922V110H67.8613ZM66.3623 109.312C66.6455 109.312 66.9141 109.238 67.168 109.092C67.4219 108.945 67.6058 108.755 67.7197 108.521V107.437H67.0117C65.9049 107.437 65.3516 107.76 65.3516 108.408C65.3516 108.691 65.446 108.913 65.6348 109.072C65.8236 109.232 66.0661 109.312 66.3623 109.312ZM71.2646 103.438V104.717H72.251V105.415H71.2646V108.691C71.2646 108.903 71.3086 109.062 71.3965 109.17C71.4844 109.274 71.6341 109.326 71.8457 109.326C71.9499 109.326 72.0931 109.307 72.2754 109.268V110C72.0378 110.065 71.8066 110.098 71.582 110.098C71.1784 110.098 70.874 109.976 70.6689 109.731C70.4639 109.487 70.3613 109.141 70.3613 108.691V105.415H69.3994V104.717H70.3613V103.438H71.2646ZM75.8643 105.527C75.7275 105.505 75.5794 105.493 75.4199 105.493C74.8275 105.493 74.4255 105.745 74.2139 106.25V110H73.3105V104.717H74.1895L74.2041 105.327C74.5003 104.855 74.9202 104.619 75.4639 104.619C75.6396 104.619 75.7731 104.642 75.8643 104.688V105.527ZM77.6807 110H76.7773V104.717H77.6807V110ZM76.7041 103.315C76.7041 103.169 76.748 103.045 76.8359 102.944C76.9271 102.843 77.0605 102.793 77.2363 102.793C77.4121 102.793 77.5456 102.843 77.6367 102.944C77.7279 103.045 77.7734 103.169 77.7734 103.315C77.7734 103.462 77.7279 103.584 77.6367 103.682C77.5456 103.779 77.4121 103.828 77.2363 103.828C77.0605 103.828 76.9271 103.779 76.8359 103.682C76.748 103.584 76.7041 103.462 76.7041 103.315ZM80.9033 106.646L82.0752 104.717H83.1299L81.4014 107.329L83.1836 110H82.1387L80.918 108.022L79.6973 110H78.6475L80.4297 107.329L78.7012 104.717H79.7461L80.9033 106.646ZM84.0625 111.416L83.5498 111.064C83.8558 110.638 84.0153 110.199 84.0283 109.746V108.931H84.9121V109.639C84.9121 109.967 84.8307 110.296 84.668 110.625C84.5085 110.954 84.3066 111.217 84.0625 111.416ZM89.7607 103.438V104.717H90.7471V105.415H89.7607V108.691C89.7607 108.903 89.8047 109.062 89.8926 109.17C89.9805 109.274 90.1302 109.326 90.3418 109.326C90.446 109.326 90.5892 109.307 90.7715 109.268V110C90.5339 110.065 90.3027 110.098 90.0781 110.098C89.6745 110.098 89.3701 109.976 89.165 109.731C88.96 109.487 88.8574 109.141 88.8574 108.691V105.415H87.8955V104.717H88.8574V103.438H89.7607ZM92.71 105.356C93.1104 104.865 93.6312 104.619 94.2725 104.619C95.389 104.619 95.9521 105.249 95.9619 106.509V110H95.0586V106.504C95.0553 106.123 94.9674 105.841 94.7949 105.659C94.6257 105.477 94.3604 105.386 93.999 105.386C93.7061 105.386 93.4489 105.464 93.2275 105.62C93.0062 105.776 92.8337 105.981 92.71 106.235V110H91.8066V102.5H92.71V105.356ZM99.5068 110.098C98.7907 110.098 98.208 109.863 97.7588 109.395C97.3096 108.923 97.085 108.293 97.085 107.505V107.339C97.085 106.815 97.1842 106.348 97.3828 105.938C97.5846 105.524 97.8646 105.202 98.2227 104.971C98.584 104.736 98.9746 104.619 99.3945 104.619C100.081 104.619 100.615 104.845 100.996 105.298C101.377 105.75 101.567 106.398 101.567 107.241V107.617H97.9883C98.0013 108.138 98.1527 108.56 98.4424 108.882C98.7354 109.201 99.1064 109.36 99.5557 109.36C99.8747 109.36 100.145 109.295 100.366 109.165C100.588 109.035 100.781 108.862 100.947 108.647L101.499 109.077C101.056 109.757 100.392 110.098 99.5068 110.098ZM99.3945 105.361C99.0299 105.361 98.724 105.495 98.4766 105.762C98.2292 106.025 98.0762 106.396 98.0176 106.875H100.664V106.807C100.638 106.348 100.514 105.993 100.293 105.742C100.072 105.488 99.7721 105.361 99.3945 105.361ZM109.561 107.417C109.561 108.221 109.377 108.869 109.009 109.36C108.641 109.852 108.143 110.098 107.515 110.098C106.873 110.098 106.369 109.894 106.001 109.487V112.031H105.098V104.717H105.923L105.967 105.303C106.335 104.847 106.846 104.619 107.5 104.619C108.135 104.619 108.636 104.858 109.004 105.337C109.375 105.815 109.561 106.481 109.561 107.334V107.417ZM108.657 107.314C108.657 106.719 108.53 106.248 108.276 105.903C108.022 105.558 107.674 105.386 107.231 105.386C106.685 105.386 106.274 105.628 106.001 106.113V108.638C106.271 109.119 106.685 109.36 107.241 109.36C107.674 109.36 108.018 109.189 108.271 108.848C108.529 108.503 108.657 107.992 108.657 107.314ZM113.267 105.527C113.13 105.505 112.982 105.493 112.822 105.493C112.23 105.493 111.828 105.745 111.616 106.25V110H110.713V104.717H111.592L111.606 105.327C111.903 104.855 112.323 104.619 112.866 104.619C113.042 104.619 113.175 104.642 113.267 104.688V105.527ZM113.765 107.31C113.765 106.792 113.866 106.326 114.067 105.913C114.272 105.5 114.556 105.181 114.917 104.956C115.282 104.731 115.697 104.619 116.162 104.619C116.882 104.619 117.463 104.868 117.905 105.366C118.351 105.864 118.574 106.527 118.574 107.354V107.417C118.574 107.931 118.475 108.394 118.276 108.804C118.081 109.211 117.799 109.528 117.432 109.756C117.067 109.984 116.647 110.098 116.172 110.098C115.456 110.098 114.875 109.849 114.429 109.351C113.986 108.853 113.765 108.193 113.765 107.373V107.31ZM114.673 107.417C114.673 108.003 114.808 108.473 115.078 108.828C115.352 109.183 115.716 109.36 116.172 109.36C116.631 109.36 116.995 109.181 117.266 108.823C117.536 108.462 117.671 107.957 117.671 107.31C117.671 106.73 117.533 106.261 117.256 105.903C116.982 105.542 116.618 105.361 116.162 105.361C115.716 105.361 115.356 105.539 115.083 105.894C114.81 106.248 114.673 106.756 114.673 107.417ZM119.487 107.314C119.487 106.504 119.679 105.853 120.063 105.361C120.448 104.867 120.951 104.619 121.572 104.619C122.191 104.619 122.681 104.831 123.042 105.254V102.5H123.945V110H123.115L123.071 109.434C122.71 109.876 122.207 110.098 121.562 110.098C120.951 110.098 120.451 109.847 120.063 109.346C119.679 108.844 119.487 108.19 119.487 107.383V107.314ZM120.391 107.417C120.391 108.016 120.514 108.485 120.762 108.823C121.009 109.162 121.351 109.331 121.787 109.331C122.36 109.331 122.778 109.074 123.042 108.56V106.133C122.772 105.635 122.357 105.386 121.797 105.386C121.354 105.386 121.009 105.557 120.762 105.898C120.514 106.24 120.391 106.746 120.391 107.417ZM128.613 109.478C128.262 109.891 127.746 110.098 127.065 110.098C126.502 110.098 126.073 109.935 125.776 109.609C125.483 109.281 125.335 108.796 125.332 108.154V104.717H126.235V108.13C126.235 108.931 126.561 109.331 127.212 109.331C127.902 109.331 128.361 109.074 128.589 108.56V104.717H129.492V110H128.633L128.613 109.478ZM132.988 109.36C133.311 109.36 133.592 109.263 133.833 109.067C134.074 108.872 134.207 108.628 134.233 108.335H135.088C135.072 108.638 134.967 108.926 134.775 109.199C134.583 109.473 134.326 109.691 134.004 109.854C133.685 110.016 133.346 110.098 132.988 110.098C132.269 110.098 131.696 109.858 131.27 109.38C130.846 108.898 130.635 108.241 130.635 107.407V107.256C130.635 106.742 130.729 106.284 130.918 105.884C131.107 105.483 131.377 105.173 131.729 104.951C132.083 104.73 132.502 104.619 132.983 104.619C133.576 104.619 134.067 104.797 134.458 105.151C134.852 105.506 135.062 105.967 135.088 106.533H134.233C134.207 106.191 134.077 105.911 133.843 105.693C133.612 105.472 133.325 105.361 132.983 105.361C132.524 105.361 132.168 105.527 131.914 105.859C131.663 106.188 131.538 106.665 131.538 107.29V107.461C131.538 108.07 131.663 108.538 131.914 108.867C132.165 109.196 132.523 109.36 132.988 109.36ZM137.329 103.438V104.717H138.315V105.415H137.329V108.691C137.329 108.903 137.373 109.062 137.461 109.17C137.549 109.274 137.699 109.326 137.91 109.326C138.014 109.326 138.158 109.307 138.34 109.268V110C138.102 110.065 137.871 110.098 137.646 110.098C137.243 110.098 136.938 109.976 136.733 109.731C136.528 109.487 136.426 109.141 136.426 108.691V105.415H135.464V104.717H136.426V103.438H137.329ZM141.616 107.31C141.616 106.792 141.717 106.326 141.919 105.913C142.124 105.5 142.407 105.181 142.769 104.956C143.133 104.731 143.548 104.619 144.014 104.619C144.733 104.619 145.314 104.868 145.757 105.366C146.203 105.864 146.426 106.527 146.426 107.354V107.417C146.426 107.931 146.326 108.394 146.128 108.804C145.933 109.211 145.651 109.528 145.283 109.756C144.919 109.984 144.499 110.098 144.023 110.098C143.307 110.098 142.726 109.849 142.28 109.351C141.838 108.853 141.616 108.193 141.616 107.373V107.31ZM142.524 107.417C142.524 108.003 142.66 108.473 142.93 108.828C143.203 109.183 143.568 109.36 144.023 109.36C144.482 109.36 144.847 109.181 145.117 108.823C145.387 108.462 145.522 107.957 145.522 107.31C145.522 106.73 145.384 106.261 145.107 105.903C144.834 105.542 144.469 105.361 144.014 105.361C143.568 105.361 143.208 105.539 142.935 105.894C142.661 106.248 142.524 106.756 142.524 107.417ZM148.003 110V105.415H147.168V104.717H148.003V104.175C148.003 103.608 148.154 103.171 148.457 102.861C148.76 102.552 149.188 102.397 149.741 102.397C149.95 102.397 150.156 102.425 150.361 102.48L150.312 103.213C150.16 103.184 149.997 103.169 149.824 103.169C149.531 103.169 149.305 103.255 149.146 103.428C148.986 103.597 148.906 103.841 148.906 104.16V104.717H150.034V105.415H148.906V110H148.003ZM156.777 110C156.725 109.896 156.683 109.71 156.65 109.443C156.23 109.88 155.729 110.098 155.146 110.098C154.626 110.098 154.198 109.951 153.862 109.658C153.53 109.362 153.364 108.988 153.364 108.535C153.364 107.985 153.573 107.559 153.989 107.256C154.409 106.95 154.998 106.797 155.757 106.797H156.636V106.382C156.636 106.066 156.541 105.815 156.353 105.63C156.164 105.441 155.885 105.347 155.518 105.347C155.195 105.347 154.925 105.428 154.707 105.591C154.489 105.754 154.38 105.951 154.38 106.182H153.472C153.472 105.918 153.564 105.664 153.75 105.42C153.939 105.173 154.193 104.977 154.512 104.834C154.834 104.691 155.187 104.619 155.571 104.619C156.18 104.619 156.657 104.772 157.002 105.078C157.347 105.381 157.526 105.799 157.539 106.333V108.765C157.539 109.25 157.601 109.635 157.725 109.922V110H156.777ZM155.278 109.312C155.562 109.312 155.83 109.238 156.084 109.092C156.338 108.945 156.522 108.755 156.636 108.521V107.437H155.928C154.821 107.437 154.268 107.76 154.268 108.408C154.268 108.691 154.362 108.913 154.551 109.072C154.74 109.232 154.982 109.312 155.278 109.312ZM159.937 110H159.033V102.5H159.937V110ZM162.368 110H161.465V102.5H162.368V110ZM167.524 103.438V104.717H168.511V105.415H167.524V108.691C167.524 108.903 167.568 109.062 167.656 109.17C167.744 109.274 167.894 109.326 168.105 109.326C168.21 109.326 168.353 109.307 168.535 109.268V110C168.298 110.065 168.066 110.098 167.842 110.098C167.438 110.098 167.134 109.976 166.929 109.731C166.724 109.487 166.621 109.141 166.621 108.691V105.415H165.659V104.717H166.621V103.438H167.524ZM170.474 105.356C170.874 104.865 171.395 104.619 172.036 104.619C173.153 104.619 173.716 105.249 173.726 106.509V110H172.822V106.504C172.819 106.123 172.731 105.841 172.559 105.659C172.389 105.477 172.124 105.386 171.763 105.386C171.47 105.386 171.213 105.464 170.991 105.62C170.77 105.776 170.597 105.981 170.474 106.235V110H169.57V102.5H170.474V105.356ZM174.839 107.31C174.839 106.792 174.94 106.326 175.142 105.913C175.347 105.5 175.63 105.181 175.991 104.956C176.356 104.731 176.771 104.619 177.236 104.619C177.956 104.619 178.537 104.868 178.979 105.366C179.425 105.864 179.648 106.527 179.648 107.354V107.417C179.648 107.931 179.549 108.394 179.351 108.804C179.155 109.211 178.874 109.528 178.506 109.756C178.141 109.984 177.721 110.098 177.246 110.098C176.53 110.098 175.949 109.849 175.503 109.351C175.06 108.853 174.839 108.193 174.839 107.373V107.31ZM175.747 107.417C175.747 108.003 175.882 108.473 176.152 108.828C176.426 109.183 176.79 109.36 177.246 109.36C177.705 109.36 178.07 109.181 178.34 108.823C178.61 108.462 178.745 107.957 178.745 107.31C178.745 106.73 178.607 106.261 178.33 105.903C178.057 105.542 177.692 105.361 177.236 105.361C176.79 105.361 176.431 105.539 176.157 105.894C175.884 106.248 175.747 106.756 175.747 107.417ZM183.857 108.599C183.857 108.354 183.765 108.166 183.579 108.032C183.397 107.896 183.076 107.778 182.617 107.681C182.161 107.583 181.799 107.466 181.528 107.329C181.261 107.192 181.063 107.03 180.933 106.841C180.806 106.652 180.742 106.427 180.742 106.167C180.742 105.734 180.924 105.368 181.289 105.068C181.657 104.769 182.126 104.619 182.695 104.619C183.294 104.619 183.779 104.774 184.15 105.083C184.525 105.392 184.712 105.788 184.712 106.27H183.804C183.804 106.022 183.698 105.809 183.486 105.63C183.278 105.451 183.014 105.361 182.695 105.361C182.367 105.361 182.109 105.433 181.924 105.576C181.738 105.719 181.646 105.907 181.646 106.138C181.646 106.356 181.732 106.52 181.904 106.631C182.077 106.742 182.388 106.847 182.837 106.948C183.289 107.049 183.656 107.17 183.936 107.31C184.215 107.45 184.422 107.619 184.556 107.817C184.692 108.013 184.761 108.252 184.761 108.535C184.761 109.007 184.572 109.386 184.194 109.673C183.817 109.956 183.327 110.098 182.725 110.098C182.301 110.098 181.927 110.023 181.602 109.873C181.276 109.723 181.021 109.515 180.835 109.248C180.653 108.978 180.562 108.687 180.562 108.374H181.465C181.481 108.677 181.602 108.918 181.826 109.097C182.054 109.272 182.354 109.36 182.725 109.36C183.066 109.36 183.34 109.292 183.545 109.155C183.753 109.015 183.857 108.83 183.857 108.599ZM188.13 110.098C187.414 110.098 186.831 109.863 186.382 109.395C185.933 108.923 185.708 108.293 185.708 107.505V107.339C185.708 106.815 185.807 106.348 186.006 105.938C186.208 105.524 186.488 105.202 186.846 104.971C187.207 104.736 187.598 104.619 188.018 104.619C188.704 104.619 189.238 104.845 189.619 105.298C190 105.75 190.19 106.398 190.19 107.241V107.617H186.611C186.624 108.138 186.776 108.56 187.065 108.882C187.358 109.201 187.729 109.36 188.179 109.36C188.498 109.36 188.768 109.295 188.989 109.165C189.211 109.035 189.404 108.862 189.57 108.647L190.122 109.077C189.679 109.757 189.015 110.098 188.13 110.098ZM188.018 105.361C187.653 105.361 187.347 105.495 187.1 105.762C186.852 106.025 186.699 106.396 186.641 106.875H189.287V106.807C189.261 106.348 189.137 105.993 188.916 105.742C188.695 105.488 188.395 105.361 188.018 105.361ZM194.702 110H193.799V102.5H194.702V110ZM197.134 110H196.23V104.717H197.134V110ZM196.157 103.315C196.157 103.169 196.201 103.045 196.289 102.944C196.38 102.843 196.514 102.793 196.689 102.793C196.865 102.793 196.999 102.843 197.09 102.944C197.181 103.045 197.227 103.169 197.227 103.315C197.227 103.462 197.181 103.584 197.09 103.682C196.999 103.779 196.865 103.828 196.689 103.828C196.514 103.828 196.38 103.779 196.289 103.682C196.201 103.584 196.157 103.462 196.157 103.315ZM199.81 103.438V104.717H200.796V105.415H199.81V108.691C199.81 108.903 199.854 109.062 199.941 109.17C200.029 109.274 200.179 109.326 200.391 109.326C200.495 109.326 200.638 109.307 200.82 109.268V110C200.583 110.065 200.352 110.098 200.127 110.098C199.723 110.098 199.419 109.976 199.214 109.731C199.009 109.487 198.906 109.141 198.906 108.691V105.415H197.944V104.717H198.906V103.438H199.81ZM203.081 103.438V104.717H204.067V105.415H203.081V108.691C203.081 108.903 203.125 109.062 203.213 109.17C203.301 109.274 203.451 109.326 203.662 109.326C203.766 109.326 203.91 109.307 204.092 109.268V110C203.854 110.065 203.623 110.098 203.398 110.098C202.995 110.098 202.69 109.976 202.485 109.731C202.28 109.487 202.178 109.141 202.178 108.691V105.415H201.216V104.717H202.178V103.438H203.081ZM206.108 110H205.205V102.5H206.108V110ZM209.751 110.098C209.035 110.098 208.452 109.863 208.003 109.395C207.554 108.923 207.329 108.293 207.329 107.505V107.339C207.329 106.815 207.428 106.348 207.627 105.938C207.829 105.524 208.109 105.202 208.467 104.971C208.828 104.736 209.219 104.619 209.639 104.619C210.326 104.619 210.859 104.845 211.24 105.298C211.621 105.75 211.812 106.398 211.812 107.241V107.617H208.232C208.245 108.138 208.397 108.56 208.687 108.882C208.979 109.201 209.351 109.36 209.8 109.36C210.119 109.36 210.389 109.295 210.61 109.165C210.832 109.035 211.025 108.862 211.191 108.647L211.743 109.077C211.3 109.757 210.636 110.098 209.751 110.098ZM209.639 105.361C209.274 105.361 208.968 105.495 208.721 105.762C208.473 106.025 208.32 106.396 208.262 106.875H210.908V106.807C210.882 106.348 210.758 105.993 210.537 105.742C210.316 105.488 210.016 105.361 209.639 105.361ZM219.805 107.417C219.805 108.221 219.621 108.869 219.253 109.36C218.885 109.852 218.387 110.098 217.759 110.098C217.118 110.098 216.613 109.894 216.245 109.487V112.031H215.342V104.717H216.167L216.211 105.303C216.579 104.847 217.09 104.619 217.744 104.619C218.379 104.619 218.88 104.858 219.248 105.337C219.619 105.815 219.805 106.481 219.805 107.334V107.417ZM218.901 107.314C218.901 106.719 218.774 106.248 218.521 105.903C218.267 105.558 217.918 105.386 217.476 105.386C216.929 105.386 216.519 105.628 216.245 106.113V108.638C216.515 109.119 216.929 109.36 217.485 109.36C217.918 109.36 218.262 109.189 218.516 108.848C218.773 108.503 218.901 107.992 218.901 107.314ZM221.938 110H221.035V104.717H221.938V110ZM220.962 103.315C220.962 103.169 221.006 103.045 221.094 102.944C221.185 102.843 221.318 102.793 221.494 102.793C221.67 102.793 221.803 102.843 221.895 102.944C221.986 103.045 222.031 103.169 222.031 103.315C222.031 103.462 221.986 103.584 221.895 103.682C221.803 103.779 221.67 103.828 221.494 103.828C221.318 103.828 221.185 103.779 221.094 103.682C221.006 103.584 220.962 103.462 220.962 103.315ZM225.581 110.098C224.865 110.098 224.282 109.863 223.833 109.395C223.384 108.923 223.159 108.293 223.159 107.505V107.339C223.159 106.815 223.258 106.348 223.457 105.938C223.659 105.524 223.939 105.202 224.297 104.971C224.658 104.736 225.049 104.619 225.469 104.619C226.156 104.619 226.689 104.845 227.07 105.298C227.451 105.75 227.642 106.398 227.642 107.241V107.617H224.062C224.076 108.138 224.227 108.56 224.517 108.882C224.81 109.201 225.181 109.36 225.63 109.36C225.949 109.36 226.219 109.295 226.44 109.165C226.662 109.035 226.855 108.862 227.021 108.647L227.573 109.077C227.131 109.757 226.466 110.098 225.581 110.098ZM225.469 105.361C225.104 105.361 224.798 105.495 224.551 105.762C224.303 106.025 224.15 106.396 224.092 106.875H226.738V106.807C226.712 106.348 226.589 105.993 226.367 105.742C226.146 105.488 225.846 105.361 225.469 105.361ZM230.811 109.36C231.133 109.36 231.414 109.263 231.655 109.067C231.896 108.872 232.03 108.628 232.056 108.335H232.91C232.894 108.638 232.79 108.926 232.598 109.199C232.406 109.473 232.148 109.691 231.826 109.854C231.507 110.016 231.169 110.098 230.811 110.098C230.091 110.098 229.518 109.858 229.092 109.38C228.669 108.898 228.457 108.241 228.457 107.407V107.256C228.457 106.742 228.551 106.284 228.74 105.884C228.929 105.483 229.199 105.173 229.551 104.951C229.906 104.73 230.324 104.619 230.806 104.619C231.398 104.619 231.89 104.797 232.28 105.151C232.674 105.506 232.884 105.967 232.91 106.533H232.056C232.03 106.191 231.899 105.911 231.665 105.693C231.434 105.472 231.147 105.361 230.806 105.361C230.347 105.361 229.99 105.527 229.736 105.859C229.486 106.188 229.36 106.665 229.36 107.29V107.461C229.36 108.07 229.486 108.538 229.736 108.867C229.987 109.196 230.345 109.36 230.811 109.36ZM236.118 110.098C235.402 110.098 234.819 109.863 234.37 109.395C233.921 108.923 233.696 108.293 233.696 107.505V107.339C233.696 106.815 233.796 106.348 233.994 105.938C234.196 105.524 234.476 105.202 234.834 104.971C235.195 104.736 235.586 104.619 236.006 104.619C236.693 104.619 237.227 104.845 237.607 105.298C237.988 105.75 238.179 106.398 238.179 107.241V107.617H234.6C234.613 108.138 234.764 108.56 235.054 108.882C235.347 109.201 235.718 109.36 236.167 109.36C236.486 109.36 236.756 109.295 236.978 109.165C237.199 109.035 237.393 108.862 237.559 108.647L238.11 109.077C237.668 109.757 237.004 110.098 236.118 110.098ZM236.006 105.361C235.641 105.361 235.335 105.495 235.088 105.762C234.84 106.025 234.688 106.396 234.629 106.875H237.275V106.807C237.249 106.348 237.126 105.993 236.904 105.742C236.683 105.488 236.383 105.361 236.006 105.361ZM242.305 108.599C242.305 108.354 242.212 108.166 242.026 108.032C241.844 107.896 241.523 107.778 241.064 107.681C240.609 107.583 240.246 107.466 239.976 107.329C239.709 107.192 239.51 107.03 239.38 106.841C239.253 106.652 239.189 106.427 239.189 106.167C239.189 105.734 239.372 105.368 239.736 105.068C240.104 104.769 240.573 104.619 241.143 104.619C241.742 104.619 242.227 104.774 242.598 105.083C242.972 105.392 243.159 105.788 243.159 106.27H242.251C242.251 106.022 242.145 105.809 241.934 105.63C241.725 105.451 241.462 105.361 241.143 105.361C240.814 105.361 240.557 105.433 240.371 105.576C240.186 105.719 240.093 105.907 240.093 106.138C240.093 106.356 240.179 106.52 240.352 106.631C240.524 106.742 240.835 106.847 241.284 106.948C241.737 107.049 242.103 107.17 242.383 107.31C242.663 107.45 242.869 107.619 243.003 107.817C243.14 108.013 243.208 108.252 243.208 108.535C243.208 109.007 243.019 109.386 242.642 109.673C242.264 109.956 241.774 110.098 241.172 110.098C240.749 110.098 240.374 110.023 240.049 109.873C239.723 109.723 239.468 109.515 239.282 109.248C239.1 108.978 239.009 108.687 239.009 108.374H239.912C239.928 108.677 240.049 108.918 240.273 109.097C240.501 109.272 240.801 109.36 241.172 109.36C241.514 109.36 241.787 109.292 241.992 109.155C242.201 109.015 242.305 108.83 242.305 108.599ZM248.745 107.349H246.362V106.611H248.745V107.349ZM1.5332 116.717L1.55762 117.303C1.94499 116.847 2.46745 116.619 3.125 116.619C3.86393 116.619 4.36686 116.902 4.63379 117.469C4.80957 117.215 5.03743 117.01 5.31738 116.854C5.60059 116.697 5.93424 116.619 6.31836 116.619C7.47721 116.619 8.06641 117.233 8.08594 118.46V122H7.18262V118.514C7.18262 118.136 7.09635 117.854 6.92383 117.669C6.7513 117.48 6.46159 117.386 6.05469 117.386C5.7194 117.386 5.44108 117.487 5.21973 117.688C4.99837 117.887 4.86979 118.156 4.83398 118.494V122H3.92578V118.538C3.92578 117.77 3.5498 117.386 2.79785 117.386C2.2054 117.386 1.80013 117.638 1.58203 118.143V122H0.678711V116.717H1.5332ZM12.7148 122C12.6628 121.896 12.6204 121.71 12.5879 121.443C12.168 121.88 11.6667 122.098 11.084 122.098C10.5632 122.098 10.1351 121.951 9.7998 121.658C9.46777 121.362 9.30176 120.988 9.30176 120.535C9.30176 119.985 9.51009 119.559 9.92676 119.256C10.3467 118.95 10.9359 118.797 11.6943 118.797H12.5732V118.382C12.5732 118.066 12.4788 117.815 12.29 117.63C12.1012 117.441 11.8229 117.347 11.4551 117.347C11.1328 117.347 10.8626 117.428 10.6445 117.591C10.4264 117.754 10.3174 117.951 10.3174 118.182H9.40918C9.40918 117.918 9.50195 117.664 9.6875 117.42C9.8763 117.173 10.1302 116.977 10.4492 116.834C10.7715 116.691 11.1247 116.619 11.5088 116.619C12.1175 116.619 12.5944 116.772 12.9395 117.078C13.2845 117.381 13.4635 117.799 13.4766 118.333V120.765C13.4766 121.25 13.5384 121.635 13.6621 121.922V122H12.7148ZM11.2158 121.312C11.499 121.312 11.7676 121.238 12.0215 121.092C12.2754 120.945 12.4593 120.755 12.5732 120.521V119.437H11.8652C10.7585 119.437 10.2051 119.76 10.2051 120.408C10.2051 120.691 10.2995 120.913 10.4883 121.072C10.6771 121.232 10.9196 121.312 11.2158 121.312ZM16.1182 115.438V116.717H17.1045V117.415H16.1182V120.691C16.1182 120.903 16.1621 121.062 16.25 121.17C16.3379 121.274 16.4876 121.326 16.6992 121.326C16.8034 121.326 16.9466 121.307 17.1289 121.268V122C16.8913 122.065 16.6602 122.098 16.4355 122.098C16.0319 122.098 15.7275 121.976 15.5225 121.731C15.3174 121.487 15.2148 121.141 15.2148 120.691V117.415H14.2529V116.717H15.2148V115.438H16.1182ZM20.7178 117.527C20.5811 117.505 20.4329 117.493 20.2734 117.493C19.681 117.493 19.279 117.745 19.0674 118.25V122H18.1641V116.717H19.043L19.0576 117.327C19.3538 116.855 19.7738 116.619 20.3174 116.619C20.4932 116.619 20.6266 116.642 20.7178 116.688V117.527ZM22.5342 122H21.6309V116.717H22.5342V122ZM21.5576 115.315C21.5576 115.169 21.6016 115.045 21.6895 114.944C21.7806 114.843 21.9141 114.793 22.0898 114.793C22.2656 114.793 22.3991 114.843 22.4902 114.944C22.5814 115.045 22.627 115.169 22.627 115.315C22.627 115.462 22.5814 115.584 22.4902 115.682C22.3991 115.779 22.2656 115.828 22.0898 115.828C21.9141 115.828 21.7806 115.779 21.6895 115.682C21.6016 115.584 21.5576 115.462 21.5576 115.315ZM26.1035 121.36C26.4258 121.36 26.7074 121.263 26.9482 121.067C27.1891 120.872 27.3226 120.628 27.3486 120.335H28.2031C28.1868 120.638 28.0827 120.926 27.8906 121.199C27.6986 121.473 27.4414 121.691 27.1191 121.854C26.8001 122.016 26.4616 122.098 26.1035 122.098C25.3841 122.098 24.8112 121.858 24.3848 121.38C23.9616 120.898 23.75 120.241 23.75 119.407V119.256C23.75 118.742 23.8444 118.284 24.0332 117.884C24.222 117.483 24.4922 117.173 24.8438 116.951C25.1986 116.73 25.6169 116.619 26.0986 116.619C26.6911 116.619 27.1826 116.797 27.5732 117.151C27.9671 117.506 28.1771 117.967 28.2031 118.533H27.3486C27.3226 118.191 27.1924 117.911 26.958 117.693C26.7269 117.472 26.4404 117.361 26.0986 117.361C25.6396 117.361 25.2832 117.527 25.0293 117.859C24.7786 118.188 24.6533 118.665 24.6533 119.29V119.461C24.6533 120.07 24.7786 120.538 25.0293 120.867C25.2799 121.196 25.638 121.36 26.1035 121.36ZM31.4111 122.098C30.695 122.098 30.1123 121.863 29.6631 121.395C29.2139 120.923 28.9893 120.293 28.9893 119.505V119.339C28.9893 118.815 29.0885 118.348 29.2871 117.938C29.4889 117.524 29.7689 117.202 30.127 116.971C30.4883 116.736 30.8789 116.619 31.2988 116.619C31.9857 116.619 32.5195 116.845 32.9004 117.298C33.2812 117.75 33.4717 118.398 33.4717 119.241V119.617H29.8926C29.9056 120.138 30.057 120.56 30.3467 120.882C30.6396 121.201 31.0107 121.36 31.46 121.36C31.779 121.36 32.0492 121.295 32.2705 121.165C32.4919 121.035 32.6855 120.862 32.8516 120.647L33.4033 121.077C32.9606 121.757 32.2965 122.098 31.4111 122.098ZM31.2988 117.361C30.9342 117.361 30.6283 117.495 30.3809 117.762C30.1335 118.025 29.9805 118.396 29.9219 118.875H32.5684V118.807C32.5423 118.348 32.4186 117.993 32.1973 117.742C31.9759 117.488 31.6764 117.361 31.2988 117.361ZM37.5977 120.599C37.5977 120.354 37.5049 120.166 37.3193 120.032C37.137 119.896 36.8164 119.778 36.3574 119.681C35.9017 119.583 35.5387 119.466 35.2686 119.329C35.0016 119.192 34.8031 119.03 34.6729 118.841C34.5459 118.652 34.4824 118.427 34.4824 118.167C34.4824 117.734 34.6647 117.368 35.0293 117.068C35.3971 116.769 35.8659 116.619 36.4355 116.619C37.0345 116.619 37.5195 116.774 37.8906 117.083C38.265 117.392 38.4521 117.788 38.4521 118.27H37.5439C37.5439 118.022 37.4382 117.809 37.2266 117.63C37.0182 117.451 36.7546 117.361 36.4355 117.361C36.1068 117.361 35.8496 117.433 35.6641 117.576C35.4785 117.719 35.3857 117.907 35.3857 118.138C35.3857 118.356 35.472 118.52 35.6445 118.631C35.8171 118.742 36.1279 118.847 36.5771 118.948C37.0296 119.049 37.3958 119.17 37.6758 119.31C37.9557 119.45 38.1624 119.619 38.2959 119.817C38.4326 120.013 38.501 120.252 38.501 120.535C38.501 121.007 38.3122 121.386 37.9346 121.673C37.557 121.956 37.0671 122.098 36.4648 122.098C36.0417 122.098 35.6673 122.023 35.3418 121.873C35.0163 121.723 34.7607 121.515 34.5752 121.248C34.3929 120.978 34.3018 120.687 34.3018 120.374H35.2051C35.2214 120.677 35.3418 120.918 35.5664 121.097C35.7943 121.272 36.0938 121.36 36.4648 121.36C36.8066 121.36 37.0801 121.292 37.2852 121.155C37.4935 121.015 37.5977 120.83 37.5977 120.599ZM46.6211 119.417C46.6211 120.221 46.4372 120.869 46.0693 121.36C45.7015 121.852 45.2035 122.098 44.5752 122.098C43.9339 122.098 43.4294 121.894 43.0615 121.487V124.031H42.1582V116.717H42.9834L43.0273 117.303C43.3952 116.847 43.9062 116.619 44.5605 116.619C45.1953 116.619 45.6966 116.858 46.0645 117.337C46.4355 117.815 46.6211 118.481 46.6211 119.334V119.417ZM45.7178 119.314C45.7178 118.719 45.5908 118.248 45.3369 117.903C45.083 117.558 44.7347 117.386 44.292 117.386C43.7451 117.386 43.335 117.628 43.0615 118.113V120.638C43.3317 121.119 43.7451 121.36 44.3018 121.36C44.7347 121.36 45.0781 121.189 45.332 120.848C45.5892 120.503 45.7178 119.992 45.7178 119.314ZM50.3271 117.527C50.1904 117.505 50.0423 117.493 49.8828 117.493C49.2904 117.493 48.8883 117.745 48.6768 118.25V122H47.7734V116.717H48.6523L48.667 117.327C48.9632 116.855 49.3831 116.619 49.9268 116.619C50.1025 116.619 50.236 116.642 50.3271 116.688V117.527ZM50.8252 119.31C50.8252 118.792 50.9261 118.326 51.1279 117.913C51.333 117.5 51.6162 117.181 51.9775 116.956C52.3421 116.731 52.7572 116.619 53.2227 116.619C53.9421 116.619 54.5231 116.868 54.9658 117.366C55.4118 117.864 55.6348 118.527 55.6348 119.354V119.417C55.6348 119.931 55.5355 120.394 55.3369 120.804C55.1416 121.211 54.86 121.528 54.4922 121.756C54.1276 121.984 53.7077 122.098 53.2324 122.098C52.5163 122.098 51.9352 121.849 51.4893 121.351C51.0465 120.853 50.8252 120.193 50.8252 119.373V119.31ZM51.7334 119.417C51.7334 120.003 51.8685 120.473 52.1387 120.828C52.4121 121.183 52.7767 121.36 53.2324 121.36C53.6914 121.36 54.056 121.181 54.3262 120.823C54.5964 120.462 54.7314 119.957 54.7314 119.31C54.7314 118.73 54.5931 118.261 54.3164 117.903C54.043 117.542 53.6784 117.361 53.2227 117.361C52.7767 117.361 52.417 117.539 52.1436 117.894C51.8701 118.248 51.7334 118.756 51.7334 119.417ZM56.5479 119.314C56.5479 118.504 56.7399 117.853 57.124 117.361C57.5081 116.867 58.0111 116.619 58.6328 116.619C59.2513 116.619 59.7412 116.831 60.1025 117.254V114.5H61.0059V122H60.1758L60.1318 121.434C59.7705 121.876 59.2676 122.098 58.623 122.098C58.0111 122.098 57.5114 121.847 57.124 121.346C56.7399 120.844 56.5479 120.19 56.5479 119.383V119.314ZM57.4512 119.417C57.4512 120.016 57.5749 120.485 57.8223 120.823C58.0697 121.162 58.4115 121.331 58.8477 121.331C59.4206 121.331 59.8389 121.074 60.1025 120.56V118.133C59.8324 117.635 59.4173 117.386 58.8574 117.386C58.4147 117.386 58.0697 117.557 57.8223 117.898C57.5749 118.24 57.4512 118.746 57.4512 119.417ZM65.6738 121.478C65.3223 121.891 64.8063 122.098 64.126 122.098C63.5628 122.098 63.1331 121.935 62.8369 121.609C62.5439 121.281 62.3958 120.796 62.3926 120.154V116.717H63.2959V120.13C63.2959 120.931 63.6214 121.331 64.2725 121.331C64.9626 121.331 65.4215 121.074 65.6494 120.56V116.717H66.5527V122H65.6934L65.6738 121.478ZM70.0488 121.36C70.3711 121.36 70.6527 121.263 70.8936 121.067C71.1344 120.872 71.2679 120.628 71.2939 120.335H72.1484C72.1322 120.638 72.028 120.926 71.8359 121.199C71.6439 121.473 71.3867 121.691 71.0645 121.854C70.7454 122.016 70.4069 122.098 70.0488 122.098C69.3294 122.098 68.7565 121.858 68.3301 121.38C67.9069 120.898 67.6953 120.241 67.6953 119.407V119.256C67.6953 118.742 67.7897 118.284 67.9785 117.884C68.1673 117.483 68.4375 117.173 68.7891 116.951C69.1439 116.73 69.5622 116.619 70.0439 116.619C70.6364 116.619 71.1279 116.797 71.5186 117.151C71.9124 117.506 72.1224 117.967 72.1484 118.533H71.2939C71.2679 118.191 71.1377 117.911 70.9033 117.693C70.6722 117.472 70.3857 117.361 70.0439 117.361C69.585 117.361 69.2285 117.527 68.9746 117.859C68.724 118.188 68.5986 118.665 68.5986 119.29V119.461C68.5986 120.07 68.724 120.538 68.9746 120.867C69.2253 121.196 69.5833 121.36 70.0488 121.36ZM75.3564 122.098C74.6403 122.098 74.0576 121.863 73.6084 121.395C73.1592 120.923 72.9346 120.293 72.9346 119.505V119.339C72.9346 118.815 73.0339 118.348 73.2324 117.938C73.4342 117.524 73.7142 117.202 74.0723 116.971C74.4336 116.736 74.8242 116.619 75.2441 116.619C75.931 116.619 76.4648 116.845 76.8457 117.298C77.2266 117.75 77.417 118.398 77.417 119.241V119.617H73.8379C73.8509 120.138 74.0023 120.56 74.292 120.882C74.585 121.201 74.9561 121.36 75.4053 121.36C75.7243 121.36 75.9945 121.295 76.2158 121.165C76.4372 121.035 76.6309 120.862 76.7969 120.647L77.3486 121.077C76.9059 121.757 76.2419 122.098 75.3564 122.098ZM75.2441 117.361C74.8796 117.361 74.5736 117.495 74.3262 117.762C74.0788 118.025 73.9258 118.396 73.8672 118.875H76.5137V118.807C76.4876 118.348 76.3639 117.993 76.1426 117.742C75.9212 117.488 75.6217 117.361 75.2441 117.361ZM78.2471 119.314C78.2471 118.504 78.4391 117.853 78.8232 117.361C79.2074 116.867 79.7103 116.619 80.332 116.619C80.9505 116.619 81.4404 116.831 81.8018 117.254V114.5H82.7051V122H81.875L81.8311 121.434C81.4697 121.876 80.9668 122.098 80.3223 122.098C79.7103 122.098 79.2106 121.847 78.8232 121.346C78.4391 120.844 78.2471 120.19 78.2471 119.383V119.314ZM79.1504 119.417C79.1504 120.016 79.2741 120.485 79.5215 120.823C79.7689 121.162 80.1107 121.331 80.5469 121.331C81.1198 121.331 81.5381 121.074 81.8018 120.56V118.133C81.5316 117.635 81.1165 117.386 80.5566 117.386C80.1139 117.386 79.7689 117.557 79.5215 117.898C79.2741 118.24 79.1504 118.746 79.1504 119.417ZM91.2695 120.755L92.2852 116.717H93.1885L91.6504 122H90.918L89.6338 117.996L88.3838 122H87.6514L86.1182 116.717H87.0166L88.0566 120.672L89.2871 116.717H90.0146L91.2695 120.755ZM95.0146 117.356C95.415 116.865 95.9359 116.619 96.5771 116.619C97.6937 116.619 98.2568 117.249 98.2666 118.509V122H97.3633V118.504C97.36 118.123 97.2721 117.841 97.0996 117.659C96.9303 117.477 96.665 117.386 96.3037 117.386C96.0107 117.386 95.7536 117.464 95.5322 117.62C95.3109 117.776 95.1383 117.981 95.0146 118.235V122H94.1113V114.5H95.0146V117.356ZM100.601 122H99.6973V116.717H100.601V122ZM99.624 115.315C99.624 115.169 99.668 115.045 99.7559 114.944C99.847 114.843 99.9805 114.793 100.156 114.793C100.332 114.793 100.465 114.843 100.557 114.944C100.648 115.045 100.693 115.169 100.693 115.315C100.693 115.462 100.648 115.584 100.557 115.682C100.465 115.779 100.332 115.828 100.156 115.828C99.9805 115.828 99.847 115.779 99.7559 115.682C99.668 115.584 99.624 115.462 99.624 115.315ZM103.032 122H102.129V114.5H103.032V122ZM106.675 122.098C105.959 122.098 105.376 121.863 104.927 121.395C104.478 120.923 104.253 120.293 104.253 119.505V119.339C104.253 118.815 104.352 118.348 104.551 117.938C104.753 117.524 105.033 117.202 105.391 116.971C105.752 116.736 106.143 116.619 106.562 116.619C107.249 116.619 107.783 116.845 108.164 117.298C108.545 117.75 108.735 118.398 108.735 119.241V119.617H105.156C105.169 120.138 105.321 120.56 105.61 120.882C105.903 121.201 106.274 121.36 106.724 121.36C107.043 121.36 107.313 121.295 107.534 121.165C107.756 121.035 107.949 120.862 108.115 120.647L108.667 121.077C108.224 121.757 107.56 122.098 106.675 122.098ZM106.562 117.361C106.198 117.361 105.892 117.495 105.645 117.762C105.397 118.025 105.244 118.396 105.186 118.875H107.832V118.807C107.806 118.348 107.682 117.993 107.461 117.742C107.24 117.488 106.94 117.361 106.562 117.361ZM117.656 121.067C117.415 121.412 117.078 121.671 116.646 121.844C116.216 122.013 115.715 122.098 115.142 122.098C114.562 122.098 114.048 121.963 113.599 121.692C113.149 121.419 112.801 121.032 112.554 120.53C112.31 120.029 112.184 119.448 112.178 118.787V118.167C112.178 117.096 112.427 116.266 112.925 115.677C113.426 115.088 114.129 114.793 115.034 114.793C115.776 114.793 116.374 114.983 116.826 115.364C117.279 115.742 117.555 116.279 117.656 116.976H116.719C116.543 116.035 115.983 115.564 115.039 115.564C114.411 115.564 113.934 115.786 113.608 116.229C113.286 116.668 113.123 117.306 113.12 118.143V118.724C113.12 119.521 113.302 120.156 113.667 120.628C114.032 121.097 114.525 121.331 115.146 121.331C115.498 121.331 115.806 121.292 116.069 121.214C116.333 121.136 116.551 121.004 116.724 120.818V119.222H115.078V118.46H117.656V121.067ZM122.344 122C122.292 121.896 122.249 121.71 122.217 121.443C121.797 121.88 121.296 122.098 120.713 122.098C120.192 122.098 119.764 121.951 119.429 121.658C119.097 121.362 118.931 120.988 118.931 120.535C118.931 119.985 119.139 119.559 119.556 119.256C119.976 118.95 120.565 118.797 121.323 118.797H122.202V118.382C122.202 118.066 122.108 117.815 121.919 117.63C121.73 117.441 121.452 117.347 121.084 117.347C120.762 117.347 120.492 117.428 120.273 117.591C120.055 117.754 119.946 117.951 119.946 118.182H119.038C119.038 117.918 119.131 117.664 119.316 117.42C119.505 117.173 119.759 116.977 120.078 116.834C120.4 116.691 120.754 116.619 121.138 116.619C121.746 116.619 122.223 116.772 122.568 117.078C122.913 117.381 123.092 117.799 123.105 118.333V120.765C123.105 121.25 123.167 121.635 123.291 121.922V122H122.344ZM120.845 121.312C121.128 121.312 121.396 121.238 121.65 121.092C121.904 120.945 122.088 120.755 122.202 120.521V119.437H121.494C120.387 119.437 119.834 119.76 119.834 120.408C119.834 120.691 119.928 120.913 120.117 121.072C120.306 121.232 120.549 121.312 120.845 121.312ZM127.783 121.478C127.432 121.891 126.916 122.098 126.235 122.098C125.672 122.098 125.243 121.935 124.946 121.609C124.653 121.281 124.505 120.796 124.502 120.154V116.717H125.405V120.13C125.405 120.931 125.731 121.331 126.382 121.331C127.072 121.331 127.531 121.074 127.759 120.56V116.717H128.662V122H127.803L127.783 121.478ZM133.115 120.599C133.115 120.354 133.022 120.166 132.837 120.032C132.655 119.896 132.334 119.778 131.875 119.681C131.419 119.583 131.056 119.466 130.786 119.329C130.519 119.192 130.321 119.03 130.19 118.841C130.063 118.652 130 118.427 130 118.167C130 117.734 130.182 117.368 130.547 117.068C130.915 116.769 131.383 116.619 131.953 116.619C132.552 116.619 133.037 116.774 133.408 117.083C133.783 117.392 133.97 117.788 133.97 118.27H133.062C133.062 118.022 132.956 117.809 132.744 117.63C132.536 117.451 132.272 117.361 131.953 117.361C131.624 117.361 131.367 117.433 131.182 117.576C130.996 117.719 130.903 117.907 130.903 118.138C130.903 118.356 130.99 118.52 131.162 118.631C131.335 118.742 131.646 118.847 132.095 118.948C132.547 119.049 132.913 119.17 133.193 119.31C133.473 119.45 133.68 119.619 133.813 119.817C133.95 120.013 134.019 120.252 134.019 120.535C134.019 121.007 133.83 121.386 133.452 121.673C133.075 121.956 132.585 122.098 131.982 122.098C131.559 122.098 131.185 122.023 130.859 121.873C130.534 121.723 130.278 121.515 130.093 121.248C129.91 120.978 129.819 120.687 129.819 120.374H130.723C130.739 120.677 130.859 120.918 131.084 121.097C131.312 121.272 131.611 121.36 131.982 121.36C132.324 121.36 132.598 121.292 132.803 121.155C133.011 121.015 133.115 120.83 133.115 120.599ZM138.271 120.599C138.271 120.354 138.179 120.166 137.993 120.032C137.811 119.896 137.49 119.778 137.031 119.681C136.576 119.583 136.213 119.466 135.942 119.329C135.675 119.192 135.477 119.03 135.347 118.841C135.22 118.652 135.156 118.427 135.156 118.167C135.156 117.734 135.339 117.368 135.703 117.068C136.071 116.769 136.54 116.619 137.109 116.619C137.708 116.619 138.193 116.774 138.564 117.083C138.939 117.392 139.126 117.788 139.126 118.27H138.218C138.218 118.022 138.112 117.809 137.9 117.63C137.692 117.451 137.428 117.361 137.109 117.361C136.781 117.361 136.523 117.433 136.338 117.576C136.152 117.719 136.06 117.907 136.06 118.138C136.06 118.356 136.146 118.52 136.318 118.631C136.491 118.742 136.802 118.847 137.251 118.948C137.703 119.049 138.07 119.17 138.35 119.31C138.63 119.45 138.836 119.619 138.97 119.817C139.106 120.013 139.175 120.252 139.175 120.535C139.175 121.007 138.986 121.386 138.608 121.673C138.231 121.956 137.741 122.098 137.139 122.098C136.715 122.098 136.341 122.023 136.016 121.873C135.69 121.723 135.435 121.515 135.249 121.248C135.067 120.978 134.976 120.687 134.976 120.374H135.879C135.895 120.677 136.016 120.918 136.24 121.097C136.468 121.272 136.768 121.36 137.139 121.36C137.48 121.36 137.754 121.292 137.959 121.155C138.167 121.015 138.271 120.83 138.271 120.599ZM143.472 114.891H144.414V119.925C144.414 120.605 144.209 121.137 143.799 121.521C143.392 121.906 142.848 122.098 142.168 122.098C141.462 122.098 140.911 121.917 140.518 121.556C140.124 121.194 139.927 120.688 139.927 120.037H140.864C140.864 120.444 140.975 120.761 141.196 120.989C141.421 121.217 141.745 121.331 142.168 121.331C142.555 121.331 142.868 121.209 143.105 120.965C143.346 120.721 143.468 120.379 143.472 119.939V114.891ZM145.63 119.31C145.63 118.792 145.731 118.326 145.933 117.913C146.138 117.5 146.421 117.181 146.782 116.956C147.147 116.731 147.562 116.619 148.027 116.619C148.747 116.619 149.328 116.868 149.771 117.366C150.216 117.864 150.439 118.527 150.439 119.354V119.417C150.439 119.931 150.34 120.394 150.142 120.804C149.946 121.211 149.665 121.528 149.297 121.756C148.932 121.984 148.512 122.098 148.037 122.098C147.321 122.098 146.74 121.849 146.294 121.351C145.851 120.853 145.63 120.193 145.63 119.373V119.31ZM146.538 119.417C146.538 120.003 146.673 120.473 146.943 120.828C147.217 121.183 147.581 121.36 148.037 121.36C148.496 121.36 148.861 121.181 149.131 120.823C149.401 120.462 149.536 119.957 149.536 119.31C149.536 118.73 149.398 118.261 149.121 117.903C148.848 117.542 148.483 117.361 148.027 117.361C147.581 117.361 147.222 117.539 146.948 117.894C146.675 118.248 146.538 118.756 146.538 119.417ZM154.126 117.527C153.989 117.505 153.841 117.493 153.682 117.493C153.089 117.493 152.687 117.745 152.476 118.25V122H151.572V116.717H152.451L152.466 117.327C152.762 116.855 153.182 116.619 153.726 116.619C153.901 116.619 154.035 116.642 154.126 116.688V117.527ZM154.644 119.314C154.644 118.504 154.836 117.853 155.22 117.361C155.604 116.867 156.107 116.619 156.729 116.619C157.347 116.619 157.837 116.831 158.198 117.254V114.5H159.102V122H158.271L158.228 121.434C157.866 121.876 157.363 122.098 156.719 122.098C156.107 122.098 155.607 121.847 155.22 121.346C154.836 120.844 154.644 120.19 154.644 119.383V119.314ZM155.547 119.417C155.547 120.016 155.671 120.485 155.918 120.823C156.165 121.162 156.507 121.331 156.943 121.331C157.516 121.331 157.935 121.074 158.198 120.56V118.133C157.928 117.635 157.513 117.386 156.953 117.386C156.51 117.386 156.165 117.557 155.918 117.898C155.671 118.24 155.547 118.746 155.547 119.417ZM163.77 122C163.717 121.896 163.675 121.71 163.643 121.443C163.223 121.88 162.721 122.098 162.139 122.098C161.618 122.098 161.19 121.951 160.854 121.658C160.522 121.362 160.356 120.988 160.356 120.535C160.356 119.985 160.565 119.559 160.981 119.256C161.401 118.95 161.991 118.797 162.749 118.797H163.628V118.382C163.628 118.066 163.534 117.815 163.345 117.63C163.156 117.441 162.878 117.347 162.51 117.347C162.188 117.347 161.917 117.428 161.699 117.591C161.481 117.754 161.372 117.951 161.372 118.182H160.464C160.464 117.918 160.557 117.664 160.742 117.42C160.931 117.173 161.185 116.977 161.504 116.834C161.826 116.691 162.179 116.619 162.563 116.619C163.172 116.619 163.649 116.772 163.994 117.078C164.339 117.381 164.518 117.799 164.531 118.333V120.765C164.531 121.25 164.593 121.635 164.717 121.922V122H163.77ZM162.271 121.312C162.554 121.312 162.822 121.238 163.076 121.092C163.33 120.945 163.514 120.755 163.628 120.521V119.437H162.92C161.813 119.437 161.26 119.76 161.26 120.408C161.26 120.691 161.354 120.913 161.543 121.072C161.732 121.232 161.974 121.312 162.271 121.312ZM166.802 116.717L166.831 117.381C167.235 116.873 167.762 116.619 168.413 116.619C169.53 116.619 170.093 117.249 170.103 118.509V122H169.199V118.504C169.196 118.123 169.108 117.841 168.936 117.659C168.766 117.477 168.501 117.386 168.14 117.386C167.847 117.386 167.59 117.464 167.368 117.62C167.147 117.776 166.974 117.981 166.851 118.235V122H165.947V116.717H166.802ZM178.105 118.714H175.024V121.233H178.604V122H174.087V114.891H178.555V115.662H175.024V117.947H178.105V118.714ZM180.61 122H179.707V114.5H180.61V122ZM183.042 122H182.139V116.717H183.042V122ZM182.065 115.315C182.065 115.169 182.109 115.045 182.197 114.944C182.288 114.843 182.422 114.793 182.598 114.793C182.773 114.793 182.907 114.843 182.998 114.944C183.089 115.045 183.135 115.169 183.135 115.315C183.135 115.462 183.089 115.584 182.998 115.682C182.907 115.779 182.773 115.828 182.598 115.828C182.422 115.828 182.288 115.779 182.197 115.682C182.109 115.584 182.065 115.462 182.065 115.315ZM185.342 116.717L185.366 117.303C185.754 116.847 186.276 116.619 186.934 116.619C187.673 116.619 188.175 116.902 188.442 117.469C188.618 117.215 188.846 117.01 189.126 116.854C189.409 116.697 189.743 116.619 190.127 116.619C191.286 116.619 191.875 117.233 191.895 118.46V122H190.991V118.514C190.991 118.136 190.905 117.854 190.732 117.669C190.56 117.48 190.27 117.386 189.863 117.386C189.528 117.386 189.25 117.487 189.028 117.688C188.807 117.887 188.678 118.156 188.643 118.494V122H187.734V118.538C187.734 117.77 187.358 117.386 186.606 117.386C186.014 117.386 185.609 117.638 185.391 118.143V122H184.487V116.717H185.342ZM194.243 122H193.34V116.717H194.243V122ZM193.267 115.315C193.267 115.169 193.311 115.045 193.398 114.944C193.49 114.843 193.623 114.793 193.799 114.793C193.975 114.793 194.108 114.843 194.199 114.944C194.29 115.045 194.336 115.169 194.336 115.315C194.336 115.462 194.29 115.584 194.199 115.682C194.108 115.779 193.975 115.828 193.799 115.828C193.623 115.828 193.49 115.779 193.398 115.682C193.311 115.584 193.267 115.462 193.267 115.315ZM196.548 116.717L196.577 117.381C196.981 116.873 197.508 116.619 198.159 116.619C199.276 116.619 199.839 117.249 199.849 118.509V122H198.945V118.504C198.942 118.123 198.854 117.841 198.682 117.659C198.512 117.477 198.247 117.386 197.886 117.386C197.593 117.386 197.336 117.464 197.114 117.62C196.893 117.776 196.72 117.981 196.597 118.235V122H195.693V116.717H196.548ZM204.473 122C204.421 121.896 204.378 121.71 204.346 121.443C203.926 121.88 203.424 122.098 202.842 122.098C202.321 122.098 201.893 121.951 201.558 121.658C201.226 121.362 201.06 120.988 201.06 120.535C201.06 119.985 201.268 119.559 201.685 119.256C202.104 118.95 202.694 118.797 203.452 118.797H204.331V118.382C204.331 118.066 204.237 117.815 204.048 117.63C203.859 117.441 203.581 117.347 203.213 117.347C202.891 117.347 202.62 117.428 202.402 117.591C202.184 117.754 202.075 117.951 202.075 118.182H201.167C201.167 117.918 201.26 117.664 201.445 117.42C201.634 117.173 201.888 116.977 202.207 116.834C202.529 116.691 202.882 116.619 203.267 116.619C203.875 116.619 204.352 116.772 204.697 117.078C205.042 117.381 205.221 117.799 205.234 118.333V120.765C205.234 121.25 205.296 121.635 205.42 121.922V122H204.473ZM202.974 121.312C203.257 121.312 203.525 121.238 203.779 121.092C204.033 120.945 204.217 120.755 204.331 120.521V119.437H203.623C202.516 119.437 201.963 119.76 201.963 120.408C201.963 120.691 202.057 120.913 202.246 121.072C202.435 121.232 202.677 121.312 202.974 121.312ZM207.876 115.438V116.717H208.862V117.415H207.876V120.691C207.876 120.903 207.92 121.062 208.008 121.17C208.096 121.274 208.245 121.326 208.457 121.326C208.561 121.326 208.704 121.307 208.887 121.268V122C208.649 122.065 208.418 122.098 208.193 122.098C207.79 122.098 207.485 121.976 207.28 121.731C207.075 121.487 206.973 121.141 206.973 120.691V117.415H206.011V116.717H206.973V115.438H207.876ZM210.903 122H210V116.717H210.903V122ZM209.927 115.315C209.927 115.169 209.971 115.045 210.059 114.944C210.15 114.843 210.283 114.793 210.459 114.793C210.635 114.793 210.768 114.843 210.859 114.944C210.951 115.045 210.996 115.169 210.996 115.315C210.996 115.462 210.951 115.584 210.859 115.682C210.768 115.779 210.635 115.828 210.459 115.828C210.283 115.828 210.15 115.779 210.059 115.682C209.971 115.584 209.927 115.462 209.927 115.315ZM212.114 119.31C212.114 118.792 212.215 118.326 212.417 117.913C212.622 117.5 212.905 117.181 213.267 116.956C213.631 116.731 214.046 116.619 214.512 116.619C215.231 116.619 215.812 116.868 216.255 117.366C216.701 117.864 216.924 118.527 216.924 119.354V119.417C216.924 119.931 216.825 120.394 216.626 120.804C216.431 121.211 216.149 121.528 215.781 121.756C215.417 121.984 214.997 122.098 214.521 122.098C213.805 122.098 213.224 121.849 212.778 121.351C212.336 120.853 212.114 120.193 212.114 119.373V119.31ZM213.022 119.417C213.022 120.003 213.158 120.473 213.428 120.828C213.701 121.183 214.066 121.36 214.521 121.36C214.98 121.36 215.345 121.181 215.615 120.823C215.885 120.462 216.021 119.957 216.021 119.31C216.021 118.73 215.882 118.261 215.605 117.903C215.332 117.542 214.967 117.361 214.512 117.361C214.066 117.361 213.706 117.539 213.433 117.894C213.159 118.248 213.022 118.756 213.022 119.417ZM218.911 116.717L218.94 117.381C219.344 116.873 219.871 116.619 220.522 116.619C221.639 116.619 222.202 117.249 222.212 118.509V122H221.309V118.504C221.305 118.123 221.217 117.841 221.045 117.659C220.876 117.477 220.61 117.386 220.249 117.386C219.956 117.386 219.699 117.464 219.478 117.62C219.256 117.776 219.084 117.981 218.96 118.235V122H218.057V116.717H218.911ZM227.28 115.438V116.717H228.267V117.415H227.28V120.691C227.28 120.903 227.324 121.062 227.412 121.17C227.5 121.274 227.65 121.326 227.861 121.326C227.965 121.326 228.109 121.307 228.291 121.268V122C228.053 122.065 227.822 122.098 227.598 122.098C227.194 122.098 226.89 121.976 226.685 121.731C226.479 121.487 226.377 121.141 226.377 120.691V117.415H225.415V116.717H226.377V115.438H227.28ZM230.229 117.356C230.63 116.865 231.151 116.619 231.792 116.619C232.909 116.619 233.472 117.249 233.481 118.509V122H232.578V118.504C232.575 118.123 232.487 117.841 232.314 117.659C232.145 117.477 231.88 117.386 231.519 117.386C231.226 117.386 230.968 117.464 230.747 117.62C230.526 117.776 230.353 117.981 230.229 118.235V122H229.326V114.5H230.229V117.356ZM235.815 122H234.912V116.717H235.815V122ZM234.839 115.315C234.839 115.169 234.883 115.045 234.971 114.944C235.062 114.843 235.195 114.793 235.371 114.793C235.547 114.793 235.68 114.843 235.771 114.944C235.863 115.045 235.908 115.169 235.908 115.315C235.908 115.462 235.863 115.584 235.771 115.682C235.68 115.779 235.547 115.828 235.371 115.828C235.195 115.828 235.062 115.779 234.971 115.682C234.883 115.584 234.839 115.462 234.839 115.315ZM238.12 116.717L238.149 117.381C238.553 116.873 239.08 116.619 239.731 116.619C240.848 116.619 241.411 117.249 241.421 118.509V122H240.518V118.504C240.514 118.123 240.426 117.841 240.254 117.659C240.085 117.477 239.819 117.386 239.458 117.386C239.165 117.386 238.908 117.464 238.687 117.62C238.465 117.776 238.293 117.981 238.169 118.235V122H237.266V116.717H238.12ZM242.568 119.314C242.568 118.491 242.759 117.837 243.14 117.352C243.521 116.863 244.025 116.619 244.653 116.619C245.298 116.619 245.801 116.847 246.162 117.303L246.206 116.717H247.031V121.873C247.031 122.557 246.828 123.095 246.421 123.489C246.017 123.883 245.474 124.08 244.79 124.08C244.409 124.08 244.036 123.999 243.672 123.836C243.307 123.673 243.029 123.45 242.837 123.167L243.306 122.625C243.693 123.104 244.167 123.343 244.727 123.343C245.166 123.343 245.508 123.219 245.752 122.972C245.999 122.724 246.123 122.376 246.123 121.927V121.473C245.762 121.889 245.269 122.098 244.644 122.098C244.025 122.098 243.524 121.849 243.14 121.351C242.759 120.853 242.568 120.174 242.568 119.314ZM243.477 119.417C243.477 120.013 243.599 120.481 243.843 120.823C244.087 121.162 244.429 121.331 244.868 121.331C245.438 121.331 245.856 121.072 246.123 120.555V118.143C245.846 117.638 245.431 117.386 244.878 117.386C244.438 117.386 244.095 117.557 243.848 117.898C243.6 118.24 243.477 118.746 243.477 119.417ZM251.475 120.599C251.475 120.354 251.382 120.166 251.196 120.032C251.014 119.896 250.693 119.778 250.234 119.681C249.779 119.583 249.416 119.466 249.146 119.329C248.879 119.192 248.68 119.03 248.55 118.841C248.423 118.652 248.359 118.427 248.359 118.167C248.359 117.734 248.542 117.368 248.906 117.068C249.274 116.769 249.743 116.619 250.312 116.619C250.911 116.619 251.396 116.774 251.768 117.083C252.142 117.392 252.329 117.788 252.329 118.27H251.421C251.421 118.022 251.315 117.809 251.104 117.63C250.895 117.451 250.632 117.361 250.312 117.361C249.984 117.361 249.727 117.433 249.541 117.576C249.355 117.719 249.263 117.907 249.263 118.138C249.263 118.356 249.349 118.52 249.521 118.631C249.694 118.742 250.005 118.847 250.454 118.948C250.907 119.049 251.273 119.17 251.553 119.31C251.833 119.45 252.039 119.619 252.173 119.817C252.31 120.013 252.378 120.252 252.378 120.535C252.378 121.007 252.189 121.386 251.812 121.673C251.434 121.956 250.944 122.098 250.342 122.098C249.919 122.098 249.544 122.023 249.219 121.873C248.893 121.723 248.638 121.515 248.452 121.248C248.27 120.978 248.179 120.687 248.179 120.374H249.082C249.098 120.677 249.219 120.918 249.443 121.097C249.671 121.272 249.971 121.36 250.342 121.36C250.684 121.36 250.957 121.292 251.162 121.155C251.37 121.015 251.475 120.83 251.475 120.599ZM255.64 119.163C255.64 119.889 255.544 120.586 255.352 121.253C255.163 121.917 254.871 122.531 254.478 123.094C254.087 123.657 253.677 124.057 253.247 124.295L253.057 123.743C253.558 123.359 253.96 122.763 254.263 121.956C254.569 121.146 254.725 120.247 254.731 119.261V119.104C254.731 118.421 254.66 117.786 254.517 117.2C254.373 116.611 254.173 116.084 253.916 115.618C253.662 115.153 253.376 114.79 253.057 114.529L253.247 113.978C253.677 114.215 254.085 114.612 254.473 115.169C254.863 115.726 255.155 116.339 255.347 117.01C255.542 117.68 255.64 118.398 255.64 119.163Z" fill="#00FFFF"/>
<path d="M121.267 3.7168L121.296 4.38086C121.7 3.87305 122.227 3.61914 122.878 3.61914C123.994 3.61914 124.558 4.24902 124.567 5.50879V9H123.664V5.50391C123.661 5.12305 123.573 4.84147 123.4 4.65918C123.231 4.47689 122.966 4.38574 122.604 4.38574C122.312 4.38574 122.054 4.46387 121.833 4.62012C121.612 4.77637 121.439 4.98145 121.315 5.23535V9H120.412V3.7168H121.267ZM128.122 9.09766C127.406 9.09766 126.823 8.86328 126.374 8.39453C125.925 7.92253 125.7 7.29264 125.7 6.50488V6.33887C125.7 5.81478 125.799 5.34766 125.998 4.9375C126.2 4.52409 126.48 4.20182 126.838 3.9707C127.199 3.73633 127.59 3.61914 128.01 3.61914C128.697 3.61914 129.23 3.84538 129.611 4.29785C129.992 4.75033 130.183 5.39811 130.183 6.24121V6.61719H126.604C126.617 7.13802 126.768 7.55957 127.058 7.88184C127.351 8.20085 127.722 8.36035 128.171 8.36035C128.49 8.36035 128.76 8.29525 128.981 8.16504C129.203 8.03483 129.396 7.8623 129.562 7.64746L130.114 8.07715C129.672 8.75749 129.007 9.09766 128.122 9.09766ZM128.01 4.36133C127.645 4.36133 127.339 4.49479 127.092 4.76172C126.844 5.02539 126.691 5.39648 126.633 5.875H129.279V5.80664C129.253 5.34766 129.13 4.99284 128.908 4.74219C128.687 4.48828 128.387 4.36133 128.01 4.36133ZM132.458 2.4375V3.7168H133.444V4.41504H132.458V7.69141C132.458 7.90299 132.502 8.0625 132.59 8.16992C132.678 8.27409 132.827 8.32617 133.039 8.32617C133.143 8.32617 133.286 8.30664 133.469 8.26758V9C133.231 9.0651 133 9.09766 132.775 9.09766C132.372 9.09766 132.067 8.97559 131.862 8.73145C131.657 8.4873 131.555 8.14062 131.555 7.69141V4.41504H130.593V3.7168H131.555V2.4375H132.458ZM139.538 4.52734C139.401 4.50456 139.253 4.49316 139.094 4.49316C138.501 4.49316 138.099 4.74544 137.888 5.25V9H136.984V3.7168H137.863L137.878 4.32715C138.174 3.85514 138.594 3.61914 139.138 3.61914C139.313 3.61914 139.447 3.64193 139.538 3.6875V4.52734ZM142.468 9.09766C141.752 9.09766 141.169 8.86328 140.72 8.39453C140.271 7.92253 140.046 7.29264 140.046 6.50488V6.33887C140.046 5.81478 140.145 5.34766 140.344 4.9375C140.546 4.52409 140.826 4.20182 141.184 3.9707C141.545 3.73633 141.936 3.61914 142.355 3.61914C143.042 3.61914 143.576 3.84538 143.957 4.29785C144.338 4.75033 144.528 5.39811 144.528 6.24121V6.61719H140.949C140.962 7.13802 141.114 7.55957 141.403 7.88184C141.696 8.20085 142.067 8.36035 142.517 8.36035C142.836 8.36035 143.106 8.29525 143.327 8.16504C143.549 8.03483 143.742 7.8623 143.908 7.64746L144.46 8.07715C144.017 8.75749 143.353 9.09766 142.468 9.09766ZM142.355 4.36133C141.991 4.36133 141.685 4.49479 141.438 4.76172C141.19 5.02539 141.037 5.39648 140.979 5.875H143.625V5.80664C143.599 5.34766 143.475 4.99284 143.254 4.74219C143.033 4.48828 142.733 4.36133 142.355 4.36133ZM148.654 7.59863C148.654 7.35449 148.562 7.16569 148.376 7.03223C148.194 6.89551 147.873 6.77832 147.414 6.68066C146.958 6.58301 146.595 6.46582 146.325 6.3291C146.058 6.19238 145.86 6.02962 145.729 5.84082C145.603 5.65202 145.539 5.42741 145.539 5.16699C145.539 4.73405 145.721 4.36784 146.086 4.06836C146.454 3.76888 146.923 3.61914 147.492 3.61914C148.091 3.61914 148.576 3.77376 148.947 4.08301C149.322 4.39225 149.509 4.78776 149.509 5.26953H148.601C148.601 5.02214 148.495 4.80892 148.283 4.62988C148.075 4.45085 147.811 4.36133 147.492 4.36133C147.163 4.36133 146.906 4.43294 146.721 4.57617C146.535 4.7194 146.442 4.90658 146.442 5.1377C146.442 5.35579 146.529 5.52018 146.701 5.63086C146.874 5.74154 147.185 5.84733 147.634 5.94824C148.086 6.04915 148.452 6.1696 148.732 6.30957C149.012 6.44954 149.219 6.61882 149.353 6.81738C149.489 7.0127 149.558 7.25195 149.558 7.53516C149.558 8.00716 149.369 8.38639 148.991 8.67285C148.614 8.95605 148.124 9.09766 147.521 9.09766C147.098 9.09766 146.724 9.02279 146.398 8.87305C146.073 8.72331 145.817 8.51497 145.632 8.24805C145.45 7.97786 145.358 7.68652 145.358 7.37402H146.262C146.278 7.67676 146.398 7.91764 146.623 8.09668C146.851 8.27246 147.15 8.36035 147.521 8.36035C147.863 8.36035 148.137 8.29199 148.342 8.15527C148.55 8.0153 148.654 7.82975 148.654 7.59863ZM153.996 8.47754C153.645 8.89095 153.129 9.09766 152.448 9.09766C151.885 9.09766 151.455 8.9349 151.159 8.60938C150.866 8.2806 150.718 7.79557 150.715 7.1543V3.7168H151.618V7.12988C151.618 7.93066 151.944 8.33105 152.595 8.33105C153.285 8.33105 153.744 8.07389 153.972 7.55957V3.7168H154.875V9H154.016L153.996 8.47754ZM157.233 9H156.33V1.5H157.233V9ZM159.909 2.4375V3.7168H160.896V4.41504H159.909V7.69141C159.909 7.90299 159.953 8.0625 160.041 8.16992C160.129 8.27409 160.279 8.32617 160.49 8.32617C160.594 8.32617 160.738 8.30664 160.92 8.26758V9C160.682 9.0651 160.451 9.09766 160.227 9.09766C159.823 9.09766 159.519 8.97559 159.313 8.73145C159.108 8.4873 159.006 8.14062 159.006 7.69141V4.41504H158.044V3.7168H159.006V2.4375H159.909Z" fill="#00FFFF"/>
</svg>
