<svg width="274" height="120" viewBox="0 0 137 60" fill="none" xmlns="http://www.w3.org/2000/svg">
<path d="M15.1533 13.4835C15.1766 13.4135 15.2467 13.2501 15.2467 13.1567C15.2467 13.0399 15.1533 12.9232 15.0132 12.9232C14.9198 12.9232 14.8731 12.9465 14.803 13.0166C14.7563 13.0399 14.7563 13.0866 14.5462 13.5536C13.1686 16.8224 12.1646 18.2233 8.42886 18.2233H5.01996C4.69308 18.2233 4.64638 18.2233 4.50629 18.2C4.24945 18.1766 4.22611 18.1299 4.22611 17.9431C4.22611 17.7797 4.2728 17.6396 4.3195 17.4295L5.93056 10.9852H8.24207C10.0633 10.9852 10.2034 11.3822 10.2034 12.0826C10.2034 12.3161 10.2034 12.5262 10.0399 13.2267C9.99322 13.3201 9.96987 13.4135 9.96987 13.4835C9.96987 13.647 10.0866 13.717 10.2267 13.717C10.4368 13.717 10.4602 13.5536 10.5536 13.2267L11.8845 7.80982C11.8845 7.69308 11.7911 7.57633 11.651 7.57633C11.4408 7.57633 11.4175 7.66973 11.3241 7.99661C10.8571 9.79446 10.3901 10.3081 8.31212 10.3081H6.094L7.54161 4.56436C7.75175 3.74716 7.79845 3.67711 8.75574 3.67711H12.0946C14.9665 3.67711 15.5502 4.44761 15.5502 6.22211C15.5502 6.24546 15.5502 6.89922 15.4568 7.66973C15.4335 7.76312 15.4101 7.90322 15.4101 7.94991C15.4101 8.1367 15.5269 8.20675 15.6669 8.20675C15.8304 8.20675 15.9238 8.11335 15.9705 7.69308L16.4608 3.60707C16.4608 3.53702 16.5075 3.30353 16.5075 3.25683C16.5075 3 16.2974 3 15.8771 3H4.48294C4.03932 3 3.80583 3 3.80583 3.42028C3.80583 3.67711 3.96927 3.67711 4.3662 3.67711C5.81381 3.67711 5.81381 3.84055 5.81381 4.09739C5.81381 4.21413 5.79046 4.30752 5.72042 4.56436L2.56835 17.1726C2.35821 17.9898 2.31152 18.2233 0.677111 18.2233C0.233486 18.2233 0 18.2233 0 18.6436C0 18.9004 0.140092 18.9004 0.607065 18.9004H12.3281C12.8418 18.9004 12.8651 18.8771 13.0285 18.5035L15.1533 13.4835Z" fill="#00FFFF"/>
<path d="M30.5022 23.5163V22.6991H28.3074V1.03156H30.5022V0.214355H27.4902V23.5163H30.5022Z" fill="#00FFFF"/>
<path d="M34.8131 15.1109C33.9959 16.4884 33.2021 16.9554 32.0813 17.0254C31.8245 17.0488 31.6377 17.0488 31.6377 17.4691C31.6377 17.6092 31.7544 17.7026 31.9179 17.7026C32.3382 17.7026 33.3888 17.6559 33.8091 17.6559C34.4862 17.6559 35.2334 17.7026 35.8871 17.7026C36.0272 17.7026 36.3074 17.7026 36.3074 17.2589C36.3074 17.0488 36.1206 17.0254 35.9805 17.0254C35.4435 16.9787 34.9999 16.792 34.9999 16.2316C34.9999 15.9047 35.14 15.6479 35.4435 15.1342L37.218 12.1923H43.1719C43.1953 12.4024 43.1953 12.5892 43.2186 12.7993C43.2887 13.4064 43.5689 15.8347 43.5689 16.2783C43.5689 16.9787 42.3781 17.0254 42.0045 17.0254C41.7477 17.0254 41.4908 17.0254 41.4908 17.4457C41.4908 17.7026 41.701 17.7026 41.8411 17.7026C42.238 17.7026 42.705 17.6559 43.1019 17.6559H44.4328C45.857 17.6559 46.8844 17.7026 46.9077 17.7026C47.0712 17.7026 47.328 17.7026 47.328 17.2589C47.328 17.0254 47.1178 17.0254 46.7676 17.0254C45.4834 17.0254 45.4601 16.8153 45.39 16.1148L43.9658 1.54529C43.9191 1.07831 43.8257 1.03162 43.5689 1.03162C43.3354 1.03162 43.1953 1.07831 42.9851 1.42854L34.8131 15.1109ZM37.6149 11.5152L42.308 3.67001L43.1019 11.5152H37.6149Z" fill="#00FFFF"/>
<path d="M56.5754 3.48317C56.7856 2.66597 56.8323 2.43248 58.5367 2.43248C59.0504 2.43248 59.2372 2.43248 59.2372 1.98886C59.2372 1.75537 58.9803 1.75537 58.9103 1.75537C58.49 1.75537 57.9764 1.80207 57.5561 1.80207H54.6842C54.2172 1.80207 53.6802 1.75537 53.2132 1.75537C53.0264 1.75537 52.7696 1.75537 52.7696 2.199C52.7696 2.43248 52.9564 2.43248 53.4234 2.43248C54.871 2.43248 54.871 2.61927 54.871 2.87611C54.871 3.03955 54.8243 3.17964 54.7776 3.38978L51.6255 15.9747C51.4154 16.7919 51.3687 17.0254 49.6642 17.0254C49.1506 17.0254 48.9404 17.0254 48.9404 17.469C48.9404 17.7025 49.1739 17.7025 49.2907 17.7025C49.7109 17.7025 50.2246 17.6558 50.6449 17.6558H53.5168C53.9837 17.6558 54.4974 17.7025 54.9644 17.7025C55.1512 17.7025 55.4314 17.7025 55.4314 17.2822C55.4314 17.0254 55.2913 17.0254 54.7776 17.0254C53.33 17.0254 53.33 16.8386 53.33 16.5584C53.33 16.5117 53.33 16.395 53.4234 16.0214L56.5754 3.48317Z" fill="#00FFFF"/>
<path d="M63.2405 0.214355H60.2285V1.03156H62.4233V22.6991H60.2285V23.5163H63.2405V0.214355Z" fill="#00FFFF"/>
<path d="M87.2292 10.2076C87.5794 10.2076 87.9296 10.2076 87.9296 9.81066C87.9296 9.39038 87.5327 9.39038 87.1358 9.39038H74.0839C73.687 9.39038 73.29 9.39038 73.29 9.81066C73.29 10.2076 73.6403 10.2076 73.9905 10.2076H87.2292ZM87.1358 14.3636C87.5327 14.3636 87.9296 14.3636 87.9296 13.9434C87.9296 13.5464 87.5794 13.5464 87.2292 13.5464H73.9905C73.6403 13.5464 73.29 13.5464 73.29 13.9434C73.29 14.3636 73.687 14.3636 74.0839 14.3636H87.1358Z" fill="#00FFFF"/>
<path d="M100.996 23.5163V22.6991H98.8016V1.03156H100.996V0.214355H97.9844V23.5163H100.996Z" fill="#00FFFF"/>
<path d="M109.93 3.48317C110.14 2.66597 110.187 2.43248 111.891 2.43248C112.405 2.43248 112.592 2.43248 112.592 1.98886C112.592 1.75537 112.335 1.75537 112.265 1.75537C111.845 1.75537 111.331 1.80207 110.911 1.80207H108.039C107.572 1.80207 107.035 1.75537 106.568 1.75537C106.381 1.75537 106.124 1.75537 106.124 2.199C106.124 2.43248 106.311 2.43248 106.778 2.43248C108.225 2.43248 108.225 2.61927 108.225 2.87611C108.225 3.03955 108.179 3.17964 108.132 3.38978L104.98 15.9747C104.77 16.7919 104.723 17.0254 103.019 17.0254C102.505 17.0254 102.295 17.0254 102.295 17.469C102.295 17.7025 102.528 17.7025 102.645 17.7025C103.065 17.7025 103.579 17.6558 103.999 17.6558H106.871C107.338 17.6558 107.852 17.7025 108.319 17.7025C108.506 17.7025 108.786 17.7025 108.786 17.2822C108.786 17.0254 108.646 17.0254 108.132 17.0254C106.684 17.0254 106.684 16.8386 106.684 16.5584C106.684 16.5117 106.684 16.395 106.778 16.0214L109.93 3.48317Z" fill="#00FFFF"/>
<path d="M123.853 12.1373C123.853 9.94253 124.973 8.0046 126.654 6.67372C127.098 6.34684 127.915 5.69308 127.915 4.22211C127.915 2.33087 126.491 1 123.736 1C121.401 1 120 2.61106 120 4.15207C120 5.06267 120.771 5.06266 120.841 5.06266C121.097 5.06266 121.681 4.89922 121.681 4.22211C121.681 3.6384 121.237 3.38156 120.841 3.38156C120.747 3.38156 120.63 3.40491 120.56 3.42826C121.051 1.9573 122.452 1.37358 123.689 1.37358C126.398 1.37358 126.421 3.24147 126.421 4.10537C126.421 5.52964 125.977 6.01996 125.534 6.48693C123.993 8.14469 123.432 10.3395 123.432 12.0439V12.9545C123.432 13.3514 123.432 13.4448 123.642 13.4448C123.853 13.4448 123.853 13.3514 123.853 12.9545V12.1373ZM124.6 16.4335C124.6 15.9198 124.179 15.4762 123.642 15.4762C123.129 15.4762 122.685 15.8964 122.685 16.4335C122.685 16.9471 123.105 17.3908 123.642 17.3908C124.156 17.3908 124.6 16.9705 124.6 16.4335Z" fill="#00FFFF"/>
<path d="M136.012 0H133V0.817202H135.195V22.4847H133V23.302H136.012V0Z" fill="#00FFFF"/>
<path d="M103.953 29.908L103.688 29.4843L103.688 29.4843L103.953 29.908ZM107.487 28.112C107.549 27.8429 107.381 27.5746 107.112 27.5127L102.726 26.5048C102.457 26.443 102.189 26.611 102.127 26.8801C102.065 27.1492 102.233 27.4176 102.502 27.4794L106.401 28.3753L105.505 32.2737C105.443 32.5428 105.611 32.8111 105.88 32.873C106.149 32.9348 106.418 32.7668 106.479 32.4977L107.487 28.112ZM104.219 30.3318L107.265 28.4238L106.735 27.5762L103.688 29.4843L104.219 30.3318ZM12.7081 27.4059C39.7859 46.8776 75.9523 48.034 104.219 30.3318L103.688 29.4843C75.7658 46.9708 40.0399 45.8286 13.2919 26.5941L12.7081 27.4059Z" fill="#00FFFF"/>
<path d="M41 28.5L57.5 42" stroke="#00FFFF"/>
<path d="M76.9191 54.2461C77.1162 54.2461 77.3133 54.2461 77.3133 54.0227C77.3133 53.7861 77.09 53.7861 76.8666 53.7861H69.521C69.2976 53.7861 69.0742 53.7861 69.0742 54.0227C69.0742 54.2461 69.2713 54.2461 69.4684 54.2461H76.9191ZM76.8666 56.5851C77.09 56.5851 77.3133 56.5851 77.3133 56.3485C77.3133 56.1251 77.1162 56.1251 76.9191 56.1251H69.4684C69.2713 56.1251 69.0742 56.1251 69.0742 56.3485C69.0742 56.5851 69.2976 56.5851 69.521 56.5851H76.8666Z" fill="#00FFFF"/>
<path d="M54.5282 56.8722C54.5414 56.8327 54.5808 56.7407 54.5808 56.6882C54.5808 56.6225 54.5282 56.5568 54.4494 56.5568C54.3968 56.5568 54.3705 56.5699 54.3311 56.6093C54.3048 56.6225 54.3048 56.6488 54.1866 56.9116C53.4113 58.7513 52.8462 59.5397 50.7437 59.5397H48.8252C48.6413 59.5397 48.615 59.5397 48.5361 59.5265C48.3916 59.5134 48.3784 59.4871 48.3784 59.382C48.3784 59.29 48.4047 59.2112 48.431 59.0929L49.3377 55.4661H50.6386C51.6636 55.4661 51.7424 55.6895 51.7424 56.0837C51.7424 56.2151 51.7424 56.3334 51.6504 56.7276C51.6242 56.7802 51.611 56.8327 51.611 56.8722C51.611 56.9641 51.6767 57.0036 51.7556 57.0036C51.8738 57.0036 51.887 56.9116 51.9395 56.7276L52.6885 53.679C52.6885 53.6133 52.636 53.5476 52.5571 53.5476C52.4389 53.5476 52.4257 53.6002 52.3732 53.7841C52.1104 54.7959 51.8475 55.085 50.678 55.085H49.4297L50.2444 51.8525C50.3627 51.3925 50.3889 51.3531 50.9277 51.3531H52.8068C54.4231 51.3531 54.7516 51.7868 54.7516 52.7854C54.7516 52.7986 54.7516 53.1665 54.699 53.6002C54.6859 53.6527 54.6728 53.7316 54.6728 53.7578C54.6728 53.863 54.7385 53.9024 54.8173 53.9024C54.9093 53.9024 54.9619 53.8498 54.9881 53.6133L55.2641 51.3137C55.2641 51.2743 55.2904 51.1429 55.2904 51.1166C55.2904 50.972 55.1721 50.972 54.9356 50.972H48.523C48.2733 50.972 48.1419 50.972 48.1419 51.2086C48.1419 51.3531 48.2339 51.3531 48.4573 51.3531C49.272 51.3531 49.272 51.4451 49.272 51.5897C49.272 51.6554 49.2589 51.7079 49.2194 51.8525L47.4455 58.9484C47.3272 59.4083 47.3009 59.5397 46.3811 59.5397C46.1314 59.5397 46 59.5397 46 59.7762C46 59.9208 46.0788 59.9208 46.3417 59.9208H52.9382C53.2273 59.9208 53.2404 59.9076 53.3324 59.6974L54.5282 56.8722Z" fill="#00FFFF"/>
<path d="M59.6055 58.3331C59.1456 59.1083 58.6988 59.3712 58.068 59.4106C57.9235 59.4237 57.8184 59.4237 57.8184 59.6602C57.8184 59.7391 57.8841 59.7917 57.976 59.7917C58.2126 59.7917 58.8039 59.7654 59.0404 59.7654C59.4215 59.7654 59.842 59.7917 60.2099 59.7917C60.2888 59.7917 60.4465 59.7917 60.4465 59.542C60.4465 59.4237 60.3413 59.4106 60.2625 59.4106C59.9603 59.3843 59.7106 59.2792 59.7106 58.9638C59.7106 58.7798 59.7894 58.6353 59.9603 58.3462L60.9589 56.6905H64.3098C64.3229 56.8087 64.3229 56.9139 64.3361 57.0321C64.3755 57.3738 64.5332 58.7404 64.5332 58.9901C64.5332 59.3843 63.863 59.4106 63.6528 59.4106C63.5082 59.4106 63.3637 59.4106 63.3637 59.6471C63.3637 59.7917 63.4819 59.7917 63.5608 59.7917C63.7842 59.7917 64.047 59.7654 64.2704 59.7654H65.0194C65.821 59.7654 66.3991 59.7917 66.4123 59.7917C66.5043 59.7917 66.6488 59.7917 66.6488 59.542C66.6488 59.4106 66.5305 59.4106 66.3334 59.4106C65.6107 59.4106 65.5976 59.2923 65.5581 58.8981L64.7566 50.6984C64.7303 50.4356 64.6777 50.4093 64.5332 50.4093C64.4018 50.4093 64.3229 50.4356 64.2047 50.6327L59.6055 58.3331ZM61.1823 56.3094L63.8236 51.8942L64.2704 56.3094H61.1823Z" fill="#00FFFF"/>
<path d="M83.502 51.9444C83.6203 51.4845 83.6466 51.3531 84.6058 51.3531C84.8949 51.3531 85.0001 51.3531 85.0001 51.1035C85.0001 50.972 84.8555 50.972 84.8161 50.972C84.5796 50.972 84.2905 50.9983 84.0539 50.9983H82.4377C82.1748 50.9983 81.8726 50.972 81.6098 50.972C81.5047 50.972 81.3601 50.972 81.3601 51.2217C81.3601 51.3531 81.4653 51.3531 81.7281 51.3531C82.5428 51.3531 82.5428 51.4582 82.5428 51.6028C82.5428 51.6948 82.5165 51.7736 82.4902 51.8919L80.7162 58.9746C80.598 59.4346 80.5717 59.566 79.6124 59.566C79.3233 59.566 79.2051 59.566 79.2051 59.8156C79.2051 59.947 79.3365 59.947 79.4022 59.947C79.6387 59.947 79.9278 59.9208 80.1643 59.9208H81.7806C82.0434 59.9208 82.3325 59.947 82.5953 59.947C82.7005 59.947 82.8582 59.947 82.8582 59.7105C82.8582 59.566 82.7793 59.566 82.4902 59.566C81.6755 59.566 81.6755 59.4608 81.6755 59.3032C81.6755 59.2769 81.6755 59.2112 81.7281 59.0009L83.502 51.9444Z" fill="#00FFFF"/>
<circle cx="57.8187" cy="55.4744" r="0.562797" fill="#00FFFF"/>
</svg>
