<svg width="153" height="27" viewBox="0 0 153 27" fill="none" xmlns="http://www.w3.org/2000/svg">
<path d="M15.1533 16.4835C15.1766 16.4135 15.2467 16.2501 15.2467 16.1567C15.2467 16.0399 15.1533 15.9232 15.0132 15.9232C14.9198 15.9232 14.8731 15.9465 14.803 16.0166C14.7563 16.0399 14.7563 16.0866 14.5462 16.5536C13.1686 19.8224 12.1646 21.2233 8.42886 21.2233H5.01996C4.69308 21.2233 4.64638 21.2233 4.50629 21.2C4.24945 21.1766 4.22611 21.1299 4.22611 20.9431C4.22611 20.7797 4.2728 20.6396 4.3195 20.4295L5.93056 13.9852H8.24207C10.0633 13.9852 10.2034 14.3822 10.2034 15.0826C10.2034 15.3161 10.2034 15.5262 10.0399 16.2267C9.99322 16.3201 9.96987 16.4135 9.96987 16.4835C9.96987 16.647 10.0866 16.717 10.2267 16.717C10.4368 16.717 10.4602 16.5536 10.5536 16.2267L11.8845 10.8098C11.8845 10.6931 11.7911 10.5763 11.651 10.5763C11.4408 10.5763 11.4175 10.6697 11.3241 10.9966C10.8571 12.7945 10.3901 13.3081 8.31212 13.3081H6.094L7.54161 7.56436C7.75175 6.74716 7.79845 6.67711 8.75574 6.67711H12.0946C14.9665 6.67711 15.5502 7.44761 15.5502 9.22211C15.5502 9.24546 15.5502 9.89922 15.4568 10.6697C15.4335 10.7631 15.4101 10.9032 15.4101 10.9499C15.4101 11.1367 15.5269 11.2067 15.6669 11.2067C15.8304 11.2067 15.9238 11.1134 15.9705 10.6931L16.4608 6.60707C16.4608 6.53702 16.5075 6.30353 16.5075 6.25683C16.5075 6 16.2974 6 15.8771 6H4.48294C4.03932 6 3.80583 6 3.80583 6.42028C3.80583 6.67711 3.96927 6.67711 4.3662 6.67711C5.81381 6.67711 5.81381 6.84055 5.81381 7.09739C5.81381 7.21413 5.79046 7.30752 5.72042 7.56436L2.56835 20.1726C2.35821 20.9898 2.31152 21.2233 0.677111 21.2233C0.233486 21.2233 0 21.2233 0 21.6436C0 21.9004 0.140092 21.9004 0.607065 21.9004H12.3281C12.8418 21.9004 12.8651 21.8771 13.0285 21.5035L15.1533 16.4835Z" fill="#00FFFF"/>
<path d="M30.5022 26.5163V25.6991H28.3074V4.03156H30.5022V3.21436H27.4902V26.5163H30.5022Z" fill="#00FFFF"/>
<path d="M34.8131 18.1109C33.9959 19.4884 33.2021 19.9554 32.0813 20.0254C31.8245 20.0488 31.6377 20.0488 31.6377 20.4691C31.6377 20.6092 31.7544 20.7026 31.9179 20.7026C32.3382 20.7026 33.3888 20.6559 33.8091 20.6559C34.4862 20.6559 35.2334 20.7026 35.8871 20.7026C36.0272 20.7026 36.3074 20.7026 36.3074 20.2589C36.3074 20.0488 36.1206 20.0254 35.9805 20.0254C35.4435 19.9787 34.9999 19.792 34.9999 19.2316C34.9999 18.9047 35.14 18.6479 35.4435 18.1342L37.218 15.1923H43.1719C43.1953 15.4024 43.1953 15.5892 43.2186 15.7993C43.2887 16.4064 43.5689 18.8347 43.5689 19.2783C43.5689 19.9787 42.3781 20.0254 42.0045 20.0254C41.7477 20.0254 41.4908 20.0254 41.4908 20.4457C41.4908 20.7026 41.701 20.7026 41.8411 20.7026C42.238 20.7026 42.705 20.6559 43.1019 20.6559H44.4328C45.857 20.6559 46.8844 20.7026 46.9077 20.7026C47.0712 20.7026 47.328 20.7026 47.328 20.2589C47.328 20.0254 47.1178 20.0254 46.7676 20.0254C45.4834 20.0254 45.4601 19.8153 45.39 19.1148L43.9658 4.54529C43.9191 4.07831 43.8257 4.03162 43.5689 4.03162C43.3354 4.03162 43.1953 4.07831 42.9851 4.42854L34.8131 18.1109ZM37.6149 14.5152L42.308 6.67001L43.1019 14.5152H37.6149Z" fill="#00FFFF"/>
<path d="M56.5754 6.48317C56.7856 5.66597 56.8323 5.43248 58.5367 5.43248C59.0504 5.43248 59.2372 5.43248 59.2372 4.98886C59.2372 4.75537 58.9803 4.75537 58.9103 4.75537C58.49 4.75537 57.9764 4.80207 57.5561 4.80207H54.6842C54.2172 4.80207 53.6802 4.75537 53.2132 4.75537C53.0264 4.75537 52.7696 4.75537 52.7696 5.199C52.7696 5.43248 52.9564 5.43248 53.4234 5.43248C54.871 5.43248 54.871 5.61927 54.871 5.87611C54.871 6.03955 54.8243 6.17964 54.7776 6.38978L51.6255 18.9747C51.4154 19.7919 51.3687 20.0254 49.6642 20.0254C49.1506 20.0254 48.9404 20.0254 48.9404 20.469C48.9404 20.7025 49.1739 20.7025 49.2907 20.7025C49.7109 20.7025 50.2246 20.6558 50.6449 20.6558H53.5168C53.9837 20.6558 54.4974 20.7025 54.9644 20.7025C55.1512 20.7025 55.4314 20.7025 55.4314 20.2822C55.4314 20.0254 55.2913 20.0254 54.7776 20.0254C53.33 20.0254 53.33 19.8386 53.33 19.5584C53.33 19.5117 53.33 19.395 53.4234 19.0214L56.5754 6.48317Z" fill="#00FFFF"/>
<path d="M63.2405 3.21436H60.2285V4.03156H62.4233V25.6991H60.2285V26.5163H63.2405V3.21436Z" fill="#00FFFF"/>
<path d="M87.2292 13.2076C87.5794 13.2076 87.9296 13.2076 87.9296 12.8107C87.9296 12.3904 87.5327 12.3904 87.1358 12.3904H74.0839C73.687 12.3904 73.29 12.3904 73.29 12.8107C73.29 13.2076 73.6403 13.2076 73.9905 13.2076H87.2292ZM87.1358 17.3636C87.5327 17.3636 87.9296 17.3636 87.9296 16.9434C87.9296 16.5464 87.5794 16.5464 87.2292 16.5464H73.9905C73.6403 16.5464 73.29 16.5464 73.29 16.9434C73.29 17.3636 73.687 17.3636 74.0839 17.3636H87.1358Z" fill="#00FFFF"/>
<path d="M100.996 26.5163V25.6991H98.8016V4.03156H100.996V3.21436H97.9844V26.5163H100.996Z" fill="#00FFFF"/>
<path d="M109.93 6.48317C110.14 5.66597 110.187 5.43248 111.891 5.43248C112.405 5.43248 112.592 5.43248 112.592 4.98886C112.592 4.75537 112.335 4.75537 112.265 4.75537C111.845 4.75537 111.331 4.80207 110.911 4.80207H108.039C107.572 4.80207 107.035 4.75537 106.568 4.75537C106.381 4.75537 106.124 4.75537 106.124 5.199C106.124 5.43248 106.311 5.43248 106.778 5.43248C108.225 5.43248 108.225 5.61927 108.225 5.87611C108.225 6.03955 108.179 6.17964 108.132 6.38978L104.98 18.9747C104.77 19.7919 104.723 20.0254 103.019 20.0254C102.505 20.0254 102.295 20.0254 102.295 20.469C102.295 20.7025 102.528 20.7025 102.645 20.7025C103.065 20.7025 103.579 20.6558 103.999 20.6558H106.871C107.338 20.6558 107.852 20.7025 108.319 20.7025C108.506 20.7025 108.786 20.7025 108.786 20.2822C108.786 20.0254 108.646 20.0254 108.132 20.0254C106.684 20.0254 106.684 19.8386 106.684 19.5584C106.684 19.5117 106.684 19.395 106.778 19.0214L109.93 6.48317Z" fill="#00FFFF"/>
<path d="M152.012 3H149V3.8172H151.195V25.4847H149V26.302H152.012V3Z" fill="#00FFFF"/>
<path d="M115.175 17.8292C114.358 19.2068 113.564 19.6738 112.444 19.7438C112.187 19.7672 112 19.7672 112 20.1874C112 20.3275 112.117 20.4209 112.28 20.4209C112.7 20.4209 113.751 20.3742 114.171 20.3742C114.849 20.3742 115.596 20.4209 116.249 20.4209C116.39 20.4209 116.67 20.4209 116.67 19.9773C116.67 19.7672 116.483 19.7438 116.343 19.7438C115.806 19.6971 115.362 19.5103 115.362 18.95C115.362 18.6231 115.502 18.3663 115.806 17.8526L117.58 14.9107H123.534C123.558 15.1208 123.558 15.3076 123.581 15.5177C123.651 16.1248 123.931 18.553 123.931 18.9967C123.931 19.6971 122.74 19.7438 122.367 19.7438C122.11 19.7438 121.853 19.7438 121.853 20.1641C121.853 20.4209 122.063 20.4209 122.203 20.4209C122.6 20.4209 123.067 20.3742 123.464 20.3742H124.795C126.219 20.3742 127.247 20.4209 127.27 20.4209C127.433 20.4209 127.69 20.4209 127.69 19.9773C127.69 19.7438 127.48 19.7438 127.13 19.7438C125.846 19.7438 125.822 19.5337 125.752 18.8332L124.328 4.26367C124.281 3.7967 124.188 3.75 123.931 3.75C123.698 3.75 123.558 3.7967 123.347 4.14693L115.175 17.8292ZM117.977 14.2335L122.67 6.3884L123.464 14.2335H117.977Z" fill="#00FFFF"/>
<path d="M139.027 7.05189C139.303 7.05189 139.594 7.05189 139.594 6.72767C139.594 6.40344 139.303 6.40344 139.027 6.40344H130.257C129.981 6.40344 129.689 6.40344 129.689 6.72767C129.689 7.05189 129.981 7.05189 130.257 7.05189H139.027Z" fill="#00FFFF"/>
<path d="M145.621 0.389069C145.621 0.0162108 145.621 0 145.297 0C144.908 0.437702 144.097 1.03752 142.428 1.03752V1.50764C142.801 1.50764 143.611 1.50764 144.503 1.08615V9.53219C144.503 10.1158 144.454 10.3103 143.028 10.3103H142.525V10.7804C142.963 10.748 144.535 10.748 145.07 10.748C145.605 10.748 147.161 10.748 147.599 10.7804V10.3103H147.097C145.67 10.3103 145.621 10.1158 145.621 9.53219V0.389069Z" fill="#00FFFF"/>
</svg>
