<svg width="505" height="205" viewBox="0 0 505 205" fill="none" xmlns="http://www.w3.org/2000/svg">
<path d="M0 50.3889H1.93265V1.93265H9.32712V0H0V50.3889Z" fill="#00FFFF"/>
<path d="M0 67.223H1.93265V50.3613H0V67.223Z" fill="#00FFFF"/>
<path d="M0 84.0288H1.93265V67.1671H0V84.0288Z" fill="#00FFFF"/>
<path d="M0 134.39H9.32712V132.457H1.93265V84.0009H0V134.39Z" fill="#00FFFF"/>
<path d="M146.327 84.0009L144.395 84.0009L144.395 132.457L137 132.457L137 134.39L146.327 134.39L146.327 84.0009Z" fill="#00FFFF"/>
<path d="M146.327 67.1668L144.395 67.1668L144.395 84.0284L146.327 84.0284L146.327 67.1668Z" fill="#00FFFF"/>
<path d="M146.327 50.361L144.395 50.361L144.395 67.2227L146.327 67.2227L146.327 50.361Z" fill="#00FFFF"/>
<path d="M146.327 -2.8328e-07L137 -1.09868e-06L137 1.93264L144.395 1.93264L144.395 50.3889L146.327 50.3889L146.327 -2.8328e-07Z" fill="#00FFFF"/>
<path d="M166 50.3889H167.933V1.93265H175.327V0H166V50.3889Z" fill="#00FFFF"/>
<path d="M166 67.223H167.933V50.3613H166V67.223Z" fill="#00FFFF"/>
<path d="M166 84.0288H167.933V67.1671H166V84.0288Z" fill="#00FFFF"/>
<path d="M166 134.39H175.327V132.457H167.933V84.0009H166V134.39Z" fill="#00FFFF"/>
<path d="M312.327 84.0009L310.395 84.0009L310.395 132.457L303 132.457L303 134.39L312.327 134.39L312.327 84.0009Z" fill="#00FFFF"/>
<path d="M312.327 67.1668L310.395 67.1668L310.395 84.0284L312.327 84.0284L312.327 67.1668Z" fill="#00FFFF"/>
<path d="M312.327 50.361L310.395 50.361L310.395 67.2227L312.327 67.2227L312.327 50.361Z" fill="#00FFFF"/>
<path d="M312.327 -2.8328e-07L303 -1.09868e-06L303 1.93264L310.395 1.93264L310.395 50.3889L312.327 50.3889L312.327 -2.8328e-07Z" fill="#00FFFF"/>
<path d="M358 50.3889H359.933V1.93265H367.327V0H358V50.3889Z" fill="#00FFFF"/>
<path d="M358 67.223H359.933V50.3613H358V67.223Z" fill="#00FFFF"/>
<path d="M358 84.0288H359.933V67.1671H358V84.0288Z" fill="#00FFFF"/>
<path d="M358 134.39H367.327V132.457H359.933V84.0009H358V134.39Z" fill="#00FFFF"/>
<path d="M504.327 84.0009L502.395 84.0009L502.395 132.457L495 132.457L495 134.39L504.327 134.39L504.327 84.0009Z" fill="#00FFFF"/>
<path d="M504.327 67.1668L502.395 67.1668L502.395 84.0284L504.327 84.0284L504.327 67.1668Z" fill="#00FFFF"/>
<path d="M504.327 50.361L502.395 50.361L502.395 67.2227L504.327 67.2227L504.327 50.361Z" fill="#00FFFF"/>
<path d="M504.327 -2.8328e-07L495 -1.09868e-06L495 1.93264L502.395 1.93264L502.395 50.3889L504.327 50.3889L504.327 -2.8328e-07Z" fill="#00FFFF"/>
<path d="M341.939 65.8172C342.289 65.8172 342.64 65.8172 342.64 65.4203C342.64 65 342.243 65 341.846 65H328.794C328.397 65 328 65 328 65.4203C328 65.8172 328.35 65.8172 328.7 65.8172H341.939ZM341.846 69.9733C342.243 69.9733 342.64 69.9733 342.64 69.553C342.64 69.1561 342.289 69.1561 341.939 69.1561H328.7C328.35 69.1561 328 69.1561 328 69.553C328 69.9733 328.397 69.9733 328.794 69.9733H341.846Z" fill="#00FFFF"/>
<path d="M78.4785 164.289H72.5215L71.1836 168H69.25L74.6797 153.781H76.3203L81.7598 168H79.8359L78.4785 164.289ZM73.0879 162.746H77.9219L75.5 156.096L73.0879 162.746Z" fill="#00FFFF"/>
<path d="M238.92 168V153.781H243.568C245.111 153.781 246.27 154.1 247.045 154.738C247.826 155.376 248.217 156.32 248.217 157.57C248.217 158.234 248.028 158.824 247.65 159.338C247.273 159.846 246.758 160.24 246.107 160.52C246.876 160.734 247.481 161.145 247.924 161.75C248.373 162.349 248.598 163.065 248.598 163.898C248.598 165.174 248.184 166.177 247.357 166.906C246.531 167.635 245.362 168 243.852 168H238.92ZM240.795 161.35V166.467H243.891C244.763 166.467 245.45 166.242 245.951 165.793C246.459 165.337 246.713 164.712 246.713 163.918C246.713 162.206 245.782 161.35 243.92 161.35H240.795ZM240.795 159.846H243.627C244.447 159.846 245.102 159.641 245.59 159.23C246.085 158.82 246.332 158.264 246.332 157.561C246.332 156.779 246.104 156.213 245.648 155.861C245.193 155.503 244.499 155.324 243.568 155.324H240.795V159.846Z" fill="#00FFFF"/>
<path d="M444.096 163.488C443.92 164.992 443.363 166.154 442.426 166.975C441.495 167.788 440.255 168.195 438.705 168.195C437.025 168.195 435.678 167.593 434.662 166.389C433.653 165.184 433.148 163.573 433.148 161.555V160.188C433.148 158.866 433.383 157.704 433.852 156.701C434.327 155.699 434.997 154.93 435.863 154.396C436.729 153.856 437.732 153.586 438.871 153.586C440.382 153.586 441.592 154.009 442.504 154.855C443.415 155.695 443.946 156.861 444.096 158.352H442.211C442.048 157.219 441.693 156.398 441.146 155.891C440.606 155.383 439.848 155.129 438.871 155.129C437.673 155.129 436.732 155.572 436.049 156.457C435.372 157.342 435.033 158.602 435.033 160.236V161.613C435.033 163.156 435.355 164.383 436 165.295C436.645 166.206 437.546 166.662 438.705 166.662C439.747 166.662 440.544 166.428 441.098 165.959C441.658 165.484 442.029 164.66 442.211 163.488H444.096Z" fill="#00FFFF"/>
<line x1="295" y1="19.5" x2="179" y2="19.5" stroke="#00FFFF"/>
<line x1="295" y1="47.5" x2="179" y2="47.5" stroke="#00FFFF"/>
<line x1="295" y1="115.5" x2="179" y2="115.5" stroke="#00FFFF"/>
<path d="M51.3574 189.434L51.4062 190.605C52.181 189.694 53.2259 189.238 54.541 189.238C56.0189 189.238 57.0247 189.805 57.5586 190.938C57.9102 190.43 58.3659 190.02 58.9258 189.707C59.4922 189.395 60.1595 189.238 60.9277 189.238C63.2454 189.238 64.4238 190.465 64.4629 192.92V200H62.6562V193.027C62.6562 192.272 62.4837 191.709 62.1387 191.338C61.7936 190.96 61.2142 190.771 60.4004 190.771C59.7298 190.771 59.1732 190.973 58.7305 191.377C58.2878 191.774 58.0306 192.311 57.959 192.988V200H56.1426V193.076C56.1426 191.54 55.3906 190.771 53.8867 190.771C52.7018 190.771 51.8913 191.276 51.4551 192.285V200H49.6484V189.434H51.3574ZM75.7031 193.291L78.0469 189.434H80.1562L76.6992 194.658L80.2637 200H78.1738L75.7324 196.045L73.291 200H71.1914L74.7559 194.658L71.2988 189.434H73.3887L75.7031 193.291ZM88.75 189.434L88.8086 190.762C89.6159 189.746 90.6706 189.238 91.9727 189.238C94.2057 189.238 95.332 190.498 95.3516 193.018V200H93.5449V193.008C93.5384 192.246 93.3626 191.683 93.0176 191.318C92.679 190.954 92.1484 190.771 91.4258 190.771C90.8398 190.771 90.3255 190.928 89.8828 191.24C89.4401 191.553 89.0951 191.963 88.8477 192.471V200H87.041V189.434H88.75Z" fill="#00FFFF"/>
<path d="M223.521 189.434L223.58 190.762C224.387 189.746 225.442 189.238 226.744 189.238C228.977 189.238 230.104 190.498 230.123 193.018V200H228.316V193.008C228.31 192.246 228.134 191.683 227.789 191.318C227.451 190.954 226.92 190.771 226.197 190.771C225.611 190.771 225.097 190.928 224.654 191.24C224.212 191.553 223.867 191.963 223.619 192.471V200H221.812V189.434H223.521ZM241.354 193.291L243.697 189.434H245.807L242.35 194.658L245.914 200H243.824L241.383 196.045L238.941 200H236.842L240.406 194.658L236.949 189.434H239.039L241.354 193.291ZM261.617 194.834C261.617 196.442 261.249 197.738 260.514 198.721C259.778 199.704 258.782 200.195 257.525 200.195C256.243 200.195 255.234 199.788 254.498 198.975V204.062H252.691V189.434H254.342L254.43 190.605C255.165 189.694 256.188 189.238 257.496 189.238C258.766 189.238 259.768 189.717 260.504 190.674C261.246 191.631 261.617 192.962 261.617 194.668V194.834ZM259.811 194.629C259.811 193.438 259.557 192.497 259.049 191.807C258.541 191.117 257.844 190.771 256.959 190.771C255.865 190.771 255.045 191.257 254.498 192.227V197.275C255.038 198.239 255.865 198.721 256.979 198.721C257.844 198.721 258.531 198.379 259.039 197.695C259.553 197.005 259.811 195.983 259.811 194.629Z" fill="#00FFFF"/>
<path d="M415.26 189.434L415.309 190.605C416.083 189.694 417.128 189.238 418.443 189.238C419.921 189.238 420.927 189.805 421.461 190.938C421.812 190.43 422.268 190.02 422.828 189.707C423.395 189.395 424.062 189.238 424.83 189.238C427.148 189.238 428.326 190.465 428.365 192.92V200H426.559V193.027C426.559 192.272 426.386 191.709 426.041 191.338C425.696 190.96 425.117 190.771 424.303 190.771C423.632 190.771 423.076 190.973 422.633 191.377C422.19 191.774 421.933 192.311 421.861 192.988V200H420.045V193.076C420.045 191.54 419.293 190.771 417.789 190.771C416.604 190.771 415.794 191.276 415.357 192.285V200H413.551V189.434H415.26ZM439.605 193.291L441.949 189.434H444.059L440.602 194.658L444.166 200H442.076L439.635 196.045L437.193 200H435.094L438.658 194.658L435.201 189.434H437.291L439.605 193.291ZM459.869 194.834C459.869 196.442 459.501 197.738 458.766 198.721C458.03 199.704 457.034 200.195 455.777 200.195C454.495 200.195 453.486 199.788 452.75 198.975V204.062H450.943V189.434H452.594L452.682 190.605C453.417 189.694 454.439 189.238 455.748 189.238C457.018 189.238 458.02 189.717 458.756 190.674C459.498 191.631 459.869 192.962 459.869 194.668V194.834ZM458.062 194.629C458.062 193.438 457.809 192.497 457.301 191.807C456.793 191.117 456.096 190.771 455.211 190.771C454.117 190.771 453.297 191.257 452.75 192.227V197.275C453.29 198.239 454.117 198.721 455.23 198.721C456.096 198.721 456.783 198.379 457.291 197.695C457.805 197.005 458.062 195.983 458.062 194.629Z" fill="#00FFFF"/>
<line x1="483" y1="47.5" x2="385" y2="47.5" stroke="#00FFFF"/>
<line x1="123" y1="38.5" x2="25" y2="38.5" stroke="#00FFFF"/>
</svg>
