<svg width="220" height="101" viewBox="0 0 220 101" fill="none" xmlns="http://www.w3.org/2000/svg">
<path d="M0.130859 50.3889H2.06351V1.93265H9.45798V0H0.130859V50.3889Z" fill="#00FFFF"/>
<path d="M0.130859 100.778H9.45798V98.8456H2.06351V50.3893H0.130859V100.778Z" fill="#00FFFF"/>
<path d="M21.3528 19.0292H20.8486C20.5686 21.0178 20.3445 21.3539 20.2324 21.522C20.0924 21.7461 18.0757 21.7461 17.6836 21.7461H12.3058C13.3141 20.6537 15.2748 18.665 17.6556 16.3683C19.3641 14.7437 21.3528 12.8391 21.3528 10.0662C21.3528 6.76105 18.7199 4.85641 15.7789 4.85641C12.6979 4.85641 10.8213 7.57332 10.8213 10.0942C10.8213 11.1865 11.6336 11.3266 11.9697 11.3266C12.2498 11.3266 13.09 11.1585 13.09 10.1782C13.09 9.3099 12.3618 9.05782 11.9697 9.05782C11.8016 9.05782 11.6336 9.08583 11.5215 9.14185C12.0537 6.76105 13.6782 5.58466 15.3868 5.58466C17.8236 5.58466 19.4202 7.5173 19.4202 10.0662C19.4202 12.503 17.9917 14.6037 16.3952 16.4243L10.8213 22.7264V23.3706H20.6806L21.3528 19.0292Z" fill="#00FFFF"/>
<path d="M15.8629 47.6208C18.3558 47.6208 19.4481 49.7775 19.4481 52.2703C19.4481 55.6314 17.6555 56.9199 16.031 56.9199C14.5465 56.9199 12.1377 56.1916 11.3814 54.0349C11.5215 54.0909 11.6615 54.0909 11.8016 54.0909C12.4738 54.0909 12.978 53.6428 12.978 52.9145C12.978 52.1023 12.3618 51.7381 11.8016 51.7381C11.3254 51.7381 10.5972 51.9622 10.5972 52.9986C10.5972 55.5754 13.118 57.5921 16.087 57.5921C19.196 57.5921 21.5768 55.1553 21.5768 52.2983C21.5768 49.5814 19.3361 47.6208 16.6752 47.3127C18.8039 46.8645 20.8486 44.9599 20.8486 42.411C20.8486 40.2263 18.6359 38.6298 16.115 38.6298C13.5662 38.6298 11.3254 40.1983 11.3254 42.439C11.3254 43.4194 12.0537 43.5874 12.4178 43.5874C13.006 43.5874 13.5101 43.2233 13.5101 42.4951C13.5101 41.7668 13.006 41.4027 12.4178 41.4027C12.3057 41.4027 12.1657 41.4027 12.0537 41.4587C12.8659 39.6101 15.0787 39.274 16.059 39.274C17.0393 39.274 18.8879 39.7501 18.8879 42.439C18.8879 43.2233 18.7759 44.6238 17.8236 45.8562C16.9833 46.9485 16.031 47.0046 15.1067 47.0886C14.9666 47.0886 14.3224 47.1446 14.2104 47.1446C14.0143 47.1726 13.9023 47.2006 13.9023 47.3967C13.9023 47.5928 13.9303 47.6208 14.4905 47.6208H15.8629Z" fill="#00FFFF"/>
<path d="M19.0839 72.7952C19.0839 72.207 19.0559 72.179 18.5517 72.179L10.2329 85.4274V86.1557H17.4593V88.9006C17.4593 89.9089 17.4033 90.189 15.4427 90.189H14.9105V90.9173C15.8068 90.8613 17.3193 90.8613 18.2716 90.8613C19.2239 90.8613 20.7364 90.8613 21.6327 90.9173V90.189H21.1005C19.1399 90.189 19.0839 89.9089 19.0839 88.9006V86.1557H21.9408V85.4274H19.0839V72.7952ZM17.5434 74.6438V85.4274H10.7931L17.5434 74.6438Z" fill="#00FFFF"/>
<path d="M30.1088 50.3889H32.0415V0H22.7144V1.93265H30.1088V50.3889Z" fill="#00FFFF"/>
<path d="M30.1088 98.8456H22.7144V100.778H32.0415V50.3893H30.1088V98.8456Z" fill="#00FFFF"/>
<path d="M51.5176 67.1668H56.8954V66.0464H52.638V34.7039H56.8954V33.5836H51.5176V67.1668Z" fill="#00FFFF"/>
<path d="M64.9805 39.246C64.9805 38.6578 64.9525 38.6298 64.5603 38.6298C63.468 39.9462 61.8154 40.3663 60.2469 40.4224C60.1629 40.4224 60.0228 40.4224 59.9948 40.4784C59.9668 40.5344 59.9668 40.5904 59.9668 41.1786C60.8351 41.1786 62.2916 41.0106 63.4119 40.3383V55.0993C63.4119 56.0796 63.3559 56.4157 60.9471 56.4157H60.1068V57.144C61.4513 57.1159 62.8518 57.0879 64.1962 57.0879C65.5407 57.0879 66.9411 57.1159 68.2856 57.144V56.4157H67.4453C65.0365 56.4157 64.9805 56.1076 64.9805 55.0993V39.246Z" fill="#00FFFF"/>
<path d="M84.6024 47.4807C84.6024 40.7865 87.7394 39.274 89.56 39.274C90.1482 39.274 91.5767 39.386 92.1369 40.4784C91.6888 40.4784 90.8485 40.4784 90.8485 41.4587C90.8485 42.215 91.4647 42.467 91.8568 42.467C92.1089 42.467 92.8652 42.355 92.8652 41.4027C92.8652 39.6381 91.4647 38.6298 89.532 38.6298C86.1989 38.6298 82.6978 42.1029 82.6978 48.293C82.6978 55.9115 85.8628 57.5921 88.1036 57.5921C90.8205 57.5921 93.3973 55.1553 93.3973 51.402C93.3973 47.9009 91.1286 45.352 88.2716 45.352C86.563 45.352 85.3026 46.4724 84.6024 48.433V47.4807ZM88.1036 56.9199C84.6584 56.9199 84.6584 51.7662 84.6584 50.7298C84.6584 48.7131 85.6107 45.8002 88.2156 45.8002C88.6918 45.8002 90.0642 45.8002 90.9885 47.7328C91.4927 48.8252 91.4927 49.9736 91.4927 51.374C91.4927 52.8865 91.4927 54.0069 90.9045 55.1273C90.2883 56.2757 89.392 56.9199 88.1036 56.9199Z" fill="#00FFFF"/>
<path d="M100.473 67.1668V33.5836H95.0952V34.7039H99.3526V66.0464H95.0952V67.1668H100.473Z" fill="#00FFFF"/>
<path d="M131.94 48.4007C132.36 48.4007 132.781 48.4007 132.781 47.9245C132.781 47.4204 132.304 47.4204 131.828 47.4204H116.171C115.695 47.4204 115.219 47.4204 115.219 47.9245C115.219 48.4007 115.639 48.4007 116.059 48.4007H131.94ZM131.828 53.3864C132.304 53.3864 132.781 53.3864 132.781 52.8822C132.781 52.406 132.36 52.406 131.94 52.406H116.059C115.639 52.406 115.219 52.406 115.219 52.8822C115.219 53.3864 115.695 53.3864 116.171 53.3864H131.828Z" fill="#00FFFF"/>
<path d="M151.004 50.3889H152.937V1.93265H160.331V0H151.004V50.3889Z" fill="#00FFFF"/>
<path d="M151.004 100.778H160.331V98.8456H152.937V50.3893H151.004V100.778Z" fill="#00FFFF"/>
<path d="M172.225 19.0292H171.721C171.441 21.0178 171.217 21.3539 171.105 21.522C170.965 21.7461 168.948 21.7461 168.556 21.7461H163.178C164.187 20.6537 166.147 18.665 168.528 16.3683C170.237 14.7437 172.225 12.8391 172.225 10.0662C172.225 6.76105 169.592 4.85641 166.652 4.85641C163.57 4.85641 161.694 7.57332 161.694 10.0942C161.694 11.1865 162.506 11.3266 162.842 11.3266C163.122 11.3266 163.963 11.1585 163.963 10.1782C163.963 9.3099 163.234 9.05782 162.842 9.05782C162.674 9.05782 162.506 9.08583 162.394 9.14185C162.926 6.76105 164.551 5.58466 166.259 5.58466C168.696 5.58466 170.293 7.5173 170.293 10.0662C170.293 12.503 168.864 14.6037 167.268 16.4243L161.694 22.7264V23.3706H171.553L172.225 19.0292Z" fill="#00FFFF"/>
<path d="M192.1 5.47262C192.1 4.88442 192.072 4.85641 191.679 4.85641C190.587 6.17285 188.935 6.59299 187.366 6.64901C187.282 6.64901 187.142 6.64901 187.114 6.70503C187.086 6.76105 187.086 6.81707 187.086 7.40527C187.954 7.40527 189.411 7.23721 190.531 6.56498V21.3259C190.531 22.3063 190.475 22.6424 188.066 22.6424H187.226V23.3706C188.57 23.3426 189.971 23.3146 191.315 23.3146C192.66 23.3146 194.06 23.3426 195.405 23.3706V22.6424H194.564C192.156 22.6424 192.1 22.3343 192.1 21.3259V5.47262Z" fill="#00FFFF"/>
<path d="M209.175 19.0292H208.67C208.39 21.0178 208.166 21.3539 208.054 21.522C207.914 21.7461 205.897 21.7461 205.505 21.7461H200.128C201.136 20.6537 203.097 18.665 205.477 16.3683C207.186 14.7437 209.175 12.8391 209.175 10.0662C209.175 6.76105 206.542 4.85641 203.601 4.85641C200.52 4.85641 198.643 7.57332 198.643 10.0942C198.643 11.1865 199.455 11.3266 199.791 11.3266C200.072 11.3266 200.912 11.1585 200.912 10.1782C200.912 9.3099 200.184 9.05782 199.791 9.05782C199.623 9.05782 199.455 9.08583 199.343 9.14185C199.875 6.76105 201.5 5.58466 203.209 5.58466C205.645 5.58466 207.242 7.5173 207.242 10.0662C207.242 12.503 205.813 14.6037 204.217 16.4243L198.643 22.7264V23.3706H208.502L209.175 19.0292Z" fill="#00FFFF"/>
<path d="M166.735 47.6208C169.228 47.6208 170.321 49.7775 170.321 52.2703C170.321 55.6314 168.528 56.9199 166.904 56.9199C165.419 56.9199 163.01 56.1916 162.254 54.0349C162.394 54.0909 162.534 54.0909 162.674 54.0909C163.346 54.0909 163.851 53.6428 163.851 52.9145C163.851 52.1023 163.234 51.7381 162.674 51.7381C162.198 51.7381 161.47 51.9622 161.47 52.9986C161.47 55.5754 163.991 57.5921 166.96 57.5921C170.069 57.5921 172.449 55.1553 172.449 52.2983C172.449 49.5814 170.209 47.6208 167.548 47.3127C169.676 46.8645 171.721 44.9599 171.721 42.411C171.721 40.2263 169.508 38.6298 166.988 38.6298C164.439 38.6298 162.198 40.1983 162.198 42.439C162.198 43.4194 162.926 43.5874 163.29 43.5874C163.879 43.5874 164.383 43.2233 164.383 42.4951C164.383 41.7668 163.879 41.4027 163.29 41.4027C163.178 41.4027 163.038 41.4027 162.926 41.4587C163.738 39.6101 165.951 39.274 166.932 39.274C167.912 39.274 169.76 39.7501 169.76 42.439C169.76 43.2233 169.648 44.6238 168.696 45.8562C167.856 46.9485 166.904 47.0046 165.979 47.0886C165.839 47.0886 165.195 47.1446 165.083 47.1446C164.887 47.1726 164.775 47.2006 164.775 47.3967C164.775 47.5928 164.803 47.6208 165.363 47.6208H166.735Z" fill="#00FFFF"/>
<path d="M192.1 39.246C192.1 38.6578 192.072 38.6298 191.679 38.6298C190.587 39.9462 188.935 40.3663 187.366 40.4224C187.282 40.4224 187.142 40.4224 187.114 40.4784C187.086 40.5344 187.086 40.5904 187.086 41.1786C187.954 41.1786 189.411 41.0106 190.531 40.3383V55.0993C190.531 56.0796 190.475 56.4157 188.066 56.4157H187.226V57.144C188.57 57.1159 189.971 57.0879 191.315 57.0879C192.66 57.0879 194.06 57.1159 195.405 57.144V56.4157H194.564C192.156 56.4157 192.1 56.1076 192.1 55.0993V39.246Z" fill="#00FFFF"/>
<path d="M205.113 47.0606C206.878 46.1643 208.67 44.8198 208.67 42.6631C208.67 40.1143 206.206 38.6298 203.937 38.6298C201.388 38.6298 199.147 40.4784 199.147 43.0272C199.147 43.7275 199.315 44.9319 200.408 45.9962C200.688 46.2763 201.864 47.1166 202.62 47.6488C201.36 48.293 198.419 49.8335 198.419 52.9145C198.419 55.7995 201.164 57.5921 203.881 57.5921C206.878 57.5921 209.399 55.4354 209.399 52.5784C209.399 50.0296 207.69 48.8532 206.57 48.0969L205.113 47.0606ZM201.444 44.5958C201.22 44.4557 200.1 43.5874 200.1 42.271C200.1 40.5624 201.864 39.274 203.881 39.274C206.094 39.274 207.718 40.8425 207.718 42.6631C207.718 45.268 204.805 46.7525 204.665 46.7525C204.637 46.7525 204.609 46.7525 204.385 46.5844L201.444 44.5958ZM206.598 50.3377C207.018 50.6458 208.362 51.5701 208.362 53.2787C208.362 55.3514 206.29 56.9199 203.937 56.9199C201.388 56.9199 199.455 55.0993 199.455 52.8865C199.455 50.6738 201.164 48.8252 203.097 47.9569L206.598 50.3377Z" fill="#00FFFF"/>
<path d="M169.957 72.7952C169.957 72.207 169.929 72.179 169.425 72.179L161.106 85.4274V86.1557H168.332V88.9006C168.332 89.9089 168.276 90.189 166.316 90.189H165.784V90.9173C166.68 90.8613 168.192 90.8613 169.145 90.8613C170.097 90.8613 171.609 90.8613 172.506 90.9173V90.189H171.974C170.013 90.189 169.957 89.9089 169.957 88.9006V86.1557H172.814V85.4274H169.957V72.7952ZM168.416 74.6438V85.4274H161.666L168.416 74.6438Z" fill="#00FFFF"/>
<path d="M196.329 86.5758H195.825C195.545 88.5645 195.321 88.9006 195.209 89.0687C195.068 89.2928 193.052 89.2928 192.66 89.2928H187.282C188.29 88.2004 190.251 86.2117 192.632 83.915C194.34 82.2904 196.329 80.3858 196.329 77.6128C196.329 74.3077 193.696 72.4031 190.755 72.4031C187.674 72.4031 185.797 75.12 185.797 77.6409C185.797 78.7332 186.61 78.8733 186.946 78.8733C187.226 78.8733 188.066 78.7052 188.066 77.7249C188.066 76.8566 187.338 76.6045 186.946 76.6045C186.778 76.6045 186.61 76.6325 186.498 76.6885C187.03 74.3077 188.654 73.1313 190.363 73.1313C192.8 73.1313 194.396 75.064 194.396 77.6128C194.396 80.0497 192.968 82.1504 191.371 83.971L185.797 90.2731V90.9173H195.657L196.329 86.5758Z" fill="#00FFFF"/>
<path d="M206.906 72.7952C206.906 72.207 206.878 72.179 206.373 72.179L198.055 85.4274V86.1557H205.281V88.9006C205.281 89.9089 205.225 90.189 203.264 90.189H202.732V90.9173C203.629 90.8613 205.141 90.8613 206.093 90.8613C207.046 90.8613 208.558 90.8613 209.455 90.9173V90.189H208.922C206.962 90.189 206.906 89.9089 206.906 88.9006V86.1557H209.763V85.4274H206.906V72.7952ZM205.365 74.6438V85.4274H198.615L205.365 74.6438Z" fill="#00FFFF"/>
<path d="M217.931 50.3889H219.863V0H210.536V1.93265H217.931V50.3889Z" fill="#00FFFF"/>
<path d="M217.931 98.8456H210.536V100.778H219.863V50.3893H217.931V98.8456Z" fill="#00FFFF"/>
</svg>
