<svg width="366" height="85" viewBox="0 0 366 85" fill="none" xmlns="http://www.w3.org/2000/svg">
<path d="M0.611328 42.0042H2.22239V1.61106H8.38643V0H0.611328V42.0042Z" fill="#00FFFF"/>
<path d="M0.611328 84.0089H8.38643V82.3978H2.22239V42.0046H0.611328V84.0089Z" fill="#00FFFF"/>
<path d="M18.3016 15.87H17.8813C17.6478 17.5277 17.461 17.8079 17.3676 17.948C17.2509 18.1348 15.5698 18.1348 15.2429 18.1348H10.7599C11.6005 17.2242 13.2349 15.5664 15.2195 13.6518C16.6438 12.2976 18.3016 10.7099 18.3016 8.39839C18.3016 5.64325 16.1068 4.05554 13.6552 4.05554C11.0868 4.05554 9.52246 6.32036 9.52246 8.42174C9.52246 9.33234 10.1996 9.44908 10.4798 9.44908C10.7132 9.44908 11.4137 9.30899 11.4137 8.49178C11.4137 7.76798 10.8066 7.55784 10.4798 7.55784C10.3397 7.55784 10.1996 7.58119 10.1062 7.62788C10.5498 5.64325 11.904 4.66261 13.3283 4.66261C15.3596 4.66261 16.6905 6.27366 16.6905 8.39839C16.6905 10.4297 15.4997 12.1809 14.1688 13.6985L9.52246 18.952V19.489H17.7412L18.3016 15.87Z" fill="#00FFFF"/>
<path d="M41.0617 4.94283V4.42916H35.5747C32.8429 4.42916 32.7963 4.12563 32.7029 3.68201H32.2826L31.6055 8.04821H32.0257C32.0958 7.60458 32.2592 6.4138 32.5394 5.97017C32.6795 5.78339 34.4073 5.78339 34.8042 5.78339H39.9409L37.3492 9.63591C35.6214 12.2276 34.4307 15.7299 34.4307 18.7886C34.4307 19.0688 34.4307 19.8626 35.2712 19.8626C36.1118 19.8626 36.1118 19.0688 36.1118 18.7652V17.6912C36.1118 13.862 36.7655 11.3404 37.8396 9.72931L41.0617 4.94283Z" fill="#00FFFF"/>
<path d="M13.7255 39.695C15.8035 39.695 16.7141 41.4928 16.7141 43.5709C16.7141 46.3727 15.2198 47.4467 13.8656 47.4467C12.6281 47.4467 10.6201 46.8397 9.9897 45.0418C10.1064 45.0885 10.2232 45.0885 10.3399 45.0885C10.9003 45.0885 11.3206 44.7149 11.3206 44.1079C11.3206 43.4308 10.8069 43.1272 10.3399 43.1272C9.943 43.1272 9.33594 43.314 9.33594 44.1779C9.33594 46.326 11.4373 48.0071 13.9123 48.0071C16.504 48.0071 18.4886 45.9758 18.4886 43.5942C18.4886 41.3294 16.6207 39.695 14.4026 39.4382C16.1771 39.0646 17.8815 37.4769 17.8815 35.3521C17.8815 33.5309 16.037 32.2001 13.9356 32.2001C11.8109 32.2001 9.943 33.5076 9.943 35.3755C9.943 36.1927 10.5501 36.3328 10.8536 36.3328C11.3439 36.3328 11.7642 36.0293 11.7642 35.4222C11.7642 34.8151 11.3439 34.5116 10.8536 34.5116C10.7602 34.5116 10.6435 34.5116 10.5501 34.5583C11.2272 33.0173 13.0717 32.7371 13.8889 32.7371C14.7061 32.7371 16.2471 33.134 16.2471 35.3755C16.2471 36.0293 16.1537 37.1967 15.3599 38.224C14.6594 39.1346 13.8656 39.1813 13.0951 39.2514C12.9783 39.2514 12.4413 39.2981 12.3479 39.2981C12.1845 39.3214 12.0911 39.3448 12.0911 39.5082C12.0911 39.6716 12.1144 39.695 12.5814 39.695H13.7255Z" fill="#00FFFF"/>
<path d="M36.8821 39.228C38.3531 38.4809 39.8474 37.3601 39.8474 35.5623C39.8474 33.4376 37.7927 32.2001 35.9014 32.2001C33.7767 32.2001 31.9088 33.7411 31.9088 35.8658C31.9088 36.4495 32.0489 37.4535 32.9595 38.3408C33.193 38.5743 34.1736 39.2747 34.8041 39.7183C33.7534 40.2554 31.3018 41.5395 31.3018 44.1079C31.3018 46.5128 33.5899 48.0071 35.8547 48.0071C38.3531 48.0071 40.4544 46.2093 40.4544 43.8277C40.4544 41.703 39.0302 40.7223 38.0962 40.0919L36.8821 39.228ZM33.8234 37.1733C33.6366 37.0566 32.7027 36.3328 32.7027 35.2354C32.7027 33.8111 34.1736 32.7371 35.8547 32.7371C37.6993 32.7371 39.0535 34.0446 39.0535 35.5623C39.0535 37.7337 36.6253 38.9712 36.5085 38.9712C36.4852 38.9712 36.4618 38.9712 36.275 38.8311L33.8234 37.1733ZM38.1196 41.9598C38.4698 42.2166 39.5905 42.9871 39.5905 44.4114C39.5905 46.1392 37.8627 47.4467 35.9014 47.4467C33.7767 47.4467 32.1657 45.9291 32.1657 44.0845C32.1657 42.24 33.5899 40.699 35.201 39.9752L38.1196 41.9598Z" fill="#00FFFF"/>
<path d="M16.4104 60.6714C16.4104 60.1811 16.3871 60.1577 15.9668 60.1577L9.03223 71.2016V71.8087H15.0562V74.0969C15.0562 74.9374 15.0095 75.1709 13.3751 75.1709H12.9315V75.778C13.6786 75.7313 14.9394 75.7313 15.7333 75.7313C16.5271 75.7313 17.788 75.7313 18.5351 75.778V75.1709H18.0915C16.4571 75.1709 16.4104 74.9374 16.4104 74.0969V71.8087H18.792V71.2016H16.4104V60.6714ZM15.1262 62.2124V71.2016H9.4992L15.1262 62.2124Z" fill="#00FFFF"/>
<path d="M38.7504 68.8667C38.7504 74.0034 36.6257 75.5911 34.8745 75.5911C34.3375 75.5911 33.03 75.5211 32.493 74.6105C33.1 74.7039 33.5437 74.377 33.5437 73.7933C33.5437 73.1629 33.03 72.9528 32.7031 72.9528C32.493 72.9528 31.8626 73.0461 31.8626 73.84C31.8626 75.4277 33.2401 76.1515 34.9212 76.1515C37.6063 76.1515 40.3381 73.2096 40.3381 68.0729C40.3381 61.6754 37.7231 60.3445 35.9486 60.3445C33.6371 60.3445 31.4189 62.3758 31.4189 65.5045C31.4189 68.3998 33.3102 70.5478 35.6917 70.5478C37.653 70.5478 38.5169 68.7266 38.7504 67.9561V68.8667ZM35.7384 70.1743C35.108 70.1743 34.2208 70.0575 33.497 68.6566C33.0067 67.746 33.0067 66.672 33.0067 65.5279C33.0067 64.1503 33.0067 63.193 33.6604 62.1657C33.9873 61.6754 34.5944 60.8815 35.9486 60.8815C38.7037 60.8815 38.7037 65.1076 38.7037 66.0416C38.7037 67.6993 37.9566 70.1743 35.7384 70.1743Z" fill="#00FFFF"/>
<path d="M47.5674 42.0042H49.1784V0H41.4033V1.61106H47.5674V42.0042Z" fill="#00FFFF"/>
<path d="M47.5674 82.3978H41.4033V84.0089H49.1784V42.0046H47.5674V82.3978Z" fill="#00FFFF"/>
<path d="M66.5342 69.9994H72.6749V68.7152H67.8184V15.2701H72.6749V13.986H66.5342V69.9994Z" fill="#00FFFF"/>
<path d="M79.2302 18.6415C79.2302 18.1512 79.2068 18.1278 78.88 18.1278C77.9694 19.2252 76.5918 19.5754 75.2843 19.6221C75.2142 19.6221 75.0975 19.6221 75.0741 19.6688C75.0508 19.7155 75.0508 19.7622 75.0508 20.2525C75.7746 20.2525 76.9887 20.1124 77.9227 19.5521V31.8568C77.9227 32.674 77.876 32.9542 75.868 32.9542H75.1675V33.5613C76.2883 33.5379 77.4557 33.5146 78.5764 33.5146C79.6972 33.5146 80.8646 33.5379 81.9853 33.5613V32.9542H81.2849C79.2769 32.9542 79.2302 32.6974 79.2302 31.8568V18.6415Z" fill="#00FFFF"/>
<path d="M97.4608 25.506C97.4608 19.9257 100.076 18.6648 101.593 18.6648C102.084 18.6648 103.275 18.7582 103.742 19.6688C103.368 19.6688 102.668 19.6688 102.668 20.486C102.668 21.1164 103.181 21.3266 103.508 21.3266C103.718 21.3266 104.349 21.2332 104.349 20.4393C104.349 18.9684 103.181 18.1278 101.57 18.1278C98.7916 18.1278 95.873 21.023 95.873 26.1831C95.873 32.5339 98.5114 33.9348 100.379 33.9348C102.644 33.9348 104.792 31.9035 104.792 28.7748C104.792 25.8562 102.901 23.7315 100.519 23.7315C99.0952 23.7315 98.0445 24.6654 97.4608 26.2998V25.506ZM100.379 33.3745C97.5075 33.3745 97.5075 29.0783 97.5075 28.2144C97.5075 26.5333 98.3013 24.1051 100.473 24.1051C100.87 24.1051 102.014 24.1051 102.784 25.7161C103.205 26.6267 103.205 27.584 103.205 28.7514C103.205 30.0123 103.205 30.9462 102.714 31.8802C102.201 32.8375 101.453 33.3745 100.379 33.3745Z" fill="#00FFFF"/>
<path d="M82.8264 54.2108C82.8264 52.7865 82.8031 50.3582 81.8224 48.4903C80.9585 46.8559 79.5809 46.2722 78.3668 46.2722C77.2461 46.2722 75.8218 46.7859 74.9346 48.467C74.0006 50.2181 73.9072 52.3896 73.9072 54.2108C73.9072 55.5416 73.9306 57.573 74.6544 59.3475C75.6584 61.7524 77.4562 62.0793 78.3668 62.0793C79.4409 62.0793 81.0753 61.6356 82.0326 59.4175C82.733 57.8064 82.8264 55.9152 82.8264 54.2108ZM78.3668 61.7057C76.8725 61.7057 75.9853 60.4215 75.6584 58.647C75.4015 57.2694 75.4015 55.2614 75.4015 53.9539C75.4015 52.1561 75.4015 50.6618 75.7051 49.2375C76.1487 47.2529 77.4562 46.6458 78.3668 46.6458C79.3241 46.6458 80.5616 47.2762 81.0052 49.1908C81.3087 50.5217 81.3321 52.086 81.3321 53.9539C81.3321 55.4716 81.3321 57.3395 81.0519 58.717C80.5616 61.262 79.184 61.7057 78.3668 61.7057Z" fill="#00FFFF"/>
<path d="M104.792 54.2108C104.792 52.7865 104.769 50.3582 103.788 48.4903C102.924 46.8559 101.547 46.2722 100.333 46.2722C99.2119 46.2722 97.7876 46.7859 96.9004 48.467C95.9664 50.2181 95.873 52.3896 95.873 54.2108C95.873 55.5416 95.8964 57.573 96.6202 59.3475C97.6242 61.7524 99.422 62.0793 100.333 62.0793C101.407 62.0793 103.041 61.6356 103.998 59.4175C104.699 57.8064 104.792 55.9152 104.792 54.2108ZM100.333 61.7057C98.8383 61.7057 97.9511 60.4215 97.6242 58.647C97.3674 57.2694 97.3674 55.2614 97.3674 53.9539C97.3674 52.1561 97.3674 50.6618 97.6709 49.2375C98.1145 47.2529 99.422 46.6458 100.333 46.6458C101.29 46.6458 102.527 47.2762 102.971 49.1908C103.275 50.5217 103.298 52.086 103.298 53.9539C103.298 55.4716 103.298 57.3395 103.018 58.717C102.527 61.262 101.15 61.7057 100.333 61.7057Z" fill="#00FFFF"/>
<path d="M110.877 68.7152H106.021V69.9994H112.161V13.986H106.021V15.2701H110.877V68.7152Z" fill="#00FFFF"/>
<path d="M139.515 40.3469C139.866 40.3469 140.216 40.3469 140.216 39.9499C140.216 39.5297 139.819 39.5297 139.422 39.5297H126.37C125.973 39.5297 125.576 39.5297 125.576 39.9499C125.576 40.3469 125.926 40.3469 126.277 40.3469H139.515ZM139.422 44.5029C139.819 44.5029 140.216 44.5029 140.216 44.0826C140.216 43.6857 139.866 43.6857 139.515 43.6857H126.277C125.926 43.6857 125.576 43.6857 125.576 44.0826C125.576 44.5029 125.973 44.5029 126.37 44.5029H139.422Z" fill="#00FFFF"/>
<path d="M155.407 42.0042H157.018V1.61106H163.182V0H155.407V42.0042Z" fill="#00FFFF"/>
<path d="M155.407 84.0089H163.182V82.3978H157.018V42.0046H155.407V84.0089Z" fill="#00FFFF"/>
<path d="M173.097 15.87H172.677C172.444 17.5277 172.257 17.8079 172.164 17.948C172.047 18.1348 170.366 18.1348 170.039 18.1348H165.556C166.396 17.2242 168.031 15.5664 170.015 13.6518C171.44 12.2976 173.097 10.7099 173.097 8.39839C173.097 5.64325 170.903 4.05554 168.451 4.05554C165.883 4.05554 164.318 6.32036 164.318 8.42174C164.318 9.33234 164.995 9.44908 165.276 9.44908C165.509 9.44908 166.21 9.30899 166.21 8.49178C166.21 7.76798 165.603 7.55784 165.276 7.55784C165.136 7.55784 164.995 7.58119 164.902 7.62788C165.346 5.64325 166.7 4.66261 168.124 4.66261C170.156 4.66261 171.486 6.27366 171.486 8.39839C171.486 10.4297 170.296 12.1809 168.965 13.6985L164.318 18.952V19.489H172.537L173.097 15.87Z" fill="#00FFFF"/>
<path d="M168.521 39.695C170.599 39.695 171.51 41.4928 171.51 43.5709C171.51 46.3727 170.016 47.4467 168.661 47.4467C167.424 47.4467 165.416 46.8397 164.786 45.0418C164.902 45.0885 165.019 45.0885 165.136 45.0885C165.696 45.0885 166.116 44.7149 166.116 44.1079C166.116 43.4308 165.603 43.1272 165.136 43.1272C164.739 43.1272 164.132 43.314 164.132 44.1779C164.132 46.326 166.233 48.0071 168.708 48.0071C171.3 48.0071 173.285 45.9758 173.285 43.5942C173.285 41.3294 171.417 39.695 169.198 39.4382C170.973 39.0646 172.677 37.4769 172.677 35.3521C172.677 33.5309 170.833 32.2001 168.732 32.2001C166.607 32.2001 164.739 33.5076 164.739 35.3755C164.739 36.1927 165.346 36.3328 165.649 36.3328C166.14 36.3328 166.56 36.0293 166.56 35.4222C166.56 34.8151 166.14 34.5116 165.649 34.5116C165.556 34.5116 165.439 34.5116 165.346 34.5583C166.023 33.0173 167.868 32.7371 168.685 32.7371C169.502 32.7371 171.043 33.134 171.043 35.3755C171.043 36.0293 170.95 37.1967 170.156 38.224C169.455 39.1346 168.661 39.1813 167.891 39.2514C167.774 39.2514 167.237 39.2981 167.144 39.2981C166.98 39.3214 166.887 39.3448 166.887 39.5082C166.887 39.6716 166.91 39.695 167.377 39.695H168.521Z" fill="#00FFFF"/>
<path d="M171.206 60.6714C171.206 60.1811 171.183 60.1577 170.763 60.1577L163.828 71.2016V71.8087H169.852V74.0969C169.852 74.9374 169.805 75.1709 168.171 75.1709H167.727V75.778C168.475 75.7313 169.735 75.7313 170.529 75.7313C171.323 75.7313 172.584 75.7313 173.331 75.778V75.1709H172.887C171.253 75.1709 171.206 74.9374 171.206 74.0969V71.8087H173.588V71.2016H171.206V60.6714ZM169.922 62.2124V71.2016H164.295L169.922 62.2124Z" fill="#00FFFF"/>
<path d="M180.396 42.0042H182.008V0H174.232V1.61106H180.396V42.0042Z" fill="#00FFFF"/>
<path d="M180.396 82.3978H174.232V84.0089H182.008V42.0046H180.396V82.3978Z" fill="#00FFFF"/>
<path d="M198.243 55.9904H202.726V55.0564H199.177V28.9293H202.726V27.9954H198.243V55.9904Z" fill="#00FFFF"/>
<path d="M209.466 32.7137C209.466 32.2234 209.442 32.2001 209.115 32.2001C208.205 33.2975 206.827 33.6477 205.52 33.6944C205.45 33.6944 205.333 33.6944 205.309 33.7411C205.286 33.7878 205.286 33.8345 205.286 34.3248C206.01 34.3248 207.224 34.1847 208.158 33.6243V45.9291C208.158 46.7463 208.111 47.0265 206.103 47.0265H205.403V47.6335C206.524 47.6102 207.691 47.5868 208.812 47.5868C209.933 47.5868 211.1 47.6102 212.221 47.6335V47.0265H211.52C209.512 47.0265 209.466 46.7696 209.466 45.9291V32.7137Z" fill="#00FFFF"/>
<path d="M227.696 39.5782C227.696 33.9979 230.311 32.7371 231.829 32.7371C232.319 32.7371 233.51 32.8305 233.977 33.7411C233.603 33.7411 232.903 33.7411 232.903 34.5583C232.903 35.1887 233.417 35.3988 233.743 35.3988C233.954 35.3988 234.584 35.3054 234.584 34.5116C234.584 33.0406 233.417 32.2001 231.805 32.2001C229.027 32.2001 226.108 35.0953 226.108 40.2554C226.108 46.6062 228.747 48.0071 230.615 48.0071C232.88 48.0071 235.028 45.9758 235.028 42.8471C235.028 39.9285 233.136 37.8037 230.755 37.8037C229.331 37.8037 228.28 38.7377 227.696 40.3721V39.5782ZM230.615 47.4467C227.743 47.4467 227.743 43.1506 227.743 42.2867C227.743 40.6056 228.537 38.1773 230.708 38.1773C231.105 38.1773 232.249 38.1773 233.02 39.7884C233.44 40.699 233.44 41.6563 233.44 42.8237C233.44 44.0845 233.44 45.0185 232.95 45.9524C232.436 46.9097 231.689 47.4467 230.615 47.4467Z" fill="#00FFFF"/>
<path d="M240.925 55.9904V27.9954H236.442V28.9293H239.991V55.0564H236.442V55.9904H240.925Z" fill="#00FFFF"/>
<path d="M259.648 42.4249H265.836C266.163 42.4249 266.56 42.4249 266.56 42.028C266.56 41.6077 266.186 41.6077 265.836 41.6077H259.648V35.4203C259.648 35.0935 259.648 34.6965 259.251 34.6965C258.831 34.6965 258.831 35.0701 258.831 35.4203V41.6077H252.644C252.317 41.6077 251.92 41.6077 251.92 42.0047C251.92 42.4249 252.293 42.4249 252.644 42.4249H258.831V48.6123C258.831 48.9392 258.831 49.3361 259.228 49.3361C259.648 49.3361 259.648 48.9626 259.648 48.6123V42.4249Z" fill="#00FFFF"/>
<path d="M280.454 42.0042H282.065V1.61106H288.229V0H280.454V42.0042Z" fill="#00FFFF"/>
<path d="M280.454 84.0089H288.229V82.3978H282.065V42.0046H280.454V84.0089Z" fill="#00FFFF"/>
<path d="M298.939 4.94283V4.42916H293.452C290.72 4.42916 290.673 4.12563 290.58 3.68201H290.16L289.482 8.04821H289.903C289.973 7.60458 290.136 6.4138 290.416 5.97017C290.556 5.78339 292.284 5.78339 292.681 5.78339H297.818L295.226 9.63591C293.498 12.2276 292.308 15.7299 292.308 18.7886C292.308 19.0688 292.308 19.8626 293.148 19.8626C293.989 19.8626 293.989 19.0688 293.989 18.7652V17.6912C293.989 13.862 294.642 11.3404 295.717 9.72931L298.939 4.94283Z" fill="#00FFFF"/>
<path d="M294.759 39.228C296.23 38.4809 297.724 37.3601 297.724 35.5623C297.724 33.4376 295.67 32.2001 293.778 32.2001C291.654 32.2001 289.786 33.7411 289.786 35.8658C289.786 36.4495 289.926 37.4535 290.836 38.3408C291.07 38.5743 292.051 39.2747 292.681 39.7183C291.63 40.2554 289.179 41.5395 289.179 44.1079C289.179 46.5128 291.467 48.0071 293.732 48.0071C296.23 48.0071 298.331 46.2093 298.331 43.8277C298.331 41.703 296.907 40.7223 295.973 40.0919L294.759 39.228ZM291.7 37.1733C291.514 37.0566 290.58 36.3328 290.58 35.2354C290.58 33.8111 292.051 32.7371 293.732 32.7371C295.576 32.7371 296.93 34.0446 296.93 35.5623C296.93 37.7337 294.502 38.9712 294.385 38.9712C294.362 38.9712 294.339 38.9712 294.152 38.8311L291.7 37.1733ZM295.997 41.9598C296.347 42.2166 297.467 42.9871 297.467 44.4114C297.467 46.1392 295.74 47.4467 293.778 47.4467C291.654 47.4467 290.043 45.9291 290.043 44.0845C290.043 42.24 291.467 40.699 293.078 39.9752L295.997 41.9598Z" fill="#00FFFF"/>
<path d="M296.626 68.8667C296.626 74.0034 294.502 75.5911 292.751 75.5911C292.214 75.5911 290.906 75.5211 290.369 74.6105C290.976 74.7039 291.42 74.377 291.42 73.7933C291.42 73.1629 290.906 72.9528 290.579 72.9528C290.369 72.9528 289.739 73.0461 289.739 73.84C289.739 75.4277 291.116 76.1515 292.797 76.1515C295.482 76.1515 298.214 73.2096 298.214 68.0729C298.214 61.6754 295.599 60.3445 293.825 60.3445C291.513 60.3445 289.295 62.3758 289.295 65.5045C289.295 68.3998 291.186 70.5478 293.568 70.5478C295.529 70.5478 296.393 68.7266 296.626 67.9561V68.8667ZM293.614 70.1743C292.984 70.1743 292.097 70.0575 291.373 68.6566C290.883 67.746 290.883 66.672 290.883 65.5279C290.883 64.1503 290.883 63.193 291.536 62.1657C291.863 61.6754 292.47 60.8815 293.825 60.8815C296.58 60.8815 296.58 65.1076 296.58 66.0416C296.58 67.6993 295.833 70.1743 293.614 70.1743Z" fill="#00FFFF"/>
<path d="M305.443 42.0042H307.054V0H299.279V1.61106H305.443V42.0042Z" fill="#00FFFF"/>
<path d="M305.443 82.3978H299.279V84.0089H307.054V42.0046H305.443V82.3978Z" fill="#00FFFF"/>
<path d="M323.29 55.9904H327.773V55.0564H324.224V28.9293H327.773V27.9954H323.29V55.9904Z" fill="#00FFFF"/>
<path d="M338.109 40.1386C338.109 38.7143 338.085 36.2861 337.105 34.4182C336.241 32.7838 334.863 32.2001 333.649 32.2001C332.528 32.2001 331.104 32.7137 330.217 34.3948C329.283 36.146 329.189 38.3174 329.189 40.1386C329.189 41.4695 329.213 43.5008 329.937 45.2753C330.941 47.6802 332.738 48.0071 333.649 48.0071C334.723 48.0071 336.357 47.5635 337.315 45.3454C338.015 43.7343 338.109 41.8431 338.109 40.1386ZM333.649 47.6335C332.155 47.6335 331.267 46.3494 330.941 44.5749C330.684 43.1973 330.684 41.1893 330.684 39.8818C330.684 38.0839 330.684 36.5896 330.987 35.1654C331.431 33.1807 332.738 32.5737 333.649 32.5737C334.606 32.5737 335.844 33.2041 336.287 35.1187C336.591 36.4495 336.614 38.0139 336.614 39.8818C336.614 41.3994 336.614 43.2673 336.334 44.6449C335.844 47.1899 334.466 47.6335 333.649 47.6335Z" fill="#00FFFF"/>
<path d="M360.074 40.1386C360.074 38.7143 360.051 36.2861 359.07 34.4182C358.207 32.7838 356.829 32.2001 355.615 32.2001C354.494 32.2001 353.07 32.7137 352.183 34.3948C351.249 36.146 351.155 38.3174 351.155 40.1386C351.155 41.4695 351.179 43.5008 351.902 45.2753C352.906 47.6802 354.704 48.0071 355.615 48.0071C356.689 48.0071 358.323 47.5635 359.281 45.3454C359.981 43.7343 360.074 41.8431 360.074 40.1386ZM355.615 47.6335C354.121 47.6335 353.233 46.3494 352.906 44.5749C352.65 43.1973 352.65 41.1893 352.65 39.8818C352.65 38.0839 352.65 36.5896 352.953 35.1654C353.397 33.1807 354.704 32.5737 355.615 32.5737C356.572 32.5737 357.81 33.2041 358.253 35.1187C358.557 36.4495 358.58 38.0139 358.58 39.8818C358.58 41.3994 358.58 43.2673 358.3 44.6449C357.81 47.1899 356.432 47.6335 355.615 47.6335Z" fill="#00FFFF"/>
<path d="M365.972 55.9904V27.9954H361.489V28.9293H365.038V55.0564H361.489V55.9904H365.972Z" fill="#00FFFF"/>
</svg>
