<svg width="402" height="139" viewBox="0 0 402 139" fill="none" xmlns="http://www.w3.org/2000/svg">
<path d="M0 102.013H6.14069V100.729H1.28418V47.2842H6.14069V46H0V102.013Z" fill="#00FFFF"/>
<path d="M10.4547 62.9835C9.63751 64.3611 8.84366 64.8281 7.72292 64.8981C7.46609 64.9215 7.2793 64.9215 7.2793 65.3417C7.2793 65.4818 7.39604 65.5752 7.55948 65.5752C7.97976 65.5752 9.03045 65.5285 9.45072 65.5285C10.1278 65.5285 10.875 65.5752 11.5288 65.5752C11.6688 65.5752 11.949 65.5752 11.949 65.1316C11.949 64.9215 11.7622 64.8981 11.6221 64.8981C11.0851 64.8514 10.6415 64.6646 10.6415 64.1043C10.6415 63.7774 10.7816 63.5206 11.0851 63.0069L12.8596 60.065H18.8135C18.8369 60.2751 18.8369 60.4619 18.8602 60.672C18.9303 61.2791 19.2105 63.7073 19.2105 64.151C19.2105 64.8514 18.0197 64.8981 17.6461 64.8981C17.3893 64.8981 17.1324 64.8981 17.1324 65.3184C17.1324 65.5752 17.3426 65.5752 17.4827 65.5752C17.8796 65.5752 18.3466 65.5285 18.7435 65.5285H20.0744C21.4986 65.5285 22.526 65.5752 22.5493 65.5752C22.7128 65.5752 22.9696 65.5752 22.9696 65.1316C22.9696 64.8981 22.7595 64.8981 22.4092 64.8981C21.125 64.8981 21.1017 64.688 21.0317 63.9875L19.6074 49.418C19.5607 48.951 19.4673 48.9043 19.2105 48.9043C18.977 48.9043 18.8369 48.951 18.6267 49.3012L10.4547 62.9835ZM13.2566 59.3878L17.9496 51.5427L18.7435 59.3878H13.2566Z" fill="#00FFFF"/>
<path d="M28.2932 58.6862C28.2932 58.3133 28.2932 58.2971 27.969 58.2971C27.5799 58.7348 26.7694 59.3346 25.0996 59.3346V59.8048C25.4725 59.8048 26.283 59.8048 27.1746 59.3833V67.8293C27.1746 68.4129 27.126 68.6074 25.6994 68.6074H25.1969V69.0776C25.6346 69.0451 27.2071 69.0451 27.742 69.0451C28.277 69.0451 29.8333 69.0451 30.271 69.0776V68.6074H29.7684C28.3418 68.6074 28.2932 68.4129 28.2932 67.8293V58.6862Z" fill="#00FFFF"/>
<path d="M47.3512 62.9835C46.534 64.3611 45.7401 64.8281 44.6194 64.8981C44.3626 64.9215 44.1758 64.9215 44.1758 65.3417C44.1758 65.4818 44.2925 65.5752 44.456 65.5752C44.8762 65.5752 45.9269 65.5285 46.3472 65.5285C47.0243 65.5285 47.7715 65.5752 48.4252 65.5752C48.5653 65.5752 48.8455 65.5752 48.8455 65.1316C48.8455 64.9215 48.6587 64.8981 48.5186 64.8981C47.9816 64.8514 47.538 64.6646 47.538 64.1043C47.538 63.7774 47.6781 63.5206 47.9816 63.0069L49.7561 60.065H55.71C55.7334 60.2751 55.7334 60.4619 55.7567 60.672C55.8268 61.2791 56.1069 63.7073 56.1069 64.151C56.1069 64.8514 54.9162 64.8981 54.5426 64.8981C54.2857 64.8981 54.0289 64.8981 54.0289 65.3184C54.0289 65.5752 54.239 65.5752 54.3791 65.5752C54.7761 65.5752 55.243 65.5285 55.64 65.5285H56.9708C58.3951 65.5285 59.4224 65.5752 59.4458 65.5752C59.6092 65.5752 59.8661 65.5752 59.8661 65.1316C59.8661 64.8981 59.6559 64.8981 59.3057 64.8981C58.0215 64.8981 57.9982 64.688 57.9281 63.9875L56.5039 49.418C56.4572 48.951 56.3638 48.9043 56.1069 48.9043C55.8735 48.9043 55.7334 48.951 55.5232 49.3012L47.3512 62.9835ZM50.153 59.3878L54.8461 51.5427L55.64 59.3878H50.153Z" fill="#00FFFF"/>
<path d="M67.653 66.3541H67.2964C67.2478 66.6297 67.1181 67.5213 66.956 67.7807C66.8425 67.9266 65.9184 67.9266 65.4321 67.9266H62.433C62.8707 67.5537 63.8596 66.5162 64.2811 66.1271C66.7452 63.8576 67.653 63.0146 67.653 61.4097C67.653 59.5454 66.1778 58.2971 64.2973 58.2971C62.4168 58.2971 61.3145 59.902 61.3145 61.2962C61.3145 62.123 62.0277 62.123 62.0764 62.123C62.4168 62.123 62.8383 61.8798 62.8383 61.361C62.8383 60.9071 62.5303 60.5991 62.0764 60.5991C61.9305 60.5991 61.8981 60.5991 61.8494 60.6153C62.1574 59.513 63.0328 58.7672 64.0866 58.7672C65.4645 58.7672 66.3075 59.9182 66.3075 61.4097C66.3075 62.7876 65.5132 63.9873 64.5891 65.0248L61.3145 68.6885V69.0776H67.2315L67.653 66.3541Z" fill="#00FFFF"/>
<path d="M10.4547 91.1281C9.63751 92.5056 8.84366 92.9726 7.72292 93.0427C7.46609 93.066 7.2793 93.066 7.2793 93.4863C7.2793 93.6264 7.39604 93.7198 7.55948 93.7198C7.97976 93.7198 9.03045 93.6731 9.45072 93.6731C10.1278 93.6731 10.875 93.7198 11.5288 93.7198C11.6688 93.7198 11.949 93.7198 11.949 93.2761C11.949 93.066 11.7622 93.0427 11.6221 93.0427C11.0851 92.996 10.6415 92.8092 10.6415 92.2488C10.6415 91.9219 10.7816 91.6651 11.0851 91.1514L12.8596 88.2095H18.8135C18.8369 88.4196 18.8369 88.6064 18.8602 88.8165C18.9303 89.4236 19.2105 91.8519 19.2105 92.2955C19.2105 92.996 18.0197 93.0427 17.6461 93.0427C17.3893 93.0427 17.1324 93.0427 17.1324 93.4629C17.1324 93.7198 17.3426 93.7198 17.4827 93.7198C17.8796 93.7198 18.3466 93.6731 18.7435 93.6731H20.0744C21.4986 93.6731 22.526 93.7198 22.5493 93.7198C22.7128 93.7198 22.9696 93.7198 22.9696 93.2761C22.9696 93.0427 22.7595 93.0427 22.4092 93.0427C21.125 93.0427 21.1017 92.8325 21.0317 92.1321L19.6074 77.5625C19.5607 77.0955 19.4673 77.0488 19.2105 77.0488C18.977 77.0488 18.8369 77.0955 18.6267 77.4458L10.4547 91.1281ZM13.2566 87.5324L17.9496 79.6872L18.7435 87.5324H13.2566Z" fill="#00FFFF"/>
<path d="M26.6073 91.4022C26.3317 91.4184 26.2668 91.4346 26.2668 91.5805C26.2668 91.7426 26.3479 91.7426 26.6397 91.7426H27.3854C28.7634 91.7426 29.3794 92.8774 29.3794 94.4337C29.3794 96.5573 28.277 97.1247 27.4827 97.1247C26.7045 97.1247 25.3752 96.7519 24.9051 95.6819C25.4238 95.763 25.894 95.4712 25.894 94.8876C25.894 94.4174 25.5535 94.0932 25.0996 94.0932C24.7106 94.0932 24.2891 94.3202 24.2891 94.9362C24.2891 96.379 25.7319 97.5624 27.5313 97.5624C29.4604 97.5624 30.887 96.0872 30.887 94.4499C30.887 92.9584 29.6874 91.7912 28.1311 91.5156C29.5415 91.1104 30.4493 89.9269 30.4493 88.6625C30.4493 87.3818 29.12 86.4415 27.5475 86.4415C25.9264 86.4415 24.7268 87.4304 24.7268 88.6138C24.7268 89.2623 25.2293 89.392 25.4725 89.392C25.8129 89.392 26.202 89.1488 26.202 88.6625C26.202 88.1437 25.8129 87.9167 25.4563 87.9167C25.359 87.9167 25.3266 87.9167 25.2779 87.933C25.894 86.8306 27.4178 86.8306 27.4989 86.8306C28.0338 86.8306 29.0876 87.0738 29.0876 88.6625C29.0876 88.9705 29.0389 89.8783 28.5688 90.5754C28.0825 91.2887 27.5313 91.3373 27.0936 91.3535L26.6073 91.4022Z" fill="#00FFFF"/>
<path d="M47.3512 91.1281C46.534 92.5056 45.7401 92.9726 44.6194 93.0427C44.3626 93.066 44.1758 93.066 44.1758 93.4863C44.1758 93.6264 44.2925 93.7198 44.456 93.7198C44.8762 93.7198 45.9269 93.6731 46.3472 93.6731C47.0243 93.6731 47.7715 93.7198 48.4252 93.7198C48.5653 93.7198 48.8455 93.7198 48.8455 93.2761C48.8455 93.066 48.6587 93.0427 48.5186 93.0427C47.9816 92.996 47.538 92.8092 47.538 92.2488C47.538 91.9219 47.6781 91.6651 47.9816 91.1514L49.7561 88.2095H55.71C55.7334 88.4196 55.7334 88.6064 55.7567 88.8165C55.8268 89.4236 56.1069 91.8519 56.1069 92.2955C56.1069 92.996 54.9162 93.0427 54.5426 93.0427C54.2857 93.0427 54.0289 93.0427 54.0289 93.4629C54.0289 93.7198 54.239 93.7198 54.3791 93.7198C54.7761 93.7198 55.243 93.6731 55.64 93.6731H56.9708C58.3951 93.6731 59.4224 93.7198 59.4458 93.7198C59.6092 93.7198 59.8661 93.7198 59.8661 93.2761C59.8661 93.0427 59.6559 93.0427 59.3057 93.0427C58.0215 93.0427 57.9982 92.8325 57.9281 92.1321L56.5039 77.5625C56.4572 77.0955 56.3638 77.0488 56.1069 77.0488C55.8735 77.0488 55.7334 77.0955 55.5232 77.4458L47.3512 91.1281ZM50.153 87.5324L54.8461 79.6872L55.64 87.5324H50.153Z" fill="#00FFFF"/>
<path d="M66.3725 86.6685C66.3725 86.3605 66.3725 86.2794 66.1456 86.2794C66.0159 86.2794 65.9673 86.2794 65.8376 86.474L60.958 94.0446V94.5147H65.2216V95.9899C65.2216 96.5897 65.1891 96.7519 64.0057 96.7519H63.6815V97.222C64.0543 97.1896 65.335 97.1896 65.7889 97.1896C66.2429 97.1896 67.5398 97.1896 67.9126 97.222V96.7519H67.5884C66.4212 96.7519 66.3725 96.5897 66.3725 95.9899V94.5147H68.0099V94.0446H66.3725V86.6685ZM65.3026 87.933V94.0446H61.3633L65.3026 87.933Z" fill="#00FFFF"/>
<path d="M74.2032 100.729H69.3467V102.013H75.4874V46H69.3467V47.2842H74.2032V100.729Z" fill="#00FFFF"/>
<path d="M91.0713 102.013H97.212V100.729H92.3555V47.2842H97.212V46H91.0713V102.013Z" fill="#00FFFF"/>
<path d="M106.103 51.2159C106.313 50.352 106.406 50.3053 107.317 50.3053H110.352C112.99 50.3053 112.99 52.5468 112.99 52.7569C112.99 54.6481 111.099 57.053 108.017 57.053H104.655L106.103 51.2159ZM110.049 57.2398C112.594 56.7729 114.905 54.9984 114.905 52.8503C114.905 51.0291 113.294 49.6282 110.656 49.6282H103.161C102.717 49.6282 102.507 49.6282 102.507 50.0718C102.507 50.3053 102.717 50.3053 103.067 50.3053C104.492 50.3053 104.492 50.4921 104.492 50.7489C104.492 50.7956 104.492 50.9357 104.398 51.2859L101.246 63.8475C101.036 64.6647 100.989 64.8982 99.3548 64.8982C98.9112 64.8982 98.6777 64.8982 98.6777 65.3185C98.6777 65.5753 98.8178 65.5753 99.2848 65.5753H107.293C110.866 65.5753 113.621 62.8669 113.621 60.5086C113.621 58.5941 111.94 57.4266 110.049 57.2398ZM106.733 64.8982H103.581C103.254 64.8982 103.207 64.8982 103.067 64.8748C102.81 64.8515 102.787 64.8048 102.787 64.618C102.787 64.4546 102.834 64.3145 102.88 64.1043L104.515 57.52H108.904C111.66 57.52 111.66 60.0884 111.66 60.2752C111.66 62.5166 109.628 64.8982 106.733 64.8982Z" fill="#00FFFF"/>
<path d="M119.594 58.6862C119.594 58.3133 119.594 58.2971 119.27 58.2971C118.881 58.7348 118.07 59.3346 116.4 59.3346V59.8048C116.773 59.8048 117.584 59.8048 118.475 59.3833V67.8293C118.475 68.4129 118.427 68.6074 117 68.6074H116.498V69.0776C116.935 69.0451 118.508 69.0451 119.043 69.0451C119.578 69.0451 121.134 69.0451 121.572 69.0776V68.6074H121.069C119.643 68.6074 119.594 68.4129 119.594 67.8293V58.6862Z" fill="#00FFFF"/>
<path d="M143.228 51.2159C143.438 50.352 143.531 50.3053 144.442 50.3053H147.477C150.115 50.3053 150.115 52.5468 150.115 52.7569C150.115 54.6481 148.224 57.053 145.142 57.053H141.78L143.228 51.2159ZM147.174 57.2398C149.719 56.7729 152.03 54.9984 152.03 52.8503C152.03 51.0291 150.419 49.6282 147.781 49.6282H140.286C139.842 49.6282 139.632 49.6282 139.632 50.0718C139.632 50.3053 139.842 50.3053 140.192 50.3053C141.617 50.3053 141.617 50.4921 141.617 50.7489C141.617 50.7956 141.617 50.9357 141.523 51.2859L138.371 63.8475C138.161 64.6647 138.114 64.8982 136.48 64.8982C136.036 64.8982 135.803 64.8982 135.803 65.3185C135.803 65.5753 135.943 65.5753 136.41 65.5753H144.418C147.991 65.5753 150.746 62.8669 150.746 60.5086C150.746 58.5941 149.065 57.4266 147.174 57.2398ZM143.858 64.8982H140.706C140.379 64.8982 140.332 64.8982 140.192 64.8748C139.935 64.8515 139.912 64.8048 139.912 64.618C139.912 64.4546 139.959 64.3145 140.005 64.1043L141.64 57.52H146.029C148.785 57.52 148.785 60.0884 148.785 60.2752C148.785 62.5166 146.753 64.8982 143.858 64.8982Z" fill="#00FFFF"/>
<path d="M159.183 66.3541H158.827C158.778 66.6297 158.648 67.5213 158.486 67.7807C158.373 67.9266 157.449 67.9266 156.962 67.9266H153.963C154.401 67.5537 155.39 66.5162 155.811 66.1271C158.275 63.8576 159.183 63.0146 159.183 61.4097C159.183 59.5454 157.708 58.2971 155.828 58.2971C153.947 58.2971 152.845 59.902 152.845 61.2962C152.845 62.123 153.558 62.123 153.607 62.123C153.947 62.123 154.369 61.8798 154.369 61.361C154.369 60.9071 154.061 60.5991 153.607 60.5991C153.461 60.5991 153.428 60.5991 153.38 60.6153C153.688 59.513 154.563 58.7672 155.617 58.7672C156.995 58.7672 157.838 59.9182 157.838 61.4097C157.838 62.7876 157.043 63.9873 156.119 65.0248L152.845 68.6885V69.0776H158.762L159.183 66.3541Z" fill="#00FFFF"/>
<path d="M106.103 79.3603C106.313 78.4964 106.406 78.4497 107.317 78.4497H110.352C112.99 78.4497 112.99 80.6912 112.99 80.9013C112.99 82.7925 111.099 85.1975 108.017 85.1975H104.655L106.103 79.3603ZM110.049 85.3842C112.594 84.9173 114.905 83.1428 114.905 80.9947C114.905 79.1735 113.294 77.7726 110.656 77.7726H103.161C102.717 77.7726 102.507 77.7726 102.507 78.2162C102.507 78.4497 102.717 78.4497 103.067 78.4497C104.492 78.4497 104.492 78.6365 104.492 78.8933C104.492 78.94 104.492 79.0801 104.398 79.4303L101.246 91.9919C101.036 92.8091 100.989 93.0426 99.3548 93.0426C98.9112 93.0426 98.6777 93.0426 98.6777 93.4629C98.6777 93.7197 98.8178 93.7197 99.2848 93.7197H107.293C110.866 93.7197 113.621 91.0113 113.621 88.6531C113.621 86.7385 111.94 85.571 110.049 85.3842ZM106.733 93.0426H103.581C103.254 93.0426 103.207 93.0426 103.067 93.0193C102.81 92.9959 102.787 92.9492 102.787 92.7624C102.787 92.599 102.834 92.4589 102.88 92.2487L104.515 85.6644H108.904C111.66 85.6644 111.66 88.2328 111.66 88.4196C111.66 90.661 109.628 93.0426 106.733 93.0426Z" fill="#00FFFF"/>
<path d="M117.908 91.4022C117.632 91.4184 117.568 91.4346 117.568 91.5805C117.568 91.7426 117.649 91.7426 117.94 91.7426H118.686C120.064 91.7426 120.68 92.8774 120.68 94.4337C120.68 96.5573 119.578 97.1247 118.783 97.1247C118.005 97.1247 116.676 96.7519 116.206 95.6819C116.725 95.763 117.195 95.4712 117.195 94.8876C117.195 94.4174 116.854 94.0932 116.4 94.0932C116.011 94.0932 115.59 94.3202 115.59 94.9362C115.59 96.379 117.033 97.5624 118.832 97.5624C120.761 97.5624 122.188 96.0872 122.188 94.4499C122.188 92.9584 120.988 91.7912 119.432 91.5156C120.842 91.1104 121.75 89.9269 121.75 88.6625C121.75 87.3818 120.421 86.4415 118.848 86.4415C117.227 86.4415 116.028 87.4304 116.028 88.6138C116.028 89.2623 116.53 89.392 116.773 89.392C117.114 89.392 117.503 89.1488 117.503 88.6625C117.503 88.1437 117.114 87.9167 116.757 87.9167C116.66 87.9167 116.627 87.9167 116.579 87.933C117.195 86.8306 118.719 86.8306 118.8 86.8306C119.335 86.8306 120.388 87.0738 120.388 88.6625C120.388 88.9705 120.34 89.8783 119.87 90.5754C119.383 91.2887 118.832 91.3373 118.394 91.3535L117.908 91.4022Z" fill="#00FFFF"/>
<path d="M143.228 79.3603C143.438 78.4964 143.531 78.4497 144.442 78.4497H147.477C150.115 78.4497 150.115 80.6912 150.115 80.9013C150.115 82.7925 148.224 85.1975 145.142 85.1975H141.78L143.228 79.3603ZM147.174 85.3842C149.719 84.9173 152.03 83.1428 152.03 80.9947C152.03 79.1735 150.419 77.7726 147.781 77.7726H140.286C139.842 77.7726 139.632 77.7726 139.632 78.2162C139.632 78.4497 139.842 78.4497 140.192 78.4497C141.617 78.4497 141.617 78.6365 141.617 78.8933C141.617 78.94 141.617 79.0801 141.523 79.4303L138.371 91.9919C138.161 92.8091 138.114 93.0426 136.48 93.0426C136.036 93.0426 135.803 93.0426 135.803 93.4629C135.803 93.7197 135.943 93.7197 136.41 93.7197H144.418C147.991 93.7197 150.746 91.0113 150.746 88.6531C150.746 86.7385 149.065 85.571 147.174 85.3842ZM143.858 93.0426H140.706C140.379 93.0426 140.332 93.0426 140.192 93.0193C139.935 92.9959 139.912 92.9492 139.912 92.7624C139.912 92.599 139.959 92.4589 140.005 92.2487L141.64 85.6644H146.029C148.785 85.6644 148.785 88.2328 148.785 88.4196C148.785 90.661 146.753 93.0426 143.858 93.0426Z" fill="#00FFFF"/>
<path d="M157.903 86.6685C157.903 86.3605 157.903 86.2794 157.676 86.2794C157.546 86.2794 157.498 86.2794 157.368 86.474L152.488 94.0446V94.5147H156.752V95.9899C156.752 96.5897 156.719 96.7519 155.536 96.7519H155.212V97.222C155.585 97.1896 156.865 97.1896 157.319 97.1896C157.773 97.1896 159.07 97.1896 159.443 97.222V96.7519H159.119C157.951 96.7519 157.903 96.5897 157.903 95.9899V94.5147H159.54V94.0446H157.903V86.6685ZM156.833 87.933V94.0446H152.894L156.833 87.933Z" fill="#00FFFF"/>
<path d="M165.733 100.729H160.877V102.013H167.018V46H160.877V47.2842H165.733V100.729Z" fill="#00FFFF"/>
<path d="M194.372 72.3609C194.722 72.3609 195.072 72.3609 195.072 71.964C195.072 71.5437 194.675 71.5437 194.278 71.5437H181.226C180.83 71.5437 180.433 71.5437 180.433 71.964C180.433 72.3609 180.783 72.3609 181.133 72.3609H194.372ZM194.278 76.517C194.675 76.517 195.072 76.517 195.072 76.0967C195.072 75.6998 194.722 75.6998 194.372 75.6998H181.133C180.783 75.6998 180.433 75.6998 180.433 76.0967C180.433 76.517 180.83 76.517 181.226 76.517H194.278Z" fill="#00FFFF"/>
<path d="M208.488 102.013H214.629V100.729H209.772V47.2842H214.629V46H208.488V102.013Z" fill="#00FFFF"/>
<path d="M282.857 100.729H278V102.013H284.141V46H278V47.2842H282.857V100.729Z" fill="#00FFFF"/>
<line y1="73.5" x2="75" y2="73.5" stroke="#00FFFF"/>
<line x1="37.5" y1="44" x2="37.5" y2="102" stroke="#00FFFF"/>
<line x1="129.5" y1="44" x2="129.5" y2="102" stroke="#00FFFF"/>
<line x1="247.5" y1="44" x2="247.5" y2="102" stroke="#00FFFF"/>
<line x1="91" y1="73.5" x2="166" y2="73.5" stroke="#00FFFF"/>
<line x1="209" y1="73.5" x2="284" y2="73.5" stroke="#00FFFF"/>
<path d="M287.455 131.984C286.638 133.361 285.844 133.828 284.723 133.898C284.466 133.921 284.279 133.921 284.279 134.342C284.279 134.482 284.396 134.575 284.559 134.575C284.98 134.575 286.03 134.529 286.451 134.529C287.128 134.529 287.875 134.575 288.529 134.575C288.669 134.575 288.949 134.575 288.949 134.132C288.949 133.921 288.762 133.898 288.622 133.898C288.085 133.851 287.642 133.665 287.642 133.104C287.642 132.777 287.782 132.521 288.085 132.007L289.86 129.065H295.814C295.837 129.275 295.837 129.462 295.86 129.672C295.93 130.279 296.21 132.707 296.21 133.151C296.21 133.851 295.02 133.898 294.646 133.898C294.389 133.898 294.132 133.898 294.132 134.318C294.132 134.575 294.343 134.575 294.483 134.575C294.88 134.575 295.347 134.529 295.743 134.529H297.074C298.499 134.529 299.526 134.575 299.549 134.575C299.713 134.575 299.97 134.575 299.97 134.132C299.97 133.898 299.759 133.898 299.409 133.898C298.125 133.898 298.102 133.688 298.032 132.988L296.607 118.418C296.561 117.951 296.467 117.904 296.21 117.904C295.977 117.904 295.837 117.951 295.627 118.301L287.455 131.984ZM290.257 128.388L294.95 120.543L295.743 128.388H290.257Z" fill="#00FFFF"/>
<path d="M305.293 127.686C305.293 127.313 305.293 127.297 304.969 127.297C304.58 127.735 303.769 128.335 302.1 128.335V128.805C302.472 128.805 303.283 128.805 304.175 128.383V136.829C304.175 137.413 304.126 137.607 302.699 137.607H302.197V138.078C302.635 138.045 304.207 138.045 304.742 138.045C305.277 138.045 306.833 138.045 307.271 138.078V137.607H306.768C305.342 137.607 305.293 137.413 305.293 136.829V127.686Z" fill="#00FFFF"/>
<path d="M356.175 132.079C355.358 133.457 354.564 133.924 353.444 133.994C353.187 134.017 353 134.017 353 134.437C353 134.578 353.117 134.671 353.28 134.671C353.7 134.671 354.751 134.624 355.171 134.624C355.849 134.624 356.596 134.671 357.249 134.671C357.39 134.671 357.67 134.671 357.67 134.227C357.67 134.017 357.483 133.994 357.343 133.994C356.806 133.947 356.362 133.76 356.362 133.2C356.362 132.873 356.502 132.616 356.806 132.103L358.58 129.161H364.534C364.558 129.371 364.558 129.558 364.581 129.768C364.651 130.375 364.931 132.803 364.931 133.247C364.931 133.947 363.74 133.994 363.367 133.994C363.11 133.994 362.853 133.994 362.853 134.414C362.853 134.671 363.063 134.671 363.203 134.671C363.6 134.671 364.067 134.624 364.464 134.624H365.795C367.219 134.624 368.247 134.671 368.27 134.671C368.433 134.671 368.69 134.671 368.69 134.227C368.69 133.994 368.48 133.994 368.13 133.994C366.846 133.994 366.822 133.784 366.752 133.083L365.328 118.514C365.281 118.047 365.188 118 364.931 118C364.698 118 364.558 118.047 364.347 118.397L356.175 132.079ZM358.977 128.484L363.67 120.638L364.464 128.484H358.977Z" fill="#00FFFF"/>
<path d="M376.477 135.45H376.121C376.072 135.725 375.942 136.617 375.78 136.876C375.667 137.022 374.743 137.022 374.256 137.022H371.257C371.695 136.649 372.684 135.612 373.105 135.223C375.569 132.953 376.477 132.11 376.477 130.505C376.477 128.641 375.002 127.393 373.122 127.393C371.241 127.393 370.139 128.998 370.139 130.392C370.139 131.219 370.852 131.219 370.901 131.219C371.241 131.219 371.663 130.975 371.663 130.457C371.663 130.003 371.355 129.695 370.901 129.695C370.755 129.695 370.722 129.695 370.674 129.711C370.982 128.609 371.857 127.863 372.911 127.863C374.289 127.863 375.132 129.014 375.132 130.505C375.132 131.883 374.337 133.083 373.413 134.12L370.139 137.784V138.173H376.056L376.477 135.45Z" fill="#00FFFF"/>
<path d="M316.425 119.588C316.635 118.724 316.728 118.677 317.639 118.677H320.674C323.313 118.677 323.313 120.919 323.313 121.129C323.313 123.02 321.421 125.425 318.339 125.425H314.977L316.425 119.588ZM320.371 125.612C322.916 125.145 325.227 123.37 325.227 121.222C325.227 119.401 323.616 118 320.978 118H313.483C313.039 118 312.829 118 312.829 118.444C312.829 118.677 313.039 118.677 313.39 118.677C314.814 118.677 314.814 118.864 314.814 119.121C314.814 119.167 314.814 119.308 314.72 119.658L311.568 132.219C311.358 133.037 311.312 133.27 309.677 133.27C309.233 133.27 309 133.27 309 133.69C309 133.947 309.14 133.947 309.607 133.947H317.616C321.188 133.947 323.943 131.239 323.943 128.88C323.943 126.966 322.262 125.798 320.371 125.612ZM317.055 133.27H313.903C313.576 133.27 313.53 133.27 313.39 133.247C313.133 133.223 313.109 133.177 313.109 132.99C313.109 132.826 313.156 132.686 313.203 132.476L314.837 125.892H319.227C321.982 125.892 321.982 128.46 321.982 128.647C321.982 130.888 319.951 133.27 317.055 133.27Z" fill="#00FFFF"/>
<path d="M329.916 127.058C329.916 126.685 329.916 126.669 329.592 126.669C329.203 127.107 328.392 127.706 326.723 127.706V128.177C327.096 128.177 327.906 128.177 328.798 127.755V136.201C328.798 136.785 328.749 136.979 327.322 136.979H326.82V137.449C327.258 137.417 328.83 137.417 329.365 137.417C329.9 137.417 331.456 137.417 331.894 137.449V136.979H331.391C329.965 136.979 329.916 136.785 329.916 136.201V127.058Z" fill="#00FFFF"/>
<path d="M385.425 119.588C385.635 118.724 385.728 118.677 386.639 118.677H389.674C392.313 118.677 392.313 120.919 392.313 121.129C392.313 123.02 390.421 125.425 387.339 125.425H383.977L385.425 119.588ZM389.371 125.612C391.916 125.145 394.227 123.37 394.227 121.222C394.227 119.401 392.616 118 389.978 118H382.483C382.039 118 381.829 118 381.829 118.444C381.829 118.677 382.039 118.677 382.39 118.677C383.814 118.677 383.814 118.864 383.814 119.121C383.814 119.167 383.814 119.308 383.72 119.658L380.568 132.219C380.358 133.037 380.312 133.27 378.677 133.27C378.233 133.27 378 133.27 378 133.69C378 133.947 378.14 133.947 378.607 133.947H386.616C390.188 133.947 392.943 131.239 392.943 128.88C392.943 126.966 391.262 125.798 389.371 125.612ZM386.055 133.27H382.903C382.576 133.27 382.53 133.27 382.39 133.247C382.133 133.223 382.109 133.177 382.109 132.99C382.109 132.826 382.156 132.686 382.203 132.476L383.837 125.892H388.227C390.982 125.892 390.982 128.46 390.982 128.647C390.982 130.888 388.951 133.27 386.055 133.27Z" fill="#00FFFF"/>
<path d="M397.23 131.63C396.955 131.646 396.89 131.662 396.89 131.808C396.89 131.97 396.971 131.97 397.263 131.97H398.008C399.386 131.97 400.002 133.105 400.002 134.661C400.002 136.785 398.9 137.352 398.106 137.352C397.328 137.352 395.998 136.979 395.528 135.909C396.047 135.99 396.517 135.699 396.517 135.115C396.517 134.645 396.177 134.321 395.723 134.321C395.334 134.321 394.912 134.548 394.912 135.164C394.912 136.606 396.355 137.79 398.154 137.79C400.083 137.79 401.51 136.315 401.51 134.677C401.51 133.186 400.31 132.019 398.754 131.743C400.165 131.338 401.072 130.154 401.072 128.89C401.072 127.609 399.743 126.669 398.171 126.669C396.549 126.669 395.35 127.658 395.35 128.841C395.35 129.49 395.852 129.619 396.096 129.619C396.436 129.619 396.825 129.376 396.825 128.89C396.825 128.371 396.436 128.144 396.079 128.144C395.982 128.144 395.95 128.144 395.901 128.16C396.517 127.058 398.041 127.058 398.122 127.058C398.657 127.058 399.711 127.301 399.711 128.89C399.711 129.198 399.662 130.106 399.192 130.803C398.706 131.516 398.154 131.565 397.717 131.581L397.23 131.63Z" fill="#00FFFF"/>
<path d="M344.369 127.373H348.334V129.082H344.369V133.574H342.553V129.082H338.588V127.373H342.553V123.223H344.369V127.373Z" fill="#00FFFF"/>
<path d="M226.042 60.5018C225.767 60.4785 225.525 60.6826 225.502 60.9578L225.122 65.4417C225.098 65.7169 225.303 65.9588 225.578 65.9821C225.853 66.0055 226.095 65.8013 226.118 65.5261L226.456 61.5404L230.442 61.8782C230.717 61.9015 230.959 61.6974 230.982 61.4222C231.005 61.1471 230.801 60.9051 230.526 60.8818L226.042 60.5018ZM280.382 124.678L226.382 60.6776L225.618 61.3224L279.618 125.322L280.382 124.678Z" fill="#00FFFF"/>
</svg>
