<svg width="181" height="21" viewBox="0 0 181 21" fill="none" xmlns="http://www.w3.org/2000/svg">
<path d="M3.96936 17.8292C3.15216 19.2068 2.3583 19.6738 1.23757 19.7438C0.980734 19.7672 0.793945 19.7672 0.793945 20.1874C0.793945 20.3275 0.910688 20.4209 1.07413 20.4209C1.4944 20.4209 2.54509 20.3742 2.96537 20.3742C3.64248 20.3742 4.38964 20.4209 5.0434 20.4209C5.18349 20.4209 5.46367 20.4209 5.46367 19.9773C5.46367 19.7672 5.27689 19.7438 5.13679 19.7438C4.59977 19.6971 4.15615 19.5103 4.15615 18.95C4.15615 18.6231 4.29624 18.3663 4.59978 17.8526L6.37427 14.9107H12.3282C12.3515 15.1208 12.3515 15.3076 12.3749 15.5177C12.4449 16.1248 12.7251 18.553 12.7251 18.9967C12.7251 19.6971 11.5343 19.7438 11.1607 19.7438C10.9039 19.7438 10.6471 19.7438 10.6471 20.1641C10.6471 20.4209 10.8572 20.4209 10.9973 20.4209C11.3942 20.4209 11.8612 20.3742 12.2581 20.3742H13.589C15.0133 20.3742 16.0406 20.4209 16.064 20.4209C16.2274 20.4209 16.4842 20.4209 16.4842 19.9773C16.4842 19.7438 16.2741 19.7438 15.9239 19.7438C14.6397 19.7438 14.6163 19.5337 14.5463 18.8332L13.122 4.26367C13.0753 3.7967 12.9819 3.75 12.7251 3.75C12.4916 3.75 12.3515 3.7967 12.1414 4.14693L3.96936 17.8292ZM6.7712 14.2335L11.4643 6.3884L12.2581 14.2335H6.7712Z" fill="#00FFFF"/>
<path d="M27.822 7.05189C28.0976 7.05189 28.3894 7.05189 28.3894 6.72767C28.3894 6.40344 28.0976 6.40344 27.822 6.40344H19.0518C18.7762 6.40344 18.4844 6.40344 18.4844 6.72767C18.4844 7.05189 18.7762 7.05189 19.0518 7.05189H27.822Z" fill="#00FFFF"/>
<path d="M34.4163 0.389069C34.4163 0.0162108 34.4163 0 34.092 0C33.703 0.437702 32.8924 1.03752 31.2227 1.03752V1.50764C31.5955 1.50764 32.4061 1.50764 33.2977 1.08615V9.53219C33.2977 10.1158 33.2491 10.3103 31.8225 10.3103H31.3199V10.7804C31.7576 10.748 33.3301 10.748 33.8651 10.748C34.4001 10.748 35.9563 10.748 36.394 10.7804V10.3103H35.8915C34.4649 10.3103 34.4163 10.1158 34.4163 9.53219V0.389069Z" fill="#00FFFF"/>
<path d="M42.2164 17.8292C41.3992 19.2068 40.6054 19.6738 39.4846 19.7438C39.2278 19.7672 39.041 19.7672 39.041 20.1874C39.041 20.3275 39.1578 20.4209 39.3212 20.4209C39.7415 20.4209 40.7922 20.3742 41.2124 20.3742C41.8896 20.3742 42.6367 20.4209 43.2905 20.4209C43.4306 20.4209 43.7107 20.4209 43.7107 19.9773C43.7107 19.7672 43.524 19.7438 43.3839 19.7438C42.8468 19.6971 42.4032 19.5103 42.4032 18.95C42.4032 18.6231 42.5433 18.3663 42.8468 17.8526L44.6213 14.9107H50.5752C50.5986 15.1208 50.5986 15.3076 50.6219 15.5177C50.692 16.1248 50.9722 18.553 50.9722 18.9967C50.9722 19.6971 49.7814 19.7438 49.4078 19.7438C49.151 19.7438 48.8941 19.7438 48.8941 20.1641C48.8941 20.4209 49.1043 20.4209 49.2444 20.4209C49.6413 20.4209 50.1083 20.3742 50.5052 20.3742H51.8361C53.2603 20.3742 54.2877 20.4209 54.311 20.4209C54.4745 20.4209 54.7313 20.4209 54.7313 19.9773C54.7313 19.7438 54.5212 19.7438 54.1709 19.7438C52.8868 19.7438 52.8634 19.5337 52.7934 18.8332L51.3691 4.26367C51.3224 3.7967 51.229 3.75 50.9722 3.75C50.7387 3.75 50.5986 3.7967 50.3885 4.14693L42.2164 17.8292ZM45.0183 14.2335L49.7113 6.3884L50.5052 14.2335H45.0183Z" fill="#00FFFF"/>
<path d="M76.8845 12.926C77.2347 12.926 77.5849 12.926 77.5849 12.5291C77.5849 12.1088 77.188 12.1088 76.7911 12.1088H63.7392C63.3422 12.1088 62.9453 12.1088 62.9453 12.5291C62.9453 12.926 63.2955 12.926 63.6458 12.926H76.8845ZM76.7911 17.0821C77.188 17.0821 77.5849 17.0821 77.5849 16.6618C77.5849 16.2649 77.2347 16.2649 76.8845 16.2649H63.6458C63.2955 16.2649 62.9453 16.2649 62.9453 16.6618C62.9453 17.0821 63.3422 17.0821 63.7392 17.0821H76.7911Z" fill="#00FFFF"/>
<path d="M93.7561 6.20162C93.9662 5.38441 94.0129 5.15093 95.7174 5.15093C96.2311 5.15093 96.4178 5.15093 96.4178 4.7073C96.4178 4.47382 96.161 4.47382 96.091 4.47382C95.6707 4.47382 95.157 4.52051 94.7367 4.52051H91.8649C91.3979 4.52051 90.8609 4.47382 90.3939 4.47382C90.2071 4.47382 89.9503 4.47382 89.9503 4.91744C89.9503 5.15093 90.1371 5.15093 90.604 5.15093C92.0517 5.15093 92.0517 5.33772 92.0517 5.59455C92.0517 5.75799 92.005 5.89808 91.9583 6.10822L88.8062 18.6931C88.5961 19.5103 88.5494 19.7438 86.8449 19.7438C86.3312 19.7438 86.1211 19.7438 86.1211 20.1875C86.1211 20.4209 86.3546 20.4209 86.4713 20.4209C86.8916 20.4209 87.4053 20.3742 87.8255 20.3742H90.6974C91.1644 20.3742 91.6781 20.4209 92.145 20.4209C92.3318 20.4209 92.612 20.4209 92.612 20.0007C92.612 19.7438 92.4719 19.7438 91.9583 19.7438C90.5106 19.7438 90.5106 19.557 90.5106 19.2769C90.5106 19.2302 90.5106 19.1134 90.604 18.7398L93.7561 6.20162Z" fill="#00FFFF"/>
<path d="M118.582 12.926C118.932 12.926 119.282 12.926 119.282 12.5291C119.282 12.1088 118.885 12.1088 118.488 12.1088H105.436C105.04 12.1088 104.643 12.1088 104.643 12.5291C104.643 12.926 104.993 12.926 105.343 12.926H118.582ZM118.488 17.0821C118.885 17.0821 119.282 17.0821 119.282 16.6618C119.282 16.2649 118.932 16.2649 118.582 16.2649H105.343C104.993 16.2649 104.643 16.2649 104.643 16.6618C104.643 17.0821 105.04 17.0821 105.436 17.0821H118.488Z" fill="#00FFFF"/>
<path d="M130.831 17.8292C130.013 19.2068 129.22 19.6738 128.099 19.7438C127.842 19.7672 127.655 19.7672 127.655 20.1874C127.655 20.3275 127.772 20.4209 127.935 20.4209C128.356 20.4209 129.406 20.3742 129.827 20.3742C130.504 20.3742 131.251 20.4209 131.905 20.4209C132.045 20.4209 132.325 20.4209 132.325 19.9773C132.325 19.7672 132.138 19.7438 131.998 19.7438C131.461 19.6971 131.017 19.5103 131.017 18.95C131.017 18.6231 131.158 18.3663 131.461 17.8526L133.236 14.9107H139.19C139.213 15.1208 139.213 15.3076 139.236 15.5177C139.306 16.1248 139.586 18.553 139.586 18.9967C139.586 19.6971 138.396 19.7438 138.022 19.7438C137.765 19.7438 137.508 19.7438 137.508 20.1641C137.508 20.4209 137.719 20.4209 137.859 20.4209C138.256 20.4209 138.723 20.3742 139.119 20.3742H140.45C141.875 20.3742 142.902 20.4209 142.925 20.4209C143.089 20.4209 143.346 20.4209 143.346 19.9773C143.346 19.7438 143.135 19.7438 142.785 19.7438C141.501 19.7438 141.478 19.5337 141.408 18.8332L139.983 4.26367C139.937 3.7967 139.843 3.75 139.586 3.75C139.353 3.75 139.213 3.7967 139.003 4.14693L130.831 17.8292ZM133.633 14.2335L138.326 6.3884L139.119 14.2335H133.633Z" fill="#00FFFF"/>
<path d="M147.969 17.8292C147.152 19.2068 146.358 19.6738 145.238 19.7438C144.981 19.7672 144.794 19.7672 144.794 20.1874C144.794 20.3275 144.911 20.4209 145.074 20.4209C145.494 20.4209 146.545 20.3742 146.965 20.3742C147.642 20.3742 148.39 20.4209 149.043 20.4209C149.183 20.4209 149.464 20.4209 149.464 19.9773C149.464 19.7672 149.277 19.7438 149.137 19.7438C148.6 19.6971 148.156 19.5103 148.156 18.95C148.156 18.6231 148.296 18.3663 148.6 17.8526L150.374 14.9107H156.328C156.352 15.1208 156.352 15.3076 156.375 15.5177C156.445 16.1248 156.725 18.553 156.725 18.9967C156.725 19.6971 155.534 19.7438 155.161 19.7438C154.904 19.7438 154.647 19.7438 154.647 20.1641C154.647 20.4209 154.857 20.4209 154.997 20.4209C155.394 20.4209 155.861 20.3742 156.258 20.3742H157.589C159.013 20.3742 160.041 20.4209 160.064 20.4209C160.227 20.4209 160.484 20.4209 160.484 19.9773C160.484 19.7438 160.274 19.7438 159.924 19.7438C158.64 19.7438 158.616 19.5337 158.546 18.8332L157.122 4.26367C157.075 3.7967 156.982 3.75 156.725 3.75C156.492 3.75 156.352 3.7967 156.141 4.14693L147.969 17.8292ZM150.771 14.2335L155.464 6.3884L156.258 14.2335H150.771Z" fill="#00FFFF"/>
<path d="M171.821 7.05189C172.097 7.05189 172.388 7.05189 172.388 6.72767C172.388 6.40344 172.097 6.40344 171.821 6.40344H163.051C162.775 6.40344 162.483 6.40344 162.483 6.72767C162.483 7.05189 162.775 7.05189 163.051 7.05189H171.821Z" fill="#00FFFF"/>
<path d="M178.416 0.389069C178.416 0.0162108 178.416 0 178.092 0C177.703 0.437702 176.892 1.03752 175.223 1.03752V1.50764C175.596 1.50764 176.406 1.50764 177.298 1.08615V9.53219C177.298 10.1158 177.249 10.3103 175.822 10.3103H175.32V10.7804C175.758 10.748 177.33 10.748 177.865 10.748C178.4 10.748 179.956 10.748 180.394 10.7804V10.3103H179.891C178.465 10.3103 178.416 10.1158 178.416 9.53219V0.389069Z" fill="#00FFFF"/>
</svg>
