<svg width="99" height="57" viewBox="0 0 99 57" fill="none" xmlns="http://www.w3.org/2000/svg">
<g clip-path="url(#clip0)">
<path d="M3.96936 31.2641C3.15216 32.6417 2.3583 33.1087 1.23757 33.1787C0.980734 33.202 0.793945 33.202 0.793945 33.6223C0.793945 33.7624 0.910688 33.8558 1.07413 33.8558C1.4944 33.8558 2.54509 33.8091 2.96537 33.8091C3.64248 33.8091 4.38964 33.8558 5.0434 33.8558C5.18349 33.8558 5.46367 33.8558 5.46367 33.4122C5.46367 33.202 5.27689 33.1787 5.13679 33.1787C4.59977 33.132 4.15615 32.9452 4.15615 32.3848C4.15615 32.058 4.29624 31.8011 4.59978 31.2875L6.37427 28.3455H12.3282C12.3515 28.5557 12.3515 28.7425 12.3749 28.9526C12.4449 29.5597 12.7251 31.9879 12.7251 32.4315C12.7251 33.132 11.5343 33.1787 11.1607 33.1787C10.9039 33.1787 10.6471 33.1787 10.6471 33.599C10.6471 33.8558 10.8572 33.8558 10.9973 33.8558C11.3942 33.8558 11.8612 33.8091 12.2581 33.8091H13.589C15.0133 33.8091 16.0406 33.8558 16.064 33.8558C16.2274 33.8558 16.4842 33.8558 16.4842 33.4122C16.4842 33.1787 16.2741 33.1787 15.9239 33.1787C14.6397 33.1787 14.6163 32.9686 14.5463 32.2681L13.122 17.6985C13.0753 17.2316 12.9819 17.1849 12.7251 17.1849C12.4916 17.1849 12.3515 17.2316 12.1414 17.5818L3.96936 31.2641ZM6.7712 27.6684L11.4643 19.8233L12.2581 27.6684H6.7712Z" fill="#00FFFF"/>
<path d="M38.6374 26.3609C38.9876 26.3609 39.3378 26.3609 39.3378 25.964C39.3378 25.5437 38.9409 25.5437 38.544 25.5437H25.4921C25.0952 25.5437 24.6982 25.5437 24.6982 25.964C24.6982 26.3609 25.0485 26.3609 25.3987 26.3609H38.6374ZM38.544 30.517C38.9409 30.517 39.3378 30.517 39.3378 30.0967C39.3378 29.6998 38.9876 29.6998 38.6374 29.6998H25.3987C25.0485 29.6998 24.6982 29.6998 24.6982 30.0967C24.6982 30.517 25.0952 30.517 25.4921 30.517H38.544Z" fill="#00FFFF"/>
<path d="M52.7539 56.0134H58.8946V54.7292H54.0381V1.28418H58.8946V0H52.7539V56.0134Z" fill="#00FFFF"/>
<path d="M65.4509 4.65545C65.4509 4.16513 65.4275 4.14178 65.1007 4.14178C64.1901 5.23917 62.8125 5.5894 61.505 5.6361C61.4349 5.6361 61.3182 5.6361 61.2948 5.68279C61.2715 5.72949 61.2715 5.77619 61.2715 6.26651C61.9953 6.26651 63.2094 6.12642 64.1434 5.56605V17.8708C64.1434 18.688 64.0967 18.9682 62.0887 18.9682H61.3882V19.5752C62.509 19.5519 63.6764 19.5285 64.7971 19.5285C65.9179 19.5285 67.0853 19.5519 68.206 19.5752V18.9682H67.5056C65.4976 18.9682 65.4509 18.7113 65.4509 17.8708V4.65545Z" fill="#00FFFF"/>
<path d="M86.3661 11.6367C88.4441 11.6367 89.3547 13.4345 89.3547 15.5126C89.3547 18.3144 87.8604 19.3885 86.5062 19.3885C85.2687 19.3885 83.2607 18.7814 82.6303 16.9835C82.7471 17.0302 82.8638 17.0302 82.9806 17.0302C83.5409 17.0302 83.9612 16.6567 83.9612 16.0496C83.9612 15.3725 83.4475 15.069 82.9806 15.069C82.5836 15.069 81.9766 15.2557 81.9766 16.1196C81.9766 18.2677 84.0779 19.9488 86.5529 19.9488C89.1446 19.9488 91.1292 17.9175 91.1292 15.5359C91.1292 13.2711 89.2613 11.6367 87.0432 11.3799C88.8177 11.0063 90.5222 9.41858 90.5222 7.29385C90.5222 5.47266 88.6776 4.14178 86.5762 4.14178C84.4515 4.14178 82.5836 5.44931 82.5836 7.3172C82.5836 8.1344 83.1907 8.27449 83.4942 8.27449C83.9845 8.27449 84.4048 7.97096 84.4048 7.3639C84.4048 6.75683 83.9845 6.4533 83.4942 6.4533C83.4008 6.4533 83.2841 6.4533 83.1907 6.5C83.8678 4.95899 85.7123 4.6788 86.5295 4.6788C87.3468 4.6788 88.8878 5.07573 88.8878 7.3172C88.8878 7.97096 88.7944 9.13839 88.0005 10.1657C87.3001 11.0763 86.5062 11.123 85.7357 11.1931C85.619 11.1931 85.0819 11.2398 84.9885 11.2398C84.8251 11.2631 84.7317 11.2865 84.7317 11.4499C84.7317 11.6134 84.7551 11.6367 85.222 11.6367H86.3661Z" fill="#00FFFF"/>
<path d="M68.9764 44.1007H68.5561C68.3226 45.7584 68.1358 46.0386 68.0424 46.1787C67.9257 46.3655 66.2446 46.3655 65.9177 46.3655H61.4347C62.2753 45.4549 63.9097 43.7971 65.8943 41.8825C67.3186 40.5283 68.9764 38.9406 68.9764 36.6291C68.9764 33.874 66.7816 32.2863 64.33 32.2863C61.7616 32.2863 60.1973 34.5511 60.1973 36.6525C60.1973 37.563 60.8744 37.6798 61.1546 37.6798C61.388 37.6798 62.0885 37.5397 62.0885 36.7225C62.0885 35.9987 61.4814 35.7886 61.1546 35.7886C61.0145 35.7886 60.8744 35.8119 60.781 35.8586C61.2246 33.874 62.5788 32.8933 64.0031 32.8933C66.0344 32.8933 67.3653 34.5044 67.3653 36.6291C67.3653 38.6604 66.1745 40.4116 64.8436 41.9292L60.1973 47.1827V47.7197H68.416L68.9764 44.1007Z" fill="#00FFFF"/>
<path d="M83.6815 39.6644C83.6815 34.0841 86.2965 32.8233 87.8142 32.8233C88.3045 32.8233 89.4953 32.9167 89.9622 33.8273C89.5887 33.8273 88.8882 33.8273 88.8882 34.6445C88.8882 35.2749 89.4019 35.485 89.7288 35.485C89.9389 35.485 90.5693 35.3916 90.5693 34.5978C90.5693 33.1268 89.4019 32.2863 87.7908 32.2863C85.0123 32.2863 82.0938 35.1815 82.0938 40.3415C82.0938 46.6924 84.7321 48.0933 86.6 48.0933C88.8649 48.0933 91.0129 46.062 91.0129 42.9332C91.0129 40.0147 89.1217 37.8899 86.7401 37.8899C85.3159 37.8899 84.2652 38.8239 83.6815 40.4583V39.6644ZM86.6 47.5329C83.7282 47.5329 83.7282 43.2368 83.7282 42.3729C83.7282 40.6918 84.522 38.2635 86.6934 38.2635C87.0904 38.2635 88.2344 38.2635 89.0049 39.8746C89.4252 40.7852 89.4252 41.7425 89.4252 42.9099C89.4252 44.1707 89.4252 45.1047 88.9349 46.0386C88.4212 46.9959 87.6741 47.5329 86.6 47.5329Z" fill="#00FFFF"/>
<path d="M97.0977 54.7292H92.2412V56.0134H98.3819V0H92.2412V1.28418H97.0977V54.7292Z" fill="#00FFFF"/>
</g>
<defs>
<clipPath id="clip0">
<rect width="98.3816" height="56.0134" fill="white"/>
</clipPath>
</defs>
</svg>
