<svg width="78" height="18" viewBox="0 0 78 18" fill="none" xmlns="http://www.w3.org/2000/svg">
<path d="M3.96936 14.0792C3.15216 15.4568 2.3583 15.9238 1.23757 15.9938C0.980734 16.0172 0.793945 16.0172 0.793945 16.4374C0.793945 16.5775 0.910688 16.6709 1.07413 16.6709C1.4944 16.6709 2.54509 16.6242 2.96537 16.6242C3.64248 16.6242 4.38964 16.6709 5.0434 16.6709C5.18349 16.6709 5.46367 16.6709 5.46367 16.2273C5.46367 16.0172 5.27689 15.9938 5.13679 15.9938C4.59977 15.9471 4.15615 15.7603 4.15615 15.2C4.15615 14.8731 4.29624 14.6163 4.59978 14.1026L6.37427 11.1607H12.3282C12.3515 11.3708 12.3515 11.5576 12.3749 11.7677C12.4449 12.3748 12.7251 14.803 12.7251 15.2467C12.7251 15.9471 11.5343 15.9938 11.1607 15.9938C10.9039 15.9938 10.6471 15.9938 10.6471 16.4141C10.6471 16.6709 10.8572 16.6709 10.9973 16.6709C11.3942 16.6709 11.8612 16.6242 12.2581 16.6242H13.589C15.0133 16.6242 16.0406 16.6709 16.064 16.6709C16.2274 16.6709 16.4842 16.6709 16.4842 16.2273C16.4842 15.9938 16.2741 15.9938 15.9239 15.9938C14.6397 15.9938 14.6163 15.7837 14.5463 15.0832L13.122 0.51367C13.0753 0.0466979 12.9819 0 12.7251 0C12.4916 0 12.3515 0.0466973 12.1414 0.396927L3.96936 14.0792ZM6.7712 10.4835L11.4643 2.6384L12.2581 10.4835H6.7712Z" fill="#00FFFF"/>
<path d="M28.2295 7.19133L26.0348 2.07798C26.3383 1.51761 27.0388 1.42421 27.3189 1.40087C27.459 1.40087 27.7159 1.37752 27.7159 0.980591C27.7159 0.723755 27.5057 0.723755 27.3656 0.723755C26.9687 0.723755 26.5017 0.770453 26.1048 0.770453H24.7506C23.3263 0.770453 22.299 0.723755 22.2756 0.723755C22.0889 0.723755 21.8554 0.723755 21.8554 1.16738C21.8554 1.40087 22.0655 1.40087 22.369 1.40087C23.7233 1.40087 23.8167 1.63435 24.0501 2.19472L26.8286 8.68564L21.762 14.1025C20.9214 15.0131 19.9174 15.9004 18.1896 15.9938C17.9094 16.0171 17.7227 16.0171 17.7227 16.4374C17.7227 16.5074 17.746 16.6709 18.0028 16.6709C18.3297 16.6709 18.68 16.6242 19.0068 16.6242H20.1042C20.8514 16.6242 21.6686 16.6709 22.3924 16.6709C22.5558 16.6709 22.836 16.6709 22.836 16.2506C22.836 16.0171 22.6726 15.9938 22.5325 15.9938C22.0655 15.9471 21.762 15.6902 21.762 15.3167C21.762 14.9197 22.0422 14.6396 22.7193 13.9391L24.7973 11.6743C25.311 11.1373 26.5484 9.78303 27.0621 9.26936L29.5137 15.0131C29.5371 15.0598 29.6305 15.2933 29.6305 15.3167C29.6305 15.5268 29.1168 15.9471 28.3696 15.9938C28.2295 15.9938 27.9727 16.0171 27.9727 16.4374C27.9727 16.6709 28.2062 16.6709 28.3229 16.6709C28.7199 16.6709 29.1868 16.6242 29.5838 16.6242H32.1521C32.5724 16.6242 33.016 16.6709 33.4129 16.6709C33.5764 16.6709 33.8332 16.6709 33.8332 16.2273C33.8332 15.9938 33.5997 15.9938 33.3896 15.9938C31.9887 15.9704 31.942 15.8537 31.5451 14.9898L28.463 7.7517L31.4283 4.57628C31.6618 4.3428 32.1988 3.75908 32.409 3.52559C33.4129 2.4749 34.3469 1.51761 36.2381 1.40087C36.4716 1.37752 36.7051 1.37752 36.7051 0.980591C36.7051 0.723755 36.495 0.723755 36.4016 0.723755C36.0747 0.723755 35.7245 0.770453 35.3976 0.770453H34.3235C33.5764 0.770453 32.7592 0.723755 32.0354 0.723755C31.8719 0.723755 31.5918 0.723755 31.5918 1.14403C31.5918 1.37752 31.7552 1.40087 31.8953 1.40087C32.2689 1.44756 32.6658 1.63435 32.6658 2.07798L32.6424 2.12467C32.6191 2.28811 32.5724 2.5216 32.3156 2.80179L28.2295 7.19133Z" fill="#00FFFF"/>
<path d="M59.447 9.17609C59.7972 9.17609 60.1474 9.17609 60.1474 8.77916C60.1474 8.35889 59.7505 8.35889 59.3536 8.35889H46.3017C45.9047 8.35889 45.5078 8.35889 45.5078 8.77916C45.5078 9.17609 45.858 9.17609 46.2083 9.17609H59.447ZM59.3536 13.3321C59.7505 13.3321 60.1474 13.3321 60.1474 12.9119C60.1474 12.5149 59.7972 12.5149 59.447 12.5149H46.2083C45.858 12.5149 45.5078 12.5149 45.5078 12.9119C45.5078 13.3321 45.9047 13.3321 46.3017 13.3321H59.3536Z" fill="#00FFFF"/>
<path d="M77.5334 9.17597C77.5334 7.7517 77.5101 5.32344 76.5294 3.45555C75.6655 1.82114 74.288 1.23743 73.0738 1.23743C71.9531 1.23743 70.5288 1.7511 69.6416 3.4322C68.7077 5.18335 68.6143 7.35477 68.6143 9.17597C68.6143 10.5068 68.6376 12.5382 69.3614 14.3127C70.3654 16.7176 72.1633 17.0445 73.0738 17.0445C74.1479 17.0445 75.7823 16.6008 76.7396 14.3827C77.44 12.7717 77.5334 10.8804 77.5334 9.17597ZM73.0738 16.6709C71.5795 16.6709 70.6923 15.3867 70.3654 13.6122C70.1086 12.2346 70.1086 10.2267 70.1086 8.91913C70.1086 7.12129 70.1086 5.62697 70.4121 4.2027C70.8557 2.21807 72.1633 1.611 73.0738 1.611C74.0311 1.611 75.2686 2.24142 75.7122 4.15601C76.0158 5.48688 76.0391 7.05124 76.0391 8.91913C76.0391 10.4368 76.0391 12.3047 75.7589 13.6823C75.2686 16.2273 73.8911 16.6709 73.0738 16.6709Z" fill="#00FFFF"/>
</svg>
